<svg width="446" height="445" viewBox="0 0 446 445" fill="none" xmlns="http://www.w3.org/2000/svg">
<mask id="mask0_2016_9972" style="mask-type:alpha" maskUnits="userSpaceOnUse" x="0" y="0" width="446" height="445">
<circle cx="222.543" cy="222.5" r="222.5" fill="#D9D9D9"/>
</mask>
<g mask="url(#mask0_2016_9972)">
<circle cx="222.543" cy="222.5" r="222.5" fill="#003E42"/>
<path fill-rule="evenodd" clip-rule="evenodd" d="M74.2979 435.762L222.504 493.257L370.711 436.021L222.115 378.773L74.2979 435.762Z" fill="#EEFFFE"/>
<path fill-rule="evenodd" clip-rule="evenodd" d="M74.3138 435.761L222.673 493.256V728.879L73.9434 671.643L74.3138 435.761Z" fill="#D5F2F1"/>
<path fill-rule="evenodd" clip-rule="evenodd" d="M370.71 435.761L222.351 493.256L221.98 728.519L370.693 671.282L370.71 435.761Z" fill="#EEFFFE"/>
<path fill-rule="evenodd" clip-rule="evenodd" d="M74.2979 218.989L222.504 276.484L370.711 219.248L222.115 162L74.2979 218.989Z" fill="#88CCCA"/>
<path fill-rule="evenodd" clip-rule="evenodd" d="M74.3138 218.988L222.673 276.483V512.106L73.9434 454.87L74.3138 218.988Z" fill="#D5F2F1"/>
<path fill-rule="evenodd" clip-rule="evenodd" d="M370.71 218.988L222.351 276.483L221.98 511.746L370.693 454.509L370.71 218.988Z" fill="#EEFFFE"/>
<path fill-rule="evenodd" clip-rule="evenodd" d="M362.364 240.979L230.983 291.899V307.066L362.364 256.271V240.979Z" fill="#D5F2F1"/>
<path fill-rule="evenodd" clip-rule="evenodd" d="M362.364 362.344L230.983 413.263V428.431L362.364 377.636V362.344Z" fill="#D5F2F1"/>
<path fill-rule="evenodd" clip-rule="evenodd" d="M362.364 301.661L230.983 352.581V367.748L362.364 316.953V301.661Z" fill="#D5F2F1"/>
<path fill-rule="evenodd" clip-rule="evenodd" d="M362.364 423.036L230.983 473.955V489.123L362.364 438.328V423.036Z" fill="#D5F2F1"/>
<path fill-rule="evenodd" clip-rule="evenodd" d="M362.364 271.327L230.983 322.246V337.414L362.364 286.618V271.327Z" fill="#D5F2F1"/>
<path fill-rule="evenodd" clip-rule="evenodd" d="M362.364 392.69L230.983 443.61V458.777L362.364 407.982V392.69Z" fill="#D5F2F1"/>
<path fill-rule="evenodd" clip-rule="evenodd" d="M362.364 332.007L230.983 382.927V398.094L362.364 347.299V332.007Z" fill="#D5F2F1"/>
<path fill-rule="evenodd" clip-rule="evenodd" d="M80.2656 240.979L211.648 291.899V307.066L80.2656 256.271V240.979Z" fill="#B9E0DF"/>
<path fill-rule="evenodd" clip-rule="evenodd" d="M80.2656 362.344L211.648 413.263V428.431L80.2656 377.636V362.344Z" fill="#B9E0DF"/>
<path fill-rule="evenodd" clip-rule="evenodd" d="M80.2656 301.661L211.648 352.581V367.748L80.2656 316.953V301.661Z" fill="#B9E0DF"/>
<path fill-rule="evenodd" clip-rule="evenodd" d="M80.2656 423.036L211.648 473.955V489.123L80.2656 438.328V423.036Z" fill="#B9E0DF"/>
<path fill-rule="evenodd" clip-rule="evenodd" d="M80.2656 271.327L211.648 322.246V337.414L80.2656 286.618V271.327Z" fill="#B9E0DF"/>
<path fill-rule="evenodd" clip-rule="evenodd" d="M80.2656 392.69L211.648 443.609V458.777L80.2656 407.982V392.69Z" fill="#B9E0DF"/>
<path fill-rule="evenodd" clip-rule="evenodd" d="M80.2656 332.007L211.648 382.927V398.094L80.2656 347.299V332.007Z" fill="#B9E0DF"/>
<path d="M240.537 213.26L266.841 202.846V217.981L240.537 228.607V213.26Z" fill="#D5F2F1"/>
<path d="M240.537 211.911V228.608L215.582 218.656V203.308L240.537 211.911Z" fill="#67AFAD"/>
<path d="M215.582 203.425L241.833 193.026L266.842 202.86L240.537 213.26L215.582 203.425Z" fill="white"/>
<path d="M202.768 228.098L229.072 217.684V232.819L202.768 243.446V228.098Z" fill="#D5F2F1"/>
<path d="M202.766 226.749V243.446L177.811 233.494V218.146L202.766 226.749Z" fill="#67AFAD"/>
<path d="M177.811 218.264L204.061 207.864L229.07 217.699L202.766 228.098L177.811 218.264Z" fill="white"/>
<circle cx="106.543" cy="195.5" r="20.5" fill="#00C8B5"/>
<circle cx="227.543" cy="104.5" r="20.5" fill="#00C8B5"/>
<circle cx="242.543" cy="222.5" r="20.5" fill="#00C8B5"/>
<circle cx="285.543" cy="153.5" r="12.5" fill="#006058"/>
<circle cx="143.543" cy="74.5" r="12.5" fill="#00C8B5"/>
<circle cx="244.543" cy="20.5" r="12.5" fill="#006058"/>
<circle cx="90.543" cy="41.5" r="12.5" fill="#006058"/>
<circle cx="187.543" cy="175.5" r="7.5" fill="#006058"/>
<circle cx="356.543" cy="93.5" r="7.5" fill="#00C8B5"/>
<circle cx="77.543" cy="114.5" r="7.5" fill="#006058"/>
<circle cx="314.543" cy="21.5" r="7.5" fill="#00C8B5"/>
<circle cx="156.543" cy="230.5" r="7.5" fill="#006058"/>
</g>
<path d="M344.858 299.474C372.909 289.363 395.672 254.259 395.672 221.23C395.672 188.2 372.909 169.586 344.858 179.8C316.806 190.015 294.043 225.015 294.043 258.044C294.043 291.074 316.806 309.689 344.858 299.474Z" fill="#006058"/>
<path d="M355.229 304.659C383.28 294.548 406.043 259.444 406.043 226.415C406.043 193.385 383.28 174.771 355.229 184.986C327.177 195.2 304.414 230.2 304.414 263.23C304.414 296.259 327.177 314.874 355.229 304.659Z" fill="#018D82"/>
<path d="M326.043 276.72L386.043 255.52" stroke="#EAFFFD" stroke-width="4" stroke-miterlimit="10" stroke-linecap="square"/>
<path d="M328.043 242.02L340.043 237.78V263.78L328.043 268.02V242.02Z" stroke="#EAFFFD" stroke-width="4" stroke-miterlimit="10" stroke-linecap="square"/>
<path d="M350.043 216.24L362.043 212V256L350.043 260.24V216.24Z" stroke="#EAFFFD" stroke-width="4" stroke-miterlimit="10" stroke-linecap="square"/>
<path d="M372.043 236.47L384.043 232.23V248.23L372.043 252.47V236.47Z" stroke="#EAFFFD" stroke-width="4" stroke-miterlimit="10" stroke-linecap="square"/>
</svg>
