<svg width="445" height="445" viewBox="0 0 445 445" fill="none" xmlns="http://www.w3.org/2000/svg">
<mask id="mask0_396_10550" style="mask-type:alpha" maskUnits="userSpaceOnUse" x="0" y="0" width="445" height="445">
<circle cx="222.5" cy="222.5" r="222.5" fill="#D9D9D9"/>
</mask>
<g mask="url(#mask0_396_10550)">
<circle cx="222.5" cy="222.5" r="222.5" fill="#00C8B5"/>
<path fill-rule="evenodd" clip-rule="evenodd" d="M-110.934 349.245C-115.198 350.889 -115.204 356.92 -110.943 358.572L228.696 490.3C229.857 490.751 231.144 490.751 232.305 490.303L571.905 359.183C576.172 357.536 576.169 351.497 571.901 349.853L231.37 218.692C230.213 218.247 228.932 218.247 227.775 218.693L-110.934 349.245Z" fill="#003E42"/>
<path fill-rule="evenodd" clip-rule="evenodd" d="M81 433L94 438L448 302L435 297L81 433Z" fill="#00C8B5"/>
<path fill-rule="evenodd" clip-rule="evenodd" d="M128 257L115 262L444 408.5L456 404L128 257Z" fill="#00C8B5"/>
<path fill-rule="evenodd" clip-rule="evenodd" d="M33.5 293.5L18 299.5L352 444L369 437.5L33.5 293.5Z" fill="#00C8B5"/>
<path fill-rule="evenodd" clip-rule="evenodd" d="M-9 398L4 403L358 267L345 262L-9 398Z" fill="#00C8B5"/>
<path fill-rule="evenodd" clip-rule="evenodd" d="M42.1143 212.919L89.5574 233.015L137.001 213.009L89.4329 193L42.1143 212.919Z" fill="#ACC1C1"/>
<path fill-rule="evenodd" clip-rule="evenodd" d="M42.1186 212.919L89.6105 233.015V315.37L42 295.364L42.1186 212.919Z" fill="#DEE7E9"/>
<path fill-rule="evenodd" clip-rule="evenodd" d="M137 212.919L89.5082 233.015L89.3896 315.244L136.995 295.238L137 212.919Z" fill="#F8F8F8"/>
<path d="M95.3301 210.917L103.75 207.277V212.567L95.3301 216.281V210.917Z" fill="#ECF2F3"/>
<path d="M95.3294 210.445V216.281L87.3408 212.802V207.438L95.3294 210.445Z" fill="#BECFD2"/>
<path d="M87.3408 207.479L95.7441 203.844L103.75 207.282L95.3294 210.916L87.3408 207.479Z" fill="white"/>
<path d="M83.2383 216.103L91.6587 212.463V217.753L83.2383 221.467V216.103Z" fill="#ECF2F3"/>
<path d="M83.2386 215.632V221.468L75.25 217.989V212.625L83.2386 215.632Z" fill="#BECFD2"/>
<path d="M75.25 212.665L83.6533 209.03L91.659 212.468L83.2386 216.103L75.25 212.665Z" fill="white"/>
<path fill-rule="evenodd" clip-rule="evenodd" d="M150.187 223.174L228.238 253.453L306.29 223.31L228.033 193.161L150.187 223.174Z" fill="#EEFFFE"/>
<path fill-rule="evenodd" clip-rule="evenodd" d="M150.195 223.173L228.327 253.453V377.541L150 347.398L150.195 223.173Z" fill="#D5F2F1"/>
<path fill-rule="evenodd" clip-rule="evenodd" d="M306.29 223.173L228.158 253.453L227.963 377.351L306.281 347.208L306.29 223.173Z" fill="#EEFFFE"/>
<path fill-rule="evenodd" clip-rule="evenodd" d="M301.893 234.755L232.703 261.571V269.559L301.893 242.808V234.755Z" fill="#D5F2F1"/>
<path fill-rule="evenodd" clip-rule="evenodd" d="M301.893 298.671L232.703 325.487V333.475L301.893 306.724V298.671Z" fill="#D5F2F1"/>
<path fill-rule="evenodd" clip-rule="evenodd" d="M301.893 266.713L232.703 293.529V301.517L301.893 274.766V266.713Z" fill="#D5F2F1"/>
<path fill-rule="evenodd" clip-rule="evenodd" d="M301.893 330.633L232.703 357.45V365.437L301.893 338.687V330.633Z" fill="#D5F2F1"/>
<path fill-rule="evenodd" clip-rule="evenodd" d="M301.893 250.737L232.703 277.553V285.541L301.893 258.79V250.737Z" fill="#D5F2F1"/>
<path fill-rule="evenodd" clip-rule="evenodd" d="M301.893 314.652L232.703 341.468V349.456L301.893 322.705V314.652Z" fill="#D5F2F1"/>
<path fill-rule="evenodd" clip-rule="evenodd" d="M301.893 282.694L232.703 309.51V317.498L301.893 290.747V282.694Z" fill="#D5F2F1"/>
<path fill-rule="evenodd" clip-rule="evenodd" d="M153.329 234.755L222.521 261.571V269.559L153.329 242.808V234.755Z" fill="#B9E0DF"/>
<path fill-rule="evenodd" clip-rule="evenodd" d="M153.329 298.671L222.521 325.487V333.475L153.329 306.724V298.671Z" fill="#B9E0DF"/>
<path fill-rule="evenodd" clip-rule="evenodd" d="M153.329 266.713L222.521 293.529V301.517L153.329 274.766V266.713Z" fill="#B9E0DF"/>
<path fill-rule="evenodd" clip-rule="evenodd" d="M153.329 330.633L222.521 357.45V365.437L153.329 338.687V330.633Z" fill="#B9E0DF"/>
<path fill-rule="evenodd" clip-rule="evenodd" d="M153.329 250.737L222.521 277.553V285.541L153.329 258.79V250.737Z" fill="#B9E0DF"/>
<path fill-rule="evenodd" clip-rule="evenodd" d="M153.329 314.652L222.521 341.468V349.456L153.329 322.705V314.652Z" fill="#B9E0DF"/>
<path fill-rule="evenodd" clip-rule="evenodd" d="M153.329 282.694L222.521 309.51V317.498L153.329 290.747V282.694Z" fill="#B9E0DF"/>
<path fill-rule="evenodd" clip-rule="evenodd" d="M150.187 109.013L228.238 139.292L306.29 109.149L228.033 79L150.187 109.013Z" fill="#88CCCA"/>
<path fill-rule="evenodd" clip-rule="evenodd" d="M150.195 109.012L228.327 139.291V263.38L150 233.237L150.195 109.012Z" fill="#D5F2F1"/>
<path fill-rule="evenodd" clip-rule="evenodd" d="M306.29 109.012L228.158 139.291L227.963 263.19L306.281 233.047L306.29 109.012Z" fill="#EEFFFE"/>
<path fill-rule="evenodd" clip-rule="evenodd" d="M301.893 120.594L232.703 147.41V155.398L301.893 128.647V120.594Z" fill="#D5F2F1"/>
<path fill-rule="evenodd" clip-rule="evenodd" d="M301.893 184.509L232.703 211.325V219.313L301.893 192.562V184.509Z" fill="#D5F2F1"/>
<path fill-rule="evenodd" clip-rule="evenodd" d="M301.893 152.551L232.703 179.368V187.355L301.893 160.604V152.551Z" fill="#D5F2F1"/>
<path fill-rule="evenodd" clip-rule="evenodd" d="M301.893 216.472L232.703 243.288V251.276L301.893 224.525V216.472Z" fill="#D5F2F1"/>
<path fill-rule="evenodd" clip-rule="evenodd" d="M301.893 136.576L232.703 163.392V171.38L301.893 144.629V136.576Z" fill="#D5F2F1"/>
<path fill-rule="evenodd" clip-rule="evenodd" d="M301.893 200.491L232.703 227.307V235.295L301.893 208.544V200.491Z" fill="#D5F2F1"/>
<path fill-rule="evenodd" clip-rule="evenodd" d="M301.893 168.533L232.703 195.349V203.337L301.893 176.586V168.533Z" fill="#D5F2F1"/>
<path fill-rule="evenodd" clip-rule="evenodd" d="M153.329 120.594L222.521 147.41V155.398L153.329 128.647V120.594Z" fill="#B9E0DF"/>
<path fill-rule="evenodd" clip-rule="evenodd" d="M153.329 184.509L222.521 211.325V219.313L153.329 192.562V184.509Z" fill="#B9E0DF"/>
<path fill-rule="evenodd" clip-rule="evenodd" d="M153.329 152.551L222.521 179.368V187.355L153.329 160.604V152.551Z" fill="#B9E0DF"/>
<path fill-rule="evenodd" clip-rule="evenodd" d="M153.329 216.472L222.521 243.288V251.276L153.329 224.525V216.472Z" fill="#B9E0DF"/>
<path fill-rule="evenodd" clip-rule="evenodd" d="M153.329 136.576L222.521 163.392V171.38L153.329 144.629V136.576Z" fill="#B9E0DF"/>
<path fill-rule="evenodd" clip-rule="evenodd" d="M153.329 200.491L222.521 227.307V235.295L153.329 208.544V200.491Z" fill="#B9E0DF"/>
<path fill-rule="evenodd" clip-rule="evenodd" d="M153.329 168.533L222.521 195.349V203.337L153.329 176.586V168.533Z" fill="#B9E0DF"/>
<path d="M237.735 105.995L251.588 100.511V108.482L237.735 114.078V105.995Z" fill="#D5F2F1"/>
<path d="M237.735 105.285V114.078L224.593 108.837V100.754L237.735 105.285Z" fill="#67AFAD"/>
<path d="M224.593 100.816L238.418 95.3394L251.588 100.519L237.735 105.995L224.593 100.816Z" fill="white"/>
<path d="M217.844 113.81L231.697 108.326V116.296L217.844 121.893V113.81Z" fill="#D5F2F1"/>
<path d="M217.844 113.1V121.893L204.701 116.652V108.569L217.844 113.1Z" fill="#67AFAD"/>
<path d="M204.701 108.631L218.526 103.154L231.697 108.333L217.844 113.81L204.701 108.631Z" fill="white"/>
<path fill-rule="evenodd" clip-rule="evenodd" d="M42.1387 293.362L100.294 315.923L158.45 293.464L100.142 271L42.1387 293.362Z" fill="#ACC1C1"/>
<path fill-rule="evenodd" clip-rule="evenodd" d="M42.1454 293.362L100.361 315.923V408.38L42 385.921L42.1454 293.362Z" fill="#DEE7E9"/>
<path fill-rule="evenodd" clip-rule="evenodd" d="M158.451 293.362L100.235 315.923L100.09 408.239L158.444 385.779L158.451 293.362Z" fill="#F8F8F8"/>
<path d="M107.371 291.114L117.693 287.028V292.967L107.371 297.136V291.114Z" fill="#ECF2F3"/>
<path d="M107.371 290.585V297.137L97.5791 293.231V287.209L107.371 290.585Z" fill="#BECFD2"/>
<path d="M97.5791 287.255L107.88 283.174L117.693 287.033L107.371 291.114L97.5791 287.255Z" fill="white"/>
<path d="M92.5508 296.937L102.872 292.851V298.79L92.5508 302.959V296.937Z" fill="#ECF2F3"/>
<path d="M92.5502 296.408V302.959L82.7578 299.054V293.032L92.5502 296.408Z" fill="#BECFD2"/>
<path d="M82.7578 293.078L93.0585 288.997L102.872 292.856L92.5502 296.937L82.7578 293.078Z" fill="white"/>
<path fill-rule="evenodd" clip-rule="evenodd" d="M362.154 248.772L426.577 273.765L491 248.885L426.408 224L362.154 248.772Z" fill="#ACC1C1"/>
<path fill-rule="evenodd" clip-rule="evenodd" d="M362.161 248.772L426.65 273.764V376.186L362 351.306L362.161 248.772Z" fill="#DEE7E9"/>
<path fill-rule="evenodd" clip-rule="evenodd" d="M491.001 248.772L426.512 273.764L426.351 376.029L490.994 351.149L491.001 248.772Z" fill="#F8F8F8"/>
<path d="M434.416 246.282L445.85 241.755V248.334L434.416 252.953V246.282Z" fill="#ECF2F3"/>
<path d="M434.416 245.696V252.954L423.568 248.628V241.956L434.416 245.696Z" fill="#BECFD2"/>
<path d="M423.568 242.007L434.979 237.486L445.85 241.761L434.416 246.282L423.568 242.007Z" fill="white"/>
<path d="M417.997 252.732L429.431 248.205V254.784L417.997 259.403V252.732Z" fill="#ECF2F3"/>
<path d="M417.997 252.146V259.404L407.149 255.078V248.406L417.997 252.146Z" fill="#BECFD2"/>
<path d="M407.149 248.457L418.56 243.936L429.431 248.211L417.997 252.732L407.149 248.457Z" fill="white"/>
</g>
</svg>
