<svg width="445" height="446" viewBox="0 0 445 446" fill="none" xmlns="http://www.w3.org/2000/svg">
<mask id="mask0_396_10793" style="mask-type:alpha" maskUnits="userSpaceOnUse" x="0" y="0" width="445" height="446">
<circle cx="222.5" cy="223" r="222.5" fill="#D9D9D9"/>
</mask>
<g mask="url(#mask0_396_10793)">
<circle cx="222.5" cy="223" r="222.5" fill="#003E42"/>
<path d="M237.609 165.291C237.609 137.854 282.406 92.5 282.406 92.5C282.406 92.5 327.202 137.854 327.202 165.291C327.29 171.198 326.191 177.062 323.971 182.537C321.751 188.012 318.455 192.985 314.278 197.163C310.1 201.34 305.127 204.636 299.652 206.856C294.177 209.076 288.313 210.175 282.406 210.087C276.499 210.175 270.634 209.076 265.159 206.856C259.684 204.636 254.711 201.34 250.534 197.163C246.356 192.985 243.06 188.012 240.84 182.537C238.62 177.062 237.521 171.198 237.609 165.291V165.291Z" stroke="#00C8B5" stroke-width="8" stroke-miterlimit="10" stroke-linecap="round" stroke-linejoin="round"/>
<path d="M282.353 182.066C280.157 182.066 277.983 181.633 275.954 180.793C273.925 179.952 272.081 178.721 270.528 177.168C268.975 175.615 267.743 173.771 266.903 171.742C266.062 169.713 265.63 167.539 265.63 165.342" stroke="#00C8B5" stroke-width="8" stroke-miterlimit="10" stroke-linecap="square" stroke-linejoin="round"/>
<path d="M288.574 237.01L223.248 308.869H282.041L275.509 354.597L340.835 282.739H282.041L288.574 237.01Z" stroke="#00C8B5" stroke-width="8" stroke-miterlimit="10" stroke-linecap="round" stroke-linejoin="round"/>
<path d="M162.695 138.751C162.695 138.751 168.174 106.523 145.806 92.5C145.473 98.0408 143.975 103.449 141.41 108.372C138.845 113.295 135.271 117.621 130.921 121.069C121.366 129.475 103.388 148.332 103.58 168.496C103.515 177.101 105.855 185.554 110.334 192.902C114.814 200.25 121.256 206.202 128.935 210.087C129.21 206.201 130.258 202.409 132.017 198.934C133.776 195.458 136.21 192.368 139.178 189.844C141.695 187.91 143.8 185.493 145.372 182.735C146.944 179.978 147.95 176.934 148.332 173.783C154.912 177.278 160.472 182.422 164.468 188.711C168.463 195 170.758 202.218 171.127 209.66V209.782C178.374 206.456 184.561 201.191 189.003 194.569C193.446 187.947 195.971 180.226 196.299 172.259C196.789 155.904 191.295 139.933 180.847 127.341" stroke="#00C8B5" stroke-width="8" stroke-miterlimit="10" stroke-linecap="round" stroke-linejoin="round"/>
<path d="M192.683 279.718C192.675 271.962 190.557 264.354 186.556 257.709C182.556 251.065 176.823 245.633 169.973 241.997C163.122 238.36 155.411 236.656 147.666 237.065C139.921 237.475 132.433 239.984 126.004 244.323C119.575 248.662 114.448 254.668 111.171 261.698C107.894 268.728 106.591 276.517 107.401 284.23C108.211 291.944 111.104 299.292 115.77 305.487C120.436 311.683 126.7 316.492 133.89 319.401V328.285H165.96V319.401C173.859 316.198 180.622 310.71 185.382 303.641C190.143 296.571 192.685 288.241 192.683 279.718Z" stroke="#00C8B5" stroke-width="8" stroke-miterlimit="10" stroke-linecap="square"/>
<path d="M165.893 340.526V354.477H133.962V340.526" stroke="#00C8B5" stroke-width="8" stroke-miterlimit="10" stroke-linecap="square"/>
<path d="M130.497 277C130.497 273.046 132.068 269.253 134.865 266.456C137.661 263.66 141.454 262.089 145.409 262.089" stroke="#00C8B5" stroke-width="8" stroke-miterlimit="10" stroke-linecap="square"/>
</g>
</svg>
