<svg width="445" height="446" viewBox="0 0 445 446" fill="none" xmlns="http://www.w3.org/2000/svg">
<mask id="mask0_396_10837" style="mask-type:alpha" maskUnits="userSpaceOnUse" x="0" y="0" width="445" height="446">
<circle cx="222.5" cy="223" r="222.5" fill="#D9D9D9"/>
</mask>
<g mask="url(#mask0_396_10837)">
<circle cx="222.5" cy="223" r="222.5" fill="#006058"/>
<rect x="-44.7061" y="-26.2888" width="197.683" height="78.2493" fill="#003E42"/>
<rect x="159.154" y="-26.2888" width="197.683" height="78.2493" fill="#003E42"/>
<rect x="363.014" y="-26.2888" width="197.683" height="78.2493" fill="#003E42"/>
<rect x="-44.7061" y="142.565" width="197.683" height="78.2493" fill="#003E42"/>
<rect x="159.154" y="142.565" width="197.683" height="78.2493" fill="#003E42"/>
<rect x="363.014" y="142.565" width="197.683" height="78.2493" fill="#003E42"/>
<rect x="-143.547" y="58.1382" width="197.683" height="78.2493" fill="#003E42"/>
<rect x="60.3125" y="58.1382" width="197.683" height="78.2493" fill="#003E42"/>
<rect x="264.174" y="58.1382" width="197.683" height="78.2493" fill="#003E42"/>
<rect x="-42.6465" y="311.419" width="197.683" height="78.2493" fill="#003E42"/>
<rect x="161.214" y="311.419" width="197.683" height="78.2493" fill="#003E42"/>
<rect x="365.073" y="311.419" width="197.683" height="78.2493" fill="#003E42"/>
<rect x="-141.487" y="226.992" width="197.683" height="78.2493" fill="#003E42"/>
<rect x="62.3721" y="226.992" width="197.683" height="78.2493" fill="#003E42"/>
<rect x="266.233" y="226.992" width="197.683" height="78.2493" fill="#003E42"/>
<rect x="-135.311" y="395.846" width="197.683" height="78.2493" fill="#003E42"/>
<rect x="68.5488" y="395.846" width="197.683" height="78.2493" fill="#003E42"/>
<rect x="272.41" y="395.846" width="197.683" height="78.2493" fill="#003E42"/>
<rect x="145.739" y="101.926" width="176.368" height="257.651" fill="#00C8B5"/>
<path d="M111.999 89.6573L145.739 100.69V359.578L111.999 346.339V89.6573Z" fill="#006058"/>
<ellipse cx="250.33" cy="220.312" rx="73.2131" ry="73.7514" fill="#018D82"/>
<ellipse cx="269.787" cy="228.312" rx="73.2131" ry="73.7514" fill="#88CCCA"/>
<path d="M269.787 294.527C306.654 294.527 336.541 264.64 336.541 227.774C336.541 190.907 306.654 161.02 269.787 161.02C232.921 161.02 203.034 190.907 203.034 227.774C203.034 264.64 232.921 294.527 269.787 294.527Z" fill="#EAFFFD"/>
<path d="M261.234 219.22L237.604 195.59" stroke="#006058" stroke-width="5" stroke-miterlimit="10" stroke-linecap="square"/>
<path d="M269.787 239.911C276.49 239.911 281.924 234.477 281.924 227.774C281.924 221.071 276.49 215.637 269.787 215.637C263.084 215.637 257.65 221.071 257.65 227.774C257.65 234.477 263.084 239.911 269.787 239.911Z" fill="#EAFFFD" stroke="#006058" stroke-width="5" stroke-miterlimit="10" stroke-linecap="square"/>
<path d="M269.787 179.226V188.329" stroke="#006058" stroke-width="5" stroke-miterlimit="10" stroke-linecap="square"/>
<path d="M304.116 193.445L297.678 199.883" stroke="#006058" stroke-width="5" stroke-miterlimit="10" stroke-linecap="square"/>
<path d="M318.335 227.773H309.232" stroke="#006058" stroke-width="5" stroke-miterlimit="10" stroke-linecap="square"/>
<path d="M230.344 227.773H221.241" stroke="#006058" stroke-width="5" stroke-miterlimit="10" stroke-linecap="square"/>
<path d="M287.938 89.6573H111.999L145.739 101.926H322.107L287.938 89.6573Z" fill="#EAFFFD"/>
</g>
</svg>
