<svg width="446" height="445" viewBox="0 0 446 445" fill="none" xmlns="http://www.w3.org/2000/svg">
<mask id="mask0_2009_11456" style="mask-type:alpha" maskUnits="userSpaceOnUse" x="0" y="0" width="446" height="445">
<circle cx="223" cy="222.5" r="222.5" fill="#D9D9D9"/>
</mask>
<g mask="url(#mask0_2009_11456)">
<circle cx="223" cy="222.5" r="222.5" fill="#003E42"/>
<path d="M106.49 388.602V186.611L83.108 173.098C76.1421 169.241 70.5 171.404 70.5 177.936V387.389C70.5 393.921 76.1421 402.34 83.108 406.197L103.987 417.76C110.953 421.617 116.595 419.454 116.595 412.922V405.466L119.098 407.416C112.132 403.559 106.49 395.14 106.49 388.608V388.602Z" fill="#006058"/>
<path d="M133.546 164.706L117.887 156.031C114.023 153.887 108.967 151.905 104.926 153.887L72.9521 172.257C77.9701 169.425 83.7572 173.851 84.7974 174.276L103.785 184.795C110.751 188.652 116.393 197.071 116.393 203.603L113.6 390.993L133.54 397.812C140.506 401.668 146.148 399.506 146.148 392.974V183.514C146.148 176.982 140.506 168.563 133.54 164.706H133.546Z" fill="#EAFFFD"/>
<path d="M197.414 336.036V134.046L174.033 120.532C167.067 116.676 161.425 118.838 161.425 125.37V334.824C161.425 341.355 167.067 349.775 174.033 353.631L194.912 365.195C201.878 369.051 207.52 366.889 207.52 360.357V352.9L210.022 354.85C203.057 350.994 197.414 342.574 197.414 336.043V336.036Z" fill="#006058"/>
<path d="M224.474 112.143L208.814 103.467C204.95 101.324 199.894 99.3421 195.853 101.324L163.886 119.687C168.904 116.856 174.691 121.281 175.731 121.706L194.719 132.226C201.685 136.082 207.327 144.502 207.327 151.034L204.534 338.423L224.474 345.242C231.44 349.099 237.082 346.936 237.082 340.404V130.951C237.082 124.419 231.44 116 224.474 112.143Z" fill="#EAFFFD"/>
<path d="M166.719 459.832V252.672C166.719 242.315 158.252 229.107 147.807 223.17L114.37 204.162C103.924 198.224 95.458 201.805 95.458 212.162V425.91C95.458 436.267 103.924 449.475 114.37 455.413L141.118 470.62L150.53 476.02C164.109 483.802 180.846 483.79 194.412 475.989L197.407 474.264L166.719 459.838V459.832Z" fill="#018D82"/>
<path d="M282.783 425.862L193.764 476.347C178.836 484.885 166.732 479.81 166.732 465.008V267.362C166.732 252.561 178.836 233.634 193.764 225.096L282.783 174.611C297.711 166.073 309.815 171.148 309.815 185.949V383.596C309.815 398.397 297.711 417.324 282.783 425.862Z" fill="#EAFFFD"/>
<path d="M215.407 324.891V390.99" stroke="#00C8B5" stroke-width="8" stroke-miterlimit="10" stroke-linecap="round"/>
<path d="M273.369 292.039V358.026" stroke="#00C8B5" stroke-width="8" stroke-miterlimit="10" stroke-linecap="round"/>
<path d="M100.049 202.531L251.232 113.249L251.207 113.261C254.662 111.486 259.629 111.967 265.152 115.105L298.588 134.113C309.034 140.051 317.5 153.258 317.5 163.615V256.022C317.5 268.654 310.698 280.324 299.666 286.631L189.163 352.648C179.19 358.355 166.727 351.217 166.727 339.804V252.672C166.727 242.315 158.261 229.108 147.815 223.17L114.378 204.162C108.648 200.906 103.51 200.512 100.043 202.531H100.049Z" fill="#00C8B5"/>
<circle cx="289" cy="156.5" r="86.5" fill="#006058"/>
<path d="M299.5 168H277.5C265.349 168 255.5 177.849 255.5 190V193.667C255.5 193.667 266.958 197.333 288.5 197.333C310.042 197.333 321.5 193.667 321.5 193.667V190C321.5 177.849 311.651 168 299.5 168Z" stroke="#EAFFFD" stroke-width="5" stroke-miterlimit="10" stroke-linecap="round" stroke-linejoin="round"/>
<path d="M270.167 135C270.167 124.876 278.377 116.667 288.5 116.667C298.624 116.667 306.834 124.876 306.834 135C306.834 145.124 298.624 157 288.5 157C278.377 157 270.167 145.124 270.167 135Z" stroke="#EAFFFD" stroke-width="5" stroke-miterlimit="10" stroke-linecap="round" stroke-linejoin="round"/>
</g>
</svg>
