<svg width="446" height="445" viewBox="0 0 446 445" fill="none" xmlns="http://www.w3.org/2000/svg">
<mask id="mask0_2013_9874" style="mask-type:alpha" maskUnits="userSpaceOnUse" x="0" y="0" width="446" height="445">
<circle cx="222.543" cy="222.5" r="222.5" fill="#D9D9D9"/>
</mask>
<g mask="url(#mask0_2013_9874)">
<circle cx="222.543" cy="222.5" r="222.5" fill="#003E42"/>
<path d="M151.548 302.101V137.938L132.546 126.956C126.884 123.821 122.299 125.579 122.299 130.887V301.115C122.299 306.424 126.884 313.266 132.546 316.401L149.514 325.799C155.176 328.933 159.761 327.175 159.761 321.867V315.806L161.795 317.391C156.134 314.257 151.548 307.414 151.548 302.106V302.101Z" fill="#006058"/>
<path d="M173.538 120.136L160.812 113.085C157.671 111.342 153.562 109.732 150.278 111.342L124.292 126.272C128.37 123.971 133.074 127.568 133.919 127.913L149.351 136.463C155.012 139.597 159.598 146.44 159.598 151.748L157.328 304.044L173.533 309.586C179.195 312.72 183.78 310.963 183.78 305.654V135.421C183.78 130.113 179.195 123.27 173.533 120.136H173.538Z" fill="#EAFFFD"/>
<path d="M225.448 259.38V95.2171L206.445 84.2343C200.784 81.1 196.198 82.8577 196.198 88.1662V258.394C196.198 263.703 200.784 270.545 206.445 273.679L223.414 283.077C229.075 286.212 233.661 284.454 233.661 279.145V273.085L235.695 274.67C230.033 271.536 225.448 264.693 225.448 259.385V259.38Z" fill="#006058"/>
<path d="M247.439 77.4163L234.713 70.3654C231.572 68.623 227.463 67.0126 224.179 68.623L198.198 83.5478C202.276 81.2466 206.98 84.8431 207.825 85.1886L223.257 93.7381C228.918 96.8724 233.504 103.715 233.504 109.024L231.234 261.319L247.439 266.861C253.101 269.996 257.686 268.238 257.686 262.93V92.7018C257.686 87.3932 253.101 80.5506 247.439 77.4163Z" fill="#EAFFFD"/>
<path d="M200.499 359.991V191.627C200.499 183.21 193.618 172.476 185.129 167.65L157.954 152.202C149.465 147.376 142.584 150.287 142.584 158.704V332.422C142.584 340.84 149.465 351.573 157.954 356.399L179.693 368.759L187.342 373.148C198.378 379.472 211.981 379.462 223.006 373.122L225.44 371.72L200.499 359.996V359.991Z" fill="#018D82"/>
<path d="M294.826 332.383L222.478 373.413C210.346 380.352 200.509 376.227 200.509 364.198V203.566C200.509 191.537 210.346 176.155 222.478 169.216L294.826 128.185C306.958 121.246 316.795 125.371 316.795 137.4V298.032C316.795 310.062 306.958 325.443 294.826 332.383Z" fill="#EAFFFD"/>
<path d="M240.067 250.321V304.041" stroke="#00C8B5" stroke-width="8" stroke-miterlimit="10" stroke-linecap="round"/>
<path d="M287.179 223.622V277.251" stroke="#00C8B5" stroke-width="8" stroke-miterlimit="10" stroke-linecap="round"/>
<path d="M146.315 150.876L269.185 78.3149L269.164 78.3251C271.972 76.8824 276.009 77.2735 280.497 79.8237L307.672 95.2717C316.161 100.098 323.042 110.831 323.042 119.249V194.35C323.042 204.617 317.514 214.101 308.548 219.227L218.739 272.881C210.634 277.519 200.505 271.717 200.505 262.441V191.627C200.505 183.21 193.624 172.476 185.135 167.65L157.96 152.202C153.303 149.556 149.127 149.236 146.31 150.876H146.315Z" fill="#00C8B5"/>
<circle cx="330.043" cy="155" r="65" fill="#EAFFFD"/>
<path d="M291.89 144.14L293.114 148.388L297.866 147.056V167H302.834V141.8H298.514L291.89 144.14ZM316.756 167.504C319.924 167.504 322.408 166.316 324.172 163.94C325.936 161.528 326.836 158.36 326.836 154.4C326.836 150.44 325.936 147.272 324.172 144.896C322.408 142.484 319.924 141.296 316.756 141.296C313.624 141.296 311.14 142.484 309.34 144.896C307.576 147.272 306.676 150.44 306.676 154.4C306.676 158.36 307.576 161.528 309.34 163.94C311.14 166.316 313.624 167.504 316.756 167.504ZM321.904 154.4C321.904 159.728 320.104 162.644 316.756 162.644C313.408 162.644 311.644 159.764 311.644 154.4C311.644 149.036 313.408 146.12 316.756 146.12C320.104 146.12 321.904 149.036 321.904 154.4ZM339.432 167.504C342.6 167.504 345.084 166.316 346.848 163.94C348.612 161.528 349.512 158.36 349.512 154.4C349.512 150.44 348.612 147.272 346.848 144.896C345.084 142.484 342.6 141.296 339.432 141.296C336.3 141.296 333.816 142.484 332.016 144.896C330.252 147.272 329.352 150.44 329.352 154.4C329.352 158.36 330.252 161.528 332.016 163.94C333.816 166.316 336.3 167.504 339.432 167.504ZM344.58 154.4C344.58 159.728 342.78 162.644 339.432 162.644C336.084 162.644 334.32 159.764 334.32 154.4C334.32 149.036 336.084 146.12 339.432 146.12C342.78 146.12 344.58 149.036 344.58 154.4ZM362.088 151.484C363.24 150.332 363.816 148.928 363.816 147.236C363.816 145.544 363.24 144.14 362.088 143.024C360.936 141.872 359.496 141.296 357.768 141.296C356.04 141.296 354.6 141.872 353.412 143.024C352.26 144.176 351.684 145.58 351.684 147.236C351.684 148.892 352.26 150.296 353.412 151.448C354.6 152.6 356.04 153.176 357.768 153.176C359.496 153.176 360.936 152.6 362.088 151.484ZM356.4 164.444L372.852 146.156L370.656 144.932L354.24 163.184L356.4 164.444ZM356.112 148.892C355.284 147.992 355.284 146.48 356.112 145.616C356.976 144.752 358.488 144.752 359.352 145.616C360.216 146.48 360.216 147.992 359.352 148.892C358.488 149.756 356.976 149.756 356.112 148.892ZM374.256 165.704C375.408 164.552 375.984 163.148 375.984 161.492C375.984 159.836 375.408 158.432 374.256 157.28C373.104 156.128 371.664 155.552 369.936 155.552C368.208 155.552 366.768 156.128 365.616 157.28C364.464 158.432 363.888 159.836 363.888 161.492C363.888 163.148 364.464 164.552 365.616 165.704C366.768 166.856 368.208 167.432 369.936 167.432C371.664 167.432 373.104 166.856 374.256 165.704ZM372.168 161.492C372.168 162.752 371.232 163.796 369.936 163.796C368.64 163.796 367.704 162.788 367.704 161.492C367.704 160.196 368.64 159.188 369.936 159.188C371.232 159.188 372.168 160.196 372.168 161.492Z" fill="#003E42"/>
<circle cx="115.043" cy="280" r="65" fill="#00C8B5"/>
<mask id="mask1_2013_9874" style="mask-type:alpha" maskUnits="userSpaceOnUse" x="50" y="215" width="131" height="130">
<circle cx="115.043" cy="280" r="65" fill="#006058"/>
</mask>
<g mask="url(#mask1_2013_9874)">
<path d="M68.043 225.532C68.043 224.134 69.1766 223 70.5751 223H157.51C158.908 223 160.042 224.134 160.042 225.532V464.392C160.042 465.791 158.908 466.924 157.51 466.924H70.5751C69.1766 466.924 68.043 465.791 68.043 464.392V225.532Z" fill="#FAFBFD"/>
<path opacity="0.09" fill-rule="evenodd" clip-rule="evenodd" d="M160.043 327.871H68.0439V327.449H160.043V327.871Z" fill="#808080"/>
<path opacity="0.09" fill-rule="evenodd" clip-rule="evenodd" d="M160.043 300.018H68.0439V299.596H160.043V300.018Z" fill="#808080"/>
<path opacity="0.09" fill-rule="evenodd" clip-rule="evenodd" d="M160.043 272.165H68.0439V271.743H160.043V272.165Z" fill="#808080"/>
<path fill-rule="evenodd" clip-rule="evenodd" d="M78.7112 342.635V339.476H77.8672V343.914L80.5304 342.774L83.1934 343.916V339.477H82.3494V342.635L80.5306 341.856L78.7112 342.635Z" fill="#838383"/>
<path fill-rule="evenodd" clip-rule="evenodd" d="M80.5297 334.412C78.9947 334.412 77.7503 335.656 77.7503 337.191C77.7503 338.726 78.9947 339.971 80.5297 339.971C82.0647 339.971 83.3091 338.726 83.3091 337.191C83.3091 335.656 82.0647 334.412 80.5297 334.412ZM76.9062 337.191C76.9062 335.19 78.5285 333.568 80.5297 333.568C82.5308 333.568 84.1531 335.19 84.1531 337.191C84.1531 339.192 82.5308 340.815 80.5297 340.815C78.5285 340.815 76.9062 339.192 76.9062 337.191Z" fill="#838383"/>
<path fill-rule="evenodd" clip-rule="evenodd" d="M79.2557 306.073C80.3503 305.638 81.5624 305.598 82.6832 305.96C83.804 306.323 84.7635 307.064 85.3965 308.058C86.0295 309.051 86.2964 310.234 86.1513 311.403C86.0062 312.572 85.4582 313.654 84.6015 314.462L84.0222 313.848C84.7361 313.174 85.1928 312.273 85.3137 311.299C85.4346 310.325 85.2122 309.339 84.6847 308.511C84.1572 307.683 83.3576 307.065 82.4236 306.763C81.4896 306.462 80.4796 306.495 79.5673 306.857C78.6551 307.22 77.8978 307.889 77.4257 308.749C76.9536 309.61 76.7963 310.608 76.9808 311.572C77.1653 312.536 77.6801 313.406 78.4366 314.031C79.0841 314.567 79.874 314.895 80.7036 314.978V314.155H81.5477V315.843L81.1256 315.843C79.9477 315.843 78.8067 315.433 77.8988 314.682C76.991 313.931 76.3732 312.888 76.1518 311.731C75.9304 310.574 76.1192 309.376 76.6857 308.343C77.2522 307.311 78.161 306.508 79.2557 306.073Z" fill="#838383"/>
<path fill-rule="evenodd" clip-rule="evenodd" d="M78.5938 309.091H83.6579V310.779C83.6579 311.451 83.3912 312.095 82.9163 312.57C82.4414 313.044 81.7974 313.311 81.1258 313.311C80.4543 313.311 79.8102 313.044 79.3354 312.57C78.8605 312.095 78.5938 311.451 78.5938 310.779V309.091ZM79.4378 309.935V310.779C79.4378 311.227 79.6156 311.656 79.9322 311.973C80.2488 312.289 80.6781 312.467 81.1258 312.467C81.5735 312.467 82.0029 312.289 82.3195 311.973C82.636 311.656 82.8139 311.227 82.8139 310.779V309.935H79.4378Z" fill="#838383"/>
<path fill-rule="evenodd" clip-rule="evenodd" d="M80.2815 308.247V309.513H79.4375V308.247H80.2815Z" fill="#838383"/>
<path fill-rule="evenodd" clip-rule="evenodd" d="M82.8138 308.247V309.513H81.9697V308.247H82.8138Z" fill="#838383"/>
<path d="M151.601 319.641H76.4824V321.329H151.601V319.641Z" fill="#E9ECF5"/>
<path d="M150.757 319.641H76.4824V321.329H150.757V319.641Z" fill="#416CE9"/>
<path d="M151.602 319.641H150.758V321.329H151.602V319.641Z" fill="#416CE9"/>
<path fill-rule="evenodd" clip-rule="evenodd" d="M76.9062 277.862H85.3465V287.99H76.9062V277.862ZM77.7503 278.706V287.146H84.5025V278.706H77.7503Z" fill="#838383"/>
<path fill-rule="evenodd" clip-rule="evenodd" d="M81.1258 281.238C80.1935 281.238 79.4378 281.994 79.4378 282.926C79.4378 283.858 80.1935 284.614 81.1258 284.614C82.0581 284.614 82.8139 283.858 82.8139 282.926C82.8139 281.994 82.0581 281.238 81.1258 281.238ZM78.5938 282.926C78.5938 281.527 79.7274 280.394 81.1258 280.394C82.5243 280.394 83.6579 281.527 83.6579 282.926C83.6579 284.324 82.5243 285.458 81.1258 285.458C79.7274 285.458 78.5938 284.324 78.5938 282.926Z" fill="#838383"/>
<path d="M81.127 282.926H83.237C83.237 282.366 83.0147 281.83 82.619 281.434C82.2233 281.038 81.6866 280.816 81.127 280.816V282.926Z" fill="#838383"/>
<path d="M151.603 291.788H76.4844V293.476H151.603V291.788Z" fill="#E9ECF5"/>
<path d="M151.603 291.788H76.4844V293.476H151.603V291.788Z" fill="#416CE9"/>
<path d="M151.603 291.788H150.759V293.476H151.603V291.788Z" fill="#416CE9"/>
<path d="M68.043 257.183H160.042V271.954H68.043V257.183Z" fill="#001D23"/>
<path d="M68.043 257.183H114.043V271.954H68.043V257.183Z" fill="white"/>
<path d="M68.043 225.532C68.043 224.134 69.1766 223 70.5751 223H157.51C158.908 223 160.042 224.134 160.042 225.532V257.183H68.043V225.532Z" fill="#001D23"/>
<path d="M151.601 242.413H76.4824V252.963H151.601V242.413Z" fill="#4C516A"/>
<path d="M151.601 242.413H76.4824V252.963H151.601V242.413Z" fill="#416CE9"/>
<path d="M146.96 237.348C147.072 237.348 147.179 237.304 147.259 237.225C147.338 237.146 147.382 237.038 147.382 236.926V232.706C147.382 232.594 147.338 232.487 147.259 232.408C147.179 232.329 147.072 232.284 146.96 232.284C146.848 232.284 146.741 232.329 146.662 232.408C146.583 232.487 146.538 232.594 146.538 232.706V236.926C146.538 237.038 146.583 237.146 146.662 237.225C146.741 237.304 146.848 237.348 146.96 237.348Z" fill="#838383"/>
<path d="M151.391 234.394H150.336V233.339C150.336 233.299 150.325 233.259 150.303 233.225C150.281 233.191 150.249 233.164 150.213 233.147C150.176 233.131 150.135 233.125 150.095 233.131C150.055 233.137 150.017 233.154 149.987 233.181L148.298 234.658C148.276 234.677 148.258 234.702 148.245 234.729C148.233 234.757 148.227 234.786 148.227 234.816C148.227 234.846 148.233 234.876 148.245 234.903C148.258 234.931 148.276 234.955 148.298 234.975L149.987 236.452C150.017 236.479 150.055 236.496 150.095 236.502C150.135 236.508 150.176 236.502 150.213 236.485C150.249 236.469 150.281 236.442 150.303 236.407C150.325 236.373 150.336 236.334 150.336 236.293V235.238H151.391C151.447 235.238 151.501 235.216 151.541 235.176C151.58 235.137 151.602 235.083 151.602 235.027V234.605C151.602 234.549 151.58 234.496 151.541 234.456C151.501 234.416 151.447 234.394 151.391 234.394Z" fill="#838383"/>
<path d="M79.6899 238.146L76.7358 236.88C76.6571 236.854 76.5894 236.802 76.5435 236.734C76.4975 236.665 76.4761 236.582 76.4826 236.5V231.858C76.4822 231.788 76.4995 231.719 76.5329 231.657C76.5663 231.596 76.6147 231.543 76.6737 231.506C76.7326 231.468 76.8001 231.445 76.87 231.44C76.9399 231.436 77.0098 231.449 77.0734 231.478L79.8587 232.66L82.644 231.478C82.7076 231.449 82.7775 231.436 82.8474 231.44C82.9173 231.445 82.9848 231.468 83.0437 231.506C83.1026 231.543 83.151 231.596 83.1844 231.657C83.2179 231.719 83.2352 231.788 83.2348 231.858V236.5C83.2413 236.582 83.2198 236.665 83.1739 236.734C83.128 236.802 83.0603 236.854 82.9816 236.88L80.0275 238.146C79.919 238.188 79.7984 238.188 79.6899 238.146ZM77.3266 236.204L79.8587 237.302L82.3908 236.204V232.491L80.0275 233.504C79.919 233.546 79.7984 233.546 79.6899 233.504L77.3266 232.491V236.204Z" fill="white"/>
<path d="M79.5319 234.435L77.8252 233.704L77.659 234.092L79.3657 234.823L79.5319 234.435Z" fill="white"/>
<path d="M79.5222 235.783L77.8154 235.052L77.6492 235.44L79.3559 236.171L79.5222 235.783Z" fill="white"/>
<path d="M82.0665 234.096L81.9004 233.708L80.1935 234.439L80.3597 234.827L82.0665 234.096Z" fill="white"/>
<path d="M82.0441 235.431L81.8779 235.043L80.171 235.775L80.3372 236.162L82.0441 235.431Z" fill="white"/>
<path d="M131.345 232.706H87.4551V236.504H131.345V232.706Z" fill="#838383"/>
<path opacity="0.5" d="M110.667 245.789H80.7041V249.587H110.667V245.789Z" fill="white"/>
<path d="M143.584 262.669H128.392V266.468H143.584V262.669Z" fill="#838383"/>
<path d="M107.712 262.669H74.373V266.468H107.712V262.669Z" fill="#C0C0C0"/>
<path d="M117.841 281.238H92.0977V285.036H117.841V281.238Z" fill="#C0C0C0"/>
<path d="M151.602 281.238H141.896V285.036H151.602V281.238Z" fill="#C0C0C0"/>
<path d="M112.354 309.091H92.0977V312.889H112.354V309.091Z" fill="#C0C0C0"/>
<path d="M151.602 309.091H141.896V312.889H151.602V309.091Z" fill="#C0C0C0"/>
<path d="M112.354 336.944H92.0977V340.742H112.354V336.944Z" fill="#C0C0C0"/>
<path d="M151.602 336.944H141.896V340.742H151.602V336.944Z" fill="#C0C0C0"/>
<path opacity="0.5" d="M147.382 245.789H134.3V249.587H147.382V245.789Z" fill="white"/>
</g>
</g>
</svg>
