<svg width="446" height="445" viewBox="0 0 446 445" fill="none" xmlns="http://www.w3.org/2000/svg">
<mask id="mask0_1924_11946" style="mask-type:alpha" maskUnits="userSpaceOnUse" x="0" y="0" width="446" height="445">
<circle cx="222.543" cy="222.5" r="222.5" fill="#D9D9D9"/>
</mask>
<g mask="url(#mask0_1924_11946)">
<circle cx="222.543" cy="222.5" r="222.5" fill="#003E42"/>
<g clip-path="url(#clip0_1924_11946)">
<path d="M106.043 169.541L219.733 129.037L261.347 142.753L147.657 183.257L106.043 169.541Z" fill="#EAFFFD"/>
<path d="M147.656 183.096L261.347 142.592V340.431L147.656 380.935V183.096Z" fill="#00C8B5"/>
<path d="M106.043 169.541L147.657 183.096V381.096L106.043 364.798V169.541Z" fill="#006058"/>
<path d="M260.377 212.949L233.632 202.783C227.006 200.604 219.329 200.604 211.168 203.59C186.766 212.384 166.969 242.964 166.969 271.768C166.969 291.778 176.504 305.736 190.483 309.448L215.532 319.049L222.723 302.025C241.469 289.196 255.287 264.022 255.287 239.898C255.287 235.621 254.802 231.668 253.994 227.956L260.377 212.868V212.949Z" fill="#018D82"/>
<path d="M270.54 282.712C284.912 254.216 280.601 223.088 260.911 213.187C241.221 203.286 213.609 218.36 199.237 246.856C184.866 275.352 189.176 306.479 208.866 316.381C228.556 326.282 256.168 311.208 270.54 282.712Z" fill="#88CCCA"/>
<path d="M234.925 311.788C257.146 303.8 275.165 276.044 275.165 249.903C275.165 223.761 257.146 209.076 234.925 217.145C212.704 225.213 194.685 252.888 194.685 279.03C194.685 305.172 212.704 319.856 234.925 311.788Z" fill="#EAFFFD"/>
<path d="M229.753 260.311L215.531 248.692L229.753 260.311Z" fill="#003E42"/>
<path d="M229.753 260.311L215.531 248.692" stroke="#006058" stroke-width="4" stroke-miterlimit="10" stroke-linecap="square"/>
<path d="M240.278 261.844C240.278 263.778 239.596 265.843 238.445 267.593C237.288 269.352 235.766 270.631 234.248 271.177C232.79 271.701 231.706 271.428 230.991 270.849C230.236 270.238 229.571 269.021 229.571 267.088C229.571 265.154 230.253 263.089 231.404 261.339C232.561 259.58 234.083 258.301 235.601 257.755C237.059 257.231 238.142 257.504 238.858 258.083C239.613 258.694 240.278 259.911 240.278 261.844Z" stroke="#006058" stroke-width="4"/>
<path d="M234.925 230.054V236.509V230.054Z" fill="#003E42"/>
<path d="M234.925 230.054V236.509" stroke="#006058" stroke-width="4" stroke-miterlimit="10" stroke-linecap="square"/>
<path d="M255.61 232.636L251.731 238.607L255.61 232.636Z" fill="#003E42"/>
<path d="M255.61 232.636L251.731 238.607" stroke="#006058" stroke-width="4" stroke-miterlimit="10" stroke-linecap="square"/>
<path d="M264.175 253.937L258.681 255.954L264.175 253.937Z" fill="#003E42"/>
<path d="M264.175 253.937L258.681 255.954" stroke="#006058" stroke-width="4" stroke-miterlimit="10" stroke-linecap="square"/>
<path d="M211.087 273.059L205.593 275.076L211.087 273.059Z" fill="#003E42"/>
<path d="M211.087 273.059L205.593 275.076" stroke="#006058" stroke-width="4" stroke-miterlimit="10" stroke-linecap="square"/>
</g>
<path d="M277.858 186.474C305.909 176.363 328.672 141.259 328.672 108.23C328.672 75.2004 305.909 56.5857 277.858 66.8004C249.806 77.0152 227.043 112.015 227.043 145.044C227.043 178.074 249.806 196.689 277.858 186.474Z" fill="#006058"/>
<path d="M288.229 191.659C316.28 181.548 339.043 146.444 339.043 113.415C339.043 80.3855 316.28 61.7707 288.229 71.9855C260.177 82.2003 237.414 117.2 237.414 150.23C237.414 183.259 260.177 201.874 288.229 191.659Z" fill="#018D82"/>
<path d="M259.043 163.72L319.043 142.52" stroke="#EAFFFD" stroke-width="4" stroke-miterlimit="10" stroke-linecap="square"/>
<path d="M261.043 129.02L273.043 124.78V150.78L261.043 155.02V129.02Z" stroke="#EAFFFD" stroke-width="4" stroke-miterlimit="10" stroke-linecap="square"/>
<path d="M283.043 103.24L295.043 99V143L283.043 147.24V103.24Z" stroke="#EAFFFD" stroke-width="4" stroke-miterlimit="10" stroke-linecap="square"/>
<path d="M305.043 123.47L317.043 119.23V135.23L305.043 139.47V123.47Z" stroke="#EAFFFD" stroke-width="4" stroke-miterlimit="10" stroke-linecap="square"/>
</g>
<defs>
<clipPath id="clip0_1924_11946">
<rect width="173" height="252.059" fill="white" transform="translate(106.043 129.037)"/>
</clipPath>
</defs>
</svg>
