<svg width="446" height="445" viewBox="0 0 446 445" fill="none" xmlns="http://www.w3.org/2000/svg">
<mask id="mask0_1915_9679" style="mask-type:alpha" maskUnits="userSpaceOnUse" x="0" y="0" width="446" height="445">
<circle cx="222.875" cy="222.5" r="222.5" fill="#D9D9D9"/>
</mask>
<g mask="url(#mask0_1915_9679)">
<circle cx="222.875" cy="222.5" r="222.5" fill="#003E42"/>
<circle cx="223.043" cy="132" r="85" fill="#00C8B5"/>
<path fill-rule="evenodd" clip-rule="evenodd" d="M254.26 60.1642C252.546 59.6617 250.726 59.4065 248.839 59.4414C238.933 59.6273 231.046 67.6983 231.229 77.4635C231.413 87.2287 239.596 94.9981 249.503 94.8121C252.538 94.7552 255.376 93.9538 257.854 92.5968C260.597 99.1251 267.163 103.665 274.761 103.522C278.266 103.457 281.515 102.385 284.246 100.62C289.529 108.82 298.898 114.192 309.48 113.994C317.155 113.849 324.084 110.798 329.21 105.924C332.728 107.114 336.512 107.731 340.449 107.657C348.534 107.505 355.873 104.468 361.492 99.5685C365.978 104.535 372.551 107.628 379.833 107.491C393.068 107.243 403.601 96.4629 403.356 83.4173C403.165 73.2372 396.457 64.7085 387.236 61.5725C388.045 59.4988 388.479 57.2464 388.435 54.8939C388.251 45.1287 380.068 37.3593 370.161 37.5452C366.816 37.608 363.71 38.5836 361.059 40.206C358.359 33.595 351.753 28.9794 344.094 29.1231C341.84 29.1654 339.7 29.6315 337.726 30.4167C334.094 19.9245 323.928 12.4653 312.077 12.6877C297.397 12.9632 285.717 24.9168 285.988 39.3871C285.996 39.7834 286.031 40.1731 286.066 40.5635C286.078 40.6947 286.09 40.826 286.101 40.9576C283.277 39.8312 280.18 39.2286 276.94 39.2894C264.962 39.5142 255.273 48.6511 254.26 60.1642ZM155.133 168.283C157.382 167.817 159.709 167.559 162.094 167.573V167.566C180.384 167.652 195.129 182.555 195.043 200.848C195.033 202.951 194.827 205.007 194.443 207H252.615C257.698 200.253 265.79 195.887 274.902 195.887C279.614 195.887 284.042 197.062 287.929 199.12C291.996 188.788 302.056 181.466 313.853 181.466C319.296 181.466 324.369 183.052 328.66 185.744C336.622 172.711 351.007 164 367.439 164C379.356 164 390.199 168.587 398.299 176.09C403.724 174.118 409.58 173.037 415.694 173.037C428.247 173.037 439.726 177.59 448.591 185.118C455.41 177.187 465.522 172.137 476.829 172.137C497.379 172.137 514.043 188.754 514.043 209.246C514.043 225.237 503.88 238.827 489.658 244.023C490.973 247.256 491.713 250.78 491.713 254.475C491.713 269.814 479.236 282.255 463.854 282.255C458.66 282.255 453.811 280.815 449.649 278.346C448.548 281.227 446.982 283.879 445.043 286.209V445H0.0429688V249.85C-15.5302 248.37 -27.9192 236.095 -29.6629 220.616C-31.3314 220.852 -33.0287 221.017 -34.7688 221.01C-53.7461 220.917 -69.0497 205.455 -68.9566 186.475C-68.8635 167.495 -53.4095 152.183 -34.4323 152.269C-33.8559 152.275 -33.2886 152.317 -32.7196 152.359L-32.7191 152.359C-32.5742 152.37 -32.4292 152.38 -32.2839 152.391C-32.3197 151.517 -32.3412 150.642 -32.3412 149.761C-32.1836 117.153 -5.6369 90.8432 26.9539 91.0008C55.735 91.1441 79.5962 111.88 84.6664 139.186C91.1903 136.384 98.373 134.844 105.921 134.879C128.235 134.987 147.27 148.787 155.133 168.283Z" fill="#006058"/>
<path fill-rule="evenodd" clip-rule="evenodd" d="M74.6299 435.762L222.836 493.257L371.043 436.021L222.447 378.773L74.6299 435.762Z" fill="#EEFFFE"/>
<path fill-rule="evenodd" clip-rule="evenodd" d="M74.6458 435.761L223.005 493.256V728.879L74.2754 671.643L74.6458 435.761Z" fill="#D5F2F1"/>
<path fill-rule="evenodd" clip-rule="evenodd" d="M371.042 435.761L222.683 493.256L222.312 728.519L371.025 671.282L371.042 435.761Z" fill="#EEFFFE"/>
<path fill-rule="evenodd" clip-rule="evenodd" d="M74.6299 218.989L222.836 276.484L371.043 219.248L222.447 162L74.6299 218.989Z" fill="#88CCCA"/>
<path fill-rule="evenodd" clip-rule="evenodd" d="M74.6458 218.988L223.005 276.483V512.106L74.2754 454.87L74.6458 218.988Z" fill="#D5F2F1"/>
<path fill-rule="evenodd" clip-rule="evenodd" d="M371.042 218.988L222.683 276.483L222.312 511.746L371.025 454.509L371.042 218.988Z" fill="#EEFFFE"/>
<path fill-rule="evenodd" clip-rule="evenodd" d="M362.696 240.979L231.315 291.899V307.066L362.696 256.271V240.979Z" fill="#D5F2F1"/>
<path fill-rule="evenodd" clip-rule="evenodd" d="M362.696 362.344L231.315 413.263V428.431L362.696 377.636V362.344Z" fill="#D5F2F1"/>
<path fill-rule="evenodd" clip-rule="evenodd" d="M362.696 301.661L231.315 352.581V367.748L362.696 316.953V301.661Z" fill="#D5F2F1"/>
<path fill-rule="evenodd" clip-rule="evenodd" d="M362.696 423.036L231.315 473.955V489.123L362.696 438.328V423.036Z" fill="#D5F2F1"/>
<path fill-rule="evenodd" clip-rule="evenodd" d="M362.696 271.327L231.315 322.246V337.414L362.696 286.618V271.327Z" fill="#D5F2F1"/>
<path fill-rule="evenodd" clip-rule="evenodd" d="M362.696 392.69L231.315 443.61V458.777L362.696 407.982V392.69Z" fill="#D5F2F1"/>
<path fill-rule="evenodd" clip-rule="evenodd" d="M362.696 332.007L231.315 382.927V398.094L362.696 347.299V332.007Z" fill="#D5F2F1"/>
<path fill-rule="evenodd" clip-rule="evenodd" d="M80.5977 240.979L211.98 291.899V307.066L80.5977 256.271V240.979Z" fill="#B9E0DF"/>
<path fill-rule="evenodd" clip-rule="evenodd" d="M80.5977 362.344L211.98 413.263V428.431L80.5977 377.636V362.344Z" fill="#B9E0DF"/>
<path fill-rule="evenodd" clip-rule="evenodd" d="M80.5977 301.661L211.98 352.581V367.748L80.5977 316.953V301.661Z" fill="#B9E0DF"/>
<path fill-rule="evenodd" clip-rule="evenodd" d="M80.5977 423.036L211.98 473.955V489.123L80.5977 438.328V423.036Z" fill="#B9E0DF"/>
<path fill-rule="evenodd" clip-rule="evenodd" d="M80.5977 271.327L211.98 322.246V337.414L80.5977 286.618V271.327Z" fill="#B9E0DF"/>
<path fill-rule="evenodd" clip-rule="evenodd" d="M80.5977 392.69L211.98 443.609V458.777L80.5977 407.982V392.69Z" fill="#B9E0DF"/>
<path fill-rule="evenodd" clip-rule="evenodd" d="M80.5977 332.007L211.98 382.927V398.094L80.5977 347.299V332.007Z" fill="#B9E0DF"/>
<path d="M240.869 213.26L267.174 202.846V217.981L240.869 228.607V213.26Z" fill="#D5F2F1"/>
<path d="M240.869 211.911V228.608L215.914 218.656V203.308L240.869 211.911Z" fill="#67AFAD"/>
<path d="M215.914 203.425L242.165 193.026L267.174 202.86L240.869 213.26L215.914 203.425Z" fill="white"/>
<path d="M203.1 228.098L229.404 217.684V232.819L203.1 243.446V228.098Z" fill="#D5F2F1"/>
<path d="M203.098 226.749V243.446L178.143 233.494V218.146L203.098 226.749Z" fill="#67AFAD"/>
<path d="M178.143 218.264L204.393 207.864L229.402 217.699L203.098 228.098L178.143 218.264Z" fill="white"/>
<path d="M118.454 320.789C118.454 341.527 132.852 363.546 150.606 369.883C168.361 376.283 182.758 364.634 182.758 343.896C181.481 305.937 166.777 279.696 163.204 266.835C159.632 253.974 158.535 224.986 191.401 232.131" stroke="#429A97" stroke-width="3"/>
<path d="M162.905 273.294L120.257 257.915L104.642 263.129L147.29 278.509L162.905 273.294Z" fill="#429A97"/>
<path d="M147.29 278.448L104.642 263.068V338.214L147.29 353.594V278.448Z" fill="#006058"/>
<path d="M162.905 273.294L147.29 278.448V353.655L162.905 347.462V273.294Z" fill="#00C8B5"/>
<path d="M130.134 302.403L117.602 297.881V297.29L130.134 301.812V298.146C130.134 295.783 128.269 293.196 125.957 292.361L117.602 289.346V297.881V310.673L130.134 315.196V302.403Z" fill="white"/>
<path d="M130.725 302.668V315.379C132.753 315.827 134.314 314.605 134.314 312.445V308.188C134.314 306.029 132.753 303.686 130.725 302.668Z" fill="white"/>
<path d="M115.657 316.825V317.192C115.657 317.905 115.413 318.414 114.947 318.699C114.48 318.985 113.852 318.985 113.101 318.699C112.29 318.414 111.641 317.905 111.094 317.192C110.566 316.479 110.303 315.746 110.303 314.972C110.303 314.197 110.566 313.668 111.094 313.322C111.621 312.975 112.27 312.955 113.04 313.24C114.014 313.586 114.866 314.381 115.312 315.297L114.582 315.46C114.298 314.849 113.73 314.32 113.04 314.075C112.493 313.872 112.047 313.892 111.682 314.116C111.317 314.34 111.154 314.727 111.154 315.277C111.154 315.827 111.337 316.336 111.682 316.805C112.047 317.294 112.513 317.64 113.081 317.844C114.014 318.17 114.602 317.925 114.764 317.253L113.02 316.622V315.847L115.636 316.785L115.657 316.825Z" fill="white"/>
<path d="M119.346 317.131L120.157 317.416V321.164L119.346 320.879V320.349C119.042 320.675 118.616 320.716 118.048 320.512C117.541 320.329 117.095 319.983 116.73 319.474C116.365 318.964 116.183 318.414 116.183 317.885C116.183 317.355 116.365 316.927 116.73 316.683C117.095 316.438 117.521 316.398 118.048 316.581C118.616 316.785 119.042 317.151 119.346 317.681V317.151V317.131ZM118.17 319.779C118.515 319.901 118.799 319.881 119.022 319.738C119.245 319.596 119.367 319.351 119.367 319.005C119.367 318.659 119.245 318.333 119.022 318.027C118.799 317.722 118.515 317.498 118.17 317.375C117.825 317.253 117.541 317.274 117.318 317.416C117.095 317.559 116.974 317.803 116.974 318.149C116.974 318.496 117.095 318.822 117.318 319.127C117.541 319.433 117.825 319.657 118.17 319.779Z" fill="white"/>
<path d="M123.182 319.29L122.249 318.964V320.757C122.249 321.246 122.553 321.347 123.182 321.531V322.264C121.945 321.979 121.458 321.449 121.458 320.472V318.679L120.769 318.435V317.66L121.458 317.905V317.09L122.269 317.151V318.19L123.202 318.516V319.29H123.182Z" fill="white"/>
<path d="M124.398 321.164C124.519 321.775 124.965 322.264 125.594 322.488C126.02 322.651 126.344 322.61 126.547 322.366L127.217 322.998C126.851 323.405 126.304 323.486 125.574 323.222C124.965 322.998 124.479 322.631 124.114 322.142C123.749 321.633 123.546 321.103 123.546 320.533C123.546 319.962 123.728 319.575 124.093 319.331C124.458 319.086 124.945 319.066 125.513 319.27C126.061 319.473 126.507 319.82 126.851 320.329C127.196 320.838 127.379 321.368 127.379 321.918C127.379 321.999 127.379 322.101 127.358 322.244L124.398 321.164ZM126.588 321.286C126.466 320.635 126.061 320.166 125.513 319.983C124.925 319.759 124.499 319.983 124.377 320.492L126.568 321.286H126.588Z" fill="white"/>
<path d="M132.246 321.796L133.097 322.101L131.921 325.422L131.13 325.136L130.36 322.325L129.569 324.566L128.778 324.281L127.602 320.105L128.453 320.411L129.183 323.262L129.974 320.961L130.745 321.246L131.516 324.118L132.246 321.796Z" fill="white"/>
<path d="M136.503 323.323L137.315 323.609V327.357L136.503 327.071V326.542C136.199 326.868 135.773 326.909 135.206 326.705C134.699 326.521 134.252 326.175 133.887 325.666C133.522 325.157 133.34 324.607 133.34 324.077C133.34 323.547 133.522 323.12 133.887 322.875C134.252 322.631 134.678 322.59 135.206 322.773C135.773 322.977 136.199 323.344 136.503 323.873V323.344V323.323ZM135.327 325.971C135.672 326.094 135.956 326.073 136.179 325.931C136.402 325.788 136.524 325.544 136.524 325.197C136.524 324.851 136.402 324.525 136.179 324.22C135.956 323.914 135.672 323.69 135.327 323.568C134.982 323.446 134.699 323.466 134.476 323.609C134.252 323.751 134.131 323.996 134.131 324.342C134.131 324.688 134.252 325.014 134.476 325.32C134.699 325.625 134.982 325.849 135.327 325.971Z" fill="white"/>
<path d="M140.763 324.872L141.614 325.177L140.174 328.518C139.809 329.353 139.221 329.598 138.349 329.231V328.477C138.856 328.681 139.14 328.538 139.343 328.11L139.384 328.049L137.802 323.792L138.674 324.118L139.789 327.235L140.742 324.851L140.763 324.872Z" fill="white"/>
<g clip-path="url(#clip0_1915_9679)">
<path d="M272.337 302.993L301.434 292.611L312.085 296.127L282.987 306.508L272.337 302.993Z" fill="#429A97"/>
<path d="M282.987 306.467L312.085 296.085V346.794L282.987 357.175V306.467Z" fill="#00C8B5"/>
<path d="M272.337 302.993L282.987 306.467V357.217L272.337 353.039V302.993Z" fill="#006058"/>
<path d="M311.836 314.119L304.991 311.513C303.295 310.955 301.331 310.955 299.242 311.72C292.996 313.974 287.93 321.812 287.93 329.195C287.93 334.323 290.37 337.901 293.948 338.852L300.359 341.313L302.199 336.95C306.997 333.662 310.533 327.209 310.533 321.026C310.533 319.93 310.409 318.916 310.202 317.965L311.836 314.098V314.119Z" fill="#006058"/>
<path d="M314.437 332C318.115 324.696 317.012 316.717 311.973 314.18C306.934 311.642 299.867 315.506 296.188 322.809C292.51 330.113 293.613 338.091 298.653 340.629C303.692 343.167 310.759 339.303 314.437 332Z" fill="#006058"/>
<path d="M305.322 339.452C311.009 337.405 315.621 330.291 315.621 323.59C315.621 316.89 311.009 313.126 305.322 315.194C299.635 317.262 295.023 324.355 295.023 331.056C295.023 337.756 299.635 341.52 305.322 339.452Z" fill="#00C8B5"/>
<path d="M303.998 326.258L300.358 323.28L303.998 326.258Z" fill="#001D23"/>
<path d="M303.998 326.258L300.358 323.28" stroke="#006058" stroke-miterlimit="10" stroke-linecap="square"/>
<path d="M305.322 329.526C306.356 329.153 307.204 327.871 307.204 326.651C307.204 325.431 306.356 324.748 305.322 325.121C304.288 325.493 303.44 326.775 303.44 327.995C303.44 329.215 304.288 329.898 305.322 329.526Z" fill="#006058"/>
<path d="M305.322 318.503V320.157V318.503Z" fill="#001D23"/>
<path d="M305.322 318.503V320.157" stroke="#006058" stroke-miterlimit="10" stroke-linecap="square"/>
<path d="M310.616 319.165L309.623 320.695L310.616 319.165Z" fill="#001D23"/>
<path d="M310.616 319.165L309.623 320.695" stroke="#006058" stroke-miterlimit="10" stroke-linecap="square"/>
<path d="M312.809 324.624L311.402 325.141L312.809 324.624Z" fill="#001D23"/>
<path d="M312.809 324.624L311.402 325.141" stroke="#006058" stroke-miterlimit="10" stroke-linecap="square"/>
<path d="M299.221 329.526L297.814 330.043L299.221 329.526Z" fill="#001D23"/>
<path d="M299.221 329.526L297.814 330.043" stroke="#006058" stroke-miterlimit="10" stroke-linecap="square"/>
</g>
<path d="M311.216 307.276C322.404 303.243 331.483 289.243 331.483 276.069C331.483 262.896 322.404 255.472 311.216 259.546C300.028 263.62 290.949 277.579 290.949 290.752C290.949 303.926 300.028 311.35 311.216 307.276Z" fill="#006058"/>
<path d="M315.352 309.344C326.54 305.311 335.618 291.311 335.618 278.137C335.618 264.964 326.54 257.54 315.352 261.614C304.164 265.688 295.085 279.647 295.085 292.82C295.085 305.994 304.164 313.418 315.352 309.344Z" fill="#429A97"/>
<path d="M305.425 295.653L309.351 287.047L312.492 290.389L318.369 276.748L323.081 283.6L328.173 274.973" stroke="#D5F2F1" stroke-width="2" stroke-miterlimit="10" stroke-linecap="square"/>
</g>
<defs>
<clipPath id="clip0_1915_9679">
<rect width="44.2766" height="64.6054" fill="white" transform="translate(272.337 292.611)"/>
</clipPath>
</defs>
</svg>
