<svg width="445" height="445" viewBox="0 0 445 445" fill="none" xmlns="http://www.w3.org/2000/svg">
<mask id="mask0_1911_9789" style="mask-type:alpha" maskUnits="userSpaceOnUse" x="0" y="0" width="445" height="445">
<circle cx="222.5" cy="222.5" r="222.5" fill="#D9D9D9"/>
</mask>
<g mask="url(#mask0_1911_9789)">
<circle cx="222.5" cy="222.5" r="222.5" fill="#003E42"/>
<path fill-rule="evenodd" clip-rule="evenodd" d="M-29.5039 186.826L120.65 245.077L270.804 187.089L120.256 129.089L-29.5039 186.826Z" fill="#88CCCA"/>
<path d="M138.92 181.023L165.57 170.472V648.811L138.92 659.577L138.92 181.023Z" fill="#D5F2F1"/>
<path d="M138.918 179.656V659.364L113.635 649.281L113.635 170.94L138.918 179.656Z" fill="#67AFAD"/>
<path d="M113.635 171.059L140.231 160.522L165.568 170.486L138.918 181.022L113.635 171.059Z" fill="white"/>
<path d="M100.652 196.056L127.302 185.506V663.473L100.652 674.239V196.056Z" fill="#D5F2F1"/>
<path d="M100.653 195.94L100.652 673.891L75.3691 663.808L75.3691 186.27L100.653 195.94Z" fill="#67AFAD"/>
<path d="M75.3691 186.092L101.965 175.556L127.302 185.52L100.652 196.056L75.3691 186.092Z" fill="white"/>
<path fill-rule="evenodd" clip-rule="evenodd" d="M-29.5049 385.277L120.649 443.528L270.803 385.539L120.255 327.539L-29.5049 385.277Z" fill="#88CCCA"/>
<path fill-rule="evenodd" clip-rule="evenodd" d="M-29.5049 383.595L120.649 441.846L270.803 383.857L120.255 325.857L-29.5049 383.595Z" fill="#88CCCA"/>
<path d="M270.753 383.879V385.561L120.654 443.582V441.06L270.753 383.879Z" fill="#4C516A"/>
<path d="M14.6084 385.275L14.6084 383.596L18.2222 384.649L17.8332 386.492L14.6084 385.275Z" fill="#88CCCA"/>
<path d="M16.7949 412.164L18.0388 413.731V414.323L14.623 413.035V411.334L16.7949 412.164Z" fill="#88CCCA"/>
<path d="M138.92 308.824L165.57 306.807V388.911L138.92 399.342V308.824Z" fill="#D5F2F1"/>
<path d="M138.92 308.563V399.21L113.637 389.572V306.897L138.92 308.563Z" fill="#67AFAD"/>
<path d="M100.652 306.424L127.302 304.285V403.781L100.652 414.415L100.652 306.424Z" fill="#D5F2F1"/>
<path d="M100.653 311.677V414.416L75.3691 404.038V309.828L100.653 311.677Z" fill="#67AFAD"/>
<path fill-rule="evenodd" clip-rule="evenodd" d="M163.643 198.008L270.803 185.352V384.382L163.643 344.799V198.008Z" fill="white"/>
<path fill-rule="evenodd" clip-rule="evenodd" d="M270.804 413.206L120.495 471.372L120.12 703.052L270.787 645.063L270.804 413.206Z" fill="#EEFFFE"/>
<path fill-rule="evenodd" clip-rule="evenodd" d="M262.346 428.727L129.239 480.316V495.682L262.346 444.22V428.727Z" fill="#D5F2F1"/>
<path fill-rule="evenodd" clip-rule="evenodd" d="M-29.8633 412.878L120.82 471.399V703.416L-29.8633 645.428V412.878Z" fill="#D5F2F1"/>
<path fill-rule="evenodd" clip-rule="evenodd" d="M-23.457 428.727L109.652 480.316V495.682L-23.457 444.22V428.727Z" fill="#B9E0DF"/>
<path d="M237.487 398.594C235.135 397.417 258.234 389.609 270.078 385.852V411.581C260.194 407.742 239.84 399.77 237.487 398.594Z" fill="white"/>
<path fill-rule="evenodd" clip-rule="evenodd" d="M-29.4959 186.825L120.43 245.067L120.832 471.41L-29.8633 412.758L-29.4959 186.825Z" fill="#D5F2F1"/>
<path fill-rule="evenodd" clip-rule="evenodd" d="M203.918 193.213L253.735 212.269V227.636L203.918 208.706V193.213Z" fill="#B9E0DF"/>
<path fill-rule="evenodd" clip-rule="evenodd" d="M163.474 300.094L253.736 335.229V350.596L163.474 315.586V300.094Z" fill="#B9E0DF"/>
<path fill-rule="evenodd" clip-rule="evenodd" d="M162.436 237.179L253.736 273.749V289.116L162.436 252.671V237.179Z" fill="#B9E0DF"/>
<path fill-rule="evenodd" clip-rule="evenodd" d="M163.819 209.524L253.736 243.016V258.383L163.819 225.017V209.524Z" fill="#B9E0DF"/>
<path fill-rule="evenodd" clip-rule="evenodd" d="M162.932 329.512L253.736 365.974V381.341L162.932 345.004V329.512Z" fill="#B9E0DF"/>
<path fill-rule="evenodd" clip-rule="evenodd" d="M162.091 267.599L253.736 304.494V319.861L162.091 283.092V267.599Z" fill="#B9E0DF"/>
<path fill-rule="evenodd" clip-rule="evenodd" d="M270.803 186.825L120.495 245.076L120.695 471.331L270.803 414.059V186.825Z" fill="#EEFFFE"/>
<path fill-rule="evenodd" clip-rule="evenodd" d="M120.674 389.896V414.903L270.832 357.748L234.906 345.576L120.674 389.896Z" fill="#88CCCA"/>
<path d="M237.131 344.806L270.832 331.759L270.832 357.872C260.99 354.05 237.131 344.806 237.131 344.806Z" fill="#003E42"/>
<path d="M270.784 357.77V359.445L120.675 417.352V414.84L270.784 357.77Z" fill="#10867C"/>
<path opacity="0.3" d="M238.814 353.057C242.354 354.391 247.935 354.446 251.288 353.189C254.641 351.932 254.498 349.836 250.968 348.512C247.439 347.189 241.858 347.123 238.494 348.38C235.13 349.637 235.273 351.733 238.803 353.057H238.814Z" fill="white"/>
<path opacity="0.2" d="M237.523 348.822L254.519 340.108L256.118 342.248L253.681 351.314C253.482 352.009 252.71 352.671 251.32 353.189C247.967 354.447 242.376 354.391 238.846 353.057C235.703 351.877 235.251 350.09 237.556 348.822H237.523Z" fill="#FFC700"/>
<path d="M259.069 336.717L260.659 338.834L256.109 342.252L254.519 340.135L259.069 336.717Z" fill="#006058"/>
<path opacity="0.3" d="M158.641 399.38C155.101 400.714 149.52 400.77 146.167 399.512C142.814 398.255 142.957 396.159 146.487 394.836C150.016 393.512 155.597 393.446 158.961 394.703C162.325 395.961 162.182 398.056 158.652 399.38H158.641Z" fill="white"/>
<path opacity="0.2" d="M159.932 395.145L142.936 386.432L141.337 388.571L143.774 397.637C143.973 398.332 144.745 398.994 146.135 399.512C149.488 400.77 155.08 400.715 158.609 399.38C161.752 398.2 162.204 396.413 159.899 395.145H159.932Z" fill="#FFC700"/>
<path d="M138.386 383.04L136.796 385.157L141.346 388.575L142.936 386.458L138.386 383.04Z" fill="#006058"/>
<path opacity="0.3" d="M192.833 386.145C189.292 387.479 183.711 387.534 180.358 386.277C177.006 385.02 177.149 382.924 180.678 381.601C184.208 380.277 189.789 380.211 193.153 381.468C196.516 382.726 196.373 384.821 192.844 386.145H192.833Z" fill="white"/>
<path opacity="0.2" d="M194.124 381.91L177.128 373.197L175.528 375.336L177.966 384.402C178.164 385.097 178.936 385.759 180.326 386.277C183.679 387.535 189.271 387.48 192.8 386.145C195.944 384.965 196.396 383.178 194.091 381.91H194.124Z" fill="#FFC700"/>
<path d="M172.577 369.805L170.987 371.922L175.538 375.34L177.128 373.223L172.577 369.805Z" fill="#006058"/>
<path opacity="0.3" d="M227.025 372.91C223.485 374.244 217.904 374.299 214.551 373.042C211.198 371.785 211.341 369.689 214.871 368.366C218.4 367.042 223.981 366.976 227.345 368.233C230.709 369.491 230.565 371.586 227.036 372.91H227.025Z" fill="white"/>
<path opacity="0.2" d="M228.316 368.675L211.32 359.961L209.721 362.101L212.158 371.167C212.357 371.862 213.129 372.524 214.518 373.042C217.871 374.3 223.463 374.244 226.993 372.91C230.136 371.73 230.588 369.943 228.283 368.675H228.316Z" fill="#FFC700"/>
<path d="M206.769 356.57L205.18 358.687L209.73 362.105L211.32 359.988L206.769 356.57Z" fill="#006058"/>
<path opacity="0.3" d="M259.008 360.777C255.468 362.112 249.887 362.167 246.534 360.909C243.181 359.652 243.325 357.556 246.854 356.233C250.383 354.909 255.964 354.843 259.328 356.101C262.692 357.358 262.549 359.454 259.019 360.777H259.008Z" fill="white"/>
<path opacity="0.2" d="M260.3 356.542L243.303 347.829L241.704 349.969L244.142 359.035C244.34 359.73 245.112 360.391 246.502 360.91C249.855 362.167 255.447 362.112 258.976 360.777C262.119 359.597 262.572 357.81 260.267 356.542H260.3Z" fill="#FFC700"/>
<path d="M238.753 344.438L237.163 346.554L241.714 349.972L243.303 347.856L238.753 344.438Z" fill="#006058"/>
<path opacity="0.3" d="M172.979 393.865C169.439 395.2 163.858 395.255 160.505 393.998C157.152 392.74 157.295 390.645 160.825 389.321C164.354 387.998 169.935 387.932 173.299 389.189C176.663 390.446 176.52 392.542 172.99 393.865H172.979Z" fill="white"/>
<path opacity="0.2" d="M174.27 389.63L157.274 380.917L155.675 383.057L158.112 392.123C158.311 392.818 159.083 393.48 160.473 393.998C163.826 395.255 169.417 395.2 172.947 393.866C176.09 392.686 176.542 390.899 174.237 389.63H174.27Z" fill="#FFC700"/>
<path d="M152.724 377.526L151.135 379.643L155.685 383.06L157.275 380.944L152.724 377.526Z" fill="#006058"/>
<path opacity="0.3" d="M207.17 380.63C203.629 381.965 198.048 382.02 194.695 380.762C191.342 379.505 191.486 377.409 195.015 376.086C198.545 374.762 204.125 374.696 207.489 375.954C210.853 377.211 210.71 379.307 207.181 380.63H207.17Z" fill="white"/>
<path opacity="0.2" d="M208.461 376.395L191.464 367.682L189.865 369.822L192.303 378.888C192.501 379.583 193.273 380.244 194.663 380.763C198.016 382.02 203.608 381.965 207.137 380.63C210.281 379.45 210.733 377.663 208.428 376.395H208.461Z" fill="#FFC700"/>
<path d="M186.914 364.291L185.324 366.407L189.875 369.825L191.464 367.709L186.914 364.291Z" fill="#006058"/>
<path opacity="0.3" d="M241.362 367.395C237.822 368.729 232.241 368.784 228.888 367.527C225.535 366.27 225.678 364.174 229.208 362.851C232.737 361.527 238.318 361.461 241.682 362.718C245.046 363.976 244.902 366.071 241.373 367.395H241.362Z" fill="white"/>
<path opacity="0.2" d="M242.653 363.16L225.657 354.447L224.058 356.586L226.495 365.652C226.694 366.347 227.466 367.009 228.855 367.527C232.208 368.785 237.8 368.73 241.33 367.395C244.473 366.215 244.925 364.428 242.62 363.16H242.653Z" fill="#FFC700"/>
<path d="M221.106 351.055L219.517 353.172L224.067 356.59L225.657 354.473L221.106 351.055Z" fill="#006058"/>
<path d="M131.281 388.555V385.247" stroke="#003E42"/>
<path d="M164.37 375.872V372.011" stroke="#003E42" stroke-linecap="round"/>
<path d="M196.354 363.188V359.879" stroke="#003E42" stroke-linecap="round"/>
<path d="M229.443 350.504V346.644" stroke="#003E42" stroke-linecap="round"/>
<path d="M262.532 337.82V334.511" stroke="#003E42" stroke-linecap="round"/>
<path d="M129.076 389.658L265.84 336.717" stroke="#003E42"/>
<path d="M270.783 330.137V331.812L120.654 389.892V387.306L270.783 330.137Z" fill="#10867C"/>
<path fill-rule="evenodd" clip-rule="evenodd" d="M262.345 209.106L129.238 260.695V276.061L262.345 224.599V209.106Z" fill="#D5F2F1"/>
<path fill-rule="evenodd" clip-rule="evenodd" d="M262.345 270.585L129.238 322.174V337.541L262.345 286.078V270.585Z" fill="#D5F2F1"/>
<path fill-rule="evenodd" clip-rule="evenodd" d="M262.345 239.853L129.238 291.441V306.808L262.345 255.345V239.853Z" fill="#D5F2F1"/>
<path fill-rule="evenodd" clip-rule="evenodd" d="M262.345 393.555L129.238 445.143V460.51L262.345 409.047V393.555Z" fill="#D5F2F1"/>
<path fill-rule="evenodd" clip-rule="evenodd" d="M262.345 301.33L129.238 352.919V368.286L262.345 316.823V301.33Z" fill="#D5F2F1"/>
<path fill-rule="evenodd" clip-rule="evenodd" d="M-23.458 209.106L109.651 260.694V276.061L-23.458 224.598V209.106Z" fill="#B9E0DF"/>
<path fill-rule="evenodd" clip-rule="evenodd" d="M-23.458 332.065L109.651 383.654V399.021L-23.458 347.558V332.065Z" fill="#B9E0DF"/>
<path fill-rule="evenodd" clip-rule="evenodd" d="M-23.458 270.586L109.651 322.174V337.541L-23.458 286.078V270.586Z" fill="#B9E0DF"/>
<path fill-rule="evenodd" clip-rule="evenodd" d="M-23.458 393.555L109.651 445.143V460.51L-23.458 409.047V393.555Z" fill="#B9E0DF"/>
<path fill-rule="evenodd" clip-rule="evenodd" d="M-23.458 239.852L109.651 291.441V306.807L-23.458 255.345V239.852Z" fill="#B9E0DF"/>
<path fill-rule="evenodd" clip-rule="evenodd" d="M-23.458 362.81L109.651 414.398V429.765L-23.458 378.303V362.81Z" fill="#B9E0DF"/>
<path fill-rule="evenodd" clip-rule="evenodd" d="M-23.458 301.33L109.651 352.919V368.286L-23.458 316.823V301.33Z" fill="#B9E0DF"/>
<path fill-rule="evenodd" clip-rule="evenodd" d="M-29.5225 186.993L120.477 245.449L140.881 237.177L-8.56665 178.721L-29.5225 186.993Z" fill="#88CCCA"/>
<path fill-rule="evenodd" clip-rule="evenodd" d="M80.4707 229.287L120.476 245.449L270.475 186.993L230.77 171.552L80.4707 229.287Z" fill="#88CCCA"/>
<path d="M150.007 156.377V145.045L161.968 140.218V151.865L150.007 156.377Z" fill="#00C8B5"/>
<path d="M150.007 145.045L138.675 140.743V151.865L150.007 156.377V145.045Z" fill="#006058"/>
<path d="M150.007 145.045L138.675 140.743L150.741 135.707L161.968 140.218L150.007 145.045Z" fill="#429A97"/>
<path d="M140.101 144.262L147.943 147.114" stroke="#001D23" stroke-linecap="round"/>
<path d="M160.064 144.262L152.222 147.114" stroke="#006058" stroke-linecap="round"/>
<path d="M160.064 147.114L152.222 149.966" stroke="#006058" stroke-linecap="round"/>
<path d="M160.064 149.966L152.222 152.818" stroke="#006058" stroke-linecap="round"/>
<path d="M140.101 147.114L147.943 149.966" stroke="#001D23" stroke-linecap="round"/>
<path d="M140.101 149.966L147.943 152.818" stroke="#001D23" stroke-linecap="round"/>
<path d="M167.119 163.507V152.175L179.081 147.348V158.995L167.119 163.507Z" fill="#00C8B5"/>
<path d="M167.118 152.174L155.786 147.873V158.995L167.118 163.506V152.174Z" fill="#006058"/>
<path d="M167.118 152.175L155.786 147.873L167.853 142.836L179.079 147.348L167.118 152.175Z" fill="#429A97"/>
<path d="M157.212 151.392L165.055 154.244" stroke="#001D23" stroke-linecap="round"/>
<path d="M177.177 151.392L169.334 154.244" stroke="#006058" stroke-linecap="round"/>
<path d="M177.177 154.244L169.334 157.096" stroke="#006058" stroke-linecap="round"/>
<path d="M177.177 157.096L169.334 159.948" stroke="#006058" stroke-linecap="round"/>
<path d="M157.212 154.244L165.055 157.096" stroke="#001D23" stroke-linecap="round"/>
<path d="M157.212 157.096L165.055 159.948" stroke="#001D23" stroke-linecap="round"/>
<path d="M184.232 170.636V159.305L196.194 154.478V166.125L184.232 170.636Z" fill="#00C8B5"/>
<path d="M184.231 159.304L172.899 155.002V166.124L184.231 170.636V159.304Z" fill="#006058"/>
<path d="M184.231 159.304L172.899 155.002L184.966 149.966L196.193 154.478L184.231 159.304Z" fill="#429A97"/>
<path d="M174.325 158.522L182.168 161.374" stroke="#001D23" stroke-linecap="round"/>
<path d="M194.289 158.522L186.446 161.374" stroke="#006058" stroke-linecap="round"/>
<path d="M194.289 161.374L186.446 164.226" stroke="#006058" stroke-linecap="round"/>
<path d="M194.289 164.226L186.446 167.078" stroke="#006058" stroke-linecap="round"/>
<path d="M174.325 161.374L182.168 164.226" stroke="#001D23" stroke-linecap="round"/>
<path d="M174.325 164.226L182.168 167.078" stroke="#001D23" stroke-linecap="round"/>
<path d="M202.444 177.767V166.435L214.406 161.608V173.255L202.444 177.767Z" fill="#00C8B5"/>
<path d="M202.443 166.434L191.111 162.133V173.255L202.443 177.766V166.434Z" fill="#006058"/>
<path d="M202.443 166.435L191.111 162.133L203.178 157.096L214.405 161.608L202.443 166.435Z" fill="#429A97"/>
<path d="M192.537 165.652L200.38 168.504" stroke="#001D23" stroke-linecap="round"/>
<path d="M212.501 165.652L204.658 168.504" stroke="#006058" stroke-linecap="round"/>
<path d="M212.501 168.504L204.658 171.356" stroke="#006058" stroke-linecap="round"/>
<path d="M212.501 171.356L204.658 174.208" stroke="#006058" stroke-linecap="round"/>
<path d="M192.537 168.504L200.38 171.356" stroke="#001D23" stroke-linecap="round"/>
<path d="M192.537 171.356L200.38 174.208" stroke="#001D23" stroke-linecap="round"/>
<g clip-path="url(#clip0_1911_9789)">
<path d="M164.811 220.451L163.25 219.867L162.903 203.36L164.465 203.951L164.811 220.451Z" fill="#006058"/>
<path d="M170.207 221.573L167.671 216.205L162.432 202.375L160.784 196.988L199.312 182.217L208.742 206.795L170.207 221.573Z" fill="#009A8D"/>
<path d="M198.651 183.766L162.303 197.707L170.862 220.024L207.21 206.083L198.651 183.766Z" fill="#001D23"/>
<path d="M203.852 197.317C203.458 196.278 202.285 195.758 201.246 196.153L193.606 199.081C192.568 199.476 192.048 200.656 192.442 201.687L195.082 208.566C195.477 209.605 195.803 210.451 195.803 210.451C195.803 210.451 196.649 210.125 197.688 209.73L205.328 206.802C206.367 206.407 206.887 205.234 206.492 204.196L203.852 197.317Z" fill="#00C8B5"/>
<path d="M178.234 202.566C178.628 203.605 179.808 204.125 180.84 203.731L189.525 200.4C190.564 200.005 191.084 198.826 190.69 197.794L187.746 190.119C187.351 189.08 186.179 188.559 185.14 188.954L176.454 192.285C175.416 192.679 174.895 193.852 175.29 194.891L178.234 202.574L178.234 202.566Z" fill="#00C8B5"/>
<path d="M180.925 203.957L189.614 200.624C190.651 200.226 191.825 200.744 192.225 201.788L194.862 208.663C195.26 209.7 194.743 210.874 193.698 211.274L185.01 214.607C183.972 215.005 182.805 214.485 182.407 213.447L179.771 206.573C179.373 205.535 179.893 204.368 180.93 203.97L180.925 203.957Z" fill="#00C8B5"/>
<path d="M168.666 208.655L176.933 205.484C177.971 205.086 179.144 205.604 179.545 206.648L182.181 213.522C182.579 214.56 182.062 215.734 181.018 216.134L172.751 219.305C171.713 219.703 170.546 219.183 170.148 218.145L167.512 211.271C167.114 210.233 167.631 209.059 168.675 208.659L168.666 208.655Z" fill="#00C8B5"/>
<path d="M190.917 197.703C191.312 198.742 192.484 199.262 193.523 198.868L201.163 195.939C202.202 195.544 202.722 194.365 202.327 193.333L199.384 185.657C198.989 184.619 197.809 184.099 196.778 184.493L189.138 187.422C188.099 187.816 187.579 188.989 187.973 190.028L190.917 197.703Z" fill="#00C8B5"/>
<path d="M176.849 205.263C177.888 204.868 178.408 203.696 178.014 202.657L175.07 194.981C174.675 193.943 173.503 193.422 172.464 193.817L164.198 196.981C163.159 197.376 162.639 198.548 163.034 199.587L165.977 207.27C166.379 208.308 167.545 208.829 168.583 208.434L176.849 205.263Z" fill="#00C8B5"/>
<path d="M160.781 196.989L159.931 197.315L169.358 221.895L170.208 221.569L160.781 196.989Z" fill="#006058"/>
</g>
<g clip-path="url(#clip1_1911_9789)">
<path d="M121.797 236.995L120.235 236.411L119.889 219.904L121.45 220.495L121.797 236.995Z" fill="#006058"/>
<path d="M127.193 238.117L124.656 232.749L119.418 218.919L117.77 213.532L156.297 198.761L165.727 223.339L127.193 238.117Z" fill="#009A8D"/>
<path d="M155.636 200.31L119.288 214.25L127.848 236.568L164.196 222.627L155.636 200.31Z" fill="#001D23"/>
<path d="M160.838 213.861C160.443 212.822 159.27 212.302 158.232 212.697L150.592 215.625C149.553 216.02 149.033 217.2 149.427 218.231L152.067 225.11C152.462 226.149 152.788 226.995 152.788 226.995C152.788 226.995 153.635 226.669 154.673 226.274L162.314 223.346C163.352 222.951 163.873 221.778 163.478 220.74L160.838 213.861Z" fill="#00C8B5"/>
<path d="M135.219 219.11C135.614 220.149 136.793 220.669 137.825 220.275L146.511 216.944C147.549 216.549 148.069 215.37 147.675 214.338L144.731 206.662C144.337 205.624 143.164 205.103 142.125 205.498L133.44 208.829C132.401 209.223 131.881 210.396 132.275 211.435L135.219 219.117L135.219 219.11Z" fill="#00C8B5"/>
<path d="M137.91 220.501L146.599 217.168C147.637 216.77 148.81 217.288 149.211 218.332L151.847 225.207C152.245 226.244 151.728 227.418 150.684 227.818L141.995 231.151C140.957 231.549 139.79 231.029 139.393 229.991L136.756 223.117C136.358 222.079 136.878 220.912 137.915 220.514L137.91 220.501Z" fill="#00C8B5"/>
<path d="M125.651 225.199L133.918 222.028C134.956 221.63 136.13 222.147 136.53 223.192L139.167 230.066C139.565 231.104 139.047 232.278 138.003 232.678L129.736 235.849C128.699 236.247 127.532 235.727 127.134 234.689L124.497 227.815C124.099 226.777 124.617 225.603 125.661 225.203L125.651 225.199Z" fill="#00C8B5"/>
<path d="M147.902 214.247C148.297 215.286 149.47 215.806 150.508 215.412L158.148 212.483C159.187 212.088 159.707 210.909 159.313 209.877L156.369 202.201C155.974 201.163 154.795 200.643 153.763 201.037L146.123 203.966C145.084 204.36 144.564 205.533 144.959 206.572L147.902 214.247Z" fill="#00C8B5"/>
<path d="M133.835 221.807C134.873 221.412 135.394 220.24 134.999 219.201L132.055 211.525C131.661 210.487 130.488 209.966 129.449 210.361L121.183 213.525C120.145 213.92 119.624 215.092 120.019 216.131L122.963 223.814C123.365 224.852 124.53 225.373 125.569 224.978L133.835 221.807Z" fill="#00C8B5"/>
</g>
<circle cx="287.543" cy="156.5" r="86.5" fill="#006058"/>
<path d="M310.377 123.667H263.71" stroke="#EAFFFD" stroke-width="5" stroke-miterlimit="10" stroke-linecap="round" stroke-linejoin="round"/>
<path d="M320.377 137H253.71L263.71 190.333H310.377L320.377 137Z" stroke="#EAFFFD" stroke-width="5" stroke-miterlimit="10" stroke-linecap="round" stroke-linejoin="round"/>
</g>
<defs>
<clipPath id="clip0_1911_9789">
<rect width="48.6011" height="39.0443" fill="white" transform="translate(159.631 183.051) rotate(-1.20361)"/>
</clipPath>
<clipPath id="clip1_1911_9789">
<rect width="48.6011" height="39.0443" fill="white" transform="translate(116.616 199.595) rotate(-1.20361)"/>
</clipPath>
</defs>
</svg>
