<svg width="446" height="445" viewBox="0 0 446 445" fill="none" xmlns="http://www.w3.org/2000/svg">
<mask id="mask0_1911_9626" style="mask-type:alpha" maskUnits="userSpaceOnUse" x="0" y="0" width="446" height="445">
<circle cx="223" cy="222.5" r="222.5" fill="#D9D9D9"/>
</mask>
<g mask="url(#mask0_1911_9626)">
<circle cx="223" cy="222.5" r="222.5" fill="#003E42"/>
<path d="M118.289 167H326.711L342.5 187H102.5L118.289 167Z" fill="#EAFFFD"/>
<rect x="102.5" y="187" width="240" height="258" fill="#00C8B5"/>
<ellipse cx="222.713" cy="301.751" rx="73.2131" ry="73.7514" fill="#018D82"/>
<ellipse cx="223.288" cy="320.654" rx="73.2131" ry="73.7514" fill="#88CCCA"/>
<path d="M223.288 386.869C260.155 386.869 290.042 356.983 290.042 320.116C290.042 283.249 260.155 253.363 223.288 253.363C186.422 253.363 156.535 283.249 156.535 320.116C156.535 356.983 186.422 386.869 223.288 386.869Z" fill="#EAFFFD"/>
<path d="M214.735 311.563L191.104 287.932" stroke="#006058" stroke-width="5" stroke-miterlimit="10" stroke-linecap="square"/>
<path d="M223.288 332.253C229.991 332.253 235.425 326.819 235.425 320.116C235.425 313.413 229.991 307.979 223.288 307.979C216.585 307.979 211.151 313.413 211.151 320.116C211.151 326.819 216.585 332.253 223.288 332.253Z" fill="#EAFFFD" stroke="#006058" stroke-width="5" stroke-miterlimit="10" stroke-linecap="square"/>
<path d="M223.288 271.569V280.672" stroke="#006058" stroke-width="5" stroke-miterlimit="10" stroke-linecap="square"/>
<path d="M257.617 285.787L251.179 292.226" stroke="#006058" stroke-width="5" stroke-miterlimit="10" stroke-linecap="square"/>
<path d="M271.836 320.116H262.733" stroke="#006058" stroke-width="5" stroke-miterlimit="10" stroke-linecap="square"/>
<path d="M183.845 320.116H174.742" stroke="#006058" stroke-width="5" stroke-miterlimit="10" stroke-linecap="square"/>
<circle cx="350" cy="189.5" r="47.5" fill="#006058"/>
<path d="M333.502 194.998C333.502 185.199 349.502 169 349.502 169C349.502 169 365.501 185.199 365.501 194.998C365.533 197.108 365.14 199.203 364.347 201.158C363.555 203.114 362.377 204.89 360.885 206.382C359.393 207.874 357.617 209.051 355.661 209.844C353.706 210.637 351.611 211.03 349.502 210.998C347.392 211.03 345.297 210.637 343.342 209.844C341.386 209.051 339.61 207.874 338.118 206.382C336.626 204.89 335.448 203.114 334.656 201.158C333.863 199.203 333.47 197.108 333.502 194.998V194.998Z" stroke="#00C8B5" stroke-width="4" stroke-miterlimit="10" stroke-linecap="round" stroke-linejoin="round"/>
<path d="M349.483 200.99C348.698 200.99 347.922 200.836 347.197 200.536C346.472 200.235 345.814 199.795 345.259 199.241C344.705 198.686 344.265 198.028 343.964 197.303C343.664 196.578 343.51 195.801 343.51 195.017" stroke="#00C8B5" stroke-width="4" stroke-miterlimit="10" stroke-linecap="square" stroke-linejoin="round"/>
<circle cx="278" cy="105.5" r="47.5" fill="#006058"/>
<path d="M293.075 100.271C293.072 97.498 292.315 94.778 290.884 92.4022C289.454 90.0265 287.405 88.0846 284.955 86.7845C282.506 85.4843 279.749 84.8748 276.98 85.0214C274.211 85.1679 271.533 86.0649 269.235 87.6163C266.936 89.1676 265.103 91.315 263.932 93.8284C262.76 96.3418 262.294 99.1265 262.584 101.884C262.873 104.642 263.908 107.269 265.576 109.485C267.244 111.7 269.484 113.419 272.054 114.459V117.636H283.521V114.459C286.345 113.314 288.763 111.352 290.465 108.824C292.167 106.297 293.076 103.318 293.075 100.271Z" stroke="#00C8B5" stroke-width="4" stroke-miterlimit="10" stroke-linecap="square"/>
<path d="M283.5 117V127H271.5V117" stroke="#00C8B5" stroke-width="4" stroke-miterlimit="10" stroke-linecap="square"/>
<path d="M270.842 99.2995C270.842 97.8855 271.404 96.5294 272.403 95.5296C273.403 94.5297 274.759 93.968 276.173 93.968" stroke="#00C8B5" stroke-width="4" stroke-miterlimit="10" stroke-linecap="square"/>
<circle cx="168" cy="105.5" r="47.5" fill="#006058"/>
<path d="M169.833 85L146.5 110.667H167.5L165.167 127L188.5 101.333H167.5L169.833 85Z" stroke="#00C8B5" stroke-width="4" stroke-miterlimit="10" stroke-linecap="round" stroke-linejoin="round"/>
<circle cx="95" cy="189.5" r="47.5" fill="#006058"/>
<path d="M99.6157 185.52C99.6157 185.52 101.573 174.009 93.5832 169C93.4641 170.979 92.929 172.911 92.0128 174.669C91.0967 176.427 89.8201 177.973 88.2663 179.204C84.8534 182.207 78.4321 188.942 78.5005 196.144C78.4776 199.218 79.3132 202.237 80.9132 204.862C82.5133 207.487 84.8142 209.612 87.557 211C87.6554 209.612 88.0297 208.258 88.6579 207.016C89.2862 205.775 90.1557 204.671 91.2157 203.77C92.1146 203.079 92.8667 202.216 93.4281 201.231C93.9896 200.246 94.349 199.158 94.4854 198.033C96.8357 199.281 98.8216 201.119 100.249 203.365C101.676 205.611 102.495 208.19 102.627 210.848V210.891C105.216 209.703 107.426 207.823 109.012 205.457C110.599 203.092 111.501 200.334 111.618 197.488C111.793 191.647 109.831 185.942 106.099 181.444" stroke="#00C8B5" stroke-width="4" stroke-miterlimit="10" stroke-linecap="round" stroke-linejoin="round"/>
</g>
</svg>
