<svg width="35" height="38" viewBox="0 0 35 38" fill="none" xmlns="http://www.w3.org/2000/svg">
  <path d="M19.3903 10.8175C19.3903 7.11699 25.4321 1 25.4321 1C25.4321 1 31.4739 7.11699 31.4739 10.8175C31.4858 11.6142 31.3376 12.4052 31.0382 13.1436C30.7388 13.882 30.2942 14.5528 29.7308 15.1162C29.1674 15.6796 28.4966 16.1242 27.7582 16.4236C27.0198 16.723 26.2288 16.8712 25.4321 16.8593C24.6354 16.8712 23.8444 16.723 23.106 16.4236C22.3676 16.1242 21.6969 15.6796 21.1334 15.1162C20.57 14.5528 20.1254 13.882 19.826 13.1436C19.5266 12.4052 19.3784 11.6142 19.3903 10.8175V10.8175Z" stroke="#001D23" stroke-width="2" stroke-miterlimit="10" stroke-linecap="round" stroke-linejoin="round"/>
  <path d="M25.4255 13.08C25.1293 13.08 24.836 13.0217 24.5623 12.9083C24.2887 12.795 24.04 12.6288 23.8306 12.4194C23.6211 12.2099 23.455 11.9613 23.3416 11.6876C23.2283 11.414 23.1699 11.1207 23.1699 10.8245" stroke="#001D23" stroke-width="2" stroke-miterlimit="10" stroke-linecap="square" stroke-linejoin="round"/>
  <path d="M26.2648 20.4907L17.4541 30.1825H25.3838L24.5027 36.35L33.3134 26.6582H25.3838L26.2648 20.4907Z" stroke="#001D23" stroke-width="2" stroke-miterlimit="10" stroke-linecap="round" stroke-linejoin="round"/>
  <path d="M9.28582 7.23799C9.28582 7.23799 10.0248 2.89137 7.00796 1C6.96297 1.74731 6.76092 2.47674 6.41498 3.14068C6.06904 3.80463 5.58699 4.38817 5.00029 4.85322C3.71157 5.98687 1.28686 8.53023 1.3127 11.2498C1.30405 12.4105 1.61957 13.5505 2.22374 14.5416C2.82792 15.5326 3.69676 16.3353 4.73244 16.8593C4.76962 16.3352 4.91095 15.8238 5.14816 15.3551C5.38538 14.8863 5.71372 14.4695 6.11396 14.1292C6.45339 13.8682 6.73741 13.5423 6.9494 13.1703C7.1614 12.7984 7.29712 12.3879 7.34864 11.9629C8.23611 12.4343 8.98599 13.1281 9.52489 13.9763C10.0638 14.8245 10.3733 15.7981 10.423 16.8017V16.8182C11.4005 16.3696 12.2349 15.6595 12.8341 14.7664C13.4332 13.8733 13.7738 12.8319 13.8181 11.7573C13.8841 9.55152 13.1431 7.39741 11.734 5.69905" stroke="#001D23" stroke-width="2" stroke-miterlimit="10" stroke-linecap="round" stroke-linejoin="round"/>
  <path d="M13.3297 26.2504C13.3286 25.2044 13.043 24.1783 12.5034 23.2821C11.9638 22.3859 11.1907 21.6534 10.2667 21.1629C9.3427 20.6724 8.30272 20.4425 7.2581 20.4978C6.21348 20.5531 5.20356 20.8914 4.3365 21.4767C3.46945 22.0619 2.7779 22.872 2.33592 23.8201C1.89394 24.7682 1.71818 25.8187 1.82745 26.8591C1.93672 27.8994 2.32692 28.8905 2.95625 29.7261C3.58558 30.5617 4.43034 31.2104 5.40007 31.6027V32.8009H9.72555V31.6027C10.7909 31.1707 11.703 30.4305 12.3451 29.477C12.9872 28.5235 13.33 27.4 13.3297 26.2504Z" stroke="#001D23" stroke-width="2" stroke-miterlimit="10" stroke-linecap="square"/>
  <path d="M9.71684 34.4521V36.3337H5.41016V34.4521" stroke="#001D23" stroke-width="2" stroke-miterlimit="10" stroke-linecap="square"/>
  <path d="M4.94238 25.884C4.94238 25.3506 5.15428 24.839 5.53145 24.4619C5.90862 24.0847 6.42018 23.8728 6.95358 23.8728" stroke="#001D23" stroke-width="2" stroke-miterlimit="10" stroke-linecap="square"/>
</svg>
