<svg width="23" height="33" viewBox="0 0 23 33" fill="none" xmlns="http://www.w3.org/2000/svg">
<path d="M21.8571 11.6827C21.8571 13.0558 21.2316 14.9592 20.1718 17.1425C19.1283 19.2923 17.7273 21.5882 16.3115 23.7057C14.8982 25.8197 13.4829 27.737 12.42 29.1268C12.038 29.6262 11.702 30.0569 11.4286 30.4034C11.1551 30.0569 10.8191 29.6262 10.4372 29.1268C9.37426 27.737 7.95898 25.8197 6.5456 23.7057C5.12988 21.5882 3.72882 19.2923 2.68533 17.1425C1.62558 14.9592 1 13.0558 1 11.6827C1 5.76321 5.6895 1.00195 11.4286 1.00195C17.1676 1.00195 21.8571 5.76321 21.8571 11.6827Z" stroke="#54747E" stroke-width="2"/>
<circle cx="11.429" cy="11.4304" r="4.02857" stroke="#54747E" stroke-width="2"/>
</svg>
