<svg width="41" height="42" viewBox="0 0 41 42" fill="none" xmlns="http://www.w3.org/2000/svg">
<path d="M11.5823 6.90918C7.85569 8.96321 4.97004 12.2622 3.43022 16.229C1.8904 20.1958 1.79448 24.5778 3.15926 28.6081" stroke="#00373A" stroke-width="2" stroke-miterlimit="10" stroke-linecap="square"/>
<path d="M4.6365 35.5469C6.64488 35.5469 8.27299 33.9188 8.27299 31.9104C8.27299 29.902 6.64488 28.2739 4.6365 28.2739C2.62811 28.2739 1 29.902 1 31.9104C1 33.9188 2.62811 35.5469 4.6365 35.5469Z" stroke="#00373A" stroke-width="2" stroke-miterlimit="10" stroke-linecap="square"/>
<path d="M34.0011 34.8369C31.1959 38.0319 27.3563 40.1384 23.1544 40.7876C18.9526 41.4368 14.6562 40.5873 11.0176 38.388" stroke="#00373A" stroke-width="2" stroke-miterlimit="10" stroke-linecap="square"/>
<path d="M38.5667 23.1507C38.5667 23.0407 38.5713 22.9297 38.5713 22.8188C38.5702 18.6215 37.117 14.5537 34.4582 11.3059C31.7994 8.058 28.0988 5.83003 23.9844 5" stroke="#00373A" stroke-width="2" stroke-miterlimit="10" stroke-linecap="square"/>
<path d="M36.1287 35.5469C38.1371 35.5469 39.7652 33.9188 39.7652 31.9104C39.7652 29.902 38.1371 28.2739 36.1287 28.2739C34.1203 28.2739 32.4922 29.902 32.4922 31.9104C32.4922 33.9188 34.1203 35.5469 36.1287 35.5469Z" stroke="#00373A" stroke-width="2" stroke-miterlimit="10" stroke-linecap="square"/>
<path d="M20.3826 8.27299C22.391 8.27299 24.0191 6.64488 24.0191 4.6365C24.0191 2.62811 22.391 1 20.3826 1C18.3742 1 16.7461 2.62811 16.7461 4.6365C16.7461 6.64488 18.3742 8.27299 20.3826 8.27299Z" stroke="#00373A" stroke-width="2" stroke-miterlimit="10" stroke-linecap="square"/>
</svg>
