<svg width="2268" height="1345" viewBox="0 0 2268 1345" fill="none" xmlns="http://www.w3.org/2000/svg">
<mask id="mask0_844_5923" style="mask-type:alpha" maskUnits="userSpaceOnUse" x="0" y="0" width="2268" height="1345">
<rect width="2268" height="1345" fill="#003E42"/>
</mask>
<g mask="url(#mask0_844_5923)">
<path d="M1074.2 1231.58L1639.2 1557.71L1883.89 1416.49L1318.89 1090.3L1074.2 1231.58Z" fill="#034F51"/>
<path d="M2736.26 1397.03L2395.11 1200.78L2074.79 1385.69L2417.67 1583.68L2736.26 1397.03Z" fill="#034F51"/>
<path d="M2326.23 1161.15L1760.21 835.554L1441.03 1019.81L2006.03 1346L2326.23 1161.15Z" fill="#034F51"/>
<path d="M1250.12 1050.61L944.427 874.171L703.383 1017.54L1005.43 1191.89L1250.12 1050.61Z" fill="#034F51"/>
<path d="M1372.25 980.116L1691.31 795.92L1378.52 615.962L1064.7 802.605L1372.25 980.116Z" fill="#034F51"/>
<path d="M2349.33 1352.03L2253.34 1296.64L2145.89 1358.66L2241.82 1414.11L2349.33 1352.03Z" fill="#02A894"/>
<path d="M2241.82 1415C2241.82 1415 2241.52 1415 2241.34 1414.88L2145.36 1359.49C2145.36 1359.49 2144.88 1359.01 2144.88 1358.71C2144.88 1358.42 2145.06 1358.12 2145.36 1357.94L2252.8 1295.92C2252.8 1295.92 2253.4 1295.74 2253.7 1295.92L2349.69 1351.31C2349.69 1351.31 2350.17 1351.79 2350.17 1352.09C2350.17 1352.39 2349.99 1352.69 2349.69 1352.86L2242.24 1414.88C2242.24 1414.88 2241.94 1415 2241.76 1415H2241.82ZM2147.62 1358.71L2241.82 1413.09L2347.48 1352.09L2253.28 1297.71L2147.62 1358.71Z" fill="#02A894"/>
<path d="M2253.34 1309.12L2327.72 1352.09L2241.82 1401.69L2167.44 1358.72L2253.34 1309.12ZM2253.34 1304.94L2160.28 1358.66L2241.88 1405.75L2334.94 1352.03L2253.34 1304.94Z" fill="#003E42"/>
<path d="M1210.96 922.218L956.488 775.327L818.058 855.249L1072.53 1002.14L1210.96 922.218Z" fill="#02A894"/>
<path d="M1072.53 1003.03C1072.53 1003.03 1072.23 1003.03 1072.05 1002.92L817.575 856.024C817.575 856.024 817.097 855.546 817.097 855.248C817.097 854.95 817.276 854.651 817.575 854.472L956.005 774.55C956.005 774.55 956.602 774.371 956.9 774.55L1211.38 921.442C1211.38 921.442 1211.85 921.919 1211.85 922.217C1211.85 922.516 1211.67 922.814 1211.38 922.993L1072.95 1002.92C1072.95 1002.92 1072.65 1003.03 1072.47 1003.03H1072.53ZM819.903 855.248L1072.53 1001.12L1209.17 922.277L956.542 776.401L819.903 855.248Z" fill="#02A894"/>
<path d="M956.489 787.802L1189.35 922.219L1072.53 989.666L839.668 855.249L956.489 787.802ZM956.489 783.624L832.445 855.249L1072.47 993.844L1196.52 922.219L956.489 783.624Z" fill="#003E42"/>
<path d="M1072.53 1129.45L818.058 982.561V855.247L1072.53 1002.14V1129.45Z" fill="#003E42"/>
<path d="M1072.53 1130.35C1072.53 1130.35 1072.23 1130.35 1072.05 1130.23L817.575 983.338C817.575 983.338 817.097 982.86 817.097 982.562V855.188C817.097 854.89 817.276 854.592 817.575 854.413C817.873 854.234 818.172 854.234 818.47 854.413L1072.95 1001.3C1072.95 1001.3 1073.42 1001.78 1073.42 1002.08V1129.45C1073.42 1129.75 1073.24 1130.05 1072.95 1130.23C1072.83 1130.29 1072.65 1130.35 1072.47 1130.35H1072.53ZM819.007 982.025L1071.63 1127.9V1002.62L819.007 856.74V982.025Z" fill="#02A894"/>
<path d="M1210.96 1049.53L1072.53 1129.46V1002.14L1210.96 922.221V1049.53Z" fill="#003E42"/>
<path d="M1072.53 1129.99C1072.11 1129.81 1071.99 1129.63 1071.99 1129.46V1002.08C1071.99 1002.08 1072.11 1001.72 1072.23 1001.6L1210.66 921.683C1210.66 921.683 1211.02 921.564 1211.2 921.683C1211.38 921.802 1211.44 921.981 1211.44 922.16V1049.53C1211.44 1049.53 1211.32 1049.89 1211.2 1050.01L1072.77 1129.93C1072.77 1129.93 1072.59 1129.99 1072.47 1129.99H1072.53ZM1073.07 1002.44V1128.56L1210.42 1049.24V923.115L1073.07 1002.38V1002.44Z" fill="#02A894"/>
<path d="M1170.23 639.035V620.89L1188.38 610.445C1191.48 608.654 1193.99 609.729 1193.99 612.832V625.367C1193.99 628.471 1191.48 632.41 1188.38 634.201L1175.84 641.423C1172.74 643.213 1170.23 642.139 1170.23 639.035Z" fill="white"/>
<path d="M1079.91 729.162V711.017L1061.77 721.462C1058.66 723.253 1056.16 727.192 1056.16 730.296V742.83C1056.16 745.934 1058.66 746.949 1061.77 745.218L1074.3 737.995C1077.41 736.205 1079.91 732.265 1079.91 729.162Z" fill="#48CA2D"/>
<path d="M1084.68 779.597V761.452L1102.83 751.006C1105.93 749.216 1108.44 750.29 1108.44 753.394V765.928C1108.44 769.032 1105.93 772.971 1102.83 774.762L1090.29 781.984C1087.19 783.775 1084.68 782.701 1084.68 779.597Z" fill="#006058"/>
<path d="M1051.64 637.046V618.901L1069.78 608.456C1072.89 606.665 1075.39 607.739 1075.39 610.843V623.378C1075.39 626.481 1072.89 630.421 1069.78 632.211L1057.25 639.433C1054.14 641.224 1051.64 640.15 1051.64 637.046Z" fill="#006058"/>
<path d="M1163.72 534.131V552.276L1145.57 562.722C1142.47 564.512 1139.96 563.438 1139.96 560.334V547.8C1139.96 544.696 1142.47 540.757 1145.57 538.966L1158.11 531.744C1161.21 529.953 1163.72 531.028 1163.72 534.131Z" fill="#006058"/>
<path d="M1151.84 679.084V697.229L1133.7 707.675C1130.59 709.465 1128.08 708.391 1128.08 705.287V692.753C1128.08 689.649 1130.59 685.71 1133.7 683.919L1146.23 676.697C1149.34 674.906 1151.84 675.981 1151.84 679.084Z" fill="#006058"/>
<path d="M1170.83 821.592V780.527C1170.83 777.423 1173.34 773.484 1176.44 771.694L1188.98 764.471C1192.08 762.681 1194.59 763.755 1194.59 766.859V813.534L1176.44 823.98C1173.34 825.77 1170.83 824.696 1170.83 821.592Z" fill="#48CA2D"/>
<path d="M1079.91 808.905V767.839C1079.91 764.736 1077.4 763.721 1074.36 765.452L1056.99 775.479C1053.88 777.27 1051.38 776.196 1051.38 773.092V755.723C1051.38 752.619 1048.87 751.604 1045.76 753.335L1027.62 763.781V810.456C1027.62 813.56 1030.12 814.575 1033.23 812.844L1050.6 802.816C1053.7 801.026 1056.21 802.1 1056.21 805.204V822.513C1056.21 825.617 1058.72 826.632 1061.82 824.901L1074.36 817.679C1077.46 815.888 1079.97 811.949 1079.97 808.845L1079.91 808.905Z" fill="white"/>
<path d="M1222.52 635.451C1222.52 632.348 1220.01 631.333 1216.91 633.064L1204.37 640.286C1201.27 642.077 1198.76 646.016 1198.76 649.12V666.429C1198.76 669.533 1196.25 673.472 1193.15 675.263L1175.78 685.291C1172.67 687.081 1170.17 691.021 1170.17 694.124V706.659C1170.17 709.762 1172.67 710.777 1175.78 709.046L1193.15 699.019C1196.25 697.228 1198.76 698.302 1198.76 701.406V747.246C1198.76 750.35 1201.27 751.365 1204.37 749.634L1222.52 739.188V635.511V635.451Z" fill="#00C8B5"/>
<path d="M1136.92 617.128C1136.92 614.024 1134.41 613.01 1131.31 614.741L1118.77 621.963C1115.67 623.753 1113.16 627.693 1113.16 630.797V648.166C1113.16 651.269 1110.66 655.209 1107.55 657L1090.18 667.027C1087.08 668.818 1084.57 672.757 1084.57 675.861V716.926C1084.57 720.03 1087.08 721.044 1090.18 719.313L1108.33 708.868V685.948C1108.33 682.844 1110.84 678.905 1113.94 677.174L1131.25 667.206C1134.35 665.415 1136.86 661.476 1136.86 658.372V617.248L1136.92 617.128Z" fill="#00C8B5"/>
<path d="M1581 672.008L1423.29 580.925L1211.08 703.404L1368.79 794.487L1581 672.008Z" fill="#02A894"/>
<path d="M1368.79 795.383C1368.79 795.383 1368.49 795.383 1368.31 795.264L1210.54 704.181C1210.54 704.181 1210.06 703.703 1210.06 703.405C1210.06 703.106 1210.24 702.808 1210.54 702.629L1422.75 580.15C1422.75 580.15 1423.35 579.971 1423.65 580.15L1581.42 671.233C1581.42 671.233 1581.9 671.711 1581.9 672.009C1581.9 672.308 1581.72 672.606 1581.42 672.785L1369.21 795.264C1369.21 795.264 1368.91 795.383 1368.73 795.383H1368.79ZM1212.87 703.405L1368.79 793.414L1579.21 671.949L1423.29 581.941L1212.87 703.405Z" fill="#02A894"/>
<path d="M1423.29 593.402L1559.45 672.01L1368.85 782.074L1232.69 703.466L1423.29 593.402ZM1423.29 589.224L1225.46 703.406L1368.79 786.133L1566.61 671.951L1423.29 589.224Z" fill="#003E42"/>
<path d="M1368.79 951.289L1211.08 860.265V703.406L1368.79 794.49V951.289Z" fill="#003E42"/>
<path d="M1368.79 952.244C1368.79 952.244 1368.49 952.244 1368.31 952.124L1210.54 861.041C1210.54 861.041 1210.06 860.564 1210.06 860.265V703.466C1210.06 703.167 1210.24 702.869 1210.54 702.69C1210.84 702.511 1211.14 702.511 1211.43 702.69L1369.21 793.773C1369.21 793.773 1369.68 794.251 1369.68 794.549V951.408C1369.68 951.707 1369.5 952.005 1369.21 952.184C1369.09 952.244 1368.91 952.304 1368.73 952.304L1368.79 952.244ZM1211.97 859.728L1367.89 949.737V794.967L1211.97 704.958V859.728Z" fill="#02A894"/>
<path d="M1581 828.81L1368.79 951.289V794.49L1581 672.011V828.81Z" fill="#003E42"/>
<path d="M1368.79 951.884C1368.37 951.705 1368.25 951.526 1368.25 951.347V794.488C1368.25 794.488 1368.37 794.13 1368.49 794.011L1580.71 671.532C1580.71 671.532 1581.06 671.412 1581.24 671.532C1581.42 671.651 1581.48 671.83 1581.48 672.009V828.808C1581.48 828.808 1581.36 829.167 1581.24 829.286L1369.03 951.765C1369.03 951.765 1368.85 951.825 1368.73 951.825L1368.79 951.884ZM1369.33 794.846V950.452L1580.47 828.57V672.964L1369.33 794.846Z" fill="#02A894"/>
<path d="M1405.19 626.048L1417.72 618.826C1420.83 617.036 1423.34 613.096 1423.34 609.992V592.623C1423.34 589.52 1425.84 585.58 1428.95 583.79L1446.32 573.762C1449.42 571.971 1451.93 568.032 1451.93 564.928V552.394C1451.93 549.29 1449.42 548.275 1446.32 550.006L1428.95 560.034C1425.84 561.825 1423.34 560.75 1423.34 557.646V540.397C1423.34 537.293 1420.83 536.278 1417.72 538.009L1399.58 548.455V623.542C1399.58 626.645 1402.08 627.66 1405.19 625.929V626.048Z" fill="#006058"/>
<path d="M1571.11 440.573V422.428L1589.26 411.983C1592.37 410.192 1594.87 411.267 1594.87 414.371V426.905C1594.87 430.009 1592.37 433.948 1589.26 435.739L1576.73 442.961C1573.62 444.752 1571.11 443.677 1571.11 440.573Z" fill="#006058"/>
<path d="M1451.86 511.424V493.279L1433.72 503.725C1430.61 505.515 1428.1 509.455 1428.1 512.558V525.093C1428.1 528.197 1430.61 529.211 1433.72 527.48L1446.25 520.258C1449.36 518.467 1451.86 514.528 1451.86 511.424Z" fill="#48CA2D"/>
<path d="M1534.83 383.305V365.16L1552.98 354.714C1556.09 352.924 1558.59 353.998 1558.59 357.102V369.636C1558.59 372.74 1556.09 376.679 1552.98 378.47L1540.45 385.692C1537.34 387.483 1534.83 386.409 1534.83 383.305Z" fill="white"/>
<path d="M1565.95 508.979V527.124L1547.8 537.569C1544.7 539.36 1542.19 538.286 1542.19 535.182V522.647C1542.19 519.544 1544.7 515.604 1547.8 513.814L1560.34 506.591C1563.44 504.801 1565.95 505.875 1565.95 508.979Z" fill="#48CA2D"/>
<path d="M1518.42 583.075L1535.79 573.047C1538.9 571.256 1541.4 567.317 1541.4 564.213V551.679C1541.4 548.575 1538.9 547.56 1535.79 549.291L1494.72 572.987C1491.62 574.778 1489.11 578.717 1489.11 581.821V622.886C1489.11 625.99 1491.62 627.005 1494.72 625.274L1512.87 614.828V591.908C1512.87 588.805 1515.38 584.865 1518.48 583.134L1518.42 583.075Z" fill="#48CA2D"/>
<path d="M1451.92 482.893V465.583C1451.92 462.479 1454.43 458.54 1457.54 456.749L1474.91 446.722C1478.01 444.931 1480.52 440.992 1480.52 437.888V425.354C1480.52 422.25 1478.01 421.235 1474.91 422.966L1433.84 446.662C1430.73 448.453 1428.23 452.392 1428.23 455.496V472.865C1428.23 475.969 1425.72 479.908 1422.61 481.639L1405.24 491.667C1402.14 493.457 1399.63 497.397 1399.63 500.5V518.645L1446.31 491.726C1449.42 489.936 1451.92 485.996 1451.92 482.893Z" fill="#006058"/>
<path d="M1565.94 478.835V466.301C1565.94 463.197 1563.43 462.182 1560.33 463.913L1542.96 473.941C1539.85 475.731 1537.35 474.657 1537.35 471.553V425.713C1537.35 422.609 1534.84 421.595 1531.79 423.326L1513.65 433.771V456.691C1513.65 459.795 1511.14 463.734 1508.04 465.525L1490.66 475.552C1487.56 477.343 1485.05 481.282 1485.05 484.326V496.861C1485.05 499.965 1487.56 500.979 1490.66 499.248L1508.04 489.221C1511.14 487.43 1513.65 488.505 1513.65 491.608V508.977C1513.65 512.081 1516.09 513.155 1519.2 511.365L1560.33 487.609C1563.43 485.819 1565.94 481.879 1565.94 478.775V478.835Z" fill="#00C8B5"/>
<g style="mix-blend-mode:multiply" opacity="0.6">
<g style="mix-blend-mode:multiply" opacity="0.6">
<path d="M1332.02 792.34L1339.9 796.876V811.022L1332.02 806.486V792.34ZM1316.44 797.473L1324.32 802.009V787.863L1316.44 783.327V797.473ZM1300.86 788.46L1308.74 792.996V778.85L1300.86 774.314V788.46ZM1285.28 779.447L1293.16 783.984V769.838L1285.28 765.301V779.447ZM1269.7 770.434L1277.58 774.971V760.825L1269.7 756.288V770.434ZM1254.12 761.422L1262 765.958V751.812L1254.12 747.276V761.422ZM1238.54 752.409L1246.42 756.945V742.799L1238.54 738.263V752.409ZM1222.96 743.396L1230.84 747.932V733.786L1222.96 729.25V743.396ZM1331.96 819.498L1339.84 824.034V838.18L1331.96 833.644V819.498ZM1316.38 824.631L1324.26 829.167V815.021L1316.38 810.485V824.631ZM1300.8 815.618L1308.68 820.154V806.008L1300.8 801.472V815.618ZM1285.22 806.605L1293.1 811.141V796.995L1285.22 792.459V806.605ZM1269.64 797.592L1277.52 802.129V787.983L1269.64 783.446V797.592ZM1254.06 788.579L1261.94 793.116V778.97L1254.06 774.434V788.579ZM1238.48 779.567L1246.36 784.103V769.957L1238.48 765.421V779.567ZM1222.9 770.554L1230.78 775.09V760.944L1222.9 756.408V770.554ZM1331.91 846.656L1339.78 851.192V865.338L1331.91 860.801V846.656ZM1316.33 851.789L1324.2 856.325V842.179L1316.33 837.643V851.789ZM1300.75 842.776L1308.62 847.312V833.166L1300.75 828.63V842.776ZM1285.16 833.763L1293.04 838.299V824.153L1285.16 819.617V833.763ZM1269.58 824.75L1277.46 829.286V815.14L1269.58 810.604V824.75ZM1254 815.737L1261.88 820.274V806.128L1254 801.591V815.737ZM1238.42 806.725L1246.3 811.261V797.115L1238.42 792.579V806.725ZM1222.84 797.712L1230.72 802.248V788.102L1222.84 783.566V797.712ZM1331.85 873.813L1339.73 878.35V892.496L1331.85 887.959V873.813ZM1316.27 878.947L1324.15 883.483V869.337L1316.27 864.801V878.947ZM1300.69 869.934L1308.56 874.47V860.324L1300.69 855.788V869.934ZM1285.11 860.921L1292.98 865.457V851.311L1285.11 846.775V860.921ZM1269.53 851.908L1277.4 856.444V842.298L1269.53 837.762V851.908ZM1253.95 842.895L1261.82 847.432V833.285L1253.95 828.749V842.895ZM1238.36 833.882L1246.24 838.419V824.273L1238.36 819.736V833.882ZM1222.78 824.87L1230.66 829.406V815.26L1222.78 810.724V824.87ZM1347.31 814.782L1355.19 819.319V805.173L1347.31 800.636V814.782ZM1347.31 842.119L1355.19 846.656V832.51L1347.31 827.973V842.119ZM1347.31 869.456L1355.19 873.992V859.846L1347.31 855.31V869.456ZM1347.31 896.793L1355.19 901.329V887.183L1347.31 882.647V896.793ZM1331.79 901.031L1339.67 905.567V919.713L1331.79 915.177V901.031ZM1316.21 906.164L1324.09 910.7V896.554L1316.21 892.018V906.164ZM1300.63 897.151L1308.51 901.688V887.542L1300.63 883.005V897.151ZM1285.05 888.138L1292.93 892.675V878.529L1285.05 873.992V888.138ZM1269.47 879.126L1277.35 883.662V869.516L1269.47 864.98V879.126ZM1253.89 870.113L1261.76 874.649V860.503L1253.89 855.967V870.113ZM1238.31 861.1L1246.18 865.636V851.49L1238.31 846.954V861.1ZM1222.73 852.087L1230.6 856.623V842.477L1222.73 837.941V852.087ZM1347.25 923.951L1355.13 928.487V914.341L1347.25 909.805V923.951Z" fill="#001D23"/>
</g>
<g style="mix-blend-mode:multiply" opacity="0.6">
<path d="M1445.62 849.819L1453.5 845.283V859.429L1445.62 863.965V849.819ZM1445.62 891.242L1453.5 886.706V872.56L1445.62 877.096V891.242ZM1445.62 809.291L1453.5 804.755V790.609L1445.62 795.145V809.291ZM1445.62 781.954L1453.5 777.418V763.272L1445.62 767.808V781.954ZM1430.04 790.967L1437.92 786.431V772.285L1430.04 776.821V790.967ZM1430.04 845.581L1437.92 841.045V826.899L1430.04 831.435V845.581ZM1430.04 818.244L1437.92 813.708V799.562L1430.04 804.098V818.244ZM1430.04 872.858L1437.92 868.322V854.176L1430.04 858.712V872.858ZM1476.72 873.216L1484.6 868.68V854.534L1476.72 859.07V873.216ZM1476.72 845.879L1484.6 841.343V827.197L1476.72 831.734V845.879ZM1461.14 772.941L1469.02 768.405V754.259L1461.14 758.795V772.941ZM1461.14 800.278L1469.02 795.742V781.596L1461.14 786.132V800.278ZM1461.14 854.892L1469.02 850.356V836.21L1461.14 840.746V854.892ZM1461.14 882.229L1469.02 877.693V863.547L1461.14 868.083V882.229ZM1461.14 827.615L1469.02 823.079V808.933L1461.14 813.469V827.615ZM1383.36 817.886L1391.24 813.35V799.204L1383.36 803.74V817.886ZM1476.72 818.602L1484.6 814.066V799.92L1476.72 804.456V818.602ZM1398.88 863.547L1406.76 859.011V844.865L1398.88 849.401V863.547ZM1398.88 890.884L1406.76 886.348V872.202L1398.88 876.738V890.884ZM1383.36 845.223L1391.24 840.687V826.541L1383.36 831.077V845.223ZM1430.04 900.255L1437.92 895.719V881.573L1430.04 886.109V900.255ZM1383.36 927.174L1391.24 922.638V908.492L1383.36 913.028V927.174ZM1383.36 899.837L1391.24 895.301V881.155L1383.36 885.691V899.837ZM1383.36 872.5L1391.24 867.964V853.818L1383.36 858.354V872.5ZM1398.88 918.161L1406.76 913.625V899.479L1398.88 904.015V918.161ZM1414.46 827.257L1422.34 822.721V808.575L1414.46 813.111V827.257ZM1414.46 799.92L1422.34 795.384V781.238L1414.46 785.774V799.92ZM1414.46 854.534L1422.34 849.998V835.852L1414.46 840.388V854.534ZM1414.46 909.148L1422.34 904.612V890.466L1414.46 895.002V909.148ZM1414.46 881.811L1422.34 877.275V863.129L1414.46 867.665V881.811ZM1398.88 808.873L1406.76 804.337V790.191L1398.88 794.727V808.873ZM1398.88 836.21L1406.76 831.674V817.528L1398.88 822.064V836.21ZM1445.56 836.568L1453.44 832.032V817.886L1445.56 822.422V836.568ZM1507.83 773.299L1515.7 768.763V754.617L1507.83 759.153V773.299ZM1507.83 800.636L1515.7 796.1V781.954L1507.83 786.49V800.636ZM1476.66 791.325L1484.54 786.789V772.643L1476.66 777.179V791.325ZM1507.83 746.022L1515.7 741.486V727.34L1507.83 731.876V746.022ZM1476.66 763.988L1484.54 759.452V745.306L1476.66 749.842V763.988ZM1492.24 754.975L1500.12 750.439V736.293L1492.24 740.829V754.975ZM1492.24 782.312L1500.12 777.776V763.63L1492.24 768.166V782.312ZM1492.24 809.649L1500.12 805.113V790.967L1492.24 795.503V809.649ZM1523.41 737.069L1531.28 732.533V718.387L1523.41 722.923V737.069ZM1523.41 791.683L1531.28 787.147V773.001L1523.41 777.537V791.683ZM1523.41 764.346L1531.28 759.81V745.664L1523.41 750.2V764.346Z" fill="#001D23"/>
</g>
</g>
<path d="M1824.07 811.856L1660.09 717.191L1496.11 811.856L1660.09 906.461L1824.07 811.856Z" fill="#02A894"/>
<path d="M1660.09 907.417C1660.09 907.417 1659.79 907.417 1659.61 907.298L1495.63 812.633C1495.63 812.633 1495.15 812.155 1495.15 811.857C1495.15 811.559 1495.33 811.26 1495.63 811.081L1659.61 716.416C1659.61 716.416 1660.21 716.237 1660.5 716.416L1824.48 811.081C1824.48 811.081 1824.96 811.559 1824.96 811.857C1824.96 812.155 1824.78 812.454 1824.48 812.633L1660.5 907.298C1660.5 907.298 1660.21 907.417 1660.03 907.417H1660.09ZM1497.9 811.857L1660.09 905.447L1822.28 811.857L1660.09 718.267L1497.9 811.857Z" fill="#02A894"/>
<path d="M1660.09 1118.89L1496.11 1024.23V811.856L1660.09 906.461V1118.89Z" fill="#003E42"/>
<path d="M1660.09 1119.79C1660.09 1119.79 1659.79 1119.79 1659.61 1119.67L1495.63 1025C1495.63 1025 1495.15 1024.52 1495.15 1024.23V811.857C1495.15 811.559 1495.33 811.261 1495.63 811.082C1495.93 810.902 1496.23 810.902 1496.53 811.082L1660.5 905.746C1660.5 905.746 1660.98 906.224 1660.98 906.522V1118.89C1660.98 1119.19 1660.8 1119.49 1660.5 1119.67C1660.39 1119.73 1660.21 1119.79 1660.03 1119.79H1660.09ZM1497 1023.69L1659.19 1117.28V907L1497 813.409V1023.69Z" fill="#02A894"/>
<path d="M1824.07 1024.23L1660.09 1118.89V906.464L1824.07 811.859V1024.23Z" fill="#003E42"/>
<path d="M1660.09 1119.43C1659.67 1119.25 1659.55 1119.07 1659.55 1118.89V906.524C1659.55 906.524 1659.67 906.166 1659.79 906.047L1823.77 811.382C1823.77 811.382 1824.13 811.263 1824.31 811.382C1824.49 811.502 1824.61 811.681 1824.61 811.86V1024.23C1824.61 1024.23 1824.49 1024.59 1824.31 1024.71L1660.33 1119.37C1660.33 1119.37 1660.15 1119.43 1660.03 1119.43H1660.09ZM1660.63 906.823V1117.94L1823.53 1023.93V812.815L1660.63 906.823Z" fill="#02A894"/>
<path d="M1789.58 498.799L1660.1 424.011L1530.62 498.799L1660.1 573.528L1789.58 498.799Z" fill="#02A894"/>
<path d="M1660.1 574.423C1660.1 574.423 1659.8 574.423 1659.62 574.304L1530.14 499.575C1530.14 499.575 1529.66 499.098 1529.66 498.799C1529.66 498.501 1529.84 498.202 1530.14 498.023L1659.62 423.294C1659.62 423.294 1660.22 423.115 1660.51 423.294L1789.99 498.023C1789.99 498.023 1790.47 498.501 1790.47 498.799C1790.47 499.098 1790.29 499.396 1789.99 499.575L1660.51 574.304C1660.51 574.304 1660.22 574.423 1660.04 574.423H1660.1ZM1532.41 498.799L1660.1 572.513L1787.78 498.799L1660.1 425.085L1532.41 498.799Z" fill="#02A894"/>
<path d="M1660.1 436.484L1767.96 498.738L1660.1 560.992L1552.23 498.738L1660.1 436.484ZM1660.1 432.306L1545.01 498.738L1660.1 565.17L1775.19 498.738L1660.1 432.306Z" fill="#003E42"/>
<path d="M1660.1 885.87L1530.62 811.141V498.796L1660.1 573.525V885.87Z" fill="#003E42"/>
<path d="M1660.1 886.767C1660.1 886.767 1659.8 886.766 1659.62 886.647L1530.14 811.918C1530.14 811.918 1529.66 811.441 1529.66 811.142V498.797C1529.66 498.499 1529.84 498.2 1530.14 498.021C1530.44 497.842 1530.74 497.842 1531.04 498.021L1660.51 572.75C1660.51 572.75 1660.99 573.227 1660.99 573.526V885.871C1660.99 886.17 1660.81 886.468 1660.51 886.647C1660.39 886.707 1660.22 886.767 1660.04 886.767H1660.1ZM1531.52 810.605L1659.2 884.319V574.063L1531.52 500.349V810.605Z" fill="#02A894"/>
<path d="M1789.57 811.147L1660.09 885.876V573.531L1789.57 498.802V811.147Z" fill="#003E42"/>
<path d="M1660.1 886.411C1659.68 886.232 1659.56 886.053 1659.56 885.874V573.529C1659.56 573.529 1659.68 573.171 1659.8 573.051L1789.28 498.323C1789.28 498.323 1789.63 498.203 1789.81 498.323C1789.99 498.442 1790.11 498.621 1790.11 498.8V811.145C1790.11 811.145 1789.99 811.504 1789.81 811.623L1660.34 886.352C1660.34 886.352 1660.16 886.411 1660.04 886.411H1660.1ZM1660.64 573.827V884.919L1789.04 810.787V499.695L1660.64 573.827Z" fill="#02A894"/>
<g style="mix-blend-mode:multiply" opacity="0.6">
<g style="mix-blend-mode:multiply" opacity="0.6">
<path d="M1672.15 598.414L1682.9 592.207V858.294L1672.15 864.502V598.414ZM1695.67 850.953L1706.42 844.745V578.658L1695.67 584.865V850.953ZM1719.19 837.344L1729.94 831.136V565.049L1719.19 571.257V837.344ZM1742.71 823.735L1753.46 817.528V551.44L1742.71 557.648V823.735ZM1766.23 810.126L1776.98 803.919V537.831L1766.23 544.039V810.126ZM1789.75 530.43V796.518L1800.5 790.31V524.223L1789.75 530.43Z" fill="#001D23"/>
</g>
<g style="mix-blend-mode:multiply" opacity="0.6">
<path d="M1645.95 864.502L1635.2 858.294V592.207L1645.95 598.414V864.502ZM1622.43 584.805L1611.68 578.598V844.685L1622.43 850.893V584.805ZM1598.91 571.197L1588.16 564.989V831.076L1598.91 837.284V571.197ZM1575.39 557.588L1564.64 551.38V817.468L1575.39 823.675V557.588ZM1551.87 543.979L1541.12 537.771V803.859L1551.87 810.066V543.979Z" fill="#001D23"/>
</g>
<g style="mix-blend-mode:multiply" opacity="0.6">
<path d="M1679.68 922.817L1671.56 927.532V912.969L1679.68 908.253V922.817ZM1695.73 899.002L1687.61 903.717V918.281L1695.73 913.565V899.002ZM1711.79 889.75L1703.67 894.465V909.029L1711.79 904.314V889.75ZM1727.85 880.498L1719.73 885.214V899.778L1727.85 895.062V880.498ZM1743.91 871.247L1735.79 875.962V890.526L1743.91 885.811V871.247ZM1759.96 861.995L1751.85 866.711V881.274L1759.96 876.559V861.995ZM1776.02 852.744L1767.9 857.459V872.023L1776.02 867.307V852.744ZM1792.08 843.492L1783.96 848.207V862.771L1792.08 858.056V843.492ZM1679.74 951.049L1671.62 955.765V941.201L1679.74 936.486V951.049ZM1695.79 927.234L1687.67 931.949V946.513L1695.79 941.798V927.234ZM1711.85 917.982L1703.73 922.698V937.261L1711.85 932.546V917.982ZM1727.91 908.731L1719.79 913.446V928.01L1727.91 923.295V908.731ZM1743.97 899.479L1735.85 904.194V918.758L1743.97 914.043V899.479ZM1760.02 890.228L1751.91 894.943V909.507L1760.02 904.791V890.228ZM1776.08 880.976L1767.96 885.691V900.255L1776.08 895.54V880.976ZM1792.14 871.724L1784.02 876.44V891.003L1792.14 886.288V871.724ZM1679.79 979.282L1671.68 983.997V969.433L1679.79 964.718V979.282ZM1695.85 955.466L1687.73 960.182V974.745L1695.85 970.03V955.466ZM1711.91 946.215L1703.79 950.93V965.494L1711.91 960.778V946.215ZM1727.97 936.963L1719.85 941.678V956.242L1727.97 951.527V936.963ZM1744.03 927.711L1735.91 932.427V946.991L1744.03 942.275V927.711ZM1760.08 918.46L1751.96 923.175V937.739L1760.08 933.024V918.46ZM1776.14 909.208L1768.02 913.924V928.487L1776.14 923.772V909.208ZM1792.2 899.957L1784.08 904.672V919.236L1792.2 914.52V899.957ZM1679.85 1007.51L1671.74 1012.23V997.665L1679.85 992.95V1007.51ZM1695.91 983.698L1687.79 988.414V1002.98L1695.91 998.262V983.698ZM1711.97 974.447L1703.85 979.162V993.726L1711.97 989.011V974.447ZM1728.03 965.195L1719.91 969.911V984.474L1728.03 979.759V965.195ZM1744.09 955.944L1735.97 960.659V975.223L1744.09 970.507V955.944ZM1760.14 946.692L1752.02 951.407V965.971L1760.14 961.256V946.692ZM1776.2 937.44L1768.08 942.156V956.72L1776.2 952.004V937.44ZM1792.26 928.189L1784.14 932.904V947.468L1792.26 942.753V928.189ZM1679.91 1035.75L1671.8 1040.46V1025.9L1679.91 1021.18V1035.75ZM1695.97 1011.93L1687.85 1016.65V1031.21L1695.97 1026.49V1011.93ZM1712.03 1002.68L1703.91 1007.39V1021.96L1712.03 1017.24V1002.68ZM1728.09 993.427L1719.97 998.143V1012.71L1728.09 1007.99V993.427ZM1744.14 984.176L1736.03 988.891V1003.46L1744.14 998.74V984.176ZM1760.2 974.924L1752.08 979.64V994.203L1760.2 989.488V974.924ZM1776.26 965.673L1768.14 970.388V984.952L1776.26 980.237V965.673ZM1792.32 956.421L1784.2 961.136V975.7L1792.32 970.985V956.421ZM1679.97 1063.98L1671.86 1068.69V1054.13L1679.97 1049.41V1063.98ZM1696.03 1040.16L1687.91 1044.88V1059.44L1696.03 1054.73V1040.16ZM1712.09 1030.91L1703.97 1035.63V1050.19L1712.09 1045.48V1030.91ZM1728.15 1021.66L1720.03 1026.38V1040.94L1728.15 1036.22V1021.66ZM1744.2 1012.41L1736.09 1017.12V1031.69L1744.2 1026.97V1012.41ZM1760.26 1003.16L1752.14 1007.87V1022.44L1760.26 1017.72V1003.16ZM1776.32 993.905L1768.2 998.62V1013.18L1776.32 1008.47V993.905ZM1792.38 984.653L1784.26 989.369V1003.93L1792.38 999.217V984.653Z" fill="#001D23"/>
</g>
<g style="mix-blend-mode:multiply" opacity="0.6">
<path d="M1639.5 908.255L1647.62 912.971V927.535L1639.5 922.819V908.255ZM1623.45 913.568L1631.56 918.283V903.719L1623.45 899.004V913.568ZM1607.39 904.316L1615.51 909.031V894.468L1607.39 889.752V904.316ZM1591.33 895.064L1599.45 899.78V885.216L1591.33 880.501V895.064ZM1575.27 885.813L1583.39 890.528V875.964L1575.27 871.249V885.813ZM1559.22 876.561L1567.33 881.277V866.713L1559.22 861.997V876.561ZM1543.16 867.31L1551.28 872.025V857.461L1543.16 852.746V867.31ZM1527.1 858.058L1535.22 862.773V848.21L1527.1 843.494V858.058ZM1639.44 936.547L1647.56 941.263V955.826L1639.44 951.111V936.547ZM1623.39 941.86L1631.5 946.575V932.011L1623.39 927.296V941.86ZM1607.33 932.608L1615.45 937.323V922.76L1607.33 918.044V932.608ZM1591.27 923.356L1599.39 928.072V913.508L1591.27 908.793V923.356ZM1575.21 914.105L1583.33 918.82V904.256L1575.21 899.541V914.105ZM1559.16 904.853L1567.27 909.569V895.005L1559.16 890.289V904.853ZM1543.1 895.602L1551.22 900.317V885.753L1543.1 881.038V895.602ZM1527.04 886.35L1535.16 891.065V876.502L1527.04 871.786V886.35ZM1639.38 964.839L1647.5 969.555V984.118L1639.38 979.403V964.839ZM1623.33 970.152L1631.45 974.867V960.303L1623.33 955.588V970.152ZM1607.27 960.9L1615.39 965.615V951.051L1607.27 946.336V960.9ZM1591.21 951.648L1599.33 956.364V941.8L1591.21 937.085V951.648ZM1575.15 942.397L1583.27 947.112V932.548L1575.15 927.833V942.397ZM1559.1 933.145L1567.21 937.86V923.297L1559.1 918.581V933.145ZM1543.04 923.894L1551.16 928.609V914.045L1543.04 909.33V923.894ZM1526.98 914.642L1535.1 919.357V904.794L1526.98 900.078V914.642ZM1639.32 993.131L1647.44 997.847V1012.41L1639.32 1007.69V993.131ZM1623.27 998.443L1631.39 1003.16V988.595L1623.27 983.88V998.443ZM1607.21 989.192L1615.33 993.907V979.343L1607.21 974.628V989.192ZM1591.15 979.94L1599.27 984.656V970.092L1591.15 965.376V979.94ZM1575.09 970.689L1583.21 975.404V960.84L1575.09 956.125V970.689ZM1559.04 961.437L1567.15 966.152V951.589L1559.04 946.873V961.437ZM1542.98 952.185L1551.1 956.901V942.337L1542.98 937.622V952.185ZM1526.92 942.934L1535.04 947.649V933.085L1526.92 928.37V942.934ZM1639.26 1021.42L1647.38 1026.14V1040.7L1639.26 1035.99V1021.42ZM1623.21 1026.74L1631.33 1031.45V1016.89L1623.21 1012.17V1026.74ZM1607.15 1017.48L1615.27 1022.2V1007.64L1607.15 1002.92V1017.48ZM1591.09 1008.23L1599.21 1012.95V998.384L1591.09 993.668V1008.23ZM1575.03 998.981L1583.15 1003.7V989.132L1575.03 984.417V998.981ZM1558.98 989.729L1567.1 994.444V979.881L1558.98 975.165V989.729ZM1542.92 980.477L1551.04 985.193V970.629L1542.92 965.914V980.477ZM1526.86 971.226L1534.98 975.941V961.377L1526.86 956.662V971.226ZM1639.21 1049.72L1647.32 1054.43V1068.99L1639.21 1064.28V1049.72ZM1623.15 1055.03L1631.27 1059.74V1045.18L1623.15 1040.46V1055.03ZM1607.09 1045.78L1615.21 1050.49V1035.93L1607.09 1031.21V1045.78ZM1591.03 1036.52L1599.15 1041.24V1026.68L1591.03 1021.96V1036.52ZM1574.97 1027.27L1583.09 1031.99V1017.42L1574.97 1012.71V1027.27ZM1558.92 1018.02L1567.04 1022.74V1008.17L1558.92 1003.46V1018.02ZM1542.86 1008.77L1550.98 1013.48V998.921L1542.86 994.206V1008.77ZM1526.8 999.518L1534.92 1004.23V989.669L1526.8 984.954V999.518ZM1510.8 849.523L1518.92 854.238V839.674L1510.8 834.959V849.523ZM1510.8 877.695L1518.92 882.411V867.847L1510.8 863.132V877.695ZM1510.8 905.868L1518.92 910.583V896.019L1510.8 891.304V905.868ZM1510.8 934.04L1518.92 938.756V924.192L1510.8 919.477V934.04ZM1510.8 962.213L1518.92 966.928V952.365L1510.8 947.649V962.213ZM1510.8 990.386L1518.92 995.101V980.537L1510.8 975.822V990.386Z" fill="#001D23"/>
</g>
</g>
<path d="M2049.07 233.724L1910.64 153.862L1772.21 233.724L1910.64 313.646L2049.07 233.724Z" fill="#02A894"/>
<path d="M1910.63 314.542C1910.63 314.542 1910.33 314.542 1910.15 314.422L1771.72 234.5C1771.72 234.5 1771.25 234.023 1771.25 233.725C1771.25 233.426 1771.42 233.128 1771.72 232.949L1910.15 153.027C1910.15 153.027 1910.75 152.848 1911.05 153.027L2049.48 232.949C2049.48 232.949 2049.96 233.426 2049.96 233.725C2049.96 234.023 2049.78 234.321 2049.48 234.5L1911.05 314.422C1911.05 314.422 1910.75 314.542 1910.57 314.542H1910.63ZM1773.99 233.725L1910.63 312.572L2047.27 233.725L1910.63 154.877L1773.99 233.725Z" fill="#02A894"/>
<path d="M1910.64 166.277L2027.46 233.724L1910.64 301.171L1793.82 233.724L1910.64 166.277ZM1910.64 162.099L1786.59 233.724L1910.64 305.349L2034.68 233.724L1910.64 162.099Z" fill="#003E42"/>
<path d="M1910.64 1263.52L1772.21 1183.59V233.725L1910.64 313.646V1263.52Z" fill="#003E42"/>
<path d="M1910.63 1264.41C1910.63 1264.41 1910.33 1264.41 1910.15 1264.29L1771.72 1184.37C1771.72 1184.37 1771.25 1183.89 1771.25 1183.59V233.726C1771.25 233.427 1771.42 233.129 1771.72 232.95C1772.02 232.771 1772.32 232.771 1772.62 232.95L1911.05 312.871C1911.05 312.871 1911.53 313.349 1911.53 313.647V1263.52C1911.53 1263.81 1911.35 1264.11 1911.05 1264.29C1910.93 1264.35 1910.75 1264.41 1910.57 1264.41H1910.63ZM1773.1 1183.06L1909.73 1261.9V314.185L1773.1 235.337V1183.06Z" fill="#02A894"/>
<path d="M2049.05 1183.59L1910.62 1263.52V313.647L2049.05 233.726V1183.59Z" fill="#003E42"/>
<path d="M1910.63 1264.05C1910.21 1263.87 1910.09 1263.7 1910.09 1263.52V313.648C1910.09 313.648 1910.21 313.289 1910.39 313.17L2048.82 233.248C2048.82 233.248 2049.18 233.129 2049.36 233.248C2049.53 233.368 2049.65 233.547 2049.65 233.726V1183.59C2049.65 1183.59 2049.53 1183.95 2049.36 1184.07L1910.93 1263.99C1910.93 1263.99 1910.75 1264.05 1910.69 1264.05H1910.63ZM1911.16 314.006V1262.56L2048.52 1183.3V234.681L1911.16 313.946V314.006Z" fill="#02A894"/>
<path d="M1590.27 1145.33L1360.21 1012.53L1221.78 1092.45L1451.84 1225.25L1590.27 1145.33Z" fill="#02A894"/>
<path d="M1451.83 1226.15C1451.83 1226.15 1451.53 1226.15 1451.35 1226.03L1221.29 1093.23C1221.29 1093.23 1220.82 1092.75 1220.82 1092.45C1220.82 1092.15 1221 1091.85 1221.29 1091.68L1359.72 1011.75C1359.72 1011.75 1360.32 1011.57 1360.62 1011.75L1590.68 1144.56C1590.68 1144.56 1591.16 1145.04 1591.16 1145.33C1591.16 1145.63 1590.98 1145.93 1590.68 1146.11L1452.25 1226.03C1452.25 1226.03 1451.95 1226.15 1451.77 1226.15H1451.83ZM1223.56 1092.45L1451.83 1224.24L1588.47 1145.39L1360.2 1013.6L1223.56 1092.45Z" fill="#02A894"/>
<path d="M1360.21 1025L1568.66 1145.33L1451.84 1212.78L1243.39 1092.45L1360.21 1025ZM1360.21 1020.83L1236.16 1092.45L1451.84 1216.96L1575.88 1145.33L1360.21 1020.83Z" fill="#003E42"/>
<path d="M1451.84 1345.16L1221.78 1212.36V1092.45L1451.84 1225.25V1345.16Z" fill="#003E42"/>
<path d="M1451.83 1346.06C1451.83 1346.06 1451.53 1346.06 1451.35 1345.94L1221.29 1213.14C1221.29 1213.14 1220.82 1212.66 1220.82 1212.36V1092.39C1220.82 1092.09 1221 1091.79 1221.29 1091.61C1221.59 1091.43 1221.89 1091.43 1222.19 1091.61L1452.25 1224.42C1452.25 1224.42 1452.73 1224.9 1452.73 1225.19V1345.17C1452.73 1345.46 1452.55 1345.76 1452.25 1345.94C1452.13 1346 1451.95 1346.06 1451.77 1346.06H1451.83ZM1222.67 1211.82L1450.94 1343.61V1225.73L1222.67 1093.94V1211.82Z" fill="#02A894"/>
<path d="M1590.26 1265.25L1451.83 1345.17V1225.25L1590.26 1145.33V1265.25Z" fill="#003E42"/>
<path d="M1451.83 1345.7C1451.42 1345.52 1451.3 1345.35 1451.3 1345.17V1225.19C1451.3 1225.19 1451.42 1224.84 1451.54 1224.72L1589.97 1144.8C1589.97 1144.8 1590.32 1144.68 1590.5 1144.8C1590.68 1144.91 1590.74 1145.09 1590.74 1145.27V1265.24C1590.74 1265.24 1590.62 1265.6 1590.5 1265.72L1452.07 1345.64C1452.07 1345.64 1451.89 1345.7 1451.77 1345.7H1451.83ZM1452.37 1225.49V1344.21L1589.73 1264.95V1146.23L1452.37 1225.49Z" fill="#02A894"/>
<path d="M2213.05 939.707L2118.43 885.093L1980 965.014L2074.62 1019.63L2213.05 939.707Z" fill="#02A894"/>
<path d="M2074.62 1020.53C2074.62 1020.53 2074.32 1020.53 2074.14 1020.41L1979.46 965.791C1979.46 965.791 1978.99 965.314 1978.99 965.016C1978.99 964.717 1979.16 964.419 1979.46 964.24L2117.89 884.318C2117.89 884.318 2118.49 884.139 2118.79 884.318L2213.4 938.932C2213.4 938.932 2213.88 939.41 2213.88 939.708C2213.88 940.006 2213.7 940.305 2213.4 940.484L2074.97 1020.41C2074.97 1020.41 2074.68 1020.53 2074.5 1020.53H2074.62ZM1981.79 965.016L2074.62 1018.62L2211.25 939.768L2118.43 886.168L1981.79 965.016Z" fill="#02A894"/>
<path d="M2118.43 897.568L2191.5 939.767L2074.68 1007.21L2001.61 965.015L2118.43 897.568ZM2118.43 893.39L1994.39 965.015L2074.62 1011.33L2198.66 939.707L2118.43 893.39Z" fill="#003E42"/>
<path d="M2074.62 1278.08L1980 1223.46V965.016L2074.62 1019.63V1278.08Z" fill="#003E42"/>
<path d="M2074.62 1278.97C2074.62 1278.97 2074.32 1278.97 2074.14 1278.85L1979.46 1224.24C1979.46 1224.24 1978.99 1223.76 1978.99 1223.46V965.016C1978.99 964.717 1979.16 964.419 1979.46 964.24C1979.76 964.061 1980.06 964.061 1980.36 964.24L2075.03 1018.85C2075.03 1018.85 2075.51 1019.33 2075.51 1019.63V1278.08C2075.51 1278.38 2075.33 1278.67 2075.03 1278.85C2074.91 1278.91 2074.73 1278.97 2074.56 1278.97H2074.62ZM1980.84 1222.93L2073.66 1276.53V1020.17L1980.84 966.568V1222.93Z" fill="#02A894"/>
<path d="M2213.04 1198.16L2074.61 1278.08V1019.63L2213.04 939.71V1198.16Z" fill="#003E42"/>
<path d="M2074.62 1278.61C2074.2 1278.44 2074.08 1278.26 2074.08 1278.08V1019.63C2074.08 1019.63 2074.2 1019.27 2074.38 1019.15L2212.81 939.231C2212.81 939.231 2213.17 939.111 2213.35 939.231C2213.53 939.35 2213.64 939.529 2213.64 939.708V1198.16C2213.64 1198.16 2213.53 1198.51 2213.35 1198.63L2074.92 1278.55C2074.92 1278.55 2074.74 1278.61 2074.68 1278.61H2074.62ZM2075.15 1019.93V1277.12L2212.51 1197.86V940.663L2075.15 1019.93Z" fill="#02A894"/>
<path d="M1420.84 1254.26L1318.82 1195.35L1268.26 1224.54L1370.33 1283.45L1420.84 1254.26Z" fill="#02A894"/>
<path d="M1370.34 1284.35C1370.34 1284.35 1370.04 1284.35 1369.86 1284.23L1267.84 1225.31C1267.84 1225.31 1267.37 1224.84 1267.37 1224.54C1267.37 1224.24 1267.55 1223.94 1267.84 1223.76L1318.35 1194.58C1318.35 1194.58 1318.94 1194.4 1319.24 1194.58L1421.26 1253.49C1421.26 1253.49 1421.74 1253.96 1421.74 1254.26C1421.74 1254.56 1421.56 1254.86 1421.26 1255.04L1370.76 1284.23C1370.76 1284.23 1370.46 1284.35 1370.28 1284.35H1370.34ZM1270.11 1224.54L1370.34 1282.44L1419.05 1254.32L1318.82 1196.43L1270.11 1224.54Z" fill="#02A894"/>
<path d="M1370.33 1356.45L1268.26 1297.54V1224.54L1370.33 1283.45V1356.45Z" fill="#003E42"/>
<path d="M1370.34 1357.34C1370.34 1357.34 1370.04 1357.34 1369.86 1357.22L1267.84 1298.31C1267.84 1298.31 1267.37 1297.83 1267.37 1297.54V1224.54C1267.37 1224.24 1267.55 1223.94 1267.84 1223.76C1268.14 1223.58 1268.44 1223.58 1268.74 1223.76L1370.76 1282.67C1370.76 1282.67 1371.23 1283.15 1371.23 1283.45V1356.45C1371.23 1356.75 1371.05 1357.04 1370.76 1357.22C1370.64 1357.28 1370.46 1357.34 1370.28 1357.34H1370.34ZM1269.22 1297L1369.44 1354.89V1283.99L1269.22 1226.09V1297Z" fill="#02A894"/>
<path d="M1420.85 1327.26L1370.35 1356.45V1283.45L1420.85 1254.26V1327.26Z" fill="#003E42"/>
<path d="M1370.35 1356.99C1369.93 1356.81 1369.81 1356.63 1369.81 1356.45V1283.45C1369.81 1283.45 1369.93 1283.09 1370.05 1282.97L1420.55 1253.79C1420.55 1253.79 1420.91 1253.67 1421.09 1253.79C1421.27 1253.9 1421.33 1254.08 1421.33 1254.26V1327.26C1421.33 1327.26 1421.21 1327.62 1421.09 1327.74L1370.59 1356.93C1370.59 1356.93 1370.41 1356.99 1370.29 1356.99H1370.35ZM1370.89 1283.81V1355.55L1420.31 1327.02V1255.28L1370.89 1283.81Z" fill="#02A894"/>
<path d="M1792.51 1347.2L1690.49 1288.29L1596.53 1342.54L1698.55 1401.45L1792.51 1347.2Z" fill="#009983"/>
<path d="M1698.55 1402.35C1698.55 1402.35 1698.25 1402.35 1698.07 1402.23L1596.06 1343.32C1596.06 1343.32 1595.58 1342.84 1595.58 1342.54C1595.58 1342.24 1595.76 1341.95 1596.06 1341.77L1690.01 1287.51C1690.01 1287.51 1690.61 1287.33 1690.91 1287.51L1792.93 1346.42C1792.93 1346.42 1793.4 1346.9 1793.4 1347.2C1793.4 1347.5 1793.22 1347.79 1792.93 1347.97L1698.97 1402.23C1698.97 1402.23 1698.67 1402.35 1698.49 1402.35H1698.55ZM1598.32 1342.54L1698.55 1400.44L1790.72 1347.2L1690.49 1289.3L1598.32 1342.54Z" fill="#02A894"/>
<path d="M1690.49 1300.76L1770.95 1347.2L1698.54 1388.98L1618.08 1342.54L1690.49 1300.76ZM1690.49 1296.58L1610.91 1342.54L1698.54 1393.15L1778.12 1347.2L1690.49 1296.58Z" fill="#003E42"/>
<path d="M1698.55 1474.39L1596.53 1415.48V1342.54L1698.55 1401.45V1474.39Z" fill="#003E42"/>
<path d="M1698.55 1475.28C1698.55 1475.28 1698.25 1475.28 1698.07 1475.17L1596.06 1416.25C1596.06 1416.25 1595.58 1415.78 1595.58 1415.48V1342.48C1595.58 1342.18 1595.76 1341.88 1596.06 1341.7C1596.35 1341.52 1596.65 1341.52 1596.95 1341.7L1698.97 1400.62C1698.97 1400.62 1699.45 1401.09 1699.45 1401.39V1474.39C1699.45 1474.69 1699.27 1474.99 1698.97 1475.17C1698.85 1475.22 1698.67 1475.28 1698.49 1475.28H1698.55ZM1597.43 1414.94L1697.65 1472.84V1401.93L1597.43 1344.03V1414.94Z" fill="#02A894"/>
<g style="mix-blend-mode:multiply" opacity="0.6">
<g style="mix-blend-mode:multiply" opacity="0.6">
<path d="M2091.87 1043.74L2083.75 1048.46V1033.9L2091.87 1029.18V1043.74ZM2107.93 1019.93L2099.81 1024.64V1039.21L2107.93 1034.49V1019.93ZM2123.98 1010.68L2115.87 1015.39V1029.96L2123.98 1025.24V1010.68ZM2140.04 1001.43L2131.92 1006.14V1020.71L2140.04 1015.99V1001.43ZM2156.1 992.175L2147.98 996.89V1011.45L2156.1 1006.74V992.175ZM2172.16 982.923L2164.04 987.638V1002.2L2172.16 997.487V982.923ZM2188.22 973.672L2180.1 978.387V992.951L2188.22 988.235V973.672ZM2204.27 964.42L2196.15 969.135V983.699L2204.27 978.984V964.42ZM2091.93 1071.98L2083.81 1076.69V1062.13L2091.93 1057.41V1071.98ZM2107.99 1048.16L2099.87 1052.88V1067.44L2107.99 1062.73V1048.16ZM2124.04 1038.91L2115.93 1043.63V1058.19L2124.04 1053.47V1038.91ZM2140.1 1029.66L2131.98 1034.37V1048.94L2140.1 1044.22V1029.66ZM2156.16 1020.41L2148.04 1025.12V1039.69L2156.16 1034.97V1020.41ZM2172.22 1011.16L2164.1 1015.87V1030.43L2172.22 1025.72V1011.16ZM2188.27 1001.9L2180.16 1006.62V1021.18L2188.27 1016.47V1001.9ZM2204.33 992.652L2196.21 997.368V1011.93L2204.33 1007.22V992.652ZM2091.99 1100.21L2083.87 1104.92V1090.36L2091.99 1085.65V1100.21ZM2108.05 1076.39L2099.93 1081.11V1095.67L2108.05 1090.96V1076.39ZM2124.1 1067.14L2115.99 1071.86V1086.42L2124.1 1081.71V1067.14ZM2140.16 1057.89L2132.04 1062.61V1077.17L2140.16 1072.45V1057.89ZM2156.22 1048.64L2148.1 1053.35V1067.92L2156.22 1063.2V1048.64ZM2172.28 1039.39L2164.16 1044.1V1058.67L2172.28 1053.95V1039.39ZM2188.33 1030.14L2180.22 1034.85V1049.42L2188.33 1044.7V1030.14ZM2204.39 1020.88L2196.27 1025.6V1040.16L2204.39 1035.45V1020.88ZM2092.05 1128.44L2083.93 1133.16V1118.59L2092.05 1113.88V1128.44ZM2108.11 1104.63L2099.99 1109.34V1123.91L2108.11 1119.19V1104.63ZM2124.16 1095.37L2116.05 1100.09V1114.65L2124.16 1109.94V1095.37ZM2140.22 1086.12L2132.1 1090.84V1105.4L2140.22 1100.69V1086.12ZM2156.28 1076.87L2148.16 1081.59V1096.15L2156.28 1091.44V1076.87ZM2172.34 1067.62L2164.22 1072.34V1086.9L2172.34 1082.18V1067.62ZM2188.39 1058.37L2180.28 1063.08V1077.65L2188.39 1072.93V1058.37ZM2204.45 1049.12L2196.33 1053.83V1068.4L2204.45 1063.68V1049.12ZM2092.11 1156.67L2083.99 1161.39V1146.83L2092.11 1142.11V1156.67ZM2108.17 1132.86L2100.05 1137.57V1152.14L2108.17 1147.42V1132.86ZM2124.22 1123.61L2116.11 1128.32V1142.89L2124.22 1138.17V1123.61ZM2140.28 1114.36L2132.16 1119.07V1133.63L2140.28 1128.92V1114.36ZM2156.34 1105.1L2148.22 1109.82V1124.38L2156.34 1119.67V1105.1ZM2172.4 1095.85L2164.28 1100.57V1115.13L2172.4 1110.42V1095.85ZM2188.45 1086.6L2180.34 1091.32V1105.88L2188.45 1101.16V1086.6ZM2204.51 1077.35L2196.39 1082.06V1096.63L2204.51 1091.91V1077.35ZM2092.17 1184.91L2084.05 1189.62V1175.06L2092.17 1170.34V1184.91ZM2108.23 1161.09L2100.11 1165.81V1180.37L2108.23 1175.65V1161.09ZM2124.28 1151.84L2116.16 1156.55V1171.12L2124.28 1166.4V1151.84ZM2140.34 1142.59L2132.22 1147.3V1161.87L2140.34 1157.15V1142.59ZM2156.4 1133.34L2148.28 1138.05V1152.61L2156.4 1147.9V1133.34ZM2172.46 1124.08L2164.34 1128.8V1143.36L2172.46 1138.65V1124.08ZM2188.51 1114.83L2180.4 1119.55V1134.11L2188.51 1129.4V1114.83ZM2204.57 1105.58L2196.45 1110.3V1124.86L2204.57 1120.14V1105.58ZM2092.23 1213.14L2084.11 1217.85V1203.29L2092.23 1198.57V1213.14ZM2108.29 1189.32L2100.17 1194.04V1208.6L2108.29 1203.89V1189.32ZM2124.34 1180.07L2116.22 1184.79V1199.35L2124.34 1194.64V1180.07ZM2140.4 1170.82L2132.28 1175.54V1190.1L2140.4 1185.38V1170.82ZM2156.46 1161.57L2148.34 1166.28V1180.85L2156.46 1176.13V1161.57ZM2172.52 1152.32L2164.4 1157.03V1171.6L2172.52 1166.88V1152.32ZM2188.57 1143.07L2180.46 1147.78V1162.34L2188.57 1157.63V1143.07ZM2204.63 1133.81L2196.51 1138.53V1153.09L2204.63 1148.38V1133.81Z" fill="#001D23"/>
</g>
<g style="mix-blend-mode:multiply" opacity="0.6">
<path d="M2057.43 1029.24L2065.55 1033.96V1048.52L2057.43 1043.8V1029.24ZM2041.37 1034.55L2049.49 1039.27V1024.7L2041.37 1019.99V1034.55ZM2025.31 1025.3L2033.43 1030.02V1015.45L2025.31 1010.74V1025.3ZM2009.26 1016.05L2017.38 1020.77V1006.2L2009.26 1001.49V1016.05ZM1993.2 1006.8L2001.32 1011.51V996.95L1993.2 992.234V1006.8ZM2057.43 1057.47L2065.55 1062.19V1076.75L2057.43 1072.04V1057.47ZM2041.37 1062.79L2049.49 1067.5V1052.94L2041.37 1048.22V1062.79ZM2025.31 1053.53L2033.43 1058.25V1043.69L2025.31 1038.97V1053.53ZM2009.26 1044.28L2017.38 1049V1034.43L2009.26 1029.72V1044.28ZM1993.2 1035.03L2001.32 1039.75V1025.18L1993.2 1020.47V1035.03ZM2057.43 1085.71L2065.55 1090.42V1104.98L2057.43 1100.27V1085.71ZM2041.37 1091.02L2049.49 1095.73V1081.17L2041.37 1076.45V1091.02ZM2025.31 1081.77L2033.43 1086.48V1071.92L2025.31 1067.2V1081.77ZM2009.26 1072.51L2017.38 1077.23V1062.67L2009.26 1057.95V1072.51ZM1993.2 1063.26L2001.32 1067.98V1053.41L1993.2 1048.7V1063.26ZM2057.43 1113.94L2065.55 1118.65V1133.22L2057.43 1128.5V1113.94ZM2041.37 1119.25L2049.49 1123.96V1109.4L2041.37 1104.69V1119.25ZM2025.31 1110L2033.43 1114.71V1100.15L2025.31 1095.43V1110ZM2009.26 1100.75L2017.38 1105.46V1090.9L2009.26 1086.18V1100.75ZM1993.2 1091.49L2001.32 1096.21V1081.65L1993.2 1076.93V1091.49ZM2057.43 1142.17L2065.55 1146.89V1161.45L2057.43 1156.73V1142.17ZM2041.37 1147.48L2049.49 1152.2V1137.63L2041.37 1132.92V1147.48ZM2025.31 1138.23L2033.43 1142.95V1128.38L2025.31 1123.67V1138.23ZM2009.26 1128.98L2017.38 1133.69V1119.13L2009.26 1114.41V1128.98ZM1993.2 1119.73L2001.32 1124.44V1109.88L1993.2 1105.16V1119.73ZM2057.43 1170.4L2065.55 1175.12V1189.68L2057.43 1184.97V1170.4ZM2041.37 1175.71L2049.49 1180.43V1165.87L2041.37 1161.15V1175.71ZM2025.31 1166.46L2033.43 1171.18V1156.61L2025.31 1151.9V1166.46ZM2009.26 1157.21L2017.38 1161.93V1147.36L2009.26 1142.65V1157.21ZM1993.2 1147.96L2001.32 1152.67V1138.11L1993.2 1133.4V1147.96ZM2057.43 1198.63L2065.55 1203.35V1217.91L2057.43 1213.2V1198.63ZM2041.37 1203.95L2049.49 1208.66V1194.1L2041.37 1189.38V1203.95ZM2025.31 1194.69L2033.43 1199.41V1184.85L2025.31 1180.13V1194.69ZM2009.26 1185.44L2017.38 1190.16V1175.59L2009.26 1170.88V1185.44ZM1993.2 1176.19L2001.32 1180.91V1166.34L1993.2 1161.63V1176.19Z" fill="#001D23"/>
</g>
</g>
<g style="mix-blend-mode:multiply" opacity="0.6">
<g style="mix-blend-mode:multiply" opacity="0.6">
<path d="M940.082 940.484L947.962 945.021V959.167L940.082 954.63V940.484ZM924.502 945.618L932.382 950.154V936.008L924.502 931.471V945.618ZM908.922 936.605L916.801 941.141V926.995L908.922 922.459V936.605ZM893.342 927.592L901.221 932.128V917.982L893.342 913.446V927.592ZM877.762 918.579L885.641 923.115V908.969L877.762 904.433V918.579ZM862.182 909.566L870.061 914.102V899.956L862.182 895.42V909.566ZM846.601 900.553L854.481 905.09V890.944L846.601 886.407V900.553ZM831.021 891.541L838.901 896.077V881.931L831.021 877.395V891.541ZM940.022 967.642L947.902 972.178V986.324L940.022 981.788V967.642ZM924.442 972.775L932.322 977.312V963.166L924.442 958.629V972.775ZM908.862 963.763L916.742 968.299V954.153L908.862 949.617V963.763ZM893.282 954.75L901.162 959.286V945.14L893.282 940.604V954.75ZM877.702 945.737L885.582 950.273V936.127L877.702 931.591V945.737ZM862.122 936.724L870.001 941.26V927.114L862.122 922.578V936.724ZM846.542 927.711L854.421 932.247V918.102L846.542 913.565V927.711ZM830.962 918.698L838.841 923.235V909.089L830.962 904.552V918.698ZM939.963 994.8L947.842 999.336V1013.48L939.963 1008.95V994.8ZM924.383 999.933L932.262 1004.47V990.323L924.383 985.787V999.933ZM908.803 990.92L916.682 995.457V981.311L908.803 976.774V990.92ZM893.222 981.908L901.102 986.444V972.298L893.222 967.762V981.908ZM877.642 972.895L885.522 977.431V963.285L877.642 958.749V972.895ZM862.062 963.882L869.942 968.418V954.272L862.062 949.736V963.882ZM846.482 954.869L854.362 959.405V945.259L846.482 940.723V954.869ZM830.902 945.856L838.782 950.393V936.247L830.902 931.71V945.856ZM939.903 1021.96L947.783 1026.49V1040.64L939.903 1036.1V1021.96ZM924.323 1027.09L932.203 1031.63V1017.48L924.323 1012.95V1027.09ZM908.743 1018.08L916.622 1022.61V1008.47L908.743 1003.93V1018.08ZM893.163 1009.07L901.042 1013.6V999.456L893.163 994.919V1009.07ZM877.583 1000.05L885.462 1004.59V990.443L877.583 985.907V1000.05ZM862.002 991.04L869.882 995.576V981.43L862.002 976.894V991.04ZM846.422 982.027L854.302 986.563V972.417L846.422 967.881V982.027ZM830.842 973.014L838.722 977.55V963.404L830.842 958.868V973.014ZM1048.78 1002.74L1056.66 1007.27V1021.42L1048.78 1016.88V1002.74ZM1033.2 1007.87L1041.08 1012.41V998.262L1033.2 993.726V1007.87ZM1017.62 998.859L1025.5 1003.4V989.249L1017.62 984.713V998.859ZM1002.04 989.846L1009.92 994.382V980.236L1002.04 975.7V989.846ZM986.464 980.833L994.344 985.369V971.223L986.464 966.687V980.833ZM970.884 971.82L978.764 976.357V962.211L970.884 957.674V971.82ZM955.304 962.807L963.184 967.344V953.198L955.304 948.662V962.807ZM1048.73 1029.9L1056.6 1034.43V1048.58L1048.73 1044.04V1029.9ZM1033.14 1035.03L1041.02 1039.57V1025.42L1033.14 1020.88V1035.03ZM1017.56 1026.02L1025.44 1030.55V1016.41L1017.56 1011.87V1026.02ZM1001.98 1017L1009.86 1021.54V1007.39L1001.98 1002.86V1017ZM986.405 1007.99L994.284 1012.53V998.381L986.405 993.845V1007.99ZM970.824 998.978L978.704 1003.51V989.369L970.824 984.832V998.978ZM955.244 989.965L963.124 994.502V980.356L955.244 975.819V989.965ZM1048.67 1057.05L1056.54 1061.59V1075.74L1048.67 1071.2V1057.05ZM1033.09 1062.19L1040.96 1066.72V1052.58L1033.09 1048.04V1062.19ZM1017.51 1053.17L1025.38 1057.71V1043.56L1017.51 1039.03V1053.17ZM1001.92 1044.16L1009.8 1048.7V1034.55L1001.92 1030.02V1044.16ZM986.345 1035.15L994.224 1039.69V1025.54L986.345 1021V1035.15ZM970.765 1026.14L978.644 1030.67V1016.53L970.765 1011.99V1026.14ZM955.185 1017.12L963.064 1021.66V1007.51L955.185 1002.98V1017.12ZM1048.61 1084.21L1056.49 1088.75V1102.89L1048.61 1098.36V1084.21ZM1033.03 1089.35L1040.91 1093.88V1079.74L1033.03 1075.2V1089.35ZM1017.45 1080.33L1025.33 1084.87V1070.72L1017.45 1066.19V1080.33ZM1001.87 1071.32L1009.74 1075.86V1061.71L1001.87 1057.17V1071.32ZM986.285 1062.31L994.165 1066.84V1052.7L986.285 1048.16V1062.31ZM970.705 1053.29L978.585 1057.83V1043.68L970.705 1039.15V1053.29ZM955.125 1044.28L963.005 1048.82V1034.67L955.125 1030.14V1044.28Z" fill="#001D23"/>
</g>
<g style="mix-blend-mode:multiply" opacity="0.6">
<path d="M1341.16 1173.5L1349.04 1178.04V1192.19L1341.16 1187.65V1173.5ZM1325.58 1178.64L1333.46 1183.17V1169.03L1325.58 1164.49V1178.64ZM1310 1169.63L1317.88 1174.16V1160.02L1310 1155.48V1169.63ZM1294.42 1160.61L1302.3 1165.15V1151L1294.42 1146.47V1160.61ZM1278.84 1151.6L1286.72 1156.14V1141.99L1278.84 1137.45V1151.6ZM1263.26 1142.59L1271.14 1147.12V1132.98L1263.26 1128.44V1142.59ZM1247.68 1133.57L1255.56 1138.11V1123.96L1247.68 1119.43V1133.57ZM1232.1 1124.56L1239.98 1129.1V1114.95L1232.1 1110.42V1124.56ZM1247.68 1160.85L1255.56 1165.39V1151.24L1247.68 1146.71V1160.85ZM1232.1 1151.84L1239.98 1156.37V1142.23L1232.1 1137.69V1151.84ZM1247.68 1188.13L1255.56 1192.66V1178.52L1247.68 1173.98V1188.13ZM1232.1 1179.12L1239.98 1183.65V1169.51L1232.1 1164.97V1179.12ZM1247.68 1215.41L1255.56 1219.94V1205.8L1247.68 1201.26V1215.41ZM1232.1 1206.39L1239.98 1210.93V1196.78L1232.1 1192.25V1206.39ZM1434.46 1241.25L1442.34 1245.79V1231.64L1434.46 1227.1V1241.25ZM1418.88 1232.24L1426.76 1236.77V1222.63L1418.88 1218.09V1232.24ZM1403.3 1223.22L1411.18 1227.76V1213.61L1403.3 1209.08V1223.22ZM1387.72 1214.21L1395.6 1218.75V1204.6L1387.72 1200.07V1214.21ZM1372.14 1205.2L1380.02 1209.74V1195.59L1372.14 1191.05V1205.2ZM1356.56 1196.19L1364.44 1200.72V1186.58L1356.56 1182.04V1196.19ZM1434.4 1268.47L1442.28 1273V1258.86L1434.4 1254.32V1268.47ZM1434.4 1295.8L1442.28 1300.34V1286.2L1434.4 1281.66V1295.8ZM1434.4 1323.14L1442.28 1327.68V1313.53L1434.4 1309V1323.14Z" fill="#001D23"/>
</g>
<g style="mix-blend-mode:multiply" opacity="0.6">
<path d="M1525.5 1275.09L1533.02 1270.73V1284.22L1525.5 1288.58V1275.09ZM1525.5 1236.47L1533.02 1232.12V1218.63L1525.5 1222.98V1236.47ZM1525.5 1210.45L1533.02 1206.09V1192.6L1525.5 1196.96V1210.45ZM1510.63 1219.04L1518.15 1214.69V1201.2L1510.63 1205.56V1219.04ZM1510.63 1271.09L1518.15 1266.74V1253.25L1510.63 1257.6V1271.09ZM1510.63 1245.07L1518.15 1240.71V1227.22L1510.63 1231.58V1245.07ZM1510.63 1297.12L1518.15 1292.76V1279.27L1510.63 1283.63V1297.12ZM1555.16 1271.39L1562.69 1267.03V1253.54L1555.16 1257.9V1271.39ZM1540.3 1201.85L1547.82 1197.5V1184.01L1540.3 1188.37V1201.85ZM1540.3 1227.88L1547.82 1223.52V1210.03L1540.3 1214.39V1227.88ZM1540.3 1279.93L1547.82 1275.57V1262.08L1540.3 1266.44V1279.93ZM1540.3 1253.9L1547.82 1249.55V1236.06L1540.3 1240.41V1253.9ZM1466.16 1244.65L1473.68 1240.29V1226.8L1466.16 1231.16V1244.65ZM1555.16 1245.37L1562.69 1241.01V1227.52L1555.16 1231.88V1245.37ZM1480.96 1288.22L1488.49 1283.87V1270.38L1480.96 1274.73V1288.22ZM1480.96 1314.25L1488.49 1309.89V1296.4L1480.96 1300.76V1314.25ZM1466.16 1270.73L1473.68 1266.38V1252.89L1466.16 1257.24V1270.73ZM1466.16 1322.78L1473.68 1318.42V1304.94L1466.16 1309.29V1322.78ZM1466.16 1296.76L1473.68 1292.4V1278.91L1466.16 1283.27V1296.76ZM1495.83 1253.6L1503.35 1249.25V1235.76L1495.83 1240.11V1253.6ZM1495.83 1227.58L1503.35 1223.22V1209.73L1495.83 1214.09V1227.58ZM1495.83 1279.63L1503.35 1275.27V1261.78L1495.83 1266.14V1279.63ZM1495.83 1305.65L1503.35 1301.29V1287.81L1495.83 1292.16V1305.65ZM1480.96 1236.12L1488.49 1231.76V1218.27L1480.96 1222.63V1236.12ZM1480.96 1262.14L1488.49 1257.78V1244.29L1480.96 1248.65V1262.14ZM1525.5 1262.5L1533.02 1258.14V1244.65L1525.5 1249.01V1262.5ZM1555.16 1219.34L1562.69 1214.99V1201.5L1555.16 1205.85V1219.34ZM1555.16 1193.32L1562.69 1188.96V1175.47L1555.16 1179.83V1193.32ZM1570.03 1184.72L1577.55 1180.37V1166.88L1570.03 1171.24V1184.72ZM1570.03 1262.86L1577.55 1258.5V1245.01L1570.03 1249.37V1262.86ZM1570.03 1210.81L1577.55 1206.45V1192.96L1570.03 1197.32V1210.81ZM1570.03 1236.83L1577.55 1232.47V1218.99L1570.03 1223.34V1236.83Z" fill="#001D23"/>
</g>
<g style="mix-blend-mode:multiply" opacity="0.6">
<path d="M1330.48 1297.95L1322.96 1293.6V1307.09L1330.48 1311.44V1297.95ZM1330.48 1271.93L1322.96 1267.57V1281.06L1330.48 1285.42V1271.93ZM1345.34 1280.53L1337.82 1276.17V1289.66L1345.34 1294.01V1280.53ZM1345.34 1306.55L1337.82 1302.19V1315.68L1345.34 1320.04V1306.55ZM1315.68 1263.39L1308.16 1259.04V1272.53L1315.68 1276.88V1263.39ZM1315.68 1289.42L1308.16 1285.06V1298.55L1315.68 1302.91V1289.42ZM1360.21 1315.14L1352.69 1310.79V1324.28L1360.21 1328.63V1315.14ZM1360.21 1289.12L1352.69 1284.76V1298.25L1360.21 1302.61V1289.12ZM1300.81 1280.88L1293.29 1276.53V1290.02L1300.81 1294.37V1280.88ZM1300.81 1254.86L1293.29 1250.5V1263.99L1300.81 1268.35V1254.86ZM1285.95 1246.26L1278.43 1241.91V1255.4L1285.95 1259.75V1246.26ZM1285.95 1272.29L1278.43 1267.93V1281.42L1285.95 1285.78V1272.29Z" fill="#001D23"/>
</g>
<g style="mix-blend-mode:multiply" opacity="0.6">
<path d="M1100.47 1013.49L1092.59 1018.02V1003.88L1100.47 999.34V1013.49ZM1116.05 990.386L1108.17 994.923V1009.07L1116.05 1004.53V990.386ZM1131.63 981.374L1123.75 985.91V1000.06L1131.63 995.52V981.374ZM1147.21 972.361L1139.33 976.897V991.043L1147.21 986.507V972.361ZM1162.79 963.348L1154.91 967.884V982.03L1162.79 977.494V963.348ZM1178.37 954.335L1170.49 958.871V973.017L1178.37 968.481V954.335ZM1193.95 945.322L1186.07 949.858V964.005L1193.95 959.468V945.322ZM1100.53 1040.7L1092.65 1045.24V1031.09L1100.53 1026.56V1040.7ZM1116.11 1017.6L1108.23 1022.14V1036.29L1116.11 1031.75V1017.6ZM1131.69 1008.59L1123.81 1013.13V1027.27L1131.69 1022.74V1008.59ZM1147.27 999.578L1139.39 1004.11V1018.26L1147.27 1013.72V999.578ZM1162.85 990.565L1154.97 995.102V1009.25L1162.85 1004.71V990.565ZM1178.43 981.553L1170.55 986.089V1000.23L1178.43 995.699V981.553ZM1194.01 972.54L1186.13 977.076V991.222L1194.01 986.686V972.54ZM1100.59 1067.92L1092.71 1072.46V1058.31L1100.59 1053.77V1067.92ZM1116.17 1044.82L1108.29 1049.36V1063.5L1116.17 1058.97V1044.82ZM1131.75 1035.81L1123.87 1040.34V1054.49L1131.75 1049.95V1035.81ZM1147.33 1026.8L1139.45 1031.33V1045.48L1147.33 1040.94V1026.8ZM1162.91 1017.78L1155.03 1022.32V1036.47L1162.91 1031.93V1017.78ZM1178.49 1008.77L1170.61 1013.31V1027.45L1178.49 1022.92V1008.77ZM1194.07 999.757L1186.19 1004.29V1018.44L1194.07 1013.9V999.757ZM1100.65 1095.14L1092.77 1099.67V1085.53L1100.65 1080.99V1095.14ZM1116.23 1072.04L1108.35 1076.58V1090.72L1116.23 1086.19V1072.04ZM1131.81 1063.03L1123.93 1067.56V1081.71L1131.81 1077.17V1063.03ZM1147.39 1054.01L1139.51 1058.55V1072.7L1147.39 1068.16V1054.01ZM1162.97 1045L1155.09 1049.54V1063.68L1162.97 1059.15V1045ZM1178.55 1035.99L1170.67 1040.52V1054.67L1178.55 1050.13V1035.99ZM1194.13 1026.97L1186.25 1031.51V1045.66L1194.13 1041.12V1026.97Z" fill="#001D23"/>
</g>
<g style="mix-blend-mode:multiply" opacity="0.6">
<path d="M1921.39 336.447L1931.3 330.717V974.448L1921.39 980.178V336.447ZM1943.06 967.703L1952.97 961.973V318.242L1943.06 323.972V967.703ZM1964.73 955.168L1974.64 949.438V305.708L1964.73 311.438V955.168ZM1986.4 942.634L1996.31 936.904V293.173L1986.4 298.903V942.634ZM2008.07 930.1L2017.97 924.37V280.698L2008.07 286.428V930.159V930.1ZM2029.73 273.834V917.565L2039.64 911.835V268.164L2029.73 273.894V273.834Z" fill="#001D23"/>
</g>
<g style="mix-blend-mode:multiply" opacity="0.6">
<path d="M1899.9 1207.59L1889.99 1201.86V330.776L1899.9 336.506V1207.59ZM1878.23 323.971L1868.32 318.241V1189.32L1878.23 1195.05V323.971ZM1856.56 311.437L1846.65 305.707V1176.85L1856.56 1182.58V311.437ZM1834.89 298.902L1824.98 293.172V1164.31L1834.89 1170.04V298.902ZM1813.22 286.368L1803.31 280.638V1151.78L1813.22 1157.51V286.368ZM1781.64 268.104V1139.24L1791.55 1144.97V273.893L1781.64 268.163V268.104Z" fill="#001D23"/>
</g>
<g style="mix-blend-mode:multiply" opacity="0.6">
<path d="M1929.93 1006.62L1921.81 1011.33V996.77L1929.93 992.055V1006.62ZM1945.98 982.803L1937.87 987.519V1002.08L1945.98 997.367V982.803ZM1962.04 973.552L1953.92 978.267V992.831L1962.04 988.116V973.552ZM1929.93 1034.79L1921.81 1039.51V1024.94L1929.93 1020.23V1034.79ZM1945.98 1010.98L1937.87 1015.69V1030.25L1945.98 1025.54V1010.98ZM1962.04 1001.72L1953.92 1006.44V1021L1962.04 1016.29V1001.72ZM1929.93 1062.96L1921.81 1067.68V1053.12L1929.93 1048.4V1062.96ZM1945.98 1039.15L1937.87 1043.86V1058.43L1945.98 1053.71V1039.15ZM1962.04 1029.9L1953.92 1034.61V1049.18L1962.04 1044.46V1029.9ZM1929.93 1091.14L1921.81 1095.85V1081.29L1929.93 1076.57V1091.14ZM1945.98 1067.32L1937.87 1072.04V1086.6L1945.98 1081.88V1067.32ZM1962.04 1058.07L1953.92 1062.78V1077.35L1962.04 1072.63V1058.07ZM1929.93 1119.31L1921.81 1124.02V1109.46L1929.93 1104.75V1119.31ZM1945.98 1095.49L1937.87 1100.21V1114.77L1945.98 1110.06V1095.49ZM1962.04 1086.24L1953.92 1090.96V1105.52L1962.04 1100.81V1086.24ZM1929.93 1147.48L1921.81 1152.2V1137.63L1929.93 1132.92V1147.48ZM1945.98 1123.67L1937.87 1128.38V1142.95L1945.98 1138.23V1123.67ZM1962.04 1114.41L1953.92 1119.13V1133.69L1962.04 1128.98V1114.41ZM1929.93 1175.65L1921.81 1180.37V1165.81L1929.93 1161.09V1175.65ZM1945.98 1151.84L1937.87 1156.55V1171.12L1945.98 1166.4V1151.84ZM1962.04 1142.59L1953.92 1147.3V1161.87L1962.04 1157.15V1142.59ZM1929.93 1203.89L1921.81 1208.6V1194.04L1929.93 1189.32V1203.89ZM1945.98 1180.07L1937.87 1184.79V1199.35L1945.98 1194.63V1180.07ZM1962.04 1170.82L1953.92 1175.53V1190.1L1962.04 1185.38V1170.82Z" fill="#001D23"/>
</g>
</g>
<path d="M1824.5 1179.17L1837.04 1171.95C1840.14 1170.16 1842.65 1171.23 1842.65 1174.34V1191.71C1842.65 1194.81 1845.16 1195.82 1848.26 1194.09L1865.63 1184.07C1868.74 1182.27 1871.24 1183.35 1871.24 1186.45V1198.99C1871.24 1202.09 1868.74 1206.03 1865.63 1207.82L1848.26 1217.85C1845.16 1219.64 1842.65 1223.58 1842.65 1226.68V1243.93C1842.65 1247.04 1840.14 1250.98 1837.04 1252.77L1818.89 1263.21V1188.12C1818.89 1185.02 1821.4 1181.08 1824.5 1179.29V1179.17Z" fill="#006058"/>
<path d="M1909.98 1115.48L1928.13 1105.04V1086.89C1928.13 1083.79 1925.62 1082.78 1922.52 1084.51L1909.98 1091.73C1906.88 1093.52 1904.37 1097.46 1904.37 1100.56V1113.1C1904.37 1116.2 1906.88 1117.22 1909.98 1115.48Z" fill="white"/>
<path d="M1974.04 1267.39L1992.18 1256.95V1238.8C1992.18 1235.7 1989.68 1234.68 1986.57 1236.41L1974.04 1243.63C1970.93 1245.43 1968.43 1249.36 1968.43 1252.47V1265C1968.43 1268.11 1970.93 1269.12 1974.04 1267.39Z" fill="#48CA2D"/>
<path d="M1881.51 1231.76L1899.65 1221.31V1239.46C1899.65 1242.56 1897.15 1246.5 1894.04 1248.29L1881.51 1255.51C1878.4 1257.3 1875.9 1256.23 1875.9 1253.13V1240.59C1875.9 1237.49 1878.4 1233.55 1881.51 1231.76Z" fill="#00C8B5"/>
<path d="M1822.89 1376.5L1841.04 1366.06V1347.91C1841.04 1344.81 1838.53 1343.79 1835.43 1345.52L1822.89 1352.75C1819.79 1354.54 1817.28 1358.48 1817.28 1361.58V1374.11C1817.28 1377.22 1819.79 1378.23 1822.89 1376.5Z" fill="white"/>
<path d="M1852.98 1257.66L1871.13 1247.21V1229.07C1871.13 1225.97 1868.62 1224.95 1865.52 1226.68L1852.98 1233.9C1849.88 1235.69 1847.37 1239.63 1847.37 1242.74V1255.27C1847.37 1258.38 1849.88 1259.39 1852.98 1257.66Z" fill="#48CA2D"/>
<path d="M1910.04 1243.75L1927.35 1233.72C1930.45 1231.93 1932.96 1227.99 1932.96 1224.89V1207.52C1932.96 1204.42 1935.47 1200.48 1938.57 1198.69L1951.11 1191.47C1954.21 1189.67 1956.72 1190.75 1956.72 1193.85V1234.92C1956.72 1238.02 1954.21 1241.96 1951.17 1243.75L1933.8 1253.78C1930.69 1255.57 1928.19 1259.51 1928.19 1262.55V1279.92C1928.19 1283.03 1925.68 1286.97 1922.58 1288.76L1904.43 1299.2V1252.53C1904.43 1249.42 1906.94 1245.48 1910.04 1243.69V1243.75Z" fill="white"/>
<path d="M1852.98 1124.68L1865.52 1117.45C1868.62 1115.66 1871.13 1116.74 1871.13 1119.84V1137.21C1871.13 1140.31 1873.63 1141.33 1876.74 1139.6L1922.58 1113.1C1925.69 1111.31 1928.19 1112.38 1928.19 1115.48V1133.63L1905.27 1146.88C1902.17 1148.67 1899.66 1152.61 1899.66 1155.71V1173.08C1899.66 1176.19 1897.15 1180.13 1894.05 1181.92L1881.51 1189.14C1878.41 1190.93 1875.9 1189.85 1875.9 1186.75V1169.38C1875.9 1166.28 1873.39 1165.26 1870.29 1166.99L1852.98 1177.02C1849.88 1178.81 1847.37 1177.74 1847.37 1174.69V1133.57C1847.37 1130.47 1849.88 1126.53 1852.98 1124.74V1124.68Z" fill="#00C8B5"/>
<path d="M1961.51 1189.5V1142.82L1979.65 1132.38C1982.76 1130.59 1985.27 1131.66 1985.27 1134.77V1152.13C1985.27 1155.24 1987.77 1156.25 1990.88 1154.52L2008.25 1144.49C2011.35 1142.7 2013.86 1143.78 2013.86 1146.88V1187.95C2013.86 1191.05 2011.35 1194.99 2008.25 1196.78L1995.71 1204C1992.61 1205.79 1990.1 1204.72 1990.1 1201.62V1184.25C1990.1 1181.14 1987.59 1180.13 1984.49 1181.86L1967.18 1191.89C1964.07 1193.68 1961.57 1192.6 1961.57 1189.56L1961.51 1189.5Z" fill="#00C8B5"/>
<path d="M1932.97 1084.09C1932.97 1080.98 1935.48 1077.05 1938.58 1075.25L1951.12 1068.03C1954.22 1066.24 1956.73 1067.32 1956.73 1070.42V1087.79C1956.73 1090.89 1959.24 1091.91 1962.34 1090.18L2008.19 1063.68C2011.29 1061.88 2013.8 1062.96 2013.8 1066.06V1107.13V1112.74L1995.65 1123.18C1992.55 1124.97 1990.04 1123.9 1990.04 1120.8V1103.43C1990.04 1100.32 1987.53 1099.31 1984.43 1101.04L1938.58 1127.54C1935.48 1129.33 1932.97 1128.26 1932.97 1125.15V1084.09Z" fill="#006058"/>
<path d="M1938.52 1070.48L1979.59 1046.78C1982.69 1044.99 1985.2 1041.05 1985.2 1037.95V1025.42C1985.2 1022.31 1982.69 1021.3 1979.59 1023.03L1932.91 1049.95V1068.09C1932.91 1071.2 1935.42 1072.21 1938.52 1070.48Z" fill="#48CA2D"/>
<path d="M1847.8 1341.46L1847.44 1287.27C1847.44 1283.21 1849.83 1278.43 1852.87 1276.7L1865.23 1269.42C1868.27 1267.63 1870.78 1269.48 1870.78 1273.54L1871.2 1335.08L1853.35 1345.58C1850.3 1347.37 1847.8 1345.52 1847.8 1341.46Z" fill="#48CA2D"/>
<path d="M2128.97 393.499V375.354L2147.12 364.909C2150.23 363.118 2152.73 364.193 2152.73 367.296V379.831C2152.73 382.934 2150.23 386.874 2147.12 388.664L2134.59 395.887C2131.48 397.677 2128.97 396.603 2128.97 393.499Z" fill="white"/>
<path d="M2038.66 483.628V465.483L2020.51 475.929C2017.41 477.719 2014.9 481.659 2014.9 484.762V497.297C2014.9 500.401 2017.41 501.415 2020.51 499.684L2033.05 492.462C2036.15 490.672 2038.66 486.732 2038.66 483.628Z" fill="#48CA2D"/>
<path d="M2043.43 555.957V537.812L2061.58 527.367C2064.69 525.576 2067.19 526.651 2067.19 529.754V542.289C2067.19 545.392 2064.69 549.332 2061.58 551.122L2049.05 558.345C2045.94 560.135 2043.43 559.061 2043.43 555.957Z" fill="#006058"/>
<path d="M2007.85 650.512V632.367L2026 621.921C2029.11 620.131 2031.61 621.205 2031.61 624.309V636.843C2031.61 639.947 2029.11 643.887 2026 645.677L2013.47 652.899C2010.36 654.69 2007.85 653.616 2007.85 650.512Z" fill="#006058"/>
<path d="M2152.73 532.987V551.132L2134.59 561.577C2131.48 563.368 2128.97 562.293 2128.97 559.19V546.655C2128.97 543.551 2131.48 539.612 2134.59 537.821L2147.12 530.599C2150.23 528.809 2152.73 529.883 2152.73 532.987Z" fill="#48CA2D"/>
<path d="M2152.73 817.34V835.485L2134.59 845.931C2131.48 847.721 2128.97 846.647 2128.97 843.543V831.009C2128.97 827.905 2131.48 823.966 2134.59 822.175L2147.12 814.953C2150.23 813.162 2152.73 814.236 2152.73 817.34Z" fill="white"/>
<path d="M2122.46 239.743V257.888L2104.32 268.333C2101.21 270.124 2098.7 269.049 2098.7 265.945V253.411C2098.7 250.307 2101.21 246.368 2104.32 244.577L2116.85 237.355C2119.96 235.564 2122.46 236.639 2122.46 239.743Z" fill="#006058"/>
<path d="M2110.59 433.547V451.692L2092.44 462.138C2089.34 463.928 2086.83 462.854 2086.83 459.75V447.216C2086.83 444.112 2089.34 440.173 2092.44 438.382L2104.98 431.16C2108.08 429.369 2110.59 430.443 2110.59 433.547Z" fill="#006058"/>
<path d="M2157.51 348.496V307.431C2157.51 304.327 2160.01 300.387 2163.12 298.597L2175.65 291.375C2178.76 289.584 2181.26 290.658 2181.26 293.762V340.438L2163.12 350.883C2160.01 352.674 2157.51 351.599 2157.51 348.496Z" fill="#006058"/>
<path d="M2158.28 282.36L2175.65 272.332C2178.76 270.542 2181.27 266.602 2181.27 263.498V250.964C2181.27 247.86 2178.76 246.846 2175.65 248.577L2134.59 272.273C2131.48 274.063 2128.97 278.003 2128.97 281.106V322.171C2128.97 325.275 2131.48 326.29 2134.59 324.559L2152.73 314.114V291.194C2152.73 288.09 2155.24 284.15 2158.34 282.419L2158.28 282.36Z" fill="#48CA2D"/>
<path d="M2015.73 798.956L2033.1 788.928C2036.2 787.137 2038.71 783.198 2038.71 780.094V767.56C2038.71 764.456 2036.2 763.441 2033.1 765.172L1992.03 788.868C1988.93 790.659 1986.42 794.598 1986.42 797.702V838.767C1986.42 841.871 1988.93 842.886 1992.03 841.155L2010.18 830.709V807.789C2010.18 804.685 2012.68 800.746 2015.79 799.015L2015.73 798.956Z" fill="#48CA2D"/>
<path d="M2038.65 417.314V400.004C2038.65 396.9 2041.16 392.961 2044.27 391.17L2061.64 381.143C2064.74 379.352 2067.25 375.413 2067.25 372.309V359.775C2067.25 356.671 2064.74 355.656 2061.64 357.387L2020.57 381.083C2017.46 382.874 2014.96 386.813 2014.96 389.917V407.286C2014.96 410.39 2012.45 414.329 2009.34 416.06L1991.97 426.088C1988.87 427.878 1986.36 431.818 1986.36 434.921V453.066L2033.04 426.147C2036.15 424.357 2038.65 420.417 2038.65 417.314Z" fill="#006058"/>
<path d="M2038.65 540.686V499.621C2038.65 496.517 2036.15 495.502 2033.1 497.233L2015.73 507.261C2012.63 509.051 2010.12 507.977 2010.12 504.873V487.504C2010.12 484.4 2007.61 483.386 2004.51 485.117L1986.36 495.562V542.238C1986.36 545.341 1988.87 546.356 1991.97 544.625L2009.34 534.598C2012.45 532.807 2014.96 533.881 2014.96 536.985V554.295C2014.96 557.398 2017.46 558.413 2020.57 556.682L2033.1 549.46C2036.21 547.669 2038.71 543.73 2038.71 540.626L2038.65 540.686Z" fill="#006058"/>
<path d="M2181.26 389.977C2181.26 386.873 2178.76 385.858 2175.65 387.589L2163.12 394.811C2160.01 396.602 2157.5 400.541 2157.5 403.645V420.955C2157.5 424.058 2155 427.998 2151.89 429.788L2134.52 439.816C2131.42 441.607 2128.91 445.546 2128.91 448.65V461.184C2128.91 464.288 2131.42 465.303 2134.52 463.572L2151.89 453.544C2155 451.753 2157.5 452.828 2157.5 455.932V501.772C2157.5 504.875 2160.01 505.89 2163.12 504.159L2181.26 493.714V389.977Z" fill="#00C8B5"/>
<path d="M2048.98 354.941L2095.66 327.962V309.817C2095.66 306.713 2093.16 305.699 2090.05 307.429L2072.68 317.457C2069.58 319.248 2067.07 318.173 2067.07 315.07V297.7C2067.07 294.597 2064.56 293.582 2061.46 295.313L2020.39 319.009C2017.29 320.8 2014.78 324.739 2014.78 327.783V340.317C2014.78 343.421 2017.29 344.436 2020.39 342.705L2037.76 332.677C2040.86 330.887 2043.37 331.961 2043.37 335.065V352.434C2043.37 355.538 2045.82 356.612 2048.92 354.821L2048.98 354.941Z" fill="#00C8B5"/>
<path d="M2095.73 371.653C2095.73 368.549 2093.22 367.534 2090.11 369.265L2077.58 376.487C2074.48 378.278 2071.97 382.217 2071.97 385.321V402.69C2071.97 405.794 2069.46 409.733 2066.36 411.524L2048.99 421.551C2045.88 423.342 2043.37 427.281 2043.37 430.385V471.45C2043.37 474.554 2045.88 475.569 2048.99 473.838L2067.13 463.392V440.472C2067.13 437.369 2069.64 433.429 2072.74 431.698L2090.06 421.73C2093.16 419.94 2095.67 416 2095.67 412.897V371.772L2095.73 371.653Z" fill="#48CA2D"/>
<path d="M2088.74 693.131V675.821C2088.74 672.718 2091.25 668.778 2094.35 666.988L2111.72 656.96C2114.82 655.17 2117.33 651.23 2117.33 648.126V635.592C2117.33 632.488 2114.82 631.474 2111.72 633.205L2070.65 656.901C2067.55 658.691 2065.04 662.631 2065.04 665.734V683.103C2065.04 686.207 2062.53 690.147 2059.43 691.877L2042.06 701.905C2038.95 703.696 2036.45 707.635 2036.45 710.739V728.884L2083.13 701.965C2086.23 700.174 2088.74 696.235 2088.74 693.131Z" fill="#00C8B5"/>
<path d="M2099.06 630.756L2145.74 603.777V585.632C2145.74 582.529 2143.24 581.514 2140.13 583.245L2122.76 593.272C2119.66 595.063 2117.15 593.989 2117.15 590.885V573.516C2117.15 570.412 2114.64 569.397 2111.54 571.128L2070.47 594.824C2067.37 596.615 2064.86 600.554 2064.86 603.598V616.133C2064.86 619.237 2067.37 620.251 2070.47 618.52L2087.84 608.493C2090.95 606.702 2093.45 607.777 2093.45 610.88V628.249C2093.45 631.353 2095.9 632.428 2099 630.637L2099.06 630.756Z" fill="white"/>
<path d="M2145.75 647.47C2145.75 644.366 2143.24 643.352 2140.14 645.082L2127.6 652.305C2124.5 654.095 2121.99 658.035 2121.99 661.138V678.508C2121.99 681.611 2119.48 685.551 2116.38 687.341L2099.01 697.369C2095.91 699.159 2093.4 703.099 2093.4 706.203V747.268C2093.4 750.371 2095.91 751.386 2099.01 749.655L2117.16 739.21V716.29C2117.16 713.186 2119.66 709.247 2122.77 707.516L2140.08 697.548C2143.18 695.757 2145.69 691.818 2145.69 688.714V647.589L2145.75 647.47Z" fill="#006058"/>
<path d="M1503.45 881.768L1490.92 888.99C1487.81 890.781 1485.3 894.72 1485.3 897.824V915.193C1485.3 918.297 1482.8 922.236 1479.69 924.027L1462.32 934.054C1459.22 935.845 1456.71 939.784 1456.71 942.888V955.422C1456.71 958.526 1459.22 959.541 1462.32 957.81L1479.69 947.782C1482.8 945.992 1485.3 947.066 1485.3 950.17V967.42C1485.3 970.523 1487.81 971.538 1490.92 969.807L1509.06 959.362V884.275C1509.06 881.171 1506.55 880.156 1503.45 881.887V881.768Z" fill="#006058"/>
<path d="M1394.87 1138.36V1125.83C1394.87 1122.73 1392.36 1121.71 1389.26 1123.44L1371.89 1133.47C1368.78 1135.26 1366.28 1134.18 1366.28 1131.08V1113.71C1366.28 1110.61 1363.77 1109.59 1360.66 1111.32L1348.13 1118.55C1345.02 1120.34 1342.52 1124.28 1342.52 1127.38V1144.75C1342.52 1147.85 1340.01 1151.79 1336.91 1153.58L1319.65 1163.55C1316.55 1165.34 1314.04 1169.28 1314.04 1172.39V1190.53L1342.46 1174.12L1350.58 1169.4L1389.08 1147.14C1392.18 1145.35 1394.69 1141.41 1394.69 1138.3L1394.87 1138.36Z" fill="#48CA2D"/>
<path d="M1455.52 882.311L1437.37 892.756V874.611C1437.37 871.507 1439.88 867.568 1442.98 865.778L1455.52 858.555C1458.62 856.765 1461.13 857.839 1461.13 860.943V873.477C1461.13 876.581 1458.62 880.52 1455.52 882.311Z" fill="white"/>
<path d="M1446.45 1009.68L1428.3 1020.12V1038.27C1428.3 1041.37 1430.81 1042.39 1433.91 1040.66L1446.45 1033.43C1449.55 1031.64 1452.06 1027.7 1452.06 1024.6V1012.06C1452.06 1008.96 1449.55 1007.95 1446.45 1009.68Z" fill="#48CA2D"/>
<path d="M1503.46 1029.02L1485.31 1039.46V1021.32C1485.31 1018.21 1487.82 1014.27 1490.92 1012.48L1503.46 1005.26C1506.56 1003.47 1509.07 1004.54 1509.07 1007.65V1020.18C1509.07 1023.29 1506.56 1027.23 1503.46 1029.02Z" fill="white"/>
<path d="M1389.38 880.094L1348.31 903.79C1345.2 905.581 1342.69 904.506 1342.69 901.402V888.868C1342.69 885.764 1345.2 881.825 1348.31 880.034L1394.99 853.115V871.26C1394.99 874.364 1392.48 878.303 1389.38 880.094Z" fill="#006058"/>
<path d="M1337.92 1044.54V1085.6C1337.92 1088.7 1335.41 1092.64 1332.31 1094.43L1319.77 1101.66C1316.67 1103.45 1314.16 1102.37 1314.16 1099.27V1052.59L1332.31 1042.15C1335.41 1040.36 1337.92 1041.43 1337.92 1044.54Z" fill="#006058"/>
<path d="M1417.91 1035.64L1400.6 1045.67C1397.5 1047.46 1394.99 1046.39 1394.99 1043.28V1025.91C1394.99 1022.81 1392.48 1021.79 1389.38 1023.52L1376.84 1030.75C1373.74 1032.54 1371.23 1036.48 1371.23 1039.58V1080.65C1371.23 1083.75 1373.74 1084.76 1376.78 1083.03L1394.15 1073.01C1397.26 1071.22 1399.76 1072.29 1399.76 1075.39V1092.76C1399.76 1095.87 1402.27 1096.88 1405.38 1095.15L1423.52 1084.7V1038.03C1423.52 1034.93 1421.02 1033.91 1417.91 1035.64Z" fill="white"/>
<path d="M1376.84 983.356C1373.74 985.146 1371.23 989.086 1371.23 992.13V1004.66C1371.23 1007.77 1373.74 1008.78 1376.84 1007.05L1394.21 997.024C1397.32 995.234 1399.82 996.308 1399.82 999.412V1016.78C1399.82 1019.88 1402.33 1020.9 1405.44 1019.17L1446.5 995.472C1449.61 993.682 1452.12 989.742 1452.12 986.639V968.494L1429.19 981.744C1426.09 983.535 1423.58 982.461 1423.58 979.357V961.988C1423.58 958.884 1421.13 957.81 1418.03 959.6L1376.9 983.356H1376.84Z" fill="#48CA2D"/>
<path d="M1394.92 911.909C1394.92 908.806 1392.42 907.791 1389.31 909.522L1376.78 916.744C1373.67 918.535 1371.17 922.474 1371.17 925.578V942.947C1371.17 946.051 1368.66 949.99 1365.55 951.781L1319.71 978.282C1316.61 980.073 1314.1 984.012 1314.1 987.116V1028.18V1033.79L1332.25 1023.35C1335.35 1021.56 1337.86 1017.62 1337.86 1014.57V997.203C1337.86 994.099 1340.36 990.16 1343.47 988.369L1389.31 961.868C1392.42 960.077 1394.92 956.138 1394.92 953.034V911.969V911.909Z" fill="#00C8B5"/>
</g>
</svg>
