<svg width="1440" height="696" viewBox="0 0 1440 696" fill="none" xmlns="http://www.w3.org/2000/svg">
<mask id="mask0_820_10517" style="mask-type:alpha" maskUnits="userSpaceOnUse" x="0" y="0" width="1440" height="696">
<rect y="0.68457" width="1440" height="695" fill="#003E42"/>
</mask>
<g mask="url(#mask0_820_10517)">
<path d="M896.092 613.965L1164.96 769.159L1281.39 701.957L1012.53 546.734L896.092 613.965Z" fill="#034F51"/>
<path d="M1687 692.698L1524.66 599.309L1372.23 687.301L1535.4 781.514L1687 692.698Z" fill="#034F51"/>
<path d="M1491.88 580.45L1222.54 425.511L1070.65 513.191L1339.51 668.414L1491.88 580.45Z" fill="#034F51"/>
<path d="M979.804 527.847L834.337 443.888L719.633 512.112L863.368 595.077L979.804 527.847Z" fill="#034F51"/>
<path d="M1037.92 494.303L1189.75 406.651L1040.9 321.016L891.572 409.832L1037.92 494.303Z" fill="#034F51"/>
<path d="M1502.88 671.284L1457.2 644.926L1406.07 674.437L1451.72 700.823L1502.88 671.284Z" fill="#02A894"/>
<path d="M1451.72 701.248C1451.72 701.248 1451.57 701.248 1451.49 701.191L1405.81 674.833C1405.81 674.833 1405.59 674.606 1405.59 674.464C1405.59 674.322 1405.67 674.18 1405.81 674.095L1456.94 644.584C1456.94 644.584 1457.23 644.499 1457.37 644.584L1503.05 670.942C1503.05 670.942 1503.27 671.169 1503.27 671.311C1503.27 671.453 1503.19 671.595 1503.05 671.68L1451.92 701.191C1451.92 701.191 1451.77 701.248 1451.69 701.248H1451.72ZM1406.89 674.464L1451.72 700.339L1502 671.311L1457.17 645.436L1406.89 674.464V674.464Z" fill="#02A894"/>
<path d="M1457.2 650.862L1492.59 671.312L1451.72 694.915L1416.32 674.465L1457.2 650.862ZM1457.2 648.874L1412.91 674.437L1451.75 696.847L1496.03 671.284L1457.2 648.874V648.874Z" fill="#003E42"/>
<path d="M1451.72 719.796L1406.07 693.41V674.437L1451.72 700.823V719.796Z" fill="#003E42"/>
<path d="M1451.72 720.222C1451.72 720.222 1451.58 720.222 1451.49 720.165L1405.81 693.807C1405.81 693.807 1405.59 693.58 1405.59 693.438V674.464C1405.59 674.322 1405.67 674.18 1405.81 674.095C1405.95 674.01 1406.1 674.01 1406.24 674.095L1451.92 700.453C1451.92 700.453 1452.14 700.68 1452.14 700.822V719.796C1452.14 719.938 1452.06 720.08 1451.92 720.165C1451.86 720.193 1451.77 720.222 1451.69 720.222H1451.72ZM1406.47 693.182L1451.29 719.057V701.078L1406.47 675.203V693.182V693.182Z" fill="#02A894"/>
<path d="M961.17 466.752L840.075 396.852L774.202 434.883L895.297 504.783L961.17 466.752Z" fill="#02A894"/>
<path d="M895.294 505.209C895.294 505.209 895.152 505.209 895.067 505.152L773.972 435.252C773.972 435.252 773.745 435.025 773.745 434.883C773.745 434.741 773.83 434.599 773.972 434.514L839.846 396.482C839.846 396.482 840.13 396.397 840.272 396.482L961.367 466.382C961.367 466.382 961.594 466.609 961.594 466.751C961.594 466.893 961.509 467.035 961.367 467.121L895.493 505.152C895.493 505.152 895.351 505.209 895.266 505.209H895.294ZM775.08 434.883L895.294 504.3L960.316 466.78L840.101 397.363L775.08 434.883Z" fill="#02A894"/>
<path d="M840.076 402.789L950.888 466.753L895.297 498.848L784.485 434.884L840.076 402.789ZM840.076 400.801L781.048 434.884L895.269 500.836L954.297 466.753L840.076 400.801Z" fill="#003E42"/>
<path d="M895.297 565.367L774.202 495.467V434.883L895.297 504.783V565.367Z" fill="#003E42"/>
<path d="M895.294 565.793C895.294 565.793 895.152 565.793 895.067 565.736L773.972 495.836C773.972 495.836 773.745 495.609 773.745 495.467V434.855C773.745 434.713 773.83 434.571 773.972 434.486C774.114 434.401 774.256 434.401 774.398 434.486L895.493 504.386C895.493 504.386 895.72 504.613 895.72 504.755V565.367C895.72 565.509 895.635 565.651 895.493 565.736C895.436 565.765 895.351 565.793 895.266 565.793H895.294ZM774.654 495.212L894.868 564.629V505.011L774.654 435.594V495.212Z" fill="#02A894"/>
<path d="M961.169 527.337L895.295 565.368V504.785L961.169 466.753V527.337Z" fill="#003E42"/>
<path d="M895.296 565.624C895.098 565.539 895.041 565.453 895.041 565.368V504.756C895.041 504.756 895.098 504.585 895.154 504.529L961.028 466.497C961.028 466.497 961.199 466.44 961.284 466.497C961.369 466.554 961.397 466.639 961.397 466.724V527.336C961.397 527.336 961.341 527.507 961.284 527.564L895.41 565.595C895.41 565.595 895.325 565.624 895.268 565.624H895.296ZM895.552 504.926V564.942L960.914 527.194V467.179L895.552 504.898V504.926Z" fill="#02A894"/>
<path d="M941.786 331.996V323.362L950.422 318.391C951.899 317.539 953.092 318.05 953.092 319.527V325.492C953.092 326.969 951.899 328.843 950.422 329.695L944.457 333.132C942.98 333.984 941.786 333.473 941.786 331.996Z" fill="white"/>
<path d="M898.81 374.884V366.249L890.174 371.22C888.697 372.072 887.504 373.946 887.504 375.423V381.388C887.504 382.865 888.697 383.348 890.174 382.524L896.14 379.087C897.617 378.235 898.81 376.361 898.81 374.884Z" fill="#48CA2D"/>
<path d="M901.077 398.884V390.249L909.713 385.279C911.19 384.427 912.383 384.938 912.383 386.415V392.379C912.383 393.856 911.19 395.731 909.713 396.583L903.747 400.02C902.27 400.872 901.077 400.361 901.077 398.884Z" fill="#006058"/>
<path d="M885.352 331.05V322.415L893.988 317.445C895.465 316.593 896.658 317.104 896.658 318.581V324.545C896.658 326.022 895.465 327.897 893.988 328.749L888.023 332.186C886.545 333.038 885.352 332.527 885.352 331.05Z" fill="#006058"/>
<path d="M938.688 282.076V290.71L930.053 295.681C928.576 296.533 927.382 296.022 927.382 294.545V288.58C927.382 287.103 928.576 285.229 930.053 284.377L936.018 280.94C937.495 280.088 938.688 280.599 938.688 282.076Z" fill="#006058"/>
<path d="M933.037 351.053V359.688L924.401 364.659C922.924 365.511 921.731 364.999 921.731 363.522V357.558C921.731 356.081 922.924 354.206 924.401 353.354L930.367 349.917C931.844 349.065 933.037 349.577 933.037 351.053Z" fill="#006058"/>
<path d="M942.072 418.868V399.326C942.072 397.849 943.265 395.975 944.742 395.123L950.708 391.686C952.185 390.834 953.378 391.345 953.378 392.822V415.033L944.742 420.004C943.265 420.856 942.072 420.345 942.072 418.868Z" fill="#48CA2D"/>
<path d="M898.807 412.83V393.289C898.807 391.812 897.614 391.329 896.165 392.153L887.899 396.925C886.422 397.777 885.229 397.266 885.229 395.789V387.523C885.229 386.046 884.036 385.563 882.558 386.387L873.923 391.358V413.569C873.923 415.046 875.116 415.529 876.593 414.705L884.859 409.933C886.336 409.081 887.53 409.592 887.53 411.069V419.306C887.53 420.783 888.723 421.266 890.2 420.442L896.165 417.006C897.642 416.154 898.835 414.279 898.835 412.802L898.807 412.83Z" fill="white"/>
<path d="M966.668 330.291C966.668 328.814 965.475 328.331 963.998 329.155L958.033 332.592C956.555 333.444 955.362 335.318 955.362 336.795V345.032C955.362 346.509 954.169 348.384 952.692 349.236L944.426 354.007C942.949 354.86 941.756 356.734 941.756 358.211V364.176C941.756 365.653 942.949 366.136 944.426 365.312L952.692 360.54C954.169 359.688 955.362 360.199 955.362 361.676V383.49C955.362 384.967 956.555 385.45 958.033 384.626L966.668 379.655V330.319V330.291Z" fill="#00C8B5"/>
<path d="M925.936 321.571C925.936 320.094 924.743 319.611 923.266 320.435L917.301 323.872C915.824 324.724 914.631 326.598 914.631 328.075V336.341C914.631 337.818 913.438 339.692 911.961 340.544L903.694 345.316C902.217 346.168 901.024 348.043 901.024 349.52V369.061C901.024 370.538 902.217 371.021 903.694 370.197L912.33 365.227V354.32C912.33 352.843 913.523 350.968 915 350.145L923.238 345.401C924.715 344.549 925.908 342.675 925.908 341.198V321.628L925.936 321.571Z" fill="#00C8B5"/>
<path d="M1137.26 347.686L1062.21 304.343L961.224 362.626L1036.27 405.969L1137.26 347.686Z" fill="#02A894"/>
<path d="M1036.27 406.396C1036.27 406.396 1036.13 406.396 1036.05 406.339L960.968 362.996C960.968 362.996 960.741 362.769 960.741 362.627C960.741 362.485 960.826 362.343 960.968 362.258L1061.95 303.974C1061.95 303.974 1062.24 303.889 1062.38 303.974L1137.46 347.318C1137.46 347.318 1137.68 347.545 1137.68 347.687C1137.68 347.829 1137.6 347.971 1137.46 348.056L1036.47 406.339C1036.47 406.339 1036.33 406.396 1036.24 406.396H1036.27ZM962.076 362.627L1036.27 405.459L1136.4 347.658L1062.21 304.826L962.076 362.627Z" fill="#02A894"/>
<path d="M1062.21 310.281L1127 347.688L1036.3 400.063L971.507 362.657L1062.21 310.281ZM1062.21 308.293L968.07 362.628L1036.27 401.995L1130.41 347.66L1062.21 308.293V308.293Z" fill="#003E42"/>
<path d="M1036.27 480.586L961.224 437.271V362.628L1036.27 405.971V480.586Z" fill="#003E42"/>
<path d="M1036.27 481.04C1036.27 481.04 1036.13 481.04 1036.05 480.983L960.968 437.64C960.968 437.64 960.741 437.413 960.741 437.271V362.656C960.741 362.514 960.826 362.372 960.968 362.287C961.11 362.201 961.252 362.201 961.394 362.287L1036.47 405.63C1036.47 405.63 1036.7 405.857 1036.7 405.999V480.642C1036.7 480.784 1036.61 480.926 1036.47 481.011C1036.41 481.04 1036.33 481.068 1036.24 481.068L1036.27 481.04ZM961.65 437.015L1035.85 479.847V406.198L961.65 363.366V437.015Z" fill="#02A894"/>
<path d="M1137.26 422.302L1036.27 480.586V405.971L1137.26 347.688V422.302Z" fill="#003E42"/>
<path d="M1036.27 480.869C1036.08 480.784 1036.02 480.699 1036.02 480.613V405.97C1036.02 405.97 1036.08 405.8 1036.13 405.743L1137.12 347.46C1137.12 347.46 1137.29 347.403 1137.37 347.46C1137.46 347.517 1137.49 347.602 1137.49 347.687V422.302C1137.49 422.302 1137.43 422.472 1137.37 422.529L1036.39 480.812C1036.39 480.812 1036.3 480.841 1036.25 480.841L1036.27 480.869ZM1036.53 406.141V480.187L1137 422.188V348.142L1036.53 406.141V406.141Z" fill="#02A894"/>
<path d="M1053.6 325.816L1059.56 322.379C1061.04 321.527 1062.23 319.652 1062.23 318.175V309.91C1062.23 308.433 1063.42 306.559 1064.9 305.707L1073.17 300.935C1074.64 300.083 1075.84 298.208 1075.84 296.731V290.766C1075.84 289.29 1074.64 288.807 1073.17 289.63L1064.9 294.402C1063.42 295.254 1062.23 294.743 1062.23 293.266V285.057C1062.23 283.58 1061.04 283.098 1059.56 283.921L1050.92 288.892V324.623C1050.92 326.1 1052.12 326.583 1053.6 325.759V325.816Z" fill="#006058"/>
<path d="M1132.55 237.555V228.92L1141.19 223.95C1142.67 223.097 1143.86 223.609 1143.86 225.086V231.05C1143.86 232.527 1142.67 234.402 1141.19 235.254L1135.22 238.691C1133.75 239.543 1132.55 239.032 1132.55 237.555V237.555Z" fill="#006058"/>
<path d="M1075.81 271.27V262.636L1067.17 267.606C1065.69 268.458 1064.5 270.333 1064.5 271.81V277.775C1064.5 279.252 1065.69 279.734 1067.17 278.911L1073.14 275.474C1074.61 274.622 1075.81 272.747 1075.81 271.27Z" fill="#48CA2D"/>
<path d="M1115.29 210.303V201.668L1123.92 196.698C1125.4 195.846 1126.59 196.357 1126.59 197.834V203.798C1126.59 205.275 1125.4 207.15 1123.92 208.002L1117.96 211.439C1116.48 212.291 1115.29 211.78 1115.29 210.303V210.303Z" fill="white"/>
<path d="M1130.09 270.106V278.741L1121.46 283.711C1119.98 284.563 1118.79 284.052 1118.79 282.575V276.611C1118.79 275.134 1119.98 273.259 1121.46 272.407L1127.42 268.97C1128.9 268.118 1130.09 268.629 1130.09 270.106V270.106Z" fill="#48CA2D"/>
<path d="M1107.48 305.366L1115.74 300.594C1117.22 299.742 1118.41 297.867 1118.41 296.39V290.426C1118.41 288.949 1117.22 288.466 1115.74 289.289L1096.2 300.566C1094.72 301.418 1093.53 303.292 1093.53 304.769V324.311C1093.53 325.787 1094.72 326.27 1096.2 325.447L1104.84 320.476V309.569C1104.84 308.092 1106.03 306.218 1107.51 305.394L1107.48 305.366Z" fill="#48CA2D"/>
<path d="M1075.84 257.693V249.456C1075.84 247.979 1077.03 246.104 1078.51 245.252L1086.77 240.481C1088.25 239.629 1089.44 237.754 1089.44 236.277V230.312C1089.44 228.835 1088.25 228.353 1086.77 229.176L1067.23 240.452C1065.75 241.304 1064.56 243.179 1064.56 244.656V252.921C1064.56 254.398 1063.37 256.273 1061.89 257.096L1053.62 261.868C1052.14 262.72 1050.95 264.595 1050.95 266.072V274.706L1073.17 261.897C1074.64 261.044 1075.84 259.17 1075.84 257.693V257.693Z" fill="#006058"/>
<path d="M1130.09 255.762V249.797C1130.09 248.32 1128.9 247.838 1127.42 248.661L1119.15 253.433C1117.68 254.285 1116.48 253.774 1116.48 252.297V230.483C1116.48 229.006 1115.29 228.523 1113.84 229.347L1105.21 234.318V245.224C1105.21 246.701 1104.01 248.576 1102.54 249.428L1094.27 254.2C1092.79 255.052 1091.6 256.927 1091.6 258.375V264.34C1091.6 265.817 1092.79 266.3 1094.27 265.476L1102.54 260.704C1104.01 259.852 1105.21 260.363 1105.21 261.84V270.106C1105.21 271.583 1106.37 272.094 1107.85 271.242L1127.42 259.937C1128.9 259.085 1130.09 257.211 1130.09 255.734V255.762Z" fill="#00C8B5"/>
<g style="mix-blend-mode:multiply" opacity="0.6">
<g style="mix-blend-mode:multiply" opacity="0.6">
<path d="M1018.78 404.947L1022.53 407.105V413.837L1018.78 411.678V404.947ZM1011.36 407.39L1015.11 409.548V402.817L1011.36 400.658V407.39ZM1003.95 403.101L1007.7 405.259V398.528L1003.95 396.369V403.101ZM996.537 398.812L1000.29 400.97V394.239L996.537 392.08V398.812ZM989.123 394.523L992.872 396.682V389.95L989.123 387.791V394.523ZM981.709 390.234L985.458 392.393V385.661L981.709 383.503V390.234ZM974.295 385.945L978.044 388.104V381.372L974.295 379.214V385.945ZM966.881 381.656L970.63 383.815V377.083L966.881 374.925V381.656ZM1018.75 417.87L1022.5 420.029V426.76L1018.75 424.602V417.87ZM1011.34 420.313L1015.09 422.472V415.74L1011.34 413.581V420.313V420.313ZM1003.92 416.024L1007.67 418.183V411.451L1003.92 409.293V416.024V416.024ZM996.508 411.735L1000.26 413.894V407.162L996.508 405.004V411.735ZM989.094 407.446L992.844 409.605V402.873L989.094 400.715V407.446ZM981.68 403.157L985.43 405.316V398.585L981.68 396.426V403.157ZM974.266 398.869L978.016 401.027V394.296L974.266 392.137V398.869ZM966.852 394.58L970.602 396.738V390.007L966.852 387.848V394.58ZM1018.72 430.794L1022.47 432.952V439.684L1018.72 437.525V430.794ZM1011.31 433.236L1015.06 435.395V428.663L1011.31 426.505V433.236ZM1003.89 428.948L1007.64 431.106V424.375L1003.89 422.216V428.948ZM996.48 424.659L1000.23 426.817V420.086L996.48 417.927V424.659ZM989.066 420.37L992.816 422.528V415.797L989.066 413.638V420.37V420.37ZM981.652 416.081L985.402 418.24V411.508L981.652 409.349V416.081V416.081ZM974.238 411.792L977.988 413.951V407.219L974.238 405.06V411.792ZM966.824 407.503L970.574 409.662V402.93L966.824 400.772V407.503ZM1018.69 443.717L1022.44 445.876V452.607L1018.69 450.449V443.717ZM1011.28 446.16L1015.03 448.318V441.587L1011.28 439.428V446.16ZM1003.87 441.871L1007.62 444.03V437.298L1003.87 435.139V441.871ZM996.452 437.582L1000.2 439.741V433.009L996.452 430.851V437.582ZM989.038 433.293L992.787 435.452V428.72L989.038 426.562V433.293ZM981.624 429.004L985.373 431.163V424.431L981.624 422.273V429.004ZM974.21 424.715L977.959 426.874V420.143L974.21 417.984V424.715ZM966.796 420.427L970.545 422.585V415.854L966.796 413.695V420.427V420.427ZM1026.05 415.626L1029.8 417.785V411.054L1026.05 408.895V415.626V415.626ZM1026.05 428.635L1029.8 430.794V424.062L1026.05 421.904V428.635ZM1026.05 441.644L1029.8 443.802V437.071L1026.05 434.912V441.644ZM1026.05 454.652L1029.8 456.811V450.079L1026.05 447.921V454.652ZM1018.67 456.669L1022.41 458.828V465.559L1018.67 463.4V456.669ZM1011.25 459.112L1015 461.27V454.539L1011.25 452.38V459.112ZM1003.84 454.823L1007.59 456.981V450.25L1003.84 448.091V454.823ZM996.423 450.534L1000.17 452.692V445.961L996.423 443.802V450.534ZM989.009 446.245L992.759 448.404V441.672L989.009 439.513V446.245ZM981.595 441.956L985.345 444.115V437.383L981.595 435.225V441.956ZM974.181 437.667L977.931 439.826V433.094L974.181 430.936V437.667ZM966.767 433.378L970.517 435.537V428.805L966.767 426.647V433.378ZM1026.02 467.576L1029.77 469.734V463.003L1026.02 460.844V467.576Z" fill="#001D23"/>
</g>
<g style="mix-blend-mode:multiply" opacity="0.6">
<path d="M1072.84 432.299L1076.59 430.141V436.872L1072.84 439.031V432.299ZM1072.84 452.011L1076.59 449.853V443.121L1072.84 445.28V452.011ZM1072.84 413.014L1076.59 410.855V404.124L1072.84 406.282V413.014ZM1072.84 400.005L1076.59 397.847V391.115L1072.84 393.274V400.005ZM1065.42 404.294L1069.17 402.135V395.404L1065.42 397.562V404.294ZM1065.42 430.283L1069.17 428.124V421.393L1065.42 423.551V430.283ZM1065.42 417.274L1069.17 415.116V408.384L1065.42 410.543V417.274ZM1065.42 443.263L1069.17 441.104V434.373L1065.42 436.532V443.263ZM1087.64 443.433L1091.39 441.275V434.543L1087.64 436.702V443.433ZM1087.64 430.425L1091.39 428.266V421.535L1087.64 423.693V430.425ZM1080.22 395.716L1083.97 393.558V386.826L1080.22 388.985V395.716V395.716ZM1080.22 408.725L1083.97 406.566V399.835L1080.22 401.993V408.725V408.725ZM1080.22 434.714L1083.97 432.555V425.824L1080.22 427.982V434.714V434.714ZM1080.22 447.722L1083.97 445.564V438.832L1080.22 440.991V447.722V447.722ZM1080.22 421.734L1083.97 419.575V412.843L1080.22 415.002V421.734V421.734ZM1043.21 417.104L1046.96 414.945V408.214L1043.21 410.372V417.104ZM1087.64 417.445L1091.39 415.286V408.554L1087.64 410.713V417.445ZM1050.59 438.832L1054.34 436.674V429.942L1050.59 432.101V438.832ZM1050.59 451.841L1054.34 449.682V442.951L1050.59 445.109V451.841ZM1043.21 430.112L1046.96 427.954V421.222L1043.21 423.381V430.112ZM1065.42 456.3L1069.17 454.141V447.41L1065.42 449.569V456.3ZM1043.21 469.11L1046.96 466.951V460.22L1043.21 462.378V469.11ZM1043.21 456.101L1046.96 453.943V447.211L1043.21 449.37V456.101ZM1043.21 443.093L1046.96 440.934V434.202L1043.21 436.361V443.093ZM1050.59 464.821L1054.34 462.662V455.931L1050.59 458.089V464.821ZM1058.01 421.563L1061.76 419.404V412.673L1058.01 414.832V421.563ZM1058.01 408.554L1061.76 406.396V399.664L1058.01 401.823V408.554ZM1058.01 434.543L1061.76 432.385V425.653L1058.01 427.812V434.543ZM1058.01 460.532L1061.76 458.373V451.642L1058.01 453.801V460.532ZM1058.01 447.524L1061.76 445.365V438.633L1058.01 440.792V447.524ZM1050.59 412.815L1054.34 410.656V403.925L1050.59 406.083V412.815ZM1050.59 425.824L1054.34 423.665V416.933L1050.59 419.092V425.824ZM1072.81 425.994L1076.56 423.835V417.104L1072.81 419.262V425.994ZM1102.44 395.887L1106.18 393.728V386.997L1102.44 389.155V395.887ZM1102.44 408.895L1106.18 406.737V400.005L1102.44 402.164V408.895ZM1087.61 404.464L1091.36 402.306V395.574L1087.61 397.733V404.464ZM1102.44 382.906L1106.18 380.748V374.016L1102.44 376.175V382.906ZM1087.61 391.456L1091.36 389.297V382.566L1087.61 384.724V391.456ZM1095.02 387.167L1098.77 385.008V378.277L1095.02 380.435V387.167ZM1095.02 400.176L1098.77 398.017V391.285L1095.02 393.444V400.176ZM1095.02 413.184L1098.77 411.026V404.294L1095.02 406.453V413.184ZM1109.85 378.646L1113.6 376.487V369.756L1109.85 371.914V378.646ZM1109.85 404.635L1113.6 402.476V395.745L1109.85 397.903V404.635ZM1109.85 391.626L1113.6 389.468V382.736L1109.85 384.895V391.626Z" fill="#001D23"/>
</g>
</g>
<path d="M1252.93 414.236L1174.9 369.188L1096.86 414.236L1174.9 459.255L1252.93 414.236Z" fill="#02A894"/>
<path d="M1174.89 459.71C1174.89 459.71 1174.75 459.71 1174.67 459.653L1096.63 414.606C1096.63 414.606 1096.41 414.379 1096.41 414.237C1096.41 414.095 1096.49 413.953 1096.63 413.867L1174.67 368.82C1174.67 368.82 1174.95 368.735 1175.09 368.82L1253.12 413.867C1253.12 413.867 1253.35 414.095 1253.35 414.237C1253.35 414.379 1253.26 414.521 1253.12 414.606L1175.09 459.653C1175.09 459.653 1174.95 459.71 1174.86 459.71H1174.89ZM1097.71 414.237L1174.89 458.773L1252.07 414.237L1174.89 369.701L1097.71 414.237V414.237Z" fill="#02A894"/>
<path d="M1174.9 560.342L1096.86 515.295V414.236L1174.9 459.255V560.342Z" fill="#003E42"/>
<path d="M1174.89 560.768C1174.89 560.768 1174.75 560.768 1174.67 560.712L1096.63 515.664C1096.63 515.664 1096.41 515.437 1096.41 515.295V414.237C1096.41 414.095 1096.49 413.953 1096.63 413.868C1096.78 413.782 1096.92 413.782 1097.06 413.868L1175.09 458.915C1175.09 458.915 1175.32 459.142 1175.32 459.284V560.342C1175.32 560.484 1175.23 560.626 1175.09 560.712C1175.03 560.74 1174.95 560.768 1174.86 560.768H1174.89ZM1097.29 515.039L1174.47 559.575V459.511L1097.29 414.975V515.039V515.039Z" fill="#02A894"/>
<path d="M1252.92 515.296L1174.89 560.343V459.256L1252.92 414.237V515.296Z" fill="#003E42"/>
<path d="M1174.89 560.599C1174.7 560.514 1174.64 560.429 1174.64 560.343V459.285C1174.64 459.285 1174.7 459.115 1174.75 459.058L1252.78 414.011C1252.78 414.011 1252.95 413.954 1253.04 414.011C1253.12 414.067 1253.18 414.153 1253.18 414.238V515.296C1253.18 515.296 1253.12 515.466 1253.04 515.523L1175.01 560.571C1175.01 560.571 1174.92 560.599 1174.87 560.599H1174.89ZM1175.15 459.427V559.889L1252.67 515.154V414.692L1175.15 459.427Z" fill="#02A894"/>
<path d="M1236.51 265.264L1174.9 229.675L1113.29 265.264L1174.9 300.825L1236.51 265.264Z" fill="#02A894"/>
<path d="M1174.9 301.25C1174.9 301.25 1174.75 301.25 1174.67 301.194L1113.06 265.633C1113.06 265.633 1112.83 265.406 1112.83 265.264C1112.83 265.122 1112.91 264.98 1113.06 264.894L1174.67 229.334C1174.67 229.334 1174.95 229.249 1175.1 229.334L1236.71 264.894C1236.71 264.894 1236.94 265.122 1236.94 265.264C1236.94 265.406 1236.85 265.548 1236.71 265.633L1175.1 301.194C1175.1 301.194 1174.95 301.25 1174.87 301.25H1174.9ZM1114.14 265.264L1174.9 300.342L1235.66 265.264L1174.9 230.186L1114.14 265.264Z" fill="#02A894"/>
<path d="M1174.9 235.609L1226.23 265.234L1174.9 294.858L1123.57 265.234L1174.9 235.609ZM1174.9 233.621L1120.13 265.234L1174.9 296.846L1229.66 265.234L1174.9 233.621V233.621Z" fill="#003E42"/>
<path d="M1174.9 449.456L1113.29 413.895V265.262L1174.9 300.822V449.456Z" fill="#003E42"/>
<path d="M1174.9 449.882C1174.9 449.882 1174.75 449.882 1174.67 449.826L1113.06 414.265C1113.06 414.265 1112.83 414.038 1112.83 413.896V265.262C1112.83 265.12 1112.91 264.978 1113.06 264.893C1113.2 264.808 1113.34 264.808 1113.48 264.893L1175.1 300.454C1175.1 300.454 1175.32 300.681 1175.32 300.823V449.456C1175.32 449.598 1175.24 449.74 1175.1 449.826C1175.04 449.854 1174.95 449.882 1174.87 449.882H1174.9ZM1113.71 413.64L1174.47 448.718V301.079L1113.71 266.001V413.64V413.64Z" fill="#02A894"/>
<path d="M1236.51 413.897L1174.9 449.458V300.824L1236.51 265.264V413.897Z" fill="#003E42"/>
<path d="M1174.9 449.713C1174.7 449.628 1174.64 449.542 1174.64 449.457V300.824C1174.64 300.824 1174.7 300.653 1174.76 300.597L1236.37 265.036C1236.37 265.036 1236.54 264.979 1236.62 265.036C1236.71 265.093 1236.77 265.178 1236.77 265.263V413.897C1236.77 413.897 1236.71 414.067 1236.62 414.124L1175.01 449.684C1175.01 449.684 1174.93 449.713 1174.87 449.713H1174.9ZM1175.15 300.966V449.003L1236.25 413.726V265.689L1175.15 300.966V300.966Z" fill="#02A894"/>
<g style="mix-blend-mode:multiply" opacity="0.6">
<g style="mix-blend-mode:multiply" opacity="0.6">
<path d="M1180.63 312.666L1185.75 309.712V436.333L1180.63 439.287V312.666V312.666ZM1191.83 432.84L1196.94 429.886V303.265L1191.83 306.219V432.84ZM1203.02 426.364L1208.13 423.41V296.789L1203.02 299.743V426.364V426.364ZM1214.21 419.888L1219.32 416.934V290.313L1214.21 293.267V419.888ZM1225.4 413.412L1230.52 410.458V283.837L1225.4 286.791V413.412ZM1236.59 280.315V406.936L1241.71 403.982V277.361L1236.59 280.315Z" fill="#001D23"/>
</g>
<g style="mix-blend-mode:multiply" opacity="0.6">
<path d="M1168.16 439.287L1163.05 436.333V309.712L1168.16 312.666V439.287V439.287ZM1156.97 306.19L1151.86 303.236V429.857L1156.97 432.811V306.19V306.19ZM1145.78 299.714L1140.67 296.76V423.381L1145.78 426.335V299.714ZM1134.59 293.238L1129.47 290.284V416.906L1134.59 419.859V293.238V293.238ZM1123.39 286.763L1118.28 283.809V410.43L1123.39 413.384V286.763Z" fill="#001D23"/>
</g>
<g style="mix-blend-mode:multiply" opacity="0.6">
<path d="M1184.21 467.038L1180.35 469.282V462.351L1184.21 460.107V467.038ZM1191.85 455.705L1187.99 457.949V464.879L1191.85 462.635V455.705ZM1199.49 451.302L1195.63 453.546V460.477L1199.49 458.233V451.302ZM1207.14 446.9L1203.27 449.144V456.074L1207.14 453.83V446.9ZM1214.78 442.497L1210.91 444.741V451.672L1214.78 449.428V442.497ZM1222.42 438.095L1218.56 440.339V447.269L1222.42 445.025V438.095ZM1230.06 433.693L1226.2 435.936V442.867L1230.06 440.623V433.693ZM1237.7 429.29L1233.84 431.534V438.464L1237.7 436.22V429.29ZM1184.24 480.472L1180.38 482.716V475.786L1184.24 473.542V480.472ZM1191.88 469.14L1188.02 471.383V478.314L1191.88 476.07V469.14ZM1199.52 464.737L1195.66 466.981V473.911L1199.52 471.667V464.737ZM1207.16 460.335L1203.3 462.578V469.509L1207.16 467.265V460.335ZM1214.81 455.932L1210.94 458.176V465.106L1214.81 462.862V455.932ZM1222.45 451.53L1218.58 453.773V460.704L1222.45 458.46V451.53ZM1230.09 447.127L1226.23 449.371V456.301L1230.09 454.058V447.127ZM1237.73 442.725L1233.87 444.969V451.899L1237.73 449.655V442.725ZM1184.27 493.907L1180.41 496.151V489.221L1184.27 486.977V493.907ZM1191.91 482.574L1188.05 484.818V491.748L1191.91 489.505V482.574ZM1199.55 478.172L1195.69 480.416V487.346L1199.55 485.102V478.172ZM1207.19 473.769L1203.33 476.013V482.943L1207.19 480.7V473.769ZM1214.83 469.367L1210.97 471.611V478.541L1214.83 476.297V469.367ZM1222.48 464.964L1218.61 467.208V474.139L1222.48 471.895V464.964ZM1230.12 460.562L1226.25 462.806V469.736L1230.12 467.492V460.562ZM1237.76 456.159L1233.89 458.403V465.334L1237.76 463.09V456.159ZM1184.3 507.342L1180.43 509.586V502.655L1184.3 500.411V507.342ZM1191.94 496.009L1188.08 498.253V505.183L1191.94 502.939V496.009ZM1199.58 491.606L1195.72 493.85V500.781L1199.58 498.537V491.606ZM1207.22 487.204L1203.36 489.448V496.378L1207.22 494.134V487.204ZM1214.86 482.801L1211 485.045V491.976L1214.86 489.732V482.801ZM1222.5 478.399L1218.64 480.643V487.573L1222.5 485.329V478.399ZM1230.15 473.996L1226.28 476.24V483.171L1230.15 480.927V473.996ZM1237.79 469.594L1233.92 471.838V478.768L1237.79 476.524V469.594ZM1184.33 520.776L1180.46 523.02V516.09L1184.33 513.846V520.776ZM1191.97 509.444L1188.1 511.687V518.618L1191.97 516.374V509.444ZM1199.61 505.041L1195.75 507.285V514.215L1199.61 511.971V505.041ZM1207.25 500.639L1203.39 502.882V509.813L1207.25 507.569V500.639ZM1214.89 496.236L1211.03 498.48V505.41L1214.89 503.166V496.236ZM1222.53 491.834L1218.67 494.077V501.008L1222.53 498.764V491.834ZM1230.17 487.431L1226.31 489.675V496.605L1230.17 494.362V487.431ZM1237.81 483.029L1233.95 485.273V492.203L1237.81 489.959V483.029ZM1184.35 534.211L1180.49 536.455V529.525L1184.35 527.281V534.211ZM1192 522.878L1188.13 525.122V532.052L1192 529.809V522.878ZM1199.64 518.476L1195.77 520.72V527.65L1199.64 525.406V518.476ZM1207.28 514.073L1203.41 516.317V523.247L1207.28 521.004V514.073ZM1214.92 509.671L1211.06 511.915V518.845L1214.92 516.601V509.671ZM1222.56 505.268L1218.7 507.512V514.443L1222.56 512.199V505.268ZM1230.2 500.866L1226.34 503.11V510.04L1230.2 507.796V500.866ZM1237.84 496.463L1233.98 498.707V505.638L1237.84 503.394V496.463Z" fill="#001D23"/>
</g>
<g style="mix-blend-mode:multiply" opacity="0.6">
<path d="M1165.1 460.108L1168.96 462.351V469.282L1165.1 467.038V460.108ZM1157.46 462.635L1161.32 464.879V457.949L1157.46 455.705V462.635ZM1149.81 458.233L1153.68 460.477V453.546L1149.81 451.303V458.233ZM1142.17 453.83L1146.04 456.074V449.144L1142.17 446.9V453.83ZM1134.53 449.428L1138.39 451.672V444.741L1134.53 442.498V449.428ZM1126.89 445.025L1130.75 447.269V440.339L1126.89 438.095V445.025ZM1119.25 440.623L1123.11 442.867V435.936L1119.25 433.693V440.623ZM1111.61 436.221L1115.47 438.464V431.534L1111.61 429.29V436.221ZM1165.07 473.571L1168.93 475.814V482.745L1165.07 480.501V473.571ZM1157.43 476.098L1161.29 478.342V471.412L1157.43 469.168V476.098ZM1149.79 471.696L1153.65 473.94V467.009L1149.79 464.766V471.696ZM1142.14 467.294L1146.01 469.537V462.607L1142.14 460.363V467.294ZM1134.5 462.891L1138.37 465.135V458.205L1134.5 455.961V462.891ZM1126.86 458.489L1130.73 460.732V453.802L1126.86 451.558V458.489ZM1119.22 454.086L1123.08 456.33V449.4L1119.22 447.156V454.086ZM1111.58 449.684L1115.44 451.927V444.997L1111.58 442.753V449.684ZM1165.04 487.034L1168.9 489.278V496.208L1165.04 493.964V487.034ZM1157.4 489.562L1161.26 491.805V484.875L1157.4 482.631V489.562ZM1149.76 485.159L1153.62 487.403V480.473L1149.76 478.229V485.159ZM1142.12 480.757L1145.98 483V476.07L1142.12 473.826V480.757ZM1134.47 476.354L1138.34 478.598V471.668L1134.47 469.424V476.354ZM1126.83 471.952L1130.7 474.195V467.265L1126.83 465.021V471.952ZM1119.19 467.549L1123.06 469.793V462.863L1119.19 460.619V467.549ZM1111.55 463.147L1115.41 465.39V458.46L1111.55 456.216V463.147ZM1165.01 500.497L1168.87 502.741V509.671L1165.01 507.427V500.497ZM1157.37 503.025L1161.23 505.268V498.338L1157.37 496.094V503.025ZM1149.73 498.622L1153.59 500.866V493.936L1149.73 491.692V498.622ZM1142.09 494.22L1145.95 496.463V489.533L1142.09 487.289V494.22ZM1134.45 489.817L1138.31 492.061V485.131L1134.45 482.887V489.817ZM1126.81 485.415L1130.67 487.659V480.728L1126.81 478.484V485.415ZM1119.16 481.012L1123.03 483.256V476.326L1119.16 474.082V481.012ZM1111.52 476.61L1115.39 478.854V471.923L1111.52 469.679V476.61ZM1164.98 513.96L1168.85 516.204V523.134L1164.98 520.89V513.96ZM1157.34 516.488L1161.21 518.731V511.801L1157.34 509.557V516.488ZM1149.7 512.085L1153.56 514.329V507.399L1149.7 505.155V512.085ZM1142.06 507.683L1145.92 509.927V502.996L1142.06 500.752V507.683ZM1134.42 503.28L1138.28 505.524V498.594L1134.42 496.35V503.28ZM1126.78 498.878L1130.64 501.122V494.191L1126.78 491.947V498.878ZM1119.14 494.475L1123 496.719V489.789L1119.14 487.545V494.475ZM1111.49 490.073L1115.36 492.317V485.386L1111.49 483.142V490.073ZM1164.95 527.423L1168.82 529.667V536.597L1164.95 534.353V527.423ZM1157.31 529.951L1161.18 532.195V525.264L1157.31 523.02V529.951ZM1149.67 525.548L1153.54 527.792V520.862L1149.67 518.618V525.548ZM1142.03 521.146L1145.89 523.39V516.459L1142.03 514.215V521.146ZM1134.39 516.743L1138.25 518.987V512.057L1134.39 509.813V516.743ZM1126.75 512.341L1130.61 514.585V507.654L1126.75 505.41V512.341ZM1119.11 507.938L1122.97 510.182V503.252L1119.11 501.008V507.938ZM1111.47 503.536L1115.33 505.78V498.849L1111.47 496.606V503.536ZM1103.85 432.159L1107.72 434.403V427.472L1103.85 425.229V432.159ZM1103.85 445.565L1107.72 447.809V440.879L1103.85 438.635V445.565ZM1103.85 458.971L1107.72 461.215V454.285L1103.85 452.041V458.971ZM1103.85 472.378L1107.72 474.621V467.691L1103.85 465.447V472.378ZM1103.85 485.784L1107.72 488.028V481.097L1103.85 478.854V485.784ZM1103.85 499.19L1107.72 501.434V494.504L1103.85 492.26V499.19Z" fill="#001D23"/>
</g>
</g>
<path d="M1359.99 139.123L1294.12 101.12L1228.24 139.123L1294.12 177.155L1359.99 139.123Z" fill="#02A894"/>
<path d="M1294.12 177.581C1294.12 177.581 1293.97 177.581 1293.89 177.524L1228.01 139.493C1228.01 139.493 1227.79 139.265 1227.79 139.123C1227.79 138.981 1227.87 138.839 1228.01 138.754L1293.89 100.722C1293.89 100.722 1294.17 100.637 1294.31 100.722L1360.19 138.754C1360.19 138.754 1360.41 138.981 1360.41 139.123C1360.41 139.265 1360.33 139.407 1360.19 139.493L1294.31 177.524C1294.31 177.524 1294.17 177.581 1294.09 177.581H1294.12ZM1229.09 139.123L1294.12 176.644L1359.14 139.123L1294.12 101.603L1229.09 139.123Z" fill="#02A894"/>
<path d="M1294.12 107.027L1349.71 139.123L1294.12 171.218L1238.53 139.123L1294.12 107.027V107.027ZM1294.12 105.039L1235.09 139.123L1294.12 173.206L1353.15 139.123L1294.12 105.039Z" fill="#003E42"/>
<path d="M1294.12 629.162L1228.24 591.13V139.123L1294.12 177.155V629.162Z" fill="#003E42"/>
<path d="M1294.12 629.588C1294.12 629.588 1293.97 629.588 1293.89 629.531L1228.01 591.5C1228.01 591.5 1227.79 591.272 1227.79 591.13V139.124C1227.79 138.982 1227.87 138.84 1228.01 138.754C1228.16 138.669 1228.3 138.669 1228.44 138.754L1294.31 176.786C1294.31 176.786 1294.54 177.013 1294.54 177.155V629.162C1294.54 629.304 1294.46 629.446 1294.31 629.531C1294.26 629.56 1294.17 629.588 1294.09 629.588H1294.12ZM1228.67 590.875L1293.69 628.395V177.411L1228.67 139.89V590.875V590.875Z" fill="#02A894"/>
<path d="M1359.99 591.13L1294.11 629.162V177.155L1359.99 139.123V591.13Z" fill="#003E42"/>
<path d="M1294.11 629.418C1293.91 629.332 1293.86 629.247 1293.86 629.162V177.155C1293.86 177.155 1293.91 176.985 1294 176.928L1359.87 138.896C1359.87 138.896 1360.04 138.84 1360.13 138.896C1360.21 138.953 1360.27 139.038 1360.27 139.124V591.13C1360.27 591.13 1360.21 591.301 1360.13 591.358L1294.26 629.389C1294.26 629.389 1294.17 629.418 1294.14 629.418H1294.11ZM1294.37 177.326V628.708L1359.73 590.988V139.578L1294.37 177.297V177.326Z" fill="#02A894"/>
<path d="M1141.67 572.924L1032.19 509.728L966.315 547.759L1075.79 610.956L1141.67 572.924Z" fill="#02A894"/>
<path d="M1075.79 611.383C1075.79 611.383 1075.65 611.383 1075.56 611.326L966.085 548.129C966.085 548.129 965.858 547.902 965.858 547.76C965.858 547.618 965.943 547.476 966.085 547.391L1031.96 509.359C1031.96 509.359 1032.24 509.274 1032.39 509.359L1141.86 572.556C1141.86 572.556 1142.09 572.783 1142.09 572.925C1142.09 573.067 1142 573.209 1141.86 573.295L1075.99 611.326C1075.99 611.326 1075.85 611.383 1075.76 611.383H1075.79ZM967.165 547.76L1075.79 610.474L1140.81 572.954L1032.19 510.24L967.165 547.76V547.76Z" fill="#02A894"/>
<path d="M1032.19 515.664L1131.38 572.925L1075.79 605.02L976.598 547.759L1032.19 515.664ZM1032.19 513.676L973.161 547.759L1075.79 607.008L1134.82 572.925L1032.19 513.676V513.676Z" fill="#003E42"/>
<path d="M1075.79 668.017L966.315 604.82V547.758L1075.79 610.955V668.017Z" fill="#003E42"/>
<path d="M1075.79 668.443C1075.79 668.443 1075.65 668.443 1075.56 668.386L966.085 605.189C966.085 605.189 965.858 604.962 965.858 604.82V547.73C965.858 547.588 965.943 547.446 966.085 547.361C966.227 547.276 966.369 547.276 966.512 547.361L1075.99 610.558C1075.99 610.558 1076.22 610.785 1076.22 610.927V668.017C1076.22 668.159 1076.13 668.301 1075.99 668.386C1075.93 668.415 1075.85 668.443 1075.76 668.443H1075.79ZM966.739 604.565L1075.36 667.279V611.183L966.739 548.469V604.565V604.565Z" fill="#02A894"/>
<path d="M1141.66 629.987L1075.79 668.018V610.957L1141.66 572.925V629.987Z" fill="#003E42"/>
<path d="M1075.79 668.274C1075.59 668.188 1075.54 668.103 1075.54 668.018V610.928C1075.54 610.928 1075.59 610.757 1075.65 610.701L1141.52 572.669C1141.52 572.669 1141.69 572.612 1141.78 572.669C1141.86 572.726 1141.89 572.811 1141.89 572.896V629.986C1141.89 629.986 1141.84 630.157 1141.78 630.213L1075.91 668.245C1075.91 668.245 1075.82 668.274 1075.76 668.274H1075.79ZM1076.05 611.07V667.564L1141.41 629.844V573.35L1076.05 611.07V611.07Z" fill="#02A894"/>
<path d="M1438.02 475.074L1393 449.085L1327.13 487.117L1372.15 513.106L1438.02 475.074Z" fill="#02A894"/>
<path d="M1372.15 513.532C1372.15 513.532 1372.01 513.532 1371.92 513.476L1326.87 487.487C1326.87 487.487 1326.64 487.26 1326.64 487.118C1326.64 486.976 1326.73 486.834 1326.87 486.748L1392.75 448.717C1392.75 448.717 1393.03 448.631 1393.17 448.717L1438.19 474.705C1438.19 474.705 1438.42 474.933 1438.42 475.075C1438.42 475.217 1438.34 475.359 1438.19 475.444L1372.32 513.476C1372.32 513.476 1372.18 513.532 1372.09 513.532H1372.15ZM1327.98 487.118L1372.15 512.624L1437.17 475.103L1393 449.597L1327.98 487.118V487.118Z" fill="#02A894"/>
<path d="M1393 455.022L1427.77 475.103L1372.18 507.199L1337.41 487.118L1393 455.022ZM1393 453.034L1333.97 487.118L1372.15 509.159L1431.18 475.075L1393 453.034Z" fill="#003E42"/>
<path d="M1372.15 636.09L1327.13 610.102V487.116L1372.15 513.105V636.09Z" fill="#003E42"/>
<path d="M1372.15 636.517C1372.15 636.517 1372.01 636.517 1371.92 636.46L1326.87 610.471C1326.87 610.471 1326.64 610.244 1326.64 610.102V487.117C1326.64 486.975 1326.73 486.833 1326.87 486.748C1327.01 486.662 1327.16 486.662 1327.3 486.748L1372.35 512.736C1372.35 512.736 1372.58 512.964 1372.58 513.106V636.091C1372.58 636.233 1372.49 636.375 1372.35 636.46C1372.29 636.489 1372.21 636.517 1372.12 636.517H1372.15ZM1327.52 609.846L1371.7 635.352V513.361L1327.52 487.855V609.846Z" fill="#02A894"/>
<path d="M1438.02 598.061L1372.15 636.092V513.107L1438.02 475.075V598.061Z" fill="#003E42"/>
<path d="M1372.15 636.348C1371.95 636.262 1371.9 636.177 1371.9 636.092V513.106C1371.9 513.106 1371.95 512.936 1372.04 512.879L1437.91 474.848C1437.91 474.848 1438.08 474.791 1438.17 474.848C1438.25 474.904 1438.31 474.99 1438.31 475.075V598.06C1438.31 598.06 1438.25 598.231 1438.17 598.287L1372.29 636.319C1372.29 636.319 1372.21 636.348 1372.18 636.348H1372.15ZM1372.41 513.249V635.637L1437.77 597.918V475.529L1372.41 513.249Z" fill="#02A894"/>
<path d="M1363.74 723.715L1315.2 695.681L1270.46 721.499L1319.03 749.505L1363.74 723.715Z" fill="#02A894"/>
<path d="M1319.03 749.931C1319.03 749.931 1318.89 749.931 1318.81 749.874L1270.26 721.84C1270.26 721.84 1270.03 721.613 1270.03 721.471C1270.03 721.329 1270.12 721.187 1270.26 721.101L1314.97 695.283C1314.97 695.283 1315.25 695.198 1315.4 695.283L1363.94 723.317C1363.94 723.317 1364.17 723.544 1364.17 723.686C1364.17 723.828 1364.08 723.97 1363.94 724.055L1319.23 749.874C1319.23 749.874 1319.09 749.931 1319 749.931H1319.03ZM1271.34 721.471L1319.03 749.022L1362.89 723.686L1315.2 696.135L1271.34 721.471Z" fill="#02A894"/>
<path d="M1061.04 624.758L1012.5 596.725L988.435 610.614L1037.01 638.648L1061.04 624.758Z" fill="#02A894"/>
<path d="M1037.01 639.075C1037.01 639.075 1036.87 639.074 1036.78 639.018L988.238 610.984C988.238 610.984 988.011 610.757 988.011 610.615C988.011 610.473 988.096 610.331 988.238 610.245L1012.27 596.356C1012.27 596.356 1012.55 596.271 1012.7 596.356L1061.24 624.39C1061.24 624.39 1061.47 624.617 1061.47 624.759C1061.47 624.901 1061.38 625.043 1061.24 625.129L1037.21 639.018C1037.21 639.018 1037.07 639.075 1036.98 639.075H1037.01ZM989.317 610.615L1037.01 638.166L1060.19 624.788L1012.5 597.237L989.317 610.615Z" fill="#02A894"/>
<path d="M1037.01 673.384L988.435 645.35V610.613L1037.01 638.647V673.384Z" fill="#003E42"/>
<path d="M1037.01 673.811C1037.01 673.811 1036.87 673.811 1036.78 673.754L988.238 645.72C988.238 645.72 988.011 645.493 988.011 645.351V610.614C988.011 610.472 988.096 610.33 988.238 610.245C988.38 610.159 988.522 610.159 988.664 610.245L1037.21 638.278C1037.21 638.278 1037.44 638.506 1037.44 638.648V673.385C1037.44 673.527 1037.35 673.669 1037.21 673.754C1037.15 673.782 1037.07 673.811 1036.98 673.811H1037.01ZM988.891 645.095L1036.59 672.646V638.903L988.891 611.352V645.095V645.095Z" fill="#02A894"/>
<path d="M1061.05 659.496L1037.01 673.385V638.648L1061.05 624.759V659.496Z" fill="#003E42"/>
<path d="M1037.02 673.641C1036.82 673.556 1036.76 673.471 1036.76 673.385V638.648C1036.76 638.648 1036.82 638.478 1036.87 638.421L1060.9 624.532C1060.9 624.532 1061.08 624.475 1061.16 624.532C1061.25 624.589 1061.27 624.674 1061.27 624.759V659.496C1061.27 659.496 1061.22 659.667 1061.16 659.724L1037.13 673.613C1037.13 673.613 1037.04 673.641 1036.99 673.641H1037.02ZM1037.27 638.819V672.959L1060.79 659.383V625.242L1037.27 638.819Z" fill="#02A894"/>
<path d="M1237.9 668.984L1189.36 640.95L1144.65 666.769L1193.19 694.802L1237.9 668.984Z" fill="#009983"/>
<path d="M1193.19 695.228C1193.19 695.228 1193.05 695.228 1192.97 695.172L1144.42 667.138C1144.42 667.138 1144.19 666.911 1144.19 666.768C1144.19 666.626 1144.28 666.484 1144.42 666.399L1189.13 640.581C1189.13 640.581 1189.42 640.496 1189.56 640.581L1238.1 668.615C1238.1 668.615 1238.33 668.842 1238.33 668.984C1238.33 669.126 1238.25 669.268 1238.1 669.353L1193.39 695.172C1193.39 695.172 1193.25 695.228 1193.17 695.228H1193.19ZM1145.5 666.768L1193.19 694.319L1237.05 668.984L1189.36 641.433L1145.5 666.768Z" fill="#02A894"/>
<path d="M1189.36 646.887L1227.65 668.984L1193.19 688.866L1154.9 666.769L1189.36 646.887ZM1189.36 644.898L1151.49 666.769L1193.19 690.855L1231.06 668.984L1189.36 644.898Z" fill="#003E42"/>
<path d="M1193.19 729.509L1144.65 701.475V666.767L1193.19 694.8V729.509Z" fill="#003E42"/>
<path d="M1193.19 729.936C1193.19 729.936 1193.05 729.936 1192.97 729.879L1144.42 701.845C1144.42 701.845 1144.19 701.618 1144.19 701.476V666.739C1144.19 666.597 1144.28 666.455 1144.42 666.37C1144.56 666.284 1144.7 666.284 1144.85 666.37L1193.39 694.403C1193.39 694.403 1193.62 694.631 1193.62 694.773V729.51C1193.62 729.652 1193.53 729.794 1193.39 729.879C1193.34 729.907 1193.25 729.936 1193.17 729.936H1193.19ZM1145.07 701.22L1192.77 728.771V695.028L1145.07 667.477V701.22Z" fill="#02A894"/>
<path d="M1237.9 703.693L1193.19 729.511V694.803L1237.9 668.984V703.693Z" fill="#003E42"/>
<path d="M1193.19 729.767C1192.99 729.681 1192.93 729.596 1192.93 729.511V694.774C1192.93 694.774 1192.99 694.604 1193.05 694.547L1237.76 668.728C1237.76 668.728 1237.93 668.672 1238.01 668.728C1238.1 668.785 1238.16 668.87 1238.16 668.956V703.693C1238.16 703.693 1238.1 703.863 1238.01 703.92L1193.3 729.738C1193.3 729.738 1193.22 729.767 1193.16 729.767H1193.19ZM1193.44 694.944V729.085L1237.64 703.579V669.438L1193.44 694.973V694.944Z" fill="#02A894"/>
<path d="M1164.1 694.431L1128.93 674.123L1107.77 686.336L1142.94 706.645L1164.1 694.431Z" fill="#02A894"/>
<path d="M1142.94 707.072C1142.94 707.072 1142.8 707.072 1142.71 707.015L1107.55 686.707C1107.55 686.707 1107.32 686.479 1107.32 686.337C1107.32 686.195 1107.4 686.053 1107.55 685.968L1128.71 673.755C1128.71 673.755 1128.99 673.669 1129.13 673.755L1164.3 694.063C1164.3 694.063 1164.53 694.29 1164.53 694.432C1164.53 694.574 1164.44 694.716 1164.3 694.801L1143.14 707.015C1143.14 707.015 1143 707.072 1142.91 707.072H1142.94ZM1108.63 686.337L1142.94 706.134L1163.25 694.404L1128.94 674.607L1108.63 686.337Z" fill="#02A894"/>
<path d="M1142.94 724.965L1107.77 704.657V686.337L1142.94 706.645V724.965Z" fill="#003E42"/>
<path d="M1142.94 725.391C1142.94 725.391 1142.8 725.391 1142.71 725.334L1107.55 705.026C1107.55 705.026 1107.32 704.799 1107.32 704.657V686.308C1107.32 686.166 1107.4 686.024 1107.55 685.939C1107.69 685.854 1107.83 685.854 1107.97 685.939L1143.14 706.247C1143.14 706.247 1143.37 706.474 1143.37 706.616V724.965C1143.37 725.107 1143.28 725.249 1143.14 725.334C1143.08 725.362 1143 725.391 1142.91 725.391H1142.94ZM1108.2 704.429L1142.51 724.226V706.872L1108.2 687.075V704.429Z" fill="#02A894"/>
<path d="M1164.1 712.751L1142.94 724.964V706.644L1164.1 694.431V712.751Z" fill="#003E42"/>
<path d="M1142.94 725.22C1142.74 725.135 1142.69 725.05 1142.69 724.965V706.616C1142.69 706.616 1142.74 706.446 1142.8 706.389L1163.96 694.176C1163.96 694.176 1164.13 694.119 1164.22 694.176C1164.3 694.232 1164.33 694.318 1164.33 694.403V712.723C1164.33 712.723 1164.27 712.893 1164.22 712.95L1143.06 725.163C1143.06 725.163 1142.97 725.192 1142.91 725.192L1142.94 725.22ZM1143.2 706.787V724.539L1163.85 712.609V694.857L1143.2 706.787Z" fill="#02A894"/>
<g style="mix-blend-mode:multiply" opacity="0.6">
<g style="mix-blend-mode:multiply" opacity="0.6">
<path d="M1380.36 524.582L1376.5 526.826V519.895L1380.36 517.651V524.582ZM1388 513.249L1384.14 515.493V522.423L1388 520.179V513.249ZM1395.64 508.846L1391.78 511.09V518.021L1395.64 515.777V508.846ZM1403.28 504.444L1399.42 506.688V513.618L1403.28 511.374V504.444ZM1410.93 500.041L1407.06 502.285V509.216L1410.93 506.972V500.041ZM1418.57 495.639L1414.7 497.883V504.813L1418.57 502.569V495.639ZM1426.21 491.236L1422.34 493.48V500.411L1426.21 498.167V491.236ZM1433.85 486.834L1429.99 489.078V496.008L1433.85 493.764V486.834ZM1380.39 538.016L1376.53 540.26V533.33L1380.39 531.086V538.016ZM1388.03 526.684L1384.17 528.927V535.858L1388.03 533.614V526.684ZM1395.67 522.281L1391.81 524.525V531.455L1395.67 529.211V522.281ZM1403.31 517.879L1399.45 520.122V527.053L1403.31 524.809V517.879ZM1410.95 513.476L1407.09 515.72V522.65L1410.95 520.406V513.476ZM1418.6 509.074L1414.73 511.317V518.248L1418.6 516.004V509.074ZM1426.24 504.671L1422.37 506.915V513.845L1426.24 511.601V504.671ZM1433.88 500.269L1430.01 502.513V509.443L1433.88 507.199V500.269ZM1380.42 551.451L1376.55 553.695V546.765L1380.42 544.521V551.451ZM1388.06 540.118L1384.2 542.362V549.292L1388.06 547.049V540.118ZM1395.7 535.716L1391.84 537.96V544.89L1395.7 542.646V535.716ZM1403.34 531.313L1399.48 533.557V540.487L1403.34 538.244V531.313ZM1410.98 526.911L1407.12 529.155V536.085L1410.98 533.841V526.911ZM1418.62 522.508L1414.76 524.752V531.682L1418.62 529.439V522.508ZM1426.26 518.106L1422.4 520.35V527.28L1426.26 525.036V518.106ZM1433.91 513.703L1430.04 515.947V522.878L1433.91 520.634V513.703ZM1380.45 564.886L1376.58 567.13V560.199L1380.45 557.955V564.886ZM1388.09 553.553L1384.22 555.797V562.727L1388.09 560.483V553.553ZM1395.73 549.15L1391.87 551.394V558.325L1395.73 556.081V549.15ZM1403.37 544.748L1399.51 546.992V553.922L1403.37 551.678V544.748ZM1411.01 540.345L1407.15 542.589V549.52L1411.01 547.276V540.345ZM1418.65 535.943L1414.79 538.187V545.117L1418.65 542.873V535.943ZM1426.29 531.54L1422.43 533.784V540.715L1426.29 538.471V531.54ZM1433.93 527.138L1430.07 529.382V536.312L1433.93 534.068V527.138ZM1380.47 578.32L1376.61 580.564V573.634L1380.47 571.39V578.32ZM1388.12 566.988L1384.25 569.231V576.162L1388.12 573.918V566.988ZM1395.76 562.585L1391.89 564.829V571.759L1395.76 569.515V562.585ZM1403.4 558.183L1399.53 560.426V567.357L1403.4 565.113V558.183ZM1411.04 553.78L1407.18 556.024V562.954L1411.04 560.71V553.78ZM1418.68 549.378L1414.82 551.621V558.552L1418.68 556.308V549.378ZM1426.32 544.975L1422.46 547.219V554.149L1426.32 551.905V544.975ZM1433.96 540.573L1430.1 542.816V549.747L1433.96 547.503V540.573ZM1380.5 591.755L1376.64 593.999V587.069L1380.5 584.825V591.755ZM1388.14 580.422L1384.28 582.666V589.596L1388.14 587.353V580.422ZM1395.79 576.02L1391.92 578.264V585.194L1395.79 582.95V576.02ZM1403.43 571.617L1399.56 573.861V580.791L1403.43 578.548V571.617ZM1411.07 567.215L1407.2 569.459V576.389L1411.07 574.145V567.215ZM1418.71 562.812L1414.85 565.056V571.986L1418.71 569.743V562.812ZM1426.35 558.41L1422.49 560.654V567.584L1426.35 565.34V558.41ZM1433.99 554.007L1430.13 556.251V563.182L1433.99 560.938V554.007ZM1380.53 605.19L1376.67 607.434V600.503L1380.53 598.259V605.19ZM1388.17 593.857L1384.31 596.101V603.031L1388.17 600.787V593.857ZM1395.81 589.454L1391.95 591.698V598.629L1395.81 596.385V589.454ZM1403.45 585.052L1399.59 587.296V594.226L1403.45 591.982V585.052ZM1411.1 580.649L1407.23 582.893V589.824L1411.1 587.58V580.649ZM1418.74 576.247L1414.87 578.491V585.421L1418.74 583.177V576.247ZM1426.38 571.844L1422.52 574.088V581.019L1426.38 578.775V571.844ZM1434.02 567.442L1430.16 569.686V576.616L1434.02 574.372V567.442Z" fill="#001D23"/>
</g>
<g style="mix-blend-mode:multiply" opacity="0.6">
<path d="M1363.97 517.68L1367.84 519.924V526.854L1363.97 524.611V517.68ZM1356.33 520.208L1360.19 522.452V515.522L1356.33 513.278V520.208ZM1348.69 515.806L1352.55 518.049V511.119L1348.69 508.875V515.806ZM1341.05 511.403L1344.91 513.647V506.717L1341.05 504.473V511.403ZM1333.41 507.001L1337.27 509.245V502.314L1333.41 500.07V507.001ZM1363.97 531.115L1367.84 533.359V540.289L1363.97 538.045V531.115ZM1356.33 533.643L1360.19 535.887V528.956L1356.33 526.712V533.643ZM1348.69 529.24L1352.55 531.484V524.554L1348.69 522.31V529.24ZM1341.05 524.838L1344.91 527.082V520.151L1341.05 517.907V524.838ZM1333.41 520.435L1337.27 522.679V515.749L1333.41 513.505V520.435ZM1363.97 544.55L1367.84 546.793V553.724L1363.97 551.48V544.55ZM1356.33 547.077L1360.19 549.321V542.391L1356.33 540.147V547.077ZM1348.69 542.675L1352.55 544.919V537.988L1348.69 535.745V542.675ZM1341.05 538.272L1344.91 540.516V533.586L1341.05 531.342V538.272ZM1333.41 533.87L1337.27 536.114V529.183L1333.41 526.94V533.87ZM1363.97 557.984L1367.84 560.228V567.158L1363.97 564.915V557.984ZM1356.33 560.512L1360.19 562.756V555.826L1356.33 553.582V560.512ZM1348.69 556.11L1352.55 558.353V551.423L1348.69 549.179V556.11ZM1341.05 551.707L1344.91 553.951V547.021L1341.05 544.777V551.707ZM1333.41 547.305L1337.27 549.549V542.618L1333.41 540.374V547.305ZM1363.97 571.419L1367.84 573.663V580.593L1363.97 578.349V571.419ZM1356.33 573.947L1360.19 576.191V569.26L1356.33 567.016V573.947ZM1348.69 569.544L1352.55 571.788V564.858L1348.69 562.614V569.544ZM1341.05 565.142L1344.91 567.386V560.455L1341.05 558.211V565.142ZM1333.41 560.739L1337.27 562.983V556.053L1333.41 553.809V560.739ZM1363.97 584.854L1367.84 587.097V594.028L1363.97 591.784V584.854ZM1356.33 587.381L1360.19 589.625V582.695L1356.33 580.451V587.381ZM1348.69 582.979L1352.55 585.223V578.292L1348.69 576.049V582.979ZM1341.05 578.576L1344.91 580.82V573.89L1341.05 571.646V578.576ZM1333.41 574.174L1337.27 576.418V569.487L1333.41 567.244V574.174ZM1363.97 598.288L1367.84 600.532V607.462L1363.97 605.219V598.288ZM1356.33 600.816L1360.19 603.06V596.13L1356.33 593.886V600.816ZM1348.69 596.414L1352.55 598.657V591.727L1348.69 589.483V596.414ZM1341.05 592.011L1344.91 594.255V587.325L1341.05 585.081V592.011ZM1333.41 587.609L1337.27 589.853V582.922L1333.41 580.678V587.609Z" fill="#001D23"/>
</g>
</g>
<g style="mix-blend-mode:multiply" opacity="0.6">
<g style="mix-blend-mode:multiply" opacity="0.6">
<path d="M832.268 475.444L836.018 477.603V484.334L832.268 482.175V475.444ZM824.854 477.887L828.604 480.045V473.314L824.854 471.155V477.887ZM817.44 473.598L821.19 475.756V469.025L817.44 466.866V473.598ZM810.026 469.309L813.776 471.468V464.736L810.026 462.577V469.309ZM802.612 465.02L806.362 467.179V460.447L802.612 458.288V465.02ZM795.198 460.731L798.948 462.89V456.158L795.198 454V460.731ZM787.784 456.442L791.534 458.601V451.869L787.784 449.711V456.442ZM780.37 452.153L784.12 454.312V447.581L780.37 445.422V452.153ZM832.24 488.367L835.989 490.526V497.258L832.24 495.099V488.367ZM824.826 490.81L828.575 492.969V486.237L824.826 484.078V490.81ZM817.412 486.521L821.161 488.68V481.948L817.412 479.79V486.521ZM809.998 482.232L813.747 484.391V477.659L809.998 475.501V482.232ZM802.584 477.943L806.333 480.102V473.371L802.584 471.212V477.943ZM795.17 473.655L798.919 475.813V469.082L795.17 466.923V473.655ZM787.756 469.366L791.505 471.524V464.793L787.756 462.634V469.366ZM780.342 465.077L784.091 467.235V460.504L780.342 458.345V465.077ZM832.211 501.291L835.961 503.449V510.181L832.211 508.022V501.291ZM824.797 503.733L828.547 505.892V499.161L824.797 497.002V503.733ZM817.383 499.445L821.133 501.603V494.872L817.383 492.713V499.445ZM809.969 495.156L813.719 497.314V490.583L809.969 488.424V495.156ZM802.555 490.867L806.305 493.025V486.294L802.555 484.135V490.867ZM795.141 486.578L798.891 488.737V482.005L795.141 479.846V486.578ZM787.727 482.289L791.477 484.448V477.716L787.727 475.558V482.289ZM780.313 478L784.063 480.159V473.427L780.313 471.269V478ZM832.183 514.214L835.933 516.373V523.104L832.183 520.946V514.214ZM824.769 516.657L828.519 518.815V512.084L824.769 509.925V516.657ZM817.355 512.368L821.105 514.527V507.795L817.355 505.636V512.368ZM809.941 508.079L813.691 510.238V503.506L809.941 501.348V508.079ZM802.527 503.79L806.277 505.949V499.217L802.527 497.059V503.79ZM795.113 499.501L798.863 501.66V494.928L795.113 492.77V499.501ZM787.699 495.212L791.449 497.371V490.64L787.699 488.481V495.212ZM780.285 490.924L784.035 493.082V486.351L780.285 484.192V490.924ZM883.996 505.068L887.745 507.227V513.959L883.996 511.8V505.068ZM876.582 507.511L880.331 509.67V502.938L876.582 500.78V507.511ZM869.168 503.222L872.917 505.381V498.649L869.168 496.491V503.222ZM861.754 498.933L865.503 501.092V494.36L861.754 492.202V498.933ZM854.34 494.644L858.089 496.803V490.072L854.34 487.913V494.644ZM846.926 490.356L850.675 492.514V485.783L846.926 483.624V490.356ZM839.512 486.067L843.261 488.225V481.494L839.512 479.335V486.067ZM883.967 517.992L887.717 520.15V526.882L883.967 524.723V517.992ZM876.553 520.434L880.303 522.593V515.862L876.553 513.703V520.434ZM869.139 516.146L872.889 518.304V511.573L869.139 509.414V516.146ZM861.725 511.857L865.475 514.015V507.284L861.725 505.125V511.857ZM854.311 507.568L858.061 509.726V502.995L854.311 500.836V507.568ZM846.897 503.279L850.647 505.438V498.706L846.897 496.547V503.279ZM839.483 498.99L843.233 501.149V494.417L839.483 492.259V498.99ZM883.939 530.915L887.688 533.074V539.805L883.939 537.647V530.915ZM876.525 533.358L880.274 535.516V528.785L876.525 526.626V533.358ZM869.111 529.069L872.86 531.228V524.496L869.111 522.337V529.069ZM861.697 524.78L865.446 526.939V520.207L861.697 518.049V524.78ZM854.283 520.491L858.032 522.65V515.918L854.283 513.76V520.491ZM846.869 516.202L850.618 518.361V511.629L846.869 509.471V516.202ZM839.455 511.914L843.205 514.072V507.341L839.455 505.182V511.914ZM883.91 543.839L887.66 545.997V552.729L883.91 550.57V543.839ZM876.496 546.281L880.246 548.44V541.708L876.496 539.55V546.281ZM869.082 541.992L872.832 544.151V537.419L869.082 535.261V541.992ZM861.668 537.704L865.418 539.862V533.131L861.668 530.972V537.704ZM854.254 533.415L858.004 535.573V528.842L854.254 526.683V533.415ZM846.84 529.126L850.59 531.284V524.553L846.84 522.394V529.126ZM839.426 524.837L843.176 526.996V520.264L839.426 518.105V524.837Z" fill="#001D23"/>
</g>
<g style="mix-blend-mode:multiply" opacity="0.6">
<path d="M1445.52 708.891L1449.27 711.049V704.318L1445.52 702.159V708.891V708.891ZM1438.11 704.602L1441.86 706.76V700.029L1438.11 697.87V704.602ZM1430.7 700.313L1434.45 702.472V695.74L1430.7 693.581V700.313ZM1423.28 696.024L1427.03 698.183V691.451L1423.28 689.293V696.024ZM1415.87 691.735L1419.62 693.894V687.162L1415.87 685.004V691.735ZM1408.45 687.446L1412.2 689.605V682.873L1408.45 680.715V687.446Z" fill="#001D23"/>
</g>
<g style="mix-blend-mode:multiply" opacity="0.6">
<path d="M1023.13 586.33L1026.88 588.488V595.22L1023.13 593.061V586.33ZM1015.71 588.772L1019.46 590.931V584.199L1015.71 582.041V588.772ZM1008.3 584.483L1012.05 586.642V579.911L1008.3 577.752V584.483ZM1000.88 580.195L1004.63 582.353V575.622L1000.88 573.463V580.195ZM993.471 575.906L997.22 578.064V571.333L993.471 569.174V575.906ZM986.057 571.617L989.806 573.776V567.044L986.057 564.885V571.617ZM978.643 567.328L982.392 569.487V562.755L978.643 560.596V567.328ZM971.229 563.039L974.978 565.198V558.466L971.229 556.308V563.039ZM978.643 580.308L982.392 582.467V575.735L978.643 573.577V580.308ZM971.229 576.019L974.978 578.178V571.446L971.229 569.288V576.019ZM978.643 593.288L982.392 595.447V588.716L978.643 586.557V593.288ZM971.229 589L974.978 591.158V584.427L971.229 582.268V589ZM978.643 606.269L982.392 608.427V601.696L978.643 599.537V606.269ZM971.229 601.98L974.978 604.138V597.407L971.229 595.248V601.98ZM1067.53 618.567L1071.28 620.726V613.994L1067.53 611.836V618.567ZM1060.11 614.278L1063.86 616.437V609.705L1060.11 607.547V614.278ZM1052.7 609.989L1056.45 612.148V605.417L1052.7 603.258V609.989ZM1045.28 605.701L1049.03 607.859V601.128L1045.28 598.969V605.701ZM1037.87 601.412L1041.62 603.57V596.839L1037.87 594.68V601.412ZM1030.46 597.123L1034.21 599.281V592.55L1030.46 590.391V597.123ZM1067.5 631.519L1071.25 633.678V626.946L1067.5 624.787V631.519ZM1067.5 644.528L1071.25 646.686V639.955L1067.5 637.796V644.528ZM1067.5 657.536L1071.25 659.695V652.963L1067.5 650.805V657.536Z" fill="#001D23"/>
</g>
<g style="mix-blend-mode:multiply" opacity="0.6">
<path d="M1110.84 634.671L1114.42 632.597V639.016L1110.84 641.09V634.671ZM1110.84 616.294L1114.42 614.22V607.801L1110.84 609.875V616.294ZM1110.84 603.91L1114.42 601.837V595.418L1110.84 597.491V603.91ZM1103.77 608L1107.35 605.927V599.508L1103.77 601.581V608ZM1103.77 632.768L1107.35 630.694V624.275L1103.77 626.349V632.768ZM1103.77 620.384L1107.35 618.31V611.891L1103.77 613.965V620.384ZM1103.77 645.151L1107.35 643.078V636.659L1103.77 638.732V645.151ZM1124.96 632.91L1128.54 630.836V624.417L1124.96 626.49V632.91ZM1117.89 599.82L1121.47 597.747V591.327L1117.89 593.401V599.82ZM1117.89 612.204L1121.47 610.13V603.711L1117.89 605.785V612.204ZM1117.89 636.971L1121.47 634.898V628.479L1117.89 630.552V636.971ZM1117.89 624.587L1121.47 622.514V616.095L1117.89 618.168V624.587ZM1082.61 620.185L1086.19 618.112V611.693L1082.61 613.766V620.185ZM1124.96 620.526L1128.54 618.452V612.033L1124.96 614.107V620.526ZM1089.65 640.919L1093.23 638.846V632.427L1089.65 634.5V640.919ZM1089.65 653.303L1093.23 651.23V644.811L1089.65 646.884V653.303ZM1082.61 632.597L1086.19 630.524V624.105L1082.61 626.178V632.597ZM1082.61 657.365L1086.19 655.291V648.872L1082.61 650.946V657.365ZM1082.61 644.981L1086.19 642.907V636.488L1082.61 638.562V644.981ZM1096.73 624.445L1100.31 622.372V615.953L1096.73 618.026V624.445ZM1096.73 612.062L1100.31 609.988V603.569L1096.73 605.643V612.062ZM1096.73 636.829L1100.31 634.756V628.337L1096.73 630.41V636.829ZM1096.73 649.213L1100.31 647.14V640.72L1096.73 642.794V649.213ZM1089.65 616.123L1093.23 614.05V607.631L1089.65 609.704V616.123ZM1089.65 628.507L1093.23 626.434V620.015L1089.65 622.088V628.507ZM1110.84 628.678L1114.42 626.604V620.185L1110.84 622.258V628.678ZM1124.96 608.142L1128.54 606.069V599.65L1124.96 601.723V608.142ZM1124.96 595.758L1128.54 593.685V587.266L1124.96 589.339V595.758ZM1132.04 591.668L1135.61 589.595V583.176L1132.04 585.249V591.668ZM1132.04 628.848L1135.61 626.775V620.355L1132.04 622.429V628.848ZM1132.04 604.08L1135.61 602.007V595.588L1132.04 597.661V604.08ZM1132.04 616.464L1135.61 614.391V607.972L1132.04 610.045V616.464Z" fill="#001D23"/>
</g>
<g style="mix-blend-mode:multiply" opacity="0.6">
<path d="M1224.67 701.39L1228.25 699.317V692.898L1224.67 694.971V701.39ZM1224.67 689.006L1228.25 686.933V680.514L1224.67 682.587V689.006ZM1217.6 693.096L1221.18 691.023V684.604L1217.6 686.677V693.096ZM1217.6 705.48L1221.18 703.407V696.988L1217.6 699.061V705.48ZM1231.72 684.945L1235.3 682.871V676.452L1231.72 678.526V684.945ZM1231.72 697.328L1235.3 695.255V688.836L1231.72 690.909V697.328ZM1196.44 705.31L1200.01 703.236V696.817L1196.44 698.891V705.31ZM1196.44 717.693L1200.01 715.62V709.201L1196.44 711.274V717.693ZM1210.55 709.542L1214.13 707.468V701.049L1210.55 703.123V709.542ZM1210.55 697.158L1214.13 695.085V688.665L1210.55 690.739V697.158ZM1203.48 701.248L1207.06 699.175V692.755L1203.48 694.829V701.248ZM1203.48 713.632L1207.06 711.558V705.139L1203.48 707.213V713.632Z" fill="#001D23"/>
</g>
<g style="mix-blend-mode:multiply" opacity="0.6">
<path d="M1018.04 645.55L1014.47 643.477V649.896L1018.04 651.969V645.55ZM1018.04 633.167L1014.47 631.093V637.512L1018.04 639.586V633.167ZM1025.12 637.257L1021.54 635.183V641.602L1025.12 643.676V637.257ZM1025.12 649.64L1021.54 647.567V653.986L1025.12 656.06V649.64ZM1011 629.105L1007.42 627.032V633.451L1011 635.524V629.105ZM1011 641.489L1007.42 639.415V645.834L1011 647.908V641.489ZM1032.19 653.73L1028.61 651.657V658.076L1032.19 660.15V653.73ZM1032.19 641.347L1028.61 639.273V645.692L1032.19 647.766V641.347ZM1003.93 637.427L1000.35 635.354V641.773L1003.93 643.846V637.427ZM1003.93 625.043L1000.35 622.97V629.389L1003.93 631.462V625.043ZM996.853 620.953L993.274 618.88V625.299L996.853 627.372V620.953ZM996.853 633.337L993.274 631.264V637.683L996.853 639.756V633.337Z" fill="#001D23"/>
</g>
<g style="mix-blend-mode:multiply" opacity="0.6">
<path d="M1137.83 707.753L1134.25 705.679V712.098L1137.83 714.172V707.753ZM1130.76 703.663L1127.18 701.589V708.008L1130.76 710.082V703.663ZM1123.68 699.573L1120.1 697.499V703.918L1123.68 705.992V699.573ZM1116.61 695.483L1113.03 693.409V699.828L1116.61 701.902V695.483Z" fill="#001D23"/>
</g>
<g style="mix-blend-mode:multiply" opacity="0.6">
<path d="M908.592 510.182L904.842 512.341V505.61L908.592 503.451V510.182ZM916.006 499.19L912.256 501.349V508.081L916.006 505.922V499.19ZM923.42 494.902L919.67 497.06V503.792L923.42 501.633V494.902ZM930.834 490.613L927.084 492.771V499.503L930.834 497.344V490.613ZM938.248 486.324L934.498 488.482V495.214L938.248 493.055V486.324ZM945.662 482.035L941.912 484.194V490.925L945.662 488.767V482.035ZM953.076 477.746L949.326 479.905V486.636L953.076 484.478V477.746ZM908.62 523.134L904.871 525.293V518.561L908.62 516.403V523.134ZM916.034 512.142L912.285 514.301V521.032L916.034 518.874V512.142ZM923.448 507.853L919.699 510.012V516.744L923.448 514.585V507.853ZM930.862 503.564L927.113 505.723V512.455L930.862 510.296V503.564ZM938.276 499.276L934.527 501.434V508.166L938.276 506.007V499.276ZM945.69 494.987L941.941 497.145V503.877L945.69 501.718V494.987ZM953.104 490.698L949.355 492.857V499.588L953.104 497.429V490.698ZM908.649 536.086L904.899 538.245V531.513L908.649 529.354V536.086ZM916.063 525.094L912.313 527.253V533.984L916.063 531.826V525.094ZM923.477 520.805L919.727 522.964V529.695L923.477 527.537V520.805ZM930.891 516.516L927.141 518.675V525.406L930.891 523.248V516.516ZM938.305 512.227L934.555 514.386V521.118L938.305 518.959V512.227ZM945.719 507.939L941.969 510.097V516.829L945.719 514.67V507.939ZM953.133 503.65L949.383 505.808V512.54L953.133 510.381V503.65ZM908.677 549.038L904.928 551.196V544.465L908.677 542.306V549.038ZM916.091 538.046L912.342 540.204V546.936L916.091 544.777V538.046ZM923.505 533.757L919.756 535.916V542.647L923.505 540.489V533.757ZM930.919 529.468L927.17 531.627V538.358L930.919 536.2V529.468ZM938.333 525.179L934.584 527.338V534.069L938.333 531.911V525.179ZM945.747 520.89L941.998 523.049V529.781L945.747 527.622V520.89ZM953.161 516.601L949.412 518.76V525.492L953.161 523.333V516.601Z" fill="#001D23"/>
</g>
<g style="mix-blend-mode:multiply" opacity="0.6">
<path d="M1299.24 188.006L1303.95 185.279V491.606L1299.24 494.333V188.006ZM1309.55 488.397L1314.26 485.67V179.343L1309.55 182.07V488.397ZM1319.86 482.432L1324.57 479.706V173.378L1319.86 176.105V482.432ZM1330.17 476.468L1334.89 473.741V167.414L1330.17 170.14V476.468ZM1340.48 470.503L1345.2 467.776V161.477L1340.48 164.204V470.531V470.503ZM1350.79 158.211V464.538L1355.51 461.812V155.513L1350.79 158.239V158.211Z" fill="#001D23"/>
</g>
<g style="mix-blend-mode:multiply" opacity="0.6">
<path d="M1289.01 602.548L1284.29 599.821V185.307L1289.01 188.033V602.548ZM1278.7 182.069L1273.98 179.342V593.857L1278.7 596.583V182.069V182.069ZM1268.38 176.104L1263.67 173.377V587.921L1268.38 590.647V176.104V176.104ZM1258.07 170.139L1253.36 167.413V581.956L1258.07 584.683V170.139ZM1247.76 164.175L1243.05 161.448V575.991L1247.76 578.718V164.175ZM1232.74 155.483V570.027L1237.45 572.753V158.238L1232.74 155.512V155.483Z" fill="#001D23"/>
</g>
<g style="mix-blend-mode:multiply" opacity="0.6">
<path d="M1303.3 506.915L1299.43 509.159V502.228L1303.3 499.985V506.915ZM1310.94 495.582L1307.08 497.826V504.756L1310.94 502.513V495.582ZM1318.58 491.18L1314.72 493.424V500.354L1318.58 498.11V491.18ZM1303.3 520.321L1299.43 522.565V515.635L1303.3 513.391V520.321ZM1310.94 508.988L1307.08 511.232V518.163L1310.94 515.919V508.988ZM1318.58 504.586L1314.72 506.83V513.76L1318.58 511.516V504.586ZM1303.3 533.728L1299.43 535.971V529.041L1303.3 526.797V533.728ZM1310.94 522.395L1307.08 524.639V531.569L1310.94 529.325V522.395ZM1318.58 517.992L1314.72 520.236V527.166L1318.58 524.923V517.992ZM1303.3 547.134L1299.43 549.378V542.447L1303.3 540.203V547.134ZM1310.94 535.801L1307.08 538.045V544.975L1310.94 542.731V535.801ZM1318.58 531.398L1314.72 533.642V540.573L1318.58 538.329V531.398ZM1303.3 560.54L1299.43 562.784V555.854L1303.3 553.61V560.54ZM1310.94 549.207L1307.08 551.451V558.381L1310.94 556.138V549.207ZM1318.58 544.805L1314.72 547.049V553.979L1318.58 551.735V544.805ZM1303.3 573.946L1299.43 576.19V569.26L1303.3 567.016V573.946ZM1310.94 562.613L1307.08 564.857V571.788L1310.94 569.544V562.613ZM1318.58 558.211L1314.72 560.455V567.385L1318.58 565.141V558.211ZM1303.3 587.353L1299.43 589.596V582.666L1303.3 580.422V587.353ZM1310.94 576.02L1307.08 578.264V585.194L1310.94 582.95V576.02ZM1318.58 571.617L1314.72 573.861V580.791L1318.58 578.548V571.617ZM1303.3 600.787L1299.43 603.031V596.101L1303.3 593.857V600.787ZM1310.94 589.454L1307.08 591.698V598.629L1310.94 596.385V589.454ZM1318.58 585.052L1314.72 587.296V594.226L1318.58 591.982V585.052Z" fill="#001D23"/>
</g>
</g>
<path d="M1253.13 589.027L1259.1 585.59C1260.57 584.738 1261.77 585.249 1261.77 586.726V594.992C1261.77 596.469 1262.96 596.951 1264.44 596.128L1272.7 591.356C1274.18 590.504 1275.37 591.015 1275.37 592.492V598.457C1275.37 599.934 1274.18 601.808 1272.7 602.66L1264.44 607.432C1262.96 608.284 1261.77 610.159 1261.77 611.636V619.844C1261.77 621.321 1260.57 623.196 1259.1 624.048L1250.46 629.019V593.287C1250.46 591.81 1251.65 589.936 1253.13 589.084V589.027Z" fill="#006058"/>
<path d="M1293.81 558.72L1302.44 553.75V545.115C1302.44 543.638 1301.25 543.155 1299.77 543.979L1293.81 547.416C1292.33 548.268 1291.14 550.142 1291.14 551.619V557.584C1291.14 559.061 1292.33 559.544 1293.81 558.72Z" fill="white"/>
<path d="M1324.29 631.006L1332.93 626.036V617.401C1332.93 615.924 1331.73 615.441 1330.26 616.265L1324.29 619.702C1322.81 620.554 1321.62 622.429 1321.62 623.906V629.87C1321.62 631.347 1322.81 631.83 1324.29 631.006Z" fill="#48CA2D"/>
<path d="M1280.26 614.05L1288.89 609.079V617.714C1288.89 619.191 1287.7 621.065 1286.22 621.917L1280.26 625.354C1278.78 626.206 1277.59 625.695 1277.59 624.218V618.253C1277.59 616.776 1278.78 614.902 1280.26 614.05Z" fill="#00C8B5"/>
<path d="M1252.37 682.928L1261 677.958V669.323C1261 667.846 1259.81 667.363 1258.33 668.187L1252.37 671.624C1250.89 672.476 1249.7 674.35 1249.7 675.827V681.792C1249.7 683.269 1250.89 683.752 1252.37 682.928Z" fill="white"/>
<path d="M1266.68 626.376L1275.32 621.406V612.771C1275.32 611.294 1274.12 610.812 1272.65 611.635L1266.68 615.072C1265.21 615.924 1264.01 617.799 1264.01 619.276V625.24C1264.01 626.717 1265.21 627.2 1266.68 626.376Z" fill="#48CA2D"/>
<path d="M1293.83 619.757L1302.07 614.986C1303.55 614.134 1304.74 612.259 1304.74 610.782V602.517C1304.74 601.04 1305.94 599.165 1307.41 598.313L1313.38 594.876C1314.86 594.024 1316.05 594.535 1316.05 596.012V615.554C1316.05 617.031 1314.86 618.905 1313.41 619.757L1305.14 624.529C1303.66 625.381 1302.47 627.256 1302.47 628.704V636.97C1302.47 638.447 1301.28 640.321 1299.8 641.173L1291.16 646.144V623.933C1291.16 622.456 1292.36 620.581 1293.83 619.729V619.757Z" fill="white"/>
<path d="M1266.68 563.095L1272.65 559.658C1274.12 558.806 1275.32 559.317 1275.32 560.794V569.059C1275.32 570.536 1276.51 571.019 1277.99 570.195L1299.8 557.584C1301.28 556.732 1302.47 557.243 1302.47 558.72V567.355L1291.57 573.661C1290.09 574.513 1288.9 576.387 1288.9 577.864V586.129C1288.9 587.606 1287.7 589.481 1286.23 590.333L1280.26 593.77C1278.78 594.622 1277.59 594.111 1277.59 592.634V584.368C1277.59 582.891 1276.4 582.409 1274.92 583.232L1266.68 588.004C1265.21 588.856 1264.01 588.345 1264.01 586.896V567.327C1264.01 565.85 1265.21 563.975 1266.68 563.123V563.095Z" fill="#00C8B5"/>
<path d="M1318.33 593.941V571.73L1326.96 566.759C1328.44 565.907 1329.63 566.418 1329.63 567.895V576.161C1329.63 577.638 1330.83 578.12 1332.3 577.297L1340.57 572.525C1342.05 571.673 1343.24 572.184 1343.24 573.661V593.202C1343.24 594.679 1342.05 596.554 1340.57 597.406L1334.6 600.843C1333.13 601.695 1331.93 601.184 1331.93 599.707V591.441C1331.93 589.964 1330.74 589.482 1329.26 590.305L1321.03 595.077C1319.55 595.929 1318.36 595.418 1318.36 593.969L1318.33 593.941Z" fill="#00C8B5"/>
<path d="M1304.75 543.78C1304.75 542.303 1305.94 540.428 1307.42 539.576L1313.38 536.139C1314.86 535.287 1316.05 535.798 1316.05 537.275V545.541C1316.05 547.018 1317.25 547.5 1318.72 546.677L1340.54 534.066C1342.02 533.214 1343.21 533.725 1343.21 535.202V554.743V557.413L1334.57 562.384C1333.1 563.236 1331.9 562.724 1331.9 561.248V552.982C1331.9 551.505 1330.71 551.022 1329.23 551.846L1307.42 564.457C1305.94 565.309 1304.75 564.798 1304.75 563.321V543.78Z" fill="#006058"/>
<path d="M1307.39 537.305L1326.93 526.028C1328.41 525.176 1329.6 523.302 1329.6 521.825V515.86C1329.6 514.383 1328.41 513.9 1326.93 514.724L1304.72 527.534V536.168C1304.72 537.645 1305.91 538.128 1307.39 537.305Z" fill="#48CA2D"/>
<path d="M1264.22 666.254L1264.05 640.464C1264.05 638.533 1265.18 636.261 1266.63 635.437L1272.51 631.972C1273.96 631.12 1275.15 632 1275.15 633.932L1275.35 663.215L1266.86 668.214C1265.41 669.066 1264.22 668.186 1264.22 666.254V666.254Z" fill="#48CA2D"/>
<path d="M1398.02 215.154V206.52L1406.65 201.549C1408.13 200.697 1409.32 201.208 1409.32 202.685V208.65C1409.32 210.127 1408.13 212.002 1406.65 212.854L1400.69 216.29C1399.21 217.142 1398.02 216.631 1398.02 215.154V215.154Z" fill="white"/>
<path d="M1355.04 258.044V249.409L1346.4 254.38C1344.93 255.232 1343.73 257.106 1343.73 258.583V264.548C1343.73 266.025 1344.93 266.508 1346.4 265.684L1352.37 262.247C1353.85 261.395 1355.04 259.521 1355.04 258.044Z" fill="#48CA2D"/>
<path d="M1357.31 292.462V283.827L1365.95 278.857C1367.42 278.005 1368.62 278.516 1368.62 279.993V285.958C1368.62 287.435 1367.42 289.309 1365.95 290.161L1359.98 293.598C1358.5 294.45 1357.31 293.939 1357.31 292.462Z" fill="#006058"/>
<path d="M1340.38 337.457V328.822L1349.02 323.852C1350.49 323 1351.69 323.511 1351.69 324.988V330.953C1351.69 332.43 1350.49 334.304 1349.02 335.156L1343.05 338.593C1341.57 339.445 1340.38 338.934 1340.38 337.457V337.457Z" fill="#006058"/>
<path d="M1409.32 281.531V290.166L1400.69 295.136C1399.21 295.988 1398.02 295.477 1398.02 294V288.035C1398.02 286.558 1399.21 284.684 1400.69 283.832L1406.65 280.395C1408.13 279.543 1409.32 280.054 1409.32 281.531Z" fill="#48CA2D"/>
<path d="M1409.32 416.844V425.478L1400.69 430.449C1399.21 431.301 1398.02 430.789 1398.02 429.312V423.348C1398.02 421.871 1399.21 419.996 1400.69 419.144L1406.65 415.707C1408.13 414.855 1409.32 415.367 1409.32 416.844V416.844Z" fill="white"/>
<path d="M1394.92 141.987V150.622L1386.28 155.592C1384.81 156.444 1383.61 155.933 1383.61 154.456V148.491C1383.61 147.014 1384.81 145.14 1386.28 144.288L1392.25 140.851C1393.73 139.999 1394.92 140.51 1394.92 141.987V141.987Z" fill="#006058"/>
<path d="M1389.27 234.212V242.846L1380.63 247.817C1379.15 248.669 1377.96 248.158 1377.96 246.681V240.716C1377.96 239.239 1379.15 237.364 1380.63 236.512L1386.6 233.076C1388.07 232.223 1389.27 232.735 1389.27 234.212Z" fill="#006058"/>
<path d="M1411.59 193.739V174.197C1411.59 172.72 1412.79 170.846 1414.26 169.994L1420.23 166.557C1421.71 165.705 1422.9 166.216 1422.9 167.693V189.904L1414.26 194.875C1412.79 195.727 1411.59 195.216 1411.59 193.739V193.739Z" fill="#006058"/>
<path d="M1411.96 162.267L1420.23 157.495C1421.71 156.643 1422.9 154.769 1422.9 153.292V147.327C1422.9 145.85 1421.71 145.367 1420.23 146.191L1400.69 157.467C1399.21 158.319 1398.02 160.194 1398.02 161.671V181.212C1398.02 182.689 1399.21 183.172 1400.69 182.348L1409.32 177.377V166.471C1409.32 164.994 1410.52 163.119 1411.99 162.295L1411.96 162.267Z" fill="#48CA2D"/>
<path d="M1344.13 408.095L1352.39 403.323C1353.87 402.471 1355.06 400.597 1355.06 399.12V393.155C1355.06 391.678 1353.87 391.195 1352.39 392.019L1332.85 403.295C1331.37 404.147 1330.18 406.022 1330.18 407.499V427.04C1330.18 428.517 1331.37 429 1332.85 428.176L1341.49 423.206V412.299C1341.49 410.822 1342.68 408.947 1344.16 408.124L1344.13 408.095Z" fill="#48CA2D"/>
<path d="M1355.04 226.486V218.249C1355.04 216.772 1356.23 214.897 1357.71 214.045L1365.97 209.274C1367.45 208.422 1368.64 206.547 1368.64 205.07V199.105C1368.64 197.628 1367.45 197.145 1365.97 197.969L1346.43 209.245C1344.95 210.097 1343.76 211.972 1343.76 213.449V221.714C1343.76 223.191 1342.57 225.066 1341.09 225.889L1332.82 230.661C1331.35 231.513 1330.15 233.388 1330.15 234.865V243.499L1352.37 230.69C1353.84 229.837 1355.04 227.963 1355.04 226.486V226.486Z" fill="#006058"/>
<path d="M1355.04 285.195V265.653C1355.04 264.176 1353.84 263.694 1352.4 264.517L1344.13 269.289C1342.65 270.141 1341.46 269.63 1341.46 268.153V259.888C1341.46 258.411 1340.27 257.928 1338.79 258.751L1330.15 263.722V285.933C1330.15 287.41 1331.35 287.893 1332.82 287.069L1341.09 282.298C1342.57 281.445 1343.76 281.957 1343.76 283.434V291.671C1343.76 293.148 1344.95 293.63 1346.43 292.807L1352.4 289.37C1353.87 288.518 1355.07 286.643 1355.07 285.166L1355.04 285.195Z" fill="#006058"/>
<path d="M1422.9 213.478C1422.9 212.001 1421.71 211.519 1420.23 212.342L1414.26 215.779C1412.79 216.631 1411.59 218.506 1411.59 219.983V228.22C1411.59 229.697 1410.4 231.571 1408.92 232.423L1400.66 237.195C1399.18 238.047 1397.99 239.922 1397.99 241.399V247.363C1397.99 248.84 1399.18 249.323 1400.66 248.499L1408.92 243.728C1410.4 242.876 1411.59 243.387 1411.59 244.864V266.677C1411.59 268.154 1412.79 268.637 1414.26 267.813L1422.9 262.843V213.478Z" fill="#00C8B5"/>
<path d="M1359.95 196.806L1382.17 183.968V175.333C1382.17 173.856 1380.97 173.373 1379.5 174.197L1371.23 178.969C1369.75 179.821 1368.56 179.309 1368.56 177.833V169.567C1368.56 168.09 1367.37 167.607 1365.89 168.431L1346.35 179.707C1344.87 180.559 1343.68 182.434 1343.68 183.882V189.847C1343.68 191.324 1344.87 191.807 1346.35 190.983L1354.61 186.211C1356.09 185.359 1357.28 185.871 1357.28 187.348V195.613C1357.28 197.09 1358.45 197.601 1359.92 196.749L1359.95 196.806Z" fill="#00C8B5"/>
<path d="M1382.2 204.758C1382.2 203.281 1381 202.798 1379.53 203.622L1373.56 207.058C1372.08 207.91 1370.89 209.785 1370.89 211.262V219.527C1370.89 221.004 1369.7 222.879 1368.22 223.731L1359.95 228.503C1358.48 229.355 1357.28 231.229 1357.28 232.706V252.248C1357.28 253.725 1358.48 254.207 1359.95 253.384L1368.59 248.413V237.506C1368.59 236.029 1369.78 234.155 1371.26 233.331L1379.5 228.588C1380.97 227.736 1382.17 225.861 1382.17 224.384V204.814L1382.2 204.758Z" fill="#48CA2D"/>
<path d="M1378.87 357.738V349.501C1378.87 348.024 1380.06 346.149 1381.54 345.297L1389.81 340.526C1391.28 339.673 1392.48 337.799 1392.48 336.322V330.357C1392.48 328.88 1391.28 328.397 1389.81 329.221L1370.26 340.497C1368.79 341.349 1367.59 343.224 1367.59 344.701V352.966C1367.59 354.443 1366.4 356.318 1364.92 357.141L1356.66 361.913C1355.18 362.765 1353.99 364.64 1353.99 366.117V374.751L1376.2 361.942C1377.68 361.089 1378.87 359.215 1378.87 357.738V357.738Z" fill="#00C8B5"/>
<path d="M1383.78 328.056L1406 315.218V306.583C1406 305.106 1404.8 304.623 1403.33 305.447L1395.06 310.219C1393.58 311.071 1392.39 310.559 1392.39 309.083V300.817C1392.39 299.34 1391.2 298.857 1389.72 299.681L1370.18 310.957C1368.7 311.809 1367.51 313.684 1367.51 315.132V321.097C1367.51 322.574 1368.7 323.057 1370.18 322.233L1378.44 317.461C1379.92 316.609 1381.11 317.121 1381.11 318.598V326.863C1381.11 328.34 1382.28 328.851 1383.75 327.999L1383.78 328.056Z" fill="white"/>
<path d="M1406 336.01C1406 334.533 1404.81 334.05 1403.33 334.873L1397.36 338.31C1395.89 339.162 1394.69 341.037 1394.69 342.514V350.779C1394.69 352.256 1393.5 354.131 1392.02 354.983L1383.76 359.755C1382.28 360.607 1381.09 362.481 1381.09 363.958V383.5C1381.09 384.977 1382.28 385.459 1383.76 384.636L1392.39 379.665V368.758C1392.39 367.281 1393.59 365.407 1395.06 364.583L1403.3 359.84C1404.78 358.988 1405.97 357.113 1405.97 355.636V336.066L1406 336.01Z" fill="#006058"/>
<path d="M1100.35 447.503L1094.39 450.94C1092.91 451.792 1091.72 453.667 1091.72 455.144V463.409C1091.72 464.886 1090.53 466.76 1089.05 467.613L1080.78 472.384C1079.3 473.236 1078.11 475.111 1078.11 476.588V482.553C1078.11 484.03 1079.3 484.512 1080.78 483.689L1089.05 478.917C1090.53 478.065 1091.72 478.576 1091.72 480.053V488.262C1091.72 489.739 1092.91 490.221 1094.39 489.398L1103.02 484.427V448.696C1103.02 447.219 1101.83 446.736 1100.35 447.56V447.503Z" fill="#006058"/>
<path d="M1048.68 569.607V563.643C1048.68 562.166 1047.49 561.683 1046.01 562.506L1037.75 567.278C1036.27 568.13 1035.08 567.619 1035.08 566.142V557.877C1035.08 556.4 1033.88 555.917 1032.41 556.741L1026.44 560.177C1024.96 561.03 1023.77 562.904 1023.77 564.381V572.646C1023.77 574.123 1022.58 575.998 1021.1 576.85L1012.89 581.593C1011.42 582.445 1010.22 584.32 1010.22 585.797V594.432L1023.74 586.621L1027.61 584.377L1045.93 573.783C1047.41 572.93 1048.6 571.056 1048.6 569.579L1048.68 569.607Z" fill="#48CA2D"/>
<path d="M1077.54 447.761L1068.91 452.731V444.097C1068.91 442.62 1070.1 440.745 1071.58 439.893L1077.54 436.456C1079.02 435.604 1080.21 436.116 1080.21 437.593V443.557C1080.21 445.034 1079.02 446.909 1077.54 447.761V447.761Z" fill="white"/>
<path d="M1073.23 508.372L1064.59 513.342V521.977C1064.59 523.454 1065.79 523.936 1067.26 523.113L1073.23 519.676C1074.71 518.824 1075.9 516.949 1075.9 515.472V509.508C1075.9 508.031 1074.71 507.548 1073.23 508.372V508.372Z" fill="#48CA2D"/>
<path d="M1100.36 517.572L1091.72 522.543V513.908C1091.72 512.431 1092.91 510.557 1094.39 509.705L1100.36 506.268C1101.83 505.416 1103.03 505.927 1103.03 507.404V513.369C1103.03 514.846 1101.83 516.72 1100.36 517.572V517.572Z" fill="white"/>
<path d="M1046.07 446.706L1026.53 457.982C1025.05 458.834 1023.86 458.323 1023.86 456.846V450.882C1023.86 449.405 1025.05 447.53 1026.53 446.678L1048.74 433.868V442.503C1048.74 443.98 1047.55 445.854 1046.07 446.706Z" fill="#006058"/>
<path d="M1021.58 524.958V544.499C1021.58 545.976 1020.39 547.851 1018.91 548.703L1012.95 552.14C1011.47 552.992 1010.28 552.48 1010.28 551.003V528.792L1018.91 523.822C1020.39 522.97 1021.58 523.481 1021.58 524.958V524.958Z" fill="#006058"/>
<path d="M1059.65 520.725L1051.41 525.497C1049.93 526.349 1048.74 525.838 1048.74 524.361V516.096C1048.74 514.619 1047.55 514.136 1046.07 514.959L1040.1 518.396C1038.63 519.248 1037.43 521.123 1037.43 522.6V542.141C1037.43 543.618 1038.63 544.101 1040.08 543.277L1048.34 538.506C1049.82 537.654 1051.01 538.165 1051.01 539.642V547.907C1051.01 549.384 1052.21 549.867 1053.68 549.043L1062.32 544.073V521.861C1062.32 520.384 1061.13 519.902 1059.65 520.725V520.725Z" fill="white"/>
<path d="M1040.1 495.845C1038.63 496.697 1037.43 498.572 1037.43 500.02V505.985C1037.43 507.462 1038.63 507.945 1040.1 507.121L1048.37 502.349C1049.85 501.497 1051.04 502.008 1051.04 503.485V511.751C1051.04 513.228 1052.23 513.71 1053.71 512.887L1073.25 501.611C1074.73 500.759 1075.93 498.884 1075.93 497.407V488.772L1065.02 495.078C1063.54 495.93 1062.35 495.419 1062.35 493.942V485.677C1062.35 484.2 1061.18 483.688 1059.71 484.54L1040.13 495.845H1040.1Z" fill="#48CA2D"/>
<path d="M1048.71 461.847C1048.71 460.37 1047.52 459.887 1046.04 460.71L1040.08 464.147C1038.6 464.999 1037.41 466.874 1037.41 468.351V476.616C1037.41 478.093 1036.21 479.968 1034.74 480.82L1012.92 493.431C1011.44 494.283 1010.25 496.157 1010.25 497.634V517.176V519.846L1018.88 514.875C1020.36 514.023 1021.55 512.148 1021.55 510.7V502.435C1021.55 500.958 1022.75 499.083 1024.22 498.231L1046.04 485.62C1047.52 484.768 1048.71 482.893 1048.71 481.416V461.875V461.847Z" fill="#00C8B5"/>
</g>
</svg>
