<svg width="1040" height="380" viewBox="0 0 1040 380" fill="none" xmlns="http://www.w3.org/2000/svg">
<path d="M760 100H980C1013.14 100 1040 126.863 1040 160V320C1040 353.137 1013.14 380 980 380H820C786.863 380 760 353.137 760 320V100Z" fill="#001D23"/>
<path opacity="0.08" d="M982 240L818 240" stroke="white" stroke-width="1.5"/>
<g clip-path="url(#clip0_830_9654)">
<path d="M949.638 209.167L949.04 204.5L953.707 205.777" stroke="white" stroke-width="2" stroke-miterlimit="10" stroke-linecap="square"/>
<path d="M950.206 205.053C951.873 208.295 954.559 210.875 957.833 212.381C961.108 213.888 964.784 214.234 968.274 213.365C971.765 212.495 974.869 210.461 977.092 207.586C979.315 204.71 980.528 201.16 980.539 197.5" stroke="white" stroke-width="2" stroke-miterlimit="10"/>
<path d="M978.775 185.833L979.372 190.5L974.706 189.223" stroke="white" stroke-width="2" stroke-miterlimit="10" stroke-linecap="square"/>
<path d="M978.206 189.946C976.539 186.705 973.853 184.125 970.579 182.619C967.304 181.112 963.628 180.766 960.138 181.635C956.647 182.504 953.543 184.539 951.32 187.414C949.097 190.29 947.884 193.84 947.873 197.5" stroke="white" stroke-width="2" stroke-miterlimit="10"/>
<path d="M964.849 198.462C964.659 198.589 964.435 198.657 964.206 198.657C963.899 198.657 963.605 198.535 963.388 198.318C963.171 198.101 963.049 197.807 963.049 197.5C963.049 197.271 963.117 197.047 963.244 196.857C963.371 196.667 963.552 196.519 963.763 196.431C963.975 196.344 964.207 196.321 964.432 196.365C964.656 196.41 964.862 196.52 965.024 196.682L965.856 195.85L965.024 196.682C965.186 196.844 965.296 197.05 965.341 197.274C965.385 197.499 965.362 197.731 965.275 197.943C965.187 198.154 965.039 198.335 964.849 198.462Z" stroke="#00CC8F" stroke-width="2.35305" stroke-miterlimit="10" stroke-linecap="square"/>
<path d="M971.258 197.522C971.261 197.03 971.204 196.539 971.089 196.06L973.495 194.34L971.712 191.383L968.933 192.509C968.18 191.844 967.286 191.345 966.313 191.047L965.948 188.167H962.384L962.018 191.047C961.045 191.345 960.151 191.844 959.399 192.509L956.654 191.348L954.872 194.298L957.269 196.017C957.055 196.981 957.055 197.977 957.269 198.941L954.872 200.66L956.654 203.618L959.434 202.483C960.187 203.151 961.08 203.653 962.054 203.953L962.419 206.834H965.983L966.349 203.953C967.322 203.653 968.216 203.151 968.968 202.483L971.757 203.618L973.539 200.66L971.142 198.941C971.249 198.46 971.303 197.97 971.303 197.479L971.258 197.522Z" stroke="white" stroke-width="2" stroke-miterlimit="10" stroke-linecap="square"/>
</g>
<g clip-path="url(#clip1_830_9654)">
<path d="M837.625 207.162L840.133 206.03L845.506 203.618L847.858 199.124" stroke="#00CC8F" stroke-width="2.35305" stroke-miterlimit="10"/>
<path d="M849.829 198.645C850.605 197.676 850.731 196.489 850.111 195.993C849.491 195.497 848.361 195.881 847.585 196.85C846.81 197.819 846.684 199.006 847.304 199.502C847.924 199.998 849.054 199.614 849.829 198.645Z" stroke="#00CC8F" stroke-width="2.35305" stroke-miterlimit="10" stroke-linecap="square"/>
<path d="M848.676 190.111L846.177 188.97L840.812 186.54L835.883 187.751" stroke="#00CC8F" stroke-width="2.35305" stroke-miterlimit="10"/>
<path d="M834.345 189.525C835.584 189.466 836.558 188.775 836.52 187.982C836.482 187.19 835.447 186.595 834.207 186.654C832.968 186.714 831.994 187.404 832.032 188.197C832.07 188.99 833.105 189.584 834.345 189.525Z" stroke="#00CC8F" stroke-width="2.35305" stroke-miterlimit="10" stroke-linecap="square"/>
<path d="M826.713 190.633V193.385V199.272L829.849 203.261" stroke="#00CC8F" stroke-width="2.35305" stroke-miterlimit="10"/>
<path d="M831.828 206.595C832.535 206.233 832.649 205.044 832.083 203.94C831.518 202.835 830.486 202.233 829.78 202.595C829.074 202.957 828.96 204.145 829.525 205.25C830.091 206.354 831.122 206.956 831.828 206.595Z" stroke="#00CC8F" stroke-width="2.35305" stroke-miterlimit="10" stroke-linecap="square"/>
<path d="M821.871 188.047L837.624 195.136L853.387 188.047" stroke="white" stroke-width="2" stroke-miterlimit="10"/>
<path d="M837.634 195.136V214.051" stroke="white" stroke-width="2" stroke-miterlimit="10"/>
<path d="M853.387 206.953L837.624 214.05L821.871 206.953V188.046L837.624 180.958L853.387 188.046V206.953Z" stroke="white" stroke-width="2" stroke-miterlimit="10" stroke-linecap="square"/>
</g>
<g clip-path="url(#clip2_830_9654)">
<path d="M915.568 214.079L912.002 210.513" stroke="white" stroke-width="2" stroke-miterlimit="10"/>
<path d="M891.507 196.508H896.317L898.723 191.92L901.929 201.095L904.335 196.508H909.145" stroke="#00CC8F" stroke-width="2" stroke-miterlimit="10"/>
<path d="M900.482 211.336C908.813 211.336 915.567 204.582 915.567 196.251C915.567 187.92 908.813 181.167 900.482 181.167C892.151 181.167 885.398 187.92 885.398 196.251C885.398 204.582 892.151 211.336 900.482 211.336Z" stroke="white" stroke-width="2" stroke-miterlimit="10"/>
</g>
<path d="M840.178 269.6V271.184H842.434V278H844.09V271.184H846.358V269.6H840.178ZM850.306 271.832C849.49 271.832 848.89 272.108 848.518 272.672V269.6H846.97V278H848.518V274.76C848.518 273.764 849.034 273.272 849.838 273.272C850.558 273.272 851.026 273.704 851.026 274.508V278H852.574V274.316C852.574 273.536 852.358 272.936 851.926 272.492C851.506 272.048 850.966 271.832 850.306 271.832ZM854.424 271.28C854.952 271.28 855.384 270.848 855.384 270.332C855.384 269.816 854.952 269.372 854.424 269.372C853.908 269.372 853.476 269.816 853.476 270.332C853.476 270.848 853.908 271.28 854.424 271.28ZM855.204 278V272H853.656V278H855.204ZM857.929 272H856.381V278H857.929V275.132C857.929 274.556 858.109 274.148 858.481 273.896C858.853 273.644 859.285 273.548 859.753 273.608V271.88C858.937 271.88 858.217 272.264 857.929 273.032V272ZM864.744 272.708C864.288 272.12 863.64 271.832 862.8 271.832C861.996 271.832 861.3 272.144 860.724 272.756C860.16 273.368 859.872 274.112 859.872 275C859.872 275.888 860.16 276.644 860.724 277.256C861.3 277.868 861.996 278.168 862.8 278.168C863.64 278.168 864.288 277.88 864.744 277.292V278H866.292V269.6H864.744V272.708ZM861.888 276.224C861.576 275.9 861.42 275.492 861.42 275C861.42 274.508 861.576 274.1 861.888 273.788C862.212 273.464 862.608 273.308 863.088 273.308C863.568 273.308 863.964 273.464 864.276 273.788C864.588 274.1 864.744 274.508 864.744 275C864.744 275.492 864.588 275.9 864.276 276.224C863.964 276.536 863.568 276.692 863.088 276.692C862.608 276.692 862.212 276.536 861.888 276.224ZM872.039 275.12V273.632H867.539V275.12H872.039ZM873.358 269.6V278H875.014V275.24H876.49C877.294 275.24 877.978 274.964 878.53 274.424C879.082 273.884 879.358 273.212 879.358 272.42C879.358 271.628 879.082 270.956 878.53 270.416C877.978 269.876 877.294 269.6 876.49 269.6H873.358ZM875.014 273.692V271.148H876.49C877.198 271.148 877.714 271.688 877.714 272.42C877.714 273.14 877.198 273.692 876.49 273.692H875.014ZM884.286 272.708C883.818 272.12 883.17 271.832 882.33 271.832C881.526 271.832 880.842 272.144 880.266 272.756C879.702 273.368 879.414 274.112 879.414 275C879.414 275.888 879.702 276.644 880.266 277.256C880.842 277.868 881.526 278.168 882.33 278.168C883.17 278.168 883.818 277.88 884.286 277.292V278H885.834V272H884.286V272.708ZM881.43 276.224C881.118 275.9 880.962 275.492 880.962 275C880.962 274.508 881.118 274.1 881.43 273.788C881.742 273.464 882.138 273.308 882.618 273.308C883.098 273.308 883.494 273.464 883.806 273.788C884.13 274.1 884.286 274.508 884.286 275C884.286 275.492 884.13 275.9 883.806 276.224C883.494 276.536 883.098 276.692 882.618 276.692C882.138 276.692 881.742 276.536 881.43 276.224ZM888.545 272H886.997V278H888.545V275.132C888.545 274.556 888.725 274.148 889.097 273.896C889.469 273.644 889.901 273.548 890.369 273.608V271.88C889.553 271.88 888.833 272.264 888.545 273.032V272ZM894.631 272H893.275V270.32L891.727 270.788V272H890.683V273.488H891.727V275.984C891.727 277.628 892.507 278.24 894.631 278V276.596C893.743 276.644 893.275 276.632 893.275 275.984V273.488H894.631V272ZM898.191 276.032L896.631 272H894.939L897.399 277.808C897.111 278.624 896.655 278.972 895.827 278.96V280.4C897.363 280.484 898.371 279.728 898.995 278L901.179 272H899.523L898.191 276.032ZM911.708 278L908.756 269.6H906.704L903.764 278H905.552L906.056 276.488H909.404L909.908 278H911.708ZM907.736 271.508L908.888 274.94H906.584L907.736 271.508ZM915.703 271.832C914.863 271.832 914.215 272.12 913.759 272.708V272H912.211V280.4H913.759V277.292C914.215 277.88 914.863 278.168 915.703 278.168C916.507 278.168 917.203 277.868 917.767 277.256C918.343 276.644 918.631 275.888 918.631 275C918.631 274.112 918.343 273.368 917.767 272.756C917.203 272.144 916.507 271.832 915.703 271.832ZM914.227 276.224C913.915 275.9 913.759 275.492 913.759 275C913.759 274.508 913.915 274.1 914.227 273.788C914.539 273.464 914.935 273.308 915.415 273.308C915.895 273.308 916.291 273.464 916.603 273.788C916.927 274.1 917.083 274.508 917.083 275C917.083 275.492 916.927 275.9 916.603 276.224C916.291 276.536 915.895 276.692 915.415 276.692C914.935 276.692 914.539 276.536 914.227 276.224ZM922.975 271.832C922.135 271.832 921.487 272.12 921.031 272.708V272H919.483V280.4H921.031V277.292C921.487 277.88 922.135 278.168 922.975 278.168C923.779 278.168 924.475 277.868 925.039 277.256C925.615 276.644 925.903 275.888 925.903 275C925.903 274.112 925.615 273.368 925.039 272.756C924.475 272.144 923.779 271.832 922.975 271.832ZM921.499 276.224C921.187 275.9 921.031 275.492 921.031 275C921.031 274.508 921.187 274.1 921.499 273.788C921.811 273.464 922.207 273.308 922.687 273.308C923.167 273.308 923.563 273.464 923.875 273.788C924.199 274.1 924.355 274.508 924.355 275C924.355 275.492 924.199 275.9 923.875 276.224C923.563 276.536 923.167 276.692 922.687 276.692C922.207 276.692 921.811 276.536 921.499 276.224ZM928.303 278V269.24H926.755V278H928.303ZM930.248 271.28C930.776 271.28 931.208 270.848 931.208 270.332C931.208 269.816 930.776 269.372 930.248 269.372C929.732 269.372 929.3 269.816 929.3 270.332C929.3 270.848 929.732 271.28 930.248 271.28ZM931.028 278V272H929.48V278H931.028ZM935.06 278.168C936.224 278.168 937.244 277.556 937.772 276.608L936.428 275.84C936.188 276.332 935.672 276.632 935.048 276.632C934.58 276.632 934.196 276.476 933.896 276.176C933.596 275.864 933.44 275.468 933.44 275C933.44 274.04 934.124 273.356 935.048 273.356C935.66 273.356 936.176 273.668 936.416 274.16L937.748 273.38C937.256 272.432 936.224 271.832 935.06 271.832C934.16 271.832 933.404 272.132 932.792 272.744C932.192 273.356 931.892 274.1 931.892 275C931.892 275.9 932.192 276.644 932.792 277.256C933.404 277.868 934.16 278.168 935.06 278.168ZM942.817 272.708C942.349 272.12 941.701 271.832 940.861 271.832C940.057 271.832 939.373 272.144 938.797 272.756C938.233 273.368 937.945 274.112 937.945 275C937.945 275.888 938.233 276.644 938.797 277.256C939.373 277.868 940.057 278.168 940.861 278.168C941.701 278.168 942.349 277.88 942.817 277.292V278H944.365V272H942.817V272.708ZM939.961 276.224C939.649 275.9 939.493 275.492 939.493 275C939.493 274.508 939.649 274.1 939.961 273.788C940.273 273.464 940.669 273.308 941.149 273.308C941.629 273.308 942.025 273.464 942.337 273.788C942.661 274.1 942.817 274.508 942.817 275C942.817 275.492 942.661 275.9 942.337 276.224C942.025 276.536 941.629 276.692 941.149 276.692C940.669 276.692 940.273 276.536 939.961 276.224ZM948.961 272H947.605V270.32L946.057 270.788V272H945.013V273.488H946.057V275.984C946.057 277.628 946.837 278.24 948.961 278V276.596C948.073 276.644 947.605 276.632 947.605 275.984V273.488H948.961V272ZM950.581 271.28C951.109 271.28 951.541 270.848 951.541 270.332C951.541 269.816 951.109 269.372 950.581 269.372C950.065 269.372 949.633 269.816 949.633 270.332C949.633 270.848 950.065 271.28 950.581 271.28ZM951.361 278V272H949.813V278H951.361ZM957.649 277.256C958.261 276.644 958.573 275.888 958.573 275C958.573 274.112 958.261 273.368 957.649 272.756C957.037 272.144 956.281 271.832 955.393 271.832C954.505 271.832 953.749 272.144 953.137 272.756C952.525 273.368 952.225 274.112 952.225 275C952.225 275.888 952.525 276.644 953.137 277.256C953.749 277.868 954.505 278.168 955.393 278.168C956.281 278.168 957.037 277.868 957.649 277.256ZM954.229 276.188C953.929 275.876 953.773 275.48 953.773 275C953.773 274.52 953.929 274.124 954.229 273.812C954.541 273.5 954.925 273.344 955.393 273.344C955.861 273.344 956.245 273.5 956.557 273.812C956.869 274.124 957.025 274.52 957.025 275C957.025 275.48 956.869 275.876 956.557 276.188C956.245 276.5 955.861 276.656 955.393 276.656C954.925 276.656 954.541 276.5 954.229 276.188ZM962.758 271.832C961.942 271.832 961.342 272.108 960.97 272.672V272H959.422V278H960.97V274.76C960.97 273.764 961.486 273.272 962.29 273.272C963.01 273.272 963.478 273.704 963.478 274.508V278H965.026V274.316C965.026 273.536 964.81 272.936 964.378 272.492C963.958 272.048 963.418 271.832 962.758 271.832ZM967.536 273.704C967.536 273.404 967.836 273.212 968.232 273.212C968.676 273.212 969 273.416 969.192 273.824L970.512 273.104C970.044 272.288 969.204 271.832 968.232 271.832C967.584 271.832 967.044 272 966.6 272.348C966.168 272.684 965.952 273.152 965.952 273.74C965.952 274.988 967.068 275.36 967.956 275.588C968.568 275.744 969.048 275.924 969.048 276.248C969.048 276.596 968.772 276.764 968.22 276.764C967.608 276.764 967.224 276.5 967.044 275.984L965.7 276.74C966.144 277.688 966.984 278.168 968.22 278.168C968.904 278.168 969.48 278 969.936 277.676C970.404 277.34 970.632 276.86 970.632 276.248C970.644 274.964 969.504 274.544 968.628 274.364C968.016 274.208 967.536 274.028 967.536 273.704Z" fill="#00C8B5"/>
<path d="M849.25 156.644C849.778 156.224 850.042 155.66 850.042 154.964C850.042 154.28 849.79 153.716 849.298 153.272C848.806 152.828 848.206 152.6 847.486 152.6H844.174V161H847.738C848.47 161 849.094 160.772 849.598 160.316C850.102 159.86 850.354 159.272 850.354 158.564C850.354 157.712 849.982 157.064 849.25 156.644ZM847.486 154.148C848.014 154.148 848.386 154.544 848.386 155.072C848.386 155.6 848.002 155.996 847.486 155.996H845.83V154.148H847.486ZM845.83 159.452V157.472H847.738C848.302 157.472 848.71 157.892 848.71 158.456C848.71 159.032 848.302 159.452 847.738 159.452H845.83ZM852.676 155H851.128V161H852.676V158.132C852.676 157.556 852.856 157.148 853.228 156.896C853.6 156.644 854.032 156.548 854.5 156.608V154.88C853.684 154.88 852.964 155.264 852.676 156.032V155ZM859.502 155.708C859.034 155.12 858.386 154.832 857.546 154.832C856.742 154.832 856.058 155.144 855.482 155.756C854.918 156.368 854.63 157.112 854.63 158C854.63 158.888 854.918 159.644 855.482 160.256C856.058 160.868 856.742 161.168 857.546 161.168C858.386 161.168 859.034 160.88 859.502 160.292V161H861.05V155H859.502V155.708ZM856.646 159.224C856.334 158.9 856.178 158.492 856.178 158C856.178 157.508 856.334 157.1 856.646 156.788C856.958 156.464 857.354 156.308 857.834 156.308C858.314 156.308 858.71 156.464 859.022 156.788C859.346 157.1 859.502 157.508 859.502 158C859.502 158.492 859.346 158.9 859.022 159.224C858.71 159.536 858.314 159.692 857.834 159.692C857.354 159.692 856.958 159.536 856.646 159.224ZM865.07 161.168C866.234 161.168 867.254 160.556 867.782 159.608L866.438 158.84C866.198 159.332 865.682 159.632 865.058 159.632C864.59 159.632 864.206 159.476 863.906 159.176C863.606 158.864 863.45 158.468 863.45 158C863.45 157.04 864.134 156.356 865.058 156.356C865.67 156.356 866.186 156.668 866.426 157.16L867.758 156.38C867.266 155.432 866.234 154.832 865.07 154.832C864.17 154.832 863.414 155.132 862.802 155.744C862.202 156.356 861.902 157.1 861.902 158C861.902 158.9 862.202 159.644 862.802 160.256C863.414 160.868 864.17 161.168 865.07 161.168ZM871.793 155H870.437V153.32L868.889 153.788V155H867.845V156.488H868.889V158.984C868.889 160.628 869.669 161.24 871.793 161V159.596C870.905 159.644 870.437 159.632 870.437 158.984V156.488H871.793V155ZM874.192 161V152.24H872.644V161H874.192ZM881.201 158.636C881.237 158.408 881.261 158.204 881.261 158C881.261 157.1 880.973 156.356 880.397 155.744C879.833 155.132 879.101 154.832 878.225 154.832C877.301 154.832 876.533 155.132 875.945 155.744C875.357 156.344 875.057 157.1 875.057 158C875.057 158.912 875.357 159.668 875.957 160.268C876.557 160.868 877.349 161.168 878.345 161.168C879.497 161.168 880.373 160.736 880.961 159.884L879.713 159.164C879.413 159.56 878.957 159.764 878.369 159.764C877.445 159.764 876.881 159.392 876.677 158.636H881.201ZM876.653 157.436C876.833 156.668 877.397 156.224 878.225 156.224C878.933 156.224 879.533 156.62 879.713 157.436H876.653ZM885.358 155H884.002V153.32L882.454 153.788V155H881.41V156.488H882.454V158.984C882.454 160.628 883.234 161.24 885.358 161V159.596C884.47 159.644 884.002 159.632 884.002 158.984V156.488H885.358V155ZM896.335 161L893.383 152.6H891.331L888.391 161H890.179L890.683 159.488H894.031L894.535 161H896.335ZM892.363 154.508L893.515 157.94H891.211L892.363 154.508ZM900.331 154.832C899.491 154.832 898.843 155.12 898.387 155.708V155H896.839V163.4H898.387V160.292C898.843 160.88 899.491 161.168 900.331 161.168C901.135 161.168 901.831 160.868 902.395 160.256C902.971 159.644 903.259 158.888 903.259 158C903.259 157.112 902.971 156.368 902.395 155.756C901.831 155.144 901.135 154.832 900.331 154.832ZM898.855 159.224C898.543 158.9 898.387 158.492 898.387 158C898.387 157.508 898.543 157.1 898.855 156.788C899.167 156.464 899.563 156.308 900.043 156.308C900.523 156.308 900.919 156.464 901.231 156.788C901.555 157.1 901.711 157.508 901.711 158C901.711 158.492 901.555 158.9 901.231 159.224C900.919 159.536 900.523 159.692 900.043 159.692C899.563 159.692 899.167 159.536 898.855 159.224ZM907.603 154.832C906.763 154.832 906.115 155.12 905.659 155.708V155H904.111V163.4H905.659V160.292C906.115 160.88 906.763 161.168 907.603 161.168C908.407 161.168 909.103 160.868 909.667 160.256C910.243 159.644 910.531 158.888 910.531 158C910.531 157.112 910.243 156.368 909.667 155.756C909.103 155.144 908.407 154.832 907.603 154.832ZM906.127 159.224C905.815 158.9 905.659 158.492 905.659 158C905.659 157.508 905.815 157.1 906.127 156.788C906.439 156.464 906.835 156.308 907.315 156.308C907.795 156.308 908.191 156.464 908.503 156.788C908.827 157.1 908.983 157.508 908.983 158C908.983 158.492 908.827 158.9 908.503 159.224C908.191 159.536 907.795 159.692 907.315 159.692C906.835 159.692 906.439 159.536 906.127 159.224ZM912.93 161V152.24H911.382V161H912.93ZM914.875 154.28C915.403 154.28 915.835 153.848 915.835 153.332C915.835 152.816 915.403 152.372 914.875 152.372C914.359 152.372 913.927 152.816 913.927 153.332C913.927 153.848 914.359 154.28 914.875 154.28ZM915.655 161V155H914.107V161H915.655ZM919.688 161.168C920.852 161.168 921.872 160.556 922.4 159.608L921.056 158.84C920.816 159.332 920.3 159.632 919.676 159.632C919.208 159.632 918.824 159.476 918.524 159.176C918.224 158.864 918.068 158.468 918.068 158C918.068 157.04 918.752 156.356 919.676 156.356C920.288 156.356 920.804 156.668 921.044 157.16L922.376 156.38C921.884 155.432 920.852 154.832 919.688 154.832C918.788 154.832 918.032 155.132 917.42 155.744C916.82 156.356 916.52 157.1 916.52 158C916.52 158.9 916.82 159.644 917.42 160.256C918.032 160.868 918.788 161.168 919.688 161.168ZM927.445 155.708C926.977 155.12 926.329 154.832 925.489 154.832C924.685 154.832 924.001 155.144 923.425 155.756C922.861 156.368 922.573 157.112 922.573 158C922.573 158.888 922.861 159.644 923.425 160.256C924.001 160.868 924.685 161.168 925.489 161.168C926.329 161.168 926.977 160.88 927.445 160.292V161H928.993V155H927.445V155.708ZM924.589 159.224C924.277 158.9 924.121 158.492 924.121 158C924.121 157.508 924.277 157.1 924.589 156.788C924.901 156.464 925.297 156.308 925.777 156.308C926.257 156.308 926.653 156.464 926.965 156.788C927.289 157.1 927.445 157.508 927.445 158C927.445 158.492 927.289 158.9 926.965 159.224C926.653 159.536 926.257 159.692 925.777 159.692C925.297 159.692 924.901 159.536 924.589 159.224ZM933.589 155H932.233V153.32L930.685 153.788V155H929.641V156.488H930.685V158.984C930.685 160.628 931.465 161.24 933.589 161V159.596C932.701 159.644 932.233 159.632 932.233 158.984V156.488H933.589V155ZM935.208 154.28C935.736 154.28 936.168 153.848 936.168 153.332C936.168 152.816 935.736 152.372 935.208 152.372C934.692 152.372 934.26 152.816 934.26 153.332C934.26 153.848 934.692 154.28 935.208 154.28ZM935.988 161V155H934.44V161H935.988ZM942.277 160.256C942.889 159.644 943.201 158.888 943.201 158C943.201 157.112 942.889 156.368 942.277 155.756C941.665 155.144 940.909 154.832 940.021 154.832C939.133 154.832 938.377 155.144 937.765 155.756C937.153 156.368 936.853 157.112 936.853 158C936.853 158.888 937.153 159.644 937.765 160.256C938.377 160.868 939.133 161.168 940.021 161.168C940.909 161.168 941.665 160.868 942.277 160.256ZM938.857 159.188C938.557 158.876 938.401 158.48 938.401 158C938.401 157.52 938.557 157.124 938.857 156.812C939.169 156.5 939.553 156.344 940.021 156.344C940.489 156.344 940.873 156.5 941.185 156.812C941.497 157.124 941.653 157.52 941.653 158C941.653 158.48 941.497 158.876 941.185 159.188C940.873 159.5 940.489 159.656 940.021 159.656C939.553 159.656 939.169 159.5 938.857 159.188ZM947.386 154.832C946.57 154.832 945.97 155.108 945.598 155.672V155H944.05V161H945.598V157.76C945.598 156.764 946.114 156.272 946.918 156.272C947.638 156.272 948.106 156.704 948.106 157.508V161H949.654V157.316C949.654 156.536 949.438 155.936 949.006 155.492C948.586 155.048 948.046 154.832 947.386 154.832ZM952.164 156.704C952.164 156.404 952.464 156.212 952.86 156.212C953.304 156.212 953.628 156.416 953.82 156.824L955.14 156.104C954.672 155.288 953.832 154.832 952.86 154.832C952.212 154.832 951.672 155 951.228 155.348C950.796 155.684 950.58 156.152 950.58 156.74C950.58 157.988 951.696 158.36 952.584 158.588C953.196 158.744 953.676 158.924 953.676 159.248C953.676 159.596 953.4 159.764 952.848 159.764C952.236 159.764 951.852 159.5 951.672 158.984L950.328 159.74C950.772 160.688 951.612 161.168 952.848 161.168C953.532 161.168 954.108 161 954.564 160.676C955.032 160.34 955.26 159.86 955.26 159.248C955.272 157.964 954.132 157.544 953.256 157.364C952.644 157.208 952.164 157.028 952.164 156.704Z" fill="#00CC8F"/>
<path d="M970.969 313.625H960.031V321.281H970.969V313.625Z" stroke="white" stroke-width="2" stroke-miterlimit="10" stroke-linecap="square"/>
<path d="M962.219 313.625V310.344C962.219 309.474 962.564 308.639 963.18 308.024C963.795 307.408 964.63 307.062 965.5 307.062V307.062C966.37 307.062 967.205 307.408 967.82 308.024C968.436 308.639 968.781 309.474 968.781 310.344V313.625" stroke="white" stroke-width="2" stroke-miterlimit="10" stroke-linecap="square"/>
<path d="M978.625 316.906C978.625 320.387 977.242 323.726 974.781 326.187C972.319 328.648 968.981 330.031 965.5 330.031C962.019 330.031 958.681 328.648 956.219 326.187C953.758 323.726 952.375 320.387 952.375 316.906V301.594L965.5 298.312L978.625 301.594V316.906Z" stroke="white" stroke-width="2" stroke-miterlimit="10" stroke-linecap="square"/>
<path d="M900.5 309.031V311.583" stroke="white" stroke-width="2" stroke-miterlimit="10" stroke-linecap="square"/>
<path d="M906.333 307.937V305.385L900.499 301.739L894.666 305.433V307.937" stroke="white" stroke-width="2" stroke-miterlimit="10" stroke-linecap="square"/>
<path d="M894.666 305.385L900.499 309.031L906.333 305.385" stroke="white" stroke-width="2" stroke-miterlimit="10"/>
<path d="M890.291 315.412V321.974L884.458 318.328V311.813L890.291 308.119L896.125 311.766L890.291 315.412ZM890.291 315.412L884.458 311.813" stroke="white" stroke-width="2" stroke-miterlimit="10"/>
<path d="M910.708 315.412V321.974L916.542 318.328V311.766L910.708 308.119L904.875 311.813L910.708 315.412ZM910.708 315.412L916.542 311.766" stroke="white" stroke-width="2" stroke-miterlimit="10"/>
<path d="M900.5 321.792V328.354" stroke="white" stroke-width="2" stroke-miterlimit="10"/>
<path d="M906.333 318.146L900.499 314.499L894.666 318.193V324.708L900.499 328.354L906.333 324.708V318.146Z" stroke="white" stroke-width="2" stroke-miterlimit="10"/>
<path d="M894.666 318.146L900.499 321.791L906.333 318.146" stroke="white" stroke-width="2" stroke-miterlimit="10"/>
<path d="M900.5 321.792V328.354" stroke="white" stroke-width="2" stroke-miterlimit="10"/>
<path d="M848.625 314.5V305.75H842.062H827.844H822.375C820.563 305.75 819.094 304.281 819.094 302.469V325.438C819.094 327.854 821.053 329.812 823.469 329.812H848.625V321.062" stroke="white" stroke-width="2" stroke-miterlimit="10" stroke-linecap="square"/>
<path d="M851.906 321.062H844.25C842.438 321.062 840.969 319.594 840.969 317.781C840.969 315.969 842.438 314.5 844.25 314.5H851.906V321.062Z" stroke="white" stroke-width="2" stroke-miterlimit="10" stroke-linecap="square"/>
<path d="M842.062 301.375V299.188H822.375C820.563 299.188 819.094 300.656 819.094 302.469C819.094 304.281 820.563 305.75 822.375 305.75" stroke="white" stroke-width="2" stroke-miterlimit="10" stroke-linecap="square"/>
<circle cx="900" cy="110" r="30" fill="#00CC8F"/>
<path d="M913.852 116.676L906.842 112.629V107.373L913.852 103.326L914.769 104.916L908.678 108.433V111.569L914.769 115.086L913.852 116.676Z" fill="white"/>
<path d="M886.917 116.676L886 115.086L892.091 111.569V108.433L886 104.916L886.917 103.326L893.927 107.373V112.629L886.917 116.676Z" fill="white"/>
<path d="M905.948 105.722L901.397 103.094V95H903.233V102.034L905.948 103.6L912.04 100.083L912.957 101.673L905.948 105.722Z" fill="white"/>
<path d="M899.518 125H897.682V117.966L894.962 116.398L888.875 119.915L887.962 118.325L894.972 114.278L899.518 116.91V125Z" fill="white"/>
<path d="M894.962 105.722L887.962 101.675L888.88 100.085L894.962 103.6L897.682 102.034V95H899.518V103.094L894.962 105.722Z" fill="white"/>
<path d="M903.233 125H901.397V116.91L905.948 114.278L912.958 118.325L912.041 119.915L905.948 116.398L903.233 117.966V125Z" fill="white"/>
<path d="M380 100H600C633.137 100 660 126.863 660 160V320C660 353.137 633.137 380 600 380H440C406.863 380 380 353.137 380 320V100Z" fill="#006058"/>
<path d="M432 92C432 85.3726 437.373 80 444 80H596C602.627 80 608 85.3726 608 92V140H444C437.373 140 432 134.627 432 128V92Z" fill="#003E42"/>
<path d="M508 99.3335V120.667C508 122.933 513.333 124.667 520 124.667C526.667 124.667 532 122.933 532 120.667V99.3335" stroke="#00C8B5" stroke-width="2" stroke-miterlimit="10" stroke-linecap="round" stroke-linejoin="round"/>
<path d="M520 103.333C526.627 103.333 532 101.543 532 99.3335C532 97.1244 526.627 95.3335 520 95.3335C513.373 95.3335 508 97.1244 508 99.3335C508 101.543 513.373 103.333 520 103.333Z" stroke="#00C8B5" stroke-width="2" stroke-miterlimit="10" stroke-linecap="round" stroke-linejoin="round"/>
<path d="M532 110C532 112.267 526.667 114 520 114C513.333 114 508 112.267 508 110" stroke="#00C8B5" stroke-width="2" stroke-miterlimit="10" stroke-linecap="round" stroke-linejoin="round"/>
<path d="M576.455 106.817C576.053 106.82 575.653 106.86 575.259 106.937C574.678 105.207 573.568 103.704 572.086 102.638C570.604 101.573 568.825 101 567 101C565.175 101 563.396 101.573 561.914 102.638C560.432 103.704 559.322 105.207 558.741 106.937C558.347 106.86 557.947 106.82 557.545 106.817C555.809 106.817 554.145 107.506 552.917 108.734C551.69 109.961 551 111.626 551 113.362C551 115.098 551.69 116.763 552.917 117.991C554.145 119.218 555.809 119.908 557.545 119.908H576.455C578.191 119.908 579.855 119.218 581.083 117.991C582.31 116.763 583 115.098 583 113.362C583 111.626 582.31 109.961 581.083 108.734C579.855 107.506 578.191 106.817 576.455 106.817V106.817Z" stroke="#00C8B5" stroke-width="2" stroke-miterlimit="10" stroke-linecap="round" stroke-linejoin="round"/>
<path d="M484.5 95H462V125H484.5V95Z" stroke="#00C8B5" stroke-width="2" stroke-miterlimit="10" stroke-linecap="round" stroke-linejoin="round"/>
<path d="M467 100H469.5" stroke="#00C8B5" stroke-width="2" stroke-miterlimit="10" stroke-linecap="square"/>
<path d="M477 100H479.5" stroke="#00C8B5" stroke-width="2" stroke-miterlimit="10" stroke-linecap="square"/>
<path d="M467 105H469.5" stroke="#00C8B5" stroke-width="2" stroke-miterlimit="10" stroke-linecap="square"/>
<path d="M477 105H479.5" stroke="#00C8B5" stroke-width="2" stroke-miterlimit="10" stroke-linecap="square"/>
<path d="M467 110H469.5" stroke="#00C8B5" stroke-width="2" stroke-miterlimit="10" stroke-linecap="square"/>
<path d="M477 110H479.5" stroke="#00C8B5" stroke-width="2" stroke-miterlimit="10" stroke-linecap="square"/>
<path d="M467 115H469.5" stroke="#00C8B5" stroke-width="2" stroke-miterlimit="10" stroke-linecap="square"/>
<path d="M477 115H479.5" stroke="#00C8B5" stroke-width="2" stroke-miterlimit="10" stroke-linecap="square"/>
<path d="M473.25 125V120" stroke="#00C8B5" stroke-width="2" stroke-miterlimit="10" stroke-linecap="square"/>
<circle cx="519.709" cy="240.292" r="70.2916" fill="#48CA2D" fill-opacity="0.14"/>
<circle cx="519.708" cy="240.292" r="58.1984" fill="#48CA2D"/>
<path d="M514.16 210.2L512.708 206H511.004L513.284 212H515.048L517.328 206H515.624L514.16 210.2ZM518.842 205.28C519.37 205.28 519.802 204.848 519.802 204.332C519.802 203.816 519.37 203.372 518.842 203.372C518.326 203.372 517.894 203.816 517.894 204.332C517.894 204.848 518.326 205.28 518.842 205.28ZM519.622 212V206H518.074V212H519.622ZM525.599 206.708C525.131 206.12 524.483 205.832 523.643 205.832C522.839 205.832 522.155 206.144 521.579 206.756C521.015 207.368 520.727 208.112 520.727 209C520.727 209.888 521.015 210.644 521.579 211.256C522.155 211.868 522.839 212.168 523.643 212.168C524.483 212.168 525.131 211.88 525.599 211.292V212H527.147V206H525.599V206.708ZM522.743 210.224C522.431 209.9 522.275 209.492 522.275 209C522.275 208.508 522.431 208.1 522.743 207.788C523.055 207.464 523.451 207.308 523.931 207.308C524.411 207.308 524.807 207.464 525.119 207.788C525.443 208.1 525.599 208.508 525.599 209C525.599 209.492 525.443 209.9 525.119 210.224C524.807 210.536 524.411 210.692 523.931 210.692C523.451 210.692 523.055 210.536 522.743 210.224ZM516.475 242L509.095 221H503.965L496.615 242H501.085L502.345 238.22H510.715L511.975 242H516.475ZM506.545 225.77L509.425 234.35H503.665L506.545 225.77ZM518.514 221V242H522.654V235.1H526.344C528.354 235.1 530.064 234.41 531.444 233.06C532.824 231.71 533.514 230.03 533.514 228.05C533.514 226.07 532.824 224.39 531.444 223.04C530.064 221.69 528.354 221 526.344 221H518.514ZM522.654 231.23V224.87H526.344C528.114 224.87 529.404 226.22 529.404 228.05C529.404 229.85 528.114 231.23 526.344 231.23H522.654ZM536.209 242H540.349V221H536.209V242Z" fill="white"/>
<path d="M519.456 268.61V254.4" stroke="white" stroke-width="2.35305" stroke-miterlimit="10" stroke-linecap="square"/>
<path d="M503.86 265.261L509.984 259.137V254.4" stroke="white" stroke-width="2.35305" stroke-miterlimit="10" stroke-linecap="square"/>
<path d="M535.055 265.261L528.93 259.137V254.4" stroke="white" stroke-width="2.35305" stroke-miterlimit="10" stroke-linecap="square"/>
<path d="M500.511 273.347C503.127 273.347 505.247 271.226 505.247 268.61C505.247 265.994 503.127 263.874 500.511 263.874C497.895 263.874 495.774 265.994 495.774 268.61C495.774 271.226 497.895 273.347 500.511 273.347Z" stroke="white" stroke-width="2.35305" stroke-miterlimit="10" stroke-linecap="square"/>
<path d="M538.402 273.347C541.018 273.347 543.139 271.226 543.139 268.61C543.139 265.994 541.018 263.874 538.402 263.874C535.786 263.874 533.666 265.994 533.666 268.61C533.666 271.226 535.786 273.347 538.402 273.347Z" stroke="white" stroke-width="2.35305" stroke-miterlimit="10" stroke-linecap="square"/>
<path d="M519.456 278.082C522.072 278.082 524.192 275.962 524.192 273.346C524.192 270.73 522.072 268.609 519.456 268.609C516.84 268.609 514.719 270.73 514.719 273.346C514.719 275.962 516.84 278.082 519.456 278.082Z" stroke="white" stroke-width="2.35305" stroke-miterlimit="10" stroke-linecap="square"/>
<path d="M0 100H220C253.137 100 280 126.863 280 160V320C280 353.137 253.137 380 220 380H60C26.8629 380 0 353.137 0 320V100Z" fill="#00C8B5"/>
<path fill-rule="evenodd" clip-rule="evenodd" d="M67.2167 95.1143L140.332 123.479L213.447 95.2421L140.14 67L67.2167 95.1143Z" fill="#88CCCA"/>
<path fill-rule="evenodd" clip-rule="evenodd" d="M67.2167 318.012L140.332 346.376L213.447 318.14L140.14 289.897L67.2167 318.012Z" fill="#88CCCA"/>
<path d="M196.965 198.238L213.445 191.858L213.445 204.628C208.632 202.759 196.965 198.238 196.965 198.238Z" fill="#D5F2F1"/>
<path d="M149.223 92.2878L162.2 87.1504V320.07L149.223 325.312L149.223 92.2878Z" fill="#00C8B5"/>
<path d="M149.224 91.6227V325.209L136.913 320.299L136.913 87.3784L149.224 91.6227Z" fill="#006058"/>
<path d="M136.913 87.4362L149.863 82.3057L162.201 87.1573L149.224 92.2878L136.913 87.4362Z" fill="#429A97"/>
<path d="M130.59 99.6081L143.567 94.4707V327.209L130.59 332.451V99.6081Z" fill="#00C8B5"/>
<path d="M130.591 99.5515L130.591 332.282L118.28 327.372L118.28 94.8428L130.591 99.5515Z" fill="#006058"/>
<path d="M118.28 94.7565L131.23 89.626L143.568 94.4777L130.591 99.6081L118.28 94.7565Z" fill="#429A97"/>
<path fill-rule="evenodd" clip-rule="evenodd" d="M67.213 205.258L140.328 233.622L213.443 205.386L140.136 177.144L67.213 205.258Z" fill="#88CCCA"/>
<path fill-rule="evenodd" clip-rule="evenodd" d="M67 262.587L140.115 290.952L213.16 262.778L139.923 234.473L67 262.587Z" fill="#88CCCA"/>
<path fill-rule="evenodd" clip-rule="evenodd" d="M67.213 204.439L140.328 232.803L213.443 204.567L140.136 176.325L67.213 204.439Z" fill="#88CCCA"/>
<path fill-rule="evenodd" clip-rule="evenodd" d="M67 261.769L140.115 290.133L213.16 261.969L139.923 233.654L67 261.769Z" fill="#88CCCA"/>
<path fill-rule="evenodd" clip-rule="evenodd" d="M67 317.859L140.115 346.224L213.16 318.06L139.923 289.745L67 317.859Z" fill="#006058"/>
<path d="M100.438 246.833L83.1794 252.496V268.116L100.438 261.421V246.833Z" fill="#006058"/>
<path d="M115.001 252.226L97.7418 257.889V273.509L115.001 266.814V252.226Z" fill="#006058"/>
<path d="M169.205 251.687L125.249 268.406V284.026L169.205 266.275V251.687Z" fill="#006058"/>
<path d="M133.339 250.374L116.08 256.037L116.35 271.947L133.339 264.962V250.374Z" fill="#006058"/>
<path d="M109.069 250.913L116.619 253.34L116.35 271.99L109.069 269.294V250.913Z" fill="#4FA5A2"/>
<path d="M148.976 207.741L147.358 206.958L147.627 222.868L148.976 222.329V207.741Z" fill="#02B5A6"/>
<path d="M146.281 203.948L147.899 204.261L147.629 222.868L146.281 222.285L146.281 203.948Z" fill="#012C28"/>
<path d="M122.012 199.111L120.394 198.328L120.663 214.239L122.012 213.699V199.111Z" fill="#02B5A6"/>
<path d="M119.315 195.318L120.933 195.631L120.663 214.238L119.315 213.656L119.315 195.318Z" fill="#012C28"/>
<path d="M98.8193 191.064L97.2013 190.281L97.471 206.192L98.8193 205.652V191.064Z" fill="#02B5A6"/>
<path d="M96.1229 187.271L97.7409 187.584L97.4713 206.191L96.123 205.609L96.1229 187.271Z" fill="#012C28"/>
<path d="M170.015 248.173L186.195 253.879L185.925 272.53L170.015 266.554V248.173Z" fill="#4FA5A2"/>
<path d="M187.272 241.205L203.452 246.911L203.182 265.561L187.272 259.585V241.205Z" fill="#006058"/>
<path d="M164.078 201.85L162.46 201.067L162.73 216.978L164.078 216.438V201.85Z" fill="#02B5A6"/>
<path d="M161.384 198.058L163.002 198.371L162.732 216.978L161.384 216.395L161.384 198.058Z" fill="#012C28"/>
<path d="M137.111 250.931L135.493 250.147L135.763 266.058L137.111 265.519V250.931Z" fill="#02B5A6"/>
<path d="M134.414 247.138L136.032 247.451L135.763 266.058L134.414 265.475L134.414 247.138Z" fill="#012C28"/>
<path d="M113.922 241.762L112.304 240.979L112.574 256.889L113.922 256.35V241.762Z" fill="#02B5A6"/>
<path d="M111.226 237.969L112.844 238.282L112.574 256.889L111.226 256.307L111.226 237.969Z" fill="#012C28"/>
<path d="M175.945 196.996L174.327 196.213L174.597 212.124L175.945 211.584V196.996Z" fill="#02B5A6"/>
<path d="M173.248 193.204L174.866 193.517L174.597 212.124L173.248 211.541L173.248 193.204Z" fill="#012C28"/>
<path d="M148.976 244.458L147.358 243.675L147.627 259.586L148.976 259.046V244.458Z" fill="#02B5A6"/>
<path d="M146.281 240.666L147.899 240.979L147.629 259.586L146.281 259.003L146.281 240.666Z" fill="#012C28"/>
<path d="M125.789 235.29L124.171 234.507L124.44 250.417L125.789 249.878V235.29Z" fill="#02B5A6"/>
<path d="M123.092 231.497L124.71 231.81L124.44 250.417L123.092 249.834L123.092 231.497Z" fill="#012C28"/>
<path d="M134.954 214.256L133.336 213.473L133.606 229.383L134.954 228.844V214.256Z" fill="#02B5A6"/>
<path d="M132.258 210.463L133.876 210.776L133.606 229.383L132.258 228.8L132.258 210.463Z" fill="#012C28"/>
<path d="M107.988 204.547L106.37 203.764L106.64 219.674L107.988 219.135V204.547Z" fill="#02B5A6"/>
<path d="M105.292 200.754L106.91 201.067L106.64 219.674L105.292 219.091L105.292 200.754Z" fill="#012C28"/>
<path d="M86.9529 195.919L85.3349 195.136L85.6045 211.046L86.9529 210.507V195.919Z" fill="#02B5A6"/>
<path d="M84.2563 192.126L85.8743 192.439L85.6047 211.046L84.2564 210.463L84.2563 192.126Z" fill="#012C28"/>
<path d="M86.9529 196.457L85.3349 195.674L85.6045 211.585L86.9529 211.045V196.457Z" fill="#02B5A6"/>
<path d="M84.2563 192.665L85.8743 192.977L85.6047 211.584L84.2564 211.002L84.2563 192.665Z" fill="#012C28"/>
<path d="M174.329 233.133L172.711 232.35L172.98 248.26L174.329 247.721V233.133Z" fill="#02B5A6"/>
<path d="M171.632 229.34L173.25 229.653L172.98 248.26L171.632 247.677L171.632 229.34Z" fill="#012C28"/>
<path d="M191.585 191.065L189.967 190.282L190.237 206.192L191.585 205.653V191.065Z" fill="#02B5A6"/>
<path d="M188.888 187.272L190.506 187.585L190.237 206.192L188.888 205.609L188.888 187.272Z" fill="#012C28"/>
<path d="M164.621 238.526L163.003 237.743L163.273 253.653L164.621 253.114V238.526Z" fill="#02B5A6"/>
<path d="M161.924 234.733L163.542 235.046L163.273 253.653L161.924 253.07L161.924 234.733Z" fill="#012C28"/>
<path d="M213.42 204.578V205.397L140.332 233.649V232.421L213.42 204.578Z" fill="#10867C"/>
<path d="M213.16 261.97V262.779L140.118 290.979V289.75L213.16 261.97Z" fill="#10867C"/>
<path d="M140.124 290.974V289.752L67 261.7V262.928L140.124 290.974Z" fill="#006058"/>
<path d="M140.358 277.759V276.537L67.2333 248.486V249.714L140.358 277.759Z" fill="#006058"/>
<path d="M213.159 248.756V249.565L140.349 277.76V276.532L213.159 248.756Z" fill="#10867C"/>
<path fill-rule="evenodd" clip-rule="evenodd" d="M67.2149 191.746L140.33 220.11L213.445 191.874L140.138 163.632L67.2149 191.746Z" fill="#88CCCA"/>
<path opacity="0.5" fill-rule="evenodd" clip-rule="evenodd" d="M67.2148 190.927L140.33 219.292L213.445 191.055L140.138 162.813L67.2148 190.927Z" fill="#88CCCA"/>
<path d="M67.213 191.746L67.213 190.928L68.9727 191.441L68.7833 192.338L67.213 191.746Z" fill="#88CCCA"/>
<path d="M68.2762 204.839L68.8819 205.602V205.89L67.2186 205.263V204.435L68.2762 204.839Z" fill="#88CCCA"/>
<path d="M149.227 154.519L162.204 153.537V193.516L149.227 198.595V154.519Z" fill="#02B5A6"/>
<path d="M149.224 154.392V198.531L136.913 193.837V153.58L149.224 154.392Z" fill="#006058"/>
<path d="M130.59 153.35L143.567 152.309V200.756L130.59 205.935L130.59 153.35Z" fill="#02B5A6"/>
<path d="M130.591 155.908V205.935L118.28 200.881V155.007L130.591 155.908Z" fill="#67AFAD"/>
<path fill-rule="evenodd" clip-rule="evenodd" d="M161.384 100.669L213.564 94.5063V191.153L161.384 172.147V100.669Z" fill="#D5F2F1"/>
<path fill-rule="evenodd" clip-rule="evenodd" d="M213.16 262.778L140.134 290.968L140.302 346.407L213.16 318.329V262.778Z" fill="#EEFFFE"/>
<path fill-rule="evenodd" clip-rule="evenodd" d="M209.322 212.903L144.508 238.023V245.506L209.322 220.447V212.903Z" fill="#D5F2F1"/>
<path fill-rule="evenodd" clip-rule="evenodd" d="M209.322 272.776L144.508 297.896V305.379L209.322 280.32V272.776Z" fill="#D5F2F1"/>
<path fill-rule="evenodd" clip-rule="evenodd" d="M209.322 302.718L144.508 327.838V335.321L209.322 310.262V302.718Z" fill="#D5F2F1"/>
<path fill-rule="evenodd" clip-rule="evenodd" d="M209.322 227.874L144.508 252.994V260.477L209.322 235.418V227.874Z" fill="#D5F2F1"/>
<path fill-rule="evenodd" clip-rule="evenodd" d="M209.322 287.747L144.508 312.867V320.35L209.322 295.291V287.747Z" fill="#D5F2F1"/>
<path fill-rule="evenodd" clip-rule="evenodd" d="M180.879 98.2241L205.137 107.503V114.986L180.879 105.768V98.2241Z" fill="#B9E0DF"/>
<path fill-rule="evenodd" clip-rule="evenodd" d="M161.183 150.268L205.134 167.376V174.859L161.183 157.811V150.268Z" fill="#B9E0DF"/>
<path fill-rule="evenodd" clip-rule="evenodd" d="M160.677 119.632L205.134 137.439V144.922L160.677 127.176V119.632Z" fill="#B9E0DF"/>
<path fill-rule="evenodd" clip-rule="evenodd" d="M161.353 106.167L205.137 122.475V129.957L161.353 113.71V106.167Z" fill="#B9E0DF"/>
<path fill-rule="evenodd" clip-rule="evenodd" d="M160.922 164.592L205.137 182.347V189.829L160.922 172.136V164.592Z" fill="#B9E0DF"/>
<path fill-rule="evenodd" clip-rule="evenodd" d="M160.51 134.445L205.136 152.41V159.893L160.51 141.989V134.445Z" fill="#B9E0DF"/>
<path d="M185.659 92.6616L184.041 93.4706L182.693 195.718L184.041 195.179L185.659 92.6616Z" fill="#00C8B5"/>
<path d="M182.692 92.3487L184.31 92.6616C183.678 132.908 183.324 155.472 182.692 195.718L181.344 195.135L182.692 92.3487Z" fill="#006058"/>
<path d="M174.33 97.2896L172.712 98.0986L171.363 200.346L172.712 199.807L174.33 97.2896Z" fill="#00C8B5"/>
<path d="M171.363 96.9766L172.981 97.2896C172.349 137.536 171.995 160.1 171.363 200.346L170.015 199.763L171.363 96.9766Z" fill="#006058"/>
<path d="M158.69 103.222L157.072 104.031L155.723 206.278L157.072 205.739L158.69 103.222Z" fill="#00C8B5"/>
<path d="M155.723 102.909L157.341 103.222C156.709 143.468 156.355 166.032 155.723 206.278L154.375 205.696L155.723 102.909Z" fill="#006058"/>
<path d="M146.825 108.076L145.207 108.885L143.859 211.132L145.207 210.593L146.825 108.076Z" fill="#00C8B5"/>
<path d="M143.858 107.763L145.476 108.076C144.845 148.322 144.49 170.886 143.858 211.132L142.51 210.55L143.858 107.763Z" fill="#006058"/>
<path d="M131.726 114.008L130.108 114.817L128.76 217.065L130.108 216.525L131.726 114.008Z" fill="#02B5A6"/>
<path d="M128.759 113.695L130.377 114.008C129.745 154.254 129.391 176.819 128.759 217.065L127.411 216.482L128.759 113.695Z" fill="#012C28"/>
<path d="M204.531 98.2817L202.913 99.0907L201.565 201.338L202.913 200.799L204.531 98.2817Z" fill="#00C8B5"/>
<path d="M201.564 97.9688L203.182 98.2817C202.551 138.528 202.196 161.092 201.564 201.338L200.216 200.755L201.564 97.9688Z" fill="#006058"/>
<path d="M193.202 102.909L191.584 103.718L190.235 205.965L191.584 205.426L193.202 102.909Z" fill="#00C8B5"/>
<path d="M190.237 102.596L191.855 102.909C191.223 143.155 190.869 165.719 190.237 205.965L188.889 205.382L190.237 102.596Z" fill="#006058"/>
<path d="M177.565 108.842L175.947 109.651L174.599 211.898L175.947 211.359L177.565 108.842Z" fill="#00C8B5"/>
<path d="M174.598 108.529L176.216 108.842C175.585 149.088 175.23 171.652 174.598 211.898L173.25 211.316L174.598 108.529Z" fill="#006058"/>
<path d="M165.699 113.695L164.081 114.504L162.733 216.752L164.081 216.212L165.699 113.695Z" fill="#00C8B5"/>
<path d="M162.732 113.383L164.35 113.696C163.718 153.942 163.364 176.506 162.732 216.752L161.384 216.17L162.732 113.383Z" fill="#006058"/>
<path d="M150.596 119.628L148.978 120.437L147.63 222.685L148.978 222.145L150.596 119.628Z" fill="#00C8B5"/>
<path d="M147.629 119.315L149.247 119.628C148.616 159.874 148.261 182.439 147.629 222.685L146.281 222.102L147.629 119.315Z" fill="#006058"/>
<path d="M136.573 120.394L134.955 121.203L133.606 229.157L134.955 228.617L136.573 120.394Z" fill="#02B5A6"/>
<path d="M133.606 120.394L135.224 120.707C134.592 160.953 134.238 188.911 133.606 229.157L132.258 228.574L133.606 120.394Z" fill="#012C28"/>
<path d="M213.421 191.066V191.885L140.008 220.286V219.022L213.421 191.066Z" fill="#10867C"/>
<path d="M213.422 176.486V177.305L140.082 206.335V205.071L213.422 176.486Z" fill="#10867C"/>
<path d="M213.422 162.463V163.282L140.082 192.312V191.048L213.422 162.463Z" fill="#10867C"/>
<path d="M213.422 146.823V147.642L140.082 176.672V175.408L213.422 146.823Z" fill="#10867C"/>
<path d="M213.422 131.182V132.001L140.082 161.031V159.766L213.422 131.182Z" fill="#10867C"/>
<path d="M213.151 116.08V116.899L139.811 145.929V144.665L213.151 116.08Z" fill="#10867C"/>
<path fill-rule="evenodd" clip-rule="evenodd" d="M213.433 205.339L140.361 233.654V276.532L213.163 248.756L213.433 205.339Z" fill="#EEFFFE"/>
<path fill-rule="evenodd" clip-rule="evenodd" d="M209.329 212.903L144.515 238.023V245.506L209.329 220.447V212.903Z" fill="#D5F2F1"/>
<path fill-rule="evenodd" clip-rule="evenodd" d="M209.329 272.776L144.515 297.896V305.379L209.329 280.32V272.776Z" fill="#D5F2F1"/>
<path fill-rule="evenodd" clip-rule="evenodd" d="M209.329 227.875L144.515 252.995V260.477L209.329 235.418V227.875Z" fill="#D5F2F1"/>
<path fill-rule="evenodd" clip-rule="evenodd" d="M209.329 287.748L144.515 312.868V320.35L209.329 295.291V287.748Z" fill="#D5F2F1"/>
<path fill-rule="evenodd" clip-rule="evenodd" d="M67 204.587L140.35 232.305V276.531L67 248.543V204.587Z" fill="#D5F2F1"/>
<path fill-rule="evenodd" clip-rule="evenodd" d="M70.1595 212.903L134.975 238.023V245.506L70.1595 220.447V212.903Z" fill="#B9E0DF"/>
<path fill-rule="evenodd" clip-rule="evenodd" d="M70.1595 272.776L134.975 297.896V305.379L70.1595 280.32V272.776Z" fill="#B9E0DF"/>
<path fill-rule="evenodd" clip-rule="evenodd" d="M70.1595 302.718L134.975 327.838V335.321L70.1595 310.262V302.718Z" fill="#B9E0DF"/>
<path fill-rule="evenodd" clip-rule="evenodd" d="M70.1595 227.875L134.975 252.995V260.477L70.1595 235.418V227.875Z" fill="#B9E0DF"/>
<path fill-rule="evenodd" clip-rule="evenodd" d="M70.1595 287.747L134.975 312.867V320.349L70.1595 295.29V287.747Z" fill="#B9E0DF"/>
<path fill-rule="evenodd" clip-rule="evenodd" d="M67 262.508L140.153 290.968L140.316 346.407L67 318.06V262.508Z" fill="#D5F2F1"/>
<path fill-rule="evenodd" clip-rule="evenodd" d="M70.1595 212.903L134.975 238.023V245.506L70.1595 220.447V212.903Z" fill="#B9E0DF"/>
<path fill-rule="evenodd" clip-rule="evenodd" d="M70.1595 272.776L134.975 297.896V305.379L70.1595 280.32V272.776Z" fill="#B9E0DF"/>
<path fill-rule="evenodd" clip-rule="evenodd" d="M70.1595 302.718L134.975 327.838V335.321L70.1595 310.262V302.718Z" fill="#B9E0DF"/>
<path fill-rule="evenodd" clip-rule="evenodd" d="M70.1595 227.875L134.975 252.995V260.477L70.1595 235.418V227.875Z" fill="#B9E0DF"/>
<path fill-rule="evenodd" clip-rule="evenodd" d="M70.1595 287.747L134.975 312.867V320.35L70.1595 295.291V287.747Z" fill="#B9E0DF"/>
<path opacity="0.5" fill-rule="evenodd" clip-rule="evenodd" d="M67 176.554L140.115 204.918L213.43 176.485L139.923 148.439L67 176.554Z" fill="#88CCCA"/>
<path opacity="0.5" fill-rule="evenodd" clip-rule="evenodd" d="M67 162.531L140.115 190.895L213.23 162.659L139.923 134.417L67 162.531Z" fill="#88CCCA"/>
<path opacity="0.5" fill-rule="evenodd" clip-rule="evenodd" d="M67 146.89L140.115 175.254L213.43 146.821L139.923 118.776L67 146.89Z" fill="#88CCCA"/>
<path opacity="0.5" fill-rule="evenodd" clip-rule="evenodd" d="M67 131.25L140.115 159.614L213.43 131.181L168.125 112.843L140.115 123.63L112.304 112.843L67 131.25Z" fill="#88CCCA"/>
<path opacity="0.5" fill-rule="evenodd" clip-rule="evenodd" d="M67 116.149L140.115 144.513L213.16 116.08L185.654 105.293L140.115 123.63L93.6971 105.293L67 116.149Z" fill="#88CCCA"/>
<path fill-rule="evenodd" clip-rule="evenodd" d="M67.2176 95.1138L140.222 123.473L140.349 233.655L67.0387 205.128L67.2176 95.1138Z" fill="#D5F2F1"/>
<path fill-rule="evenodd" clip-rule="evenodd" d="M70.157 105.962L134.972 131.083V138.565L70.157 113.506V105.962Z" fill="#B9E0DF"/>
<path fill-rule="evenodd" clip-rule="evenodd" d="M70.157 165.835L134.972 190.956V198.438L70.157 173.379V165.835Z" fill="#B9E0DF"/>
<path fill-rule="evenodd" clip-rule="evenodd" d="M70.157 135.899L134.972 161.019V168.502L70.157 143.443V135.899Z" fill="#B9E0DF"/>
<path fill-rule="evenodd" clip-rule="evenodd" d="M70.157 195.777L134.972 220.897V228.38L70.157 203.321V195.777Z" fill="#B9E0DF"/>
<path fill-rule="evenodd" clip-rule="evenodd" d="M70.157 120.934L134.972 146.054V153.536L70.157 128.477V120.934Z" fill="#B9E0DF"/>
<path fill-rule="evenodd" clip-rule="evenodd" d="M70.157 180.806L134.972 205.926V213.409L70.157 188.35V180.806Z" fill="#B9E0DF"/>
<path fill-rule="evenodd" clip-rule="evenodd" d="M70.157 150.87L134.972 175.99V183.472L70.157 158.413V150.87Z" fill="#B9E0DF"/>
<path fill-rule="evenodd" clip-rule="evenodd" d="M67.2167 95.1138L140.332 123.478L149.791 119.854L76.9805 91.2695L67.2167 95.1138Z" fill="#88CCCA"/>
<path fill-rule="evenodd" clip-rule="evenodd" d="M121.058 115.996L140.253 123.469L213.401 95.2378L194.555 87.7637L121.058 115.996Z" fill="#88CCCA"/>
<g clip-path="url(#clip3_830_9654)">
<path d="M111.986 84.1226L111.209 83.832L111.037 75.6162L111.814 75.9104L111.986 84.1226Z" fill="#006058"/>
<path d="M114.672 84.6812L113.41 82.0095L110.802 75.1262L109.982 72.4453L129.157 65.0936L133.851 77.3258L114.672 84.6812Z" fill="#009A8D"/>
<path d="M128.828 65.8644L110.738 72.8027L114.998 83.9102L133.088 76.9719L128.828 65.8644Z" fill="#001D23"/>
<path d="M131.417 72.6083C131.221 72.0914 130.637 71.8324 130.12 72.0289L126.318 73.4864C125.801 73.6828 125.542 74.27 125.738 74.7834L127.052 78.207C127.249 78.7239 127.411 79.1452 127.411 79.1452C127.411 79.1452 127.832 78.9829 128.349 78.7865L132.152 77.329C132.669 77.1325 132.928 76.5489 132.731 76.0319L131.417 72.6083Z" fill="#00C8B5"/>
<path d="M118.667 75.2208C118.863 75.7378 119.45 75.9967 119.964 75.8003L124.287 74.1427C124.804 73.9463 125.063 73.3591 124.866 72.8457L123.401 69.0255C123.205 68.5086 122.621 68.2496 122.104 68.4461L117.781 70.1037C117.264 70.3001 117.005 70.8837 117.202 71.4007L118.667 75.2244L118.667 75.2208Z" fill="#00C8B5"/>
<path d="M120.006 75.9129L124.331 74.2544C124.847 74.0563 125.431 74.3138 125.63 74.8335L126.943 78.2551C127.141 78.7714 126.883 79.3556 126.364 79.5549L122.039 81.2134C121.523 81.4115 120.942 81.1527 120.744 80.6363L119.432 77.2148C119.234 76.6984 119.492 76.1176 120.009 75.9196L120.006 75.9129Z" fill="#00C8B5"/>
<path d="M113.905 78.2513L118.02 76.6732C118.536 76.4752 119.12 76.7327 119.319 77.2524L120.632 80.6739C120.83 81.1903 120.572 81.7744 120.052 81.9738L115.938 83.5518C115.422 83.7499 114.841 83.4911 114.643 82.9747L113.33 79.5532C113.132 79.0368 113.39 78.4527 113.91 78.2533L113.905 78.2513Z" fill="#00C8B5"/>
<path d="M124.979 72.8008C125.176 73.3178 125.76 73.5767 126.276 73.3803L130.079 71.9228C130.596 71.7263 130.855 71.1391 130.658 70.6258L129.193 66.8056C128.997 66.2887 128.41 66.0298 127.896 66.2261L124.094 67.6836C123.577 67.8801 123.318 68.4637 123.514 68.9807L124.979 72.8008Z" fill="#00C8B5"/>
<path d="M117.978 76.5632C118.495 76.3667 118.754 75.7831 118.557 75.2661L117.092 71.446C116.896 70.929 116.312 70.6701 115.795 70.8665L111.681 72.4412C111.164 72.6377 110.905 73.2213 111.101 73.7382L112.567 77.5619C112.767 78.0788 113.347 78.3379 113.864 78.1414L117.978 76.5632Z" fill="#00C8B5"/>
<path d="M109.98 72.4456L109.557 72.6079L114.249 84.8414L114.672 84.6792L109.98 72.4456Z" fill="#006058"/>
</g>
<g clip-path="url(#clip4_830_9654)">
<path d="M90.5783 92.3565L89.8013 92.0659L89.6287 83.8501L90.4057 84.1443L90.5783 92.3565Z" fill="#006058"/>
<path d="M93.2638 92.9151L92.0013 90.2434L89.3941 83.3601L88.574 80.6792L107.749 73.3275L112.442 85.5597L93.2638 92.9151Z" fill="#009A8D"/>
<path d="M107.42 74.0983L89.3297 81.0366L93.5898 92.1441L111.68 85.2057L107.42 74.0983Z" fill="#001D23"/>
<path d="M110.009 80.8422C109.813 80.3253 109.229 80.0663 108.712 80.2627L104.91 81.7203C104.393 81.9167 104.134 82.5039 104.33 83.0173L105.644 86.4409C105.841 86.9578 106.003 87.3791 106.003 87.3791C106.003 87.3791 106.424 87.2168 106.941 87.0204L110.744 85.5628C111.261 85.3664 111.52 84.7828 111.323 84.2658L110.009 80.8422Z" fill="#00C8B5"/>
<path d="M97.2586 83.4547C97.4551 83.9717 98.0422 84.2306 98.5556 84.0342L102.879 82.3766C103.395 82.1802 103.654 81.593 103.458 81.0796L101.993 77.2594C101.797 76.7425 101.213 76.4835 100.696 76.68L96.3731 78.3376C95.8561 78.534 95.5971 79.1176 95.7936 79.6346L97.2587 83.4583L97.2586 83.4547Z" fill="#00C8B5"/>
<path d="M98.598 84.1468L102.922 82.4883C103.439 82.2902 104.023 82.5477 104.222 83.0674L105.535 86.4889C105.733 87.0053 105.475 87.5894 104.955 87.7888L100.631 89.4473C100.115 89.6454 99.5338 89.3866 99.3358 88.8702L98.0235 85.4487C97.8254 84.9323 98.0842 84.3515 98.6006 84.1535L98.598 84.1468Z" fill="#00C8B5"/>
<path d="M92.4968 86.4852L96.6113 84.9071C97.1277 84.7091 97.7118 84.9666 97.9112 85.4863L99.2234 88.9078C99.4215 89.4242 99.164 90.0083 98.6443 90.2077L94.5298 91.7857C94.0134 91.9838 93.4326 91.725 93.2346 91.2086L91.9223 87.7871C91.7242 87.2707 91.9817 86.6866 92.5014 86.4872L92.4968 86.4852Z" fill="#00C8B5"/>
<path d="M103.571 81.0347C103.768 81.5517 104.351 81.8106 104.868 81.6142L108.671 80.1567C109.188 79.9602 109.447 79.373 109.25 78.8597L107.785 75.0395C107.589 74.5225 107.002 74.2636 106.488 74.46L102.686 75.9175C102.169 76.114 101.91 76.6976 102.106 77.2145L103.571 81.0347Z" fill="#00C8B5"/>
<path d="M96.5694 84.797C97.0864 84.6006 97.3453 84.017 97.1489 83.5L95.6839 79.6799C95.4874 79.1629 94.9038 78.9039 94.3869 79.1004L90.2728 80.6751C89.7558 80.8715 89.4968 81.4552 89.6933 81.9721L91.1584 85.7958C91.3584 86.3127 91.9385 86.5718 92.4554 86.3753L96.5694 84.797Z" fill="#00C8B5"/>
</g>
<path d="M90.2973 129.508C90.2973 136.642 95.1197 144.216 101.067 146.396C107.013 148.598 111.836 144.59 111.836 137.457C111.408 124.399 109.203 115.253 108.007 110.829C106.81 106.405 107.289 99.0317 118.297 101.49" stroke="#429A97" stroke-width="1.5"/>
<path d="M105.218 113.097L90.6367 107.838L85.2977 109.621L99.8794 114.88L105.218 113.097Z" fill="#429A97"/>
<path d="M99.8794 114.859L85.2977 109.6V135.293L99.8794 140.552V114.859Z" fill="#006058"/>
<path d="M105.219 113.097L99.8797 114.859V140.573L105.219 138.455V113.097Z" fill="#00C8B5"/>
<path d="M94.0116 123.049L89.7266 121.503V121.301L94.0116 122.847V121.594C94.0116 120.786 93.3737 119.901 92.5833 119.616L89.7266 118.585V121.503V125.877L94.0116 127.423V123.049Z" fill="white"/>
<path d="M94.2129 123.14V127.486C94.9063 127.639 95.4402 127.221 95.4402 126.483V125.027C95.4402 124.289 94.9063 123.488 94.2129 123.14Z" fill="white"/>
<path d="M89.059 127.98V128.106C89.059 128.35 88.9758 128.524 88.8164 128.621C88.6569 128.719 88.4419 128.719 88.1854 128.621C87.908 128.524 87.6861 128.35 87.4989 128.106C87.3187 127.862 87.2285 127.611 87.2285 127.347C87.2285 127.082 87.3187 126.901 87.4989 126.782C87.6792 126.664 87.9011 126.657 88.1646 126.755C88.4974 126.873 88.7886 127.145 88.9412 127.458L88.6915 127.514C88.5945 127.305 88.4003 127.124 88.1646 127.04C87.9774 126.97 87.8248 126.977 87.7 127.054C87.5752 127.131 87.5197 127.263 87.5197 127.451C87.5197 127.639 87.5821 127.813 87.7 127.973C87.8248 128.141 87.9843 128.259 88.1784 128.329C88.4974 128.44 88.6985 128.356 88.7539 128.127L88.1576 127.911V127.646L89.0521 127.966L89.059 127.98Z" fill="white"/>
<path d="M90.3219 128.084L90.5993 128.182V129.463L90.3219 129.366V129.185C90.2179 129.296 90.0723 129.31 89.8781 129.241C89.7048 129.178 89.5523 129.059 89.4274 128.885C89.3026 128.711 89.2402 128.523 89.2402 128.342C89.2402 128.161 89.3026 128.015 89.4274 127.931C89.5523 127.848 89.6979 127.834 89.8781 127.896C90.0723 127.966 90.2179 128.091 90.3219 128.272V128.091V128.084ZM89.9197 128.99C90.0376 129.032 90.1347 129.025 90.211 128.976C90.2872 128.927 90.3288 128.844 90.3288 128.725C90.3288 128.607 90.2872 128.495 90.211 128.391C90.1347 128.286 90.0376 128.21 89.9197 128.168C89.8019 128.126 89.7048 128.133 89.6285 128.182C89.5523 128.231 89.5107 128.314 89.5107 128.433C89.5107 128.551 89.5523 128.663 89.6285 128.767C89.7048 128.871 89.8019 128.948 89.9197 128.99Z" fill="white"/>
<path d="M91.6318 128.823L91.3128 128.712V129.324C91.3128 129.492 91.4168 129.526 91.6318 129.589V129.84C91.2088 129.742 91.0424 129.561 91.0424 129.227V128.614L90.8066 128.53V128.266L91.0424 128.349V128.071L91.3197 128.092V128.447L91.6387 128.558V128.823H91.6318Z" fill="white"/>
<path d="M92.0471 129.464C92.0887 129.673 92.2412 129.84 92.4562 129.916C92.6018 129.972 92.7127 129.958 92.7821 129.875L93.0109 130.091C92.8861 130.23 92.6989 130.258 92.4492 130.167C92.2412 130.091 92.0748 129.965 91.95 129.798C91.8252 129.624 91.7559 129.443 91.7559 129.248C91.7559 129.053 91.8183 128.921 91.9431 128.837C92.0679 128.753 92.2343 128.746 92.4284 128.816C92.6156 128.886 92.7682 129.004 92.8861 129.178C93.0039 129.352 93.0663 129.533 93.0663 129.721C93.0663 129.749 93.0663 129.784 93.0594 129.833L92.0471 129.464ZM92.7959 129.506C92.7543 129.283 92.6156 129.122 92.4284 129.06C92.2274 128.983 92.0817 129.06 92.0401 129.234L92.789 129.506H92.7959Z" fill="white"/>
<path d="M94.7304 129.68L95.0216 129.784L94.6195 130.919L94.3491 130.822L94.0856 129.861L93.8152 130.627L93.5447 130.529L93.1426 129.102L93.4338 129.206L93.6834 130.181L93.9538 129.394L94.2173 129.492L94.4808 130.474L94.7304 129.68Z" fill="white"/>
<path d="M96.1871 130.202L96.4645 130.3V131.581L96.1871 131.484V131.303C96.0831 131.414 95.9375 131.428 95.7434 131.358C95.57 131.296 95.4175 131.177 95.2927 131.003C95.1679 130.829 95.1055 130.641 95.1055 130.46C95.1055 130.279 95.1679 130.132 95.2927 130.049C95.4175 129.965 95.5631 129.951 95.7434 130.014C95.9375 130.084 96.0831 130.209 96.1871 130.39V130.209V130.202ZM95.785 131.108C95.9029 131.149 95.9999 131.142 96.0762 131.094C96.1525 131.045 96.1941 130.961 96.1941 130.843C96.1941 130.724 96.1525 130.613 96.0762 130.509C95.9999 130.404 95.9029 130.327 95.785 130.286C95.6671 130.244 95.57 130.251 95.4938 130.3C95.4175 130.348 95.3759 130.432 95.3759 130.55C95.3759 130.669 95.4175 130.78 95.4938 130.885C95.57 130.989 95.6671 131.066 95.785 131.108Z" fill="white"/>
<path d="M97.6432 130.731L97.9344 130.836L97.4421 131.978C97.3173 132.264 97.1162 132.347 96.8181 132.222V131.964C96.9914 132.034 97.0885 131.985 97.1578 131.839L97.1717 131.818L96.6309 130.362L96.929 130.474L97.3104 131.539L97.6363 130.724L97.6432 130.731Z" fill="white"/>
<g clip-path="url(#clip5_830_9654)">
<path d="M175 305.267L182.357 302.643L185.05 303.531L177.693 306.156L175 305.267Z" fill="#429A97"/>
<path d="M177.693 306.146L185.05 303.521V316.342L177.693 318.967V306.146Z" fill="#00C8B5"/>
<path d="M175 305.268L177.693 306.146V318.978L175 317.921V305.268Z" fill="#006058"/>
<path d="M184.987 308.08L183.256 307.421C182.828 307.28 182.331 307.28 181.803 307.474C180.224 308.044 178.943 310.025 178.943 311.892C178.943 313.189 179.56 314.093 180.464 314.334L182.085 314.956L182.55 313.853C183.763 313.021 184.658 311.39 184.658 309.827C184.658 309.55 184.626 309.293 184.574 309.053L184.987 308.075V308.08Z" fill="#006058"/>
<path d="M185.645 312.601C186.575 310.755 186.296 308.738 185.022 308.096C183.747 307.454 181.961 308.431 181.031 310.278C180.101 312.125 180.38 314.142 181.654 314.783C182.928 315.425 184.715 314.448 185.645 312.601Z" fill="#006058"/>
<path d="M183.34 314.486C184.778 313.968 185.944 312.169 185.944 310.475C185.944 308.781 184.778 307.83 183.34 308.352C181.902 308.875 180.736 310.669 180.736 312.363C180.736 314.057 181.902 315.009 183.34 314.486Z" fill="#00C8B5"/>
<path d="M183.005 311.15L182.085 310.397L183.005 311.15Z" fill="#001D23"/>
<path d="M183.005 311.15L182.085 310.397" stroke="#001D23" stroke-width="0.5" stroke-miterlimit="10" stroke-linecap="square"/>
<path d="M183.34 311.976C183.601 311.882 183.816 311.558 183.816 311.249C183.816 310.941 183.601 310.768 183.34 310.862C183.079 310.956 182.864 311.28 182.864 311.589C182.864 311.897 183.079 312.07 183.34 311.976Z" fill="#001D23"/>
<path d="M183.34 309.189V309.607V309.189Z" fill="#001D23"/>
<path d="M183.34 309.189V309.607" stroke="#001D23" stroke-width="0.5" stroke-miterlimit="10" stroke-linecap="square"/>
<path d="M184.679 309.356L184.428 309.743L184.679 309.356Z" fill="#001D23"/>
<path d="M184.679 309.356L184.428 309.743" stroke="#001D23" stroke-width="0.5" stroke-miterlimit="10" stroke-linecap="square"/>
<path d="M185.233 310.737L184.877 310.868L185.233 310.737Z" fill="#001D23"/>
<path d="M185.233 310.737L184.877 310.868" stroke="#001D23" stroke-width="0.5" stroke-miterlimit="10" stroke-linecap="square"/>
<path d="M181.797 311.976L181.442 312.107L181.797 311.976Z" fill="#001D23"/>
<path d="M181.797 311.976L181.442 312.107" stroke="#001D23" stroke-width="0.5" stroke-miterlimit="10" stroke-linecap="square"/>
</g>
<path d="M184.829 306.351C187.658 305.331 189.954 301.791 189.954 298.46C189.954 295.129 187.658 293.252 184.829 294.282C182.001 295.312 179.705 298.842 179.705 302.173C179.705 305.503 182.001 307.381 184.829 306.351Z" fill="#006058"/>
<path d="M185.875 306.873C188.704 305.854 190.999 302.314 190.999 298.983C190.999 295.652 188.704 293.775 185.875 294.805C183.046 295.835 180.751 299.365 180.751 302.696C180.751 306.026 183.046 307.904 185.875 306.873Z" fill="#429A97"/>
<path d="M183.365 303.412L184.358 301.236L185.152 302.081L186.638 298.632L187.829 300.364L189.117 298.183" stroke="#D5F2F1" stroke-miterlimit="10" stroke-linecap="square"/>
<path d="M112.655 322L114 321.1V295.816L89.3448 286L88 286.9L112.655 322Z" fill="#006058"/>
<path d="M88 312.183L112.655 322V296.716L88 286.9V312.183Z" fill="#00C8B5"/>
<path d="M111.31 320.155L89.3448 311.329V306.398L111.31 315.231V320.155Z" fill="#00A999"/>
<path d="M100.328 295.193C104.842 297.006 108.851 300.85 111.31 305.267V297.572L89.3448 288.745V296.434C91.804 294.004 95.8128 293.38 100.328 295.193Z" fill="#00A999"/>
<path d="M100.328 295.739C95.7552 293.901 91.7207 294.627 89.3448 297.224V305.858L111.31 314.684V306.057C108.941 301.544 104.9 297.578 100.328 295.739Z" fill="#00A999"/>
<path d="M100.328 295.739C104.9 297.578 108.941 301.551 111.31 306.057V305.266C108.851 300.856 104.842 297.012 100.328 295.193C95.8128 293.374 91.804 293.997 89.3448 296.434V297.224C91.7143 294.621 95.7552 293.901 100.328 295.739Z" fill="white"/>
<path d="M91.5094 301.249C91.4646 301.319 91.4261 301.39 91.4005 301.461C90.5168 301.371 89.9276 300.902 89.8892 300.869C89.7995 300.799 89.6971 300.799 89.665 300.869C89.6266 300.94 89.665 301.062 89.7547 301.133C89.7995 301.172 90.4079 301.667 91.3237 301.814C91.3237 301.827 91.3237 301.84 91.3237 301.847C91.3237 302.104 91.4325 302.322 91.5734 302.47C91.9705 302.888 92.8414 303.017 94.1094 302.232C94.0261 302.432 93.9557 302.663 93.9045 302.907C93.9045 302.92 93.9045 302.927 93.9045 302.939C93.9045 303.01 93.9493 303.094 94.0133 303.152C94.1478 303.261 94.2311 303.177 94.2951 303.107L94.468 302.914C94.6217 302.747 94.9611 302.367 95.1916 302.187C95.166 302.322 95.134 302.483 95.134 302.637C95.134 302.849 95.1852 303.068 95.3581 303.242C95.5054 303.383 95.736 303.505 96.2419 303.409C96.2867 303.544 96.37 303.634 96.4212 303.672C96.7414 303.949 97.3498 303.872 97.9838 303.518C97.9005 303.679 97.8365 303.807 97.8173 303.872C97.8173 303.891 97.8173 303.904 97.8173 303.923C97.8173 304.007 97.8685 304.084 97.9197 304.129C98.0606 304.244 98.1439 304.161 98.2143 304.09L98.4064 303.891C98.5665 303.717 98.938 303.319 99.1557 303.177C99.2197 303.364 99.335 303.608 99.5399 303.807C99.4823 303.917 99.4503 304.026 99.4503 304.122C99.4503 304.244 99.4951 304.354 99.5847 304.45C99.7448 304.624 99.9946 304.662 100.251 304.63C99.4311 305.119 99.0532 305.781 99.0404 306.141V306.16C99.0404 306.359 99.1365 306.482 99.2005 306.539C99.3222 306.655 99.4759 306.674 99.6552 306.604C100.276 306.359 100.725 305.369 100.955 304.746C101.263 304.617 101.628 304.514 102.037 304.457C101.903 304.643 101.826 304.836 101.826 305.016C101.826 305.08 101.839 305.144 101.858 305.209C101.903 305.357 102.005 305.479 102.14 305.543C102.428 305.691 102.819 305.543 103.286 305.157C103.248 305.254 103.209 305.35 103.165 305.447C101.871 305.948 101.288 306.809 101.218 307.375C101.211 307.42 101.205 307.465 101.205 307.504C101.205 307.742 101.301 307.889 101.384 307.973C101.48 308.069 101.647 308.166 101.897 308.076C102.172 307.973 102.825 307.214 103.453 305.774C104.292 305.466 105.438 305.305 106.968 305.498C107.045 305.504 107.097 305.459 107.097 305.382C107.097 305.369 107.097 305.35 107.097 305.337C107.071 305.234 106.975 305.144 106.879 305.132C105.54 304.964 104.484 305.061 103.658 305.292C103.754 305.042 103.856 304.765 103.952 304.482C103.952 304.469 103.959 304.45 103.959 304.437C103.959 304.373 103.92 304.289 103.856 304.238C103.779 304.174 103.683 304.161 103.638 304.219C102.774 305.228 102.287 305.279 102.178 305.234C102.178 305.222 102.166 305.202 102.166 305.177C102.166 305.022 102.3 304.688 102.723 304.405C102.755 304.386 102.768 304.347 102.768 304.302C102.768 304.27 102.755 304.232 102.735 304.193C102.691 304.109 102.601 304.045 102.524 304.045C101.98 304.058 101.512 304.142 101.102 304.27C101.102 304.257 101.109 304.244 101.109 304.238C101.109 304.225 101.109 304.212 101.109 304.199C101.109 304.135 101.07 304.058 101.013 304.007H101.006C101.128 303.955 101.25 303.897 101.378 303.833C101.512 303.762 101.551 303.659 101.551 303.576C101.551 303.537 101.544 303.505 101.538 303.479C101.5 303.338 101.384 303.216 101.231 303.132C100.846 302.933 100.244 303.017 99.7 303.602C99.5143 303.428 99.4439 303.158 99.4118 303.029L99.399 302.978C99.3734 302.894 99.3094 302.824 99.2325 302.792C99.1173 302.747 98.9892 302.779 98.7907 302.927C98.7907 302.927 98.7907 302.92 98.7971 302.914C98.8099 302.894 98.8099 302.869 98.8099 302.843C98.8099 302.785 98.7779 302.714 98.7266 302.663C98.6498 302.586 98.5537 302.567 98.4961 302.618C97.5291 303.537 96.6838 303.557 96.5557 303.441C96.5557 303.441 96.5557 303.428 96.5557 303.402C96.5557 303.389 96.5557 303.37 96.5621 303.344C96.7798 303.274 97.0296 303.177 97.337 303.036C97.6187 302.907 97.6828 302.734 97.6828 302.605C97.6828 302.547 97.67 302.496 97.6572 302.464C97.5995 302.309 97.465 302.174 97.2921 302.123C96.9335 302.007 96.4852 302.252 96.2611 303.017C95.704 303.177 95.5503 303.055 95.5311 303.036C95.4542 302.959 95.4606 302.721 95.5503 302.329C95.5887 302.155 95.6079 302.072 95.5631 301.975C95.5182 301.879 95.4478 301.802 95.3646 301.769C95.1852 301.686 94.9739 301.795 94.5513 302.232C94.7242 301.898 94.8843 301.686 94.8907 301.679C94.9099 301.66 94.9163 301.628 94.9163 301.602C94.9163 301.551 94.8907 301.487 94.8458 301.429C94.7754 301.345 94.6729 301.319 94.6089 301.364C93.0847 302.618 92.0537 302.592 91.7527 302.277C91.6887 302.213 91.6567 302.117 91.6567 302.007C91.6567 301.962 91.6631 301.917 91.6759 301.866C92.2458 301.892 92.9054 301.763 93.6035 301.326C94.0133 301.069 94.2375 300.76 94.2375 300.458C94.2375 300.387 94.2246 300.323 94.2054 300.259C94.1414 300.079 94.0005 299.924 93.8212 299.841C93.2769 299.597 92.3483 299.937 91.5094 301.262V301.249ZM93.8084 300.169C93.8724 300.201 93.8852 300.227 93.8852 300.239C93.8852 300.259 93.8916 300.278 93.8916 300.304C93.8916 300.458 93.7572 300.715 93.3537 300.966C92.8158 301.307 92.3035 301.442 91.8488 301.467C92.6493 300.239 93.469 300.014 93.802 300.162L93.8084 300.169ZM97.2217 302.451C97.2793 302.444 97.3178 302.451 97.3434 302.464C97.337 302.502 97.2921 302.586 97.1192 302.663C96.9912 302.721 96.8759 302.772 96.7734 302.817C96.9527 302.515 97.1513 302.457 97.2217 302.451ZM101.064 303.396C101.128 303.409 101.173 303.422 101.199 303.441C101.192 303.447 101.179 303.46 101.16 303.467C100.763 303.679 100.411 303.775 100.135 303.749C100.571 303.357 100.949 303.377 101.064 303.396ZM100.539 304.116C100.206 304.277 99.8985 304.296 99.7897 304.251C99.7897 304.219 99.8025 304.148 99.8729 304.032C100.071 304.122 100.289 304.148 100.539 304.116ZM100.404 305.022C100.168 305.537 99.8345 306.083 99.4311 306.244C99.4118 306.25 99.3926 306.257 99.3798 306.263C99.399 306.019 99.7064 305.466 100.404 305.022ZM101.544 307.639C101.544 307.562 101.564 307.439 101.628 307.279C101.788 306.887 102.185 306.398 102.889 306.019C102.358 307.086 101.865 307.639 101.679 307.709C101.621 307.729 101.576 307.735 101.557 307.729C101.551 307.709 101.544 307.684 101.544 307.639Z" fill="white"/>
<path d="M106.507 301.397C106.399 301.352 106.302 301.377 106.264 301.467C106.264 301.467 105.316 303.531 105.207 303.769C104.906 303.666 102.306 302.76 102.306 302.76C102.166 302.715 102.063 302.785 102.063 302.92V302.933C102.069 303.081 102.191 303.235 102.338 303.287L105.406 304.354C105.508 304.392 105.598 304.36 105.636 304.283C105.636 304.283 106.219 303.017 106.514 302.374C106.808 303.255 107.391 304.977 107.391 304.977C107.43 305.087 107.519 305.19 107.615 305.235C107.615 305.235 109.197 305.961 110.01 306.334C109.389 306.604 108.166 307.131 108.166 307.131C108.102 307.157 108.07 307.215 108.07 307.292C108.07 307.311 108.07 307.337 108.076 307.362C108.076 307.362 108.467 309.06 108.672 309.934C107.993 309.22 106.661 307.825 106.661 307.825C106.578 307.735 106.469 307.69 106.379 307.71C106.379 307.71 105.034 308.031 104.343 308.192C104.554 307.51 104.938 306.282 104.938 306.282C104.938 306.263 104.945 306.237 104.945 306.218C104.945 306.102 104.868 305.967 104.753 305.89C104.618 305.794 104.471 305.82 104.433 305.942L103.664 308.436C103.638 308.526 103.67 308.655 103.76 308.751C103.843 308.847 103.965 308.899 104.055 308.88C104.055 308.88 106.27 308.352 106.52 308.295C106.77 308.558 108.947 310.84 108.947 310.84C109.037 310.937 109.152 310.975 109.242 310.95C109.312 310.924 109.351 310.866 109.351 310.782C109.351 310.763 109.351 310.737 109.344 310.712C109.344 310.712 108.698 307.922 108.627 307.607C108.851 307.51 110.856 306.642 110.856 306.642C110.913 306.617 110.952 306.559 110.952 306.482C110.952 306.456 110.952 306.424 110.939 306.398C110.907 306.282 110.817 306.173 110.708 306.128C110.708 306.128 108.121 304.939 107.827 304.804C107.718 304.482 106.77 301.66 106.77 301.66C106.732 301.545 106.635 301.442 106.527 301.397H106.507Z" fill="white"/>
<path d="M90.2926 310.622V307.864L91.7079 308.436V308.744L90.6448 308.314V309.201L91.631 309.599V309.902L90.6448 309.503V310.461L91.7335 310.898V311.2L90.2926 310.622Z" fill="white"/>
<path d="M94.0517 309.381V312.133L93.5714 311.946L92.4891 309.118L92.4827 309.111V311.503L92.1689 311.38V308.623L92.662 308.822L93.7315 311.612H93.7379V309.253L94.0517 309.381Z" fill="white"/>
<path d="M94.5384 312.332V309.574L95.9537 310.139V310.448L94.8906 310.017V310.904L95.8768 311.303V311.612L94.8906 311.213V312.164L95.9793 312.602V312.91L94.5384 312.332Z" fill="white"/>
<path d="M96.7478 310.769L97.2793 310.981C97.5483 311.091 97.6507 311.348 97.6507 311.547C97.6507 311.791 97.5291 311.959 97.2793 311.856L96.7542 311.644V310.763L96.7478 310.769ZM97.1576 312.119C97.2729 312.164 97.5483 312.293 97.5739 312.64C97.6059 313.019 97.5803 313.366 97.6828 313.598L98.0478 313.746C97.9966 313.553 97.9581 313.103 97.9517 312.987C97.9325 312.428 97.8172 312.274 97.5035 312.094C97.8236 312.158 98.003 311.984 98.003 311.656C98.003 311.316 97.8301 310.898 97.3434 310.705L96.3956 310.326V313.084L96.7478 313.225V311.959L97.1576 312.126V312.119Z" fill="white"/>
<path d="M99.7 312.383C99.7 312.055 99.5655 311.83 99.2133 311.689C99.1044 311.644 98.7074 311.502 98.7074 312.081V313.013C98.7074 313.617 98.8803 313.842 99.2133 313.971C99.463 314.074 99.6295 314.067 99.7064 314.048V313.225L99.2005 313.02V312.711L100.059 313.058V314.402C99.8345 314.434 99.5719 314.415 99.2197 314.267C98.6369 314.035 98.3552 313.617 98.3552 312.852V311.946C98.3552 311.393 98.6369 311.155 99.2197 311.393C99.8025 311.631 100.097 311.965 100.071 312.531L99.7064 312.383H99.7Z" fill="white"/>
<path d="M101.73 312.467L102.082 312.608L101.333 314.009V315.064L100.981 314.922V313.868L100.244 311.869L100.635 312.023L101.173 313.572L101.73 312.467Z" fill="white"/>
<path d="M103.267 315.019V315.096C103.267 315.469 103.504 315.681 103.728 315.778C104.003 315.887 104.221 315.855 104.221 315.527C104.221 314.916 102.992 314.492 102.992 313.663C102.992 313.174 103.337 313.052 103.799 313.238C104.298 313.438 104.58 313.798 104.561 314.35L104.196 314.203C104.196 313.9 104.106 313.663 103.773 313.534C103.562 313.45 103.35 313.47 103.35 313.772C103.35 314.376 104.586 314.788 104.586 315.662C104.586 316.24 104.189 316.266 103.734 316.086C102.921 315.765 102.921 315.148 102.934 314.884L103.28 315.025L103.267 315.019Z" fill="white"/>
<path d="M106.527 314.395V314.698L105.803 314.408V316.858L105.457 316.716V314.267L104.733 313.978V313.669L106.527 314.395Z" fill="white"/>
<path d="M107.763 316.684L106.885 316.33L107.314 315.032H107.321L107.763 316.684ZM106.238 317.031L106.591 317.172L106.796 316.6L107.859 317.024L108.057 317.764L108.448 317.918L107.551 314.8L107.103 314.62L106.232 317.024L106.238 317.031Z" fill="white"/>
<path d="M109.069 315.719L109.6 315.932C109.869 316.041 109.972 316.298 109.972 316.497C109.972 316.742 109.85 316.909 109.6 316.806L109.075 316.594V315.713L109.069 315.719ZM109.479 317.069C109.594 317.114 109.869 317.243 109.895 317.59C109.927 317.969 109.901 318.317 110.004 318.548L110.369 318.696C110.318 318.503 110.279 318.053 110.273 317.937C110.254 317.378 110.138 317.224 109.825 317.044C110.145 317.108 110.324 316.934 110.324 316.607C110.324 316.266 110.151 315.848 109.665 315.655L108.717 315.276V318.034L109.069 318.175V316.909L109.479 317.076V317.069Z" fill="white"/>
<path d="M280 240L413 240" stroke="#00C8B5" stroke-width="1.5"/>
<path d="M410 238.315C410 237.589 410.59 237 411.319 237L414.681 237C415.41 237 416 237.589 416 238.315L416 241.685C416 242.411 415.41 243 414.681 243L410 243L410 238.315Z" fill="#00C8B5"/>
<path d="M791 240H660" stroke="#006058" stroke-width="1.5"/>
<path d="M796 241.685C796 242.411 795.41 243 794.681 243L791.319 243C790.59 243 790 242.411 790 241.685L790 238.315C790 237.589 790.59 237 791.319 237L796 237L796 241.685Z" fill="#006058"/>
<path d="M860.334 3.2L860.334 13L858.416 13L858.416 6.644L855.658 11.194L855.434 11.194L852.676 6.658L852.676 13L850.744 13L850.744 3.2L852.732 3.2L855.546 7.834L858.346 3.2L860.334 3.2ZM869.02 13L868.432 11.236L864.526 11.236L863.938 13L861.852 13L865.282 3.2L867.676 3.2L871.12 13L869.02 13ZM865.142 9.43L867.83 9.43L866.486 5.426L865.142 9.43ZM878.007 13L876.033 9.598L874.563 9.598L874.563 13L872.631 13L872.631 3.2L876.551 3.2C877.457 3.2 878.227 3.51733 878.861 4.152C879.496 4.78667 879.813 5.552 879.813 6.448C879.813 7.05467 879.641 7.61933 879.295 8.142C878.95 8.65533 878.493 9.04267 877.923 9.304L880.093 13L878.007 13ZM874.563 5.006L874.563 7.904L876.551 7.904C876.915 7.904 877.228 7.764 877.489 7.484C877.751 7.19467 877.881 6.84933 877.881 6.448C877.881 6.04667 877.751 5.706 877.489 5.426C877.228 5.146 876.915 5.006 876.551 5.006L874.563 5.006ZM889.449 13L887.223 13L883.723 8.408L883.723 13L881.791 13L881.791 3.2L883.723 3.2L883.723 7.526L887.083 3.2L889.309 3.2L885.683 7.96L889.449 13ZM892.896 11.152L897.026 11.152L897.026 13L890.964 13L890.964 3.2L896.956 3.2L896.956 5.048L892.896 5.048L892.896 7.134L896.606 7.134L896.606 8.954L892.896 8.954L892.896 11.152ZM905.43 3.2L905.43 5.048L902.784 5.048L902.784 13L900.852 13L900.852 5.048L898.22 5.048L898.22 3.2L905.43 3.2ZM910.723 3.2C911.665 3.2 912.459 3.51734 913.103 4.152C913.747 4.78667 914.069 5.566 914.069 6.49C914.069 7.414 913.747 8.19334 913.103 8.828C912.459 9.46267 911.665 9.78 910.723 9.78L909.001 9.78L909.001 13L907.069 13L907.069 3.2L910.723 3.2ZM910.723 7.974C911.133 7.974 911.474 7.834 911.745 7.554C912.015 7.26467 912.151 6.91 912.151 6.49C912.151 6.06067 912.015 5.706 911.745 5.426C911.474 5.146 911.133 5.006 910.723 5.006L909.001 5.006L909.001 7.974L910.723 7.974ZM917.818 11.152L921.556 11.152L921.556 13L915.886 13L915.886 3.2L917.818 3.2L917.818 11.152ZM929.787 13L929.199 11.236L925.293 11.236L924.705 13L922.619 13L926.049 3.2L928.443 3.2L931.887 13L929.787 13ZM925.909 9.43L928.597 9.43L927.253 5.426L925.909 9.43ZM937.692 13.196C936.217 13.196 934.999 12.706 934.038 11.726C933.076 10.746 932.596 9.53734 932.596 8.1C932.596 6.65334 933.076 5.44467 934.038 4.474C934.999 3.494 936.217 3.004 937.692 3.004C938.578 3.004 939.395 3.214 940.142 3.634C940.898 4.04467 941.486 4.60467 941.906 5.314L940.24 6.28C939.997 5.84134 939.652 5.50067 939.204 5.258C938.756 5.006 938.252 4.88 937.692 4.88C936.74 4.88 935.97 5.17867 935.382 5.776C934.803 6.37334 934.514 7.148 934.514 8.1C934.514 9.04267 934.803 9.81267 935.382 10.41C935.97 11.0073 936.74 11.306 937.692 11.306C938.252 11.306 938.756 11.1847 939.204 10.942C939.661 10.69 940.006 10.3493 940.24 9.92L941.906 10.886C941.486 11.5953 940.902 12.16 940.156 12.58C939.409 12.9907 938.588 13.196 937.692 13.196ZM945.584 11.152L949.714 11.152L949.714 13L943.652 13L943.652 3.2L949.644 3.2L949.644 5.048L945.584 5.048L945.584 7.134L949.294 7.134L949.294 8.954L945.584 8.954L945.584 11.152Z" fill="#54747E"/>
<path d="M453.061 12.196C454.111 12.196 454.965 11.93 455.623 11.398C456.281 10.866 456.617 10.152 456.617 9.242C456.617 8.682 456.463 8.192 456.253 7.856C456.071 7.52 455.623 7.17 455.329 6.988C455.189 6.89 454.979 6.792 454.713 6.694C454.447 6.582 454.237 6.498 454.083 6.456L453.411 6.232C452.683 6.008 452.193 5.798 451.927 5.616C451.675 5.42 451.549 5.168 451.549 4.86C451.549 4.286 452.039 3.88 452.837 3.88C453.691 3.88 454.321 4.3 454.713 5.14L456.337 4.202C455.665 2.816 454.419 2.004 452.837 2.004C451.955 2.004 451.185 2.27 450.555 2.802C449.925 3.32 449.617 4.034 449.617 4.916C449.617 5.812 449.939 6.484 450.541 6.932C451.157 7.366 451.689 7.576 452.571 7.842C453.369 8.066 453.915 8.276 454.223 8.472C454.531 8.654 454.685 8.92 454.685 9.27C454.685 9.872 454.195 10.306 453.117 10.306C451.997 10.306 451.241 9.802 450.863 8.808L449.211 9.774C449.757 11.272 451.115 12.196 453.061 12.196ZM463.571 2.2L461.443 6.288L459.315 2.2L457.131 2.2L460.477 8.178L460.477 12L462.395 12L462.395 8.178L465.755 2.2L463.571 2.2ZM470.04 12.196C471.09 12.196 471.944 11.93 472.602 11.398C473.26 10.866 473.596 10.152 473.596 9.242C473.596 8.682 473.442 8.192 473.232 7.856C473.05 7.52 472.602 7.17 472.308 6.988C472.168 6.89 471.958 6.792 471.692 6.694C471.426 6.582 471.216 6.498 471.062 6.456L470.39 6.232C469.662 6.008 469.172 5.798 468.906 5.616C468.654 5.42 468.528 5.168 468.528 4.86C468.528 4.286 469.018 3.88 469.816 3.88C470.67 3.88 471.3 4.3 471.692 5.14L473.316 4.202C472.644 2.816 471.398 2.004 469.816 2.004C468.934 2.004 468.164 2.27 467.534 2.802C466.904 3.32 466.596 4.034 466.596 4.916C466.596 5.812 466.918 6.484 467.52 6.932C468.136 7.366 468.668 7.576 469.55 7.842C470.348 8.066 470.894 8.276 471.202 8.472C471.51 8.654 471.664 8.92 471.664 9.27C471.664 9.872 471.174 10.306 470.096 10.306C468.976 10.306 468.22 9.802 467.842 8.808L466.19 9.774C466.736 11.272 468.094 12.196 470.04 12.196ZM474.333 2.2L474.333 4.048L476.965 4.048L476.965 12L478.897 12L478.897 4.048L481.543 4.048L481.543 2.2L474.333 2.2ZM485.113 7.954L488.823 7.954L488.823 6.134L485.113 6.134L485.113 4.048L489.173 4.048L489.173 2.2L483.181 2.2L483.181 12L489.243 12L489.243 10.152L485.113 10.152L485.113 7.954ZM498.767 2.2L495.967 6.834L493.153 2.2L491.165 2.2L491.165 12L493.097 12L493.097 5.658L495.855 10.194L496.079 10.194L498.837 5.644L498.837 12L500.755 12L500.755 2.2L498.767 2.2ZM515.447 10.726C516.441 9.732 516.931 8.528 516.931 7.1C516.931 5.672 516.441 4.468 515.447 3.488C514.453 2.494 513.249 2.004 511.835 2.004C510.421 2.004 509.217 2.494 508.223 3.488C507.243 4.468 506.753 5.672 506.753 7.1C506.753 8.528 507.243 9.732 508.223 10.726C509.217 11.706 510.421 12.196 511.835 12.196C513.249 12.196 514.453 11.706 515.447 10.726ZM509.581 9.41C508.979 8.808 508.671 8.038 508.671 7.1C508.671 6.162 508.979 5.392 509.581 4.79C510.183 4.188 510.939 3.88 511.835 3.88C512.731 3.88 513.487 4.188 514.089 4.79C514.691 5.392 514.999 6.162 514.999 7.1C514.999 8.038 514.691 8.808 514.089 9.41C513.487 10.012 512.731 10.306 511.835 10.306C510.939 10.306 510.183 10.012 509.581 9.41ZM524.701 2.2L518.849 2.2L518.849 12L520.781 12L520.781 8.22L524.589 8.22L524.589 6.372L520.781 6.372L520.781 4.048L524.701 4.048L524.701 2.2ZM538.191 12L536.021 8.304C537.155 7.786 537.911 6.666 537.911 5.448C537.911 4.552 537.589 3.782 536.959 3.152C536.329 2.522 535.559 2.2 534.649 2.2L530.729 2.2L530.729 12L532.661 12L532.661 8.598L534.131 8.598L536.105 12L538.191 12ZM534.649 4.006C535.377 4.006 535.979 4.65 535.979 5.448C535.979 6.246 535.377 6.904 534.649 6.904L532.661 6.904L532.661 4.006L534.649 4.006ZM541.821 7.954L545.531 7.954L545.531 6.134L541.821 6.134L541.821 4.048L545.881 4.048L545.881 2.2L539.889 2.2L539.889 12L545.951 12L545.951 10.152L541.821 10.152L541.821 7.954ZM552.452 12.196C554.244 12.196 555.826 11.3 556.666 9.886L555 8.92C554.538 9.774 553.572 10.306 552.452 10.306C551.5 10.306 550.73 10.012 550.142 9.41C549.568 8.808 549.274 8.038 549.274 7.1C549.274 6.148 549.568 5.378 550.142 4.776C550.73 4.174 551.5 3.88 552.452 3.88C553.572 3.88 554.51 4.398 555 5.28L556.666 4.314C555.826 2.9 554.23 2.004 552.452 2.004C550.982 2.004 549.764 2.494 548.798 3.474C547.832 4.44 547.356 5.658 547.356 7.1C547.356 8.542 547.832 9.746 548.798 10.726C549.764 11.706 550.982 12.196 552.452 12.196ZM566.563 10.726C567.557 9.732 568.047 8.528 568.047 7.1C568.047 5.672 567.557 4.468 566.563 3.488C565.569 2.494 564.365 2.004 562.951 2.004C561.537 2.004 560.333 2.494 559.339 3.488C558.359 4.468 557.869 5.672 557.869 7.1C557.869 8.528 558.359 9.732 559.339 10.726C560.333 11.706 561.537 12.196 562.951 12.196C564.365 12.196 565.569 11.706 566.563 10.726ZM560.697 9.41C560.095 8.808 559.787 8.038 559.787 7.1C559.787 6.162 560.095 5.392 560.697 4.79C561.299 4.188 562.055 3.88 562.951 3.88C563.847 3.88 564.603 4.188 565.205 4.79C565.807 5.392 566.115 6.162 566.115 7.1C566.115 8.038 565.807 8.808 565.205 9.41C564.603 10.012 563.847 10.306 562.951 10.306C562.055 10.306 561.299 10.012 560.697 9.41ZM577.427 12L575.257 8.304C576.391 7.786 577.147 6.666 577.147 5.448C577.147 4.552 576.825 3.782 576.195 3.152C575.565 2.522 574.795 2.2 573.885 2.2L569.965 2.2L569.965 12L571.897 12L571.897 8.598L573.367 8.598L575.341 12L577.427 12ZM573.885 4.006C574.613 4.006 575.215 4.65 575.215 5.448C575.215 6.246 574.613 6.904 573.885 6.904L571.897 6.904L571.897 4.006L573.885 4.006ZM579.125 2.2L579.125 12L583.017 12C584.361 12 585.481 11.524 586.377 10.586C587.287 9.648 587.735 8.486 587.735 7.1C587.735 5.714 587.287 4.55201 586.377 3.614C585.481 2.676 584.361 2.2 583.017 2.2L579.125 2.2ZM581.057 10.152L581.057 4.048L583.017 4.048C583.871 4.048 584.557 4.328 585.089 4.902C585.621 5.462 585.887 6.19 585.887 7.1C585.887 8.01 585.621 8.738 585.089 9.31201C584.557 9.872 583.871 10.152 583.017 10.152L581.057 10.152Z" fill="#54747E"/>
<path d="M93.3851 6.918C94.0011 6.428 94.3091 5.77 94.3091 4.958C94.3091 4.16 94.0151 3.502 93.4411 2.984C92.8671 2.466 92.1671 2.2 91.3271 2.2L87.4631 2.2L87.4631 12L91.6211 12C92.4751 12 93.2031 11.734 93.7911 11.202C94.3791 10.67 94.6731 9.984 94.6731 9.158C94.6731 8.164 94.2391 7.408 93.3851 6.918ZM91.3271 4.006C91.9431 4.006 92.3771 4.468 92.3771 5.084C92.3771 5.7 91.9291 6.162 91.3271 6.162L89.3951 6.162L89.3951 4.006L91.3271 4.006ZM89.3951 10.194L89.3951 7.884L91.6211 7.884C92.2791 7.884 92.7551 8.374 92.7551 9.032C92.7551 9.704 92.2791 10.194 91.6211 10.194L89.3951 10.194ZM100.085 12.196C101.191 12.196 102.087 11.888 102.787 11.272C103.487 10.656 103.837 9.83 103.837 8.794L103.837 2.2L101.905 2.2L101.905 8.64C101.905 9.662 101.331 10.306 100.085 10.306C98.8393 10.306 98.2653 9.662 98.2653 8.64L98.2653 2.2L96.3473 2.2L96.3473 8.794C96.3473 9.83 96.6973 10.656 97.3973 11.272C98.0973 11.888 98.9933 12.196 100.085 12.196ZM106.138 12L108.07 12L108.07 2.2L106.138 2.2L106.138 12ZM112.376 2.2L110.444 2.2L110.444 12L116.114 12L116.114 10.152L112.376 10.152L112.376 2.2ZM117.771 2.2L117.771 12L121.663 12C123.007 12 124.127 11.524 125.023 10.586C125.933 9.648 126.381 8.486 126.381 7.1C126.381 5.714 125.933 4.552 125.023 3.614C124.127 2.676 123.007 2.2 121.663 2.2L117.771 2.2ZM119.703 10.152L119.703 4.048L121.663 4.048C122.517 4.048 123.203 4.328 123.735 4.902C124.267 5.462 124.533 6.19 124.533 7.1C124.533 8.01 124.267 8.738 123.735 9.312C123.203 9.872 122.517 10.152 121.663 10.152L119.703 10.152ZM128.312 12L130.244 12L130.244 2.2L128.312 2.2L128.312 12ZM138.288 8.178L134.088 2.2L132.618 2.2L132.618 12L134.55 12L134.55 6.008L138.75 12L140.22 12L140.22 2.2L138.288 2.2L138.288 8.178ZM147.302 6.736L147.302 8.444L150.27 8.444C149.92 9.606 148.912 10.306 147.414 10.306C146.406 10.306 145.594 10.012 144.978 9.41C144.376 8.808 144.068 8.038 144.068 7.114C144.068 6.176 144.362 5.406 144.964 4.804C145.566 4.188 146.336 3.88 147.274 3.88C148.436 3.88 149.444 4.44 149.906 5.238L151.558 4.286C150.718 2.9 149.122 2.004 147.288 2.004C145.832 2.004 144.614 2.494 143.62 3.488C142.64 4.482 142.15 5.686 142.15 7.114C142.15 8.528 142.64 9.732 143.634 10.726C144.628 11.706 145.888 12.196 147.4 12.196C148.814 12.196 149.976 11.762 150.872 10.894C151.768 10.026 152.216 8.892 152.216 7.492L152.216 6.736L147.302 6.736ZM158.21 2.2L158.21 12L162.102 12C163.446 12 164.566 11.524 165.462 10.586C166.372 9.648 166.82 8.486 166.82 7.1C166.82 5.714 166.372 4.552 165.462 3.614C164.566 2.676 163.446 2.2 162.102 2.2L158.21 2.2ZM160.142 10.152L160.142 4.048L162.102 4.048C162.956 4.048 163.642 4.328 164.174 4.902C164.706 5.462 164.972 6.19 164.972 7.1C164.972 8.01 164.706 8.738 164.174 9.312C163.642 9.872 162.956 10.152 162.102 10.152L160.142 10.152ZM176.795 12L173.351 2.2L170.957 2.2L167.527 12L169.613 12L170.201 10.236L174.107 10.236L174.695 12L176.795 12ZM172.161 4.426L173.505 8.43L170.817 8.43L172.161 4.426ZM176.868 2.2L176.868 4.048L179.5 4.048L179.5 12L181.432 12L181.432 4.048L184.078 4.048L184.078 2.2L176.868 2.2ZM193.405 12L189.961 2.2L187.567 2.2L184.137 12L186.223 12L186.811 10.236L190.717 10.236L191.305 12L193.405 12ZM188.771 4.426L190.115 8.43L187.427 8.43L188.771 4.426Z" fill="#54747E"/>
<defs>
<clipPath id="clip0_830_9654">
<rect width="34.9738" height="35" fill="white" transform="translate(946.706 180)"/>
</clipPath>
<clipPath id="clip1_830_9654">
<rect width="33.2583" height="35" fill="white" transform="translate(821 180)"/>
</clipPath>
<clipPath id="clip2_830_9654">
<rect width="32.4483" height="35" fill="white" transform="translate(884.258 180)"/>
</clipPath>
<clipPath id="clip3_830_9654">
<rect width="24.1888" height="19.4324" fill="white" transform="translate(109.408 65.5083) rotate(-1.20361)"/>
</clipPath>
<clipPath id="clip4_830_9654">
<rect width="24.1888" height="19.4324" fill="white" transform="translate(88 73.7422) rotate(-1.20361)"/>
</clipPath>
<clipPath id="clip5_830_9654">
<rect width="11.1949" height="16.3348" fill="white" transform="translate(175 302.643)"/>
</clipPath>
</defs>
</svg>
