<svg width="2740" height="1209" viewBox="0 0 2740 1209" fill="none" xmlns="http://www.w3.org/2000/svg">
<path d="M1953.06 281.1H2571.02C2664.1 281.1 2739.56 356.555 2739.56 449.634V899.059C2739.56 992.138 2664.1 1067.59 2571.02 1067.59H2121.6C2028.52 1067.59 1953.06 992.138 1953.06 899.059V281.1Z" fill="#001D23"/>
<path opacity="0.08" d="M2576.64 674.345L2115.98 674.345" stroke="white" stroke-width="4.21336"/>
<g clip-path="url(#clip0_844_6246)">
<path d="M2485.74 587.738L2484.06 574.63L2497.17 578.217" stroke="white" stroke-width="5.61781" stroke-miterlimit="10" stroke-linecap="square"/>
<path d="M2487.33 576.183C2492.02 585.288 2499.56 592.535 2508.76 596.766C2517.96 600.997 2528.28 601.969 2538.09 599.528C2547.89 597.087 2556.61 591.372 2562.85 583.295C2569.1 575.219 2572.51 565.246 2572.54 554.966" stroke="white" stroke-width="5.61781" stroke-miterlimit="10"/>
<path d="M2567.58 522.195L2569.26 535.304L2556.15 531.716" stroke="white" stroke-width="5.61781" stroke-miterlimit="10" stroke-linecap="square"/>
<path d="M2565.98 533.748C2561.3 524.642 2553.76 517.396 2544.56 513.165C2535.36 508.934 2525.04 507.961 2515.23 510.403C2505.43 512.844 2496.71 518.559 2490.46 526.635C2484.22 534.712 2480.81 544.685 2480.78 554.965" stroke="white" stroke-width="5.61781" stroke-miterlimit="10"/>
<path d="M2528.46 557.667C2527.93 558.024 2527.3 558.215 2526.66 558.215C2525.8 558.215 2524.97 557.872 2524.36 557.263C2523.75 556.654 2523.41 555.827 2523.41 554.965C2523.41 554.323 2523.6 553.694 2523.96 553.16C2524.31 552.626 2524.82 552.209 2525.42 551.963C2526.01 551.717 2526.66 551.653 2527.29 551.778C2527.92 551.904 2528.5 552.213 2528.96 552.668C2529.41 553.122 2529.72 553.701 2529.85 554.331C2529.97 554.962 2529.91 555.615 2529.66 556.209C2529.41 556.802 2529 557.31 2528.46 557.667Z" stroke="#00CC8F" stroke-width="6.6095" stroke-miterlimit="10" stroke-linecap="square"/>
<path d="M2546.47 555.027C2546.47 553.645 2546.31 552.267 2545.99 550.921L2552.75 546.091L2547.74 537.783L2539.93 540.947C2537.82 539.078 2535.31 537.677 2532.58 536.841L2531.55 528.75H2521.54L2520.51 536.841C2517.78 537.677 2515.27 539.078 2513.15 540.947L2505.45 537.686L2500.44 545.97L2507.17 550.8C2506.57 553.507 2506.57 556.305 2507.17 559.012L2500.44 563.842L2505.45 572.15L2513.25 568.962C2515.37 570.838 2517.88 572.247 2520.61 573.092L2521.64 581.183H2531.65L2532.68 573.092C2535.41 572.247 2537.92 570.838 2540.03 568.962L2547.87 572.15L2552.87 563.842L2546.14 559.012C2546.44 557.662 2546.59 556.286 2546.59 554.906L2546.47 555.027Z" stroke="white" stroke-width="5.61781" stroke-miterlimit="10" stroke-linecap="square"/>
</g>
<g clip-path="url(#clip1_844_6246)">
<path d="M2171.1 582.107L2178.15 578.926L2193.24 572.151L2199.85 559.528" stroke="#00CC8F" stroke-width="6.6095" stroke-miterlimit="10"/>
<path d="M2205.39 558.183C2207.56 555.461 2207.92 552.126 2206.18 550.733C2204.44 549.341 2201.26 550.419 2199.08 553.14C2196.9 555.862 2196.55 559.197 2198.29 560.59C2200.03 561.982 2203.21 560.905 2205.39 558.183Z" stroke="#00CC8F" stroke-width="6.6095" stroke-miterlimit="10" stroke-linecap="square"/>
<path d="M2202.15 534.21L2195.12 531.005L2180.06 524.181L2166.21 527.581" stroke="#00CC8F" stroke-width="6.6095" stroke-miterlimit="10"/>
<path d="M2161.89 532.564C2165.37 532.398 2168.11 530.458 2168 528.231C2167.89 526.004 2164.99 524.334 2161.5 524.501C2158.02 524.668 2155.29 526.608 2155.39 528.834C2155.5 531.061 2158.41 532.731 2161.89 532.564Z" stroke="#00CC8F" stroke-width="6.6095" stroke-miterlimit="10" stroke-linecap="square"/>
<path d="M2140.45 535.679V543.409V559.945L2149.26 571.148" stroke="#00CC8F" stroke-width="6.6095" stroke-miterlimit="10"/>
<path d="M2154.82 580.513C2156.81 579.497 2157.13 576.158 2155.54 573.056C2153.95 569.953 2151.05 568.262 2149.07 569.278C2147.08 570.294 2146.76 573.633 2148.35 576.735C2149.94 579.838 2152.84 581.529 2154.82 580.513Z" stroke="#00CC8F" stroke-width="6.6095" stroke-miterlimit="10" stroke-linecap="square"/>
<path d="M2126.85 528.413L2171.1 548.325L2215.38 528.413" stroke="white" stroke-width="5.61781" stroke-miterlimit="10"/>
<path d="M2171.13 548.326V601.457" stroke="white" stroke-width="5.61781" stroke-miterlimit="10"/>
<path d="M2215.38 581.518L2171.1 601.455L2126.85 581.518V528.412L2171.1 508.5L2215.38 528.412V581.518Z" stroke="white" stroke-width="5.61781" stroke-miterlimit="10" stroke-linecap="square"/>
</g>
<g clip-path="url(#clip2_844_6246)">
<path d="M2390.04 601.535L2380.02 591.52" stroke="white" stroke-width="5.61781" stroke-miterlimit="10"/>
<path d="M2322.45 552.18H2335.97L2342.72 539.294L2351.73 565.065L2358.49 552.18H2372" stroke="#00CC8F" stroke-width="5.61781" stroke-miterlimit="10"/>
<path d="M2347.67 593.83C2371.07 593.83 2390.04 574.86 2390.04 551.459C2390.04 528.057 2371.07 509.087 2347.67 509.087C2324.26 509.087 2305.29 528.057 2305.29 551.459C2305.29 574.86 2324.26 593.83 2347.67 593.83Z" stroke="white" stroke-width="5.61781" stroke-miterlimit="10"/>
</g>
<path d="M2204.06 757.786V762.01H2198.01V780.186H2193.6V762.01H2187.58V757.786H2204.06ZM2214.59 763.738C2216.34 763.738 2217.78 764.324 2218.91 765.498C2220.06 766.671 2220.64 768.292 2220.64 770.362V780.186H2216.51V770.874C2216.51 769.807 2216.22 768.996 2215.65 768.442C2215.07 767.866 2214.3 767.578 2213.34 767.578C2212.28 767.578 2211.42 767.908 2210.78 768.57C2210.14 769.231 2209.82 770.223 2209.82 771.546V780.186H2205.69V757.786H2209.82V765.978C2210.83 764.484 2212.41 763.738 2214.59 763.738ZM2225.57 762.266C2224.89 762.266 2224.29 762.02 2223.78 761.53C2223.29 761.018 2223.04 760.42 2223.04 759.738C2223.04 759.055 2223.29 758.458 2223.78 757.946C2224.29 757.434 2224.89 757.178 2225.57 757.178C2226.28 757.178 2226.87 757.434 2227.36 757.946C2227.88 758.458 2228.13 759.055 2228.13 759.738C2228.13 760.42 2227.88 761.018 2227.36 761.53C2226.87 762.02 2226.28 762.266 2225.57 762.266ZM2223.52 780.186V764.186H2227.65V780.186H2223.52ZM2234.92 766.938C2235.3 765.914 2235.93 765.146 2236.81 764.634C2237.7 764.122 2238.69 763.866 2239.78 763.866V768.474C2238.52 768.324 2237.39 768.58 2236.39 769.242C2235.41 769.903 2234.92 771.002 2234.92 772.538V780.186H2230.79V764.186H2234.92V766.938ZM2253.09 757.786H2257.22V780.186H2253.09V778.298C2251.87 779.855 2250.15 780.634 2247.91 780.634C2245.75 780.634 2243.91 779.823 2242.37 778.202C2240.86 776.559 2240.1 774.554 2240.1 772.186C2240.1 769.818 2240.86 767.823 2242.37 766.202C2243.91 764.559 2245.75 763.738 2247.91 763.738C2250.15 763.738 2251.87 764.516 2253.09 766.074V757.786ZM2245.47 775.45C2246.33 776.282 2247.39 776.698 2248.67 776.698C2249.95 776.698 2251.01 776.282 2251.84 775.45C2252.67 774.596 2253.09 773.508 2253.09 772.186C2253.09 770.863 2252.67 769.786 2251.84 768.954C2251.01 768.1 2249.95 767.674 2248.67 767.674C2247.39 767.674 2246.33 768.1 2245.47 768.954C2244.64 769.786 2244.23 770.863 2244.23 772.186C2244.23 773.508 2244.64 774.596 2245.47 775.45ZM2260.55 772.506V768.538H2272.55V772.506H2260.55ZM2284.41 757.786C2286.57 757.786 2288.38 758.511 2289.85 759.962C2291.33 761.412 2292.06 763.194 2292.06 765.306C2292.06 767.418 2291.33 769.199 2289.85 770.65C2288.38 772.1 2286.57 772.826 2284.41 772.826H2280.48V780.186H2276.06V757.786H2284.41ZM2284.41 768.698C2285.35 768.698 2286.13 768.378 2286.75 767.738C2287.37 767.076 2287.68 766.266 2287.68 765.306C2287.68 764.324 2287.37 763.514 2286.75 762.874C2286.13 762.234 2285.35 761.914 2284.41 761.914H2280.48V768.698H2284.41ZM2305.2 764.186H2309.33V780.186H2305.2V778.298C2303.97 779.855 2302.23 780.634 2299.99 780.634C2297.85 780.634 2296.02 779.823 2294.48 778.202C2292.97 776.559 2292.21 774.554 2292.21 772.186C2292.21 769.818 2292.97 767.823 2294.48 766.202C2296.02 764.559 2297.85 763.738 2299.99 763.738C2302.23 763.738 2303.97 764.516 2305.2 766.074V764.186ZM2297.59 775.45C2298.42 776.282 2299.47 776.698 2300.75 776.698C2302.03 776.698 2303.09 776.282 2303.92 775.45C2304.78 774.596 2305.2 773.508 2305.2 772.186C2305.2 770.863 2304.78 769.786 2303.92 768.954C2303.09 768.1 2302.03 767.674 2300.75 767.674C2299.47 767.674 2298.42 768.1 2297.59 768.954C2296.75 769.786 2296.34 770.863 2296.34 772.186C2296.34 773.508 2296.75 774.596 2297.59 775.45ZM2316.56 766.938C2316.95 765.914 2317.57 765.146 2318.45 764.634C2319.35 764.122 2320.34 763.866 2321.43 763.866V768.474C2320.17 768.324 2319.04 768.58 2318.03 769.242C2317.05 769.903 2316.56 771.002 2316.56 772.538V780.186H2312.43V764.186H2316.56V766.938ZM2332.79 768.154H2329.17V774.81C2329.17 775.364 2329.31 775.77 2329.59 776.026C2329.87 776.282 2330.27 776.431 2330.81 776.474C2331.34 776.495 2332 776.484 2332.79 776.442V780.186C2329.95 780.506 2327.95 780.239 2326.77 779.386C2325.62 778.532 2325.05 777.007 2325.05 774.81V768.154H2322.26V764.186H2325.05V760.954L2329.17 759.706V764.186H2332.79V768.154ZM2345.84 764.186H2350.25L2344.43 780.186C2343.6 782.49 2342.49 784.154 2341.1 785.178C2339.73 786.223 2338.03 786.692 2335.98 786.586V782.746C2337.09 782.767 2337.96 782.532 2338.6 782.042C2339.27 781.551 2339.79 780.762 2340.17 779.674L2333.61 764.186H2338.12L2342.28 774.938L2345.84 764.186ZM2373.53 780.186L2372.18 776.154H2363.26L2361.91 780.186H2357.14L2364.98 757.786H2370.46L2378.33 780.186H2373.53ZM2364.66 772.026H2370.81L2367.74 762.874L2364.66 772.026ZM2388.98 763.738C2391.14 763.738 2392.97 764.559 2394.49 766.202C2396.02 767.823 2396.79 769.818 2396.79 772.186C2396.79 774.554 2396.02 776.559 2394.49 778.202C2392.97 779.823 2391.14 780.634 2388.98 780.634C2386.74 780.634 2385.02 779.855 2383.8 778.298V786.586H2379.67V764.186H2383.8V766.074C2385.02 764.516 2386.74 763.738 2388.98 763.738ZM2385.05 775.45C2385.88 776.282 2386.94 776.698 2388.22 776.698C2389.5 776.698 2390.55 776.282 2391.38 775.45C2392.24 774.596 2392.66 773.508 2392.66 772.186C2392.66 770.863 2392.24 769.786 2391.38 768.954C2390.55 768.1 2389.5 767.674 2388.22 767.674C2386.94 767.674 2385.88 768.1 2385.05 768.954C2384.22 769.786 2383.8 770.863 2383.8 772.186C2383.8 773.508 2384.22 774.596 2385.05 775.45ZM2408.37 763.738C2410.53 763.738 2412.36 764.559 2413.88 766.202C2415.41 767.823 2416.18 769.818 2416.18 772.186C2416.18 774.554 2415.41 776.559 2413.88 778.202C2412.36 779.823 2410.53 780.634 2408.37 780.634C2406.13 780.634 2404.41 779.855 2403.19 778.298V786.586H2399.06V764.186H2403.19V766.074C2404.41 764.516 2406.13 763.738 2408.37 763.738ZM2404.44 775.45C2405.27 776.282 2406.33 776.698 2407.61 776.698C2408.89 776.698 2409.94 776.282 2410.77 775.45C2411.63 774.596 2412.05 773.508 2412.05 772.186C2412.05 770.863 2411.63 769.786 2410.77 768.954C2409.94 768.1 2408.89 767.674 2407.61 767.674C2406.33 767.674 2405.27 768.1 2404.44 768.954C2403.61 769.786 2403.19 770.863 2403.19 772.186C2403.19 773.508 2403.61 774.596 2404.44 775.45ZM2418.45 780.186V756.826H2422.58V780.186H2418.45ZM2427.77 762.266C2427.09 762.266 2426.49 762.02 2425.98 761.53C2425.49 761.018 2425.24 760.42 2425.24 759.738C2425.24 759.055 2425.49 758.458 2425.98 757.946C2426.49 757.434 2427.09 757.178 2427.77 757.178C2428.47 757.178 2429.07 757.434 2429.56 757.946C2430.07 758.458 2430.33 759.055 2430.33 759.738C2430.33 760.42 2430.07 761.018 2429.56 761.53C2429.07 762.02 2428.47 762.266 2427.77 762.266ZM2425.72 780.186V764.186H2429.85V780.186H2425.72ZM2440.6 780.634C2438.19 780.634 2436.18 779.823 2434.55 778.202C2432.95 776.58 2432.15 774.575 2432.15 772.186C2432.15 769.796 2432.95 767.791 2434.55 766.17C2436.18 764.548 2438.19 763.738 2440.6 763.738C2442.16 763.738 2443.58 764.111 2444.86 764.858C2446.14 765.604 2447.11 766.607 2447.77 767.866L2444.22 769.946C2443.9 769.284 2443.41 768.762 2442.75 768.378C2442.11 767.994 2441.38 767.802 2440.57 767.802C2439.33 767.802 2438.31 768.218 2437.5 769.05C2436.69 769.86 2436.28 770.906 2436.28 772.186C2436.28 773.444 2436.69 774.49 2437.5 775.322C2438.31 776.132 2439.33 776.538 2440.57 776.538C2441.4 776.538 2442.14 776.356 2442.78 775.994C2443.44 775.61 2443.93 775.087 2444.25 774.426L2447.83 776.474C2447.13 777.732 2446.14 778.746 2444.86 779.514C2443.58 780.26 2442.16 780.634 2440.6 780.634ZM2461.29 764.186H2465.42V780.186H2461.29V778.298C2460.05 779.855 2458.31 780.634 2456.07 780.634C2453.94 780.634 2452.1 779.823 2450.57 778.202C2449.05 776.559 2448.3 774.554 2448.3 772.186C2448.3 769.818 2449.05 767.823 2450.57 766.202C2452.1 764.559 2453.94 763.738 2456.07 763.738C2458.31 763.738 2460.05 764.516 2461.29 766.074V764.186ZM2453.67 775.45C2454.5 776.282 2455.56 776.698 2456.84 776.698C2458.12 776.698 2459.18 776.282 2460.01 775.45C2460.86 774.596 2461.29 773.508 2461.29 772.186C2461.29 770.863 2460.86 769.786 2460.01 768.954C2459.18 768.1 2458.12 767.674 2456.84 767.674C2455.56 767.674 2454.5 768.1 2453.67 768.954C2452.84 769.786 2452.42 770.863 2452.42 772.186C2452.42 773.508 2452.84 774.596 2453.67 775.45ZM2477.67 768.154H2474.05V774.81C2474.05 775.364 2474.19 775.77 2474.47 776.026C2474.75 776.282 2475.15 776.431 2475.69 776.474C2476.22 776.495 2476.88 776.484 2477.67 776.442V780.186C2474.83 780.506 2472.83 780.239 2471.65 779.386C2470.5 778.532 2469.93 777.007 2469.93 774.81V768.154H2467.14V764.186H2469.93V760.954L2474.05 759.706V764.186H2477.67V768.154ZM2481.99 762.266C2481.31 762.266 2480.71 762.02 2480.2 761.53C2479.71 761.018 2479.46 760.42 2479.46 759.738C2479.46 759.055 2479.71 758.458 2480.2 757.946C2480.71 757.434 2481.31 757.178 2481.99 757.178C2482.69 757.178 2483.29 757.434 2483.78 757.946C2484.29 758.458 2484.55 759.055 2484.55 759.738C2484.55 760.42 2484.29 761.018 2483.78 761.53C2483.29 762.02 2482.69 762.266 2481.99 762.266ZM2479.94 780.186V764.186H2484.07V780.186H2479.94ZM2500.84 778.202C2499.2 779.823 2497.19 780.634 2494.82 780.634C2492.46 780.634 2490.45 779.823 2488.81 778.202C2487.19 776.559 2486.38 774.554 2486.38 772.186C2486.38 769.818 2487.19 767.823 2488.81 766.202C2490.45 764.559 2492.46 763.738 2494.82 763.738C2497.19 763.738 2499.2 764.559 2500.84 766.202C2502.48 767.823 2503.3 769.818 2503.3 772.186C2503.3 774.554 2502.48 776.559 2500.84 778.202ZM2491.72 775.354C2492.55 776.186 2493.59 776.602 2494.82 776.602C2496.06 776.602 2497.1 776.186 2497.93 775.354C2498.76 774.522 2499.18 773.466 2499.18 772.186C2499.18 770.906 2498.76 769.85 2497.93 769.018C2497.1 768.186 2496.06 767.77 2494.82 767.77C2493.59 767.77 2492.55 768.186 2491.72 769.018C2490.91 769.85 2490.5 770.906 2490.5 772.186C2490.5 773.466 2490.91 774.522 2491.72 775.354ZM2514.46 763.738C2516.21 763.738 2517.65 764.324 2518.78 765.498C2519.94 766.671 2520.51 768.292 2520.51 770.362V780.186H2516.38V770.874C2516.38 769.807 2516.1 768.996 2515.52 768.442C2514.94 767.866 2514.18 767.578 2513.22 767.578C2512.15 767.578 2511.3 767.908 2510.66 768.57C2510.02 769.231 2509.7 770.223 2509.7 771.546V780.186H2505.57V764.186H2509.7V765.978C2510.7 764.484 2512.29 763.738 2514.46 763.738ZM2527.2 768.73C2527.2 769.156 2527.48 769.508 2528.04 769.786C2528.61 770.042 2529.31 770.276 2530.12 770.49C2530.93 770.682 2531.74 770.938 2532.55 771.258C2533.36 771.556 2534.04 772.068 2534.6 772.794C2535.17 773.519 2535.46 774.426 2535.46 775.514C2535.46 777.156 2534.84 778.426 2533.6 779.322C2532.39 780.196 2530.86 780.634 2529.03 780.634C2525.74 780.634 2523.5 779.364 2522.31 776.826L2525.89 774.81C2526.36 776.196 2527.41 776.89 2529.03 776.89C2530.5 776.89 2531.24 776.431 2531.24 775.514C2531.24 775.087 2530.95 774.746 2530.37 774.49C2529.82 774.212 2529.13 773.967 2528.32 773.754C2527.51 773.54 2526.7 773.274 2525.89 772.954C2525.08 772.634 2524.39 772.132 2523.81 771.45C2523.26 770.746 2522.98 769.871 2522.98 768.826C2522.98 767.247 2523.56 766.01 2524.71 765.114C2525.88 764.196 2527.33 763.738 2529.06 763.738C2530.36 763.738 2531.55 764.036 2532.61 764.634C2533.68 765.21 2534.52 766.042 2535.14 767.13L2531.62 769.05C2531.11 767.962 2530.25 767.418 2529.06 767.418C2528.53 767.418 2528.08 767.535 2527.72 767.77C2527.37 768.004 2527.2 768.324 2527.2 768.73Z" fill="#00C8B5"/>
<path d="M2210.26 439.928C2212.23 441.059 2213.21 442.765 2213.21 445.048C2213.21 446.947 2212.54 448.504 2211.19 449.72C2209.85 450.936 2208.2 451.544 2206.23 451.544H2196.73V429.144H2205.56C2207.48 429.144 2209.09 429.741 2210.39 430.936C2211.72 432.109 2212.38 433.613 2212.38 435.448C2212.38 437.304 2211.67 438.797 2210.26 439.928ZM2205.56 433.272H2201.14V438.2H2205.56C2206.24 438.2 2206.81 437.965 2207.26 437.496C2207.73 437.027 2207.96 436.44 2207.96 435.736C2207.96 435.032 2207.74 434.445 2207.29 433.976C2206.84 433.507 2206.26 433.272 2205.56 433.272ZM2206.23 447.416C2206.98 447.416 2207.6 447.171 2208.09 446.68C2208.58 446.168 2208.82 445.528 2208.82 444.76C2208.82 444.013 2208.58 443.395 2208.09 442.904C2207.6 442.392 2206.98 442.136 2206.23 442.136H2201.14V447.416H2206.23ZM2219.4 438.296C2219.78 437.272 2220.41 436.504 2221.29 435.992C2222.18 435.48 2223.18 435.224 2224.26 435.224V439.832C2223 439.683 2221.87 439.939 2220.87 440.6C2219.89 441.261 2219.4 442.36 2219.4 443.896V451.544H2215.27V435.544H2219.4V438.296ZM2237.6 435.544H2241.73V451.544H2237.6V449.656C2236.37 451.213 2234.63 451.992 2232.39 451.992C2230.25 451.992 2228.42 451.181 2226.88 449.56C2225.37 447.917 2224.61 445.912 2224.61 443.544C2224.61 441.176 2225.37 439.181 2226.88 437.56C2228.42 435.917 2230.25 435.096 2232.39 435.096C2234.63 435.096 2236.37 435.875 2237.6 437.432V435.544ZM2229.99 446.808C2230.82 447.64 2231.88 448.056 2233.16 448.056C2234.44 448.056 2235.49 447.64 2236.32 446.808C2237.18 445.955 2237.6 444.867 2237.6 443.544C2237.6 442.221 2237.18 441.144 2236.32 440.312C2235.49 439.459 2234.44 439.032 2233.16 439.032C2231.88 439.032 2230.82 439.459 2229.99 440.312C2229.16 441.144 2228.74 442.221 2228.74 443.544C2228.74 444.867 2229.16 445.955 2229.99 446.808ZM2252.45 451.992C2250.04 451.992 2248.02 451.181 2246.4 449.56C2244.8 447.939 2244 445.933 2244 443.544C2244 441.155 2244.8 439.149 2246.4 437.528C2248.02 435.907 2250.04 435.096 2252.45 435.096C2254.01 435.096 2255.43 435.469 2256.71 436.216C2257.99 436.963 2258.96 437.965 2259.62 439.224L2256.07 441.304C2255.75 440.643 2255.26 440.12 2254.6 439.736C2253.96 439.352 2253.23 439.16 2252.42 439.16C2251.18 439.16 2250.16 439.576 2249.35 440.408C2248.54 441.219 2248.13 442.264 2248.13 443.544C2248.13 444.803 2248.54 445.848 2249.35 446.68C2250.16 447.491 2251.18 447.896 2252.42 447.896C2253.25 447.896 2253.99 447.715 2254.63 447.352C2255.29 446.968 2255.78 446.445 2256.1 445.784L2259.68 447.832C2258.98 449.091 2257.99 450.104 2256.71 450.872C2255.43 451.619 2254.01 451.992 2252.45 451.992ZM2270.38 439.512H2266.76V446.168C2266.76 446.723 2266.9 447.128 2267.18 447.384C2267.46 447.64 2267.86 447.789 2268.39 447.832C2268.93 447.853 2269.59 447.843 2270.38 447.8V451.544C2267.54 451.864 2265.54 451.597 2264.36 450.744C2263.21 449.891 2262.63 448.365 2262.63 446.168V439.512H2259.85V435.544H2262.63V432.312L2266.76 431.064V435.544H2270.38V439.512ZM2272.65 451.544V428.184H2276.78V451.544H2272.65ZM2283.4 445.24C2283.96 447.245 2285.46 448.248 2287.92 448.248C2289.49 448.248 2290.69 447.715 2291.5 446.648L2294.83 448.568C2293.25 450.851 2290.92 451.992 2287.85 451.992C2285.21 451.992 2283.08 451.192 2281.48 449.592C2279.88 447.992 2279.08 445.976 2279.08 443.544C2279.08 441.133 2279.87 439.128 2281.45 437.528C2283.03 435.907 2285.06 435.096 2287.53 435.096C2289.88 435.096 2291.81 435.907 2293.32 437.528C2294.86 439.149 2295.63 441.155 2295.63 443.544C2295.63 444.077 2295.57 444.643 2295.47 445.24H2283.4ZM2283.34 442.04H2291.5C2291.26 440.952 2290.77 440.141 2290.03 439.608C2289.3 439.075 2288.47 438.808 2287.53 438.808C2286.42 438.808 2285.5 439.096 2284.78 439.672C2284.05 440.227 2283.57 441.016 2283.34 442.04ZM2306.55 439.512H2302.94V446.168C2302.94 446.723 2303.07 447.128 2303.35 447.384C2303.63 447.64 2304.03 447.789 2304.57 447.832C2305.1 447.853 2305.76 447.843 2306.55 447.8V451.544C2303.71 451.864 2301.71 451.597 2300.54 450.744C2299.38 449.891 2298.81 448.365 2298.81 446.168V439.512H2296.02V435.544H2298.81V432.312L2302.94 431.064V435.544H2306.55V439.512ZM2331.02 451.544L2329.68 447.512H2320.75L2319.41 451.544H2314.64L2322.48 429.144H2327.95L2335.82 451.544H2331.02ZM2322.16 443.384H2328.3L2325.23 434.232L2322.16 443.384ZM2346.48 435.096C2348.63 435.096 2350.47 435.917 2351.98 437.56C2353.52 439.181 2354.29 441.176 2354.29 443.544C2354.29 445.912 2353.52 447.917 2351.98 449.56C2350.47 451.181 2348.63 451.992 2346.48 451.992C2344.24 451.992 2342.51 451.213 2341.3 449.656V457.944H2337.17V435.544H2341.3V437.432C2342.51 435.875 2344.24 435.096 2346.48 435.096ZM2342.54 446.808C2343.38 447.64 2344.43 448.056 2345.71 448.056C2346.99 448.056 2348.05 447.64 2348.88 446.808C2349.73 445.955 2350.16 444.867 2350.16 443.544C2350.16 442.221 2349.73 441.144 2348.88 440.312C2348.05 439.459 2346.99 439.032 2345.71 439.032C2344.43 439.032 2343.38 439.459 2342.54 440.312C2341.71 441.144 2341.3 442.221 2341.3 443.544C2341.3 444.867 2341.71 445.955 2342.54 446.808ZM2365.87 435.096C2368.03 435.096 2369.86 435.917 2371.38 437.56C2372.91 439.181 2373.68 441.176 2373.68 443.544C2373.68 445.912 2372.91 447.917 2371.38 449.56C2369.86 451.181 2368.03 451.992 2365.87 451.992C2363.63 451.992 2361.9 451.213 2360.69 449.656V457.944H2356.56V435.544H2360.69V437.432C2361.9 435.875 2363.63 435.096 2365.87 435.096ZM2361.94 446.808C2362.77 447.64 2363.82 448.056 2365.1 448.056C2366.38 448.056 2367.44 447.64 2368.27 446.808C2369.12 445.955 2369.55 444.867 2369.55 443.544C2369.55 442.221 2369.12 441.144 2368.27 440.312C2367.44 439.459 2366.38 439.032 2365.1 439.032C2363.82 439.032 2362.77 439.459 2361.94 440.312C2361.1 441.144 2360.69 442.221 2360.69 443.544C2360.69 444.867 2361.1 445.955 2361.94 446.808ZM2375.95 451.544V428.184H2380.08V451.544H2375.95ZM2385.26 433.624C2384.58 433.624 2383.98 433.379 2383.47 432.888C2382.98 432.376 2382.74 431.779 2382.74 431.096C2382.74 430.413 2382.98 429.816 2383.47 429.304C2383.98 428.792 2384.58 428.536 2385.26 428.536C2385.97 428.536 2386.57 428.792 2387.06 429.304C2387.57 429.816 2387.82 430.413 2387.82 431.096C2387.82 431.779 2387.57 432.376 2387.06 432.888C2386.57 433.379 2385.97 433.624 2385.26 433.624ZM2383.22 451.544V435.544H2387.34V451.544H2383.22ZM2398.1 451.992C2395.69 451.992 2393.67 451.181 2392.05 449.56C2390.45 447.939 2389.65 445.933 2389.65 443.544C2389.65 441.155 2390.45 439.149 2392.05 437.528C2393.67 435.907 2395.69 435.096 2398.1 435.096C2399.66 435.096 2401.07 435.469 2402.35 436.216C2403.63 436.963 2404.61 437.965 2405.27 439.224L2401.71 441.304C2401.39 440.643 2400.9 440.12 2400.24 439.736C2399.6 439.352 2398.88 439.16 2398.07 439.16C2396.83 439.16 2395.81 439.576 2394.99 440.408C2394.18 441.219 2393.78 442.264 2393.78 443.544C2393.78 444.803 2394.18 445.848 2394.99 446.68C2395.81 447.491 2396.83 447.896 2398.07 447.896C2398.9 447.896 2399.63 447.715 2400.27 447.352C2400.94 446.968 2401.43 446.445 2401.75 445.784L2405.33 447.832C2404.63 449.091 2403.63 450.104 2402.35 450.872C2401.07 451.619 2399.66 451.992 2398.1 451.992ZM2418.78 435.544H2422.91V451.544H2418.78V449.656C2417.55 451.213 2415.81 451.992 2413.57 451.992C2411.43 451.992 2409.6 451.181 2408.06 449.56C2406.55 447.917 2405.79 445.912 2405.79 443.544C2405.79 441.176 2406.55 439.181 2408.06 437.56C2409.6 435.917 2411.43 435.096 2413.57 435.096C2415.81 435.096 2417.55 435.875 2418.78 437.432V435.544ZM2411.17 446.808C2412 447.64 2413.06 448.056 2414.34 448.056C2415.62 448.056 2416.67 447.64 2417.5 446.808C2418.36 445.955 2418.78 444.867 2418.78 443.544C2418.78 442.221 2418.36 441.144 2417.5 440.312C2416.67 439.459 2415.62 439.032 2414.34 439.032C2413.06 439.032 2412 439.459 2411.17 440.312C2410.34 441.144 2409.92 442.221 2409.92 443.544C2409.92 444.867 2410.34 445.955 2411.17 446.808ZM2435.17 439.512H2431.55V446.168C2431.55 446.723 2431.69 447.128 2431.97 447.384C2432.24 447.64 2432.65 447.789 2433.18 447.832C2433.72 447.853 2434.38 447.843 2435.17 447.8V451.544C2432.33 451.864 2430.32 451.597 2429.15 450.744C2428 449.891 2427.42 448.365 2427.42 446.168V439.512H2424.64V435.544H2427.42V432.312L2431.55 431.064V435.544H2435.17V439.512ZM2439.49 433.624C2438.8 433.624 2438.21 433.379 2437.69 432.888C2437.2 432.376 2436.96 431.779 2436.96 431.096C2436.96 430.413 2437.2 429.816 2437.69 429.304C2438.21 428.792 2438.8 428.536 2439.49 428.536C2440.19 428.536 2440.79 428.792 2441.28 429.304C2441.79 429.816 2442.05 430.413 2442.05 431.096C2442.05 431.779 2441.79 432.376 2441.28 432.888C2440.79 433.379 2440.19 433.624 2439.49 433.624ZM2437.44 451.544V435.544H2441.57V451.544H2437.44ZM2458.34 449.56C2456.69 451.181 2454.69 451.992 2452.32 451.992C2449.95 451.992 2447.95 451.181 2446.3 449.56C2444.68 447.917 2443.87 445.912 2443.87 443.544C2443.87 441.176 2444.68 439.181 2446.3 437.56C2447.95 435.917 2449.95 435.096 2452.32 435.096C2454.69 435.096 2456.69 435.917 2458.34 437.56C2459.98 439.181 2460.8 441.176 2460.8 443.544C2460.8 445.912 2459.98 447.917 2458.34 449.56ZM2449.22 446.712C2450.05 447.544 2451.08 447.96 2452.32 447.96C2453.56 447.96 2454.59 447.544 2455.42 446.712C2456.26 445.88 2456.67 444.824 2456.67 443.544C2456.67 442.264 2456.26 441.208 2455.42 440.376C2454.59 439.544 2453.56 439.128 2452.32 439.128C2451.08 439.128 2450.05 439.544 2449.22 440.376C2448.41 441.208 2448 442.264 2448 443.544C2448 444.824 2448.41 445.88 2449.22 446.712ZM2471.96 435.096C2473.71 435.096 2475.15 435.683 2476.28 436.856C2477.43 438.029 2478.01 439.651 2478.01 441.72V451.544H2473.88V442.232C2473.88 441.165 2473.59 440.355 2473.02 439.8C2472.44 439.224 2471.67 438.936 2470.71 438.936C2469.65 438.936 2468.79 439.267 2468.15 439.928C2467.51 440.589 2467.19 441.581 2467.19 442.904V451.544H2463.06V435.544H2467.19V437.336C2468.19 435.843 2469.78 435.096 2471.96 435.096ZM2484.7 440.088C2484.7 440.515 2484.98 440.867 2485.53 441.144C2486.11 441.4 2486.8 441.635 2487.61 441.848C2488.42 442.04 2489.23 442.296 2490.04 442.616C2490.86 442.915 2491.54 443.427 2492.09 444.152C2492.67 444.877 2492.96 445.784 2492.96 446.872C2492.96 448.515 2492.34 449.784 2491.1 450.68C2489.88 451.555 2488.36 451.992 2486.52 451.992C2483.24 451.992 2481 450.723 2479.8 448.184L2483.39 446.168C2483.86 447.555 2484.9 448.248 2486.52 448.248C2488 448.248 2488.73 447.789 2488.73 446.872C2488.73 446.445 2488.44 446.104 2487.87 445.848C2487.31 445.571 2486.63 445.325 2485.82 445.112C2485.01 444.899 2484.2 444.632 2483.39 444.312C2482.58 443.992 2481.88 443.491 2481.31 442.808C2480.75 442.104 2480.48 441.229 2480.48 440.184C2480.48 438.605 2481.05 437.368 2482.2 436.472C2483.38 435.555 2484.83 435.096 2486.56 435.096C2487.86 435.096 2489.04 435.395 2490.11 435.992C2491.18 436.568 2492.02 437.4 2492.64 438.488L2489.12 440.408C2488.6 439.32 2487.75 438.776 2486.56 438.776C2486.02 438.776 2485.58 438.893 2485.21 439.128C2484.87 439.363 2484.7 439.683 2484.7 440.088Z" fill="#00CC8F"/>
<path d="M2545.65 881.151H2514.93V902.657H2545.65V881.151Z" stroke="white" stroke-width="5.61781" stroke-miterlimit="10" stroke-linecap="square"/>
<path d="M2521.08 881.151V871.934C2521.08 869.49 2522.05 867.146 2523.78 865.417C2525.5 863.689 2527.85 862.718 2530.29 862.718V862.718C2532.74 862.718 2535.08 863.689 2536.81 865.417C2538.54 867.146 2539.51 869.49 2539.51 871.934V881.151" stroke="white" stroke-width="5.61781" stroke-miterlimit="10" stroke-linecap="square"/>
<path d="M2567.16 890.367C2567.16 900.145 2563.28 909.522 2556.36 916.436C2549.45 923.35 2540.07 927.234 2530.29 927.234C2520.52 927.234 2511.14 923.35 2504.23 916.436C2497.31 909.522 2493.43 900.145 2493.43 890.367V847.356L2530.29 838.139L2567.16 847.356V890.367Z" stroke="white" stroke-width="5.61781" stroke-miterlimit="10" stroke-linecap="square"/>
<path d="M2347.71 868.248V875.414" stroke="white" stroke-width="5.61781" stroke-miterlimit="10" stroke-linecap="square"/>
<path d="M2364.1 865.175V858.006L2347.71 847.763L2331.33 858.139V865.175" stroke="white" stroke-width="5.61781" stroke-miterlimit="10" stroke-linecap="square"/>
<path d="M2331.33 858.007L2347.71 868.248L2364.1 858.007" stroke="white" stroke-width="5.61781" stroke-miterlimit="10"/>
<path d="M2319.04 886.17V904.604L2302.65 894.363V876.063L2319.04 865.687L2335.42 875.929L2319.04 886.17ZM2319.04 886.17L2302.65 876.063" stroke="white" stroke-width="5.61781" stroke-miterlimit="10"/>
<path d="M2376.39 886.17V904.604L2392.77 894.363V875.929L2376.39 865.687L2360 876.063L2376.39 886.17ZM2376.39 886.17L2392.77 875.929" stroke="white" stroke-width="5.61781" stroke-miterlimit="10"/>
<path d="M2347.71 904.091V922.524" stroke="white" stroke-width="5.61781" stroke-miterlimit="10"/>
<path d="M2364.1 893.85L2347.71 883.607L2331.33 893.983V912.283L2347.71 922.524L2364.1 912.283V893.85Z" stroke="white" stroke-width="5.61781" stroke-miterlimit="10"/>
<path d="M2331.33 893.849L2347.71 904.089L2364.1 893.849" stroke="white" stroke-width="5.61781" stroke-miterlimit="10"/>
<path d="M2347.71 904.091V922.524" stroke="white" stroke-width="5.61781" stroke-miterlimit="10"/>
<g clip-path="url(#clip3_844_6246)">
<path d="M2202 883.609V859.031H2183.57H2143.63H2128.27C2123.18 859.031 2119.05 854.905 2119.05 849.814V914.331C2119.05 921.118 2124.55 926.62 2131.34 926.62H2202V902.043" stroke="white" stroke-width="5.61781" stroke-miterlimit="10" stroke-linecap="square"/>
<path d="M2211.22 902.042H2189.71C2184.62 902.042 2180.5 897.916 2180.5 892.825C2180.5 887.734 2184.62 883.608 2189.71 883.608H2211.22V902.042Z" stroke="white" stroke-width="5.61781" stroke-miterlimit="10" stroke-linecap="square"/>
<path d="M2183.57 846.742V840.598H2128.27C2123.18 840.598 2119.05 844.724 2119.05 849.814C2119.05 854.905 2123.18 859.031 2128.27 859.031" stroke="white" stroke-width="5.61781" stroke-miterlimit="10" stroke-linecap="square"/>
</g>
<circle cx="2346.31" cy="309.188" r="84.2672" fill="#00CC8F"/>
<path d="M2384.47 328.099L2364.6 316.633V301.741L2384.47 290.274L2387.06 294.779L2369.81 304.744V313.629L2387.06 323.594L2384.47 328.099V328.099Z" fill="white"/>
<path d="M2308.15 328.099L2305.55 323.594L2322.81 313.629V304.744L2305.55 294.779L2308.15 290.274L2328.01 301.741V316.633L2308.15 328.099Z" fill="white"/>
<path d="M2362.07 297.066L2349.18 289.62V266.688H2354.38V286.617L2362.07 291.054L2379.33 281.089L2381.93 285.594L2362.07 297.066Z" fill="white"/>
<path d="M2343.85 351.687H2338.65V331.758L2330.95 327.315L2313.7 337.28L2311.11 332.775L2330.97 321.309L2343.85 328.766V351.687Z" fill="white"/>
<path d="M2330.95 297.066L2311.11 285.6L2313.71 281.095L2330.95 291.054L2338.65 286.617V266.688H2343.85V289.62L2330.95 297.066Z" fill="white"/>
<path d="M2354.38 351.687H2349.18V328.766L2362.07 321.309L2381.94 332.775L2379.34 337.28L2362.07 327.315L2354.38 331.758V351.687Z" fill="white"/>
<path d="M972.754 281.1H1590.71C1683.79 281.1 1759.25 356.555 1759.25 449.634V899.059C1759.25 992.138 1683.79 1067.59 1590.71 1067.59H1141.29C1048.21 1067.59 972.754 992.138 972.754 899.059V281.1Z" fill="#006058"/>
<path d="M1118.82 258.628C1118.82 240.012 1133.91 224.921 1152.52 224.921H1579.48C1598.09 224.921 1613.19 240.012 1613.19 258.628V393.455H1152.52C1133.91 393.455 1118.82 378.364 1118.82 359.748V258.628Z" fill="#003E42"/>
<path d="M1332.29 279.226V339.149C1332.29 345.516 1347.27 350.385 1366 350.385C1384.73 350.385 1399.71 345.516 1399.71 339.149V279.226" stroke="#00C8B5" stroke-width="5.61781" stroke-miterlimit="10" stroke-linecap="round" stroke-linejoin="round"/>
<path d="M1366 290.462C1384.62 290.462 1399.71 285.432 1399.71 279.227C1399.71 273.022 1384.62 267.991 1366 267.991C1347.38 267.991 1332.29 273.022 1332.29 279.227C1332.29 285.432 1347.38 290.462 1366 290.462Z" stroke="#00C8B5" stroke-width="5.61781" stroke-miterlimit="10" stroke-linecap="round" stroke-linejoin="round"/>
<path d="M1399.71 309.188C1399.71 315.554 1384.73 320.423 1366 320.423C1347.27 320.423 1332.29 315.554 1332.29 309.188" stroke="#00C8B5" stroke-width="5.61781" stroke-miterlimit="10" stroke-linecap="round" stroke-linejoin="round"/>
<path d="M1524.58 300.246C1523.45 300.255 1522.33 300.368 1521.22 300.585C1519.59 295.726 1516.47 291.502 1512.31 288.509C1508.14 285.517 1503.15 283.907 1498.02 283.907C1492.89 283.907 1487.9 285.517 1483.74 288.509C1479.57 291.502 1476.46 295.726 1474.82 300.585C1473.72 300.368 1472.59 300.255 1471.46 300.246C1466.59 300.246 1461.91 302.183 1458.46 305.631C1455.02 309.079 1453.08 313.755 1453.08 318.631C1453.08 323.508 1455.02 328.184 1458.46 331.632C1461.91 335.08 1466.59 337.017 1471.46 337.017H1524.58C1529.45 337.017 1534.13 335.08 1537.58 331.632C1541.03 328.184 1542.96 323.508 1542.96 318.631C1542.96 313.755 1541.03 309.079 1537.58 305.631C1534.13 302.183 1529.45 300.246 1524.58 300.246V300.246Z" stroke="#00C8B5" stroke-width="5.61781" stroke-miterlimit="10" stroke-linecap="round" stroke-linejoin="round"/>
<g clip-path="url(#clip4_844_6246)">
<path d="M1266.29 267.055H1203.09V351.322H1266.29V267.055Z" stroke="#00C8B5" stroke-width="5.61781" stroke-miterlimit="10" stroke-linecap="round" stroke-linejoin="round"/>
<path d="M1217.13 281.099H1224.15" stroke="#00C8B5" stroke-width="5.61781" stroke-miterlimit="10" stroke-linecap="square"/>
<path d="M1245.22 281.099H1252.24" stroke="#00C8B5" stroke-width="5.61781" stroke-miterlimit="10" stroke-linecap="square"/>
<path d="M1217.13 295.143H1224.15" stroke="#00C8B5" stroke-width="5.61781" stroke-miterlimit="10" stroke-linecap="square"/>
<path d="M1245.22 295.143H1252.24" stroke="#00C8B5" stroke-width="5.61781" stroke-miterlimit="10" stroke-linecap="square"/>
<path d="M1217.13 309.188H1224.15" stroke="#00C8B5" stroke-width="5.61781" stroke-miterlimit="10" stroke-linecap="square"/>
<path d="M1245.22 309.188H1252.24" stroke="#00C8B5" stroke-width="5.61781" stroke-miterlimit="10" stroke-linecap="square"/>
<path d="M1217.13 323.232H1224.15" stroke="#00C8B5" stroke-width="5.61781" stroke-miterlimit="10" stroke-linecap="square"/>
<path d="M1245.22 323.232H1252.24" stroke="#00C8B5" stroke-width="5.61781" stroke-miterlimit="10" stroke-linecap="square"/>
<path d="M1234.69 351.323V337.278" stroke="#00C8B5" stroke-width="5.61781" stroke-miterlimit="10" stroke-linecap="square"/>
</g>
<circle cx="1365.18" cy="675.164" r="197.442" fill="#48CA2D" fill-opacity="0.14"/>
<circle cx="1365.18" cy="675.165" r="163.474" fill="#48CA2D"/>
<path d="M1354.25 581.562H1358.79L1352.71 597.562H1348.01L1341.93 581.562H1346.47L1350.34 592.762L1354.25 581.562ZM1362.83 579.642C1362.15 579.642 1361.55 579.397 1361.04 578.906C1360.55 578.394 1360.3 577.797 1360.3 577.114C1360.3 576.432 1360.55 575.834 1361.04 575.322C1361.55 574.81 1362.15 574.554 1362.83 574.554C1363.53 574.554 1364.13 574.81 1364.62 575.322C1365.13 575.834 1365.39 576.432 1365.39 577.114C1365.39 577.797 1365.13 578.394 1364.62 578.906C1364.13 579.397 1363.53 579.642 1362.83 579.642ZM1360.78 597.562V581.562H1364.91V597.562H1360.78ZM1380.85 581.562H1384.97V597.562H1380.85V595.674C1379.61 597.232 1377.87 598.011 1375.63 598.011C1373.5 598.011 1371.66 597.2 1370.13 595.578C1368.61 593.936 1367.85 591.93 1367.85 589.562C1367.85 587.194 1368.61 585.2 1370.13 583.578C1371.66 581.936 1373.5 581.115 1375.63 581.115C1377.87 581.115 1379.61 581.893 1380.85 583.45V581.562ZM1373.23 592.826C1374.06 593.658 1375.12 594.074 1376.4 594.074C1377.68 594.074 1378.73 593.658 1379.57 592.826C1380.42 591.973 1380.85 590.885 1380.85 589.562C1380.85 588.24 1380.42 587.162 1379.57 586.33C1378.73 585.477 1377.68 585.05 1376.4 585.05C1375.12 585.05 1374.06 585.477 1373.23 586.33C1372.4 587.162 1371.98 588.24 1371.98 589.562C1371.98 590.885 1372.4 591.973 1373.23 592.826ZM1343.52 681.562L1340 670.978H1316.56L1313.03 681.562H1300.52L1321.1 622.762H1335.46L1356.12 681.562H1343.52ZM1320.26 660.142H1336.38L1328.32 636.118L1320.26 660.142ZM1383.76 622.762C1389.41 622.762 1394.17 624.666 1398.04 628.474C1401.9 632.282 1403.83 636.958 1403.83 642.502C1403.83 648.046 1401.9 652.722 1398.04 656.53C1394.17 660.338 1389.41 662.242 1383.76 662.242H1373.43V681.562H1361.83V622.762H1383.76ZM1383.76 651.406C1386.22 651.406 1388.27 650.566 1389.89 648.886C1391.51 647.15 1392.33 645.022 1392.33 642.502C1392.33 639.926 1391.51 637.798 1389.89 636.118C1388.27 634.438 1386.22 633.598 1383.76 633.598H1373.43V651.406H1383.76ZM1411.38 622.762H1422.97V681.562H1411.38V622.762Z" fill="white"/>
<path d="M1364.47 754.709V714.796" stroke="white" stroke-width="6.6095" stroke-miterlimit="10" stroke-linecap="square"/>
<path d="M1320.66 745.303L1337.87 728.1V714.796" stroke="white" stroke-width="6.6095" stroke-miterlimit="10" stroke-linecap="square"/>
<path d="M1408.29 745.303L1391.09 728.1V714.796" stroke="white" stroke-width="6.6095" stroke-miterlimit="10" stroke-linecap="square"/>
<path d="M1311.26 768.013C1318.6 768.013 1324.56 762.056 1324.56 754.709C1324.56 747.361 1318.6 741.404 1311.26 741.404C1303.91 741.404 1297.95 747.361 1297.95 754.709C1297.95 762.056 1303.91 768.013 1311.26 768.013Z" stroke="white" stroke-width="6.6095" stroke-miterlimit="10" stroke-linecap="square"/>
<path d="M1417.69 768.013C1425.04 768.013 1431 762.056 1431 754.709C1431 747.361 1425.04 741.404 1417.69 741.404C1410.34 741.404 1404.39 747.361 1404.39 754.709C1404.39 762.056 1410.34 768.013 1417.69 768.013Z" stroke="white" stroke-width="6.6095" stroke-miterlimit="10" stroke-linecap="square"/>
<path d="M1364.47 781.315C1371.82 781.315 1377.78 775.358 1377.78 768.01C1377.78 760.663 1371.82 754.706 1364.47 754.706C1357.13 754.706 1351.17 760.663 1351.17 768.01C1351.17 775.358 1357.13 781.315 1364.47 781.315Z" stroke="white" stroke-width="6.6095" stroke-miterlimit="10" stroke-linecap="square"/>
<path d="M0 281H617.959C711.038 281 786.494 356.455 786.494 449.534V898.959C786.494 992.038 711.038 1067.49 617.959 1067.49H168.534C75.4552 1067.49 0 992.038 0 898.959V281Z" fill="#00C8B5"/>
<path fill-rule="evenodd" clip-rule="evenodd" d="M181.248 267.376L386.621 347.048L591.994 267.735L386.082 188.405L181.248 267.376Z" fill="#88CCCA"/>
<path fill-rule="evenodd" clip-rule="evenodd" d="M181.248 893.473L386.621 973.146L591.994 893.832L386.082 814.503L181.248 893.473Z" fill="#88CCCA"/>
<path d="M545.701 557.043L591.991 539.122L591.991 574.99C578.473 569.74 545.701 557.043 545.701 557.043Z" fill="#D5F2F1"/>
<path d="M411.597 259.438L448.047 245.008V899.257L411.597 913.982L411.597 259.438Z" fill="#00C8B5"/>
<path d="M411.6 257.569V913.69L377.019 899.899L377.019 245.647L411.6 257.569Z" fill="#006058"/>
<path d="M377.019 245.81L413.395 231.398L448.05 245.026L411.6 259.437L377.019 245.81Z" fill="#429A97"/>
<path d="M359.257 280L395.707 265.569V919.31L359.257 934.035V280Z" fill="#00C8B5"/>
<path d="M359.261 279.842L359.26 933.559L324.679 919.768L324.679 266.615L359.261 279.842Z" fill="#006058"/>
<path d="M324.679 266.372L361.055 251.961L395.71 265.589L359.26 280L324.679 266.372Z" fill="#429A97"/>
<path fill-rule="evenodd" clip-rule="evenodd" d="M181.238 576.76L386.611 656.432L591.984 577.118L386.072 497.789L181.238 576.76Z" fill="#88CCCA"/>
<path fill-rule="evenodd" clip-rule="evenodd" d="M180.64 737.793L386.013 817.465L591.189 738.329L385.474 658.822L180.64 737.793Z" fill="#88CCCA"/>
<path fill-rule="evenodd" clip-rule="evenodd" d="M181.238 574.46L386.611 654.132L591.984 574.819L386.072 495.489L181.238 574.46Z" fill="#88CCCA"/>
<path fill-rule="evenodd" clip-rule="evenodd" d="M180.64 735.493L386.013 815.166L591.189 736.057L385.474 656.522L180.64 735.493Z" fill="#88CCCA"/>
<path fill-rule="evenodd" clip-rule="evenodd" d="M180.64 893.048L386.013 972.72L591.189 893.612L385.474 814.077L180.64 893.048Z" fill="#006058"/>
<path d="M274.564 693.539L226.086 709.446V753.321L274.564 734.515V693.539Z" fill="#006058"/>
<path d="M315.469 708.688L266.991 724.595V768.471L315.469 749.665V708.688Z" fill="#006058"/>
<path d="M467.725 707.173L344.257 754.135V798.011L467.725 748.149V707.173Z" fill="#006058"/>
<path d="M366.98 703.487L318.502 719.394L319.26 764.085L366.98 744.464V703.487Z" fill="#006058"/>
<path d="M298.806 705.001L320.015 711.818L319.257 764.205L298.806 756.631V705.001Z" fill="#4FA5A2"/>
<path d="M410.9 583.733L406.356 581.533L407.113 626.224L410.9 624.709V583.733Z" fill="#02B5A6"/>
<path d="M403.333 573.079L407.878 573.958L407.12 626.223L403.333 624.587L403.333 573.079Z" fill="#012C28"/>
<path d="M335.162 559.494L330.617 557.294L331.375 601.985L335.162 600.47V559.494Z" fill="#02B5A6"/>
<path d="M327.588 548.841L332.133 549.72L331.375 601.985L327.588 600.349L327.588 548.841Z" fill="#012C28"/>
<path d="M270.017 536.891L265.472 534.691L266.229 579.382L270.017 577.867V536.891Z" fill="#02B5A6"/>
<path d="M262.444 526.237L266.989 527.116L266.232 579.382L262.444 577.745L262.444 526.237Z" fill="#012C28"/>
<path d="M469.999 697.305L515.447 713.333L514.69 765.721L469.999 748.934V697.305Z" fill="#4FA5A2"/>
<path d="M518.472 677.729L563.92 693.758L563.162 746.145L518.472 729.359V677.729Z" fill="#006058"/>
<path d="M453.322 567.188L448.777 564.988L449.535 609.679L453.322 608.164V567.188Z" fill="#02B5A6"/>
<path d="M445.755 556.535L450.3 557.414L449.542 609.679L445.755 608.043L445.755 556.535Z" fill="#012C28"/>
<path d="M377.574 705.05L373.029 702.851L373.787 747.541L377.574 746.026V705.05Z" fill="#02B5A6"/>
<path d="M370 694.397L374.545 695.276L373.787 747.542L370 745.905L370 694.397Z" fill="#012C28"/>
<path d="M312.44 679.297L307.896 677.098L308.653 721.788L312.44 720.274V679.297Z" fill="#02B5A6"/>
<path d="M304.864 668.644L309.409 669.523L308.652 721.788L304.864 720.151L304.864 668.644Z" fill="#012C28"/>
<path d="M486.654 553.552L482.109 551.353L482.867 596.043L486.654 594.528V553.552Z" fill="#02B5A6"/>
<path d="M479.08 542.899L483.625 543.778L482.867 596.044L479.08 594.407L479.08 542.899Z" fill="#012C28"/>
<path d="M410.9 686.87L406.356 684.671L407.113 729.362L410.9 727.847V686.87Z" fill="#02B5A6"/>
<path d="M403.333 676.218L407.878 677.097L407.12 729.362L403.333 727.726L403.333 676.218Z" fill="#012C28"/>
<path d="M345.772 661.117L341.228 658.917L341.985 703.608L345.772 702.093V661.117Z" fill="#02B5A6"/>
<path d="M338.198 650.464L342.743 651.343L341.986 703.608L338.198 701.972L338.198 650.464Z" fill="#012C28"/>
<path d="M371.517 602.033L366.972 599.833L367.729 644.524L371.517 643.009V602.033Z" fill="#02B5A6"/>
<path d="M363.943 591.38L368.488 592.259L367.731 644.524L363.943 642.888L363.943 591.38Z" fill="#012C28"/>
<path d="M295.771 574.761L291.227 572.562L291.984 617.252L295.771 615.737V574.761Z" fill="#02B5A6"/>
<path d="M288.197 564.108L292.742 564.987L291.985 617.253L288.197 615.616L288.197 564.108Z" fill="#012C28"/>
<path d="M236.688 550.526L232.143 548.326L232.9 593.017L236.688 591.502V550.526Z" fill="#02B5A6"/>
<path d="M229.111 539.873L233.656 540.752L232.899 593.017L229.111 591.381L229.111 539.873Z" fill="#012C28"/>
<path d="M236.688 552.039L232.143 549.84L232.9 594.531L236.688 593.016V552.039Z" fill="#02B5A6"/>
<path d="M229.111 541.387L233.656 542.266L232.899 594.531L229.111 592.895L229.111 541.387Z" fill="#012C28"/>
<path d="M482.114 655.058L477.569 652.858L478.327 697.549L482.114 696.034V655.058Z" fill="#02B5A6"/>
<path d="M474.54 644.404L479.085 645.283L478.327 697.549L474.54 695.912L474.54 644.404Z" fill="#012C28"/>
<path d="M530.586 536.894L526.041 534.694L526.799 579.385L530.586 577.87V536.894Z" fill="#02B5A6"/>
<path d="M523.012 526.238L527.556 527.117L526.799 579.383L523.012 577.746L523.012 526.238Z" fill="#012C28"/>
<path d="M454.849 670.204L450.304 668.005L451.061 712.696L454.849 711.181V670.204Z" fill="#02B5A6"/>
<path d="M447.273 659.552L451.818 660.431L451.061 712.696L447.274 711.06L447.273 659.552Z" fill="#012C28"/>
<path d="M591.922 574.849V577.149L386.624 656.508V653.057L591.922 574.849Z" fill="#10867C"/>
<path d="M591.188 736.058V738.33L386.02 817.541V814.091L591.188 736.058Z" fill="#10867C"/>
<path d="M386.039 817.527V814.095L180.64 735.3V738.751L386.039 817.527Z" fill="#006058"/>
<path d="M386.695 780.409V776.977L181.296 698.182V701.632L386.695 780.409Z" fill="#006058"/>
<path d="M591.189 698.941V701.214L386.672 780.411V776.961L591.189 698.941Z" fill="#10867C"/>
<path fill-rule="evenodd" clip-rule="evenodd" d="M181.244 538.806L386.617 618.479L591.99 539.165L386.078 459.836L181.244 538.806Z" fill="#88CCCA"/>
<path opacity="0.5" fill-rule="evenodd" clip-rule="evenodd" d="M181.244 536.506L386.617 616.178L591.99 536.864L386.078 457.535L181.244 536.506Z" fill="#88CCCA"/>
<path d="M181.238 538.805L181.238 536.509L186.181 537.949L185.649 540.47L181.238 538.805Z" fill="#88CCCA"/>
<path d="M184.225 575.582L185.927 577.724V578.534L181.255 576.773V574.446L184.225 575.582Z" fill="#88CCCA"/>
<path d="M411.606 434.239L448.057 431.48V543.779L411.606 558.045V434.239Z" fill="#02B5A6"/>
<path d="M411.598 433.882V557.865L377.017 544.682V431.603L411.598 433.882Z" fill="#006058"/>
<path d="M359.257 430.957L395.707 428.031V564.117L359.257 578.661L359.257 430.957Z" fill="#02B5A6"/>
<path d="M359.261 438.14V578.661L324.679 564.467V435.611L359.261 438.14Z" fill="#67AFAD"/>
<path fill-rule="evenodd" clip-rule="evenodd" d="M445.756 282.98L592.324 265.669V537.14L445.756 483.753V282.98Z" fill="#D5F2F1"/>
<path fill-rule="evenodd" clip-rule="evenodd" d="M591.188 738.327L386.065 817.511L386.539 973.234L591.188 894.366V738.327Z" fill="#EEFFFE"/>
<path fill-rule="evenodd" clip-rule="evenodd" d="M580.41 598.232L398.354 668.792V689.81L580.41 619.422V598.232Z" fill="#D5F2F1"/>
<path fill-rule="evenodd" clip-rule="evenodd" d="M580.41 766.411L398.354 836.971V857.989L580.41 787.601V766.411Z" fill="#D5F2F1"/>
<path fill-rule="evenodd" clip-rule="evenodd" d="M580.41 850.516L398.354 921.076V942.094L580.41 871.705V850.516Z" fill="#D5F2F1"/>
<path fill-rule="evenodd" clip-rule="evenodd" d="M580.41 640.285L398.354 710.845V731.863L580.41 661.475V640.285Z" fill="#D5F2F1"/>
<path fill-rule="evenodd" clip-rule="evenodd" d="M580.41 808.464L398.354 879.024V900.042L580.41 829.654V808.464Z" fill="#D5F2F1"/>
<path fill-rule="evenodd" clip-rule="evenodd" d="M500.516 276.112L568.653 302.176V323.194L500.516 297.302V276.112Z" fill="#B9E0DF"/>
<path fill-rule="evenodd" clip-rule="evenodd" d="M445.189 422.296L568.646 470.353V491.371L445.189 443.486V422.296Z" fill="#B9E0DF"/>
<path fill-rule="evenodd" clip-rule="evenodd" d="M443.768 336.243L568.643 386.262V407.28L443.768 357.433V336.243Z" fill="#B9E0DF"/>
<path fill-rule="evenodd" clip-rule="evenodd" d="M445.667 298.42L568.651 344.228V365.246L445.667 319.61V298.42Z" fill="#B9E0DF"/>
<path fill-rule="evenodd" clip-rule="evenodd" d="M444.456 462.534L568.654 512.405V533.423L444.456 483.724V462.534Z" fill="#B9E0DF"/>
<path fill-rule="evenodd" clip-rule="evenodd" d="M443.302 377.854L568.649 428.316V449.334L443.302 399.043V377.854Z" fill="#B9E0DF"/>
<path d="M513.942 260.487L509.398 262.76L505.61 549.963L509.398 548.448L513.942 260.487Z" fill="#00C8B5"/>
<path d="M505.608 259.609L510.152 260.488C508.378 373.535 507.382 436.916 505.608 549.963L501.82 548.326L505.608 259.609Z" fill="#006058"/>
<path d="M482.121 273.487L477.576 275.76L473.789 562.963L477.576 561.448L482.121 273.487Z" fill="#00C8B5"/>
<path d="M473.786 272.608L478.331 273.487C476.556 386.534 475.561 449.915 473.786 562.962L469.999 561.325L473.786 272.608Z" fill="#006058"/>
<path d="M438.188 290.151L433.644 292.424L429.856 579.627L433.644 578.112L438.188 290.151Z" fill="#00C8B5"/>
<path d="M429.855 289.272L434.399 290.151C432.625 403.198 431.63 466.579 429.855 579.626L426.067 577.99L429.855 289.272Z" fill="#006058"/>
<path d="M404.861 303.785L400.317 306.058L396.529 593.261L400.317 591.746L404.861 303.785Z" fill="#00C8B5"/>
<path d="M396.528 302.905L401.072 303.784C399.297 416.832 398.302 480.213 396.528 593.26L392.74 591.623L396.528 302.905Z" fill="#006058"/>
<path d="M362.449 320.448L357.904 322.721L354.117 609.924L357.904 608.409L362.449 320.448Z" fill="#02B5A6"/>
<path d="M354.115 319.57L358.659 320.448C356.884 433.496 355.889 496.877 354.114 609.924L350.327 608.287L354.115 319.57Z" fill="#012C28"/>
<path d="M566.955 276.273L562.41 278.546L558.623 565.749L562.41 564.234L566.955 276.273Z" fill="#00C8B5"/>
<path d="M558.62 275.395L563.165 276.274C561.39 389.321 560.395 452.702 558.62 565.749L554.833 564.113L558.62 275.395Z" fill="#006058"/>
<path d="M535.129 289.271L530.584 291.543L526.797 578.746L530.584 577.231L535.129 289.271Z" fill="#00C8B5"/>
<path d="M526.801 288.391L531.346 289.27C529.571 402.317 528.576 465.698 526.801 578.745L523.014 577.109L526.801 288.391Z" fill="#006058"/>
<path d="M491.209 305.936L486.664 308.208L482.877 595.411L486.664 593.896L491.209 305.936Z" fill="#00C8B5"/>
<path d="M482.874 305.057L487.419 305.936C485.644 418.983 484.649 482.364 482.874 595.411L479.087 593.775L482.874 305.057Z" fill="#006058"/>
<path d="M457.877 319.569L453.332 321.842L449.545 609.045L453.332 607.53L457.877 319.569Z" fill="#00C8B5"/>
<path d="M449.542 318.692L454.087 319.571C452.312 432.618 451.317 495.999 449.542 609.046L445.755 607.409L449.542 318.692Z" fill="#006058"/>
<path d="M415.454 336.235L410.909 338.508L407.122 625.711L410.909 624.196L415.454 336.235Z" fill="#00C8B5"/>
<path d="M407.12 335.356L411.665 336.235C409.89 449.282 408.895 512.663 407.12 625.71L403.333 624.074L407.12 335.356Z" fill="#006058"/>
<path d="M376.062 338.386L371.518 340.658L367.73 643.89L371.518 642.375L376.062 338.386Z" fill="#02B5A6"/>
<path d="M367.73 338.386L372.274 339.265C370.5 452.312 369.505 530.843 367.73 643.89L363.942 642.253L367.73 338.386Z" fill="#012C28"/>
<path d="M591.925 536.896V539.196L385.715 618.972V615.42L591.925 536.896Z" fill="#10867C"/>
<path d="M591.927 495.94V498.241L385.923 579.784V576.232L591.927 495.94Z" fill="#10867C"/>
<path d="M591.927 456.553V458.853L385.923 540.397V536.845L591.927 456.553Z" fill="#10867C"/>
<path d="M591.927 412.62V414.92L385.923 496.464V492.912L591.927 412.62Z" fill="#10867C"/>
<path d="M591.927 368.686V370.986L385.923 452.529V448.978L591.927 368.686Z" fill="#10867C"/>
<path d="M591.166 326.267V328.567L385.162 410.111V406.559L591.166 326.267Z" fill="#10867C"/>
<path fill-rule="evenodd" clip-rule="evenodd" d="M591.956 576.989L386.703 656.524V776.962L591.198 698.942L591.956 576.989Z" fill="#EEFFFE"/>
<path fill-rule="evenodd" clip-rule="evenodd" d="M580.429 598.234L398.372 668.794V689.812L580.429 619.424V598.234Z" fill="#D5F2F1"/>
<path fill-rule="evenodd" clip-rule="evenodd" d="M580.429 766.412L398.372 836.972V857.99L580.429 787.602V766.412Z" fill="#D5F2F1"/>
<path fill-rule="evenodd" clip-rule="evenodd" d="M580.429 640.287L398.372 710.847V731.865L580.429 661.477V640.287Z" fill="#D5F2F1"/>
<path fill-rule="evenodd" clip-rule="evenodd" d="M580.429 808.464L398.372 879.024V900.042L580.429 829.654V808.464Z" fill="#D5F2F1"/>
<path fill-rule="evenodd" clip-rule="evenodd" d="M180.64 574.875L386.672 652.733V776.959L180.64 698.343V574.875Z" fill="#D5F2F1"/>
<path fill-rule="evenodd" clip-rule="evenodd" d="M189.517 598.233L371.576 668.793V689.811L189.517 619.423V598.233Z" fill="#B9E0DF"/>
<path fill-rule="evenodd" clip-rule="evenodd" d="M189.517 766.412L371.576 836.972V857.99L189.517 787.602V766.412Z" fill="#B9E0DF"/>
<path fill-rule="evenodd" clip-rule="evenodd" d="M189.517 850.516L371.576 921.076V942.094L189.517 871.705V850.516Z" fill="#B9E0DF"/>
<path fill-rule="evenodd" clip-rule="evenodd" d="M189.517 640.288L371.576 710.848V731.866L189.517 661.478V640.288Z" fill="#B9E0DF"/>
<path fill-rule="evenodd" clip-rule="evenodd" d="M189.517 808.463L371.576 879.023V900.041L189.517 829.653V808.463Z" fill="#B9E0DF"/>
<path fill-rule="evenodd" clip-rule="evenodd" d="M180.64 737.569L386.118 817.511L386.576 973.234L180.64 893.608V737.569Z" fill="#D5F2F1"/>
<path fill-rule="evenodd" clip-rule="evenodd" d="M189.517 598.233L371.576 668.793V689.811L189.517 619.423V598.233Z" fill="#B9E0DF"/>
<path fill-rule="evenodd" clip-rule="evenodd" d="M189.517 766.411L371.576 836.971V857.989L189.517 787.601V766.411Z" fill="#B9E0DF"/>
<path fill-rule="evenodd" clip-rule="evenodd" d="M189.517 850.516L371.576 921.076V942.094L189.517 871.705V850.516Z" fill="#B9E0DF"/>
<path fill-rule="evenodd" clip-rule="evenodd" d="M189.517 640.286L371.576 710.846V731.864L189.517 661.476V640.286Z" fill="#B9E0DF"/>
<path fill-rule="evenodd" clip-rule="evenodd" d="M189.517 808.463L371.576 879.023V900.041L189.517 829.653V808.463Z" fill="#B9E0DF"/>
<path opacity="0.5" fill-rule="evenodd" clip-rule="evenodd" d="M180.64 496.134L386.013 575.806L591.947 495.94L385.474 417.163L180.64 496.134Z" fill="#88CCCA"/>
<path opacity="0.5" fill-rule="evenodd" clip-rule="evenodd" d="M180.64 456.743L386.013 536.416L591.386 457.102L385.474 377.772L180.64 456.743Z" fill="#88CCCA"/>
<path opacity="0.5" fill-rule="evenodd" clip-rule="evenodd" d="M180.64 412.81L386.013 492.483L591.947 412.617L385.474 333.84L180.64 412.81Z" fill="#88CCCA"/>
<path opacity="0.5" fill-rule="evenodd" clip-rule="evenodd" d="M180.64 368.876L386.013 448.549L591.947 368.683L464.691 317.175L386.013 347.474L307.895 317.175L180.64 368.876Z" fill="#88CCCA"/>
<path opacity="0.5" fill-rule="evenodd" clip-rule="evenodd" d="M180.64 326.46L386.013 406.133L591.189 326.267L513.927 295.968L386.013 347.476L255.629 295.968L180.64 326.46Z" fill="#88CCCA"/>
<path fill-rule="evenodd" clip-rule="evenodd" d="M181.252 267.374L386.313 347.034L386.672 656.522L180.749 576.394L181.252 267.374Z" fill="#D5F2F1"/>
<path fill-rule="evenodd" clip-rule="evenodd" d="M189.508 297.848L371.568 368.408V389.426L189.508 319.038V297.848Z" fill="#B9E0DF"/>
<path fill-rule="evenodd" clip-rule="evenodd" d="M189.508 466.024L371.568 536.584V557.602L189.508 487.214V466.024Z" fill="#B9E0DF"/>
<path fill-rule="evenodd" clip-rule="evenodd" d="M189.508 381.935L371.568 452.495V473.513L189.508 403.124V381.935Z" fill="#B9E0DF"/>
<path fill-rule="evenodd" clip-rule="evenodd" d="M189.508 550.128L371.568 620.688V641.706L189.508 571.318V550.128Z" fill="#B9E0DF"/>
<path fill-rule="evenodd" clip-rule="evenodd" d="M189.508 339.9L371.568 410.46V431.478L189.508 361.09V339.9Z" fill="#B9E0DF"/>
<path fill-rule="evenodd" clip-rule="evenodd" d="M189.508 508.076L371.568 578.636V599.654L189.508 529.266V508.076Z" fill="#B9E0DF"/>
<path fill-rule="evenodd" clip-rule="evenodd" d="M189.508 423.987L371.568 494.547V515.565L189.508 445.177V423.987Z" fill="#B9E0DF"/>
<path fill-rule="evenodd" clip-rule="evenodd" d="M181.248 267.375L386.621 347.048L413.191 336.869L208.674 256.577L181.248 267.375Z" fill="#88CCCA"/>
<path fill-rule="evenodd" clip-rule="evenodd" d="M332.486 326.032L386.402 347.023L591.867 267.724L538.93 246.729L332.486 326.032Z" fill="#88CCCA"/>
<g clip-path="url(#clip5_844_6246)">
<path d="M307.002 236.502L304.82 235.686L304.335 212.608L306.518 213.435L307.002 236.502Z" fill="#006058"/>
<path d="M314.547 238.071L311.001 230.566L303.677 211.232L301.374 203.701L355.235 183.051L368.418 217.41L314.547 238.071Z" fill="#009A8D"/>
<path d="M354.308 185.215L303.494 204.704L315.46 235.904L366.275 216.415L354.308 185.215Z" fill="#001D23"/>
<path d="M361.582 204.16C361.03 202.708 359.391 201.981 357.939 202.532L347.258 206.626C345.806 207.178 345.079 208.828 345.63 210.27L349.321 219.886C349.873 221.338 350.329 222.522 350.329 222.522C350.329 222.522 351.512 222.066 352.964 221.514L363.645 217.42C365.097 216.868 365.824 215.229 365.273 213.777L361.582 204.16V204.16Z" fill="#00C8B5"/>
<path d="M325.769 211.498C326.321 212.95 327.97 213.677 329.412 213.126L341.555 208.47C343.007 207.918 343.734 206.268 343.183 204.826L339.068 194.096C338.516 192.644 336.876 191.916 335.424 192.468L323.282 197.124C321.83 197.676 321.102 199.316 321.654 200.768L325.769 211.508L325.769 211.498Z" fill="#00C8B5"/>
<path d="M329.532 213.442L341.679 208.783C343.129 208.227 344.77 208.95 345.33 210.41L349.016 220.02C349.572 221.471 348.849 223.112 347.389 223.672L335.242 228.33C333.792 228.887 332.16 228.16 331.604 226.709L327.918 217.099C327.362 215.648 328.089 214.017 329.539 213.46L329.532 213.442Z" fill="#00C8B5"/>
<path d="M312.391 220.01L323.949 215.577C325.399 215.021 327.04 215.744 327.6 217.204L331.286 226.815C331.842 228.265 331.119 229.906 329.659 230.466L318.102 234.899C316.651 235.455 315.02 234.728 314.464 233.278L310.777 223.667C310.221 222.216 310.944 220.576 312.404 220.016L312.391 220.01Z" fill="#00C8B5"/>
<path d="M343.499 204.7C344.051 206.152 345.69 206.88 347.142 206.328L357.823 202.234C359.275 201.682 360.002 200.033 359.451 198.591L355.336 187.86C354.784 186.408 353.135 185.681 351.693 186.233L341.012 190.327C339.56 190.878 338.832 192.518 339.384 193.97L343.499 204.7Z" fill="#00C8B5"/>
<path d="M323.831 215.268C325.283 214.716 326.01 213.077 325.459 211.625L321.344 200.895C320.792 199.442 319.152 198.715 317.7 199.267L306.144 203.69C304.692 204.242 303.965 205.881 304.517 207.333L308.632 218.074C309.194 219.526 310.823 220.253 312.275 219.701L323.831 215.268V215.268Z" fill="#00C8B5"/>
<path d="M301.367 203.701L300.179 204.157L313.358 238.52L314.547 238.064L301.367 203.701Z" fill="#006058"/>
</g>
<g clip-path="url(#clip6_844_6246)">
<path d="M246.871 259.63L244.689 258.814L244.204 235.736L246.387 236.563L246.871 259.63Z" fill="#006058"/>
<path d="M254.415 261.199L250.869 253.694L243.545 234.36L241.242 226.829L295.103 206.179L308.286 240.538L254.415 261.199Z" fill="#009A8D"/>
<path d="M294.178 208.345L243.363 227.834L255.33 259.034L306.144 239.545L294.178 208.345Z" fill="#001D23"/>
<path d="M301.452 227.288C300.9 225.836 299.261 225.109 297.809 225.66L287.128 229.754C285.676 230.306 284.949 231.956 285.5 233.398L289.191 243.014C289.743 244.466 290.199 245.65 290.199 245.65C290.199 245.65 291.382 245.194 292.834 244.642L303.515 240.548C304.967 239.996 305.694 238.357 305.143 236.905L301.452 227.288V227.288Z" fill="#00C8B5"/>
<path d="M265.637 234.627C266.189 236.079 267.838 236.806 269.281 236.255L281.423 231.599C282.875 231.047 283.602 229.397 283.051 227.955L278.936 217.225C278.384 215.773 276.745 215.045 275.293 215.597L263.15 220.253C261.698 220.805 260.97 222.444 261.522 223.896L265.638 234.637L265.637 234.627Z" fill="#00C8B5"/>
<path d="M269.398 236.571L281.545 231.912C282.995 231.356 284.636 232.079 285.196 233.539L288.882 243.149C289.438 244.6 288.715 246.241 287.255 246.801L275.109 251.459C273.658 252.016 272.027 251.289 271.47 249.838L267.784 240.227C267.228 238.777 267.955 237.146 269.405 236.589L269.398 236.571Z" fill="#00C8B5"/>
<path d="M252.259 243.138L263.817 238.705C265.267 238.149 266.908 238.872 267.468 240.332L271.154 249.943C271.71 251.393 270.987 253.034 269.527 253.594L257.97 258.027C256.519 258.583 254.888 257.856 254.332 256.406L250.646 246.795C250.089 245.344 250.813 243.704 252.272 243.144L252.259 243.138Z" fill="#00C8B5"/>
<path d="M283.367 227.827C283.919 229.279 285.559 230.007 287.011 229.455L297.691 225.361C299.143 224.809 299.871 223.16 299.319 221.718L295.204 210.987C294.652 209.535 293.003 208.808 291.561 209.36L280.88 213.454C279.428 214.005 278.7 215.645 279.252 217.097L283.367 227.827Z" fill="#00C8B5"/>
<path d="M263.701 238.396C265.153 237.844 265.881 236.205 265.329 234.753L261.214 224.022C260.662 222.57 259.023 221.843 257.57 222.395L246.014 226.818C244.562 227.37 243.835 229.009 244.387 230.461L248.502 241.202C249.064 242.653 250.693 243.381 252.145 242.829L263.701 238.396V238.396Z" fill="#00C8B5"/>
</g>
<g clip-path="url(#clip7_844_6246)">
<path d="M484.002 857.676L504.667 850.303L512.231 852.8L491.566 860.173L484.002 857.676Z" fill="#429A97"/>
<path d="M491.566 860.144L512.231 852.771V888.784L491.566 896.157V860.144V860.144Z" fill="#00C8B5"/>
<path d="M484.002 857.676L491.566 860.144V896.186L484.002 893.219V857.676Z" fill="#006058"/>
<path d="M512.053 865.576L507.191 863.726C505.987 863.329 504.592 863.329 503.108 863.872C498.673 865.473 495.074 871.04 495.074 876.283C495.074 879.926 496.807 882.467 499.348 883.142L503.901 884.89L505.208 881.791C508.616 879.456 511.127 874.873 511.127 870.482C511.127 869.703 511.039 868.984 510.892 868.308L512.053 865.561V865.576Z" fill="#006058"/>
<path d="M513.901 878.276C516.514 873.089 515.73 867.423 512.151 865.62C508.572 863.818 503.553 866.562 500.941 871.749C498.329 876.937 499.112 882.603 502.691 884.405C506.27 886.207 511.289 883.463 513.901 878.276Z" fill="#006058"/>
<path d="M507.427 883.569C511.466 882.115 514.741 877.063 514.741 872.304C514.741 867.545 511.466 864.872 507.427 866.341C503.388 867.81 500.112 872.847 500.112 877.606C500.112 882.365 503.388 885.038 507.427 883.569V883.569Z" fill="#00C8B5"/>
<path d="M506.488 874.2L503.903 872.084Z" fill="#001D23"/>
<path d="M506.488 874.2L503.903 872.084" stroke="#001D23" stroke-width="1.40445" stroke-miterlimit="10" stroke-linecap="square"/>
<path d="M507.425 876.518C508.16 876.254 508.762 875.343 508.762 874.477C508.762 873.61 508.16 873.126 507.425 873.39C506.691 873.654 506.089 874.565 506.089 875.432C506.089 876.298 506.691 876.783 507.425 876.518V876.518Z" fill="#001D23"/>
<path d="M507.427 868.691V869.866Z" fill="#001D23"/>
<path d="M507.427 868.691V869.866" stroke="#001D23" stroke-width="1.40445" stroke-miterlimit="10" stroke-linecap="square"/>
<path d="M511.185 869.162L510.48 870.249Z" fill="#001D23"/>
<path d="M511.185 869.162L510.48 870.249" stroke="#001D23" stroke-width="1.40445" stroke-miterlimit="10" stroke-linecap="square"/>
<path d="M512.743 873.038L511.744 873.405Z" fill="#001D23"/>
<path d="M512.743 873.038L511.744 873.405" stroke="#001D23" stroke-width="1.40445" stroke-miterlimit="10" stroke-linecap="square"/>
<path d="M503.095 876.52L502.097 876.887Z" fill="#001D23"/>
<path d="M503.095 876.52L502.097 876.887" stroke="#001D23" stroke-width="1.40445" stroke-miterlimit="10" stroke-linecap="square"/>
</g>
<g clip-path="url(#clip8_844_6246)">
<path d="M308.884 904.676L312.661 902.148V831.129L243.407 803.556L239.63 806.084L308.884 904.676Z" fill="#006058"/>
<path d="M239.63 877.102L308.884 904.676V833.656L239.63 806.083V877.102Z" fill="#00C8B5"/>
<path d="M305.104 899.497L243.405 874.704V860.854L305.104 885.665V899.497Z" fill="#00A999"/>
<path d="M274.255 829.38C286.936 834.472 298.197 845.27 305.104 857.676V836.061L243.405 811.269V832.865C250.313 826.039 261.573 824.288 274.255 829.38Z" fill="#00A999"/>
<path d="M274.255 830.915C261.411 825.751 250.079 827.791 243.405 835.087V859.337L305.104 884.13V859.897C298.449 847.221 287.098 836.08 274.255 830.915V830.915Z" fill="#00A999"/>
<path d="M274.255 830.916C287.098 836.08 298.449 847.239 305.104 859.897V857.676C298.197 845.289 286.936 834.491 274.255 829.381C261.573 824.271 250.313 826.022 243.405 832.866V835.087C250.061 827.774 261.411 825.751 274.255 830.916V830.916Z" fill="white"/>
<path d="M249.486 846.389C249.36 846.588 249.252 846.786 249.18 846.985C246.698 846.732 245.043 845.414 244.935 845.324C244.683 845.125 244.395 845.125 244.305 845.324C244.197 845.522 244.305 845.866 244.557 846.064C244.683 846.173 246.392 847.563 248.964 847.978C248.964 848.014 248.964 848.05 248.964 848.069C248.964 848.791 249.27 849.405 249.666 849.82C250.781 850.994 253.227 851.355 256.789 849.152C256.555 849.712 256.357 850.362 256.213 851.048C256.213 851.084 256.213 851.102 256.213 851.138C256.213 851.337 256.339 851.572 256.519 851.734C256.897 852.041 257.131 851.806 257.311 851.608L257.796 851.066C258.228 850.597 259.181 849.531 259.829 849.026C259.757 849.405 259.667 849.856 259.667 850.29C259.667 850.885 259.811 851.499 260.297 851.987C260.71 852.384 261.358 852.727 262.779 852.456C262.905 852.836 263.139 853.088 263.283 853.197C264.182 853.973 265.891 853.757 267.672 852.763C267.438 853.215 267.258 853.576 267.204 853.757C267.204 853.811 267.204 853.847 267.204 853.901C267.204 854.136 267.348 854.352 267.492 854.479C267.888 854.804 268.122 854.569 268.319 854.371L268.859 853.811C269.309 853.323 270.352 852.204 270.964 851.806C271.144 852.33 271.467 853.016 272.043 853.576C271.881 853.883 271.791 854.19 271.791 854.461C271.791 854.804 271.917 855.111 272.169 855.382C272.619 855.869 273.32 855.978 274.04 855.887C271.737 857.26 270.676 859.12 270.64 860.131V860.185C270.64 860.745 270.91 861.088 271.09 861.25C271.431 861.575 271.863 861.63 272.367 861.431C274.112 860.745 275.371 857.964 276.018 856.212C276.882 855.851 277.907 855.562 279.058 855.4C278.681 855.923 278.465 856.465 278.465 856.971C278.465 857.151 278.501 857.332 278.555 857.512C278.681 857.928 278.968 858.271 279.346 858.451C280.156 858.867 281.253 858.451 282.566 857.368C282.458 857.639 282.35 857.91 282.224 858.181C278.591 859.589 276.954 862.009 276.756 863.598C276.738 863.724 276.72 863.851 276.72 863.959C276.72 864.627 276.99 865.042 277.224 865.277C277.493 865.548 277.961 865.819 278.663 865.566C279.436 865.277 281.271 863.146 283.034 859.102C285.39 858.235 288.61 857.783 292.909 858.325C293.125 858.343 293.269 858.217 293.269 858C293.269 857.964 293.269 857.91 293.269 857.874C293.197 857.585 292.927 857.332 292.657 857.296C288.898 856.826 285.93 857.097 283.609 857.747C283.879 857.043 284.167 856.267 284.437 855.472C284.437 855.436 284.455 855.382 284.455 855.346C284.455 855.165 284.347 854.93 284.167 854.786C283.951 854.605 283.681 854.569 283.555 854.732C281.127 857.567 279.76 857.711 279.454 857.585C279.454 857.549 279.418 857.494 279.418 857.422C279.418 856.989 279.796 856.05 280.983 855.255C281.073 855.201 281.109 855.093 281.109 854.966C281.109 854.876 281.073 854.768 281.019 854.659C280.893 854.425 280.641 854.244 280.425 854.244C278.896 854.28 277.583 854.515 276.432 854.876C276.432 854.84 276.45 854.804 276.45 854.786C276.45 854.75 276.45 854.714 276.45 854.677C276.45 854.497 276.342 854.28 276.18 854.136H276.162C276.504 853.991 276.846 853.829 277.206 853.648C277.583 853.45 277.691 853.161 277.691 852.926C277.691 852.818 277.673 852.727 277.655 852.655C277.547 852.258 277.224 851.915 276.792 851.68C275.713 851.12 274.022 851.355 272.493 852.998C271.971 852.511 271.773 851.752 271.683 851.391L271.647 851.247C271.575 851.012 271.395 850.813 271.18 850.723C270.856 850.597 270.496 850.687 269.938 851.102C269.938 851.102 269.938 851.084 269.956 851.066C269.992 851.012 269.992 850.94 269.992 850.867C269.992 850.705 269.902 850.506 269.758 850.362C269.543 850.145 269.273 850.091 269.111 850.235C266.395 852.818 264.02 852.872 263.661 852.547C263.661 852.547 263.661 852.511 263.661 852.438C263.661 852.402 263.661 852.348 263.678 852.276C264.29 852.077 264.992 851.806 265.855 851.409C266.647 851.048 266.826 850.56 266.826 850.199C266.826 850.037 266.79 849.892 266.754 849.802C266.593 849.369 266.215 848.989 265.729 848.845C264.722 848.52 263.463 849.206 262.833 851.355C261.268 851.806 260.836 851.463 260.782 851.409C260.567 851.192 260.585 850.524 260.836 849.423C260.944 848.935 260.998 848.701 260.872 848.43C260.746 848.159 260.549 847.942 260.315 847.852C259.811 847.617 259.217 847.924 258.03 849.152C258.516 848.213 258.966 847.617 258.984 847.599C259.038 847.545 259.056 847.455 259.056 847.382C259.056 847.238 258.984 847.057 258.858 846.895C258.66 846.66 258.372 846.588 258.192 846.714C253.911 850.235 251.015 850.163 250.169 849.278C249.99 849.098 249.9 848.827 249.9 848.52C249.9 848.394 249.918 848.267 249.954 848.123C251.555 848.195 253.407 847.834 255.368 846.606C256.519 845.884 257.149 845.017 257.149 844.168C257.149 843.97 257.113 843.789 257.059 843.608C256.879 843.103 256.483 842.669 255.98 842.435C254.451 841.748 251.842 842.706 249.486 846.425V846.389ZM255.944 843.356C256.124 843.446 256.159 843.518 256.159 843.554C256.159 843.608 256.177 843.663 256.177 843.735C256.177 844.168 255.8 844.89 254.666 845.595C253.155 846.552 251.716 846.931 250.439 847.003C252.688 843.554 254.99 842.922 255.926 843.338L255.944 843.356ZM265.531 849.766C265.693 849.748 265.801 849.766 265.873 849.802C265.855 849.91 265.729 850.145 265.243 850.362C264.884 850.524 264.56 850.669 264.272 850.795C264.776 849.946 265.333 849.784 265.531 849.766V849.766ZM276.324 852.42C276.504 852.456 276.63 852.493 276.702 852.547C276.684 852.565 276.648 852.601 276.594 852.619C275.479 853.215 274.489 853.486 273.716 853.413C274.939 852.312 276 852.366 276.324 852.42ZM274.849 854.443C273.914 854.894 273.05 854.948 272.744 854.822C272.744 854.732 272.78 854.533 272.978 854.208C273.536 854.461 274.148 854.533 274.849 854.443V854.443ZM274.471 856.989C273.806 858.433 272.87 859.968 271.737 860.42C271.683 860.438 271.629 860.456 271.593 860.474C271.647 859.788 272.511 858.235 274.471 856.989V856.989ZM277.673 864.338C277.673 864.121 277.727 863.778 277.907 863.327C278.357 862.225 279.472 860.853 281.451 859.788C279.958 862.785 278.573 864.338 278.051 864.537C277.889 864.591 277.763 864.609 277.709 864.591C277.691 864.537 277.673 864.465 277.673 864.338V864.338Z" fill="white"/>
<path d="M291.616 846.805C291.31 846.679 291.04 846.751 290.932 847.004C290.932 847.004 288.27 852.8 287.964 853.468C287.119 853.179 279.815 850.633 279.815 850.633C279.42 850.507 279.132 850.705 279.132 851.085V851.121C279.15 851.536 279.492 851.969 279.905 852.114L288.522 855.111C288.809 855.22 289.061 855.129 289.169 854.913C289.169 854.913 290.806 851.355 291.634 849.55C292.461 852.024 294.098 856.863 294.098 856.863C294.206 857.17 294.458 857.459 294.727 857.585C294.727 857.585 299.171 859.626 301.455 860.673C299.71 861.431 296.274 862.912 296.274 862.912C296.095 862.984 296.005 863.147 296.005 863.364C296.005 863.418 296.005 863.49 296.023 863.562C296.023 863.562 297.12 868.329 297.696 870.785C295.789 868.781 292.047 864.862 292.047 864.862C291.813 864.61 291.508 864.483 291.256 864.537C291.256 864.537 287.478 865.44 285.536 865.892C286.129 863.978 287.208 860.529 287.208 860.529C287.208 860.474 287.226 860.402 287.226 860.348C287.226 860.023 287.011 859.644 286.687 859.427C286.309 859.156 285.895 859.228 285.787 859.572L283.629 866.578C283.557 866.831 283.647 867.192 283.899 867.463C284.133 867.733 284.474 867.878 284.726 867.824C284.726 867.824 290.95 866.343 291.652 866.18C292.353 866.921 298.469 873.331 298.469 873.331C298.721 873.602 299.045 873.71 299.296 873.638C299.494 873.566 299.602 873.403 299.602 873.169C299.602 873.114 299.602 873.042 299.584 872.97C299.584 872.97 297.767 865.133 297.57 864.248C298.199 863.978 303.829 861.54 303.829 861.54C303.991 861.468 304.099 861.305 304.099 861.088C304.099 861.016 304.099 860.926 304.063 860.854C303.973 860.529 303.722 860.222 303.416 860.095C303.416 860.095 296.149 856.755 295.321 856.375C295.015 855.473 292.353 847.545 292.353 847.545C292.245 847.22 291.975 846.931 291.67 846.805H291.616Z" fill="white"/>
<path d="M246.068 872.716V864.97L250.044 866.577V867.444L247.058 866.234V868.726L249.828 869.845V870.694L247.058 869.574V872.265L250.116 873.493V874.341L246.068 872.716Z" fill="white"/>
<path d="M256.627 869.232V876.96L255.278 876.437L252.238 868.491L252.22 868.473V875.191L251.339 874.848V867.101L252.724 867.661L255.728 875.498H255.746V868.871L256.627 869.232Z" fill="white"/>
<path d="M257.992 877.52V869.773L261.968 871.362V872.229L258.982 871.019V873.511L261.752 874.631V875.498L258.982 874.378V877.051L262.04 878.278V879.145L257.992 877.52Z" fill="white"/>
<path d="M264.2 873.132L265.693 873.728C266.449 874.035 266.737 874.757 266.737 875.317C266.737 876.003 266.395 876.473 265.693 876.184L264.218 875.588V873.114L264.2 873.132ZM265.352 876.924C265.675 877.051 266.449 877.412 266.521 878.387C266.611 879.452 266.539 880.427 266.827 881.077L267.852 881.493C267.708 880.951 267.6 879.687 267.582 879.362C267.528 877.791 267.204 877.358 266.323 876.852C267.222 877.033 267.726 876.545 267.726 875.624C267.726 874.667 267.24 873.493 265.873 872.952L263.211 871.886V879.633L264.2 880.03V876.473L265.352 876.942V876.924Z" fill="white"/>
<path d="M272.492 877.664C272.492 876.743 272.115 876.111 271.125 875.714C270.819 875.588 269.704 875.191 269.704 876.816V879.434C269.704 881.131 270.19 881.763 271.125 882.125C271.827 882.413 272.294 882.395 272.51 882.341V880.03L271.089 879.452V878.585L273.5 879.56V883.334C272.87 883.425 272.133 883.37 271.143 882.955C269.506 882.305 268.715 881.131 268.715 878.983V876.436C268.715 874.884 269.506 874.215 271.143 874.884C272.78 875.552 273.608 876.491 273.536 878.08L272.51 877.664H272.492Z" fill="white"/>
<path d="M278.193 877.9L279.182 878.297L277.078 882.234V885.195L276.088 884.798V881.837L274.02 876.221L275.117 876.654L276.628 881.006L278.193 877.9Z" fill="white"/>
<path d="M282.512 885.069V885.286C282.512 886.333 283.178 886.929 283.807 887.2C284.581 887.507 285.193 887.416 285.193 886.495C285.193 884.78 281.739 883.588 281.739 881.259C281.739 879.886 282.71 879.543 284.005 880.067C285.408 880.627 286.2 881.638 286.146 883.191L285.121 882.776C285.121 881.927 284.869 881.259 283.933 880.898C283.34 880.663 282.746 880.717 282.746 881.566C282.746 883.263 286.218 884.419 286.218 886.875C286.218 888.5 285.103 888.572 283.825 888.066C281.541 887.163 281.541 885.43 281.577 884.69L282.548 885.087L282.512 885.069Z" fill="white"/>
<path d="M291.668 883.317V884.166L289.636 883.353V890.233L288.664 889.836V882.956L286.632 882.144V881.277L291.668 883.317Z" fill="white"/>
<path d="M295.14 889.745L292.676 888.751L293.881 885.104H293.899L295.14 889.745V889.745ZM290.859 890.72L291.848 891.117L292.424 889.51L295.41 890.702L295.967 892.778L297.065 893.212L294.546 884.454L293.287 883.948L290.841 890.702L290.859 890.72Z" fill="white"/>
<path d="M298.811 887.037L300.304 887.633C301.059 887.94 301.347 888.662 301.347 889.222C301.347 889.908 301.005 890.378 300.304 890.089L298.829 889.493V887.019L298.811 887.037ZM299.962 890.829C300.286 890.955 301.059 891.317 301.131 892.292C301.221 893.357 301.149 894.332 301.437 894.982L302.462 895.397C302.318 894.856 302.21 893.592 302.192 893.267C302.138 891.696 301.815 891.262 300.933 890.757C301.833 890.937 302.336 890.45 302.336 889.529C302.336 888.572 301.851 887.398 300.484 886.856L297.821 885.791V893.538L298.811 893.935V890.378L299.962 890.847V890.829Z" fill="white"/>
</g>
<path d="M776.131 674.347H1065.45" stroke="#00C8B5" stroke-width="4.21336"/>
<path d="M1057.02 669.615C1057.02 667.575 1058.68 665.921 1060.73 665.921L1070.17 665.921C1072.22 665.921 1073.88 667.575 1073.88 669.615L1073.88 679.081C1073.88 681.121 1072.22 682.774 1070.17 682.774L1057.02 682.774L1057.02 669.615Z" fill="#00C8B5"/>
<path d="M2048.56 674.347L1759.25 674.347" stroke="#006058" stroke-width="4.21336"/>
<path d="M2056.99 679.081C2056.99 681.121 2055.33 682.774 2053.29 682.774L2043.84 682.774C2041.8 682.774 2040.14 681.121 2040.14 679.081L2040.14 669.615C2040.14 667.575 2041.8 665.921 2043.84 665.921L2056.99 665.921L2056.99 679.081Z" fill="#006058"/>
<path d="M2232.98 10.21L2232.98 38.21L2227.5 38.21L2227.5 20.05L2219.62 33.05L2218.98 33.05L2211.1 20.09L2211.1 38.21L2205.58 38.21L2205.58 10.21L2211.26 10.21L2219.3 23.45L2227.3 10.21L2232.98 10.21ZM2257.79 38.21L2256.11 33.17L2244.95 33.17L2243.27 38.21L2237.31 38.21L2247.11 10.21L2253.95 10.21L2263.79 38.21L2257.79 38.21ZM2246.71 28.01L2254.39 28.01L2250.55 16.57L2246.71 28.01ZM2283.47 38.21L2277.83 28.49L2273.63 28.49L2273.63 38.21L2268.11 38.21L2268.11 10.21L2279.31 10.21C2281.9 10.21 2284.1 11.1166 2285.91 12.93C2287.73 14.7433 2288.63 16.93 2288.63 19.49C2288.63 21.2233 2288.14 22.8366 2287.15 24.33C2286.17 25.7966 2284.86 26.9033 2283.23 27.65L2289.43 38.21L2283.47 38.21ZM2273.63 15.37L2273.63 23.65L2279.31 23.65C2280.35 23.65 2281.25 23.25 2281.99 22.45C2282.74 21.6233 2283.11 20.6366 2283.11 19.49C2283.11 18.3433 2282.74 17.37 2281.99 16.57C2281.25 15.77 2280.35 15.37 2279.31 15.37L2273.63 15.37ZM2316.16 38.21L2309.8 38.21L2299.8 25.09L2299.8 38.21L2294.28 38.21L2294.28 10.21L2299.8 10.21L2299.8 22.57L2309.4 10.21L2315.76 10.21L2305.4 23.81L2316.16 38.21ZM2326.01 32.93L2337.81 32.93L2337.81 38.21L2320.49 38.21L2320.49 10.21L2337.61 10.21L2337.61 15.49L2326.01 15.49L2326.01 21.45L2336.61 21.45L2336.61 26.65L2326.01 26.65L2326.01 32.93ZM2361.82 10.21L2361.82 15.49L2354.26 15.49L2354.26 38.21L2348.74 38.21L2348.74 15.49L2341.22 15.49L2341.22 10.21L2361.82 10.21ZM2376.94 10.21C2379.64 10.21 2381.9 11.1166 2383.74 12.93C2385.58 14.7433 2386.5 16.97 2386.5 19.61C2386.5 22.25 2385.58 24.4766 2383.74 26.29C2381.9 28.1033 2379.64 29.01 2376.94 29.01L2372.02 29.01L2372.02 38.21L2366.5 38.21L2366.5 10.21L2376.94 10.21ZM2376.94 23.85C2378.12 23.85 2379.09 23.45 2379.86 22.65C2380.64 21.8233 2381.02 20.81 2381.02 19.61C2381.02 18.3833 2380.64 17.37 2379.86 16.57C2379.09 15.77 2378.12 15.37 2376.94 15.37L2372.02 15.37L2372.02 23.85L2376.94 23.85ZM2397.22 32.93L2407.9 32.93L2407.9 38.21L2391.7 38.21L2391.7 10.21L2397.22 10.21L2397.22 32.93ZM2431.42 38.21L2429.74 33.17L2418.58 33.17L2416.9 38.21L2410.94 38.21L2420.74 10.21L2427.58 10.21L2437.42 38.21L2431.42 38.21ZM2420.34 28.01L2428.02 28.01L2424.18 16.57L2420.34 28.01ZM2454 38.77C2449.79 38.77 2446.31 37.37 2443.56 34.57C2440.81 31.77 2439.44 28.3166 2439.44 24.21C2439.44 20.0766 2440.81 16.6233 2443.56 13.85C2446.31 11.05 2449.79 9.64997 2454 9.64997C2456.53 9.64997 2458.87 10.25 2461 11.45C2463.16 12.6233 2464.84 14.2233 2466.04 16.25L2461.28 19.01C2460.59 17.7566 2459.6 16.7833 2458.32 16.09C2457.04 15.37 2455.6 15.01 2454 15.01C2451.28 15.01 2449.08 15.8633 2447.4 17.57C2445.75 19.2766 2444.92 21.49 2444.92 24.21C2444.92 26.9033 2445.75 29.1033 2447.4 30.81C2449.08 32.5166 2451.28 33.37 2454 33.37C2455.6 33.37 2457.04 33.0233 2458.32 32.33C2459.63 31.61 2460.61 30.6366 2461.28 29.41L2466.04 32.17C2464.84 34.1966 2463.17 35.81 2461.04 37.01C2458.91 38.1833 2456.56 38.77 2454 38.77ZM2476.55 32.93L2488.35 32.93L2488.35 38.21L2471.03 38.21L2471.03 10.21L2488.15 10.21L2488.15 15.49L2476.55 15.49L2476.55 21.45L2487.15 21.45L2487.15 26.65L2476.55 26.65L2476.55 32.93Z" fill="#54747E"/>
<path d="M1174.82 38.77C1172.04 38.77 1169.71 38.1566 1167.82 36.93C1165.92 35.6766 1164.59 33.9833 1163.82 31.85L1168.54 29.09C1169.63 31.9433 1171.78 33.37 1174.98 33.37C1176.52 33.37 1177.66 33.09 1178.38 32.53C1179.1 31.97 1179.46 31.2633 1179.46 30.41C1179.46 29.4233 1179.02 28.6633 1178.14 28.13C1177.26 27.57 1175.68 26.97 1173.42 26.33C1172.16 25.9566 1171.1 25.5833 1170.22 25.21C1169.36 24.8366 1168.5 24.3433 1167.62 23.73C1166.76 23.09 1166.11 22.29 1165.66 21.33C1165.2 20.37 1164.98 19.25 1164.98 17.97C1164.98 15.4366 1165.87 13.4233 1167.66 11.93C1169.47 10.41 1171.64 9.64996 1174.18 9.64996C1176.44 9.64996 1178.43 10.21 1180.14 11.33C1181.87 12.4233 1183.22 13.9566 1184.18 15.93L1179.54 18.61C1178.42 16.21 1176.63 15.01 1174.18 15.01C1173.03 15.01 1172.12 15.2766 1171.46 15.81C1170.82 16.3166 1170.5 16.9833 1170.5 17.81C1170.5 18.69 1170.86 19.41 1171.58 19.97C1172.32 20.5033 1173.74 21.09 1175.82 21.73C1176.67 21.9966 1177.31 22.21 1177.74 22.37C1178.19 22.5033 1178.79 22.73 1179.54 23.05C1180.31 23.3433 1180.9 23.6233 1181.3 23.89C1181.72 24.1566 1182.2 24.5166 1182.74 24.97C1183.27 25.4233 1183.67 25.89 1183.94 26.37C1184.23 26.85 1184.47 27.4366 1184.66 28.13C1184.87 28.7966 1184.98 29.53 1184.98 30.33C1184.98 32.9166 1184.03 34.97 1182.14 36.49C1180.27 38.01 1177.83 38.77 1174.82 38.77ZM1211.09 10.21L1201.49 27.29L1201.49 38.21L1196.01 38.21L1196.01 27.29L1186.45 10.21L1192.69 10.21L1198.77 21.89L1204.85 10.21L1211.09 10.21ZM1223.33 38.77C1220.56 38.77 1218.22 38.1566 1216.33 36.93C1214.44 35.6766 1213.1 33.9833 1212.33 31.85L1217.05 29.09C1218.14 31.9433 1220.29 33.37 1223.49 33.37C1225.04 33.37 1226.17 33.09 1226.89 32.53C1227.61 31.97 1227.97 31.2633 1227.97 30.41C1227.97 29.4233 1227.53 28.6633 1226.65 28.13C1225.77 27.57 1224.2 26.97 1221.93 26.33C1220.68 25.9566 1219.61 25.5833 1218.73 25.21C1217.88 24.8366 1217.01 24.3433 1216.13 23.73C1215.28 23.09 1214.62 22.29 1214.17 21.33C1213.72 20.37 1213.49 19.25 1213.49 17.97C1213.49 15.4366 1214.38 13.4233 1216.17 11.93C1217.98 10.41 1220.16 9.64996 1222.69 9.64996C1224.96 9.64996 1226.94 10.21 1228.65 11.33C1230.38 12.4233 1231.73 13.9566 1232.69 15.93L1228.05 18.61C1226.93 16.21 1225.14 15.01 1222.69 15.01C1221.54 15.01 1220.64 15.2766 1219.97 15.81C1219.33 16.3166 1219.01 16.9833 1219.01 17.81C1219.01 18.69 1219.37 19.41 1220.09 19.97C1220.84 20.5033 1222.25 21.09 1224.33 21.73C1225.18 21.9966 1225.82 22.21 1226.25 22.37C1226.7 22.5033 1227.3 22.73 1228.05 23.05C1228.82 23.3433 1229.41 23.6233 1229.81 23.89C1230.24 24.1566 1230.72 24.5166 1231.25 24.97C1231.78 25.4233 1232.18 25.89 1232.45 26.37C1232.74 26.85 1232.98 27.4366 1233.17 28.13C1233.38 28.7966 1233.49 29.53 1233.49 30.33C1233.49 32.9166 1232.54 34.97 1230.65 36.49C1228.78 38.01 1226.34 38.77 1223.33 38.77ZM1256.2 10.21L1256.2 15.49L1248.64 15.49L1248.64 38.21L1243.12 38.21L1243.12 15.49L1235.6 15.49L1235.6 10.21L1256.2 10.21ZM1266.4 32.93L1278.2 32.93L1278.2 38.21L1260.88 38.21L1260.88 10.21L1278 10.21L1278 15.49L1266.4 15.49L1266.4 21.45L1277 21.45L1277 26.65L1266.4 26.65L1266.4 32.93ZM1311.09 10.21L1311.09 38.21L1305.61 38.21L1305.61 20.05L1297.73 33.05L1297.09 33.05L1289.21 20.09L1289.21 38.21L1283.69 38.21L1283.69 10.21L1289.37 10.21L1297.41 23.45L1305.41 10.21L1311.09 10.21ZM1353.06 34.57C1350.24 37.37 1346.8 38.77 1342.74 38.77C1338.69 38.77 1335.25 37.37 1332.42 34.57C1329.62 31.7433 1328.22 28.29 1328.22 24.21C1328.22 20.13 1329.62 16.69 1332.42 13.89C1335.25 11.0633 1338.69 9.64997 1342.74 9.64997C1346.8 9.64997 1350.24 11.0633 1353.06 13.89C1355.89 16.69 1357.3 20.13 1357.3 24.21C1357.3 28.29 1355.89 31.7433 1353.06 34.57ZM1336.3 30.81C1338.04 32.5166 1340.18 33.37 1342.74 33.37C1345.3 33.37 1347.45 32.5166 1349.18 30.81C1350.92 29.0766 1351.78 26.8766 1351.78 24.21C1351.78 21.5433 1350.92 19.3433 1349.18 17.61C1347.45 15.8766 1345.3 15.01 1342.74 15.01C1340.18 15.01 1338.04 15.8766 1336.3 17.61C1334.57 19.3433 1333.7 21.5433 1333.7 24.21C1333.7 26.8766 1334.57 29.0766 1336.3 30.81ZM1379.5 15.49L1368.3 15.49L1368.3 22.13L1379.18 22.13L1379.18 27.41L1368.3 27.41L1368.3 38.21L1362.78 38.21L1362.78 10.21L1379.5 10.21L1379.5 15.49ZM1412.09 38.21L1406.45 28.49L1402.25 28.49L1402.25 38.21L1396.73 38.21L1396.73 10.21L1407.93 10.21C1410.51 10.21 1412.71 11.1166 1414.53 12.93C1416.34 14.7433 1417.25 16.93 1417.25 19.49C1417.25 21.2233 1416.75 22.8366 1415.77 24.33C1414.78 25.7966 1413.47 26.9033 1411.85 27.65L1418.05 38.21L1412.09 38.21ZM1402.25 15.37L1402.25 23.65L1407.93 23.65C1408.97 23.65 1409.86 23.25 1410.61 22.45C1411.35 21.6233 1411.73 20.6366 1411.73 19.49C1411.73 18.3433 1411.35 17.37 1410.61 16.57C1409.86 15.77 1408.97 15.37 1407.93 15.37L1402.25 15.37ZM1428.42 32.93L1440.22 32.93L1440.22 38.21L1422.9 38.21L1422.9 10.21L1440.02 10.21L1440.02 15.49L1428.42 15.49L1428.42 21.45L1439.02 21.45L1439.02 26.65L1428.42 26.65L1428.42 32.93ZM1458.79 38.77C1454.58 38.77 1451.1 37.37 1448.35 34.57C1445.61 31.77 1444.23 28.3166 1444.23 24.21C1444.23 20.0766 1445.61 16.6233 1448.35 13.85C1451.1 11.05 1454.58 9.64997 1458.79 9.64997C1461.33 9.64997 1463.66 10.25 1465.79 11.45C1467.95 12.6233 1469.63 14.2233 1470.83 16.25L1466.07 19.01C1465.38 17.7566 1464.39 16.7833 1463.11 16.09C1461.83 15.37 1460.39 15.01 1458.79 15.01C1456.07 15.01 1453.87 15.8633 1452.19 17.57C1450.54 19.2766 1449.71 21.49 1449.71 24.21C1449.71 26.9033 1450.54 29.1033 1452.19 30.81C1453.87 32.5166 1456.07 33.37 1458.79 33.37C1460.39 33.37 1461.83 33.0233 1463.11 32.33C1464.42 31.61 1465.41 30.6366 1466.07 29.41L1470.83 32.17C1469.63 34.1966 1467.97 35.81 1465.83 37.01C1463.7 38.1833 1461.35 38.77 1458.79 38.77ZM1499.11 34.57C1496.28 37.37 1492.84 38.77 1488.79 38.77C1484.74 38.77 1481.3 37.37 1478.47 34.57C1475.67 31.7433 1474.27 28.29 1474.27 24.21C1474.27 20.13 1475.67 16.69 1478.47 13.89C1481.3 11.0633 1484.74 9.64997 1488.79 9.64997C1492.84 9.64997 1496.28 11.0633 1499.11 13.89C1501.94 16.69 1503.35 20.13 1503.35 24.21C1503.35 28.29 1501.94 31.7433 1499.11 34.57ZM1482.35 30.81C1484.08 32.5166 1486.23 33.37 1488.79 33.37C1491.35 33.37 1493.5 32.5166 1495.23 30.81C1496.96 29.0766 1497.83 26.8766 1497.83 24.21C1497.83 21.5433 1496.96 19.3433 1495.23 17.61C1493.5 15.8766 1491.35 15.01 1488.79 15.01C1486.23 15.01 1484.08 15.8766 1482.35 17.61C1480.62 19.3433 1479.75 21.5433 1479.75 24.21C1479.75 26.8766 1480.62 29.0766 1482.35 30.81ZM1524.19 38.21L1518.55 28.49L1514.35 28.49L1514.35 38.21L1508.83 38.21L1508.83 10.21L1520.03 10.21C1522.62 10.21 1524.82 11.1166 1526.63 12.93C1528.44 14.7433 1529.35 16.93 1529.35 19.49C1529.35 21.2233 1528.86 22.8366 1527.87 24.33C1526.88 25.7966 1525.58 26.9033 1523.95 27.65L1530.15 38.21L1524.19 38.21ZM1514.35 15.37L1514.35 23.65L1520.03 23.65C1521.07 23.65 1521.96 23.25 1522.71 22.45C1523.46 21.6233 1523.83 20.6366 1523.83 19.49C1523.83 18.3433 1523.46 17.37 1522.71 16.57C1521.96 15.77 1521.07 15.37 1520.03 15.37L1514.35 15.37ZM1546.12 10.21C1549.96 10.21 1553.16 11.5566 1555.72 14.25C1558.31 16.9433 1559.6 20.2633 1559.6 24.21C1559.6 28.1566 1558.31 31.4766 1555.72 34.17C1553.16 36.8633 1549.96 38.21 1546.12 38.21L1535 38.21L1535 10.21L1546.12 10.21ZM1546.12 32.93C1548.55 32.93 1550.52 32.13 1552.04 30.53C1553.56 28.9033 1554.32 26.7966 1554.32 24.21C1554.32 21.6233 1553.56 19.53 1552.04 17.93C1550.52 16.3033 1548.55 15.49 1546.12 15.49L1540.52 15.49L1540.52 32.93L1546.12 32.93Z" fill="#54747E"/>
<path d="M252.508 23.69C254.961 25.1033 256.188 27.2366 256.188 30.09C256.188 32.4633 255.348 34.41 253.668 35.93C251.988 37.45 249.921 38.21 247.468 38.21L235.588 38.21L235.588 10.21L246.628 10.21C249.028 10.21 251.041 10.9566 252.668 12.45C254.321 13.9166 255.148 15.7966 255.148 18.09C255.148 20.41 254.268 22.2766 252.508 23.69ZM246.628 15.37L241.108 15.37L241.108 21.53L246.628 21.53C247.481 21.53 248.188 21.2366 248.748 20.65C249.334 20.0633 249.628 19.33 249.628 18.45C249.628 17.57 249.348 16.8366 248.788 16.25C248.228 15.6633 247.508 15.37 246.628 15.37ZM247.468 33.05C248.401 33.05 249.174 32.7433 249.788 32.13C250.401 31.49 250.708 30.69 250.708 29.73C250.708 28.7966 250.401 28.0233 249.788 27.41C249.174 26.77 248.401 26.45 247.468 26.45L241.108 26.45L241.108 33.05L247.468 33.05ZM271.651 38.77C268.531 38.77 265.971 37.89 263.971 36.13C261.971 34.37 260.971 32.01 260.971 29.05L260.971 10.21L266.451 10.21L266.451 28.61C266.451 30.0766 266.864 31.2366 267.691 32.09C268.544 32.9433 269.864 33.37 271.651 33.37C273.438 33.37 274.744 32.9433 275.571 32.09C276.424 31.2366 276.851 30.0766 276.851 28.61L276.851 10.21L282.371 10.21L282.371 29.05C282.371 32.01 281.371 34.37 279.371 36.13C277.371 37.89 274.798 38.77 271.651 38.77ZM288.944 10.21L294.464 10.21L294.464 38.21L288.944 38.21L288.944 10.21ZM306.767 32.93L317.447 32.93L317.447 38.21L301.247 38.21L301.247 10.21L306.767 10.21L306.767 32.93ZM333.303 10.21C337.143 10.21 340.343 11.5566 342.903 14.25C345.49 16.9433 346.783 20.2633 346.783 24.21C346.783 28.1566 345.49 31.4766 342.903 34.17C340.343 36.8633 337.143 38.21 333.303 38.21L322.183 38.21L322.183 10.21L333.303 10.21ZM333.303 32.93C335.73 32.93 337.703 32.13 339.223 30.53C340.743 28.9033 341.503 26.7966 341.503 24.21C341.503 21.6233 340.743 19.53 339.223 17.93C337.703 16.3033 335.73 15.49 333.303 15.49L327.703 15.49L327.703 32.93L333.303 32.93ZM352.299 10.21L357.819 10.21L357.819 38.21L352.299 38.21L352.299 10.21ZM380.802 10.21L386.322 10.21L386.322 38.21L382.122 38.21L370.122 21.09L370.122 38.21L364.602 38.21L364.602 10.21L368.802 10.21L380.802 27.29L380.802 10.21ZM420.596 23.17L420.596 25.33C420.596 29.33 419.316 32.57 416.756 35.05C414.196 37.53 410.889 38.77 406.836 38.77C402.516 38.77 398.929 37.37 396.076 34.57C393.249 31.7433 391.836 28.3033 391.836 24.25C391.836 20.17 393.236 16.7166 396.036 13.89C398.862 11.0633 402.356 9.64997 406.516 9.64997C409.129 9.64997 411.516 10.25 413.676 11.45C415.836 12.6233 417.516 14.1966 418.716 16.17L413.996 18.89C413.329 17.7433 412.316 16.81 410.956 16.09C409.622 15.37 408.129 15.01 406.476 15.01C403.809 15.01 401.609 15.89 399.876 17.65C398.169 19.3833 397.316 21.5833 397.316 24.25C397.316 26.89 398.182 29.0766 399.916 30.81C401.676 32.5166 403.996 33.37 406.876 33.37C409.009 33.37 410.769 32.9033 412.156 31.97C413.569 31.01 414.529 29.7033 415.036 28.05L406.556 28.05L406.556 23.17L420.596 23.17ZM448.842 10.21C452.682 10.21 455.882 11.5566 458.442 14.25C461.029 16.9433 462.322 20.2633 462.322 24.21C462.322 28.1566 461.029 31.4766 458.442 34.17C455.882 36.8633 452.682 38.21 448.842 38.21L437.722 38.21L437.722 10.21L448.842 10.21ZM448.842 32.93C451.269 32.93 453.242 32.13 454.762 30.53C456.282 28.9033 457.042 26.7966 457.042 24.21C457.042 21.6233 456.282 19.53 454.762 17.93C453.242 16.3033 451.269 15.49 448.842 15.49L443.242 15.49L443.242 32.93L448.842 32.93ZM484.822 38.21L483.142 33.17L471.982 33.17L470.302 38.21L464.342 38.21L474.142 10.21L480.982 10.21L490.822 38.21L484.822 38.21ZM473.742 28.01L481.422 28.01L477.582 16.57L473.742 28.01ZM511.63 10.21L511.63 15.49L504.07 15.49L504.07 38.21L498.55 38.21L498.55 15.49L491.03 15.49L491.03 10.21L511.63 10.21ZM532.28 38.21L530.6 33.17L519.44 33.17L517.76 38.21L511.8 38.21L521.6 10.21L528.44 10.21L538.28 38.21L532.28 38.21ZM521.2 28.01L528.88 28.01L525.04 16.57L521.2 28.01Z" fill="#54747E"/>
<defs>
<clipPath id="clip0_844_6246">
<rect width="98.238" height="98.3117" fill="white" transform="translate(2477.5 505.811)"/>
</clipPath>
<clipPath id="clip1_844_6246">
<rect width="93.4193" height="98.3117" fill="white" transform="translate(2124.41 505.811)"/>
</clipPath>
<clipPath id="clip2_844_6246">
<rect width="91.1443" height="98.3117" fill="white" transform="translate(2302.09 505.811)"/>
</clipPath>
<clipPath id="clip3_844_6246">
<rect width="98.3117" height="98.3117" fill="white" transform="translate(2115.98 834.453)"/>
</clipPath>
<clipPath id="clip4_844_6246">
<rect width="89.885" height="89.885" fill="white" transform="translate(1189.04 264.245)"/>
</clipPath>
<clipPath id="clip5_844_6246">
<rect width="67.9442" height="54.5839" fill="white" transform="translate(299.761 184.215) rotate(-1.20361)"/>
</clipPath>
<clipPath id="clip6_844_6246">
<rect width="67.9442" height="54.5839" fill="white" transform="translate(239.629 207.344) rotate(-1.20361)"/>
</clipPath>
<clipPath id="clip7_844_6246">
<rect width="31.4455" height="45.883" fill="white" transform="translate(484.002 850.303)"/>
</clipPath>
<clipPath id="clip8_844_6246">
<rect width="73.0315" height="101.121" fill="white" transform="translate(239.629 803.555)"/>
</clipPath>
</defs>
</svg>
