<svg width="802" height="312" viewBox="0 0 802 312" fill="none" xmlns="http://www.w3.org/2000/svg">
<path d="M572.388 82.0054H741.998C775.135 82.0054 801.998 108.868 801.998 142.005V251.616C801.998 284.753 775.135 311.616 741.998 311.616H632.388C599.251 311.616 572.388 284.753 572.388 251.616V82.0054Z" fill="#001D23"/>
<path opacity="0.08" d="M754.436 196.811L619.95 196.811" stroke="white" stroke-width="1.5"/>
<g clip-path="url(#clip0_830_14827)">
<path d="M727.898 171.526L727.408 167.699L731.235 168.746" stroke="white" stroke-width="2" stroke-miterlimit="10" stroke-linecap="square"/>
<path d="M728.364 168.153C729.732 170.811 731.934 172.927 734.619 174.162C737.304 175.397 740.319 175.681 743.181 174.969C746.043 174.256 748.589 172.587 750.412 170.23C752.234 167.872 753.23 164.96 753.239 161.959" stroke="white" stroke-width="2" stroke-miterlimit="10"/>
<path d="M751.792 152.392L752.282 156.219L748.455 155.172" stroke="white" stroke-width="2" stroke-miterlimit="10" stroke-linecap="square"/>
<path d="M751.325 155.765C749.958 153.106 747.756 150.991 745.071 149.756C742.385 148.52 739.371 148.237 736.509 148.949C733.646 149.662 731.101 151.33 729.278 153.688C727.455 156.046 726.46 158.958 726.451 161.959" stroke="white" stroke-width="2" stroke-miterlimit="10"/>
<path d="M740.254 162.572C740.133 162.653 739.991 162.696 739.845 162.696C739.65 162.696 739.462 162.618 739.324 162.48C739.186 162.342 739.108 162.154 739.108 161.959C739.108 161.813 739.151 161.671 739.232 161.549C739.313 161.428 739.428 161.334 739.563 161.278C739.698 161.222 739.846 161.208 739.989 161.236C740.132 161.265 740.263 161.335 740.366 161.438C740.469 161.541 740.539 161.672 740.568 161.815C740.596 161.958 740.582 162.106 740.526 162.241L741.613 162.691L740.526 162.241C740.47 162.375 740.376 162.491 740.254 162.572Z" stroke="#00CC8F" stroke-width="2.35305" stroke-miterlimit="10" stroke-linecap="square"/>
<path d="M745.628 161.977C745.63 161.574 745.583 161.171 745.489 160.778L747.462 159.368L746 156.943L743.721 157.866C743.103 157.321 742.37 156.912 741.573 156.668L741.273 154.306H738.35L738.051 156.668C737.253 156.912 736.52 157.321 735.903 157.866L733.652 156.914L732.191 159.333L734.156 160.743C733.981 161.533 733.981 162.35 734.156 163.14L732.191 164.551L733.652 166.976L735.932 166.045C736.549 166.593 737.282 167.004 738.08 167.251L738.38 169.613H741.302L741.602 167.251C742.4 167.004 743.133 166.593 743.75 166.045L746.037 166.976L747.498 164.551L745.533 163.14C745.62 162.746 745.664 162.345 745.664 161.942L745.628 161.977Z" stroke="white" stroke-width="2" stroke-miterlimit="10" stroke-linecap="square"/>
</g>
<g clip-path="url(#clip1_830_14827)">
<path d="M636.043 169.883L638.099 168.954L642.506 166.976L644.434 163.291" stroke="#00CC8F" stroke-width="2.35305" stroke-miterlimit="10"/>
<path d="M646.051 162.898C646.687 162.104 646.79 161.13 646.282 160.723C645.774 160.317 644.846 160.631 644.211 161.426C643.575 162.221 643.472 163.194 643.98 163.601C644.488 164.007 645.415 163.693 646.051 162.898Z" stroke="#00CC8F" stroke-width="2.35305" stroke-miterlimit="10" stroke-linecap="square"/>
<path d="M645.105 155.9L643.055 154.964L638.656 152.972L634.614 153.964" stroke="#00CC8F" stroke-width="2.35305" stroke-miterlimit="10"/>
<path d="M633.353 155.419C634.369 155.371 635.168 154.804 635.137 154.154C635.106 153.504 634.257 153.017 633.24 153.065C632.224 153.114 631.425 153.68 631.456 154.33C631.487 154.98 632.336 155.468 633.353 155.419Z" stroke="#00CC8F" stroke-width="2.35305" stroke-miterlimit="10" stroke-linecap="square"/>
<path d="M627.095 156.328V158.585V163.412L629.666 166.683" stroke="#00CC8F" stroke-width="2.35305" stroke-miterlimit="10"/>
<path d="M631.289 169.417C631.869 169.12 631.962 168.146 631.498 167.24C631.034 166.334 630.189 165.84 629.61 166.137C629.03 166.434 628.937 167.409 629.401 168.314C629.865 169.22 630.71 169.714 631.289 169.417Z" stroke="#00CC8F" stroke-width="2.35305" stroke-miterlimit="10" stroke-linecap="square"/>
<path d="M623.124 154.207L636.042 160.02L648.968 154.207" stroke="white" stroke-width="2" stroke-miterlimit="10"/>
<path d="M636.05 160.021V175.532" stroke="white" stroke-width="2" stroke-miterlimit="10"/>
<path d="M648.968 169.711L636.042 175.531L623.124 169.711V154.207L636.042 148.394L648.968 154.207V169.711Z" stroke="white" stroke-width="2" stroke-miterlimit="10" stroke-linecap="square"/>
</g>
<g clip-path="url(#clip2_830_14827)">
<path d="M699.958 175.554L697.034 172.63" stroke="white" stroke-width="2" stroke-miterlimit="10"/>
<path d="M680.227 161.145H684.172L686.144 157.383L688.774 164.907L690.746 161.145H694.691" stroke="#00CC8F" stroke-width="2" stroke-miterlimit="10"/>
<path d="M687.587 173.305C694.419 173.305 699.957 167.767 699.957 160.935C699.957 154.103 694.419 148.565 687.587 148.565C680.756 148.565 675.217 154.103 675.217 160.935C675.217 167.767 680.756 173.305 687.587 173.305Z" stroke="white" stroke-width="2" stroke-miterlimit="10"/>
</g>
<path d="M626.178 221.6V223.184H628.434V230H630.09V223.184H632.358V221.6H626.178ZM636.307 223.832C635.491 223.832 634.891 224.108 634.519 224.672V221.6H632.971V230H634.519V226.76C634.519 225.764 635.035 225.272 635.839 225.272C636.559 225.272 637.027 225.704 637.027 226.508V230H638.575V226.316C638.575 225.536 638.359 224.936 637.927 224.492C637.507 224.048 636.967 223.832 636.307 223.832ZM640.424 223.28C640.952 223.28 641.384 222.848 641.384 222.332C641.384 221.816 640.952 221.372 640.424 221.372C639.908 221.372 639.476 221.816 639.476 222.332C639.476 222.848 639.908 223.28 640.424 223.28ZM641.204 230V224H639.656V230H641.204ZM643.929 224H642.381V230H643.929V227.132C643.929 226.556 644.109 226.148 644.481 225.896C644.853 225.644 645.285 225.548 645.753 225.608V223.88C644.937 223.88 644.217 224.264 643.929 225.032V224ZM650.744 224.708C650.288 224.12 649.64 223.832 648.8 223.832C647.996 223.832 647.3 224.144 646.724 224.756C646.16 225.368 645.872 226.112 645.872 227C645.872 227.888 646.16 228.644 646.724 229.256C647.3 229.868 647.996 230.168 648.8 230.168C649.64 230.168 650.288 229.88 650.744 229.292V230H652.292V221.6H650.744V224.708ZM647.888 228.224C647.576 227.9 647.42 227.492 647.42 227C647.42 226.508 647.576 226.1 647.888 225.788C648.212 225.464 648.608 225.308 649.088 225.308C649.568 225.308 649.964 225.464 650.276 225.788C650.588 226.1 650.744 226.508 650.744 227C650.744 227.492 650.588 227.9 650.276 228.224C649.964 228.536 649.568 228.692 649.088 228.692C648.608 228.692 648.212 228.536 647.888 228.224ZM658.04 227.12V225.632H653.54V227.12H658.04ZM659.358 221.6V230H661.014V227.24H662.49C663.294 227.24 663.978 226.964 664.53 226.424C665.082 225.884 665.358 225.212 665.358 224.42C665.358 223.628 665.082 222.956 664.53 222.416C663.978 221.876 663.294 221.6 662.49 221.6H659.358ZM661.014 225.692V223.148H662.49C663.198 223.148 663.714 223.688 663.714 224.42C663.714 225.14 663.198 225.692 662.49 225.692H661.014ZM670.286 224.708C669.818 224.12 669.17 223.832 668.33 223.832C667.526 223.832 666.842 224.144 666.266 224.756C665.702 225.368 665.414 226.112 665.414 227C665.414 227.888 665.702 228.644 666.266 229.256C666.842 229.868 667.526 230.168 668.33 230.168C669.17 230.168 669.818 229.88 670.286 229.292V230H671.834V224H670.286V224.708ZM667.43 228.224C667.118 227.9 666.962 227.492 666.962 227C666.962 226.508 667.118 226.1 667.43 225.788C667.742 225.464 668.138 225.308 668.618 225.308C669.098 225.308 669.494 225.464 669.806 225.788C670.13 226.1 670.286 226.508 670.286 227C670.286 227.492 670.13 227.9 669.806 228.224C669.494 228.536 669.098 228.692 668.618 228.692C668.138 228.692 667.742 228.536 667.43 228.224ZM674.546 224H672.998V230H674.546V227.132C674.546 226.556 674.726 226.148 675.098 225.896C675.47 225.644 675.902 225.548 676.37 225.608V223.88C675.554 223.88 674.834 224.264 674.546 225.032V224ZM680.631 224H679.275V222.32L677.727 222.788V224H676.683V225.488H677.727V227.984C677.727 229.628 678.507 230.24 680.631 230V228.596C679.743 228.644 679.275 228.632 679.275 227.984V225.488H680.631V224ZM684.191 228.032L682.631 224H680.939L683.399 229.808C683.111 230.624 682.655 230.972 681.827 230.96V232.4C683.363 232.484 684.371 231.728 684.995 230L687.179 224H685.523L684.191 228.032ZM697.708 230L694.756 221.6H692.704L689.764 230H691.552L692.056 228.488H695.404L695.908 230H697.708ZM693.736 223.508L694.888 226.94H692.584L693.736 223.508ZM701.704 223.832C700.864 223.832 700.216 224.12 699.76 224.708V224H698.212V232.4H699.76V229.292C700.216 229.88 700.864 230.168 701.704 230.168C702.508 230.168 703.204 229.868 703.768 229.256C704.344 228.644 704.632 227.888 704.632 227C704.632 226.112 704.344 225.368 703.768 224.756C703.204 224.144 702.508 223.832 701.704 223.832ZM700.228 228.224C699.916 227.9 699.76 227.492 699.76 227C699.76 226.508 699.916 226.1 700.228 225.788C700.54 225.464 700.936 225.308 701.416 225.308C701.896 225.308 702.292 225.464 702.604 225.788C702.928 226.1 703.084 226.508 703.084 227C703.084 227.492 702.928 227.9 702.604 228.224C702.292 228.536 701.896 228.692 701.416 228.692C700.936 228.692 700.54 228.536 700.228 228.224ZM708.975 223.832C708.135 223.832 707.487 224.12 707.031 224.708V224H705.483V232.4H707.031V229.292C707.487 229.88 708.135 230.168 708.975 230.168C709.779 230.168 710.475 229.868 711.039 229.256C711.615 228.644 711.903 227.888 711.903 227C711.903 226.112 711.615 225.368 711.039 224.756C710.475 224.144 709.779 223.832 708.975 223.832ZM707.499 228.224C707.187 227.9 707.031 227.492 707.031 227C707.031 226.508 707.187 226.1 707.499 225.788C707.811 225.464 708.207 225.308 708.687 225.308C709.167 225.308 709.563 225.464 709.875 225.788C710.199 226.1 710.355 226.508 710.355 227C710.355 227.492 710.199 227.9 709.875 228.224C709.563 228.536 709.167 228.692 708.687 228.692C708.207 228.692 707.811 228.536 707.499 228.224ZM714.303 230V221.24H712.755V230H714.303ZM716.248 223.28C716.776 223.28 717.208 222.848 717.208 222.332C717.208 221.816 716.776 221.372 716.248 221.372C715.732 221.372 715.3 221.816 715.3 222.332C715.3 222.848 715.732 223.28 716.248 223.28ZM717.028 230V224H715.48V230H717.028ZM721.061 230.168C722.225 230.168 723.245 229.556 723.773 228.608L722.429 227.84C722.189 228.332 721.673 228.632 721.049 228.632C720.581 228.632 720.197 228.476 719.897 228.176C719.597 227.864 719.441 227.468 719.441 227C719.441 226.04 720.125 225.356 721.049 225.356C721.661 225.356 722.177 225.668 722.417 226.16L723.749 225.38C723.257 224.432 722.225 223.832 721.061 223.832C720.161 223.832 719.405 224.132 718.793 224.744C718.193 225.356 717.893 226.1 717.893 227C717.893 227.9 718.193 228.644 718.793 229.256C719.405 229.868 720.161 230.168 721.061 230.168ZM728.818 224.708C728.35 224.12 727.702 223.832 726.862 223.832C726.058 223.832 725.374 224.144 724.798 224.756C724.234 225.368 723.946 226.112 723.946 227C723.946 227.888 724.234 228.644 724.798 229.256C725.374 229.868 726.058 230.168 726.862 230.168C727.702 230.168 728.35 229.88 728.818 229.292V230H730.366V224H728.818V224.708ZM725.962 228.224C725.65 227.9 725.494 227.492 725.494 227C725.494 226.508 725.65 226.1 725.962 225.788C726.274 225.464 726.67 225.308 727.15 225.308C727.63 225.308 728.026 225.464 728.338 225.788C728.662 226.1 728.818 226.508 728.818 227C728.818 227.492 728.662 227.9 728.338 228.224C728.026 228.536 727.63 228.692 727.15 228.692C726.67 228.692 726.274 228.536 725.962 228.224ZM734.961 224H733.605V222.32L732.057 222.788V224H731.013V225.488H732.057V227.984C732.057 229.628 732.837 230.24 734.961 230V228.596C734.073 228.644 733.605 228.632 733.605 227.984V225.488H734.961V224ZM736.581 223.28C737.109 223.28 737.541 222.848 737.541 222.332C737.541 221.816 737.109 221.372 736.581 221.372C736.065 221.372 735.633 221.816 735.633 222.332C735.633 222.848 736.065 223.28 736.581 223.28ZM737.361 230V224H735.813V230H737.361ZM743.65 229.256C744.262 228.644 744.574 227.888 744.574 227C744.574 226.112 744.262 225.368 743.65 224.756C743.038 224.144 742.282 223.832 741.394 223.832C740.506 223.832 739.75 224.144 739.138 224.756C738.526 225.368 738.226 226.112 738.226 227C738.226 227.888 738.526 228.644 739.138 229.256C739.75 229.868 740.506 230.168 741.394 230.168C742.282 230.168 743.038 229.868 743.65 229.256ZM740.23 228.188C739.93 227.876 739.774 227.48 739.774 227C739.774 226.52 739.93 226.124 740.23 225.812C740.542 225.5 740.926 225.344 741.394 225.344C741.862 225.344 742.246 225.5 742.558 225.812C742.87 226.124 743.026 226.52 743.026 227C743.026 227.48 742.87 227.876 742.558 228.188C742.246 228.5 741.862 228.656 741.394 228.656C740.926 228.656 740.542 228.5 740.23 228.188ZM748.759 223.832C747.943 223.832 747.343 224.108 746.971 224.672V224H745.423V230H746.971V226.76C746.971 225.764 747.487 225.272 748.291 225.272C749.011 225.272 749.479 225.704 749.479 226.508V230H751.027V226.316C751.027 225.536 750.811 224.936 750.379 224.492C749.959 224.048 749.419 223.832 748.759 223.832ZM753.537 225.704C753.537 225.404 753.837 225.212 754.233 225.212C754.677 225.212 755.001 225.416 755.193 225.824L756.513 225.104C756.045 224.288 755.205 223.832 754.233 223.832C753.585 223.832 753.045 224 752.601 224.348C752.169 224.684 751.953 225.152 751.953 225.74C751.953 226.988 753.069 227.36 753.957 227.588C754.569 227.744 755.049 227.924 755.049 228.248C755.049 228.596 754.773 228.764 754.221 228.764C753.609 228.764 753.225 228.5 753.045 227.984L751.701 228.74C752.145 229.688 752.985 230.168 754.221 230.168C754.905 230.168 755.481 230 755.937 229.676C756.405 229.34 756.633 228.86 756.633 228.248C756.645 226.964 755.505 226.544 754.629 226.364C754.017 226.208 753.537 226.028 753.537 225.704Z" fill="#00C8B5"/>
<path d="M636.751 129.644C637.279 129.224 637.543 128.66 637.543 127.964C637.543 127.28 637.291 126.716 636.799 126.272C636.307 125.828 635.707 125.6 634.987 125.6H631.675V134H635.239C635.971 134 636.595 133.772 637.099 133.316C637.603 132.86 637.855 132.272 637.855 131.564C637.855 130.712 637.483 130.064 636.751 129.644ZM634.987 127.148C635.515 127.148 635.887 127.544 635.887 128.072C635.887 128.6 635.503 128.996 634.987 128.996H633.331V127.148H634.987ZM633.331 132.452V130.472H635.239C635.803 130.472 636.211 130.892 636.211 131.456C636.211 132.032 635.803 132.452 635.239 132.452H633.331ZM640.176 128H638.628V134H640.176V131.132C640.176 130.556 640.356 130.148 640.728 129.896C641.1 129.644 641.532 129.548 642 129.608V127.88C641.184 127.88 640.464 128.264 640.176 129.032V128ZM647.003 128.708C646.535 128.12 645.887 127.832 645.047 127.832C644.243 127.832 643.559 128.144 642.983 128.756C642.419 129.368 642.131 130.112 642.131 131C642.131 131.888 642.419 132.644 642.983 133.256C643.559 133.868 644.243 134.168 645.047 134.168C645.887 134.168 646.535 133.88 647.003 133.292V134H648.551V128H647.003V128.708ZM644.147 132.224C643.835 131.9 643.679 131.492 643.679 131C643.679 130.508 643.835 130.1 644.147 129.788C644.459 129.464 644.855 129.308 645.335 129.308C645.815 129.308 646.211 129.464 646.523 129.788C646.847 130.1 647.003 130.508 647.003 131C647.003 131.492 646.847 131.9 646.523 132.224C646.211 132.536 645.815 132.692 645.335 132.692C644.855 132.692 644.459 132.536 644.147 132.224ZM652.571 134.168C653.735 134.168 654.755 133.556 655.283 132.608L653.939 131.84C653.699 132.332 653.183 132.632 652.559 132.632C652.091 132.632 651.707 132.476 651.407 132.176C651.107 131.864 650.951 131.468 650.951 131C650.951 130.04 651.635 129.356 652.559 129.356C653.171 129.356 653.687 129.668 653.927 130.16L655.259 129.38C654.767 128.432 653.735 127.832 652.571 127.832C651.671 127.832 650.915 128.132 650.303 128.744C649.703 129.356 649.403 130.1 649.403 131C649.403 131.9 649.703 132.644 650.303 133.256C650.915 133.868 651.671 134.168 652.571 134.168ZM659.293 128H657.937V126.32L656.389 126.788V128H655.345V129.488H656.389V131.984C656.389 133.628 657.169 134.24 659.293 134V132.596C658.405 132.644 657.937 132.632 657.937 131.984V129.488H659.293V128ZM661.693 134V125.24H660.145V134H661.693ZM668.702 131.636C668.738 131.408 668.762 131.204 668.762 131C668.762 130.1 668.474 129.356 667.898 128.744C667.334 128.132 666.602 127.832 665.726 127.832C664.802 127.832 664.034 128.132 663.446 128.744C662.858 129.344 662.558 130.1 662.558 131C662.558 131.912 662.858 132.668 663.458 133.268C664.058 133.868 664.85 134.168 665.846 134.168C666.998 134.168 667.874 133.736 668.462 132.884L667.214 132.164C666.914 132.56 666.458 132.764 665.87 132.764C664.946 132.764 664.382 132.392 664.178 131.636H668.702ZM664.154 130.436C664.334 129.668 664.898 129.224 665.726 129.224C666.434 129.224 667.034 129.62 667.214 130.436H664.154ZM672.858 128H671.502V126.32L669.954 126.788V128H668.91V129.488H669.954V131.984C669.954 133.628 670.734 134.24 672.858 134V132.596C671.97 132.644 671.502 132.632 671.502 131.984V129.488H672.858V128ZM683.836 134L680.884 125.6H678.832L675.892 134H677.68L678.184 132.488H681.532L682.036 134H683.836ZM679.864 127.508L681.016 130.94H678.712L679.864 127.508ZM687.831 127.832C686.991 127.832 686.343 128.12 685.887 128.708V128H684.339V136.4H685.887V133.292C686.343 133.88 686.991 134.168 687.831 134.168C688.635 134.168 689.331 133.868 689.895 133.256C690.471 132.644 690.759 131.888 690.759 131C690.759 130.112 690.471 129.368 689.895 128.756C689.331 128.144 688.635 127.832 687.831 127.832ZM686.355 132.224C686.043 131.9 685.887 131.492 685.887 131C685.887 130.508 686.043 130.1 686.355 129.788C686.667 129.464 687.063 129.308 687.543 129.308C688.023 129.308 688.419 129.464 688.731 129.788C689.055 130.1 689.211 130.508 689.211 131C689.211 131.492 689.055 131.9 688.731 132.224C688.419 132.536 688.023 132.692 687.543 132.692C687.063 132.692 686.667 132.536 686.355 132.224ZM695.103 127.832C694.263 127.832 693.615 128.12 693.159 128.708V128H691.611V136.4H693.159V133.292C693.615 133.88 694.263 134.168 695.103 134.168C695.907 134.168 696.603 133.868 697.167 133.256C697.743 132.644 698.031 131.888 698.031 131C698.031 130.112 697.743 129.368 697.167 128.756C696.603 128.144 695.907 127.832 695.103 127.832ZM693.627 132.224C693.315 131.9 693.159 131.492 693.159 131C693.159 130.508 693.315 130.1 693.627 129.788C693.939 129.464 694.335 129.308 694.815 129.308C695.295 129.308 695.691 129.464 696.003 129.788C696.327 130.1 696.483 130.508 696.483 131C696.483 131.492 696.327 131.9 696.003 132.224C695.691 132.536 695.295 132.692 694.815 132.692C694.335 132.692 693.939 132.536 693.627 132.224ZM700.431 134V125.24H698.883V134H700.431ZM702.376 127.28C702.904 127.28 703.336 126.848 703.336 126.332C703.336 125.816 702.904 125.372 702.376 125.372C701.86 125.372 701.428 125.816 701.428 126.332C701.428 126.848 701.86 127.28 702.376 127.28ZM703.156 134V128H701.608V134H703.156ZM707.188 134.168C708.352 134.168 709.372 133.556 709.9 132.608L708.556 131.84C708.316 132.332 707.8 132.632 707.176 132.632C706.708 132.632 706.324 132.476 706.024 132.176C705.724 131.864 705.568 131.468 705.568 131C705.568 130.04 706.252 129.356 707.176 129.356C707.788 129.356 708.304 129.668 708.544 130.16L709.876 129.38C709.384 128.432 708.352 127.832 707.188 127.832C706.288 127.832 705.532 128.132 704.92 128.744C704.32 129.356 704.02 130.1 704.02 131C704.02 131.9 704.32 132.644 704.92 133.256C705.532 133.868 706.288 134.168 707.188 134.168ZM714.945 128.708C714.477 128.12 713.829 127.832 712.989 127.832C712.185 127.832 711.501 128.144 710.925 128.756C710.361 129.368 710.073 130.112 710.073 131C710.073 131.888 710.361 132.644 710.925 133.256C711.501 133.868 712.185 134.168 712.989 134.168C713.829 134.168 714.477 133.88 714.945 133.292V134H716.493V128H714.945V128.708ZM712.089 132.224C711.777 131.9 711.621 131.492 711.621 131C711.621 130.508 711.777 130.1 712.089 129.788C712.401 129.464 712.797 129.308 713.277 129.308C713.757 129.308 714.153 129.464 714.465 129.788C714.789 130.1 714.945 130.508 714.945 131C714.945 131.492 714.789 131.9 714.465 132.224C714.153 132.536 713.757 132.692 713.277 132.692C712.797 132.692 712.401 132.536 712.089 132.224ZM721.089 128H719.733V126.32L718.185 126.788V128H717.141V129.488H718.185V131.984C718.185 133.628 718.965 134.24 721.089 134V132.596C720.201 132.644 719.733 132.632 719.733 131.984V129.488H721.089V128ZM722.708 127.28C723.236 127.28 723.668 126.848 723.668 126.332C723.668 125.816 723.236 125.372 722.708 125.372C722.192 125.372 721.76 125.816 721.76 126.332C721.76 126.848 722.192 127.28 722.708 127.28ZM723.488 134V128H721.94V134H723.488ZM729.777 133.256C730.389 132.644 730.701 131.888 730.701 131C730.701 130.112 730.389 129.368 729.777 128.756C729.165 128.144 728.409 127.832 727.521 127.832C726.633 127.832 725.877 128.144 725.265 128.756C724.653 129.368 724.353 130.112 724.353 131C724.353 131.888 724.653 132.644 725.265 133.256C725.877 133.868 726.633 134.168 727.521 134.168C728.409 134.168 729.165 133.868 729.777 133.256ZM726.357 132.188C726.057 131.876 725.901 131.48 725.901 131C725.901 130.52 726.057 130.124 726.357 129.812C726.669 129.5 727.053 129.344 727.521 129.344C727.989 129.344 728.373 129.5 728.685 129.812C728.997 130.124 729.153 130.52 729.153 131C729.153 131.48 728.997 131.876 728.685 132.188C728.373 132.5 727.989 132.656 727.521 132.656C727.053 132.656 726.669 132.5 726.357 132.188ZM734.886 127.832C734.07 127.832 733.47 128.108 733.098 128.672V128H731.55V134H733.098V130.76C733.098 129.764 733.614 129.272 734.418 129.272C735.138 129.272 735.606 129.704 735.606 130.508V134H737.154V130.316C737.154 129.536 736.938 128.936 736.506 128.492C736.086 128.048 735.546 127.832 734.886 127.832ZM739.664 129.704C739.664 129.404 739.964 129.212 740.36 129.212C740.804 129.212 741.128 129.416 741.32 129.824L742.64 129.104C742.172 128.288 741.332 127.832 740.36 127.832C739.712 127.832 739.172 128 738.728 128.348C738.296 128.684 738.08 129.152 738.08 129.74C738.08 130.988 739.196 131.36 740.084 131.588C740.696 131.744 741.176 131.924 741.176 132.248C741.176 132.596 740.9 132.764 740.348 132.764C739.736 132.764 739.352 132.5 739.172 131.984L737.828 132.74C738.272 133.688 739.112 134.168 740.348 134.168C741.032 134.168 741.608 134 742.064 133.676C742.532 133.34 742.76 132.86 742.76 132.248C742.772 130.964 741.632 130.544 740.756 130.364C740.144 130.208 739.664 130.028 739.664 129.704Z" fill="#00CC8F"/>
<g clip-path="url(#clip3_830_14827)">
<path d="M745.39 257.186H736.421V263.464H745.39V257.186Z" stroke="white" stroke-width="2" stroke-miterlimit="10" stroke-linecap="square"/>
<path d="M738.214 257.186V254.495C738.214 253.781 738.498 253.097 739.002 252.592C739.507 252.088 740.191 251.804 740.905 251.804V251.804C741.619 251.804 742.303 252.088 742.808 252.592C743.312 253.097 743.596 253.781 743.596 254.495V257.186" stroke="white" stroke-width="2" stroke-miterlimit="10" stroke-linecap="square"/>
<path d="M751.668 259.876C751.668 262.731 750.534 265.469 748.516 267.487C746.497 269.506 743.76 270.639 740.905 270.639C738.051 270.639 735.313 269.506 733.294 267.487C731.276 265.469 730.142 262.731 730.142 259.876V247.32L740.905 244.629L751.668 247.32V259.876Z" stroke="white" stroke-width="2" stroke-miterlimit="10" stroke-linecap="square"/>
</g>
<g clip-path="url(#clip4_830_14827)">
<path d="M687.603 253.418V255.511" stroke="white" stroke-width="2" stroke-miterlimit="10" stroke-linecap="square"/>
<path d="M692.386 252.522V250.429L687.602 247.438L682.819 250.468V252.522" stroke="white" stroke-width="2" stroke-miterlimit="10" stroke-linecap="square"/>
<path d="M682.819 250.429L687.602 253.418L692.386 250.429" stroke="white" stroke-width="2" stroke-miterlimit="10"/>
<path d="M679.231 258.65V264.032L674.448 261.042V255.7L679.231 252.67L684.015 255.661L679.231 258.65ZM679.231 258.65L674.448 255.7" stroke="white" stroke-width="2" stroke-miterlimit="10"/>
<path d="M695.974 258.65V264.032L700.757 261.042V255.661L695.974 252.67L691.19 255.7L695.974 258.65ZM695.974 258.65L700.757 255.661" stroke="white" stroke-width="2" stroke-miterlimit="10"/>
<path d="M687.603 263.882V269.264" stroke="white" stroke-width="2" stroke-miterlimit="10"/>
<path d="M692.386 260.893L687.602 257.902L682.819 260.932V266.274L687.602 269.264L692.386 266.274V260.893Z" stroke="white" stroke-width="2" stroke-miterlimit="10"/>
<path d="M682.819 260.893L687.602 263.882L692.386 260.893" stroke="white" stroke-width="2" stroke-miterlimit="10"/>
<path d="M687.603 263.882V269.264" stroke="white" stroke-width="2" stroke-miterlimit="10"/>
</g>
<g clip-path="url(#clip5_830_14827)">
<path d="M645.063 257.904V250.728H639.682H628.022H623.537C622.051 250.728 620.847 249.524 620.847 248.038V266.873C620.847 268.854 622.453 270.46 624.434 270.46H645.063V263.285" stroke="white" stroke-width="2" stroke-miterlimit="10" stroke-linecap="square"/>
<path d="M647.754 263.285H641.476C639.989 263.285 638.785 262.08 638.785 260.594C638.785 259.108 639.989 257.903 641.476 257.903H647.754V263.285Z" stroke="white" stroke-width="2" stroke-miterlimit="10" stroke-linecap="square"/>
<path d="M639.682 247.141V245.347H623.537C622.051 245.347 620.847 246.551 620.847 248.037C620.847 249.524 622.051 250.728 623.537 250.728" stroke="white" stroke-width="2" stroke-miterlimit="10" stroke-linecap="square"/>
</g>
<circle cx="687.193" cy="90.2056" r="24.6011" fill="#00CC8F"/>
<path d="M698.551 95.68L692.803 92.3613V88.0511L698.551 84.7324L699.303 86.0363L694.308 88.9204V91.492L699.303 94.3761L698.551 95.68Z" fill="white"/>
<path d="M676.464 95.68L675.712 94.3761L680.707 91.492V88.9204L675.712 86.0363L676.464 84.7324L682.212 88.0511V92.3613L676.464 95.68Z" fill="white"/>
<path d="M692.07 86.6978L688.338 84.5427V77.9053H689.844V83.6735L692.07 84.9576L697.066 82.0736L697.818 83.3774L692.07 86.6978Z" fill="white"/>
<path d="M686.797 102.506H685.291V96.7382L683.061 95.4524L678.069 98.3364L677.321 97.0326L683.069 93.7139L686.797 95.8722V102.506Z" fill="white"/>
<path d="M683.061 86.6978L677.321 83.3791L678.073 82.0752L683.061 84.9576L685.291 83.6735V77.9053H686.797V84.5427L683.061 86.6978Z" fill="white"/>
<path d="M689.844 102.506H688.338V95.8722L692.07 93.7139L697.819 97.0326L697.067 98.3364L692.07 95.4524L689.844 96.7382V102.506Z" fill="white"/>
<path d="M286.195 82.0054H455.806C488.943 82.0054 515.806 108.868 515.806 142.005V251.616C515.806 284.753 488.943 311.616 455.806 311.616H346.195C313.058 311.616 286.195 284.753 286.195 251.616V82.0054Z" fill="#006058"/>
<path d="M328.837 77.6045C328.837 70.9771 334.21 65.6045 340.837 65.6045H461.164C467.791 65.6045 473.164 70.9771 473.164 77.6045V114.807H340.837C334.21 114.807 328.837 109.434 328.837 102.807V77.6045Z" fill="#003E42"/>
<g clip-path="url(#clip6_830_14827)">
<path d="M391.16 81.4585V98.9526C391.16 100.811 395.533 102.233 401 102.233C406.467 102.233 410.841 100.811 410.841 98.9526V81.4585" stroke="#00C8B5" stroke-width="2" stroke-miterlimit="10" stroke-linecap="round" stroke-linejoin="round"/>
<path d="M401 84.7385C406.435 84.7385 410.841 83.2699 410.841 81.4584C410.841 79.6468 406.435 78.1782 401 78.1782C395.565 78.1782 391.16 79.6468 391.16 81.4584C391.16 83.2699 395.565 84.7385 401 84.7385Z" stroke="#00C8B5" stroke-width="2" stroke-miterlimit="10" stroke-linecap="round" stroke-linejoin="round"/>
<path d="M410.841 90.2056C410.841 92.0643 406.467 93.4857 401 93.4857C395.533 93.4857 391.16 92.0643 391.16 90.2056" stroke="#00C8B5" stroke-width="2" stroke-miterlimit="10" stroke-linecap="round" stroke-linejoin="round"/>
</g>
<path d="M447.295 87.5951C446.966 87.5977 446.638 87.6308 446.314 87.6941C445.838 86.2755 444.928 85.0424 443.712 84.1688C442.497 83.2952 441.038 82.8252 439.542 82.8252C438.045 82.8252 436.586 83.2952 435.371 84.1688C434.156 85.0424 433.246 86.2755 432.769 87.6941C432.446 87.6308 432.118 87.5977 431.789 87.5951C430.365 87.5951 429 88.1606 427.993 89.1673C426.987 90.1739 426.421 91.5391 426.421 92.9627C426.421 94.3862 426.987 95.7515 427.993 96.7581C429 97.7647 430.365 98.3302 431.789 98.3302H447.295C448.718 98.3302 450.084 97.7647 451.09 96.7581C452.097 95.7515 452.662 94.3862 452.662 92.9627C452.662 91.5391 452.097 90.1739 451.09 89.1673C450.084 88.1606 448.718 87.5951 447.295 87.5951V87.5951Z" stroke="#00C8B5" stroke-width="2" stroke-miterlimit="10" stroke-linecap="round" stroke-linejoin="round"/>
<g clip-path="url(#clip7_830_14827)">
<path d="M371.889 77.9048H353.438V102.506H371.889V77.9048Z" stroke="#00C8B5" stroke-width="2" stroke-miterlimit="10" stroke-linecap="round" stroke-linejoin="round"/>
<path d="M357.538 82.0049H359.588" stroke="#00C8B5" stroke-width="2" stroke-miterlimit="10" stroke-linecap="square"/>
<path d="M365.739 82.0049H367.789" stroke="#00C8B5" stroke-width="2" stroke-miterlimit="10" stroke-linecap="square"/>
<path d="M357.538 86.105H359.588" stroke="#00C8B5" stroke-width="2" stroke-miterlimit="10" stroke-linecap="square"/>
<path d="M365.739 86.105H367.789" stroke="#00C8B5" stroke-width="2" stroke-miterlimit="10" stroke-linecap="square"/>
<path d="M357.538 90.2056H359.588" stroke="#00C8B5" stroke-width="2" stroke-miterlimit="10" stroke-linecap="square"/>
<path d="M365.739 90.2056H367.789" stroke="#00C8B5" stroke-width="2" stroke-miterlimit="10" stroke-linecap="square"/>
<path d="M357.538 94.3057H359.588" stroke="#00C8B5" stroke-width="2" stroke-miterlimit="10" stroke-linecap="square"/>
<path d="M365.739 94.3057H367.789" stroke="#00C8B5" stroke-width="2" stroke-miterlimit="10" stroke-linecap="square"/>
<path d="M362.663 102.506V98.4058" stroke="#00C8B5" stroke-width="2" stroke-miterlimit="10" stroke-linecap="square"/>
</g>
<circle cx="400.761" cy="197.049" r="57.6417" fill="#48CA2D" fill-opacity="0.14"/>
<circle cx="400.761" cy="197.05" r="47.7249" fill="#48CA2D"/>
<path d="M395.254 168.2L393.802 164H392.098L394.378 170H396.142L398.422 164H396.718L395.254 168.2ZM399.936 163.28C400.464 163.28 400.896 162.848 400.896 162.332C400.896 161.816 400.464 161.372 399.936 161.372C399.42 161.372 398.988 161.816 398.988 162.332C398.988 162.848 399.42 163.28 399.936 163.28ZM400.716 170V164H399.168V170H400.716ZM406.693 164.708C406.225 164.12 405.577 163.832 404.737 163.832C403.933 163.832 403.249 164.144 402.673 164.756C402.109 165.368 401.821 166.112 401.821 167C401.821 167.888 402.109 168.644 402.673 169.256C403.249 169.868 403.933 170.168 404.737 170.168C405.577 170.168 406.225 169.88 406.693 169.292V170H408.241V164H406.693V164.708ZM403.837 168.224C403.525 167.9 403.369 167.492 403.369 167C403.369 166.508 403.525 166.1 403.837 165.788C404.149 165.464 404.545 165.308 405.025 165.308C405.505 165.308 405.901 165.464 406.213 165.788C406.537 166.1 406.693 166.508 406.693 167C406.693 167.492 406.537 167.9 406.213 168.224C405.901 168.536 405.505 168.692 405.025 168.692C404.545 168.692 404.149 168.536 403.837 168.224ZM397.569 200L390.189 179H385.059L377.709 200H382.179L383.439 196.22H391.809L393.069 200H397.569ZM387.639 183.77L390.519 192.35H384.759L387.639 183.77ZM399.608 179V200H403.748V193.1H407.438C409.448 193.1 411.158 192.41 412.538 191.06C413.918 189.71 414.608 188.03 414.608 186.05C414.608 184.07 413.918 182.39 412.538 181.04C411.158 179.69 409.448 179 407.438 179H399.608ZM403.748 189.23V182.87H407.438C409.208 182.87 410.498 184.22 410.498 186.05C410.498 187.85 409.208 189.23 407.438 189.23H403.748ZM417.303 200H421.443V179H417.303V200Z" fill="white"/>
<path d="M400.555 222.271V210.619" stroke="white" stroke-width="2.35305" stroke-miterlimit="10" stroke-linecap="square"/>
<path d="M387.766 219.525L392.788 214.503V210.619" stroke="white" stroke-width="2.35305" stroke-miterlimit="10" stroke-linecap="square"/>
<path d="M413.347 219.525L408.325 214.503V210.619" stroke="white" stroke-width="2.35305" stroke-miterlimit="10" stroke-linecap="square"/>
<path d="M385.019 226.156C387.164 226.156 388.903 224.417 388.903 222.272C388.903 220.127 387.164 218.388 385.019 218.388C382.874 218.388 381.135 220.127 381.135 222.272C381.135 224.417 382.874 226.156 385.019 226.156Z" stroke="white" stroke-width="2.35305" stroke-miterlimit="10" stroke-linecap="square"/>
<path d="M416.092 226.156C418.237 226.156 419.976 224.417 419.976 222.272C419.976 220.127 418.237 218.388 416.092 218.388C413.947 218.388 412.208 220.127 412.208 222.272C412.208 224.417 413.947 226.156 416.092 226.156Z" stroke="white" stroke-width="2.35305" stroke-miterlimit="10" stroke-linecap="square"/>
<path d="M400.555 230.039C402.7 230.039 404.439 228.3 404.439 226.155C404.439 224.01 402.7 222.271 400.555 222.271C398.41 222.271 396.671 224.01 396.671 226.155C396.671 228.3 398.41 230.039 400.555 230.039Z" stroke="white" stroke-width="2.35305" stroke-miterlimit="10" stroke-linecap="square"/>
<path d="M0 82H169.61C202.747 82 229.61 108.863 229.61 142V251.61C229.61 284.747 202.747 311.61 169.61 311.61H60C26.8629 311.61 0 284.747 0 251.61V82Z" fill="#00C8B5"/>
<path fill-rule="evenodd" clip-rule="evenodd" d="M55.122 77.9996L115.079 101.259L175.036 78.1044L114.922 54.9448L55.122 77.9996Z" fill="#88CCCA"/>
<path fill-rule="evenodd" clip-rule="evenodd" d="M55.122 260.784L115.079 284.044L175.036 260.889L114.922 237.729L55.122 260.784Z" fill="#88CCCA"/>
<path d="M161.52 162.565L175.034 157.333L175.034 167.804C171.088 166.272 161.52 162.565 161.52 162.565Z" fill="#D5F2F1"/>
<path d="M122.371 75.6816L133.012 71.4688V262.471L122.371 266.77L122.371 75.6816Z" fill="#00C8B5"/>
<path d="M122.372 75.1362V266.685L112.276 262.659L112.276 71.6558L122.372 75.1362Z" fill="#006058"/>
<path d="M112.276 71.7033L122.896 67.4961L133.013 71.4747L122.372 75.6818L112.276 71.7033Z" fill="#429A97"/>
<path d="M107.09 81.6846L117.732 77.4717V268.326L107.09 272.625V81.6846Z" fill="#00C8B5"/>
<path d="M107.091 81.6382L107.091 272.486L96.9953 268.459L96.9953 77.7769L107.091 81.6382Z" fill="#006058"/>
<path d="M96.9952 77.7062L107.615 73.499L117.732 77.4776L107.091 81.6847L96.9952 77.7062Z" fill="#429A97"/>
<path fill-rule="evenodd" clip-rule="evenodd" d="M55.1188 168.321L115.076 191.581L175.033 168.426L114.918 145.267L55.1188 168.321Z" fill="#88CCCA"/>
<path fill-rule="evenodd" clip-rule="evenodd" d="M54.9443 215.334L114.901 238.593L174.801 215.49L114.744 192.279L54.9443 215.334Z" fill="#88CCCA"/>
<path fill-rule="evenodd" clip-rule="evenodd" d="M55.1188 167.65L115.076 190.91L175.033 167.755L114.918 144.595L55.1188 167.65Z" fill="#88CCCA"/>
<path fill-rule="evenodd" clip-rule="evenodd" d="M54.9443 214.662L114.901 237.922L174.801 214.827L114.744 191.607L54.9443 214.662Z" fill="#88CCCA"/>
<path fill-rule="evenodd" clip-rule="evenodd" d="M54.9443 260.659L114.901 283.919L174.801 260.823L114.744 237.604L54.9443 260.659Z" fill="#006058"/>
<path d="M82.3651 202.414L68.2122 207.058V219.867L82.3651 214.377V202.414Z" fill="#006058"/>
<path d="M94.3069 206.837L80.1541 211.481V224.29L94.3069 218.8V206.837Z" fill="#006058"/>
<path d="M138.756 206.395L102.711 220.105V232.914L138.756 218.357V206.395Z" fill="#006058"/>
<path d="M109.345 205.318L95.1918 209.962L95.4129 223.009L109.345 217.281V205.318Z" fill="#006058"/>
<path d="M89.4419 205.76L95.6337 207.75L95.4126 223.044L89.4419 220.833V205.76Z" fill="#4FA5A2"/>
<path d="M122.167 170.357L120.84 169.715L121.061 182.762L122.167 182.32V170.357Z" fill="#02B5A6"/>
<path d="M119.958 167.247L121.285 167.504L121.064 182.762L119.958 182.284L119.958 167.247Z" fill="#012C28"/>
<path d="M100.056 163.281L98.7293 162.639L98.9504 175.686L100.056 175.244V163.281Z" fill="#02B5A6"/>
<path d="M97.8448 160.17L99.1717 160.427L98.9505 175.685L97.8449 175.208L97.8448 160.17Z" fill="#012C28"/>
<path d="M81.0374 156.682L79.7106 156.04L79.9317 169.087L81.0374 168.645V156.682Z" fill="#02B5A6"/>
<path d="M78.8262 153.572L80.153 153.828L79.9319 169.087L78.8263 168.609L78.8262 153.572Z" fill="#012C28"/>
<path d="M139.42 203.513L152.688 208.193L152.467 223.487L139.42 218.586V203.513Z" fill="#4FA5A2"/>
<path d="M153.571 197.799L166.84 202.478L166.618 217.772L153.571 212.872V197.799Z" fill="#006058"/>
<path d="M134.552 165.527L133.225 164.885L133.446 177.932L134.552 177.49V165.527Z" fill="#02B5A6"/>
<path d="M132.342 162.417L133.669 162.674L133.448 177.932L132.342 177.454L132.342 162.417Z" fill="#012C28"/>
<path d="M112.437 205.774L111.11 205.132L111.332 218.179L112.437 217.737V205.774Z" fill="#02B5A6"/>
<path d="M110.226 202.665L111.553 202.921L111.332 218.18L110.226 217.702L110.226 202.665Z" fill="#012C28"/>
<path d="M93.4219 198.256L92.0951 197.614L92.3162 210.661L93.4219 210.219V198.256Z" fill="#02B5A6"/>
<path d="M91.2109 195.146L92.5377 195.403L92.3166 210.661L91.2109 210.183L91.2109 195.146Z" fill="#012C28"/>
<path d="M144.283 161.547L142.956 160.905L143.177 173.952L144.283 173.51V161.547Z" fill="#02B5A6"/>
<path d="M142.072 158.437L143.399 158.693L143.178 173.952L142.072 173.474L142.072 158.437Z" fill="#012C28"/>
<path d="M122.167 200.467L120.84 199.825L121.061 212.872L122.167 212.43V200.467Z" fill="#02B5A6"/>
<path d="M119.958 197.357L121.285 197.614L121.064 212.872L119.958 212.395L119.958 197.357Z" fill="#012C28"/>
<path d="M103.153 192.949L101.826 192.307L102.047 205.354L103.153 204.912V192.949Z" fill="#02B5A6"/>
<path d="M100.942 189.839L102.269 190.095L102.048 205.354L100.942 204.876L100.942 189.839Z" fill="#012C28"/>
<path d="M110.669 175.7L109.343 175.058L109.564 188.105L110.669 187.662V175.7Z" fill="#02B5A6"/>
<path d="M108.458 172.59L109.785 172.846L109.564 188.105L108.458 187.627L108.458 172.59Z" fill="#012C28"/>
<path d="M88.5566 167.738L87.2298 167.096L87.451 180.143L88.5566 179.701V167.738Z" fill="#02B5A6"/>
<path d="M86.3456 164.628L87.6724 164.885L87.4513 180.143L86.3456 179.665L86.3456 164.628Z" fill="#012C28"/>
<path d="M71.3058 160.663L69.979 160.021L70.2002 173.068L71.3058 172.626V160.663Z" fill="#02B5A6"/>
<path d="M69.0947 157.553L70.4215 157.809L70.2004 173.068L69.0948 172.59L69.0947 157.553Z" fill="#012C28"/>
<path d="M71.3058 161.105L69.979 160.462L70.2002 173.51L71.3058 173.067V161.105Z" fill="#02B5A6"/>
<path d="M69.0947 157.995L70.4215 158.251L70.2004 173.51L69.0948 173.032L69.0947 157.995Z" fill="#012C28"/>
<path d="M142.958 191.18L141.631 190.538L141.852 203.585L142.958 203.142V191.18Z" fill="#02B5A6"/>
<path d="M140.746 188.069L142.073 188.326L141.852 203.584L140.746 203.107L140.746 188.069Z" fill="#012C28"/>
<path d="M157.109 156.683L155.782 156.041L156.003 169.088L157.109 168.645V156.683Z" fill="#02B5A6"/>
<path d="M154.898 153.572L156.224 153.829L156.003 169.087L154.898 168.61L154.898 153.572Z" fill="#012C28"/>
<path d="M134.997 195.602L133.67 194.96L133.891 208.007L134.997 207.565V195.602Z" fill="#02B5A6"/>
<path d="M132.786 192.492L134.112 192.748L133.891 208.007L132.786 207.529L132.786 192.492Z" fill="#012C28"/>
<path d="M175.014 167.764V168.435L115.079 191.603V190.596L175.014 167.764Z" fill="#10867C"/>
<path d="M174.8 214.827V215.491L114.903 238.616V237.608L174.8 214.827Z" fill="#10867C"/>
<path d="M114.909 238.611V237.609L54.9443 214.606V215.613L114.909 238.611Z" fill="#006058"/>
<path d="M115.1 227.775V226.773L55.1357 203.77V204.777L115.1 227.775Z" fill="#006058"/>
<path d="M174.8 203.991V204.655L115.093 227.776V226.768L174.8 203.991Z" fill="#10867C"/>
<path fill-rule="evenodd" clip-rule="evenodd" d="M55.1202 157.241L115.077 180.501L175.034 157.346L114.92 134.187L55.1202 157.241Z" fill="#88CCCA"/>
<path opacity="0.5" fill-rule="evenodd" clip-rule="evenodd" d="M55.1202 156.57L115.077 179.83L175.034 156.675L114.92 133.515L55.1202 156.57Z" fill="#88CCCA"/>
<path d="M55.1186 157.241L55.1186 156.571L56.5616 156.991L56.4063 157.727L55.1186 157.241Z" fill="#88CCCA"/>
<path d="M55.9906 167.978L56.4874 168.603V168.84L55.1234 168.326V167.646L55.9906 167.978Z" fill="#88CCCA"/>
<path d="M122.373 126.714L133.015 125.909V158.693L122.373 162.858V126.714Z" fill="#02B5A6"/>
<path d="M122.371 126.61V162.806L112.275 158.957V125.944L122.371 126.61Z" fill="#006058"/>
<path d="M107.09 125.755L117.732 124.901V164.63L107.09 168.877L107.09 125.755Z" fill="#02B5A6"/>
<path d="M107.091 127.853V168.877L96.9953 164.733V127.115L107.091 127.853Z" fill="#67AFAD"/>
<path fill-rule="evenodd" clip-rule="evenodd" d="M132.342 82.5548L175.132 77.501V156.755L132.342 141.169V82.5548Z" fill="#D5F2F1"/>
<path fill-rule="evenodd" clip-rule="evenodd" d="M174.8 215.49L114.916 238.607L115.054 284.069L174.8 261.045V215.49Z" fill="#EEFFFE"/>
<path fill-rule="evenodd" clip-rule="evenodd" d="M171.653 174.591L118.503 195.19V201.326L171.653 180.777V174.591Z" fill="#D5F2F1"/>
<path fill-rule="evenodd" clip-rule="evenodd" d="M171.653 223.689L118.503 244.288V250.424L171.653 229.875V223.689Z" fill="#D5F2F1"/>
<path fill-rule="evenodd" clip-rule="evenodd" d="M171.653 248.242L118.503 268.842V274.978L171.653 254.428V248.242Z" fill="#D5F2F1"/>
<path fill-rule="evenodd" clip-rule="evenodd" d="M171.653 186.868L118.503 207.467V213.603L171.653 193.054V186.868Z" fill="#D5F2F1"/>
<path fill-rule="evenodd" clip-rule="evenodd" d="M171.653 235.966L118.503 256.565V262.701L171.653 242.152V235.966Z" fill="#D5F2F1"/>
<path fill-rule="evenodd" clip-rule="evenodd" d="M148.329 80.5498L168.221 88.1589V94.2949L148.329 86.736V80.5498Z" fill="#B9E0DF"/>
<path fill-rule="evenodd" clip-rule="evenodd" d="M132.177 123.228L168.219 137.257V143.393L132.177 129.414V123.228Z" fill="#B9E0DF"/>
<path fill-rule="evenodd" clip-rule="evenodd" d="M131.763 98.105L168.219 112.708V118.844L131.763 104.291V98.105Z" fill="#B9E0DF"/>
<path fill-rule="evenodd" clip-rule="evenodd" d="M132.317 87.063L168.221 100.436V106.572L132.317 93.2492V87.063Z" fill="#B9E0DF"/>
<path fill-rule="evenodd" clip-rule="evenodd" d="M131.963 134.974L168.222 149.533V155.669L131.963 141.16V134.974Z" fill="#B9E0DF"/>
<path fill-rule="evenodd" clip-rule="evenodd" d="M131.626 110.252L168.22 124.984V131.12L131.626 116.438V110.252Z" fill="#B9E0DF"/>
<path d="M152.251 75.9888L150.924 76.6522L149.818 160.499L150.924 160.057L152.251 75.9888Z" fill="#00C8B5"/>
<path d="M149.817 75.732L151.144 75.9886C150.626 108.992 150.336 127.495 149.817 160.499L148.712 160.021L149.817 75.732Z" fill="#006058"/>
<path d="M142.959 79.7837L141.633 80.4471L140.527 164.294L141.633 163.851L142.959 79.7837Z" fill="#00C8B5"/>
<path d="M140.526 79.5269L141.853 79.7835C141.335 112.787 141.044 131.29 140.526 164.294L139.421 163.816L140.526 79.5269Z" fill="#006058"/>
<path d="M130.134 84.6489L128.808 85.3123L127.702 169.159L128.808 168.717L130.134 84.6489Z" fill="#00C8B5"/>
<path d="M127.701 84.3921L129.028 84.6488C128.51 117.652 128.219 136.156 127.701 169.159L126.596 168.681L127.701 84.3921Z" fill="#006058"/>
<path d="M120.405 88.6294L119.078 89.2928L117.972 173.139L119.078 172.697L120.405 88.6294Z" fill="#00C8B5"/>
<path d="M117.972 88.3726L119.298 88.6292C118.78 121.632 118.49 140.136 117.972 173.139L116.866 172.661L117.972 88.3726Z" fill="#006058"/>
<path d="M108.023 93.4937L106.696 94.1571L105.591 178.004L106.696 177.561L108.023 93.4937Z" fill="#02B5A6"/>
<path d="M105.59 93.2369L106.917 93.4935C106.399 126.497 106.108 145 105.59 178.003L104.484 177.526L105.59 93.2369Z" fill="#012C28"/>
<path d="M167.725 80.5972L166.398 81.2606L165.292 165.107L166.398 164.665L167.725 80.5972Z" fill="#00C8B5"/>
<path d="M165.292 80.3404L166.618 80.597C166.1 113.6 165.81 132.104 165.292 165.107L164.186 164.629L165.292 80.3404Z" fill="#006058"/>
<path d="M158.435 84.3911L157.108 85.0545L156.002 168.901L157.108 168.459L158.435 84.3911Z" fill="#00C8B5"/>
<path d="M156.003 84.1348L157.33 84.3914C156.812 117.395 156.521 135.898 156.003 168.901L154.898 168.424L156.003 84.1348Z" fill="#006058"/>
<path d="M145.612 89.2568L144.285 89.9202L143.18 173.767L144.285 173.325L145.612 89.2568Z" fill="#00C8B5"/>
<path d="M143.179 89.0001L144.506 89.2567C143.988 122.26 143.697 140.763 143.179 173.767L142.073 173.289L143.179 89.0001Z" fill="#006058"/>
<path d="M135.881 93.2368L134.554 93.9002L133.449 177.747L134.554 177.305L135.881 93.2368Z" fill="#00C8B5"/>
<path d="M133.448 92.9805L134.775 93.2371C134.257 126.24 133.966 144.744 133.448 177.747L132.342 177.269L133.448 92.9805Z" fill="#006058"/>
<path d="M123.497 98.1025L122.17 98.766L121.064 182.613L122.17 182.17L123.497 98.1025Z" fill="#00C8B5"/>
<path d="M121.064 97.8458L122.39 98.1024C121.872 131.106 121.582 149.609 121.063 182.612L119.958 182.135L121.064 97.8458Z" fill="#006058"/>
<path d="M111.997 98.73L110.67 99.3934L109.565 187.919L110.67 187.477L111.997 98.73Z" fill="#02B5A6"/>
<path d="M109.564 98.73L110.891 98.9866C110.372 131.99 110.082 154.916 109.564 187.919L108.458 187.442L109.564 98.73Z" fill="#012C28"/>
<path d="M175.015 156.684V157.355L114.814 180.645V179.608L175.015 156.684Z" fill="#10867C"/>
<path d="M175.016 144.727V145.399L114.874 169.205V168.168L175.016 144.727Z" fill="#10867C"/>
<path d="M175.016 133.228V133.9L114.874 157.706V156.669L175.016 133.228Z" fill="#10867C"/>
<path d="M175.016 120.402V121.074L114.874 144.88V143.843L175.016 120.402Z" fill="#10867C"/>
<path d="M175.016 107.576V108.248L114.874 132.054V131.017L175.016 107.576Z" fill="#10867C"/>
<path d="M174.794 95.1924V95.8639L114.652 119.67V118.633L174.794 95.1924Z" fill="#10867C"/>
<path fill-rule="evenodd" clip-rule="evenodd" d="M175.025 168.388L115.103 191.608V226.769L174.804 203.991L175.025 168.388Z" fill="#EEFFFE"/>
<path fill-rule="evenodd" clip-rule="evenodd" d="M171.66 174.591L118.51 195.19V201.326L171.66 180.777V174.591Z" fill="#D5F2F1"/>
<path fill-rule="evenodd" clip-rule="evenodd" d="M171.66 223.689L118.51 244.288V250.424L171.66 229.875V223.689Z" fill="#D5F2F1"/>
<path fill-rule="evenodd" clip-rule="evenodd" d="M171.66 186.868L118.51 207.467V213.603L171.66 193.054V186.868Z" fill="#D5F2F1"/>
<path fill-rule="evenodd" clip-rule="evenodd" d="M171.66 235.966L118.51 256.565V262.701L171.66 242.152V235.966Z" fill="#D5F2F1"/>
<path fill-rule="evenodd" clip-rule="evenodd" d="M54.9442 167.771L115.094 190.502V226.768L54.9442 203.817V167.771Z" fill="#D5F2F1"/>
<path fill-rule="evenodd" clip-rule="evenodd" d="M57.5348 174.591L110.686 195.19V201.326L57.5348 180.777V174.591Z" fill="#B9E0DF"/>
<path fill-rule="evenodd" clip-rule="evenodd" d="M57.5348 223.689L110.686 244.288V250.424L57.5348 229.875V223.689Z" fill="#B9E0DF"/>
<path fill-rule="evenodd" clip-rule="evenodd" d="M57.5348 248.243L110.686 268.842V274.978L57.5348 254.429V248.243Z" fill="#B9E0DF"/>
<path fill-rule="evenodd" clip-rule="evenodd" d="M57.5348 186.868L110.686 207.468V213.604L57.5348 193.054V186.868Z" fill="#B9E0DF"/>
<path fill-rule="evenodd" clip-rule="evenodd" d="M57.5348 235.966L110.686 256.565V262.701L57.5348 242.152V235.966Z" fill="#B9E0DF"/>
<path fill-rule="evenodd" clip-rule="evenodd" d="M54.9442 215.269L114.932 238.607L115.066 284.069L54.9442 260.823V215.269Z" fill="#D5F2F1"/>
<path fill-rule="evenodd" clip-rule="evenodd" d="M57.5348 174.591L110.686 195.191V201.327L57.5348 180.778V174.591Z" fill="#B9E0DF"/>
<path fill-rule="evenodd" clip-rule="evenodd" d="M57.5348 223.689L110.686 244.288V250.424L57.5348 229.875V223.689Z" fill="#B9E0DF"/>
<path fill-rule="evenodd" clip-rule="evenodd" d="M57.5348 248.243L110.686 268.842V274.978L57.5348 254.429V248.243Z" fill="#B9E0DF"/>
<path fill-rule="evenodd" clip-rule="evenodd" d="M57.5348 186.868L110.686 207.468V213.604L57.5348 193.054V186.868Z" fill="#B9E0DF"/>
<path fill-rule="evenodd" clip-rule="evenodd" d="M57.5348 235.966L110.686 256.565V262.701L57.5348 242.152V235.966Z" fill="#B9E0DF"/>
<path opacity="0.5" fill-rule="evenodd" clip-rule="evenodd" d="M54.9443 144.783L114.901 168.043L175.022 144.727L114.744 121.729L54.9443 144.783Z" fill="#88CCCA"/>
<path opacity="0.5" fill-rule="evenodd" clip-rule="evenodd" d="M54.9443 133.284L114.901 156.544L174.858 133.389L114.744 110.229L54.9443 133.284Z" fill="#88CCCA"/>
<path opacity="0.5" fill-rule="evenodd" clip-rule="evenodd" d="M54.9443 120.458L114.901 143.718L175.022 120.402L114.744 97.4033L54.9443 120.458Z" fill="#88CCCA"/>
<path opacity="0.5" fill-rule="evenodd" clip-rule="evenodd" d="M54.9443 107.632L114.901 130.892L175.022 107.575L137.871 92.5381L114.901 101.384L92.0954 92.5381L54.9443 107.632Z" fill="#88CCCA"/>
<path opacity="0.5" fill-rule="evenodd" clip-rule="evenodd" d="M54.9443 95.2487L114.901 118.508L174.801 95.1922L152.245 86.3467L114.901 101.384L76.8369 86.3467L54.9443 95.2487Z" fill="#88CCCA"/>
<path fill-rule="evenodd" clip-rule="evenodd" d="M55.1227 77.9995L114.989 101.255L115.093 191.608L54.976 168.215L55.1227 77.9995Z" fill="#D5F2F1"/>
<path fill-rule="evenodd" clip-rule="evenodd" d="M57.533 86.896L110.684 107.495V113.631L57.533 93.0822V86.896Z" fill="#B9E0DF"/>
<path fill-rule="evenodd" clip-rule="evenodd" d="M57.5332 135.994L110.684 156.594V162.73L57.5332 142.18V135.994Z" fill="#B9E0DF"/>
<path fill-rule="evenodd" clip-rule="evenodd" d="M57.5332 111.445L110.684 132.044V138.18L57.5332 117.631V111.445Z" fill="#B9E0DF"/>
<path fill-rule="evenodd" clip-rule="evenodd" d="M57.5332 160.547L110.684 181.146V187.282L57.5332 166.733V160.547Z" fill="#B9E0DF"/>
<path fill-rule="evenodd" clip-rule="evenodd" d="M57.5332 99.1729L110.684 119.772V125.908L57.5332 105.359V99.1729Z" fill="#B9E0DF"/>
<path fill-rule="evenodd" clip-rule="evenodd" d="M57.5332 148.271L110.684 168.87V175.006L57.5332 154.457V148.271Z" fill="#B9E0DF"/>
<path fill-rule="evenodd" clip-rule="evenodd" d="M57.5332 123.722L110.684 144.321V150.457L57.5332 129.908V123.722Z" fill="#B9E0DF"/>
<path fill-rule="evenodd" clip-rule="evenodd" d="M55.1221 77.9991L115.079 101.259L122.836 98.2873L63.1288 74.8467L55.1221 77.9991Z" fill="#88CCCA"/>
<path fill-rule="evenodd" clip-rule="evenodd" d="M99.2743 95.1233L115.015 101.251L174.998 78.1008L159.544 71.9717L99.2743 95.1233Z" fill="#88CCCA"/>
<g clip-path="url(#clip8_830_14827)">
<path d="M91.8349 68.9853L91.1977 68.747L91.0562 62.0098L91.6934 62.251L91.8349 68.9853Z" fill="#006058"/>
<path d="M94.0371 69.4435L93.0018 67.2527L90.8638 61.6081L90.1913 59.4096L105.916 53.381L109.764 63.4119L94.0371 69.4435Z" fill="#009A8D"/>
<path d="M105.646 54.013L90.8109 59.7026L94.3044 68.8112L109.139 63.1215L105.646 54.013Z" fill="#001D23"/>
<path d="M107.769 59.5438C107.608 59.1198 107.129 58.9075 106.705 59.0686L103.587 60.2638C103.163 60.4249 102.951 60.9064 103.112 61.3274L104.189 64.1349C104.351 64.5588 104.484 64.9043 104.484 64.9043C104.484 64.9043 104.829 64.7711 105.253 64.6101L108.371 63.4148C108.795 63.2537 109.008 62.7752 108.846 62.3512L107.769 59.5438Z" fill="#00C8B5"/>
<path d="M97.3129 61.6864C97.474 62.1103 97.9555 62.3226 98.3765 62.1616L101.921 60.8023C102.345 60.6412 102.558 60.1597 102.397 59.7387L101.195 56.606C101.034 56.1821 100.556 55.9697 100.132 56.1308L96.5867 57.4901C96.1628 57.6512 95.9504 58.1298 96.1115 58.5537L97.313 61.6893L97.3129 61.6864Z" fill="#00C8B5"/>
<path d="M98.4113 62.2539L101.957 60.8938C102.381 60.7314 102.86 60.9426 103.023 61.3688L104.099 64.1745C104.262 64.598 104.051 65.077 103.625 65.2405L100.078 66.6005C99.6549 66.7629 99.1787 66.5507 99.0163 66.1273L97.9402 63.3215C97.7777 62.898 97.9899 62.4218 98.4134 62.2594L98.4113 62.2539Z" fill="#00C8B5"/>
<path d="M93.4081 64.1714L96.7822 62.8773C97.2056 62.7149 97.6846 62.9261 97.8481 63.3523L98.9242 66.158C99.0866 66.5815 98.8755 67.0605 98.4493 67.2239L95.0752 68.518C94.6518 68.6804 94.1755 68.4682 94.0131 68.0448L92.937 65.239C92.7746 64.8155 92.9857 64.3365 93.4119 64.1731L93.4081 64.1714Z" fill="#00C8B5"/>
<path d="M102.49 59.7017C102.651 60.1257 103.129 60.338 103.553 60.1769L106.671 58.9817C107.095 58.8206 107.308 58.3391 107.146 57.9181L105.945 54.7855C105.784 54.3615 105.303 54.1492 104.882 54.3103L101.763 55.5055C101.339 55.6666 101.127 56.1452 101.288 56.5691L102.49 59.7017Z" fill="#00C8B5"/>
<path d="M96.7478 62.7869C97.1717 62.6258 97.3841 62.1472 97.223 61.7233L96.0216 58.5906C95.8606 58.1667 95.382 57.9543 94.958 58.1154L91.5843 59.4067C91.1604 59.5678 90.9481 60.0464 91.1092 60.4703L92.3106 63.6059C92.4746 64.0298 92.9503 64.2422 93.3742 64.0811L96.7478 62.7869Z" fill="#00C8B5"/>
<path d="M90.1898 59.4099L89.8428 59.543L93.6904 69.5749L94.0374 69.4418L90.1898 59.4099Z" fill="#006058"/>
</g>
<g clip-path="url(#clip9_830_14827)">
<path d="M74.2793 75.7377L73.6422 75.4994L73.5006 68.7622L74.1378 69.0034L74.2793 75.7377Z" fill="#006058"/>
<path d="M76.4816 76.196L75.4463 74.0051L73.3083 68.3605L72.6358 66.1621L88.3602 60.1334L92.2088 70.1643L76.4816 76.196Z" fill="#009A8D"/>
<path d="M88.0902 60.7654L73.2554 66.4551L76.7488 75.5636L91.5836 69.8739L88.0902 60.7654Z" fill="#001D23"/>
<path d="M90.2134 66.2962C90.0523 65.8723 89.5737 65.6599 89.1498 65.821L86.0317 67.0162C85.6077 67.1773 85.3954 67.6588 85.5565 68.0798L86.6339 70.8873C86.795 71.3112 86.9281 71.6567 86.9281 71.6567C86.9281 71.6567 87.2736 71.5236 87.6975 71.3625L90.8157 70.1673C91.2396 70.0062 91.452 69.5276 91.2909 69.1037L90.2134 66.2962Z" fill="#00C8B5"/>
<path d="M79.7574 68.4388C79.9185 68.8627 80.4 69.0751 80.821 68.914L84.3659 67.5547C84.7898 67.3936 85.0022 66.9121 84.8411 66.4911L83.6397 63.3584C83.4786 62.9345 83.0001 62.7222 82.5761 62.8833L79.0312 64.2426C78.6073 64.4037 78.3949 64.8822 78.556 65.3062L79.7574 68.4418L79.7574 68.4388Z" fill="#00C8B5"/>
<path d="M80.8558 69.0063L84.4019 67.6463C84.8254 67.4839 85.3044 67.695 85.4678 68.1212L86.5439 70.927C86.7064 71.3504 86.4952 71.8294 86.069 71.9929L82.5229 73.353C82.0994 73.5154 81.6231 73.3032 81.4607 72.8797L80.3846 70.0739C80.2222 69.6505 80.4344 69.1742 80.8579 69.0118L80.8558 69.0063Z" fill="#00C8B5"/>
<path d="M75.8526 70.9238L79.2266 69.6298C79.6501 69.4673 80.1291 69.6785 80.2925 70.1047L81.3687 72.9105C81.5311 73.3339 81.3199 73.8129 80.8937 73.9764L77.5197 75.2705C77.0962 75.4329 76.62 75.2207 76.4575 74.7972L75.3814 71.9914C75.219 71.568 75.4302 71.089 75.8564 70.9255L75.8526 70.9238Z" fill="#00C8B5"/>
<path d="M84.934 66.4542C85.0951 66.8781 85.5737 67.0905 85.9976 66.9294L89.1158 65.7342C89.5397 65.5731 89.752 65.0916 89.591 64.6706L88.3896 61.5379C88.2285 61.114 87.747 60.9017 87.326 61.0627L84.2078 62.2579C83.7839 62.419 83.5715 62.8976 83.7326 63.3215L84.934 66.4542Z" fill="#00C8B5"/>
<path d="M79.1923 69.5393C79.6162 69.3782 79.8286 68.8996 79.6675 68.4757L78.4661 65.343C78.305 64.9191 77.8264 64.7067 77.4025 64.8678L74.0288 66.1592C73.6049 66.3202 73.3925 66.7988 73.5536 67.2228L74.7551 70.3583C74.9191 70.7822 75.3947 70.9946 75.8187 70.8335L79.1923 69.5393Z" fill="#00C8B5"/>
</g>
<path d="M74.0494 106.203C74.0494 112.053 78.0039 118.265 82.8806 120.052C87.7572 121.858 91.7117 118.571 91.7117 112.721C91.361 102.014 89.553 94.5138 88.5718 90.8859C87.5905 87.258 87.983 81.2116 97.0104 83.2271" stroke="#429A97" stroke-width="1.5"/>
<path d="M86.2849 92.7457L74.3273 88.4336L69.9491 89.8957L81.9067 94.2078L86.2849 92.7457Z" fill="#429A97"/>
<path d="M81.9067 94.1905L69.9492 89.8784V110.948L81.9067 115.26V94.1905Z" fill="#006058"/>
<path d="M86.2851 92.7456L81.9069 94.1906V115.277L86.2851 113.541V92.7456Z" fill="#00C8B5"/>
<path d="M77.095 100.907L73.5811 99.6392V99.4735L77.095 100.741V99.7134C77.095 99.0509 76.5719 98.3255 75.9237 98.0914L73.5811 97.2461V99.6392V103.226L77.095 104.494V100.907Z" fill="white"/>
<path d="M77.2599 100.981V104.545C77.8285 104.671 78.2664 104.328 78.2664 103.722V102.529C78.2664 101.923 77.8285 101.267 77.2599 100.981Z" fill="white"/>
<path d="M73.0339 104.95V105.053C73.0339 105.253 72.9657 105.396 72.8349 105.476C72.7041 105.556 72.5279 105.556 72.3175 105.476C72.0901 105.396 71.9081 105.253 71.7546 105.053C71.6068 104.853 71.5328 104.648 71.5328 104.431C71.5328 104.213 71.6068 104.065 71.7546 103.968C71.9024 103.871 72.0844 103.865 72.3004 103.945C72.5734 104.042 72.8122 104.265 72.9373 104.522L72.7326 104.568C72.653 104.396 72.4938 104.248 72.3004 104.179C72.1469 104.122 72.0218 104.128 71.9195 104.191C71.8171 104.253 71.7716 104.362 71.7716 104.516C71.7716 104.67 71.8228 104.813 71.9195 104.945C72.0218 105.082 72.1526 105.179 72.3118 105.236C72.5734 105.327 72.7383 105.259 72.7837 105.07L72.2948 104.893V104.676L73.0282 104.939L73.0339 104.95Z" fill="white"/>
<path d="M74.0695 105.036L74.2969 105.116V106.167L74.0695 106.087V105.938C73.9842 106.03 73.8648 106.041 73.7056 105.984C73.5635 105.932 73.4384 105.835 73.336 105.693C73.2337 105.55 73.1825 105.396 73.1825 105.247C73.1825 105.099 73.2337 104.979 73.336 104.91C73.4384 104.842 73.5578 104.83 73.7056 104.882C73.8648 104.939 73.9842 105.041 74.0695 105.19V105.041V105.036ZM73.7397 105.778C73.8364 105.813 73.916 105.807 73.9785 105.767C74.0411 105.727 74.0752 105.658 74.0752 105.561C74.0752 105.464 74.0411 105.373 73.9785 105.287C73.916 105.201 73.8364 105.139 73.7397 105.104C73.6431 105.07 73.5635 105.076 73.5009 105.116C73.4384 105.156 73.4042 105.224 73.4042 105.321C73.4042 105.418 73.4384 105.51 73.5009 105.595C73.5635 105.681 73.6431 105.744 73.7397 105.778Z" fill="white"/>
<path d="M75.1437 105.641L74.8821 105.55V106.052C74.8821 106.19 74.9674 106.218 75.1437 106.269V106.475C74.7968 106.395 74.6604 106.247 74.6604 105.973V105.47L74.467 105.401V105.184L74.6604 105.253V105.024L74.8878 105.042V105.333L75.1494 105.424V105.641H75.1437Z" fill="white"/>
<path d="M75.4842 106.167C75.5183 106.338 75.6434 106.475 75.8197 106.538C75.9391 106.584 76.0301 106.572 76.0869 106.504L76.2746 106.681C76.1722 106.795 76.0187 106.818 75.814 106.744C75.6434 106.681 75.507 106.578 75.4046 106.441C75.3023 106.298 75.2454 106.15 75.2454 105.99C75.2454 105.83 75.2966 105.721 75.3989 105.653C75.5013 105.584 75.6378 105.579 75.797 105.636C75.9505 105.693 76.0756 105.79 76.1722 105.933C76.2689 106.075 76.3201 106.224 76.3201 106.378C76.3201 106.401 76.3201 106.43 76.3144 106.469L75.4842 106.167ZM76.0983 106.201C76.0642 106.018 75.9505 105.887 75.797 105.836C75.6321 105.773 75.5127 105.836 75.4785 105.978L76.0926 106.201H76.0983Z" fill="white"/>
<path d="M77.6847 106.344L77.9235 106.429L77.5937 107.36L77.3719 107.28L77.1559 106.492L76.9341 107.12L76.7124 107.04L76.3826 105.87L76.6214 105.955L76.8261 106.755L77.0478 106.11L77.2639 106.189L77.48 106.995L77.6847 106.344Z" fill="white"/>
<path d="M78.8793 106.772L79.1067 106.852V107.903L78.8793 107.823V107.674C78.794 107.766 78.6746 107.777 78.5154 107.72C78.3732 107.669 78.2481 107.572 78.1458 107.429C78.0434 107.286 77.9922 107.132 77.9922 106.983C77.9922 106.835 78.0434 106.715 78.1458 106.646C78.2481 106.578 78.3675 106.566 78.5154 106.618C78.6746 106.675 78.794 106.778 78.8793 106.926V106.778V106.772ZM78.5495 107.515C78.6461 107.549 78.7257 107.543 78.7883 107.503C78.8508 107.463 78.8849 107.395 78.8849 107.298C78.8849 107.2 78.8508 107.109 78.7883 107.023C78.7257 106.938 78.6461 106.875 78.5495 106.841C78.4528 106.806 78.3732 106.812 78.3107 106.852C78.2481 106.892 78.214 106.961 78.214 107.058C78.214 107.155 78.2481 107.246 78.3107 107.332C78.3732 107.417 78.4528 107.48 78.5495 107.515Z" fill="white"/>
<path d="M80.0733 107.206L80.3121 107.292L79.9084 108.228C79.806 108.463 79.6411 108.531 79.3966 108.428V108.217C79.5388 108.274 79.6184 108.234 79.6752 108.114L79.6866 108.097L79.2431 106.903L79.4876 106.995L79.8003 107.869L80.0676 107.2L80.0733 107.206Z" fill="white"/>
<g clip-path="url(#clip10_830_14827)">
<path d="M143.507 250.332L149.54 248.18L151.749 248.909L145.716 251.061L143.507 250.332Z" fill="#429A97"/>
<path d="M145.716 251.052L151.749 248.9V259.414L145.716 261.566V251.052Z" fill="#00C8B5"/>
<path d="M143.507 250.332L145.716 251.052V261.575L143.507 260.709V250.332Z" fill="#006058"/>
<path d="M151.697 252.639L150.278 252.099C149.926 251.983 149.519 251.983 149.086 252.142C147.791 252.609 146.74 254.234 146.74 255.765C146.74 256.828 147.246 257.57 147.988 257.767L149.317 258.277L149.699 257.373C150.694 256.691 151.427 255.353 151.427 254.071C151.427 253.844 151.401 253.634 151.358 253.437L151.697 252.635V252.639Z" fill="#006058"/>
<path d="M152.236 256.346C152.999 254.832 152.77 253.178 151.725 252.651C150.681 252.125 149.215 252.926 148.453 254.441C147.69 255.955 147.919 257.609 148.964 258.135C150.009 258.662 151.474 257.86 152.236 256.346Z" fill="#006058"/>
<path d="M150.346 257.891C151.526 257.467 152.482 255.992 152.482 254.603C152.482 253.213 151.526 252.433 150.346 252.862C149.167 253.291 148.211 254.761 148.211 256.151C148.211 257.54 149.167 258.32 150.346 257.891Z" fill="#00C8B5"/>
<path d="M150.072 255.156L149.317 254.538L150.072 255.156Z" fill="#001D23"/>
<path d="M150.072 255.156L149.317 254.538" stroke="#001D23" stroke-width="0.5" stroke-miterlimit="10" stroke-linecap="square"/>
<path d="M150.346 255.833C150.561 255.756 150.737 255.49 150.737 255.237C150.737 254.984 150.561 254.843 150.346 254.92C150.132 254.997 149.956 255.263 149.956 255.516C149.956 255.769 150.132 255.91 150.346 255.833Z" fill="#001D23"/>
<path d="M150.346 253.548V253.891V253.548Z" fill="#001D23"/>
<path d="M150.346 253.548V253.891" stroke="#001D23" stroke-width="0.5" stroke-miterlimit="10" stroke-linecap="square"/>
<path d="M151.444 253.685L151.238 254.002L151.444 253.685Z" fill="#001D23"/>
<path d="M151.444 253.685L151.238 254.002" stroke="#001D23" stroke-width="0.5" stroke-miterlimit="10" stroke-linecap="square"/>
<path d="M151.899 254.817L151.607 254.924L151.899 254.817Z" fill="#001D23"/>
<path d="M151.899 254.817L151.607 254.924" stroke="#001D23" stroke-width="0.5" stroke-miterlimit="10" stroke-linecap="square"/>
<path d="M149.082 255.833L148.79 255.94L149.082 255.833Z" fill="#001D23"/>
<path d="M149.082 255.833L148.79 255.94" stroke="#001D23" stroke-width="0.5" stroke-miterlimit="10" stroke-linecap="square"/>
</g>
<path d="M151.569 251.221C153.888 250.385 155.771 247.482 155.771 244.75C155.771 242.019 153.888 240.48 151.569 241.324C149.249 242.169 147.367 245.063 147.367 247.795C147.367 250.526 149.249 252.065 151.569 251.221Z" fill="#006058"/>
<path d="M152.426 251.649C154.746 250.813 156.628 247.91 156.628 245.179C156.628 242.448 154.746 240.908 152.426 241.753C150.107 242.598 148.224 245.492 148.224 248.223C148.224 250.955 150.107 252.494 152.426 251.649Z" fill="#429A97"/>
<path d="M150.368 248.811L151.182 247.026L151.833 247.719L153.052 244.891L154.029 246.312L155.085 244.523" stroke="#D5F2F1" stroke-miterlimit="10" stroke-linecap="square"/>
<g clip-path="url(#clip11_830_14827)">
<path d="M92.3832 264.054L93.486 263.316V242.583L73.2678 234.533L72.165 235.271L92.3832 264.054Z" fill="#006058"/>
<path d="M72.165 256.004L92.3832 264.054V243.32L72.165 235.271V256.004Z" fill="#00C8B5"/>
<path d="M91.2804 262.541L73.2678 255.303V251.26L91.2804 258.503V262.541Z" fill="#00A999"/>
<path d="M82.2741 242.071C85.9764 243.558 89.2638 246.71 91.2804 250.332V244.022L73.2678 236.784V243.089C75.2844 241.096 78.5718 240.585 82.2741 242.071Z" fill="#00A999"/>
<path d="M82.2741 242.519C78.5245 241.011 75.2161 241.607 73.2678 243.737V250.817L91.2804 258.055V250.98C89.3373 247.279 86.0236 244.027 82.2741 242.519Z" fill="#00A999"/>
<path d="M82.2741 242.519C86.0236 244.027 89.3373 247.285 91.2804 250.98V250.332C89.2638 246.715 85.9764 243.563 82.2741 242.071C78.5718 240.579 75.2844 241.091 73.2678 243.089V243.737C75.2109 241.602 78.5245 241.011 82.2741 242.519Z" fill="white"/>
<path d="M75.0428 247.037C75.0061 247.095 74.9746 247.153 74.9536 247.211C74.2289 247.137 73.7457 246.753 73.7142 246.726C73.6407 246.668 73.5567 246.668 73.5304 246.726C73.4989 246.784 73.5304 246.884 73.6039 246.942C73.6407 246.974 74.1396 247.38 74.8905 247.501C74.8905 247.512 74.8905 247.522 74.8905 247.528C74.8905 247.738 74.9798 247.918 75.0954 248.039C75.4209 248.382 76.1351 248.487 77.1749 247.844C77.1067 248.007 77.0489 248.197 77.0069 248.397C77.0069 248.408 77.0069 248.413 77.0069 248.424C77.0069 248.482 77.0436 248.55 77.0962 248.598C77.2064 248.687 77.2747 248.619 77.3272 248.561L77.469 248.403C77.5951 248.266 77.8734 247.955 78.0624 247.807C78.0414 247.918 78.0152 248.049 78.0152 248.176C78.0152 248.35 78.0572 248.529 78.199 248.672C78.3198 248.787 78.5088 248.888 78.9237 248.809C78.9604 248.919 79.0287 248.993 79.0707 249.025C79.3333 249.251 79.8322 249.188 80.3521 248.898C80.2838 249.03 80.2313 249.135 80.2155 249.188C80.2155 249.204 80.2155 249.214 80.2155 249.23C80.2155 249.299 80.2575 249.362 80.2996 249.399C80.4151 249.494 80.4834 249.425 80.5411 249.367L80.6987 249.204C80.83 249.062 81.1345 248.735 81.3131 248.619C81.3656 248.772 81.4601 248.972 81.6282 249.135C81.5809 249.225 81.5547 249.315 81.5547 249.394C81.5547 249.494 81.5914 249.584 81.6649 249.663C81.7962 249.805 82.001 249.837 82.2111 249.81C81.5389 250.211 81.2291 250.754 81.2186 251.049V251.065C81.2186 251.228 81.2973 251.328 81.3499 251.376C81.4496 251.471 81.5757 251.487 81.7227 251.429C82.2321 251.228 82.5997 250.416 82.7888 249.905C83.0408 249.8 83.3402 249.715 83.6763 249.668C83.566 249.821 83.503 249.979 83.503 250.126C83.503 250.179 83.5135 250.232 83.5292 250.285C83.566 250.406 83.65 250.506 83.7603 250.559C83.9966 250.68 84.3169 250.559 84.7003 250.242C84.6688 250.322 84.6373 250.401 84.6005 250.48C83.5397 250.891 83.0618 251.597 83.0041 252.061C82.9988 252.098 82.9936 252.135 82.9936 252.167C82.9936 252.362 83.0723 252.483 83.1406 252.551C83.2194 252.631 83.3559 252.71 83.5607 252.636C83.7865 252.551 84.3222 251.929 84.8368 250.749C85.5248 250.496 86.4648 250.364 87.7199 250.522C87.7829 250.527 87.8249 250.49 87.8249 250.427C87.8249 250.416 87.8249 250.401 87.8249 250.39C87.8039 250.306 87.7251 250.232 87.6464 250.221C86.5488 250.084 85.6823 250.163 85.0049 250.353C85.0836 250.148 85.1677 249.921 85.2464 249.689C85.2464 249.678 85.2517 249.663 85.2517 249.652C85.2517 249.599 85.2202 249.531 85.1677 249.489C85.1047 249.436 85.0259 249.425 84.9891 249.473C84.2802 250.3 83.8811 250.343 83.7918 250.306C83.7918 250.295 83.7813 250.279 83.7813 250.258C83.7813 250.132 83.8916 249.858 84.2382 249.626C84.2644 249.61 84.2749 249.578 84.2749 249.541C84.2749 249.515 84.2644 249.483 84.2487 249.452C84.2119 249.383 84.1384 249.33 84.0754 249.33C83.629 249.341 83.2456 249.41 82.9095 249.515C82.9095 249.504 82.9148 249.494 82.9148 249.489C82.9148 249.478 82.9148 249.468 82.9148 249.457C82.9148 249.404 82.8833 249.341 82.836 249.299H82.8308C82.9305 249.257 83.0303 249.209 83.1354 249.157C83.2456 249.099 83.2771 249.014 83.2771 248.946C83.2771 248.914 83.2719 248.888 83.2666 248.867C83.2351 248.751 83.1406 248.65 83.0146 248.582C82.6995 248.418 82.2058 248.487 81.7595 248.967C81.6072 248.824 81.5494 248.603 81.5232 248.498L81.5126 248.455C81.4916 248.387 81.4391 248.329 81.3761 248.302C81.2816 248.266 81.1766 248.292 81.0138 248.413C81.0138 248.413 81.0138 248.408 81.019 248.403C81.0295 248.387 81.0295 248.366 81.0295 248.345C81.0295 248.297 81.0033 248.239 80.9612 248.197C80.8982 248.134 80.8195 248.118 80.7722 248.16C79.9792 248.914 79.286 248.93 79.181 248.835C79.181 248.835 79.181 248.824 79.181 248.803C79.181 248.793 79.181 248.777 79.1862 248.756C79.3648 248.698 79.5696 248.619 79.8217 248.503C80.0527 248.397 80.1053 248.255 80.1053 248.15C80.1053 248.102 80.0948 248.06 80.0842 248.034C80.037 247.907 79.9267 247.796 79.7849 247.754C79.4908 247.659 79.1232 247.86 78.9394 248.487C78.4826 248.619 78.3565 248.519 78.3408 248.503C78.2777 248.44 78.283 248.245 78.3565 247.923C78.388 247.781 78.4038 247.712 78.367 247.633C78.3303 247.554 78.2725 247.491 78.2042 247.464C78.0572 247.396 77.8839 247.485 77.5373 247.844C77.6791 247.57 77.8104 247.396 77.8156 247.39C77.8314 247.375 77.8366 247.348 77.8366 247.327C77.8366 247.285 77.8156 247.232 77.7789 247.185C77.7211 247.116 77.6371 247.095 77.5845 247.132C76.3347 248.16 75.4892 248.139 75.2424 247.881C75.1899 247.828 75.1636 247.749 75.1636 247.659C75.1636 247.622 75.1689 247.586 75.1794 247.543C75.6468 247.564 76.1877 247.459 76.7601 247.101C77.0962 246.89 77.28 246.637 77.28 246.389C77.28 246.331 77.2695 246.278 77.2537 246.225C77.2012 246.078 77.0857 245.951 76.9386 245.883C76.4922 245.682 75.7308 245.962 75.0428 247.048V247.037ZM76.9281 246.152C76.9806 246.178 76.9911 246.199 76.9911 246.21C76.9911 246.225 76.9964 246.241 76.9964 246.262C76.9964 246.389 76.8861 246.6 76.5553 246.805C76.1141 247.085 75.694 247.195 75.3212 247.217C75.9776 246.21 76.6498 246.025 76.9229 246.146L76.9281 246.152ZM79.7271 248.023C79.7744 248.018 79.8059 248.023 79.8269 248.034C79.8217 248.065 79.7849 248.134 79.6431 248.197C79.5381 248.245 79.4436 248.287 79.3595 248.324C79.5066 248.076 79.6694 248.028 79.7271 248.023ZM82.878 248.798C82.9305 248.809 82.9673 248.819 82.9883 248.835C82.9831 248.84 82.9726 248.851 82.9568 248.856C82.6312 249.03 82.3424 249.109 82.1166 249.088C82.4737 248.766 82.7835 248.782 82.878 248.798ZM82.4474 249.388C82.1743 249.52 81.9223 249.536 81.833 249.499C81.833 249.473 81.8435 249.415 81.9013 249.32C82.0641 249.394 82.2426 249.415 82.4474 249.388ZM82.3371 250.132C82.1428 250.553 81.8697 251.002 81.5389 251.133C81.5232 251.139 81.5074 251.144 81.4969 251.149C81.5126 250.949 81.7647 250.496 82.3371 250.132ZM83.2719 252.277C83.2719 252.214 83.2876 252.114 83.3402 251.982C83.4714 251.661 83.797 251.26 84.3747 250.949C83.9388 251.824 83.5345 252.277 83.3822 252.335C83.3349 252.351 83.2981 252.356 83.2824 252.351C83.2771 252.335 83.2719 252.314 83.2719 252.277Z" fill="white"/>
<path d="M87.3418 247.158C87.2525 247.122 87.1737 247.143 87.1422 247.216C87.1422 247.216 86.365 248.909 86.2757 249.104C86.0289 249.019 83.8968 248.276 83.8968 248.276C83.7813 248.239 83.6973 248.297 83.6973 248.408V248.418C83.7025 248.54 83.8023 248.666 83.9231 248.708L86.4385 249.583C86.5226 249.615 86.5961 249.589 86.6276 249.525C86.6276 249.525 87.1055 248.487 87.347 247.96C87.5886 248.682 88.0665 250.095 88.0665 250.095C88.098 250.184 88.1715 250.269 88.2503 250.306C88.2503 250.306 89.5474 250.901 90.2143 251.207C89.7049 251.428 88.7019 251.861 88.7019 251.861C88.6494 251.882 88.6231 251.929 88.6231 251.993C88.6231 252.008 88.6231 252.029 88.6284 252.051C88.6284 252.051 88.9487 253.442 89.1168 254.159C88.5601 253.574 87.4678 252.43 87.4678 252.43C87.3996 252.356 87.3103 252.319 87.2368 252.335C87.2368 252.335 86.1339 252.599 85.5668 252.731C85.7401 252.172 86.0552 251.165 86.0552 251.165C86.0552 251.149 86.0604 251.128 86.0604 251.112C86.0604 251.017 85.9974 250.907 85.9029 250.843C85.7926 250.764 85.6718 250.785 85.6403 250.885L85.0101 252.931C84.9891 253.005 85.0154 253.11 85.0889 253.189C85.1572 253.268 85.257 253.31 85.3305 253.295C85.3305 253.295 87.1475 252.862 87.3523 252.815C87.5571 253.031 89.3426 254.902 89.3426 254.902C89.4161 254.982 89.5106 255.013 89.5842 254.992C89.6419 254.971 89.6734 254.924 89.6734 254.855C89.6734 254.839 89.6734 254.818 89.6682 254.797C89.6682 254.797 89.1378 252.509 89.08 252.251C89.2638 252.172 90.9075 251.46 90.9075 251.46C90.9548 251.439 90.9863 251.392 90.9863 251.328C90.9863 251.307 90.9863 251.281 90.9758 251.26C90.9495 251.165 90.876 251.075 90.7867 251.038C90.7867 251.038 88.6652 250.063 88.4236 249.952C88.3343 249.689 87.5571 247.375 87.5571 247.375C87.5256 247.28 87.4468 247.195 87.3575 247.158H87.3418Z" fill="white"/>
<path d="M74.045 254.723V252.461L75.2056 252.931V253.184L74.3339 252.83V253.558L75.1426 253.885V254.133L74.3339 253.806V254.591L75.2266 254.95V255.197L74.045 254.723Z" fill="white"/>
<path d="M77.1277 253.706V255.962L76.7338 255.809L75.8463 253.489L75.8411 253.484V255.445L75.5837 255.345V253.083L75.9881 253.247L76.8651 255.535H76.8704V253.6L77.1277 253.706Z" fill="white"/>
<path d="M77.5268 256.125V253.864L78.6874 254.328V254.581L77.8156 254.228V254.955L78.6244 255.282V255.535L77.8156 255.208V255.988L78.7084 256.347V256.6L77.5268 256.125Z" fill="white"/>
<path d="M79.3385 254.844L79.7744 255.018C79.9949 255.108 80.079 255.319 80.079 255.482C80.079 255.682 79.9792 255.819 79.7744 255.735L79.3438 255.561V254.839L79.3385 254.844ZM79.6746 255.951C79.7691 255.988 79.9949 256.094 80.016 256.378C80.0422 256.689 80.0212 256.974 80.1052 257.164L80.4046 257.285C80.3625 257.127 80.331 256.758 80.3258 256.663C80.31 256.204 80.2155 256.078 79.9582 255.93C80.2208 255.983 80.3678 255.841 80.3678 255.572C80.3678 255.292 80.226 254.95 79.8269 254.791L79.0497 254.48V256.742L79.3385 256.858V255.819L79.6746 255.957V255.951Z" fill="white"/>
<path d="M81.7594 256.167C81.7594 255.899 81.6491 255.714 81.3603 255.598C81.271 255.561 80.9454 255.445 80.9454 255.92V256.684C80.9454 257.18 81.0872 257.364 81.3603 257.47C81.5651 257.554 81.7017 257.549 81.7647 257.533V256.858L81.3498 256.689V256.436L82.0535 256.721V257.823C81.8697 257.849 81.6544 257.833 81.3656 257.712C80.8877 257.522 80.6566 257.18 80.6566 256.552V255.809C80.6566 255.356 80.8877 255.161 81.3656 255.356C81.8434 255.551 82.085 255.825 82.064 256.289L81.7647 256.167H81.7594Z" fill="white"/>
<path d="M83.4242 256.236L83.713 256.352L83.0986 257.501V258.366L82.8097 258.25V257.385L82.2058 255.746L82.5261 255.872L82.9673 257.143L83.4242 256.236Z" fill="white"/>
<path d="M84.6845 258.329V258.392C84.6845 258.698 84.8788 258.872 85.0626 258.951C85.2884 259.04 85.467 259.014 85.467 258.745C85.467 258.244 84.4587 257.896 84.4587 257.216C84.4587 256.816 84.7423 256.715 85.1204 256.868C85.53 257.032 85.7611 257.327 85.7453 257.78L85.446 257.659C85.446 257.411 85.3725 257.216 85.0994 257.111C84.9261 257.042 84.7528 257.058 84.7528 257.306C84.7528 257.801 85.7663 258.139 85.7663 258.856C85.7663 259.33 85.4407 259.351 85.0679 259.204C84.4009 258.94 84.4009 258.434 84.4115 258.218L84.695 258.334L84.6845 258.329Z" fill="white"/>
<path d="M87.3575 257.817V258.065L86.7641 257.828V259.836L86.4805 259.72V257.712L85.8871 257.475V257.222L87.3575 257.817Z" fill="white"/>
<path d="M88.3711 259.694L87.6516 259.404L88.0035 258.339H88.0087L88.3711 259.694ZM87.1212 259.979L87.41 260.095L87.5781 259.626L88.4498 259.974L88.6126 260.58L88.933 260.706L88.1978 258.15L87.8302 258.002L87.116 259.974L87.1212 259.979Z" fill="white"/>
<path d="M89.4423 258.903L89.8782 259.077C90.0988 259.167 90.1828 259.378 90.1828 259.541C90.1828 259.741 90.083 259.879 89.8782 259.794L89.4476 259.62V258.898L89.4423 258.903ZM89.7784 260.01C89.873 260.047 90.0988 260.153 90.1198 260.437C90.146 260.748 90.125 261.033 90.209 261.223L90.5084 261.344C90.4664 261.186 90.4349 260.817 90.4296 260.722C90.4139 260.263 90.3193 260.137 90.062 259.989C90.3246 260.042 90.4716 259.9 90.4716 259.631C90.4716 259.351 90.3298 259.009 89.9307 258.851L89.1535 258.54V260.801L89.4423 260.917V259.879L89.7784 260.016V260.01Z" fill="white"/>
</g>
<path d="M228.792 196.811H313.256" stroke="#00C8B5" stroke-width="1.5"/>
<path d="M310.796 195.429C310.796 194.833 311.28 194.351 311.877 194.351L314.635 194.351C315.232 194.351 315.716 194.833 315.716 195.429L315.716 198.192C315.716 198.788 315.232 199.271 314.635 199.271L310.796 199.271L310.796 195.429Z" fill="#00C8B5"/>
<path d="M600.269 196.811L515.805 196.811" stroke="#006058" stroke-width="1.5"/>
<path d="M602.729 198.192C602.729 198.788 602.245 199.271 601.647 199.271L598.89 199.271C598.293 199.271 597.809 198.788 597.809 198.192L597.809 195.429C597.809 194.833 598.293 194.35 598.89 194.35L602.729 194.35L602.729 198.192Z" fill="#006058"/>
<path d="M647.334 3.2L647.334 13L645.416 13L645.416 6.644L642.658 11.194L642.434 11.194L639.676 6.658L639.676 13L637.744 13L637.744 3.2L639.732 3.2L642.546 7.834L645.346 3.2L647.334 3.2ZM656.02 13L655.432 11.236L651.526 11.236L650.938 13L648.852 13L652.282 3.2L654.676 3.2L658.12 13L656.02 13ZM652.142 9.43L654.83 9.43L653.486 5.426L652.142 9.43ZM665.007 13L663.033 9.598L661.563 9.598L661.563 13L659.631 13L659.631 3.2L663.551 3.2C664.456 3.2 665.226 3.51734 665.861 4.152C666.496 4.78667 666.813 5.552 666.813 6.448C666.813 7.05467 666.64 7.61934 666.295 8.142C665.95 8.65534 665.492 9.04267 664.923 9.304L667.093 13L665.007 13ZM661.563 5.006L661.563 7.904L663.551 7.904C663.915 7.904 664.228 7.764 664.489 7.484C664.75 7.19467 664.881 6.84934 664.881 6.448C664.881 6.04667 664.75 5.706 664.489 5.426C664.228 5.146 663.915 5.006 663.551 5.006L661.563 5.006ZM676.449 13L674.223 13L670.723 8.408L670.723 13L668.791 13L668.791 3.2L670.723 3.2L670.723 7.526L674.083 3.2L676.309 3.2L672.683 7.96L676.449 13ZM679.896 11.152L684.026 11.152L684.026 13L677.964 13L677.964 3.2L683.956 3.2L683.956 5.048L679.896 5.048L679.896 7.134L683.606 7.134L683.606 8.954L679.896 8.954L679.896 11.152ZM692.43 3.2L692.43 5.048L689.784 5.048L689.784 13L687.852 13L687.852 5.048L685.22 5.048L685.22 3.2L692.43 3.2ZM697.722 3.2C698.665 3.2 699.458 3.51734 700.102 4.152C700.746 4.78667 701.068 5.566 701.068 6.49C701.068 7.414 700.746 8.19334 700.102 8.828C699.458 9.46267 698.665 9.78 697.722 9.78L696 9.78L696 13L694.068 13L694.068 3.2L697.722 3.2ZM697.722 7.974C698.133 7.974 698.474 7.834 698.744 7.554C699.015 7.26467 699.15 6.91 699.15 6.49C699.15 6.06067 699.015 5.706 698.744 5.426C698.474 5.146 698.133 5.006 697.722 5.006L696 5.006L696 7.974L697.722 7.974ZM704.818 11.152L708.556 11.152L708.556 13L702.886 13L702.886 3.2L704.818 3.2L704.818 11.152ZM716.787 13L716.199 11.236L712.293 11.236L711.705 13L709.619 13L713.049 3.2L715.443 3.2L718.887 13L716.787 13ZM712.909 9.43L715.597 9.43L714.253 5.426L712.909 9.43ZM724.691 13.196C723.217 13.196 721.999 12.706 721.037 11.726C720.076 10.746 719.595 9.53734 719.595 8.1C719.595 6.65334 720.076 5.44467 721.037 4.474C721.999 3.494 723.217 3.004 724.691 3.004C725.578 3.004 726.395 3.214 727.141 3.634C727.897 4.04467 728.485 4.60467 728.905 5.314L727.239 6.28C726.997 5.84134 726.651 5.50067 726.203 5.258C725.755 5.006 725.251 4.88 724.691 4.88C723.739 4.88 722.969 5.17867 722.381 5.776C721.803 6.37334 721.513 7.148 721.513 8.1C721.513 9.04267 721.803 9.81267 722.381 10.41C722.969 11.0073 723.739 11.306 724.691 11.306C725.251 11.306 725.755 11.1847 726.203 10.942C726.661 10.69 727.006 10.3493 727.239 9.92L728.905 10.886C728.485 11.5953 727.902 12.16 727.155 12.58C726.409 12.9907 725.587 13.196 724.691 13.196ZM732.584 11.152L736.714 11.152L736.714 13L730.652 13L730.652 3.2L736.644 3.2L736.644 5.048L732.584 5.048L732.584 7.134L736.294 7.134L736.294 8.954L732.584 8.954L732.584 11.152Z" fill="#54747E"/>
<path d="M334.561 12.196C335.611 12.196 336.465 11.93 337.123 11.398C337.781 10.866 338.117 10.152 338.117 9.242C338.117 8.682 337.963 8.192 337.753 7.856C337.571 7.52 337.123 7.17 336.829 6.988C336.689 6.89 336.479 6.792 336.213 6.694C335.947 6.582 335.737 6.498 335.583 6.456L334.911 6.232C334.183 6.008 333.693 5.798 333.427 5.616C333.175 5.42 333.049 5.168 333.049 4.86C333.049 4.286 333.539 3.88 334.337 3.88C335.191 3.88 335.821 4.3 336.213 5.14L337.837 4.202C337.165 2.816 335.919 2.004 334.337 2.004C333.455 2.004 332.685 2.27 332.055 2.802C331.425 3.32 331.117 4.034 331.117 4.916C331.117 5.812 331.439 6.484 332.041 6.932C332.657 7.366 333.189 7.576 334.071 7.842C334.869 8.066 335.415 8.276 335.723 8.472C336.031 8.654 336.185 8.92 336.185 9.27C336.185 9.872 335.695 10.306 334.617 10.306C333.497 10.306 332.741 9.802 332.363 8.808L330.711 9.774C331.257 11.272 332.615 12.196 334.561 12.196ZM345.071 2.2L342.943 6.288L340.815 2.2L338.631 2.2L341.977 8.178L341.977 12L343.895 12L343.895 8.178L347.255 2.2L345.071 2.2ZM351.54 12.196C352.59 12.196 353.444 11.93 354.102 11.398C354.76 10.866 355.096 10.152 355.096 9.242C355.096 8.682 354.942 8.192 354.732 7.856C354.55 7.52 354.102 7.17 353.808 6.988C353.668 6.89 353.458 6.792 353.192 6.694C352.926 6.582 352.716 6.498 352.562 6.456L351.89 6.232C351.162 6.008 350.672 5.798 350.406 5.616C350.154 5.42 350.028 5.168 350.028 4.86C350.028 4.286 350.518 3.88 351.316 3.88C352.17 3.88 352.8 4.3 353.192 5.14L354.816 4.202C354.144 2.816 352.898 2.004 351.316 2.004C350.434 2.004 349.664 2.27 349.034 2.802C348.404 3.32 348.096 4.034 348.096 4.916C348.096 5.812 348.418 6.484 349.02 6.932C349.636 7.366 350.168 7.576 351.05 7.842C351.848 8.066 352.394 8.276 352.702 8.472C353.01 8.654 353.164 8.92 353.164 9.27C353.164 9.872 352.674 10.306 351.596 10.306C350.476 10.306 349.72 9.802 349.342 8.808L347.69 9.774C348.236 11.272 349.594 12.196 351.54 12.196ZM355.833 2.2L355.833 4.048L358.465 4.048L358.465 12L360.397 12L360.397 4.048L363.043 4.048L363.043 2.2L355.833 2.2ZM366.613 7.954L370.323 7.954L370.323 6.134L366.613 6.134L366.613 4.048L370.673 4.048L370.673 2.2L364.681 2.2L364.681 12L370.743 12L370.743 10.152L366.613 10.152L366.613 7.954ZM380.267 2.2L377.467 6.834L374.653 2.2L372.665 2.2L372.665 12L374.597 12L374.597 5.658L377.355 10.194L377.579 10.194L380.337 5.644L380.337 12L382.255 12L382.255 2.2L380.267 2.2ZM396.947 10.726C397.941 9.732 398.431 8.528 398.431 7.1C398.431 5.672 397.941 4.468 396.947 3.488C395.953 2.494 394.749 2.004 393.335 2.004C391.921 2.004 390.717 2.494 389.723 3.488C388.743 4.468 388.253 5.672 388.253 7.1C388.253 8.528 388.743 9.732 389.723 10.726C390.717 11.706 391.921 12.196 393.335 12.196C394.749 12.196 395.953 11.706 396.947 10.726ZM391.081 9.41C390.479 8.808 390.171 8.038 390.171 7.1C390.171 6.162 390.479 5.392 391.081 4.79C391.683 4.188 392.439 3.88 393.335 3.88C394.231 3.88 394.987 4.188 395.589 4.79C396.191 5.392 396.499 6.162 396.499 7.1C396.499 8.038 396.191 8.808 395.589 9.41C394.987 10.012 394.231 10.306 393.335 10.306C392.439 10.306 391.683 10.012 391.081 9.41ZM406.201 2.2L400.349 2.2L400.349 12L402.281 12L402.281 8.22L406.089 8.22L406.089 6.372L402.281 6.372L402.281 4.048L406.201 4.048L406.201 2.2ZM419.691 12L417.521 8.304C418.655 7.786 419.411 6.666 419.411 5.448C419.411 4.552 419.089 3.782 418.459 3.152C417.829 2.522 417.059 2.2 416.149 2.2L412.229 2.2L412.229 12L414.161 12L414.161 8.598L415.631 8.598L417.605 12L419.691 12ZM416.149 4.006C416.877 4.006 417.479 4.65 417.479 5.448C417.479 6.246 416.877 6.904 416.149 6.904L414.161 6.904L414.161 4.006L416.149 4.006ZM423.32 7.954L427.03 7.954L427.03 6.134L423.32 6.134L423.32 4.048L427.38 4.048L427.38 2.2L421.388 2.2L421.388 12L427.45 12L427.45 10.152L423.32 10.152L423.32 7.954ZM433.952 12.196C435.744 12.196 437.326 11.3 438.166 9.886L436.5 8.92C436.038 9.774 435.072 10.306 433.952 10.306C433 10.306 432.23 10.012 431.642 9.41C431.068 8.808 430.774 8.038 430.774 7.1C430.774 6.148 431.068 5.378 431.642 4.776C432.23 4.174 433 3.88 433.952 3.88C435.072 3.88 436.01 4.398 436.5 5.28L438.166 4.314C437.326 2.9 435.73 2.004 433.952 2.004C432.482 2.004 431.264 2.494 430.298 3.474C429.332 4.44 428.856 5.658 428.856 7.1C428.856 8.542 429.332 9.746 430.298 10.726C431.264 11.706 432.482 12.196 433.952 12.196ZM448.063 10.726C449.057 9.732 449.547 8.528 449.547 7.1C449.547 5.672 449.057 4.468 448.063 3.488C447.069 2.494 445.865 2.004 444.451 2.004C443.037 2.004 441.833 2.494 440.839 3.488C439.859 4.468 439.369 5.672 439.369 7.1C439.369 8.528 439.859 9.732 440.839 10.726C441.833 11.706 443.037 12.196 444.451 12.196C445.865 12.196 447.069 11.706 448.063 10.726ZM442.197 9.41C441.595 8.808 441.287 8.038 441.287 7.1C441.287 6.162 441.595 5.392 442.197 4.79C442.799 4.188 443.555 3.88 444.451 3.88C445.347 3.88 446.103 4.188 446.705 4.79C447.307 5.392 447.615 6.162 447.615 7.1C447.615 8.038 447.307 8.808 446.705 9.41C446.103 10.012 445.347 10.306 444.451 10.306C443.555 10.306 442.799 10.012 442.197 9.41ZM458.927 12L456.757 8.30401C457.891 7.786 458.647 6.666 458.647 5.448C458.647 4.55201 458.325 3.782 457.695 3.152C457.065 2.522 456.295 2.2 455.385 2.2L451.465 2.2L451.465 12L453.397 12L453.397 8.598L454.867 8.598L456.841 12L458.927 12ZM455.385 4.006C456.113 4.006 456.715 4.65 456.715 5.448C456.715 6.246 456.113 6.904 455.385 6.904L453.397 6.904L453.397 4.006L455.385 4.006ZM460.624 2.2L460.624 12L464.516 12C465.86 12 466.98 11.524 467.876 10.586C468.786 9.64801 469.234 8.48601 469.234 7.10001C469.234 5.71401 468.786 4.55201 467.876 3.614C466.98 2.67601 465.86 2.2 464.516 2.2L460.624 2.2ZM462.556 10.152L462.556 4.04801L464.516 4.04801C465.37 4.04801 466.056 4.328 466.588 4.90201C467.12 5.46201 467.386 6.19001 467.386 7.10001C467.386 8.01001 467.12 8.73801 466.588 9.31201C466.056 9.87201 465.37 10.152 464.516 10.152L462.556 10.152Z" fill="#54747E"/>
<path d="M68.3849 6.918C69.0009 6.428 69.3089 5.77 69.3089 4.958C69.3089 4.16 69.0149 3.502 68.4409 2.984C67.8669 2.466 67.1669 2.2 66.3269 2.2L62.4629 2.2L62.4629 12L66.6209 12C67.4749 12 68.2029 11.734 68.7909 11.202C69.3789 10.67 69.6729 9.984 69.6729 9.158C69.6729 8.164 69.2389 7.408 68.3849 6.918ZM66.3269 4.006C66.9429 4.006 67.3769 4.468 67.3769 5.084C67.3769 5.7 66.9289 6.162 66.3269 6.162L64.3949 6.162L64.3949 4.006L66.3269 4.006ZM64.3949 10.194L64.3949 7.884L66.6209 7.884C67.2789 7.884 67.7549 8.374 67.7549 9.032C67.7549 9.704 67.2789 10.194 66.6209 10.194L64.3949 10.194ZM75.0851 12.196C76.1911 12.196 77.0871 11.888 77.7871 11.272C78.4871 10.656 78.8371 9.83 78.8371 8.794L78.8371 2.2L76.9051 2.2L76.9051 8.64C76.9051 9.662 76.3311 10.306 75.0851 10.306C73.8391 10.306 73.2651 9.662 73.2651 8.64L73.2651 2.2L71.3471 2.2L71.3471 8.794C71.3471 9.83 71.6971 10.656 72.3971 11.272C73.0971 11.888 73.9931 12.196 75.0851 12.196ZM81.1376 12L83.0696 12L83.0696 2.2L81.1376 2.2L81.1376 12ZM87.3757 2.2L85.4437 2.2L85.4437 12L91.1137 12L91.1137 10.152L87.3757 10.152L87.3757 2.2ZM92.7713 2.2L92.7713 12L96.6633 12C98.0073 12 99.1273 11.524 100.023 10.586C100.933 9.648 101.381 8.486 101.381 7.1C101.381 5.714 100.933 4.552 100.023 3.614C99.1273 2.676 98.0073 2.2 96.6633 2.2L92.7713 2.2ZM94.7033 10.152L94.7033 4.048L96.6633 4.048C97.5173 4.048 98.2033 4.328 98.7353 4.902C99.2673 5.462 99.5333 6.19 99.5333 7.1C99.5333 8.01 99.2673 8.738 98.7353 9.312C98.2033 9.872 97.5173 10.152 96.6633 10.152L94.7033 10.152ZM103.312 12L105.244 12L105.244 2.2L103.312 2.2L103.312 12ZM113.288 8.178L109.088 2.2L107.618 2.2L107.618 12L109.55 12L109.55 6.008L113.75 12L115.22 12L115.22 2.2L113.288 2.2L113.288 8.178ZM122.302 6.736L122.302 8.444L125.27 8.444C124.92 9.606 123.912 10.306 122.414 10.306C121.406 10.306 120.594 10.012 119.978 9.41C119.376 8.808 119.068 8.038 119.068 7.114C119.068 6.176 119.362 5.406 119.964 4.804C120.566 4.188 121.336 3.88 122.274 3.88C123.436 3.88 124.444 4.44 124.906 5.238L126.558 4.286C125.718 2.9 124.122 2.004 122.288 2.004C120.832 2.004 119.614 2.494 118.62 3.488C117.64 4.482 117.15 5.686 117.15 7.114C117.15 8.528 117.64 9.732 118.634 10.726C119.628 11.706 120.888 12.196 122.4 12.196C123.814 12.196 124.976 11.762 125.872 10.894C126.768 10.026 127.216 8.892 127.216 7.492L127.216 6.736L122.302 6.736ZM133.21 2.2L133.21 12L137.102 12C138.446 12 139.566 11.524 140.462 10.586C141.372 9.648 141.82 8.486 141.82 7.1C141.82 5.714 141.372 4.552 140.462 3.614C139.566 2.676 138.446 2.2 137.102 2.2L133.21 2.2ZM135.142 10.152L135.142 4.048L137.102 4.048C137.956 4.048 138.642 4.328 139.174 4.902C139.706 5.462 139.972 6.19 139.972 7.1C139.972 8.01 139.706 8.738 139.174 9.312C138.642 9.872 137.956 10.152 137.102 10.152L135.142 10.152ZM151.795 12L148.351 2.2L145.957 2.2L142.527 12L144.613 12L145.201 10.236L149.107 10.236L149.695 12L151.795 12ZM147.161 4.426L148.505 8.43L145.817 8.43L147.161 4.426ZM151.868 2.2L151.868 4.048L154.5 4.048L154.5 12L156.432 12L156.432 4.048L159.078 4.048L159.078 2.2L151.868 2.2ZM168.405 12L164.961 2.2L162.567 2.2L159.137 12L161.223 12L161.811 10.236L165.717 10.236L166.305 12L168.405 12ZM163.771 4.426L165.115 8.43L162.427 8.43L163.771 4.426Z" fill="#54747E"/>
<defs>
<clipPath id="clip0_830_14827">
<rect width="28.6798" height="28.7013" fill="white" transform="translate(725.494 147.608)"/>
</clipPath>
<clipPath id="clip1_830_14827">
<rect width="27.273" height="28.7013" fill="white" transform="translate(622.41 147.608)"/>
</clipPath>
<clipPath id="clip2_830_14827">
<rect width="26.6088" height="28.7013" fill="white" transform="translate(674.283 147.608)"/>
</clipPath>
<clipPath id="clip3_830_14827">
<rect width="28.7013" height="28.7013" fill="white" transform="translate(726.554 243.553)"/>
</clipPath>
<clipPath id="clip4_830_14827">
<rect width="28.7013" height="28.7013" fill="white" transform="translate(673.252 243.553)"/>
</clipPath>
<clipPath id="clip5_830_14827">
<rect width="28.7013" height="28.7013" fill="white" transform="translate(619.95 243.553)"/>
</clipPath>
<clipPath id="clip6_830_14827">
<rect width="26.2412" height="26.2412" fill="white" transform="translate(387.88 77.085)"/>
</clipPath>
<clipPath id="clip7_830_14827">
<rect width="26.2412" height="26.2412" fill="white" transform="translate(349.338 77.085)"/>
</clipPath>
<clipPath id="clip8_830_14827">
<rect width="19.8358" height="15.9353" fill="white" transform="translate(89.7206 53.7212) rotate(-1.20361)"/>
</clipPath>
<clipPath id="clip9_830_14827">
<rect width="19.8358" height="15.9353" fill="white" transform="translate(72.165 60.4736) rotate(-1.20361)"/>
</clipPath>
<clipPath id="clip10_830_14827">
<rect width="9.18024" height="13.3952" fill="white" transform="translate(143.507 248.18)"/>
</clipPath>
<clipPath id="clip11_830_14827">
<rect width="21.321" height="29.5213" fill="white" transform="translate(72.165 234.533)"/>
</clipPath>
</defs>
</svg>
