<svg width="334" height="542" viewBox="0 0 334 542" fill="none" xmlns="http://www.w3.org/2000/svg">
<path fill-rule="evenodd" clip-rule="evenodd" d="M31.3965 52.1277L166.961 104.719L302.526 52.3645L166.606 0L31.3965 52.1277Z" fill="#88CCCA"/>
<path fill-rule="evenodd" clip-rule="evenodd" d="M0 477.215L167 542L334 477.506L166.562 413L0 477.215Z" fill="#EFEFEF"/>
<path fill-rule="evenodd" clip-rule="evenodd" d="M31.3965 465.409L166.961 518L302.526 465.646L166.606 413.281L31.3965 465.409Z" fill="#88CCCA"/>
<path d="M271.971 243.334L302.526 231.505L302.526 255.181C293.603 251.715 271.971 243.334 271.971 243.334Z" fill="white"/>
<path d="M183.455 46.8876L207.516 37.3621V469.226L183.455 478.946L183.455 46.8876Z" fill="#00C8B5"/>
<path d="M183.456 45.6539V478.753L160.629 469.65L160.629 37.7844L183.456 45.6539Z" fill="#006058"/>
<path d="M160.629 37.8921L184.641 28.3794L207.516 37.3751L183.456 46.8876L160.629 37.8921Z" fill="#429A97"/>
<path d="M148.906 60.4601L172.967 50.9346V482.463L148.906 492.183V60.4601Z" fill="#00C8B5"/>
<path d="M148.907 60.3554L148.907 491.868L126.08 482.765L126.08 51.6248L148.907 60.3554Z" fill="#006058"/>
<path d="M126.08 51.4646L150.092 41.9519L172.968 50.9476L148.907 60.4601L126.08 51.4646Z" fill="#429A97"/>
<path fill-rule="evenodd" clip-rule="evenodd" d="M31.3965 256.35L166.961 308.941L302.526 256.587L166.606 204.222L31.3965 256.35Z" fill="#88CCCA"/>
<path fill-rule="evenodd" clip-rule="evenodd" d="M31 362.646L166.565 415.237L302 363L166.209 310.519L31 362.646Z" fill="#88CCCA"/>
<path fill-rule="evenodd" clip-rule="evenodd" d="M31.3965 254.831L166.961 307.422L302.526 255.068L166.606 202.704L31.3965 254.831Z" fill="#88CCCA"/>
<path fill-rule="evenodd" clip-rule="evenodd" d="M31 361.128L166.565 413.719L302 361.5L166.209 309L31 361.128Z" fill="#88CCCA"/>
<path fill-rule="evenodd" clip-rule="evenodd" d="M31 465.128L166.565 517.719L302 465.5L166.209 413L31 465.128Z" fill="#006058"/>
<path d="M93 333.435L61 343.935V372.896L93 360.483V333.435Z" fill="#006058"/>
<path d="M120 343.435L88 353.935V382.896L120 370.483V343.435Z" fill="#006058"/>
<path d="M220.5 342.435L139 373.434V402.396L220.5 369.483V342.435Z" fill="#006058"/>
<path d="M154 340L122 350.5L122.5 380L154 367.048V340Z" fill="#006058"/>
<path d="M109 341L123 345.5L122.5 380.08L109 375.08V341Z" fill="#4FA5A2"/>
<path d="M183 260.952L180 259.5L180.5 289L183 288V260.952Z" fill="#02B5A6"/>
<path d="M178 253.92L181 254.5L180.5 289L178 287.92L178 253.92Z" fill="#012C28"/>
<path d="M133 244.952L130 243.5L130.5 273L133 272V244.952Z" fill="#02B5A6"/>
<path d="M128 237.92L131 238.5L130.5 273L128 271.92L128 237.92Z" fill="#012C28"/>
<path d="M90 230.032L87 228.58L87.5 258.08L90 257.08V230.032Z" fill="#02B5A6"/>
<path d="M85 223L87.9999 223.58L87.5 258.08L85.0001 257L85 223Z" fill="#012C28"/>
<path d="M222 335.92L252 346.5L251.5 381.08L222 370V335.92Z" fill="#4FA5A2"/>
<path d="M254 323L284 333.58L283.5 368.161L254 357.08V323Z" fill="#006058"/>
<path d="M211 250.032L208 248.58L208.5 278.08L211 277.08V250.032Z" fill="#02B5A6"/>
<path d="M206 243L209 243.58L208.5 278.08L206 277L206 243Z" fill="#012C28"/>
<path d="M161 341.032L158 339.58L158.5 369.08L161 368.08V341.032Z" fill="#02B5A6"/>
<path d="M156 334L159 334.58L158.5 369.08L156 368L156 334Z" fill="#012C28"/>
<path d="M118 324.032L115 322.58L115.5 352.08L118 351.08V324.032Z" fill="#02B5A6"/>
<path d="M113 317L116 317.58L115.5 352.08L113 351L113 317Z" fill="#012C28"/>
<path d="M233 241.032L230 239.58L230.5 269.08L233 268.08V241.032Z" fill="#02B5A6"/>
<path d="M228 234L231 234.58L230.5 269.08L228 268L228 234Z" fill="#012C28"/>
<path d="M183 329.032L180 327.58L180.5 357.08L183 356.08V329.032Z" fill="#02B5A6"/>
<path d="M178 322L181 322.58L180.5 357.08L178 356L178 322Z" fill="#012C28"/>
<path d="M140 312.032L137 310.58L137.5 340.08L140 339.08V312.032Z" fill="#02B5A6"/>
<path d="M135 305L138 305.58L137.5 340.08L135 339L135 305Z" fill="#012C28"/>
<path d="M157 273.032L154 271.58L154.5 301.08L157 300.08V273.032Z" fill="#02B5A6"/>
<path d="M152 266L155 266.58L154.5 301.08L152 300L152 266Z" fill="#012C28"/>
<path d="M107 255.032L104 253.58L104.5 283.08L107 282.08V255.032Z" fill="#02B5A6"/>
<path d="M102 248L105 248.58L104.5 283.08L102 282L102 248Z" fill="#012C28"/>
<path d="M68 239.032L65 237.58L65.5 267.08L68 266.08V239.032Z" fill="#02B5A6"/>
<path d="M63 232L65.9999 232.58L65.5 267.08L63.0001 266L63 232Z" fill="#012C28"/>
<path d="M68 240.032L65 238.58L65.5 268.08L68 267.08V240.032Z" fill="#02B5A6"/>
<path d="M63 233L65.9999 233.58L65.5 268.08L63.0001 267L63 233Z" fill="#012C28"/>
<path d="M230 308.032L227 306.58L227.5 336.08L230 335.08V308.032Z" fill="#02B5A6"/>
<path d="M225 301L228 301.58L227.5 336.08L225 335L225 301Z" fill="#012C28"/>
<path d="M262 230.032L259 228.58L259.5 258.08L262 257.08V230.032Z" fill="#02B5A6"/>
<path d="M257 223L260 223.58L259.5 258.08L257 257L257 223Z" fill="#012C28"/>
<path d="M212 318.032L209 316.58L209.5 346.08L212 345.08V318.032Z" fill="#02B5A6"/>
<path d="M207 311L210 311.58L209.5 346.08L207 345L207 311Z" fill="#012C28"/>
<path d="M302.482 255.088V256.606L166.967 308.99V306.713L302.482 255.088Z" fill="#10867C"/>
<path d="M302 361.5V363L166.57 415.287V413.009L302 361.5Z" fill="#10867C"/>
<path d="M166.582 415.277V413.012L31 361V363.278L166.582 415.277Z" fill="#006058"/>
<path d="M167.016 390.778V388.512L31.4336 336.5V338.778L167.016 390.778Z" fill="#006058"/>
<path d="M302 337V338.5L167 390.778V388.5L302 337Z" fill="#10867C"/>
<path fill-rule="evenodd" clip-rule="evenodd" d="M31.3965 231.296L166.961 283.887L302.526 231.533L166.606 179.168L31.3965 231.296Z" fill="#88CCCA"/>
<path opacity="0.5" fill-rule="evenodd" clip-rule="evenodd" d="M31.3965 229.778L166.961 282.369L302.526 230.014L166.606 177.65L31.3965 229.778Z" fill="#88CCCA"/>
<path d="M31.3926 231.294L31.3926 229.779L34.6553 230.729L34.3041 232.393L31.3926 231.294Z" fill="#88CCCA"/>
<path d="M33.3651 255.571L34.4882 256.985V257.519L31.4043 256.357V254.821L33.3651 255.571Z" fill="#88CCCA"/>
<path d="M183.457 162.272L207.518 160.451V234.578L183.457 243.996V162.272Z" fill="#02B5A6"/>
<path d="M183.456 162.036V243.876L160.629 235.174V160.532L183.456 162.036Z" fill="#006058"/>
<path d="M148.906 160.105L172.967 158.174V248.003L148.906 257.604L148.906 160.105Z" fill="#02B5A6"/>
<path d="M148.907 164.847V257.604L126.08 248.235V163.178L148.907 164.847Z" fill="#67AFAD"/>
<path fill-rule="evenodd" clip-rule="evenodd" d="M206 62.4268L302.749 51V230.196L206 194.955V62.4268Z" fill="white"/>
<path fill-rule="evenodd" clip-rule="evenodd" d="M301.999 363L166.6 415.269L166.912 518.06L301.999 466V363Z" fill="#EEFFFE"/>
<path fill-rule="evenodd" clip-rule="evenodd" d="M294.889 270.525L174.715 317.101V330.975L294.889 284.512V270.525Z" fill="#D5F2F1"/>
<path fill-rule="evenodd" clip-rule="evenodd" d="M294.889 381.538L174.715 428.114V441.988L294.889 395.525V381.538Z" fill="#D5F2F1"/>
<path fill-rule="evenodd" clip-rule="evenodd" d="M294.889 437.053L174.715 483.629V497.503L294.889 451.04V437.053Z" fill="#D5F2F1"/>
<path fill-rule="evenodd" clip-rule="evenodd" d="M294.889 298.284L174.715 344.86V358.734L294.889 312.271V298.284Z" fill="#D5F2F1"/>
<path fill-rule="evenodd" clip-rule="evenodd" d="M294.889 409.295L174.715 455.871V469.745L294.889 423.282V409.295Z" fill="#D5F2F1"/>
<path fill-rule="evenodd" clip-rule="evenodd" d="M242.141 57.8943L287.118 75.0988V88.9725L242.141 71.8815V57.8943Z" fill="#B9E0DF"/>
<path fill-rule="evenodd" clip-rule="evenodd" d="M205.625 154.39L287.117 186.112V199.986L205.625 168.377V154.39Z" fill="#B9E0DF"/>
<path fill-rule="evenodd" clip-rule="evenodd" d="M204.689 97.5881L287.118 130.605V144.479L204.689 111.575V97.5881Z" fill="#B9E0DF"/>
<path fill-rule="evenodd" clip-rule="evenodd" d="M205.938 72.6204L287.118 102.858V116.732L205.938 86.6076V72.6204Z" fill="#B9E0DF"/>
<path fill-rule="evenodd" clip-rule="evenodd" d="M205.137 180.95L287.119 213.869V227.743L205.137 194.937V180.95Z" fill="#B9E0DF"/>
<path fill-rule="evenodd" clip-rule="evenodd" d="M204.377 125.052L287.118 158.363V172.236L204.377 139.04V125.052Z" fill="#B9E0DF"/>
<path d="M251 47.5803L248 49.0803L245.5 238.66L248 237.66L251 47.5803Z" fill="#00C8B5"/>
<path d="M245.5 47.0001L248.5 47.5803C247.328 122.202 246.672 164.039 245.5 238.66L243 237.58L245.5 47.0001Z" fill="#006058"/>
<path d="M230 56.1606L227 57.6606L224.5 247.241L227 246.241L230 56.1606Z" fill="#00C8B5"/>
<path d="M224.5 55.5804L227.5 56.1606C226.328 130.782 225.672 172.619 224.5 247.241L222 246.161L224.5 55.5804Z" fill="#006058"/>
<path d="M201 67.1606L198 68.6606L195.5 258.241L198 257.241L201 67.1606Z" fill="#00C8B5"/>
<path d="M195.5 66.5804L198.5 67.1606C197.328 141.782 196.672 183.619 195.5 258.241L193 257.161L195.5 66.5804Z" fill="#006058"/>
<path d="M179 76.1606L176 77.6606L173.5 267.241L176 266.241L179 76.1606Z" fill="#00C8B5"/>
<path d="M173.5 75.5804L176.5 76.1606C175.328 150.782 174.672 192.619 173.5 267.241L171 266.161L173.5 75.5804Z" fill="#006058"/>
<path d="M151 87.1606L148 88.6606L145.5 278.241L148 277.241L151 87.1606Z" fill="#02B5A6"/>
<path d="M145.5 86.5804L148.5 87.1606C147.328 161.782 146.672 203.619 145.5 278.241L143 277.161L145.5 86.5804Z" fill="#012C28"/>
<path d="M286 58L283 59.5L280.5 249.08L283 248.08L286 58Z" fill="#00C8B5"/>
<path d="M280.5 57.4198L283.5 58C282.328 132.621 281.672 174.459 280.5 249.08L278 248L280.5 57.4198Z" fill="#006058"/>
<path d="M265 66.5803L262 68.0803L259.5 257.66L262 256.66L265 66.5803Z" fill="#00C8B5"/>
<path d="M259.5 66.0001L262.5 66.5803C261.328 141.202 260.672 183.039 259.5 257.66L257 256.58L259.5 66.0001Z" fill="#006058"/>
<path d="M236 77.5803L233 79.0803L230.5 268.66L233 267.66L236 77.5803Z" fill="#00C8B5"/>
<path d="M230.5 77.0001L233.5 77.5803C232.328 152.202 231.672 194.039 230.5 268.66L228 267.58L230.5 77.0001Z" fill="#006058"/>
<path d="M214 86.5803L211 88.0803L208.5 277.66L211 276.66L214 86.5803Z" fill="#00C8B5"/>
<path d="M208.5 86.0001L211.5 86.5803C210.328 161.202 209.672 203.039 208.5 277.66L206 276.58L208.5 86.0001Z" fill="#006058"/>
<path d="M186 97.5803L183 99.0803L180.5 288.66L183 287.66L186 97.5803Z" fill="#00C8B5"/>
<path d="M180.5 97.0001L183.5 97.5803C182.328 172.202 181.672 214.039 180.5 288.66L178 287.58L180.5 97.0001Z" fill="#006058"/>
<path d="M160 99L157 100.5L154.5 300.66L157 299.66L160 99Z" fill="#02B5A6"/>
<path d="M154.5 99L157.5 99.5802C156.328 174.202 155.672 226.039 154.5 300.66L152 299.58L154.5 99Z" fill="#012C28"/>
<path d="M302.481 230.034V231.552L166.363 284.212V281.867L302.481 230.034Z" fill="#10867C"/>
<path d="M302.482 203V204.518L166.5 258.345V256L302.482 203Z" fill="#10867C"/>
<path d="M302.482 177V178.518L166.5 232.345V230L302.482 177Z" fill="#10867C"/>
<path d="M302.482 148V149.518L166.5 203.345V201L302.482 148Z" fill="#10867C"/>
<path d="M302.482 119V120.518L166.5 174.345V172L302.482 119Z" fill="#10867C"/>
<path d="M301.982 91V92.5184L166 146.345V144L301.982 91Z" fill="#10867C"/>
<path fill-rule="evenodd" clip-rule="evenodd" d="M302.501 256.5L167.016 309V388.5L302.001 337L302.501 256.5Z" fill="#EEFFFE"/>
<path fill-rule="evenodd" clip-rule="evenodd" d="M294.891 270.525L174.717 317.101V330.975L294.891 284.512V270.525Z" fill="#D5F2F1"/>
<path fill-rule="evenodd" clip-rule="evenodd" d="M294.891 381.538L174.717 428.114V441.988L294.891 395.525V381.538Z" fill="#D5F2F1"/>
<path fill-rule="evenodd" clip-rule="evenodd" d="M294.891 298.284L174.717 344.86V358.734L294.891 312.271V298.284Z" fill="#D5F2F1"/>
<path fill-rule="evenodd" clip-rule="evenodd" d="M294.891 409.295L174.717 455.871V469.745L294.891 423.283V409.295Z" fill="#D5F2F1"/>
<path fill-rule="evenodd" clip-rule="evenodd" d="M31 255.106L167 306.5V388.5L31 336.606V255.106Z" fill="#D5F2F1"/>
<path fill-rule="evenodd" clip-rule="evenodd" d="M36.8555 270.525L157.031 317.101V330.975L36.8555 284.512V270.525Z" fill="#B9E0DF"/>
<path fill-rule="evenodd" clip-rule="evenodd" d="M36.8555 381.538L157.031 428.114V441.988L36.8555 395.525V381.538Z" fill="#B9E0DF"/>
<path fill-rule="evenodd" clip-rule="evenodd" d="M36.8555 437.053L157.031 483.629V497.503L36.8555 451.04V437.053Z" fill="#B9E0DF"/>
<path fill-rule="evenodd" clip-rule="evenodd" d="M36.8555 298.284L157.031 344.86V358.734L36.8555 312.271V298.284Z" fill="#B9E0DF"/>
<path fill-rule="evenodd" clip-rule="evenodd" d="M36.8555 409.295L157.031 455.871V469.745L36.8555 423.283V409.295Z" fill="#B9E0DF"/>
<path fill-rule="evenodd" clip-rule="evenodd" d="M31 362.5L166.635 415.269L166.937 518.06L31 465.5V362.5Z" fill="#D5F2F1"/>
<path fill-rule="evenodd" clip-rule="evenodd" d="M36.8555 270.525L157.031 317.101V330.975L36.8555 284.512V270.525Z" fill="#B9E0DF"/>
<path fill-rule="evenodd" clip-rule="evenodd" d="M36.8555 381.538L157.031 428.114V441.988L36.8555 395.525V381.538Z" fill="#B9E0DF"/>
<path fill-rule="evenodd" clip-rule="evenodd" d="M36.8555 437.053L157.031 483.629V497.503L36.8555 451.04V437.053Z" fill="#B9E0DF"/>
<path fill-rule="evenodd" clip-rule="evenodd" d="M36.8555 298.284L157.031 344.86V358.734L36.8555 312.271V298.284Z" fill="#B9E0DF"/>
<path fill-rule="evenodd" clip-rule="evenodd" d="M36.8555 409.296L157.031 455.872V469.745L36.8555 423.283V409.296Z" fill="#B9E0DF"/>
<path opacity="0.5" fill-rule="evenodd" clip-rule="evenodd" d="M31 203.128L166.565 255.719L302.5 203L166.209 151L31 203.128Z" fill="#88CCCA"/>
<path opacity="0.5" fill-rule="evenodd" clip-rule="evenodd" d="M31 177.128L166.565 229.719L302.13 177.365L166.209 125L31 177.128Z" fill="#88CCCA"/>
<path opacity="0.5" fill-rule="evenodd" clip-rule="evenodd" d="M31 148.128L166.565 200.719L302.5 148L166.209 96L31 148.128Z" fill="#88CCCA"/>
<path opacity="0.5" fill-rule="evenodd" clip-rule="evenodd" d="M31 119.128L166.565 171.719L302.5 119L218.5 85L166.565 105L115 85L31 119.128Z" fill="#88CCCA"/>
<path opacity="0.5" fill-rule="evenodd" clip-rule="evenodd" d="M31 91.1277L166.565 143.719L302 91L251 71L166.565 105L80.5 71L31 91.1277Z" fill="#88CCCA"/>
<path fill-rule="evenodd" clip-rule="evenodd" d="M31.404 52.1267L166.763 104.709L167 309L31.0723 256.108L31.404 52.1267Z" fill="#D5F2F1"/>
<path fill-rule="evenodd" clip-rule="evenodd" d="M36.8555 72.2422L157.031 118.818V132.692L36.8555 86.2294V72.2422Z" fill="#B9E0DF"/>
<path fill-rule="evenodd" clip-rule="evenodd" d="M36.8555 183.255L157.031 229.831V243.705L36.8555 197.242V183.255Z" fill="#B9E0DF"/>
<path fill-rule="evenodd" clip-rule="evenodd" d="M36.8555 127.748L157.031 174.324V188.198L36.8555 141.736V127.748Z" fill="#B9E0DF"/>
<path fill-rule="evenodd" clip-rule="evenodd" d="M36.8555 238.77L157.031 285.346V299.22L36.8555 252.758V238.77Z" fill="#B9E0DF"/>
<path fill-rule="evenodd" clip-rule="evenodd" d="M36.8555 100.001L157.031 146.577V160.451L36.8555 113.988V100.001Z" fill="#B9E0DF"/>
<path fill-rule="evenodd" clip-rule="evenodd" d="M36.8555 211.012L157.031 257.588V271.462L36.8555 224.999V211.012Z" fill="#B9E0DF"/>
<path fill-rule="evenodd" clip-rule="evenodd" d="M36.8555 155.506L157.031 202.082V215.955L36.8555 169.493V155.506Z" fill="#B9E0DF"/>
<path fill-rule="evenodd" clip-rule="evenodd" d="M31.3965 52.1278L166.961 104.719L184.5 98L49.5 45L31.3965 52.1278Z" fill="#88CCCA"/>
<path fill-rule="evenodd" clip-rule="evenodd" d="M131.229 90.8467L166.818 104.703L302.443 52.3581L267.5 38.5L131.229 90.8467Z" fill="#88CCCA"/>
<path d="M247.11 480.58L245.5 479.5V456.96L275.09 445.23L276.7 446.31L247.11 480.58Z" fill="#006058"/>
<path d="M276.699 468.85L247.109 480.58V458.04L276.699 446.31V468.85Z" fill="#00C8B5"/>
<path d="M257.78 459.43L255.42 460.37V461.77L257.71 460.86V461.97L255.42 462.88V465.16L254.26 465.62V459.72L257.79 458.32V459.43H257.78Z" fill="white"/>
<path d="M261.42 462.89C260.57 463.23 259.84 463.22 259.24 462.87C258.65 462.51 258.35 461.9 258.35 461.04C258.35 460.18 258.65 459.34 259.24 458.51C259.83 457.68 260.56 457.09 261.42 456.75C262.28 456.41 263 456.42 263.6 456.78C264.2 457.13 264.49 457.74 264.49 458.6C264.49 459.46 264.2 460.3 263.6 461.14C263 461.97 262.28 462.55 261.42 462.89ZM261.42 461.75C261.96 461.54 262.42 461.18 262.78 460.67C263.14 460.16 263.33 459.63 263.33 459.06C263.33 458.49 263.14 458.11 262.78 457.89C262.42 457.67 261.96 457.67 261.42 457.89C260.88 458.11 260.42 458.47 260.06 458.98C259.7 459.49 259.51 460.02 259.51 460.59C259.51 461.16 259.7 461.54 260.06 461.76C260.42 461.98 260.88 461.97 261.42 461.76V461.75Z" fill="white"/>
<path d="M268.551 459.94L267.361 458.36L266.471 458.71V460.76L265.311 461.22V455.32L267.671 454.38C268.221 454.16 268.681 454.17 269.061 454.4C269.441 454.63 269.631 455.01 269.631 455.55C269.631 456.28 269.171 457.14 268.491 457.72L269.801 459.43L268.541 459.93L268.551 459.94ZM266.481 455.95V457.7L267.681 457.22C268.121 457.05 268.481 456.51 268.481 456.02C268.481 455.53 268.121 455.3 267.681 455.47L266.481 455.95Z" fill="white"/>
<path d="M255.67 472.84L254.48 471.26L253.59 471.61V473.66L252.43 474.12V468.22L254.79 467.28C255.34 467.06 255.8 467.07 256.18 467.3C256.56 467.53 256.75 467.91 256.75 468.45C256.75 469.18 256.29 470.04 255.61 470.62L256.92 472.33L255.66 472.83L255.67 472.84ZM253.6 468.85V470.6L254.8 470.12C255.24 469.95 255.6 469.41 255.6 468.92C255.6 468.43 255.24 468.2 254.8 468.37L253.6 468.85Z" fill="white"/>
<path d="M258.769 470.49L261.259 469.5V470.61L257.609 472.06V466.16L261.219 464.73V465.84L258.769 466.81V468.07L260.999 467.18V468.28L258.769 469.17V470.49Z" fill="white"/>
<path d="M265.49 463.03L266.65 462.57V468.47L265.76 468.82L263.23 466.22V469.83L262.07 470.29V464.39L262.96 464.04L265.49 466.63V463.03Z" fill="white"/>
<path d="M271.66 460.59V461.7L270.07 462.33V467.12L268.91 467.58V462.79L267.32 463.42V462.31L271.66 460.59Z" fill="white"/>
<path d="M247.109 457.07L261.429 446.19L275.259 445.99" stroke="#006058" stroke-linecap="round" stroke-linejoin="round"/>
<path d="M242 500.45V453.89L277.03 440" stroke="#00C8B5" stroke-width="2" stroke-linecap="round" stroke-linejoin="round"/>
<path d="M277 356L323 356" stroke="#BECFD2" stroke-width="1.5"/>
<path d="M275 460L323 460" stroke="#BECFD2" stroke-width="1.5"/>
<path d="M245 183L323 183" stroke="#BECFD2" stroke-width="1.5"/>
<path d="M274 354.315C274 353.589 274.59 353 275.319 353L278.681 353C279.41 353 280 353.589 280 354.315L280 357.685C280 358.411 279.41 359 278.681 359L274 359L274 354.315Z" fill="#BECFD2"/>
<path d="M186 37H323" stroke="#BECFD2" stroke-width="1.5"/>
<path d="M274 457.818C274 457.092 274.59 456.503 275.319 456.503L278.681 456.503C279.41 456.503 280 457.092 280 457.818L280 461.188C280 461.914 279.41 462.503 278.681 462.503L274 462.503L274 457.818Z" fill="#BECFD2"/>
<path d="M242 181.315C242 180.589 242.59 180 243.319 180L246.681 180C247.41 180 248 180.589 248 181.315L248 184.685C248 185.411 247.41 186 246.681 186L242 186L242 181.315Z" fill="#BECFD2"/>
<path d="M181 35.315C181 34.5887 181.59 34 182.319 34L185.681 34C186.41 34 187 34.5887 187 35.315L187 38.685C187 39.4113 186.41 40 185.681 40L181 40L181 35.315Z" fill="#BECFD2"/>
</svg>
