<svg width="21" height="20" viewBox="0 0 21 20" fill="none" xmlns="http://www.w3.org/2000/svg">
<path d="M12.2913 8.13188C11.883 7.72355 11.4146 7.40021 10.9088 7.15771C10.5963 7.47188 10.423 7.89022 10.423 8.33355C10.423 8.51105 10.4563 8.67938 10.508 8.84021C10.7238 8.97438 10.9288 9.12605 11.113 9.31021C11.7421 9.94021 12.0896 10.7769 12.0896 11.6669C12.0896 12.5569 11.743 13.3944 11.1138 14.0244L8.6138 16.5235C7.3538 17.7835 5.1588 17.7835 3.89964 16.5235C3.26964 15.8935 2.92297 15.0569 2.92297 14.1669C2.92297 13.2769 3.26964 12.4402 3.8988 11.8102L5.65214 10.0569C5.50464 9.50105 5.42297 8.92438 5.42297 8.33355C5.42297 8.19855 5.4338 8.06438 5.44213 7.93105C5.36797 7.99688 5.29214 8.06105 5.22047 8.13188L2.72047 10.6319C1.7763 11.576 1.2563 12.831 1.2563 14.1669C1.2563 15.5027 1.7763 16.7577 2.72047 17.7019C3.66547 18.6469 4.92047 19.1669 6.2563 19.1669C7.59213 19.1669 8.84714 18.6469 9.79214 17.7019L12.2921 15.2027C13.2355 14.2577 13.7563 13.0027 13.7563 11.6669C13.7563 10.331 13.2355 9.07605 12.2913 8.13188Z" fill="#678C89"/>
<path d="M18.1255 2.2985C17.1805 1.3535 15.9255 0.833496 14.5896 0.833496C13.2538 0.833496 11.9988 1.3535 11.0538 2.2985L8.5538 4.79766C7.61046 5.74266 7.08963 6.99766 7.08963 8.3335C7.08963 9.66933 7.60963 10.9243 8.5538 11.8685C8.96213 12.2768 9.43046 12.6002 9.9363 12.8427C10.2496 12.5285 10.423 12.1102 10.423 11.6668C10.423 11.4852 10.3888 11.3127 10.3346 11.1485C10.1196 11.0193 9.91546 10.8718 9.7338 10.6902C9.1038 10.0602 8.7563 9.2235 8.7563 8.3335C8.7563 7.4435 9.10296 6.606 9.73213 5.976L12.2321 3.47683C12.8621 2.84683 13.6996 2.50016 14.5896 2.50016C15.4796 2.50016 16.3171 2.84683 16.9471 3.47683C17.5763 4.10683 17.923 4.9435 17.923 5.8335C17.923 6.7235 17.5763 7.56016 16.9471 8.19016L15.1913 9.946C15.3396 10.501 15.423 11.0768 15.423 11.6668C15.423 11.8018 15.413 11.9352 15.4055 12.0685C15.4796 12.0027 15.5555 11.9393 15.6263 11.8685L18.1263 9.3685C19.0696 8.42433 19.5896 7.16933 19.5896 5.8335C19.5896 4.49766 19.0696 3.24266 18.1255 2.2985Z" fill="#678C89"/>
</svg>
