<svg width="32" height="31" viewBox="0 0 32 31" fill="none" xmlns="http://www.w3.org/2000/svg">
<path d="M0.824219 8.68555H16.4538C18.1948 8.68592 19.8644 9.37777 21.0953 10.609C22.3263 11.8402 23.0178 13.5099 23.0178 15.2509C23.0178 16.9919 22.3263 18.6616 21.0953 19.8928C19.8644 21.124 18.1948 21.8158 16.4538 21.8162C15.5917 21.8162 14.7381 21.6464 13.9416 21.3164C13.1451 20.9865 12.4215 20.5029 11.8119 19.8932C11.2024 19.2835 10.7189 18.5598 10.3891 17.7632C10.0593 16.9667 9.88976 16.113 9.88994 15.2509V13.3628" stroke="#54747E" stroke-width="2" stroke-miterlimit="10"/>
<path d="M0.824219 1.38721H16.6009C18.4689 1.38739 20.3186 1.7555 22.0444 2.47053C23.7701 3.18555 25.3382 4.23348 26.6589 5.55449C27.9797 6.8755 29.0273 8.44372 29.7419 10.1696C30.4566 11.8955 30.8244 13.7452 30.8242 15.6132C30.8244 17.4813 30.4566 19.331 29.7419 21.0569C29.0273 22.7828 27.9797 24.351 26.6589 25.672C25.3382 26.993 23.7701 28.0409 22.0444 28.756C20.3186 29.471 18.4689 29.8391 16.6009 29.8393C12.8286 29.8386 9.21097 28.3394 6.54389 25.6715C3.87681 23.0037 2.37875 19.3856 2.37912 15.6132V13.5044" stroke="#54747E" stroke-width="2" stroke-miterlimit="10"/>
</svg>
