<svg width="26" height="35" viewBox="0 0 26 35" fill="none" xmlns="http://www.w3.org/2000/svg">
<path d="M24.2684 12.9795C24.2691 10.8685 23.6953 8.79706 22.6087 6.98718C21.5221 5.1773 19.9635 3.69718 18.1 2.70541C16.2364 1.71365 14.1381 1.24762 12.03 1.35726C9.92178 1.46689 7.88316 2.14807 6.13254 3.32779C4.38192 4.50752 2.98528 6.14133 2.09226 8.05416C1.19924 9.967 0.843499 12.0868 1.06316 14.1863C1.28282 16.2859 2.0696 18.2861 3.3392 19.9727C4.6088 21.6593 6.31337 22.9686 8.27026 23.7605V27.5236H16.9963V23.7622C19.1447 22.8938 20.9847 21.4035 22.2804 19.4823C23.576 17.5612 24.2683 15.2968 24.2684 12.9795V12.9795Z" stroke="#54747E" stroke-width="2" stroke-miterlimit="10" stroke-linecap="square"/>
<path d="M16.9956 27.5234V33.3414H8.26953V27.5234" stroke="#54747E" stroke-width="2" stroke-miterlimit="10" stroke-linecap="square"/>
<path d="M6.81738 12.9813C6.81738 11.4383 7.43035 9.95846 8.52143 8.86738C9.61251 7.77629 11.0923 7.16333 12.6354 7.16333" stroke="#54747E" stroke-width="2" stroke-miterlimit="10" stroke-linecap="square"/>
</svg>
