<svg width="35" height="35" viewBox="0 0 35 35" fill="none" xmlns="http://www.w3.org/2000/svg">
<path d="M17.3135 33.0488C26.15 33.0488 33.3135 25.8854 33.3135 17.0488C33.3135 8.21227 26.15 1.04883 17.3135 1.04883C8.47692 1.04883 1.31348 8.21227 1.31348 17.0488C1.31348 25.8854 8.47692 33.0488 17.3135 33.0488Z" stroke="#001D23" stroke-width="2" stroke-linejoin="round"/>
<path d="M15.2636 14.9985L9.59961 9.33447" stroke="#001D23" stroke-width="2" stroke-miterlimit="10" stroke-linecap="square"/>
<path d="M17.3134 19.9578C18.92 19.9578 20.2225 18.6554 20.2225 17.0487C20.2225 15.4421 18.92 14.1396 17.3134 14.1396C15.7067 14.1396 14.4043 15.4421 14.4043 17.0487C14.4043 18.6554 15.7067 19.9578 17.3134 19.9578Z" stroke="#001D23" stroke-width="2" stroke-miterlimit="10" stroke-linecap="square"/>
<path d="M17.3135 5.4126V7.59442" stroke="#001D23" stroke-width="2" stroke-miterlimit="10" stroke-linecap="square"/>
<path d="M25.5423 8.82031L23.999 10.3636" stroke="#001D23" stroke-width="2" stroke-miterlimit="10" stroke-linecap="square"/>
<path d="M28.9504 17.0488H26.7686" stroke="#001D23" stroke-width="2" stroke-miterlimit="10" stroke-linecap="square"/>
<path d="M7.85955 17.0488H5.67773" stroke="#001D23" stroke-width="2" stroke-miterlimit="10" stroke-linecap="square"/>
</svg>
