<svg width="334" height="577" viewBox="0 0 334 577" fill="none" xmlns="http://www.w3.org/2000/svg">
<path fill-rule="evenodd" clip-rule="evenodd" d="M31.3965 86.1297L166.961 138.721L302.526 86.3665L166.606 34.002L31.3965 86.1297Z" fill="#88CCCA"/>
<path fill-rule="evenodd" clip-rule="evenodd" d="M0 511.216L167 576.002L334 511.508L166.562 447.002L0 511.216Z" fill="#006058"/>
<path fill-rule="evenodd" clip-rule="evenodd" d="M31.3965 499.411L166.961 552.002L302.526 499.648L166.606 447.283L31.3965 499.411Z" fill="#88CCCA"/>
<path d="M183.455 80.8895L207.516 71.364V503.228L183.455 512.948L183.455 80.8895Z" fill="#D5F2F1"/>
<path d="M183.456 79.6558V512.755L160.629 503.652L160.629 71.7864L183.456 79.6558Z" fill="#67AFAD"/>
<path d="M160.629 71.894L184.641 62.3813L207.516 71.377L183.456 80.8895L160.629 71.894Z" fill="white"/>
<path d="M148.906 94.462L172.967 84.9365V516.465L148.906 526.185V94.462Z" fill="#D5F2F1"/>
<path d="M148.907 94.3574L148.907 525.87L126.08 516.767L126.08 85.6267L148.907 94.3574Z" fill="#67AFAD"/>
<path d="M126.08 85.4665L150.092 75.9539L172.968 84.9495L148.907 94.4621L126.08 85.4665Z" fill="white"/>
<path fill-rule="evenodd" clip-rule="evenodd" d="M31.3965 290.352L166.961 342.943L302.526 290.589L166.606 238.224L31.3965 290.352Z" fill="#88CCCA"/>
<path fill-rule="evenodd" clip-rule="evenodd" d="M31.3965 288.833L166.961 341.424L302.526 289.07L166.606 236.706L31.3965 288.833Z" fill="#006058"/>
<path d="M302.482 289.09V290.608L166.967 342.992V340.715L302.482 289.09Z" fill="#10867C"/>
<path fill-rule="evenodd" clip-rule="evenodd" d="M31.3945 265.298L166.959 317.889L302.524 265.534L166.604 213.17L31.3945 265.298Z" fill="#88CCCA"/>
<path fill-rule="evenodd" clip-rule="evenodd" d="M31.3945 263.78L166.959 316.371L302.524 264.016L166.604 211.652L31.3945 263.78Z" fill="#88CCCA"/>
<path d="M302.481 264.036V265.554L166.363 318.214V315.869L302.481 264.036Z" fill="#10867C"/>
<path d="M31.3906 265.296L31.3907 263.781L34.6533 264.731L34.3021 266.395L31.3906 265.296Z" fill="#88CCCA"/>
<path d="M33.3632 289.573L34.4863 290.987V291.521L31.4023 290.359V288.823L33.3632 289.573Z" fill="#88CCCA"/>
<path d="M183.457 196.274L207.518 194.453V268.58L183.457 277.997V196.274Z" fill="#D5F2F1"/>
<path d="M183.456 196.038V277.878L160.629 269.176V194.534L183.456 196.038Z" fill="#67AFAD"/>
<path d="M148.906 194.107L172.967 192.176V282.005L148.906 291.606L148.906 194.107Z" fill="#D5F2F1"/>
<path d="M148.907 198.849V291.606L126.08 282.237V197.18L148.907 198.849Z" fill="#67AFAD"/>
<path fill-rule="evenodd" clip-rule="evenodd" d="M205.777 96.2246L302.526 84.7979V263.993L205.777 228.753V96.2246Z" fill="white"/>
<path fill-rule="evenodd" clip-rule="evenodd" d="M304 290.002L167.341 342.58L167 552.002L303.985 499.585L304 290.002Z" fill="#EEFFFE"/>
<path fill-rule="evenodd" clip-rule="evenodd" d="M294.891 304.527L174.717 351.103V364.977L294.891 318.514V304.527Z" fill="#D5F2F1"/>
<path fill-rule="evenodd" clip-rule="evenodd" d="M294.891 415.54L174.717 462.116V475.99L294.891 429.527V415.54Z" fill="#D5F2F1"/>
<path fill-rule="evenodd" clip-rule="evenodd" d="M294.891 360.033L174.717 406.609V420.483L294.891 374.02V360.033Z" fill="#D5F2F1"/>
<path fill-rule="evenodd" clip-rule="evenodd" d="M294.891 471.055L174.717 517.631V531.505L294.891 485.042V471.055Z" fill="#D5F2F1"/>
<path fill-rule="evenodd" clip-rule="evenodd" d="M294.891 332.286L174.717 378.862V392.736L294.891 346.273V332.286Z" fill="#D5F2F1"/>
<path fill-rule="evenodd" clip-rule="evenodd" d="M294.891 443.297L174.717 489.873V503.747L294.891 457.285V443.297Z" fill="#D5F2F1"/>
<path fill-rule="evenodd" clip-rule="evenodd" d="M294.891 387.791L174.717 434.367V448.241L294.891 401.778V387.791Z" fill="#D5F2F1"/>
<path fill-rule="evenodd" clip-rule="evenodd" d="M31 290.002L167 342.775V552.002L31 499.709V290.002Z" fill="#D5F2F1"/>
<path fill-rule="evenodd" clip-rule="evenodd" d="M36.8555 304.527L157.031 351.103V364.977L36.8555 318.514V304.527Z" fill="#B9E0DF"/>
<path fill-rule="evenodd" clip-rule="evenodd" d="M36.8555 415.54L157.031 462.116V475.99L36.8555 429.527V415.54Z" fill="#B9E0DF"/>
<path fill-rule="evenodd" clip-rule="evenodd" d="M36.8555 360.033L157.031 406.609V420.483L36.8555 374.021V360.033Z" fill="#B9E0DF"/>
<path fill-rule="evenodd" clip-rule="evenodd" d="M36.8555 471.055L157.031 517.631V531.505L36.8555 485.042V471.055Z" fill="#B9E0DF"/>
<path fill-rule="evenodd" clip-rule="evenodd" d="M36.8555 332.286L157.031 378.862V392.736L36.8555 346.273V332.286Z" fill="#B9E0DF"/>
<path fill-rule="evenodd" clip-rule="evenodd" d="M36.8555 443.298L157.031 489.874V503.747L36.8555 457.285V443.298Z" fill="#B9E0DF"/>
<path fill-rule="evenodd" clip-rule="evenodd" d="M36.8555 387.791L157.031 434.367V448.241L36.8555 401.778V387.791Z" fill="#B9E0DF"/>
<path d="M271.971 277.336L302.526 265.507L302.526 289.183C293.603 285.717 271.971 277.336 271.971 277.336Z" fill="white"/>
<path fill-rule="evenodd" clip-rule="evenodd" d="M31.404 86.1287L166.763 138.711L166.39 342.737L31.0723 290.11L31.404 86.1287Z" fill="#D5F2F1"/>
<path fill-rule="evenodd" clip-rule="evenodd" d="M242.141 91.8963L287.118 109.101V122.975L242.141 105.883V91.8963Z" fill="#B9E0DF"/>
<path fill-rule="evenodd" clip-rule="evenodd" d="M205.625 188.392L287.117 220.114V233.988L205.625 202.379V188.392Z" fill="#B9E0DF"/>
<path fill-rule="evenodd" clip-rule="evenodd" d="M204.689 131.59L287.118 164.607V178.481L204.689 145.577V131.59Z" fill="#B9E0DF"/>
<path fill-rule="evenodd" clip-rule="evenodd" d="M205.938 106.622L287.118 136.86V150.734L205.938 120.61V106.622Z" fill="#B9E0DF"/>
<path fill-rule="evenodd" clip-rule="evenodd" d="M205.137 214.952L287.119 247.871V261.745L205.137 228.939V214.952Z" fill="#B9E0DF"/>
<path fill-rule="evenodd" clip-rule="evenodd" d="M204.377 159.054L287.118 192.365V206.238L204.377 173.042V159.054Z" fill="#B9E0DF"/>
<g opacity="0.8">
<path fill-rule="evenodd" clip-rule="evenodd" d="M302.526 86.1287L166.822 138.72L166.432 315.869L302.526 264.011V86.1287Z" fill="#EEFFFE"/>
</g>
<path fill-rule="evenodd" clip-rule="evenodd" d="M294.891 106.244L174.717 152.82V166.694L294.891 120.231V106.244Z" fill="#D5F2F1"/>
<path fill-rule="evenodd" clip-rule="evenodd" d="M294.891 217.257L174.717 263.833V277.707L294.891 231.244V217.257Z" fill="#D5F2F1"/>
<path fill-rule="evenodd" clip-rule="evenodd" d="M294.891 161.75L174.717 208.326V222.2L294.891 175.737V161.75Z" fill="#D5F2F1"/>
<path fill-rule="evenodd" clip-rule="evenodd" d="M294.891 134.003L174.717 180.579V194.453L294.891 147.99V134.003Z" fill="#D5F2F1"/>
<path fill-rule="evenodd" clip-rule="evenodd" d="M294.891 245.014L174.717 291.59V305.464L294.891 259.001V245.014Z" fill="#D5F2F1"/>
<path fill-rule="evenodd" clip-rule="evenodd" d="M294.891 189.508L174.717 236.084V249.958L294.891 203.495V189.508Z" fill="#D5F2F1"/>
<path fill-rule="evenodd" clip-rule="evenodd" d="M36.8555 106.244L157.031 152.82V166.694L36.8555 120.231V106.244Z" fill="#B9E0DF"/>
<path fill-rule="evenodd" clip-rule="evenodd" d="M46 105.002L144.791 143.35V176.402L46 138.168V105.002Z" fill="#006058"/>
<path fill-rule="evenodd" clip-rule="evenodd" d="M36.8555 217.257L157.031 263.833V277.707L36.8555 231.244V217.257Z" fill="#B9E0DF"/>
<path fill-rule="evenodd" clip-rule="evenodd" d="M36.8555 161.75L157.031 208.326V222.2L36.8555 175.737V161.75Z" fill="#B9E0DF"/>
<path fill-rule="evenodd" clip-rule="evenodd" d="M36.8555 272.772L157.031 319.349V333.222L36.8555 286.76V272.772Z" fill="#B9E0DF"/>
<path fill-rule="evenodd" clip-rule="evenodd" d="M36.8555 134.003L157.031 180.579V194.453L36.8555 147.99V134.003Z" fill="#B9E0DF"/>
<path fill-rule="evenodd" clip-rule="evenodd" d="M36.8555 245.014L157.031 291.59V305.464L36.8555 259.002V245.014Z" fill="#B9E0DF"/>
<path fill-rule="evenodd" clip-rule="evenodd" d="M36.8555 189.508L157.031 236.084V249.957L36.8555 203.495V189.508Z" fill="#B9E0DF"/>
<path fill-rule="evenodd" clip-rule="evenodd" d="M31.3965 86.1298L166.961 138.721L184.5 132.002L49.5 79.002L31.3965 86.1298Z" fill="#88CCCA"/>
<path fill-rule="evenodd" clip-rule="evenodd" d="M131.229 124.849L166.818 138.705L302.443 86.36L267.5 72.502L131.229 124.849Z" fill="#88CCCA"/>
<path d="M245 532.502L311.307 506.806C313.231 506.06 314.5 504.208 314.5 502.144V460.002C314.5 457.241 316.739 455.002 319.5 455.002H325" stroke="#BECFD2" stroke-width="1.5"/>
<path d="M221 305L325 305" stroke="#BECFD2" stroke-width="1.5"/>
<path d="M137 156L325 156" stroke="#BECFD2" stroke-width="1.5"/>
<path d="M184 68.002V6.00195C184 3.24053 186.239 1.00195 189 1.00195L325.5 1.00195" stroke="#BECFD2" stroke-width="1.5"/>
<path d="M218 303.317C218 302.591 218.59 302.002 219.319 302.002L222.681 302.002C223.41 302.002 224 302.591 224 303.317L224 306.687C224 307.413 223.41 308.002 222.681 308.002L218 308.002L218 303.317Z" fill="#BECFD2"/>
<path d="M242 530.317C242 529.591 242.59 529.002 243.319 529.002L246.681 529.002C247.41 529.002 248 529.591 248 530.317L248 533.687C248 534.413 247.41 535.002 246.681 535.002L242 535.002L242 530.317Z" fill="#BECFD2"/>
<path d="M134 154.317C134 153.591 134.59 153.002 135.319 153.002L138.681 153.002C139.41 153.002 140 153.591 140 154.317L140 157.687C140 158.413 139.41 159.002 138.681 159.002L134 159.002L134 154.317Z" fill="#BECFD2"/>
<path d="M181 69.3169C181 68.5907 181.59 68.002 182.319 68.002L185.681 68.002C186.41 68.002 187 68.5907 187 69.3169L187 72.687C187 73.4132 186.41 74.002 185.681 74.002L181 74.002L181 69.3169Z" fill="#BECFD2"/>
</svg>
