<svg width="335" height="562" viewBox="0 0 335 562" fill="none" xmlns="http://www.w3.org/2000/svg">
<path fill-rule="evenodd" clip-rule="evenodd" d="M28.5176 52.3488L164.658 105.163L300.797 52.5867L164.3 0L28.5176 52.3488Z" fill="#88CCCA"/>
<path fill-rule="evenodd" clip-rule="evenodd" d="M0 479.404L167.281 544.299L334.561 479.697L166.842 415.081L0 479.404Z" fill="#EFEFEF"/>
<path fill-rule="evenodd" clip-rule="evenodd" d="M28.5156 467.383L164.656 520.197L300.795 467.62L164.298 415.034L28.5156 467.383Z" fill="#88CCCA"/>
<path d="M181.223 47.0866L205.385 37.5208V471.217L181.223 480.978L181.223 47.0866Z" fill="#D5F2F1"/>
<path d="M181.221 45.8477V480.784L158.298 471.642L158.298 37.9448L181.221 45.8477Z" fill="#67AFAD"/>
<path d="M158.298 38.0528L182.411 28.4998L205.384 37.5336L181.221 47.0865L158.298 38.0528Z" fill="white"/>
<path d="M146.526 60.717L170.689 51.1511V484.51L146.526 494.271V60.717Z" fill="#D5F2F1"/>
<path d="M146.527 60.6119L146.526 493.955L123.603 484.813L123.603 51.8442L146.527 60.6119Z" fill="#67AFAD"/>
<path d="M123.603 51.6831L147.716 42.1301L170.689 51.164L146.526 60.7168L123.603 51.6831Z" fill="white"/>
<path fill-rule="evenodd" clip-rule="evenodd" d="M28.5156 232.278L164.656 285.092L300.795 232.515L164.298 179.929L28.5156 232.278Z" fill="#88CCCA"/>
<path fill-rule="evenodd" clip-rule="evenodd" d="M28.5156 230.753L164.656 283.567L300.795 230.99L164.298 178.404L28.5156 230.753Z" fill="#88CCCA"/>
<path d="M300.751 231.01V232.535L164.661 285.141V282.854L300.751 231.01Z" fill="#4C516A"/>
<path d="M68.5117 232.276L68.5118 230.754L71.7883 231.709L71.4356 233.38L68.5117 232.276Z" fill="#88CCCA"/>
<path d="M70.4936 256.656L71.6214 258.076V258.612L68.5244 257.445V255.903L70.4936 256.656Z" fill="#88CCCA"/>
<path d="M181.222 162.96L205.384 161.132V235.573L181.222 245.03V162.96Z" fill="#D5F2F1"/>
<path d="M181.221 162.724V244.911L158.298 236.172V161.213L181.221 162.724Z" fill="#67AFAD"/>
<path d="M146.526 160.785L170.689 158.845V249.055L146.526 258.697L146.526 160.785Z" fill="#D5F2F1"/>
<path d="M146.527 165.547V258.697L123.603 249.288V163.87L146.527 165.547Z" fill="#67AFAD"/>
<path fill-rule="evenodd" clip-rule="evenodd" d="M203.638 62.4867L300.797 51.0115V231.466L203.638 195.577V62.4867Z" fill="white"/>
<path fill-rule="evenodd" clip-rule="evenodd" d="M300.797 257.6L164.517 310.337L164.177 520.394L300.782 467.818L300.797 257.6Z" fill="#EEFFFE"/>
<path fill-rule="evenodd" clip-rule="evenodd" d="M293.128 271.673L172.444 318.446V332.379L293.128 285.719V271.673Z" fill="#D5F2F1"/>
<path fill-rule="evenodd" clip-rule="evenodd" d="M293.128 383.156L172.444 429.93V443.863L293.128 397.203V383.156Z" fill="#D5F2F1"/>
<path fill-rule="evenodd" clip-rule="evenodd" d="M293.128 327.415L172.444 374.188V388.121L293.128 341.461V327.415Z" fill="#D5F2F1"/>
<path fill-rule="evenodd" clip-rule="evenodd" d="M293.128 438.907L172.444 485.681V499.613L293.128 452.954V438.907Z" fill="#D5F2F1"/>
<path fill-rule="evenodd" clip-rule="evenodd" d="M293.128 299.55L172.444 346.323V360.256L293.128 313.596V299.55Z" fill="#D5F2F1"/>
<path fill-rule="evenodd" clip-rule="evenodd" d="M293.128 411.031L172.444 457.805V471.738L293.128 425.078V411.031Z" fill="#D5F2F1"/>
<path fill-rule="evenodd" clip-rule="evenodd" d="M293.128 355.29L172.444 402.063V415.996L293.128 369.336V355.29Z" fill="#D5F2F1"/>
<path fill-rule="evenodd" clip-rule="evenodd" d="M28.1914 257.302L164.811 310.362V520.725L28.1914 468.149V257.302Z" fill="#D5F2F1"/>
<path fill-rule="evenodd" clip-rule="evenodd" d="M33.999 271.673L154.685 318.446V332.379L33.999 285.719V271.673Z" fill="#B9E0DF"/>
<path fill-rule="evenodd" clip-rule="evenodd" d="M33.999 383.156L154.685 429.93V443.862L33.999 397.203V383.156Z" fill="#B9E0DF"/>
<path fill-rule="evenodd" clip-rule="evenodd" d="M33.999 327.414L154.685 374.188V388.121L33.999 341.461V327.414Z" fill="#B9E0DF"/>
<path fill-rule="evenodd" clip-rule="evenodd" d="M33.998 438.907L154.684 485.68V499.613L33.998 452.953V438.907Z" fill="#B9E0DF"/>
<path fill-rule="evenodd" clip-rule="evenodd" d="M33.999 299.549L154.685 346.323V360.256L33.999 313.596V299.549Z" fill="#B9E0DF"/>
<path fill-rule="evenodd" clip-rule="evenodd" d="M33.999 411.031L154.685 457.805V471.738L33.999 425.078V411.031Z" fill="#B9E0DF"/>
<path fill-rule="evenodd" clip-rule="evenodd" d="M33.999 355.289L154.685 402.063V415.996L33.999 369.336V355.289Z" fill="#B9E0DF"/>
<path d="M270.59 244.352C268.457 243.285 289.4 236.205 300.139 232.799V256.127C291.178 252.646 272.723 245.418 270.59 244.352Z" fill="white"/>
<path fill-rule="evenodd" clip-rule="evenodd" d="M28.5245 52.3479L164.458 105.153L164.822 310.373L28.1914 257.194L28.5245 52.3479Z" fill="#D5F2F1"/>
<path fill-rule="evenodd" clip-rule="evenodd" d="M240.154 58.1397L285.322 75.4171V89.3497L240.154 72.1862V58.1397Z" fill="#B9E0DF"/>
<path fill-rule="evenodd" clip-rule="evenodd" d="M203.484 155.045L285.322 186.901V200.834L203.484 169.091V155.045Z" fill="#B9E0DF"/>
<path fill-rule="evenodd" clip-rule="evenodd" d="M202.544 98.0017L285.322 131.159V145.091L202.544 112.048V98.0017Z" fill="#B9E0DF"/>
<path fill-rule="evenodd" clip-rule="evenodd" d="M203.798 72.9282L285.323 103.294V117.227L203.798 86.9748V72.9282Z" fill="#B9E0DF"/>
<path fill-rule="evenodd" clip-rule="evenodd" d="M202.993 181.718L285.323 214.776V228.709L202.993 195.764V181.718Z" fill="#B9E0DF"/>
<path fill-rule="evenodd" clip-rule="evenodd" d="M202.23 125.583L285.322 159.034V172.967L202.23 139.63V125.583Z" fill="#B9E0DF"/>
<path fill-rule="evenodd" clip-rule="evenodd" d="M300.796 52.3479L164.517 105.162L164.697 310.3L300.796 258.374V52.3479Z" fill="#EEFFFE"/>
<path fill-rule="evenodd" clip-rule="evenodd" d="M164.679 236.466V259.139L300.823 207.319L268.25 196.282L164.679 236.466Z" fill="#88CCCA"/>
<path d="M270.268 195.584L300.823 183.755L300.823 207.431C291.9 203.965 270.268 195.584 270.268 195.584Z" fill="white"/>
<path d="M300.779 207.338V208.857L164.68 261.36V259.082L300.779 207.338Z" fill="#10867C"/>
<path opacity="0.3" d="M271.793 203.065C275.003 204.275 280.063 204.325 283.103 203.185C286.143 202.045 286.013 200.145 282.813 198.945C279.613 197.745 274.553 197.685 271.503 198.825C268.453 199.965 268.583 201.865 271.783 203.065H271.793Z" fill="white"/>
<path opacity="0.2" d="M270.622 199.225L286.032 191.325L287.482 193.265L285.272 201.485C285.092 202.115 284.392 202.715 283.132 203.185C280.092 204.325 275.022 204.275 271.822 203.065C268.972 201.995 268.562 200.375 270.652 199.225H270.622Z" fill="#FFC700"/>
<path d="M290.158 188.25L291.6 190.169L287.474 193.268L286.032 191.349L290.158 188.25Z" fill="#006058"/>
<path opacity="0.3" d="M199.103 245.065C195.893 246.275 190.833 246.325 187.793 245.185C184.753 244.045 184.883 242.145 188.083 240.945C191.283 239.745 196.343 239.685 199.393 240.825C202.443 241.965 202.313 243.865 199.113 245.065H199.103Z" fill="white"/>
<path opacity="0.2" d="M200.274 241.225L184.864 233.325L183.414 235.265L185.624 243.485C185.804 244.115 186.504 244.715 187.764 245.185C190.804 246.325 195.874 246.275 199.074 245.065C201.924 243.995 202.334 242.375 200.244 241.225H200.274Z" fill="#FFC700"/>
<path d="M180.738 230.25L179.297 232.169L183.423 235.268L184.864 233.349L180.738 230.25Z" fill="#006058"/>
<path opacity="0.3" d="M230.103 233.065C226.893 234.275 221.833 234.325 218.793 233.185C215.753 232.045 215.883 230.145 219.083 228.945C222.283 227.745 227.343 227.685 230.393 228.825C233.443 229.965 233.313 231.865 230.113 233.065H230.103Z" fill="white"/>
<path opacity="0.2" d="M231.274 229.225L215.864 221.325L214.414 223.265L216.624 231.485C216.804 232.115 217.504 232.715 218.764 233.185C221.804 234.325 226.874 234.275 230.074 233.065C232.924 231.995 233.334 230.375 231.244 229.225H231.274Z" fill="#FFC700"/>
<path d="M211.738 218.25L210.297 220.169L214.423 223.268L215.864 221.349L211.738 218.25Z" fill="#006058"/>
<path opacity="0.3" d="M261.103 221.065C257.893 222.275 252.833 222.325 249.793 221.185C246.753 220.045 246.883 218.145 250.083 216.945C253.283 215.745 258.343 215.685 261.393 216.825C264.443 217.965 264.313 219.865 261.113 221.065H261.103Z" fill="white"/>
<path opacity="0.2" d="M262.274 217.225L246.864 209.325L245.414 211.265L247.624 219.485C247.804 220.115 248.504 220.715 249.764 221.185C252.804 222.325 257.874 222.275 261.074 221.065C263.924 219.995 264.334 218.375 262.244 217.225H262.274Z" fill="#FFC700"/>
<path d="M242.738 206.25L241.297 208.169L245.423 211.268L246.864 209.349L242.738 206.25Z" fill="#006058"/>
<path opacity="0.3" d="M290.103 210.065C286.893 211.275 281.833 211.325 278.793 210.185C275.753 209.045 275.883 207.145 279.083 205.945C282.283 204.745 287.343 204.685 290.393 205.825C293.443 206.965 293.313 208.865 290.113 210.065H290.103Z" fill="white"/>
<path opacity="0.2" d="M291.274 206.225L275.864 198.325L274.414 200.265L276.624 208.485C276.804 209.115 277.504 209.715 278.764 210.185C281.804 211.325 286.874 211.275 290.074 210.065C292.924 208.995 293.334 207.375 291.244 206.225H291.274Z" fill="#FFC700"/>
<path d="M271.738 195.25L270.297 197.169L274.423 200.268L275.864 198.349L271.738 195.25Z" fill="#006058"/>
<path opacity="0.3" d="M212.103 240.065C208.893 241.275 203.833 241.325 200.793 240.185C197.753 239.045 197.883 237.145 201.083 235.945C204.283 234.745 209.343 234.685 212.393 235.825C215.443 236.965 215.313 238.865 212.113 240.065H212.103Z" fill="white"/>
<path opacity="0.2" d="M213.274 236.225L197.864 228.325L196.414 230.265L198.624 238.485C198.804 239.115 199.504 239.715 200.764 240.185C203.804 241.325 208.874 241.275 212.074 240.065C214.924 238.995 215.334 237.375 213.244 236.225H213.274Z" fill="#FFC700"/>
<path d="M193.738 225.25L192.297 227.169L196.423 230.268L197.864 228.349L193.738 225.25Z" fill="#006058"/>
<path opacity="0.3" d="M243.103 228.065C239.893 229.275 234.833 229.325 231.793 228.185C228.753 227.045 228.883 225.145 232.083 223.945C235.283 222.745 240.343 222.685 243.393 223.825C246.443 224.965 246.313 226.865 243.113 228.065H243.103Z" fill="white"/>
<path opacity="0.2" d="M244.274 224.225L228.864 216.325L227.414 218.265L229.624 226.485C229.804 227.115 230.504 227.715 231.764 228.185C234.804 229.325 239.874 229.275 243.074 228.065C245.924 226.995 246.334 225.375 244.244 224.225H244.274Z" fill="#FFC700"/>
<path d="M224.738 213.25L223.297 215.169L227.423 218.268L228.864 216.349L224.738 213.25Z" fill="#006058"/>
<path opacity="0.3" d="M274.103 216.065C270.893 217.275 265.833 217.325 262.793 216.185C259.753 215.045 259.883 213.145 263.083 211.945C266.283 210.745 271.343 210.685 274.393 211.825C277.443 212.965 277.313 214.865 274.113 216.065H274.103Z" fill="white"/>
<path opacity="0.2" d="M275.274 212.225L259.864 204.325L258.414 206.265L260.624 214.485C260.804 215.115 261.504 215.715 262.764 216.185C265.804 217.325 270.874 217.275 274.074 216.065C276.924 214.995 277.334 213.375 275.244 212.225H275.274Z" fill="#FFC700"/>
<path d="M255.738 201.25L254.297 203.169L258.423 206.268L259.864 204.349L255.738 201.25Z" fill="#006058"/>
<path d="M174.297 235.25V232.25" stroke="#003E42"/>
<path d="M204.297 223.75V220.25" stroke="#003E42" stroke-linecap="round"/>
<path d="M233.297 212.25V209.25" stroke="#003E42" stroke-linecap="round"/>
<path d="M263.297 200.75V197.25" stroke="#003E42" stroke-linecap="round"/>
<path d="M293.297 189.25V186.25" stroke="#003E42" stroke-linecap="round"/>
<path d="M172.297 236.25L296.297 188.25" stroke="#003E42"/>
<path d="M300.778 182.284V183.803L164.661 236.462V234.118L300.778 182.284Z" fill="#10867C"/>
<path fill-rule="evenodd" clip-rule="evenodd" d="M293.128 72.5493L172.444 119.323V133.256L293.128 86.5959V72.5493Z" fill="#D5F2F1"/>
<path fill-rule="evenodd" clip-rule="evenodd" d="M293.128 128.291L172.444 175.064V188.997L293.128 142.337V128.291Z" fill="#D5F2F1"/>
<path fill-rule="evenodd" clip-rule="evenodd" d="M293.128 100.426L172.444 147.2V161.132L293.128 114.473V100.426Z" fill="#D5F2F1"/>
<path fill-rule="evenodd" clip-rule="evenodd" d="M293.128 239.783L172.444 286.557V300.49L293.128 253.83V239.783Z" fill="#D5F2F1"/>
<path fill-rule="evenodd" clip-rule="evenodd" d="M293.128 156.166L172.444 202.94V216.873L293.128 170.213V156.166Z" fill="#D5F2F1"/>
<path fill-rule="evenodd" clip-rule="evenodd" d="M33.999 72.5488L154.685 119.322V133.255L33.999 86.5954V72.5488Z" fill="#B9E0DF"/>
<path fill-rule="evenodd" clip-rule="evenodd" d="M33.999 184.032L154.685 230.806V244.739L33.999 198.079V184.032Z" fill="#B9E0DF"/>
<path fill-rule="evenodd" clip-rule="evenodd" d="M33.999 128.291L154.685 175.064V188.997L33.999 142.337V128.291Z" fill="#B9E0DF"/>
<path fill-rule="evenodd" clip-rule="evenodd" d="M33.999 239.783L154.685 286.557V300.489L33.999 253.83V239.783Z" fill="#B9E0DF"/>
<path fill-rule="evenodd" clip-rule="evenodd" d="M33.999 100.426L154.685 147.199V161.132L33.999 114.472V100.426Z" fill="#B9E0DF"/>
<path fill-rule="evenodd" clip-rule="evenodd" d="M33.999 211.908L154.685 258.681V272.614L33.999 225.954V211.908Z" fill="#B9E0DF"/>
<path fill-rule="evenodd" clip-rule="evenodd" d="M33.999 156.166L154.685 202.939V216.872L33.999 170.212V156.166Z" fill="#B9E0DF"/>
<path fill-rule="evenodd" clip-rule="evenodd" d="M28.5 52.5L164.5 105.5L183 98L47.5 45L28.5 52.5Z" fill="#88CCCA"/>
<path fill-rule="evenodd" clip-rule="evenodd" d="M128.229 90.8467L164.5 105.5L300.5 52.5L264.5 38.5L128.229 90.8467Z" fill="#88CCCA"/>
<path d="M191.274 24.7411V14.4669L202.119 10.0908V20.6505L191.274 24.7411Z" fill="#00C8B5"/>
<path d="M191.274 14.4668L181 10.5664V20.6504L191.274 24.741V14.4668Z" fill="#006058"/>
<path d="M191.274 14.4668L181 10.5664L191.94 6L202.119 10.0907L191.274 14.4668Z" fill="#429A97"/>
<path d="M182.293 13.7573L189.404 16.3431" stroke="#001D23" stroke-linecap="round"/>
<path d="M200.394 13.7573L193.283 16.3431" stroke="#006058" stroke-linecap="round"/>
<path d="M200.394 16.343L193.283 18.9288" stroke="#006058" stroke-linecap="round"/>
<path d="M200.394 18.9287L193.283 21.5145" stroke="#006058" stroke-linecap="round"/>
<path d="M182.293 16.343L189.404 18.9288" stroke="#001D23" stroke-linecap="round"/>
<path d="M182.293 18.9287L189.404 21.5145" stroke="#001D23" stroke-linecap="round"/>
<path d="M206.789 31.2055V20.9313L217.634 16.5552V27.1148L206.789 31.2055Z" fill="#00C8B5"/>
<path d="M206.789 20.9312L196.515 17.0308V27.1147L206.789 31.2054V20.9312Z" fill="#006058"/>
<path d="M206.789 20.9311L196.515 17.0307L207.455 12.4644L217.634 16.555L206.789 20.9311Z" fill="#429A97"/>
<path d="M197.808 20.2217L204.918 22.8074" stroke="#001D23" stroke-linecap="round"/>
<path d="M215.908 20.2217L208.797 22.8074" stroke="#006058" stroke-linecap="round"/>
<path d="M215.908 22.8074L208.797 25.3931" stroke="#006058" stroke-linecap="round"/>
<path d="M215.908 25.3931L208.797 27.9788" stroke="#006058" stroke-linecap="round"/>
<path d="M197.808 22.8074L204.918 25.3931" stroke="#001D23" stroke-linecap="round"/>
<path d="M197.808 25.3931L204.918 27.9788" stroke="#001D23" stroke-linecap="round"/>
<path d="M222.304 37.6698V27.3956L233.149 23.0195V33.5792L222.304 37.6698Z" fill="#00C8B5"/>
<path d="M222.304 27.3955L212.029 23.4951V33.5791L222.304 37.6697V27.3955Z" fill="#006058"/>
<path d="M222.304 27.3955L212.029 23.4951L222.97 18.9287L233.149 23.0194L222.304 27.3955Z" fill="#429A97"/>
<path d="M213.322 26.686L220.433 29.2718" stroke="#001D23" stroke-linecap="round"/>
<path d="M231.423 26.686L224.312 29.2718" stroke="#006058" stroke-linecap="round"/>
<path d="M231.423 29.2717L224.312 31.8575" stroke="#006058" stroke-linecap="round"/>
<path d="M231.423 31.8574L224.312 34.4432" stroke="#006058" stroke-linecap="round"/>
<path d="M213.322 29.2717L220.433 31.8575" stroke="#001D23" stroke-linecap="round"/>
<path d="M213.322 31.8574L220.433 34.4432" stroke="#001D23" stroke-linecap="round"/>
<path d="M238.818 44.1344V33.8602L249.663 29.4841V40.0438L238.818 44.1344Z" fill="#00C8B5"/>
<path d="M238.818 33.8601L228.544 29.9597V40.0437L238.818 44.1343V33.8601Z" fill="#006058"/>
<path d="M238.818 33.8601L228.544 29.9597L239.484 25.3933L249.663 29.484L238.818 33.8601Z" fill="#429A97"/>
<path d="M229.837 33.1506L236.948 35.7364" stroke="#001D23" stroke-linecap="round"/>
<path d="M247.938 33.1506L240.827 35.7364" stroke="#006058" stroke-linecap="round"/>
<path d="M247.938 35.7363L240.827 38.3221" stroke="#006058" stroke-linecap="round"/>
<path d="M247.938 38.322L240.827 40.9078" stroke="#006058" stroke-linecap="round"/>
<path d="M229.837 35.7363L236.948 38.3221" stroke="#001D23" stroke-linecap="round"/>
<path d="M229.837 38.322L236.948 40.9078" stroke="#001D23" stroke-linecap="round"/>
<g clip-path="url(#clip0_1015_6316)">
<path d="M204.697 82.8353L203.281 82.3059L202.967 67.3391L204.382 67.875L204.697 82.8353Z" fill="#006058"/>
<path d="M209.59 83.8527L207.29 78.9857L202.54 66.4462L201.046 61.5624L235.978 48.1697L244.528 70.4533L209.59 83.8527Z" fill="#009A8D"/>
<path d="M235.377 49.5737L202.422 62.2134L210.183 82.448L243.138 69.8083L235.377 49.5737Z" fill="#001D23"/>
<path d="M240.094 61.8603C239.736 60.9186 238.673 60.4468 237.731 60.8046L230.804 63.4598C229.862 63.8177 229.391 64.8874 229.749 65.8226L232.142 72.0594C232.5 73.0012 232.796 73.7686 232.796 73.7686C232.796 73.7686 233.563 73.473 234.505 73.1151L241.432 70.4599C242.374 70.102 242.845 69.0388 242.488 68.0971L240.094 61.8603Z" fill="#00C8B5"/>
<path d="M216.866 66.6197C217.224 67.5614 218.294 68.0331 219.229 67.6753L227.104 64.6556C228.046 64.2978 228.517 63.2281 228.16 62.2929L225.491 55.3336C225.133 54.3919 224.07 53.9201 223.128 54.278L215.253 57.2977C214.311 57.6555 213.839 58.7187 214.197 59.6604L216.866 66.6262L216.866 66.6197Z" fill="#00C8B5"/>
<path d="M219.306 67.8803L227.184 64.8589C228.125 64.4981 229.189 64.9672 229.552 65.914L231.942 72.147C232.303 73.0878 231.834 74.1518 230.887 74.515L223.009 77.5364C222.069 77.8972 221.011 77.4258 220.65 76.485L218.259 70.252C217.899 69.3113 218.37 68.2533 219.311 67.8925L219.306 67.8803Z" fill="#00C8B5"/>
<path d="M208.192 72.1401L215.687 69.2653C216.628 68.9045 217.692 69.3736 218.055 70.3204L220.446 76.5534C220.807 77.4942 220.337 78.5582 219.391 78.9214L211.895 81.7961C210.954 82.1569 209.896 81.6855 209.536 80.7448L207.145 74.5118C206.784 73.571 207.253 72.507 208.2 72.1438L208.192 72.1401Z" fill="#00C8B5"/>
<path d="M228.367 62.2106C228.725 63.1523 229.788 63.6241 230.729 63.2662L237.656 60.611C238.598 60.2531 239.07 59.1835 238.712 58.2482L236.043 51.289C235.685 50.3473 234.616 49.8756 233.68 50.2333L226.753 52.8885C225.812 53.2464 225.34 54.3096 225.698 55.2513L228.367 62.2106Z" fill="#00C8B5"/>
<path d="M215.611 69.0648C216.553 68.7069 217.025 67.6438 216.667 66.702L213.998 59.7428C213.64 58.8011 212.577 58.3293 211.635 58.6872L204.14 61.5558C203.199 61.9137 202.727 62.9769 203.085 63.9186L205.754 70.8843C206.118 71.8259 207.175 72.2978 208.117 71.94L215.611 69.0648Z" fill="#00C8B5"/>
<path d="M201.042 61.5633L200.271 61.8589L208.819 84.1449L209.59 83.8492L201.042 61.5633Z" fill="#006058"/>
</g>
<g clip-path="url(#clip1_1015_6316)">
<path d="M165.697 97.8353L164.281 97.3059L163.967 82.3391L165.382 82.875L165.697 97.8353Z" fill="#006058"/>
<path d="M170.59 98.8527L168.29 93.9857L163.54 81.4462L162.046 76.5624L196.978 63.1697L205.528 85.4533L170.59 98.8527Z" fill="#009A8D"/>
<path d="M196.377 64.5737L163.422 77.2134L171.183 97.448L204.138 84.8083L196.377 64.5737Z" fill="#001D23"/>
<path d="M201.094 76.8603C200.736 75.9186 199.673 75.4468 198.731 75.8046L191.804 78.4598C190.862 78.8177 190.391 79.8874 190.749 80.8226L193.142 87.0594C193.5 88.0012 193.796 88.7686 193.796 88.7686C193.796 88.7686 194.563 88.473 195.505 88.1151L202.432 85.4599C203.374 85.102 203.845 84.0388 203.488 83.0971L201.094 76.8603Z" fill="#00C8B5"/>
<path d="M177.866 81.6197C178.224 82.5614 179.294 83.0331 180.229 82.6753L188.104 79.6556C189.046 79.2978 189.517 78.2281 189.16 77.2929L186.491 70.3336C186.133 69.3919 185.07 68.9201 184.128 69.278L176.253 72.2977C175.311 72.6555 174.839 73.7187 175.197 74.6604L177.866 81.6262L177.866 81.6197Z" fill="#00C8B5"/>
<path d="M180.306 82.8803L188.184 79.8589C189.125 79.4981 190.189 79.9672 190.552 80.914L192.942 87.147C193.303 88.0878 192.834 89.1518 191.887 89.515L184.009 92.5364C183.069 92.8972 182.011 92.4258 181.65 91.485L179.259 85.252C178.899 84.3113 179.37 83.2533 180.311 82.8925L180.306 82.8803Z" fill="#00C8B5"/>
<path d="M169.192 87.1401L176.687 84.2653C177.628 83.9045 178.692 84.3736 179.055 85.3204L181.446 91.5534C181.807 92.4942 181.337 93.5582 180.391 93.9214L172.895 96.7961C171.954 97.1569 170.896 96.6855 170.536 95.7448L168.145 89.5118C167.784 88.571 168.253 87.507 169.2 87.1438L169.192 87.1401Z" fill="#00C8B5"/>
<path d="M189.367 77.2106C189.725 78.1523 190.788 78.6241 191.729 78.2662L198.656 75.611C199.598 75.2531 200.07 74.1835 199.712 73.2482L197.043 66.289C196.685 65.3473 195.616 64.8756 194.68 65.2333L187.753 67.8885C186.812 68.2464 186.34 69.3096 186.698 70.2513L189.367 77.2106Z" fill="#00C8B5"/>
<path d="M176.611 84.0648C177.553 83.7069 178.025 82.6438 177.667 81.702L174.998 74.7428C174.64 73.8011 173.577 73.3293 172.635 73.6872L165.14 76.5558C164.199 76.9137 163.727 77.9769 164.085 78.9186L166.754 85.8843C167.118 86.8259 168.175 87.2978 169.117 86.94L176.611 84.0648Z" fill="#00C8B5"/>
</g>
<path d="M249.782 460.15L270.532 452.157L259.993 448L238.878 455.993L249.782 460.15Z" fill="#429A97"/>
<path d="M238.858 491.804L249.75 496.28L250.069 460.15L238.859 455.993L238.858 491.804Z" fill="#006058"/>
<path d="M249.784 496.175L270.534 488.201V452.157L249.784 460.15V496.175Z" fill="#00C8B5"/>
<path d="M262.357 468.825L258.469 473.945H263.653L259.765 479.065" stroke="#006058" stroke-width="2" stroke-miterlimit="10" stroke-linecap="square"/>
<path d="M267.978 457.912L251.991 463.667" stroke="#006058" stroke-width="2" stroke-miterlimit="10" stroke-linecap="round"/>
<path d="M267.978 484.77L251.991 490.525" stroke="#006058" stroke-width="2" stroke-miterlimit="10" stroke-linecap="round"/>
<path d="M222.924 470.382L243.674 462.388L233.134 458.232L212.02 466.225L222.924 470.382Z" fill="#429A97"/>
<path d="M212 502.036L222.891 506.512L223.211 470.382L212 466.225L212 502.036Z" fill="#006058"/>
<path d="M222.926 506.407L243.676 498.433V462.388L222.926 470.382V506.407Z" fill="#00C8B5"/>
<path d="M235.499 479.057L231.61 484.177H236.795L232.906 489.297" stroke="#006058" stroke-width="2" stroke-miterlimit="10" stroke-linecap="square"/>
<path d="M241.119 468.144L225.132 473.899" stroke="#006058" stroke-width="2" stroke-miterlimit="10" stroke-linecap="round"/>
<path d="M241.119 495.001L225.132 500.757" stroke="#006058" stroke-width="2" stroke-miterlimit="10" stroke-linecap="round"/>
<g clip-path="url(#clip2_1015_6316)">
<path d="M99 458.552L77.9706 451L70.2732 453.558L91.3027 461.11L99 458.552Z" fill="#429A97"/>
<path d="M91.3027 461.08L70.2733 453.528V490.417L91.3027 497.97V461.08Z" fill="#006058"/>
<path d="M99 458.552L91.3027 461.08V498L99 494.961V458.552Z" fill="#00C8B5"/>
<path d="M79 481V490.336C79 492.268 77.8867 494.027 76.1404 494.855L60 502.5" stroke="#429A97" stroke-width="2" stroke-miterlimit="10" stroke-linecap="round"/>
<path d="M76 477.193L78.577 476.157C79.2154 475.935 79.955 475.935 80.7413 476.24C83.0926 477.135 85 480.25 85 483.184C85 485.222 84.0813 486.644 82.7344 487.022L80.3209 488L79.628 486.266C77.8218 484.959 76.4905 482.395 76.4905 479.938C76.4905 479.502 76.5372 479.1 76.6151 478.721L76 477.185V477.193Z" fill="#429A97"/>
<path d="M78.7521 487.048L78.7544 487.049C79.7875 487.421 80.6289 487.247 81.2103 486.777C81.807 486.294 82.25 485.401 82.25 484.117C82.25 482.832 81.8009 481.479 81.0545 480.34C80.306 479.197 79.2996 478.331 78.2456 477.951C77.2125 477.579 76.3711 477.753 75.7897 478.223C75.193 478.706 74.75 479.599 74.75 480.883C74.75 482.168 75.1993 483.523 75.9457 484.664C76.6943 485.807 77.7001 486.672 78.7521 487.048Z" fill="#006058" stroke="#00C8B5" stroke-width="1.5"/>
<path d="M81 465L78 468.5H82L79 472" stroke="#00C8B5" stroke-width="2" stroke-miterlimit="10" stroke-linecap="square"/>
</g>
<g clip-path="url(#clip3_1015_6316)">
<path d="M88.51 503.7V503.82C88.51 503.82 88.51 504.13 88.67 504.32C89.06 504.94 89.95 505.68 90.3 505.56C90.61 505.48 90.81 505.09 90.92 504.67C90.96 504.48 91 504.24 91.04 504.01C91.12 503.31 90.81 501.76 89.64 501.45C89.37 501.37 89.13 501.45 88.94 501.61C88.78 501.73 88.63 501.92 88.59 502.08C88.36 502.58 88.51 503.63 88.51 503.67V503.71V503.7Z" fill="#429A97"/>
<path d="M22.0598 513.12L31.8898 508.43L27.5798 506.57L21.0098 509.67L22.0598 513.12Z" fill="#001D23"/>
<path d="M58.3201 528.97L67.8401 523.81L63.2201 521.83L53.6201 526.91L58.3201 528.96V528.97Z" fill="#001D23"/>
<path d="M25.5998 511.41L24.5898 509.39L27.4298 507.61C28.3198 507.03 29.4498 506.95 30.6898 507.49C33.2898 508.61 35.3098 512.1 35.1598 515.32C35.0798 517.03 34.4198 518.34 33.4098 519.04H33.3698L30.4198 521.06L29.2898 518.85C27.0398 517.42 25.4798 514.31 25.5598 511.45L25.5998 511.41Z" fill="#001D23"/>
<path d="M22.6405 513.12C22.4105 515.95 23.8405 519.05 25.9405 520.64C26.2905 520.91 26.6405 521.11 26.9905 521.26C29.7105 522.46 32.0405 520.68 32.2005 517.31C32.3205 514.83 31.1905 512.19 29.5205 510.56C28.9805 510.02 28.3905 509.63 27.7705 509.36C25.1705 508.24 22.8705 509.9 22.6405 513.12Z" fill="#003E42"/>
<path d="M27.6605 511.3C25.9905 510.56 24.5105 511.73 24.3605 513.9C24.2005 516.07 25.4505 518.47 27.1605 519.25C28.8705 519.99 30.3505 518.78 30.4605 516.58C30.5805 514.37 29.3305 512.04 27.6605 511.35V511.31V511.3Z" fill="#429A97"/>
<path d="M62.1702 527.54L61.1602 525.49L64.4202 523.75C65.4302 523.21 66.7102 523.17 68.0302 523.75C70.8702 524.95 72.8902 528.6 72.5802 531.89C72.4202 533.63 71.6102 534.95 70.4402 535.61H70.4002L67.0202 537.55L65.8902 535.26C63.4802 533.75 61.8902 530.53 62.1602 527.58V527.54H62.1702Z" fill="#001D23"/>
<path d="M58.7896 529.17C58.3996 532.04 59.7996 535.26 62.0496 536.92C62.3996 537.19 62.7896 537.42 63.1796 537.58C66.1296 538.9 68.8096 537.11 69.1996 533.74C69.4696 531.22 68.3796 528.51 66.5996 526.8C66.0196 526.26 65.3996 525.79 64.6996 525.52C61.8596 524.32 59.2196 525.91 58.7496 529.16H58.7896V529.17Z" fill="#003E42"/>
<path d="M64.46 527.46C62.63 526.68 60.96 527.81 60.65 529.98C60.34 532.15 61.58 534.67 63.45 535.48C65.32 536.29 67.03 535.13 67.3 532.88C67.57 530.63 66.29 528.23 64.46 527.45V527.46Z" fill="#429A97"/>
<path d="M103.9 516.92C103.86 516.61 103.78 516.3 103.71 515.99C103.36 514.67 102.78 513.43 101.92 512.35C101.76 512.12 101.57 511.92 101.38 511.69C100.53 510.76 99.5101 509.98 98.3102 509.36L89.7202 504.82L81.1702 498C77.9102 495.98 72.0402 493.12 66.3602 490.98C62.4402 489.51 57.7802 488.81 53.2702 489.04C51.8702 489.12 50.4702 489.27 49.1102 489.54C48.9502 489.54 48.8002 489.62 48.6402 489.62C47.0902 489.93 45.7302 490.59 44.5202 491.13C43.2802 491.71 24.2302 500.4 24.2302 500.4C24.0702 500.48 23.7602 500.63 23.4102 500.79L28.0802 499.85C28.0802 499.85 30.9902 498.62 33.8402 498.19C36.6902 497.76 41.1402 500.2 44.8702 501.75C49.4402 503.65 55.7702 506.32 59.7402 508.77C63.7102 511.22 63.1902 518.1 63.9802 518.35C64.7702 518.6 64.5402 517.96 67.2702 519.87C70.0002 521.78 72.2002 522.42 75.8702 525.12C69.2502 527.65 71.3802 530.89 70.5302 531.95C70.5902 532.36 70.6302 532.78 70.6602 533.19C70.6602 533.93 71.1702 534.55 71.9402 534.82C78.6202 537.18 86.8202 536.22 93.6202 532.22L97.5102 529.93C101.51 527.57 103.96 523.77 104 519.93V518.46C104 517.92 104 517.41 103.88 516.91L103.9 516.92Z" fill="#00C8B5"/>
<path d="M75.8802 525.12C72.2102 522.42 70.0102 521.78 67.2802 519.87C64.5502 517.96 64.7802 518.6 63.9902 518.35C63.2002 518.1 63.7302 511.23 59.7502 508.77C55.7802 506.32 49.4502 503.64 44.8802 501.75C41.1502 500.2 36.7002 497.76 33.8502 498.19C31.0002 498.62 28.0902 499.85 28.0902 499.85L23.4202 500.79C23.0702 500.98 22.7202 501.18 22.5302 501.37C21.6802 502.03 20.9402 502.77 20.2802 503.5C19.3502 504.62 18.6902 505.86 18.3402 507.07V507.15L18.1802 507.69C17.6002 509.74 18.4902 511.61 20.5102 512.46L22.0302 513.12C22.9202 509.63 25.2902 507.34 29.3002 509.24C32.1802 510.48 34.0402 513.93 33.6902 517.26C33.6902 517.53 33.6102 517.84 33.5302 518.11L58.2802 528.93C58.2802 528.66 58.3602 528.43 58.4402 528.19C59.2602 524.89 62.1702 523.38 65.2802 524.7C65.4702 524.78 65.6702 524.89 65.8602 524.97C67.3002 525.75 68.5002 527.02 69.3602 528.54C69.9402 529.55 70.3302 530.67 70.5302 531.8C70.5302 531.85 70.5402 531.9 70.5502 531.95C71.4002 530.88 69.2702 527.65 75.8902 525.12H75.8802Z" fill="#429A97"/>
<path d="M18.3304 507.15L18.1704 507.69C17.5904 509.74 18.4804 511.61 20.5004 512.46L22.0204 513.12C22.9104 509.63 25.2804 507.34 29.2904 509.24C30.3004 509.67 31.1604 510.36 31.8504 511.22L34.0704 511.3C31.9704 508.16 28.2804 506.49 25.2904 507.31C22.2604 508.12 21.6804 510.68 21.6804 510.68C21.6804 510.68 20.0904 510.33 19.1504 509.32C18.2204 508.31 18.7604 505.48 20.2804 503.54C19.3504 504.66 18.6904 505.9 18.3404 507.11V507.15H18.3304Z" fill="#429A97"/>
<path d="M70.5195 531.88C70.5995 532.35 70.6395 532.81 70.6795 533.28C70.6795 534.02 71.1895 534.64 71.9595 534.91C78.6395 537.27 86.8395 536.31 93.6395 532.31L97.5295 530.02C101.53 527.66 103.98 523.86 104.02 520.02V519.63C103.79 520.83 103.09 522.23 102.62 522.81C101.3 524.55 97.1795 529.67 87.1895 532.62C78.5995 535.14 73.8195 533.16 70.5195 531.84V531.88Z" fill="#429A97"/>
<path d="M90.0704 505.87C90.0704 505.87 95.9004 509.4 97.4104 510.95C98.9604 512.46 103.36 515.14 94.0704 520.25C87.1104 524.09 82.2904 524.55 77.5904 523.51C72.8904 522.46 66.4404 519.28 66.4404 519.28C66.4404 519.28 70.4404 522.11 72.2704 523.35C74.1004 524.59 81.3204 529.86 88.9404 527.73C96.4404 525.6 103.71 521.29 102.81 516.37C101.92 511.56 96.9404 509.16 90.0604 505.94V505.86L90.0704 505.87Z" fill="#429A97"/>
<path d="M73.6702 528.86C75.3002 530.76 77.4802 531.85 83.2302 530.84C89.2502 529.79 93.4102 527.31 96.9102 525.22C99.8202 523.48 100.76 522.39 102.12 520.68C103.44 519.01 103.91 516.92 103.91 516.92C103.87 516.61 103.79 516.3 103.72 515.99C103.37 514.67 102.79 513.43 101.93 512.35C101.77 512.12 101.58 511.92 101.39 511.69C101.55 512.43 101.55 512.93 101.51 513.82C101.51 515.06 101.04 517.04 101.16 518.36C101.28 519.72 100.19 521.35 95.8702 523.86C90.6602 526.88 88.7202 526.65 86.7802 526.3C85.7302 526.11 84.5302 526.07 83.4002 526.11C81.9602 526.11 80.6002 526.19 79.6302 526.07C77.5302 525.8 76.5202 524.64 74.8502 524.95C72.4002 525.42 72.7102 527.78 73.6802 528.9V528.86H73.6702Z" fill="#006058"/>
<path d="M59.7598 508.78L63.9998 518.36C64.9298 519.91 77.2898 513.98 84.4798 509.48C87.8598 507.35 90.1498 505.53 89.6898 504.87C87.1998 502.35 84.3298 500.06 81.1398 498.05C80.7898 498.36 80.3998 498.63 80.0098 498.94C79.1198 499.64 78.1398 500.3 77.0998 500.92C72.5098 503.79 66.6498 506.39 59.7698 508.79L59.7598 508.78Z" fill="#006058"/>
<path d="M32.3202 506.64C33.0202 506.95 36.0502 508.23 39.7402 509.82C40.2102 510.01 40.7102 510.25 41.2202 510.44C43.1602 511.25 45.2202 512.15 47.2002 513C47.7102 513.19 48.1702 513.43 48.6402 513.62C52.6002 515.33 55.9502 516.76 56.6102 517.03C58.4402 517.81 59.6802 518.35 59.4502 517.26C59.3302 516.64 58.7502 513.73 58.3202 511.52C58.0902 510.28 57.3502 509.19 56.3002 508.42C56.3002 508.42 55.9502 508.19 55.7902 508.07L55.0902 507.72C53.4602 507.02 51.2802 506.13 49.1102 505.2L48.9502 505.12C48.4402 504.93 47.9402 504.69 47.4302 504.5C46.3002 504.03 45.1802 503.57 44.1302 503.14C43.7402 502.99 43.3902 502.83 43.0402 502.67C41.4502 502.01 40.2002 501.47 39.6202 501.24C39.1102 501.05 38.6502 500.89 38.1802 500.81C36.3502 500.5 34.8002 501.24 32.8902 502.13C31.5302 502.75 31.0202 506.08 32.3102 506.63L32.3202 506.64Z" fill="#006058"/>
<path d="M74.9901 525.37C76.6201 525.29 77.5201 526.88 80.7001 526.8C84.2401 526.72 85.6701 526.64 86.6101 527.27C87.8501 528.08 87.0801 528.86 85.4101 529.56C83.7001 530.3 79.1101 531.3 76.3901 530.1C73.6701 528.94 72.2301 525.49 74.9901 525.37Z" fill="#003E42"/>
<path d="M102.62 518.62C102.89 518.46 103.63 517.15 103.75 516.02C103.4 514.7 102.82 513.46 101.96 512.38C102.23 513.31 101.92 515.13 101.77 516.41C101.61 517.73 102.39 518.77 102.66 518.62H102.62Z" fill="#003E42"/>
<path d="M56.3799 518.16C56.5399 519.75 58.6299 519.9 60.2699 519.75C61.1199 519.67 61.8599 519.48 62.0599 519.36C62.7199 519.01 62.5299 518.43 62.2199 518.08C61.7499 517.54 59.3799 516.53 57.8299 516.61C56.8999 516.65 56.2399 517.08 56.3499 518.16H56.3899H56.3799Z" fill="#00C8B5"/>
<path d="M30.7697 499.39C33.7997 498.81 34.4597 498.42 36.0897 497.68C37.7197 496.94 48.3697 492.02 51.0497 490.78C53.6897 489.58 53.9297 489.38 52.7197 489.42C52.0197 489.42 51.1697 489.54 50.3497 489.65C48.9897 489.84 47.6297 490.23 46.3497 490.81C42.8097 492.44 37.7597 494.73 33.0597 496.9C25.1297 500.54 27.7397 500 30.8097 499.42L30.7697 499.38V499.39Z" fill="#006058"/>
<path d="M18.4104 506.91C19.0704 507.41 20.0004 505.98 20.3904 504.93C20.7404 503.88 20.7004 503.69 20.3104 503.53C19.8804 503.37 19.0704 504.46 18.7204 505.04C18.5304 505.35 18.4104 505.62 18.3304 505.85C18.1704 506.35 18.2104 506.7 18.4504 506.9H18.4104V506.91Z" fill="#00C8B5"/>
<path d="M74.2102 527.11C74.4002 527.73 75.1002 528.47 75.6502 528.93C76.8502 529.9 78.9502 530.6 80.5102 529.74C81.4802 529.2 81.6802 528.46 81.2502 527.96C81.2502 527.92 81.1702 527.88 81.1302 527.84C80.7402 527.49 79.9302 527.37 79.2302 527.26C78.1402 527.07 77.2902 526.72 76.6302 526.45C76.0902 526.22 75.6602 526.02 75.2302 525.98C74.3002 525.86 73.9902 526.45 74.2202 527.14V527.1L74.2102 527.11Z" fill="#00C8B5"/>
<path d="M83.2703 529.4C84.0903 529.44 85.5203 529.24 85.9903 528.59C86.2203 528.28 86.0303 527.93 85.6403 527.7C85.3303 527.54 84.9403 527.43 84.4403 527.47C83.8603 527.47 83.3503 527.59 82.9203 527.86C82.7303 527.98 82.5703 528.09 82.4103 528.25C81.6703 528.95 82.4103 529.37 83.3003 529.41H83.2603L83.2703 529.4Z" fill="#00C8B5"/>
<path d="M102.12 516.3C102.12 516.49 102.2 516.73 102.28 516.88C102.44 517.19 102.71 517.31 103.21 516.72C103.95 515.83 103.44 514.2 102.74 514.36C102.66 514.36 102.58 514.44 102.51 514.52C102.16 514.91 102.08 515.84 102.12 516.26V516.3Z" fill="#00C8B5"/>
<path d="M43.59 511.95C43.59 511.95 42.77 512.26 42.54 513.93C42.31 515.64 42.07 519.82 42.07 519.82C42.07 519.82 41.72 515.28 41.8 513.89C41.84 512.49 42.97 511.56 42.97 511.56L43.59 511.95Z" fill="#429A97"/>
<path d="M40.9502 510.4L47.2102 513.04C46.9802 512.92 45.0702 511.88 44.7602 511.02C44.4102 510.09 45.1902 507.76 45.7702 505.75C46.1202 504.51 46.7002 504.39 47.4802 504.59C46.3502 504.12 45.2302 503.66 44.1802 503.23C45.1502 503.81 44.8802 504.55 44.6102 505.32C44.3002 506.33 43.7902 508.42 43.3302 509.7C42.9402 510.71 41.7802 510.59 41.2302 510.48C41.2302 510.48 41.0002 510.4 40.9602 510.4H40.9502Z" fill="#429A97"/>
<path d="M44 521.315C44 520.589 44.5904 520 45.3187 520L48.6813 520C49.4096 520 50 520.589 50 521.315L50 524.685C50 525.411 49.4096 526 48.6813 526L44 526L44 521.315Z" fill="#BECFD2"/>
</g>
<path d="M239 29.0001L239 13.2261C239 10.4647 241.239 8.22607 244 8.22607L294.5 8.22608L322.5 8.22608" stroke="#BECFD2" stroke-width="1.5"/>
<path d="M193.303 240.783L256.159 240.783L314.024 240.783L322 240.783" stroke="#BECFD2" stroke-width="1.5"/>
<path d="M322 466L269 466" stroke="#BECFD2" stroke-width="1.5"/>
<path d="M322.5 359L256 359" stroke="#BECFD2" stroke-width="1.5"/>
<path d="M184 82L184 121.723C184 124.484 186.239 126.723 189 126.723L322.5 126.723" stroke="#BECFD2" stroke-width="1.5"/>
<path d="M47 520L47 556C47 558.761 49.2386 561 52 561L322 561" stroke="#BECFD2" stroke-width="1.5"/>
<path d="M236 26.315C236 25.5887 236.59 25 237.319 25L240.681 25C241.41 25 242 25.5887 242 26.315L242 29.685C242 30.4113 241.41 31 240.681 31L236 31L236 26.315Z" fill="#BECFD2"/>
<path d="M189.08 238.098C189.08 237.372 189.67 236.783 190.399 236.783L193.761 236.783C194.49 236.783 195.08 237.372 195.08 238.098L195.08 241.468C195.08 242.195 194.49 242.783 193.761 242.783L189.08 242.783L189.08 238.098Z" fill="#BECFD2"/>
<path d="M162.042 76.5633L161.271 76.8589L169.819 99.1449L170.59 98.8492L162.042 76.5633Z" fill="#006058"/>
<path d="M181 79.315C181 78.5887 181.59 78 182.319 78L185.681 78C186.41 78 187 78.5887 187 79.315L187 82.685C187 83.4113 186.41 84 185.681 84L181 84L181 79.315Z" fill="#BECFD2"/>
<path d="M266 464.315C266 463.589 266.59 463 267.319 463L270.681 463C271.41 463 272 463.589 272 464.315L272 467.685C272 468.411 271.41 469 270.681 469L266 469L266 464.315Z" fill="#BECFD2"/>
<path d="M251 357.315C251 356.589 251.59 356 252.319 356L255.681 356C256.41 356 257 356.589 257 357.315L257 360.685C257 361.411 256.41 362 255.681 362L251 362L251 357.315Z" fill="#BECFD2"/>
<defs>
<clipPath id="clip0_1015_6316">
<rect width="44.0652" height="35.4003" fill="white" transform="translate(200 48.9255) rotate(-1.20361)"/>
</clipPath>
<clipPath id="clip1_1015_6316">
<rect width="44.0652" height="35.4003" fill="white" transform="translate(161 63.9255) rotate(-1.20361)"/>
</clipPath>
<clipPath id="clip2_1015_6316">
<rect width="32" height="47" fill="white" transform="matrix(-1 0 0 1 99 451)"/>
</clipPath>
<clipPath id="clip3_1015_6316">
<rect width="86.02" height="49.01" fill="white" transform="translate(18 489)"/>
</clipPath>
</defs>
</svg>
