<svg width="34" height="32" viewBox="0 0 34 32" fill="none" xmlns="http://www.w3.org/2000/svg">
  <path d="M1.18359 29.5476V5.54761H31.1836L32.2745 23.5476L32.82 27.3658L30.0927 29.5476H1.18359Z" fill="white"/>
  <path d="M27.3633 21.3657V1.18384L31.7269 2.27475L32.8178 5.00202V23.5475L29.5451 21.3657H27.3633Z" fill="white"/>
  <path d="M33 25.7292V5.36559C33 4.20828 32.5403 3.09837 31.7219 2.28003C30.9036 1.46169 29.7937 1.00195 28.6364 1.00195H27.1818V21.3656H28.6364C29.7937 21.3656 30.9036 21.8253 31.7219 22.6437C32.5403 23.462 33 24.5719 33 25.7292ZM33 25.7292C33 26.8865 32.5403 27.9964 31.7219 28.8148C30.9036 29.6331 29.7937 30.0929 28.6364 30.0929H1V5.36559H27.1818" stroke="#54747E" stroke-width="2" stroke-miterlimit="10"/>
  <path d="M12.6365 21.3659V24.275H21.3638V11.1841H6.81836V24.275" stroke="#54747E" stroke-width="2" stroke-miterlimit="10" stroke-linecap="square"/>
  <path d="M15.5449 15.5477V11.1841" stroke="#54747E" stroke-width="2" stroke-miterlimit="10" stroke-linecap="square"/>
</svg>
