<svg width="32" height="33" viewBox="0 0 32 33" fill="none" xmlns="http://www.w3.org/2000/svg">
<path d="M12 26.8388C12 24.2718 16 20.0288 16 20.0288C16 20.0288 20 24.2718 20 26.8388C20 29.5098 17.95 31.0288 16 31.0288C14.05 31.0288 12 29.5098 12 26.8388Z" stroke="#54747E" stroke-width="2" stroke-miterlimit="10" stroke-linecap="square"/>
<path d="M25.156 15.1008C25.699 14.1988 26 13.1588 26 12.0288C26 8.71481 23.314 6.02881 20 6.02881C17.005 6.02881 14.532 8.21281 14.082 11.0808" stroke="#54747E" stroke-width="2" stroke-miterlimit="10"/>
<path d="M20 1.02881V2.02881" stroke="#54747E" stroke-width="2" stroke-miterlimit="10" stroke-linecap="square"/>
<path d="M27.7783 4.25073L27.0713 4.95773" stroke="#54747E" stroke-width="2" stroke-miterlimit="10" stroke-linecap="square"/>
<path d="M31 12.0288H30" stroke="#54747E" stroke-width="2" stroke-miterlimit="10" stroke-linecap="square"/>
<path d="M12.2217 4.25073L12.9287 4.95773" stroke="#54747E" stroke-width="2" stroke-miterlimit="10" stroke-linecap="square"/>
<path d="M24 25.0288H26C28.761 25.0288 31 22.7898 31 20.0288C31 17.2678 28.761 15.0288 26 15.0288C24.662 15.0288 23.453 15.5618 22.556 16.4178C21.472 13.2838 18.503 11.0288 15 11.0288C11.89 11.0288 9.2 12.8078 7.877 15.3998C7.296 15.1648 6.665 15.0288 6 15.0288C3.239 15.0288 1 17.2678 1 20.0288C1 22.7898 3.239 25.0288 6 25.0288H8" stroke="#54747E" stroke-width="2" stroke-miterlimit="10" stroke-linecap="square"/>
</svg>
