<svg width="1135" height="671" viewBox="0 0 1135 671" fill="none" xmlns="http://www.w3.org/2000/svg">
<mask id="mask0_775_4964" style="mask-type:alpha" maskUnits="userSpaceOnUse" x="0" y="0" width="1136" height="671">
<rect x="0.415527" width="1135" height="671" fill="#003E42"/>
</mask>
<g mask="url(#mask0_775_4964)">
<path d="M536.647 614.239L818.749 777.075L940.919 706.564L658.817 543.698L536.647 614.239Z" fill="#034F51"/>
<path d="M1366.5 696.849L1196.17 598.861L1036.23 691.187L1207.43 790.039L1366.5 696.849Z" fill="#034F51"/>
<path d="M1161.78 579.074L879.167 416.506L719.801 508.503L1001.9 671.369L1161.78 579.074Z" fill="#034F51"/>
<path d="M624.482 523.881L471.852 435.787L351.5 507.371L502.312 594.421L624.482 523.881Z" fill="#034F51"/>
<path d="M685.459 488.685L844.766 396.717L688.589 306.865L531.905 400.055L685.459 488.685Z" fill="#034F51"/>
<path d="M1173.31 674.38L1125.38 646.724L1071.74 677.688L1119.63 705.373L1173.31 674.38Z" fill="#02A894"/>
<path d="M1119.63 705.819C1119.63 705.819 1119.48 705.819 1119.39 705.76L1071.47 678.104C1071.47 678.104 1071.23 677.865 1071.23 677.716C1071.23 677.567 1071.32 677.418 1071.47 677.329L1125.12 646.365C1125.12 646.365 1125.41 646.276 1125.56 646.365L1173.49 674.021C1173.49 674.021 1173.73 674.259 1173.73 674.408C1173.73 674.557 1173.64 674.706 1173.49 674.796L1119.84 705.76C1119.84 705.76 1119.69 705.819 1119.6 705.819H1119.63ZM1072.6 677.716L1119.63 704.866L1172.39 674.408L1125.35 647.259L1072.6 677.716Z" fill="#02A894"/>
<path d="M1125.38 652.952L1162.52 674.409L1119.63 699.175L1082.49 677.717L1125.38 652.952ZM1125.38 650.866L1078.92 677.688L1119.66 701.201L1166.13 674.38L1125.38 650.866Z" fill="#003E42"/>
<path d="M604.931 459.777L477.873 386.436L408.756 426.34L535.813 499.682L604.931 459.777Z" fill="#02A894"/>
<path d="M535.811 500.128C535.811 500.128 535.662 500.128 535.573 500.069L408.515 426.727C408.515 426.727 408.276 426.488 408.276 426.339C408.276 426.19 408.366 426.041 408.515 425.952L477.632 386.048C477.632 386.048 477.93 385.958 478.079 386.048L605.137 459.389C605.137 459.389 605.375 459.628 605.375 459.777C605.375 459.926 605.286 460.075 605.137 460.164L536.02 500.069C536.02 500.069 535.871 500.128 535.781 500.128H535.811ZM409.677 426.339L535.811 499.175L604.034 459.807L477.9 386.971L409.677 426.339Z" fill="#02A894"/>
<path d="M477.874 392.664L594.142 459.778L535.814 493.453L419.546 426.34L477.874 392.664ZM477.874 390.578L415.939 426.34L535.784 495.539L597.719 459.778L477.874 390.578Z" fill="#003E42"/>
<path d="M535.813 563.248L408.756 489.906V426.339L535.813 499.681V563.248Z" fill="#003E42"/>
<path d="M535.811 563.695C535.811 563.695 535.662 563.695 535.573 563.636L408.515 490.294C408.515 490.294 408.276 490.056 408.276 489.907V426.31C408.276 426.161 408.366 426.012 408.515 425.923C408.664 425.833 408.813 425.833 408.962 425.923L536.02 499.264C536.02 499.264 536.258 499.503 536.258 499.652V563.248C536.258 563.397 536.169 563.546 536.02 563.636C535.96 563.666 535.871 563.695 535.781 563.695H535.811ZM409.23 489.638L535.364 562.474V499.92L409.23 427.085V489.638Z" fill="#02A894"/>
<path d="M604.929 523.345L535.812 563.25V499.683L604.929 459.778V523.345Z" fill="#003E42"/>
<path d="M535.813 563.518C535.604 563.428 535.545 563.339 535.545 563.249V499.653C535.545 499.653 535.604 499.474 535.664 499.414L604.781 459.51C604.781 459.51 604.96 459.45 605.049 459.51C605.139 459.569 605.169 459.659 605.169 459.748V523.345C605.169 523.345 605.109 523.524 605.049 523.583L535.932 563.488C535.932 563.488 535.843 563.518 535.783 563.518H535.813ZM536.081 499.832V562.802L604.662 523.196V460.225L536.081 499.802V499.832Z" fill="#02A894"/>
<path d="M584.593 318.385V309.326L593.653 304.111C595.203 303.216 596.455 303.753 596.455 305.303V311.561C596.455 313.111 595.203 315.078 593.653 315.972L587.394 319.578C585.844 320.472 584.593 319.935 584.593 318.385Z" fill="white"/>
<path d="M539.5 363.385V354.325L530.439 359.54C528.889 360.435 527.637 362.401 527.637 363.951V370.209C527.637 371.759 528.889 372.266 530.439 371.402L536.698 367.796C538.248 366.902 539.5 364.935 539.5 363.385Z" fill="#48CA2D"/>
<path d="M541.879 388.567V379.507L550.94 374.292C552.49 373.398 553.741 373.935 553.741 375.484V381.743C553.741 383.292 552.49 385.259 550.94 386.153L544.681 389.759C543.131 390.653 541.879 390.117 541.879 388.567Z" fill="#006058"/>
<path d="M525.38 317.392V308.333L534.441 303.117C535.99 302.223 537.242 302.76 537.242 304.309V310.568C537.242 312.117 535.99 314.084 534.441 314.978L528.182 318.584C526.632 319.478 525.38 318.942 525.38 317.392Z" fill="#006058"/>
<path d="M581.342 266.008V275.067L572.281 280.283C570.732 281.177 569.48 280.64 569.48 279.091V272.832C569.48 271.283 570.732 269.316 572.281 268.422L578.54 264.816C580.09 263.922 581.342 264.458 581.342 266.008Z" fill="#006058"/>
<path d="M575.413 338.382V347.441L566.352 352.657C564.802 353.551 563.55 353.014 563.55 351.465V345.206C563.55 343.657 564.802 341.69 566.352 340.796L572.611 337.19C574.161 336.296 575.413 336.832 575.413 338.382Z" fill="#006058"/>
<path d="M584.893 409.535V389.031C584.893 387.482 586.145 385.515 587.695 384.621L593.954 381.015C595.504 380.121 596.755 380.657 596.755 382.207V405.512L587.695 410.727C586.145 411.621 584.893 411.085 584.893 409.535Z" fill="#48CA2D"/>
<path d="M539.497 403.2V382.696C539.497 381.147 538.245 380.64 536.725 381.504L528.052 386.511C526.502 387.405 525.25 386.869 525.25 385.319V376.647C525.25 375.097 523.998 374.59 522.448 375.455L513.388 380.67V403.975C513.388 405.525 514.64 406.031 516.189 405.167L524.863 400.16C526.412 399.266 527.664 399.803 527.664 401.352V409.995C527.664 411.544 528.916 412.051 530.466 411.187L536.725 407.581C538.275 406.687 539.527 404.72 539.527 403.17L539.497 403.2Z" fill="white"/>
<path d="M610.7 316.596C610.7 315.046 609.448 314.54 607.898 315.404L601.639 319.01C600.089 319.904 598.837 321.871 598.837 323.421V332.063C598.837 333.613 597.585 335.58 596.036 336.474L587.362 341.48C585.813 342.374 584.561 344.341 584.561 345.891V352.149C584.561 353.699 585.813 354.206 587.362 353.341L596.036 348.335C597.585 347.441 598.837 347.977 598.837 349.527V372.414C598.837 373.964 600.089 374.471 601.639 373.606L610.7 368.391V316.626V316.596Z" fill="#00C8B5"/>
<path d="M567.962 307.448C567.962 305.898 566.711 305.391 565.161 306.255L558.902 309.861C557.352 310.755 556.1 312.722 556.1 314.272V322.944C556.1 324.494 554.848 326.461 553.298 327.355L544.625 332.362C543.075 333.256 541.823 335.223 541.823 336.772V357.276C541.823 358.826 543.075 359.332 544.625 358.468L553.686 353.253V341.809C553.686 340.259 554.938 338.292 556.487 337.428L565.131 332.451C566.681 331.557 567.932 329.59 567.932 328.04V307.507L567.962 307.448Z" fill="#00C8B5"/>
<path d="M789.689 334.848L710.944 289.371L604.989 350.524L683.733 396.001L789.689 334.848Z" fill="#02A894"/>
<path d="M683.732 396.449C683.732 396.449 683.583 396.449 683.494 396.389L604.72 350.912C604.72 350.912 604.481 350.673 604.481 350.524C604.481 350.375 604.571 350.226 604.72 350.137L710.676 288.984C710.676 288.984 710.974 288.895 711.123 288.984L789.897 334.461C789.897 334.461 790.135 334.7 790.135 334.849C790.135 334.998 790.046 335.147 789.897 335.236L683.941 396.389C683.941 396.389 683.792 396.449 683.702 396.449H683.732ZM605.882 350.524L683.732 395.465L788.794 334.819L710.944 289.878L605.882 350.524Z" fill="#02A894"/>
<path d="M710.944 295.601L778.929 334.85L683.762 389.804L615.778 350.555L710.944 295.601ZM710.944 293.515L612.171 350.525L683.732 391.83L782.505 334.82L710.944 293.515Z" fill="#003E42"/>
<path d="M683.733 474.292L604.989 428.844V350.525L683.733 396.003V474.292Z" fill="#003E42"/>
<path d="M683.732 474.768C683.732 474.768 683.583 474.768 683.494 474.709L604.72 429.231C604.72 429.231 604.481 428.993 604.481 428.844V350.555C604.481 350.406 604.571 350.257 604.72 350.168C604.869 350.078 605.018 350.078 605.167 350.168L683.941 395.645C683.941 395.645 684.179 395.883 684.179 396.032V474.351C684.179 474.5 684.09 474.649 683.941 474.738C683.881 474.768 683.792 474.798 683.702 474.798L683.732 474.768ZM605.435 428.576L683.285 473.517V396.241L605.435 351.3V428.576Z" fill="#02A894"/>
<path d="M789.688 413.139L683.732 474.291V396.003L789.688 334.85V413.139Z" fill="#003E42"/>
<path d="M683.734 474.589C683.525 474.499 683.466 474.41 683.466 474.321V396.002C683.466 396.002 683.525 395.823 683.585 395.763L789.541 334.61C789.541 334.61 789.72 334.551 789.809 334.61C789.898 334.67 789.928 334.759 789.928 334.849V413.138C789.928 413.138 789.869 413.317 789.809 413.376L683.853 474.529C683.853 474.529 683.764 474.559 683.704 474.559L683.734 474.589ZM684.002 396.181V473.874L789.422 413.019V335.326L684.002 396.181Z" fill="#02A894"/>
<path d="M701.907 311.901L708.166 308.295C709.715 307.401 710.967 305.434 710.967 303.885V295.212C710.967 293.663 712.219 291.696 713.769 290.802L722.442 285.795C723.992 284.901 725.244 282.934 725.244 281.384V275.126C725.244 273.576 723.992 273.07 722.442 273.934L713.769 278.941C712.219 279.835 710.967 279.298 710.967 277.749V269.136C710.967 267.586 709.715 267.08 708.166 267.944L699.105 273.159V310.65C699.105 312.199 700.357 312.706 701.907 311.842V311.901Z" fill="#006058"/>
<path d="M784.753 219.295V210.235L793.813 205.02C795.363 204.126 796.615 204.662 796.615 206.212V212.47C796.615 214.02 795.363 215.987 793.813 216.881L787.554 220.487C786.004 221.381 784.753 220.844 784.753 219.295Z" fill="#006058"/>
<path d="M725.211 254.67V245.61L716.15 250.826C714.6 251.72 713.349 253.687 713.349 255.236V261.495C713.349 263.044 714.6 263.551 716.15 262.687L722.409 259.081C723.959 258.187 725.211 256.22 725.211 254.67Z" fill="#48CA2D"/>
<path d="M766.638 190.701V181.641L775.699 176.426C777.249 175.532 778.5 176.068 778.5 177.618V183.876C778.5 185.426 777.249 187.393 775.699 188.287L769.44 191.893C767.89 192.787 766.638 192.251 766.638 190.701Z" fill="white"/>
<path d="M782.172 253.449V262.509L773.111 267.724C771.562 268.618 770.31 268.082 770.31 266.532V260.274C770.31 258.724 771.562 256.757 773.111 255.863L779.37 252.257C780.92 251.363 782.172 251.899 782.172 253.449Z" fill="#48CA2D"/>
<path d="M758.444 290.444L767.117 285.438C768.667 284.544 769.919 282.577 769.919 281.027V274.769C769.919 273.219 768.667 272.713 767.117 273.577L746.611 285.408C745.061 286.302 743.81 288.269 743.81 289.819V310.322C743.81 311.872 745.061 312.378 746.611 311.514L755.672 306.299V294.855C755.672 293.305 756.924 291.339 758.474 290.474L758.444 290.444Z" fill="#48CA2D"/>
<path d="M725.242 240.424V231.782C725.242 230.232 726.494 228.265 728.043 227.371L736.717 222.365C738.266 221.471 739.518 219.504 739.518 217.954V211.696C739.518 210.146 738.266 209.639 736.717 210.504L716.211 222.335C714.661 223.229 713.409 225.196 713.409 226.745V235.418C713.409 236.967 712.158 238.934 710.608 239.799L701.934 244.805C700.385 245.699 699.133 247.666 699.133 249.216V258.276L722.44 244.835C723.99 243.941 725.242 241.974 725.242 240.424Z" fill="#006058"/>
<path d="M782.168 238.399V232.14C782.168 230.591 780.916 230.084 779.366 230.948L770.693 235.955C769.143 236.849 767.891 236.313 767.891 234.763V211.875C767.891 210.326 766.64 209.819 765.12 210.683L756.059 215.898V227.342C756.059 228.892 754.807 230.859 753.257 231.753L744.584 236.76C743.034 237.654 741.782 239.621 741.782 241.14V247.399C741.782 248.949 743.034 249.455 744.584 248.591L753.257 243.584C754.807 242.69 756.059 243.227 756.059 244.776V253.449C756.059 254.998 757.281 255.535 758.831 254.641L779.366 242.78C780.916 241.886 782.168 239.919 782.168 238.369V238.399Z" fill="#00C8B5"/>
<g style="mix-blend-mode:multiply" opacity="0.6">
<g style="mix-blend-mode:multiply" opacity="0.6">
<path d="M665.376 394.929L669.31 397.194V404.257L665.376 401.992V394.929ZM657.597 397.492L661.531 399.757V392.694L657.597 390.429V397.492ZM649.818 392.992L653.752 395.257V388.194L649.818 385.929V392.992ZM642.039 388.492L645.973 390.757V383.694L642.039 381.429V388.492ZM634.26 383.992L638.194 386.257V379.194L634.26 376.929V383.992ZM626.481 379.492L630.415 381.757V374.694L626.481 372.429V379.492ZM618.702 374.992L622.636 377.257V370.194L618.702 367.929V374.992ZM610.923 370.492L614.857 372.757V365.694L610.923 363.429V370.492ZM665.346 408.489L669.281 410.754V417.817L665.346 415.552V408.489ZM657.567 411.052L661.502 413.317V406.254L657.567 403.989V411.052ZM649.788 406.552L653.723 408.817V401.754L649.788 399.489V406.552ZM642.009 402.052L645.944 404.317V397.254L642.009 394.989V402.052ZM634.23 397.552L638.164 399.817V392.754L634.23 390.489V397.552ZM626.451 393.052L630.385 395.316V388.253L626.451 385.989V393.052ZM618.672 388.551L622.606 390.816V383.753L618.672 381.488V388.551ZM610.893 384.051L614.827 386.316V379.253L610.893 376.988V384.051ZM665.317 422.049L669.251 424.313V431.376L665.317 429.112V422.049ZM657.538 424.611L661.472 426.876V419.813L657.538 417.548V424.611ZM649.759 420.111L653.693 422.376V415.313L649.759 413.048V420.111ZM641.979 415.611L645.914 417.876V410.813L641.979 408.548V415.611ZM634.2 411.111L638.135 413.376V406.313L634.2 404.048V411.111ZM626.421 406.611L630.356 408.876V401.813L626.421 399.548V406.611ZM618.642 402.111L622.577 404.376V397.313L618.642 395.048V402.111ZM610.863 397.611L614.798 399.876V392.813L610.863 390.548V397.611ZM665.287 435.608L669.221 437.873V444.936L665.287 442.671V435.608ZM657.508 438.171L661.442 440.436V433.373L657.508 431.108V438.171ZM649.729 433.671L653.663 435.936V428.873L649.729 426.608V433.671ZM641.95 429.171L645.884 431.436V424.373L641.95 422.108V429.171ZM634.171 424.671L638.105 426.936V419.873L634.171 417.608V424.671ZM626.392 420.171L630.326 422.436V415.373L626.392 413.108V420.171ZM618.613 415.671L622.547 417.936V410.873L618.613 408.608V415.671ZM610.834 411.171L614.768 413.436V406.373L610.834 404.108V411.171ZM673.006 406.134L676.941 408.399V401.336L673.006 399.071V406.134ZM673.006 419.784L676.941 422.049V414.986L673.006 412.721V419.784ZM673.006 433.433L676.941 435.698V428.635L673.006 426.37V433.433ZM673.006 447.082L676.941 449.347V442.284L673.006 440.019V447.082ZM665.257 449.198L669.191 451.463V458.526L665.257 456.261V449.198ZM657.478 451.761L661.412 454.026V446.963L657.478 444.698V451.761ZM649.699 447.261L653.633 449.526V442.463L649.699 440.198V447.261ZM641.92 442.761L645.854 445.026V437.963L641.92 435.698V442.761ZM634.141 438.261L638.075 440.526V433.463L634.141 431.198V438.261ZM626.362 433.761L630.296 436.026V428.962L626.362 426.698V433.761ZM618.583 429.261L622.517 431.525V424.462L618.583 422.198V429.261ZM610.804 424.76L614.738 427.025V419.962L610.804 417.697V424.76ZM672.976 460.642L676.911 462.907V455.844L672.976 453.579V460.642Z" fill="#001D23"/>
</g>
<g style="mix-blend-mode:multiply" opacity="0.6">
<path d="M722.096 423.628L726.03 421.363V428.426L722.096 430.691V423.628ZM722.096 444.31L726.03 442.045V434.982L722.096 437.247V444.31ZM722.096 403.393L726.03 401.128V394.065L722.096 396.33V403.393ZM722.096 389.744L726.03 387.479V380.416L722.096 382.681V389.744ZM714.317 394.244L718.251 391.979V384.916L714.317 387.181V394.244ZM714.317 421.512L718.251 419.247V412.184L714.317 414.449V421.512ZM714.317 407.863L718.251 405.598V398.535L714.317 400.8V407.863ZM714.317 435.132L718.251 432.867V425.804L714.317 428.069V435.132ZM737.624 435.31L741.558 433.045V425.982L737.624 428.247V435.31ZM737.624 421.661L741.558 419.396V412.333L737.624 414.598V421.661ZM729.845 385.244L733.779 382.979V375.916L729.845 378.181V385.244ZM729.845 398.893L733.779 396.628V389.565L729.845 391.83V398.893ZM729.845 426.161L733.779 423.896V416.833L729.845 419.098V426.161ZM729.845 439.81L733.779 437.545V430.482L729.845 432.747V439.81ZM729.845 412.542L733.779 410.277V403.214L729.845 405.479V412.542ZM691.009 407.684L694.944 405.419V398.356L691.009 400.621V407.684ZM737.624 408.042L741.558 405.777V398.714L737.624 400.979V408.042ZM698.759 430.482L702.693 428.218V421.155L698.759 423.419V430.482ZM698.759 444.132L702.693 441.867V434.804L698.759 437.069V444.132ZM691.009 421.333L694.944 419.068V412.005L691.009 414.27V421.333ZM714.317 448.81L718.251 446.546V439.483L714.317 441.747V448.81ZM691.009 462.251L694.944 459.986V452.923L691.009 455.188V462.251ZM691.009 448.602L694.944 446.337V439.274L691.009 441.539V448.602ZM691.009 434.953L694.944 432.688V425.625L691.009 427.89V434.953ZM698.759 457.751L702.693 455.486V448.423L698.759 450.688V457.751ZM706.538 412.363L710.472 410.098V403.035L706.538 405.3V412.363ZM706.538 398.714L710.472 396.449V389.386L706.538 391.651V398.714ZM706.538 425.982L710.472 423.717V416.655L706.538 418.919V425.982ZM706.538 453.251L710.472 450.986V443.923L706.538 446.188V453.251ZM706.538 439.602L710.472 437.337V430.274L706.538 432.539V439.602ZM698.759 403.184L702.693 400.919V393.856L698.759 396.121V403.184ZM698.759 416.833L702.693 414.568V407.505L698.759 409.77V416.833ZM722.066 417.012L726 414.747V407.684L722.066 409.949V417.012ZM753.152 385.422L757.086 383.157V376.094L753.152 378.359V385.422ZM753.152 399.072L757.086 396.807V389.744L753.152 392.009V399.072ZM737.594 394.422L741.528 392.158V385.095L737.594 387.359V394.422ZM753.152 371.803L757.086 369.538V362.475L753.152 364.74V371.803ZM737.594 380.773L741.528 378.508V371.445L737.594 373.71V380.773ZM745.373 376.273L749.307 374.008V366.945L745.373 369.21V376.273ZM745.373 389.922L749.307 387.658V380.595L745.373 382.859V389.922ZM745.373 403.572L749.307 401.307V394.244L745.373 396.509V403.572ZM760.931 367.333L764.865 365.068V358.005L760.931 360.27V367.333ZM760.931 394.601L764.865 392.336V385.273L760.931 387.538V394.601ZM760.931 380.952L764.865 378.687V371.624L760.931 373.889V380.952Z" fill="#001D23"/>
</g>
</g>
<path d="M911.052 404.674L829.178 357.408L747.304 404.674L829.178 451.909L911.052 404.674Z" fill="#02A894"/>
<path d="M829.176 452.386C829.176 452.386 829.027 452.386 828.937 452.327L747.064 405.061C747.064 405.061 746.825 404.823 746.825 404.674C746.825 404.525 746.915 404.376 747.064 404.287L828.937 357.021C828.937 357.021 829.235 356.932 829.384 357.021L911.258 404.287C911.258 404.287 911.497 404.525 911.497 404.674C911.497 404.823 911.407 404.972 911.258 405.061L829.384 452.327C829.384 452.327 829.235 452.386 829.146 452.386H829.176ZM748.196 404.674L829.176 451.403L910.155 404.674L829.176 357.945L748.196 404.674Z" fill="#02A894"/>
<path d="M829.178 557.973L747.304 510.708V404.674L829.178 451.909V557.973Z" fill="#003E42"/>
<path d="M829.176 558.421C829.176 558.421 829.027 558.421 828.937 558.361L747.064 511.096C747.064 511.096 746.825 510.857 746.825 510.708V404.674C746.825 404.525 746.915 404.376 747.064 404.287C747.213 404.197 747.362 404.197 747.511 404.287L829.384 451.552C829.384 451.552 829.623 451.791 829.623 451.94V557.974C829.623 558.123 829.533 558.272 829.384 558.361C829.325 558.391 829.235 558.421 829.146 558.421H829.176ZM747.749 510.44L828.729 557.169V452.178L747.749 405.449V510.44Z" fill="#02A894"/>
<path d="M911.05 510.709L829.176 557.974V451.91L911.05 404.675V510.709Z" fill="#003E42"/>
<path d="M829.178 558.243C828.97 558.153 828.91 558.064 828.91 557.975V451.94C828.91 451.94 828.97 451.762 829.029 451.702L910.903 404.437C910.903 404.437 911.082 404.377 911.171 404.437C911.26 404.496 911.32 404.586 911.32 404.675V510.709C911.32 510.709 911.26 510.888 911.171 510.948L829.297 558.213C829.297 558.213 829.208 558.243 829.148 558.243H829.178ZM829.446 452.089V557.498L910.784 510.56V405.152L829.446 452.089Z" fill="#02A894"/>
<path d="M893.829 248.366L829.182 211.024L764.536 248.366L829.182 285.677L893.829 248.366Z" fill="#02A894"/>
<path d="M829.18 286.124C829.18 286.124 829.031 286.124 828.941 286.065L764.295 248.753C764.295 248.753 764.056 248.515 764.056 248.366C764.056 248.217 764.146 248.068 764.295 247.978L828.941 210.667C828.941 210.667 829.239 210.577 829.388 210.667L894.035 247.978C894.035 247.978 894.273 248.217 894.273 248.366C894.273 248.515 894.184 248.664 894.035 248.753L829.388 286.065C829.388 286.065 829.239 286.124 829.15 286.124H829.18ZM765.427 248.366L829.18 285.171L892.932 248.366L829.18 211.561L765.427 248.366Z" fill="#02A894"/>
<path d="M829.18 217.252L883.038 248.335L829.18 279.418L775.323 248.335L829.18 217.252ZM829.18 215.166L771.717 248.335L829.18 281.504L886.644 248.335L829.18 215.166Z" fill="#003E42"/>
<path d="M829.182 441.628L764.536 404.316V248.364L829.182 285.676V441.628Z" fill="#003E42"/>
<path d="M829.18 442.075C829.18 442.075 829.031 442.075 828.941 442.016L764.295 404.704C764.295 404.704 764.056 404.466 764.056 404.317V248.365C764.056 248.216 764.146 248.067 764.295 247.977C764.444 247.888 764.593 247.888 764.742 247.977L829.388 285.289C829.388 285.289 829.627 285.527 829.627 285.676V441.628C829.627 441.777 829.537 441.926 829.388 442.016C829.329 442.045 829.239 442.075 829.15 442.075H829.18ZM764.98 404.048L828.733 440.853V285.945L764.98 249.139V404.048Z" fill="#02A894"/>
<path d="M893.826 404.319L829.179 441.631V285.679L893.826 248.367V404.319Z" fill="#003E42"/>
<path d="M829.181 441.898C828.972 441.809 828.913 441.719 828.913 441.63V285.678C828.913 285.678 828.972 285.499 829.032 285.44L893.678 248.128C893.678 248.128 893.857 248.068 893.947 248.128C894.036 248.188 894.096 248.277 894.096 248.366V404.318C894.096 404.318 894.036 404.497 893.947 404.557L829.3 441.868C829.3 441.868 829.211 441.898 829.151 441.898H829.181ZM829.449 285.827V441.153L893.559 404.14V248.813L829.449 285.827Z" fill="#02A894"/>
<g style="mix-blend-mode:multiply" opacity="0.6">
<g style="mix-blend-mode:multiply" opacity="0.6">
<path d="M835.201 298.104L840.566 295.005V427.86L835.201 430.96V298.104ZM846.945 424.195L852.309 421.095V288.24L846.945 291.339V424.195ZM858.688 417.4L864.052 414.301V281.445L858.688 284.544V417.4ZM870.431 410.605L875.796 407.506V274.65L870.431 277.749V410.605ZM882.174 403.81L887.539 400.711V267.855L882.174 270.955V403.81ZM893.917 264.16V397.016L899.282 393.916V261.061L893.917 264.16Z" fill="#001D23"/>
</g>
<g style="mix-blend-mode:multiply" opacity="0.6">
<path d="M822.116 430.959L816.751 427.86V295.004L822.116 298.104V430.959ZM810.373 291.309L805.008 288.21V421.065L810.373 424.165V291.309ZM798.63 284.514L793.265 281.415V414.27L798.63 417.37V284.514ZM786.887 277.719L781.522 274.62V407.476L786.887 410.575V277.719ZM775.144 270.925L769.779 267.825V400.681L775.144 403.78V270.925Z" fill="#001D23"/>
</g>
<g style="mix-blend-mode:multiply" opacity="0.6">
<path d="M838.957 460.076L834.903 462.43V455.159L838.957 452.804V460.076ZM846.974 448.185L842.921 450.54V457.811L846.974 455.457V448.185ZM854.991 443.566L850.938 445.92V453.192L854.991 450.838V443.566ZM863.009 438.947L858.956 441.301V448.573L863.009 446.218V438.947ZM871.026 434.327L866.973 436.682V443.953L871.026 441.599V434.327ZM879.044 429.708L874.99 432.063V439.334L879.044 436.98V429.708ZM887.061 425.089L883.008 427.443V434.715L887.061 432.361V425.089ZM895.079 420.47L891.025 422.824V430.096L895.079 427.741V420.47ZM838.986 474.172L834.933 476.527V469.255L838.986 466.901V474.172ZM847.004 462.281L842.95 464.636V471.907L847.004 469.553V462.281ZM855.021 457.662L850.968 460.017V467.288L855.021 464.934V457.662ZM863.039 453.043L858.985 455.397V462.669L863.039 460.315V453.043ZM871.056 448.424L867.003 450.778V458.05L871.056 455.695V448.424ZM879.074 443.804L875.02 446.159V453.43L879.074 451.076V443.804ZM887.091 439.185L883.038 441.539V448.811L887.091 446.457V439.185ZM895.109 434.566L891.055 436.92V444.192L895.109 441.837V434.566ZM839.016 488.268L834.963 490.623V483.351L839.016 480.997V488.268ZM847.034 476.378L842.98 478.732V486.004L847.034 483.649V476.378ZM855.051 471.758L850.998 474.113V481.384L855.051 479.03V471.758ZM863.069 467.139L859.015 469.493V476.765L863.069 474.411V467.139ZM871.086 462.52L867.033 464.874V472.146L871.086 469.791V462.52ZM879.104 457.901L875.05 460.255V467.526L879.104 465.172V457.901ZM887.121 453.281L883.068 455.636V462.907L887.121 460.553V453.281ZM895.138 448.662L891.085 451.016V458.288L895.138 455.934V448.662ZM839.046 502.365L834.992 504.719V497.447L839.046 495.093V502.365ZM847.063 490.474L843.01 492.828V500.1L847.063 497.745V490.474ZM855.081 485.855L851.027 488.209V495.48L855.081 493.126V485.855ZM863.098 481.235L859.045 483.59V490.861L863.098 488.507V481.235ZM871.116 476.616L867.062 478.97V486.242L871.116 483.888V476.616ZM879.133 471.997L875.08 474.351V481.623L879.133 479.268V471.997ZM887.151 467.377L883.097 469.732V477.003L887.151 474.649V467.377ZM895.168 462.758L891.115 465.113V472.384L895.168 470.03V462.758ZM839.076 516.461L835.022 518.815V511.544L839.076 509.189V516.461ZM847.093 504.57L843.04 506.924V514.196L847.093 511.842V504.57ZM855.111 499.951L851.057 502.305V509.577L855.111 507.222V499.951ZM863.128 495.331L859.075 497.686V504.957L863.128 502.603V495.331ZM871.146 490.712L867.092 493.067V500.338L871.146 497.984V490.712ZM879.163 486.093L875.11 488.447V495.719L879.163 493.365V486.093ZM887.181 481.474L883.127 483.828V491.1L887.181 488.745V481.474ZM895.198 476.854L891.145 479.209V486.48L895.198 484.126V476.854ZM839.106 530.557L835.052 532.911V525.64L839.106 523.285V530.557ZM847.123 518.666L843.07 521.02V528.292L847.123 525.938V518.666ZM855.14 514.047L851.087 516.401V523.673L855.14 521.318V514.047ZM863.158 509.428L859.105 511.782V519.054L863.158 516.699V509.428ZM871.175 504.808L867.122 507.163V514.434L871.175 512.08V504.808ZM879.193 500.189L875.14 502.543V509.815L879.193 507.461V500.189ZM887.21 495.57L883.157 497.924V505.196L887.21 502.841V495.57ZM895.228 490.951L891.174 493.305V500.577L895.228 498.222V490.951Z" fill="#001D23"/>
</g>
<g style="mix-blend-mode:multiply" opacity="0.6">
<path d="M818.899 452.805L822.952 455.16V462.431L818.899 460.077V452.805ZM810.882 455.458L814.935 457.812V450.54L810.882 448.186V455.458ZM802.864 450.839L806.917 453.193V445.921L802.864 443.567V450.839ZM794.847 446.219L798.9 448.574V441.302L794.847 438.948V446.219ZM786.829 441.6L790.883 443.954V436.683L786.829 434.328V441.6ZM778.812 436.981L782.865 439.335V432.063L778.812 429.709V436.981ZM770.794 432.361L774.848 434.716V427.444L770.794 425.09V432.361ZM762.777 427.742L766.83 430.097V422.825L762.777 420.471V427.742ZM818.869 466.931L822.923 469.286V476.557L818.869 474.203V466.931ZM810.852 469.584L814.905 471.938V464.666L810.852 462.312V469.584ZM802.834 464.964L806.888 467.319V460.047L802.834 457.693V464.964ZM794.817 460.345L798.87 462.7V455.428L794.817 453.074V460.345ZM786.799 455.726L790.853 458.08V450.809L786.799 448.454V455.726ZM778.782 451.107L782.835 453.461V446.189L778.782 443.835V451.107ZM770.764 446.487L774.818 448.842V441.57L770.764 439.216V446.487ZM762.747 441.868L766.8 444.223V436.951L762.747 434.597V441.868ZM818.839 481.057L822.893 483.412V490.683L818.839 488.329V481.057ZM810.822 483.71L814.875 486.064V478.792L810.822 476.438V483.71ZM802.804 479.09L806.858 481.445V474.173L802.804 471.819V479.09ZM794.787 474.471L798.84 476.826V469.554L794.787 467.2V474.471ZM786.769 469.852L790.823 472.206V464.935L786.769 462.58V469.852ZM778.752 465.233L782.805 467.587V460.315L778.752 457.961V465.233ZM770.734 460.613L774.788 462.968V455.696L770.734 453.342V460.613ZM762.717 455.994L766.77 458.348V451.077L762.717 448.723V455.994ZM818.81 495.183L822.863 497.538V504.809L818.81 502.455V495.183ZM810.792 497.836L814.846 500.19V492.918L810.792 490.564V497.836ZM802.775 493.216L806.828 495.571V488.299L802.775 485.945V493.216ZM794.757 488.597L798.811 490.951V483.68L794.757 481.326V488.597ZM786.74 483.978L790.793 486.332V479.061L786.74 476.706V483.978ZM778.722 479.359L782.776 481.713V474.441L778.722 472.087V479.359ZM770.705 474.739L774.758 477.094V469.822L770.705 467.468V474.739ZM762.687 470.12L766.741 472.474V465.203L762.687 462.849V470.12ZM818.78 509.309L822.833 511.664V518.935L818.78 516.581V509.309ZM810.762 511.962L814.816 514.316V507.044L810.762 504.69V511.962ZM802.745 507.342L806.798 509.697V502.425L802.745 500.071V507.342ZM794.727 502.723L798.781 505.077V497.806L794.727 495.452V502.723ZM786.71 498.104L790.763 500.458V493.187L786.71 490.832V498.104ZM778.692 493.485L782.746 495.839V488.567L778.692 486.213V493.485ZM770.675 488.865L774.728 491.22V483.948L770.675 481.594V488.865ZM762.657 484.246L766.711 486.6V479.329L762.657 476.975V484.246ZM818.75 523.435L822.803 525.79V533.061L818.75 530.707V523.435ZM810.732 526.088L814.786 528.442V521.17L810.732 518.816V526.088ZM802.715 521.468L806.768 523.823V516.551L802.715 514.197V521.468ZM794.698 516.849L798.751 519.203V511.932L794.698 509.578V516.849ZM786.68 512.23L790.733 514.584V507.313L786.68 504.958V512.23ZM778.663 507.611L782.716 509.965V502.693L778.663 500.339V507.611ZM770.645 502.991L774.699 505.346V498.074L770.645 495.72V502.991ZM762.628 498.372L766.681 500.726V493.455L762.628 491.101V498.372ZM754.64 423.481L758.693 425.835V418.563L754.64 416.209V423.481ZM754.64 437.547L758.693 439.901V432.63L754.64 430.275V437.547ZM754.64 451.613L758.693 453.968V446.696L754.64 444.342V451.613ZM754.64 465.68L758.693 468.034V460.762L754.64 458.408V465.68ZM754.64 479.746L758.693 482.1V474.829L754.64 472.474V479.746ZM754.64 493.812L758.693 496.167V488.895L754.64 486.541V493.812Z" fill="#001D23"/>
</g>
</g>
<path d="M1023.39 116.016L954.273 76.1416L885.156 116.016L954.273 155.921L1023.39 116.016Z" fill="#02A894"/>
<path d="M954.27 156.368C954.27 156.368 954.121 156.368 954.032 156.308L884.915 116.404C884.915 116.404 884.676 116.165 884.676 116.016C884.676 115.867 884.766 115.718 884.915 115.629L954.032 75.7243C954.032 75.7243 954.33 75.6349 954.479 75.7243L1023.6 115.629C1023.6 115.629 1023.83 115.867 1023.83 116.016C1023.83 116.165 1023.75 116.314 1023.6 116.404L954.479 156.308C954.479 156.308 954.33 156.368 954.241 156.368H954.27ZM886.047 116.016L954.27 155.384L1022.49 116.016L954.27 76.6482L886.047 116.016Z" fill="#02A894"/>
<path d="M954.274 82.34L1012.6 116.016L954.274 149.692L895.946 116.016L954.274 82.34ZM954.274 80.2539L892.34 116.016L954.274 151.778L1016.21 116.016L954.274 80.2539Z" fill="#003E42"/>
<path d="M954.273 630.184L885.156 590.28V116.017L954.273 155.921V630.184Z" fill="#003E42"/>
<path d="M954.27 630.632C954.27 630.632 954.121 630.632 954.032 630.572L884.915 590.668C884.915 590.668 884.676 590.429 884.676 590.28V116.017C884.676 115.868 884.766 115.719 884.915 115.63C885.064 115.54 885.213 115.54 885.362 115.63L954.479 155.534C954.479 155.534 954.717 155.772 954.717 155.921V630.185C954.717 630.334 954.628 630.483 954.479 630.572C954.419 630.602 954.33 630.632 954.241 630.632H954.27ZM885.6 590.012L953.823 629.38V156.19L885.6 116.822V590.012Z" fill="#02A894"/>
<path d="M1023.38 590.28L954.267 630.184V155.921L1023.38 116.017V590.28Z" fill="#003E42"/>
<path d="M954.269 630.453C954.06 630.363 954 630.274 954 630.184V155.921C954 155.921 954.06 155.742 954.15 155.683L1023.27 115.778C1023.27 115.778 1023.45 115.719 1023.54 115.778C1023.62 115.838 1023.68 115.927 1023.68 116.017V590.28C1023.68 590.28 1023.62 590.459 1023.54 590.518L954.418 630.423C954.418 630.423 954.328 630.453 954.299 630.453H954.269ZM954.537 156.1V629.708L1023.12 590.131V116.494L954.537 156.07V156.1Z" fill="#02A894"/>
<path d="M794.315 571.177L679.447 504.868L610.33 544.773L725.198 611.081L794.315 571.177Z" fill="#02A894"/>
<path d="M725.195 611.529C725.195 611.529 725.046 611.529 724.957 611.469L610.089 545.16C610.089 545.16 609.851 544.922 609.851 544.773C609.851 544.624 609.94 544.475 610.089 544.386L679.207 504.481C679.207 504.481 679.505 504.392 679.654 504.481L794.521 570.79C794.521 570.79 794.76 571.028 794.76 571.177C794.76 571.326 794.67 571.475 794.521 571.565L725.404 611.469C725.404 611.469 725.255 611.529 725.165 611.529H725.195ZM611.222 544.773L725.195 610.575L793.418 571.207L679.445 505.405L611.222 544.773Z" fill="#02A894"/>
<path d="M679.447 511.097L783.526 571.177L725.198 604.853L621.12 544.773L679.447 511.097ZM679.447 509.011L617.513 544.773L725.198 606.939L787.132 571.177L679.447 509.011Z" fill="#003E42"/>
<path d="M725.198 670.951L610.33 604.642V544.771L725.198 611.079V670.951Z" fill="#003E42"/>
<path d="M725.195 671.399C725.195 671.399 725.046 671.399 724.957 671.339L610.089 605.03C610.089 605.03 609.851 604.792 609.851 604.643V544.742C609.851 544.593 609.94 544.444 610.089 544.354C610.238 544.265 610.387 544.265 610.536 544.354L725.404 610.663C725.404 610.663 725.642 610.901 725.642 611.05V670.952C725.642 671.101 725.553 671.25 725.404 671.339C725.344 671.369 725.255 671.399 725.165 671.399H725.195ZM610.775 604.375L724.748 670.177V611.318L610.775 545.516V604.375Z" fill="#02A894"/>
<path d="M794.313 631.048L725.195 670.953V611.081L794.313 571.177V631.048Z" fill="#003E42"/>
<path d="M725.197 671.221C724.988 671.131 724.929 671.042 724.929 670.952V611.051C724.929 611.051 724.988 610.872 725.048 610.813L794.165 570.908C794.165 570.908 794.344 570.849 794.433 570.908C794.523 570.968 794.553 571.057 794.553 571.147V631.048C794.553 631.048 794.493 631.227 794.433 631.286L725.316 671.191C725.316 671.191 725.227 671.221 725.167 671.221H725.197ZM725.465 611.2V670.476L794.046 630.899V571.624L725.465 611.2Z" fill="#02A894"/>
<path d="M1105.27 468.509L1058.02 441.24L988.907 481.145L1036.15 508.413L1105.27 468.509Z" fill="#02A894"/>
<path d="M1036.15 508.861C1036.15 508.861 1036 508.861 1035.91 508.801L988.638 481.532C988.638 481.532 988.4 481.294 988.4 481.145C988.4 480.996 988.489 480.847 988.638 480.758L1057.76 440.853C1057.76 440.853 1058.05 440.764 1058.2 440.853L1105.44 468.122C1105.44 468.122 1105.68 468.36 1105.68 468.509C1105.68 468.658 1105.59 468.807 1105.44 468.897L1036.33 508.801C1036.33 508.801 1036.18 508.861 1036.09 508.861H1036.15ZM989.801 481.145L1036.15 507.907L1104.37 468.539L1058.02 441.777L989.801 481.145Z" fill="#02A894"/>
<path d="M1058.02 447.469L1094.51 468.539L1036.18 502.215L999.696 481.145L1058.02 447.469ZM1058.02 445.383L996.09 481.145L1036.15 504.271L1098.08 468.509L1058.02 445.383Z" fill="#003E42"/>
<path d="M1036.15 637.454L988.907 610.186V481.145L1036.15 508.413V637.454Z" fill="#003E42"/>
<path d="M1036.15 637.901C1036.15 637.901 1036 637.902 1035.91 637.842L988.638 610.573C988.638 610.573 988.4 610.335 988.4 610.186V481.145C988.4 480.996 988.489 480.847 988.638 480.757C988.787 480.668 988.936 480.668 989.085 480.757L1036.36 508.026C1036.36 508.026 1036.59 508.264 1036.59 508.413V637.454C1036.59 637.603 1036.5 637.752 1036.36 637.842C1036.3 637.872 1036.21 637.901 1036.12 637.901H1036.15ZM989.324 609.918L1035.67 636.68V508.682L989.324 481.92V609.918Z" fill="#02A894"/>
<path d="M1105.26 597.551L1036.15 637.455V508.414L1105.26 468.51V597.551Z" fill="#003E42"/>
<path d="M1036.15 637.723C1035.94 637.633 1035.88 637.544 1035.88 637.455V508.413C1035.88 508.413 1035.94 508.235 1036.03 508.175L1105.15 468.271C1105.15 468.271 1105.32 468.211 1105.41 468.271C1105.5 468.33 1105.56 468.42 1105.56 468.509V597.55C1105.56 597.55 1105.5 597.729 1105.41 597.789L1036.3 637.693C1036.3 637.693 1036.21 637.723 1036.18 637.723H1036.15ZM1036.42 508.562V636.978L1105 597.401V468.986L1036.42 508.562Z" fill="#02A894"/>
<path d="M709.72 625.565L658.784 596.15L633.539 610.723L684.505 640.138L709.72 625.565Z" fill="#02A894"/>
<path d="M684.507 640.585C684.507 640.585 684.358 640.585 684.268 640.525L633.332 611.111C633.332 611.111 633.094 610.873 633.094 610.724C633.094 610.575 633.183 610.426 633.332 610.336L658.547 595.763C658.547 595.763 658.845 595.674 658.994 595.763L709.93 625.178C709.93 625.178 710.169 625.416 710.169 625.565C710.169 625.714 710.079 625.863 709.93 625.952L684.715 640.525C684.715 640.525 684.566 640.585 684.477 640.585H684.507ZM634.465 610.724L684.507 639.631L708.827 625.595L658.785 596.687L634.465 610.724Z" fill="#02A894"/>
<path d="M684.505 676.584L633.539 647.17V610.723L684.505 640.137V676.584Z" fill="#003E42"/>
<path d="M684.507 677.032C684.507 677.032 684.358 677.032 684.268 676.972L633.332 647.558C633.332 647.558 633.094 647.319 633.094 647.17V610.723C633.094 610.574 633.183 610.425 633.332 610.336C633.481 610.246 633.63 610.246 633.779 610.336L684.715 639.75C684.715 639.75 684.954 639.988 684.954 640.137V676.585C684.954 676.734 684.864 676.883 684.715 676.972C684.656 677.002 684.566 677.032 684.477 677.032H684.507ZM634.017 646.902L684.06 675.81V640.405L634.017 611.498V646.902Z" fill="#02A894"/>
<path d="M709.725 662.012L684.51 676.585V640.137L709.725 625.564V662.012Z" fill="#003E42"/>
<path d="M684.511 676.853C684.303 676.764 684.243 676.675 684.243 676.585V640.138C684.243 640.138 684.303 639.959 684.362 639.899L709.577 625.326C709.577 625.326 709.756 625.267 709.845 625.326C709.935 625.386 709.965 625.475 709.965 625.565V662.012C709.965 662.012 709.905 662.191 709.845 662.251L684.631 676.824C684.631 676.824 684.541 676.853 684.482 676.853H684.511ZM684.78 640.317V676.138L709.458 661.893V626.071L684.78 640.317Z" fill="#02A894"/>
<path d="M895.292 671.967L844.355 642.553L797.443 669.642L848.379 699.057L895.292 671.967Z" fill="#009983"/>
<path d="M848.381 699.503C848.381 699.503 848.231 699.503 848.142 699.443L797.206 670.029C797.206 670.029 796.967 669.791 796.967 669.642C796.967 669.493 797.057 669.344 797.206 669.254L844.118 642.165C844.118 642.165 844.416 642.075 844.565 642.165L895.502 671.579C895.502 671.579 895.74 671.817 895.74 671.966C895.74 672.115 895.651 672.264 895.502 672.354L848.589 699.443C848.589 699.443 848.44 699.503 848.351 699.503H848.381ZM798.338 669.642L848.381 698.549L894.399 671.966L844.357 643.059L798.338 669.642Z" fill="#02A894"/>
<path d="M844.355 648.779L884.531 671.965L848.378 692.826L808.201 669.641L844.355 648.779ZM844.355 646.693L804.625 669.641L848.378 694.912L888.108 671.965L844.355 646.693Z" fill="#003E42"/>
<path d="M848.379 735.471L797.443 706.057V669.64L848.379 699.054V735.471Z" fill="#003E42"/>
<path d="M848.381 735.919C848.381 735.919 848.231 735.919 848.142 735.86L797.206 706.446C797.206 706.446 796.967 706.207 796.967 706.058V669.611C796.967 669.462 797.057 669.313 797.206 669.223C797.355 669.134 797.504 669.134 797.653 669.223L848.589 698.638C848.589 698.638 848.828 698.876 848.828 699.025V735.472C848.828 735.621 848.738 735.77 848.589 735.86C848.53 735.89 848.44 735.919 848.351 735.919H848.381ZM797.891 705.79L847.933 734.697V699.293L797.891 670.386V705.79Z" fill="#02A894"/>
<g style="mix-blend-mode:multiply" opacity="0.6">
<g style="mix-blend-mode:multiply" opacity="0.6">
<path d="M1044.76 520.454L1040.71 522.808V515.537L1044.76 513.182V520.454ZM1052.78 508.563L1048.73 510.917V518.189L1052.78 515.835V508.563ZM1060.8 503.944L1056.74 506.298V513.57L1060.8 511.216V503.944ZM1068.81 499.325L1064.76 501.679V508.951L1068.81 506.596V499.325ZM1076.83 494.705L1072.78 497.06V504.331L1076.83 501.977V494.705ZM1084.85 490.086L1080.8 492.44V499.712L1084.85 497.358V490.086ZM1092.87 485.467L1088.81 487.821V495.093L1092.87 492.739V485.467ZM1100.88 480.848L1096.83 483.202V490.474L1100.88 488.119V480.848ZM1044.79 534.55L1040.74 536.905V529.633L1044.79 527.279V534.55ZM1052.81 522.659L1048.76 525.014V532.285L1052.81 529.931V522.659ZM1060.83 518.04L1056.77 520.394V527.666L1060.83 525.312V518.04ZM1068.84 513.421L1064.79 515.775V523.047L1068.84 520.692V513.421ZM1076.86 508.802L1072.81 511.156V518.428L1076.86 516.073V508.802ZM1084.88 504.182L1080.83 506.537V513.808L1084.88 511.454V504.182ZM1092.9 499.563L1088.84 501.917V509.189L1092.9 506.835V499.563ZM1100.91 494.944L1096.86 497.298V504.57L1100.91 502.215V494.944ZM1044.82 548.646L1040.77 551.001V543.729L1044.82 541.375V548.646ZM1052.84 536.756L1048.79 539.11V546.381L1052.84 544.027V536.756ZM1060.86 532.136L1056.8 534.491V541.762L1060.86 539.408V532.136ZM1068.87 527.517L1064.82 529.871V537.143L1068.87 534.789V527.517ZM1076.89 522.898L1072.84 525.252V532.524L1076.89 530.169V522.898ZM1084.91 518.278L1080.86 520.633V527.904L1084.91 525.55V518.278ZM1092.93 513.659L1088.87 516.014V523.285L1092.93 520.931V513.659ZM1100.94 509.04L1096.89 511.394V518.666L1100.94 516.312V509.04ZM1044.85 562.743L1040.8 565.097V557.825L1044.85 555.471V562.743ZM1052.87 550.852L1048.82 553.206V560.478L1052.87 558.123V550.852ZM1060.89 546.232L1056.83 548.587V555.858L1060.89 553.504V546.232ZM1068.9 541.613L1064.85 543.968V551.239L1068.9 548.885V541.613ZM1076.92 536.994L1072.87 539.348V546.62L1076.92 544.266V536.994ZM1084.94 532.375L1080.89 534.729V542.001L1084.94 539.646V532.375ZM1092.96 527.755L1088.9 530.11V537.381L1092.96 535.027V527.755ZM1100.97 523.136L1096.92 525.49V532.762L1100.97 530.408V523.136ZM1044.88 576.839L1040.83 579.193V571.921L1044.88 569.567V576.839ZM1052.9 564.948L1048.84 567.302V574.574L1052.9 572.219V564.948ZM1060.92 560.329L1056.86 562.683V569.955L1060.92 567.6V560.329ZM1068.93 555.709L1064.88 558.064V565.335L1068.93 562.981V555.709ZM1076.95 551.09L1072.9 553.444V560.716L1076.95 558.362V551.09ZM1084.97 546.471L1080.91 548.825V556.097L1084.97 553.742V546.471ZM1092.99 541.852L1088.93 544.206V551.478L1092.99 549.123V541.852ZM1101 537.232L1096.95 539.587V546.858L1101 544.504V537.232ZM1044.91 590.935L1040.86 593.289V586.018L1044.91 583.663V590.935ZM1052.93 579.044L1048.87 581.398V588.67L1052.93 586.316V579.044ZM1060.95 574.425L1056.89 576.779V584.051L1060.95 581.696V574.425ZM1068.96 569.806L1064.91 572.16V579.431L1068.96 577.077V569.806ZM1076.98 565.186L1072.93 567.541V574.812L1076.98 572.458V565.186ZM1085 560.567L1080.94 562.921V570.193L1085 567.839V560.567ZM1093.02 555.948L1088.96 558.302V565.574L1093.02 563.219V555.948ZM1101.03 551.329L1096.98 553.683V560.954L1101.03 558.6V551.329ZM1044.94 605.031L1040.89 607.385V600.114L1044.94 597.759V605.031ZM1052.96 593.14L1048.9 595.495V602.766L1052.96 600.412V593.14ZM1060.98 588.521L1056.92 590.875V598.147L1060.98 595.793V588.521ZM1068.99 583.902L1064.94 586.256V593.528L1068.99 591.173V583.902ZM1077.01 579.282L1072.96 581.637V588.908L1077.01 586.554V579.282ZM1085.03 574.663L1080.97 577.018V584.289L1085.03 581.935V574.663ZM1093.05 570.044L1088.99 572.398V579.67L1093.05 577.316V570.044ZM1101.06 565.425L1097.01 567.779V575.051L1101.06 572.696V565.425Z" fill="#001D23"/>
</g>
<g style="mix-blend-mode:multiply" opacity="0.6">
<path d="M1027.57 513.212L1031.62 515.567V522.838L1027.57 520.484V513.212ZM1019.55 515.865L1023.6 518.219V510.947L1019.55 508.593V515.865ZM1011.53 511.245L1015.58 513.6V506.328L1011.53 503.974V511.245ZM1003.51 506.626L1007.57 508.981V501.709L1003.51 499.355V506.626ZM995.497 502.007L999.55 504.361V497.09L995.497 494.735V502.007ZM1027.57 527.309L1031.62 529.663V536.934L1027.57 534.58V527.309ZM1019.55 529.961L1023.6 532.315V525.044L1019.55 522.689V529.961ZM1011.53 525.342L1015.58 527.696V520.424L1011.53 518.07V525.342ZM1003.51 520.722L1007.57 523.077V515.805L1003.51 513.451V520.722ZM995.497 516.103L999.55 518.457V511.186L995.497 508.832V516.103ZM1027.57 541.405L1031.62 543.759V551.031L1027.57 548.676V541.405ZM1019.55 544.057L1023.6 546.411V539.14L1019.55 536.785V544.057ZM1011.53 539.438L1015.58 541.792V534.521L1011.53 532.166V539.438ZM1003.51 534.819L1007.57 537.173V529.901L1003.51 527.547V534.819ZM995.497 530.199L999.55 532.554V525.282L995.497 522.928V530.199ZM1027.57 555.501L1031.62 557.855V565.127L1027.57 562.772V555.501ZM1019.55 558.153L1023.6 560.508V553.236L1019.55 550.882V558.153ZM1011.53 553.534L1015.58 555.888V548.617L1011.53 546.262V553.534ZM1003.51 548.915L1007.57 551.269V543.997L1003.51 541.643V548.915ZM995.497 544.295L999.55 546.65V539.378L995.497 537.024V544.295ZM1027.57 569.597L1031.62 571.951V579.223L1027.57 576.869V569.597ZM1019.55 572.249L1023.6 574.604V567.332L1019.55 564.978V572.249ZM1011.53 567.63L1015.58 569.984V562.713L1011.53 560.359V567.63ZM1003.51 563.011L1007.57 565.365V558.094L1003.51 555.739V563.011ZM995.497 558.392L999.55 560.746V553.474L995.497 551.12V558.392ZM1027.57 583.693L1031.62 586.048V593.319L1027.57 590.965V583.693ZM1019.55 586.346L1023.6 588.7V581.428L1019.55 579.074V586.346ZM1011.53 581.726L1015.58 584.081V576.809L1011.53 574.455V581.726ZM1003.51 577.107L1007.57 579.461V572.19L1003.51 569.835V577.107ZM995.497 572.488L999.55 574.842V567.571L995.497 565.216V572.488ZM1027.57 597.789L1031.62 600.144V607.415L1027.57 605.061V597.789ZM1019.55 600.442L1023.6 602.796V595.524L1019.55 593.17V600.442ZM1011.53 595.823L1015.58 598.177V590.905L1011.53 588.551V595.823ZM1003.51 591.203L1007.57 593.558V586.286L1003.51 583.932V591.203ZM995.497 586.584L999.55 588.938V581.667L995.497 579.312V586.584Z" fill="#001D23"/>
</g>
</g>
<g style="mix-blend-mode:multiply" opacity="0.6">
<g style="mix-blend-mode:multiply" opacity="0.6">
<path d="M469.682 468.897L473.616 471.162V478.225L469.682 475.96V468.897ZM461.903 471.46L465.837 473.725V466.662L461.903 464.397V471.46ZM454.124 466.96L458.058 469.225V462.162L454.124 459.897V466.96ZM446.345 462.46L450.279 464.725V457.662L446.345 455.397V462.46ZM438.565 457.96L442.5 460.225V453.162L438.565 450.897V457.96ZM430.786 453.46L434.721 455.725V448.661L430.786 446.397V453.46ZM423.007 448.96L426.942 451.224V444.161L423.007 441.897V448.96ZM415.228 444.46L419.163 446.724V439.661L415.228 437.396V444.46ZM469.652 482.457L473.586 484.721V491.784L469.652 489.52V482.457ZM461.873 485.02L465.807 487.284V480.221L461.873 477.957V485.02ZM454.094 480.519L458.028 482.784V475.721L454.094 473.456V480.519ZM446.315 476.019L450.249 478.284V471.221L446.315 468.956V476.019ZM438.536 471.519L442.47 473.784V466.721L438.536 464.456V471.519ZM430.757 467.019L434.691 469.284V462.221L430.757 459.956V467.019ZM422.978 462.519L426.912 464.784V457.721L422.978 455.456V462.519ZM415.199 458.019L419.133 460.284V453.221L415.199 450.956V458.019ZM469.622 496.016L473.556 498.281V505.344L469.622 503.079V496.016ZM461.843 498.579L465.777 500.844V493.781L461.843 491.516V498.579ZM454.064 494.079L457.998 496.344V489.281L454.064 487.016V494.079ZM446.285 489.579L450.219 491.844V484.781L446.285 482.516V489.579ZM438.506 485.079L442.44 487.344V480.281L438.506 478.016V485.079ZM430.727 480.579L434.661 482.844V475.781L430.727 473.516V480.579ZM422.948 476.079L426.882 478.344V471.281L422.948 469.016V476.079ZM415.169 471.579L419.103 473.844V466.781L415.169 464.516V471.579ZM469.592 509.576L473.526 511.841V518.904L469.592 516.639V509.576ZM461.813 512.139L465.747 514.404V507.341L461.813 505.076V512.139ZM454.034 507.639L457.968 509.904V502.841L454.034 500.576V507.639ZM446.255 503.139L450.189 505.404V498.341L446.255 496.076V503.139ZM438.476 498.639L442.41 500.904V493.841L438.476 491.576V498.639ZM430.697 494.139L434.631 496.404V489.341L430.697 487.076V494.139ZM422.918 489.639L426.852 491.904V484.841L422.918 482.576V489.639ZM415.139 485.139L419.073 487.404V480.341L415.139 478.076V485.139ZM523.956 499.98L527.89 502.245V509.308L523.956 507.043V499.98ZM516.177 502.543L520.111 504.808V497.745L516.177 495.48V502.543ZM508.398 498.043L512.332 500.308V493.245L508.398 490.98V498.043ZM500.619 493.543L504.553 495.808V488.745L500.619 486.48V493.543ZM492.84 489.043L496.774 491.308V484.245L492.84 481.98V489.043ZM485.061 484.543L488.995 486.808V479.745L485.061 477.48V484.543ZM477.282 480.043L481.216 482.308V475.245L477.282 472.98V480.043ZM523.926 513.54L527.861 515.805V522.868L523.926 520.603V513.54ZM516.147 516.103L520.082 518.368V511.305L516.147 509.04V516.103ZM508.368 511.603L512.302 513.867V506.805L508.368 504.54V511.603ZM500.589 507.103L504.523 509.367V502.304L500.589 500.04V507.103ZM492.81 502.602L496.744 504.867V497.804L492.81 495.54V502.602ZM485.031 498.102L488.965 500.367V493.304L485.031 491.039V498.102ZM477.252 493.602L481.186 495.867V488.804L477.252 486.539V493.602ZM523.897 527.099L527.831 529.364V536.427L523.897 534.162V527.099ZM516.117 529.662L520.052 531.927V524.864L516.117 522.599V529.662ZM508.338 525.162L512.273 527.427V520.364L508.338 518.099V525.162ZM500.559 520.662L504.494 522.927V515.864L500.559 513.599V520.662ZM492.78 516.162L496.715 518.427V511.364L492.78 509.099V516.162ZM485.001 511.662L488.936 513.927V506.864L485.001 504.599V511.662ZM477.222 507.162L481.156 509.427V502.364L477.222 500.099V507.162ZM523.867 540.659L527.801 542.924V549.987L523.867 547.722V540.659ZM516.088 543.222L520.022 545.487V538.424L516.088 536.159V543.222ZM508.309 538.722L512.243 540.987V533.924L508.309 531.659V538.722ZM500.53 534.222L504.464 536.487V529.424L500.53 527.159V534.222ZM492.751 529.722L496.685 531.987V524.924L492.751 522.659V529.722ZM484.971 525.222L488.906 527.487V520.424L484.971 518.159V525.222ZM477.192 520.722L481.127 522.987V515.924L477.192 513.659V520.722Z" fill="#001D23"/>
</g>
<g style="mix-blend-mode:multiply" opacity="0.6">
<path d="M669.938 585.242L673.872 587.507V594.57L669.938 592.306V585.242ZM662.159 587.805L666.093 590.07V583.007L662.159 580.742V587.805ZM654.38 583.305L658.314 585.57V578.507L654.38 576.242V583.305ZM646.601 578.805L650.535 581.07V574.007L646.601 571.742V578.805ZM638.822 574.305L642.756 576.57V569.507L638.822 567.242V574.305ZM631.043 569.805L634.977 572.07V565.007L631.043 562.742V569.805ZM623.264 565.305L627.198 567.57V560.507L623.264 558.242V565.305ZM615.485 560.805L619.419 563.07V556.007L615.485 553.742V560.805ZM623.264 578.925L627.198 581.189V574.126L623.264 571.862V578.925ZM615.485 574.425L619.419 576.689V569.626L615.485 567.362V574.425ZM623.264 592.544L627.198 594.809V587.746L623.264 585.481V592.544ZM615.485 588.044L619.419 590.309V583.246L615.485 580.981V588.044ZM623.264 606.163L627.198 608.428V601.365L623.264 599.1V606.163ZM615.485 601.663L619.419 603.928V596.865L615.485 594.6V601.663ZM716.523 619.067L720.457 621.332V614.269L716.523 612.004V619.067ZM708.744 614.567L712.678 616.832V609.769L708.744 607.504V614.567ZM700.965 610.067L704.899 612.332V605.269L700.965 603.004V610.067ZM693.186 605.567L697.12 607.832V600.769L693.186 598.504V605.567ZM685.407 601.067L689.341 603.332V596.269L685.407 594.004V601.067ZM677.628 596.567L681.562 598.832V591.769L677.628 589.504V596.567ZM716.493 632.657L720.427 634.922V627.859L716.493 625.594V632.657ZM716.493 646.306L720.427 648.571V641.508L716.493 639.243V646.306ZM716.493 659.955L720.427 662.22V655.157L716.493 652.892V659.955Z" fill="#001D23"/>
</g>
<g style="mix-blend-mode:multiply" opacity="0.6">
<path d="M761.975 635.964L765.73 633.788V640.524L761.975 642.699V635.964ZM761.975 616.682L765.73 614.507V607.772L761.975 609.947V616.682ZM761.975 603.689L765.73 601.513V594.778L761.975 596.954V603.689ZM754.553 607.98L758.309 605.805V599.07L754.553 601.245V607.98ZM754.553 633.967L758.309 631.792V625.057L754.553 627.232V633.967ZM754.553 620.974L758.309 618.798V612.063L754.553 614.239V620.974ZM754.553 646.961L758.309 644.785V638.05L754.553 640.226V646.961ZM776.788 634.116L780.543 631.941V625.206L776.788 627.381V634.116ZM769.366 599.397L773.122 597.222V590.487L769.366 592.662V599.397ZM769.366 612.391L773.122 610.215V603.48L769.366 605.656V612.391ZM769.366 638.378L773.122 636.202V629.467L769.366 631.643V638.378ZM769.366 625.384L773.122 623.209V616.474L769.366 618.649V625.384ZM732.349 620.765L736.104 618.59V611.854L732.349 614.03V620.765ZM776.788 621.123L780.543 618.947V612.212L776.788 614.388V621.123ZM739.74 642.52L743.496 640.345V633.61L739.74 635.785V642.52ZM739.74 655.514L743.496 653.338V646.603L739.74 648.779V655.514ZM732.349 633.788L736.104 631.613V624.878L732.349 627.053V633.788ZM732.349 659.775L736.104 657.6V650.865L732.349 653.04V659.775ZM732.349 646.782L736.104 644.606V637.871L732.349 640.047V646.782ZM747.162 625.235L750.917 623.06V616.325L747.162 618.5V625.235ZM747.162 612.242L750.917 610.066V603.331L747.162 605.507V612.242ZM747.162 638.229L750.917 636.053V629.318L747.162 631.494V638.229ZM747.162 651.222L750.917 649.047V642.312L747.162 644.487V651.222ZM739.74 616.504L743.496 614.328V607.593L739.74 609.768V616.504ZM739.74 629.497L743.496 627.322V620.586L739.74 622.762V629.497ZM761.975 629.676L765.73 627.5V620.765L761.975 622.941V629.676ZM776.788 608.129L780.543 605.954V599.219L776.788 601.394V608.129ZM776.788 595.136L780.543 592.96V586.225L776.788 588.401V595.136ZM784.209 590.844L787.964 588.669V581.934L784.209 584.109V590.844ZM784.209 629.855L787.964 627.679V620.944L784.209 623.119V629.855ZM784.209 603.868L787.964 601.692V594.957L784.209 597.132V603.868ZM784.209 616.861L787.964 614.686V607.95L784.209 610.126V616.861Z" fill="#001D23"/>
</g>
<g style="mix-blend-mode:multiply" opacity="0.6">
<path d="M664.605 647.379L660.85 645.204V651.939L664.605 654.114V647.379ZM664.605 634.386L660.85 632.21V638.945L664.605 641.121V634.386ZM672.027 638.677L668.271 636.502V643.237L672.027 645.412V638.677ZM672.027 651.671L668.271 649.495V656.23L672.027 658.406V651.671ZM657.214 630.124L653.458 627.949V634.684L657.214 636.859V630.124ZM657.214 643.118L653.458 640.942V647.677L657.214 649.853V643.118ZM679.448 655.962L675.693 653.787V660.522L679.448 662.697V655.962ZM679.448 642.969L675.693 640.793V647.528L679.448 649.704V642.969ZM649.792 638.856L646.037 636.68V643.416L649.792 645.591V638.856ZM649.792 625.862L646.037 623.687V630.422L649.792 632.598V625.862ZM642.371 621.571L638.615 619.396V626.131L642.371 628.306V621.571ZM642.371 634.565L638.615 632.389V639.124L642.371 641.3V634.565Z" fill="#001D23"/>
</g>
<g style="mix-blend-mode:multiply" opacity="0.6">
<path d="M549.763 505.346L545.829 507.611V500.548L549.763 498.283V505.346ZM557.542 493.813L553.608 496.078V503.141L557.542 500.876V493.813ZM565.321 489.313L561.387 491.578V498.641L565.321 496.376V489.313ZM573.1 484.813L569.166 487.078V494.141L573.1 491.876V484.813ZM580.88 480.313L576.945 482.578V489.64L580.88 487.376V480.313ZM588.659 475.813L584.724 478.077V485.14L588.659 482.876V475.813ZM596.438 471.312L592.503 473.577V480.64L596.438 478.375V471.312ZM549.793 518.935L545.859 521.2V514.137L549.793 511.873V518.935ZM557.572 507.402L553.638 509.667V516.73L557.572 514.465V507.402ZM565.351 502.902L561.417 505.167V512.23L565.351 509.965V502.902ZM573.13 498.402L569.196 500.667V507.73L573.13 505.465V498.402ZM580.909 493.902L576.975 496.167V503.23L580.909 500.965V493.902ZM588.688 489.402L584.754 491.667V498.73L588.688 496.465V489.402ZM596.467 484.902L592.533 487.167V494.23L596.467 491.965V484.902ZM549.823 532.525L545.889 534.79V527.727L549.823 525.462V532.525ZM557.602 520.992L553.668 523.257V530.32L557.602 528.055V520.992ZM565.381 516.492L561.447 518.757V525.82L565.381 523.555V516.492ZM573.16 511.992L569.226 514.257V521.32L573.16 519.055V511.992ZM580.939 507.492L577.005 509.757V516.82L580.939 514.555V507.492ZM588.718 502.992L584.784 505.257V512.32L588.718 510.055V502.992ZM596.497 498.492L592.563 500.757V507.819L596.497 505.555V498.492ZM549.853 546.115L545.919 548.38V541.317L549.853 539.052V546.115ZM557.632 534.581L553.698 536.846V543.909L557.632 541.644V534.581ZM565.411 530.081L561.477 532.346V539.409L565.411 537.144V530.081ZM573.19 525.581L569.256 527.846V534.909L573.19 532.644V525.581ZM580.969 521.081L577.035 523.346V530.409L580.969 528.144V521.081ZM588.748 516.581L584.814 518.846V525.909L588.748 523.644V516.581ZM596.527 512.081L592.593 514.346V521.409L596.527 519.144V512.081Z" fill="#001D23"/>
</g>
<g style="mix-blend-mode:multiply" opacity="0.6">
<path d="M959.642 167.305L964.59 164.444V485.855L959.642 488.716V167.305ZM970.461 482.487L975.409 479.626V158.215L970.461 161.076V482.487ZM981.281 476.229L986.228 473.368V151.957L981.281 154.818V476.229ZM992.1 469.97L997.047 467.109V145.699L992.1 148.56V469.97ZM1002.92 463.712L1007.87 460.851V139.47L1002.92 142.331V463.742V463.712ZM1013.74 136.043V457.454L1018.69 454.593V133.212L1013.74 136.073V136.043Z" fill="#001D23"/>
</g>
<g style="mix-blend-mode:multiply" opacity="0.6">
<path d="M948.911 602.259L943.963 599.398V164.473L948.911 167.334V602.259ZM938.092 161.076L933.144 158.215V593.14L938.092 596.001V161.076ZM927.273 154.818L922.325 151.957V586.912L927.273 589.773V154.818ZM916.454 148.559L911.506 145.698V580.653L916.454 583.514V148.559ZM905.634 142.301L900.687 139.44V574.395L905.634 577.256V142.301ZM889.868 133.182V568.137L894.815 570.998V136.072L889.868 133.211V133.182Z" fill="#001D23"/>
</g>
<g style="mix-blend-mode:multiply" opacity="0.6">
<path d="M963.905 501.917L959.851 504.272V497L963.905 494.646V501.917ZM971.922 490.026L967.869 492.381V499.652L971.922 497.298V490.026ZM979.94 485.407L975.886 487.762V495.033L979.94 492.679V485.407ZM963.905 515.984L959.851 518.338V511.066L963.905 508.712V515.984ZM971.922 504.093L967.869 506.447V513.719L971.922 511.364V504.093ZM979.94 499.474L975.886 501.828V509.1L979.94 506.745V499.474ZM963.905 530.05L959.851 532.404V525.133L963.905 522.778V530.05ZM971.922 518.159L967.869 520.514V527.785L971.922 525.431V518.159ZM979.94 513.54L975.886 515.894V523.166L979.94 520.812V513.54ZM963.905 544.116L959.851 546.471V539.199L963.905 536.845V544.116ZM971.922 532.226L967.869 534.58V541.852L971.922 539.497V532.226ZM979.94 527.606L975.886 529.961V537.232L979.94 534.878V527.606ZM963.905 558.183L959.851 560.537V553.266L963.905 550.911V558.183ZM971.922 546.292L967.869 548.646V555.918L971.922 553.564V546.292ZM979.94 541.673L975.886 544.027V551.299L979.94 548.944V541.673ZM963.905 572.249L959.851 574.604V567.332L963.905 564.978V572.249ZM971.922 560.358L967.869 562.713V569.984L971.922 567.63V560.358ZM979.94 555.739L975.886 558.093V565.365L979.94 563.011V555.739ZM963.905 586.316L959.851 588.67V581.398L963.905 579.044V586.316ZM971.922 574.425L967.869 576.779V584.051L971.922 581.696V574.425ZM979.94 569.805L975.886 572.16V579.431L979.94 577.077V569.805ZM963.905 600.412L959.851 602.766V595.494L963.905 593.14V600.412ZM971.922 588.521L967.869 590.875V598.147L971.922 595.792V588.521ZM979.94 583.902L975.886 586.256V593.528L979.94 591.173V583.902Z" fill="#001D23"/>
</g>
</g>
<path d="M911.268 588.072L917.527 584.466C919.077 583.572 920.328 584.108 920.328 585.658V594.33C920.328 595.88 921.58 596.387 923.13 595.522L931.803 590.516C933.353 589.622 934.605 590.158 934.605 591.708V597.966C934.605 599.516 933.353 601.483 931.803 602.377L923.13 607.383C921.58 608.278 920.328 610.244 920.328 611.794V620.407C920.328 621.956 919.077 623.923 917.527 624.817L908.466 630.033V592.542C908.466 590.993 909.718 589.026 911.268 588.132V588.072Z" fill="#006058"/>
<path d="M953.947 556.273L963.008 551.058V541.998C963.008 540.449 961.756 539.942 960.206 540.806L953.947 544.412C952.398 545.306 951.146 547.273 951.146 548.823V555.081C951.146 556.631 952.398 557.138 953.947 556.273Z" fill="white"/>
<path d="M985.93 632.119L994.99 626.904V617.844C994.99 616.294 993.739 615.788 992.189 616.652L985.93 620.258C984.38 621.152 983.128 623.119 983.128 624.669V630.927C983.128 632.477 984.38 632.983 985.93 632.119Z" fill="#48CA2D"/>
<path d="M939.73 614.328L948.79 609.112V618.172C948.79 619.722 947.538 621.689 945.989 622.583L939.73 626.189C938.18 627.083 936.928 626.546 936.928 624.997V618.738C936.928 617.189 938.18 615.222 939.73 614.328Z" fill="#00C8B5"/>
<path d="M910.464 686.598L919.525 681.382V672.323C919.525 670.773 918.273 670.266 916.723 671.13L910.464 674.736C908.914 675.63 907.663 677.597 907.663 679.147V685.405C907.663 686.955 908.914 687.462 910.464 686.598Z" fill="white"/>
<path d="M925.486 627.261L934.546 622.045V612.986C934.546 611.436 933.295 610.929 931.745 611.794L925.486 615.4C923.936 616.294 922.684 618.261 922.684 619.81V626.069C922.684 627.618 923.936 628.125 925.486 627.261Z" fill="#48CA2D"/>
<path d="M953.975 620.316L962.619 615.31C964.168 614.416 965.42 612.449 965.42 610.899V602.227C965.42 600.677 966.672 598.71 968.222 597.816L974.481 594.21C976.031 593.316 977.283 593.852 977.283 595.402V615.906C977.283 617.455 976.031 619.422 974.511 620.316L965.838 625.323C964.288 626.217 963.036 628.184 963.036 629.704V638.376C963.036 639.926 961.784 641.893 960.234 642.787L951.174 648.002V624.697C951.174 623.148 952.425 621.181 953.975 620.287V620.316Z" fill="white"/>
<path d="M925.486 560.863L931.745 557.257C933.295 556.363 934.546 556.899 934.546 558.449V567.121C934.546 568.671 935.798 569.177 937.348 568.313L960.238 555.081C961.788 554.187 963.04 554.724 963.04 556.273V565.333L951.595 571.949C950.045 572.843 948.793 574.81 948.793 576.36V585.032C948.793 586.582 947.541 588.548 945.991 589.443L939.732 593.049C938.183 593.943 936.931 593.406 936.931 591.856V583.184C936.931 581.634 935.679 581.128 934.129 581.992L925.486 586.999C923.936 587.893 922.684 587.356 922.684 585.836V565.303C922.684 563.753 923.936 561.787 925.486 560.893V560.863Z" fill="#00C8B5"/>
<path d="M979.673 593.228V569.923L988.734 564.708C990.284 563.814 991.535 564.351 991.535 565.9V574.572C991.535 576.122 992.787 576.629 994.337 575.765L1003.01 570.758C1004.56 569.864 1005.81 570.4 1005.81 571.95V592.453C1005.81 594.003 1004.56 595.97 1003.01 596.864L996.751 600.47C995.201 601.364 993.95 600.828 993.95 599.278V590.606C993.95 589.056 992.698 588.549 991.148 589.414L982.505 594.42C980.955 595.314 979.703 594.778 979.703 593.258L979.673 593.228Z" fill="#00C8B5"/>
<path d="M965.425 540.598C965.425 539.048 966.677 537.081 968.227 536.187L974.486 532.581C976.036 531.687 977.288 532.223 977.288 533.773V542.445C977.288 543.995 978.539 544.502 980.089 543.637L1002.98 530.405C1004.53 529.511 1005.78 530.048 1005.78 531.597V552.101V554.902L996.72 560.118C995.17 561.012 993.919 560.475 993.919 558.926V550.253C993.919 548.704 992.667 548.197 991.117 549.061L968.227 562.293C966.677 563.187 965.425 562.651 965.425 561.101V540.598Z" fill="#006058"/>
<path d="M968.195 533.803L988.701 521.972C990.251 521.078 991.503 519.111 991.503 517.561V511.303C991.503 509.753 990.251 509.247 988.701 510.111L965.394 523.551V532.611C965.394 534.161 966.645 534.667 968.195 533.803Z" fill="#48CA2D"/>
<path d="M922.899 669.103L922.72 642.043C922.72 640.016 923.912 637.632 925.432 636.768L931.602 633.132C933.122 632.238 934.374 633.162 934.374 635.189L934.582 665.914L925.671 671.159C924.151 672.053 922.899 671.129 922.899 669.103Z" fill="#48CA2D"/>
<path d="M1063.29 195.791V186.731L1072.35 181.516C1073.9 180.622 1075.15 181.158 1075.15 182.708V188.966C1075.15 190.516 1073.9 192.483 1072.35 193.377L1066.09 196.983C1064.54 197.877 1063.29 197.34 1063.29 195.791Z" fill="white"/>
<path d="M1018.2 240.792V231.732L1009.13 236.948C1007.58 237.842 1006.33 239.809 1006.33 241.358V247.617C1006.33 249.166 1007.58 249.673 1009.13 248.809L1015.39 245.203C1016.94 244.309 1018.2 242.342 1018.2 240.792Z" fill="#48CA2D"/>
<path d="M1020.58 276.905V267.845L1029.64 262.63C1031.19 261.736 1032.44 262.272 1032.44 263.822V270.08C1032.44 271.63 1031.19 273.597 1029.64 274.491L1023.38 278.097C1021.83 278.991 1020.58 278.455 1020.58 276.905Z" fill="#006058"/>
<path d="M1002.81 324.116V315.056L1011.87 309.841C1013.42 308.947 1014.68 309.483 1014.68 311.033V317.291C1014.68 318.841 1013.42 320.808 1011.87 321.702L1005.62 325.308C1004.07 326.202 1002.81 325.666 1002.81 324.116Z" fill="#006058"/>
<path d="M1075.15 265.436V274.496L1066.09 279.711C1064.54 280.605 1063.29 280.069 1063.29 278.519V272.261C1063.29 270.711 1064.54 268.744 1066.09 267.85L1072.35 264.244C1073.9 263.35 1075.15 263.887 1075.15 265.436Z" fill="#48CA2D"/>
<path d="M1075.15 407.412V416.472L1066.09 421.687C1064.54 422.581 1063.29 422.045 1063.29 420.495V414.237C1063.29 412.687 1064.54 410.72 1066.09 409.826L1072.35 406.22C1073.9 405.326 1075.15 405.862 1075.15 407.412Z" fill="white"/>
<path d="M1060.04 119.021V128.081L1050.98 133.296C1049.43 134.19 1048.18 133.654 1048.18 132.104V125.846C1048.18 124.296 1049.43 122.329 1050.98 121.435L1057.24 117.829C1058.79 116.935 1060.04 117.472 1060.04 119.021Z" fill="#006058"/>
<path d="M1054.11 215.787V224.847L1045.05 230.062C1043.5 230.956 1042.25 230.42 1042.25 228.87V222.612C1042.25 221.062 1043.5 219.095 1045.05 218.201L1051.31 214.595C1052.86 213.701 1054.11 214.237 1054.11 215.787Z" fill="#006058"/>
<path d="M1077.53 173.321V152.818C1077.53 151.268 1078.79 149.301 1080.34 148.407L1086.59 144.801C1088.14 143.907 1089.4 144.443 1089.4 145.993V169.298L1080.34 174.513C1078.79 175.407 1077.53 174.871 1077.53 173.321Z" fill="#006058"/>
<path d="M1077.92 140.3L1086.6 135.293C1088.14 134.399 1089.4 132.432 1089.4 130.883V124.624C1089.4 123.075 1088.14 122.568 1086.6 123.432L1066.09 135.263C1064.54 136.158 1063.29 138.124 1063.29 139.674V160.178C1063.29 161.727 1064.54 162.234 1066.09 161.37L1075.15 156.154V144.711C1075.15 143.161 1076.4 141.194 1077.95 140.33L1077.92 140.3Z" fill="#48CA2D"/>
<path d="M1006.74 398.233L1015.42 393.226C1016.97 392.332 1018.22 390.365 1018.22 388.815V382.557C1018.22 381.007 1016.97 380.501 1015.42 381.365L994.912 393.196C993.363 394.09 992.111 396.057 992.111 397.607V418.11C992.111 419.66 993.363 420.167 994.912 419.302L1003.97 414.087V402.643C1003.97 401.094 1005.22 399.127 1006.77 398.262L1006.74 398.233Z" fill="#48CA2D"/>
<path d="M1018.19 207.681V199.039C1018.19 197.489 1019.44 195.522 1020.99 194.628L1029.67 189.621C1031.22 188.727 1032.47 186.76 1032.47 185.211V178.952C1032.47 177.403 1031.22 176.896 1029.67 177.76L1009.16 189.592C1007.61 190.486 1006.36 192.453 1006.36 194.002V202.675C1006.36 204.224 1005.11 206.191 1003.56 207.055L994.885 212.062C993.335 212.956 992.083 214.923 992.083 216.473V225.532L1015.39 212.092C1016.94 211.198 1018.19 209.231 1018.19 207.681Z" fill="#006058"/>
<path d="M1018.19 269.28V248.777C1018.19 247.227 1016.94 246.72 1015.42 247.584L1006.75 252.591C1005.2 253.485 1003.95 252.949 1003.95 251.399V242.727C1003.95 241.177 1002.69 240.671 1001.14 241.535L992.083 246.75V270.055C992.083 271.605 993.335 272.111 994.885 271.247L1003.56 266.24C1005.11 265.346 1006.36 265.883 1006.36 267.432V276.075C1006.36 277.625 1007.61 278.131 1009.16 277.267L1015.42 273.661C1016.97 272.767 1018.22 270.8 1018.22 269.25L1018.19 269.28Z" fill="#006058"/>
<path d="M1089.39 194.032C1089.39 192.483 1088.14 191.976 1086.59 192.84L1080.33 196.446C1078.78 197.34 1077.53 199.307 1077.53 200.857V209.5C1077.53 211.049 1076.28 213.016 1074.73 213.91L1066.06 218.917C1064.51 219.811 1063.26 221.778 1063.26 223.328V229.586C1063.26 231.136 1064.51 231.642 1066.06 230.778L1074.73 225.771C1076.28 224.877 1077.53 225.414 1077.53 226.963V249.851C1077.53 251.401 1078.78 251.907 1080.33 251.043L1089.39 245.828V194.032Z" fill="#00C8B5"/>
<path d="M1023.35 176.539L1046.66 163.069V154.009C1046.66 152.459 1045.4 151.953 1043.85 152.817L1035.18 157.824C1033.63 158.718 1032.38 158.181 1032.38 156.632V147.959C1032.38 146.41 1031.13 145.903 1029.58 146.767L1009.07 158.598C1007.52 159.492 1006.27 161.459 1006.27 162.979V169.238C1006.27 170.787 1007.52 171.294 1009.07 170.43L1017.75 165.423C1019.3 164.529 1020.55 165.065 1020.55 166.615V175.287C1020.55 176.837 1021.77 177.373 1023.32 176.479L1023.35 176.539Z" fill="#00C8B5"/>
<path d="M1046.69 184.883C1046.69 183.333 1045.44 182.827 1043.89 183.691L1037.63 187.297C1036.08 188.191 1034.83 190.158 1034.83 191.708V200.38C1034.83 201.93 1033.57 203.897 1032.02 204.791L1023.35 209.797C1021.8 210.691 1020.55 212.658 1020.55 214.208V234.711C1020.55 236.261 1021.8 236.768 1023.35 235.903L1032.41 230.688V219.244C1032.41 217.695 1033.66 215.728 1035.21 214.864L1043.86 209.887C1045.41 208.993 1046.66 207.026 1046.66 205.476V184.943L1046.69 184.883Z" fill="#48CA2D"/>
<path d="M1043.2 345.395V336.753C1043.2 335.203 1044.45 333.236 1046 332.342L1054.67 327.335C1056.22 326.441 1057.48 324.474 1057.48 322.925V316.666C1057.48 315.117 1056.22 314.61 1054.67 315.474L1034.17 327.305C1032.62 328.2 1031.37 330.166 1031.37 331.716V340.388C1031.37 341.938 1030.11 343.905 1028.56 344.769L1019.89 349.776C1018.34 350.67 1017.09 352.637 1017.09 354.187V363.246L1040.4 349.806C1041.95 348.912 1043.2 346.945 1043.2 345.395Z" fill="#00C8B5"/>
<path d="M1048.35 314.252L1071.66 300.782V291.722C1071.66 290.172 1070.41 289.666 1068.86 290.53L1060.19 295.536C1058.64 296.431 1057.38 295.894 1057.38 294.344V285.672C1057.38 284.122 1056.13 283.616 1054.58 284.48L1034.08 296.311C1032.53 297.205 1031.28 299.172 1031.28 300.692V306.951C1031.28 308.5 1032.53 309.007 1034.08 308.143L1042.75 303.136C1044.3 302.242 1045.55 302.778 1045.55 304.328V313C1045.55 314.55 1046.77 315.086 1048.32 314.192L1048.35 314.252Z" fill="white"/>
<path d="M1071.66 322.597C1071.66 321.047 1070.41 320.541 1068.86 321.405L1062.6 325.011C1061.05 325.905 1059.8 327.872 1059.8 329.422V338.094C1059.8 339.644 1058.55 341.61 1057 342.504L1048.33 347.511C1046.78 348.405 1045.53 350.372 1045.53 351.922V372.425C1045.53 373.975 1046.78 374.482 1048.33 373.617L1057.39 368.402V356.958C1057.39 355.409 1058.64 353.442 1060.19 352.577L1068.83 347.601C1070.38 346.706 1071.63 344.74 1071.63 343.19V322.657L1071.66 322.597Z" fill="#006058"/>
<path d="M750.968 439.581L744.709 443.187C743.159 444.081 741.908 446.048 741.908 447.597V456.27C741.908 457.819 740.656 459.786 739.106 460.68L730.433 465.687C728.883 466.581 727.631 468.548 727.631 470.098V476.356C727.631 477.906 728.883 478.412 730.433 477.548L739.106 472.541C740.656 471.647 741.908 472.184 741.908 473.733V482.346C741.908 483.896 743.159 484.402 744.709 483.538L753.77 478.323V440.832C753.77 439.283 752.518 438.776 750.968 439.64V439.581Z" fill="#006058"/>
<path d="M696.754 567.697V561.439C696.754 559.889 695.502 559.382 693.952 560.247L685.279 565.253C683.729 566.147 682.478 565.611 682.478 564.061V555.389C682.478 553.839 681.226 553.333 679.676 554.197L673.417 557.803C671.867 558.697 670.615 560.664 670.615 562.214V570.886C670.615 572.436 669.363 574.402 667.814 575.296L659.2 580.273C657.65 581.167 656.398 583.134 656.398 584.684V593.744L670.585 585.548L674.639 583.194L693.863 572.078C695.413 571.184 696.665 569.217 696.665 567.667L696.754 567.697Z" fill="#48CA2D"/>
<path d="M727.035 439.851L717.974 445.067V436.007C717.974 434.457 719.226 432.49 720.776 431.596L727.035 427.99C728.585 427.096 729.837 427.633 729.837 429.182V435.441C729.837 436.99 728.585 438.957 727.035 439.851Z" fill="white"/>
<path d="M722.508 503.445L713.447 508.66V517.72C713.447 519.27 714.699 519.776 716.249 518.912L722.508 515.306C724.058 514.412 725.309 512.445 725.309 510.895V504.637C725.309 503.087 724.058 502.581 722.508 503.445Z" fill="#48CA2D"/>
<path d="M750.972 513.1L741.911 518.316V509.256C741.911 507.706 743.163 505.739 744.713 504.845L750.972 501.239C752.521 500.345 753.773 500.882 753.773 502.432V508.69C753.773 510.24 752.521 512.206 750.972 513.1Z" fill="white"/>
<path d="M694.011 438.745L673.506 450.576C671.956 451.47 670.704 450.934 670.704 449.384V443.126C670.704 441.576 671.956 439.609 673.506 438.715L696.813 425.274V434.334C696.813 435.884 695.561 437.851 694.011 438.745Z" fill="#006058"/>
<path d="M668.32 520.849V541.353C668.32 542.903 667.069 544.87 665.519 545.764L659.26 549.37C657.71 550.264 656.458 549.727 656.458 548.178V524.873L665.519 519.657C667.069 518.763 668.32 519.3 668.32 520.849Z" fill="#006058"/>
<path d="M708.259 516.409L699.616 521.415C698.066 522.309 696.814 521.773 696.814 520.223V511.551C696.814 510.001 695.562 509.495 694.012 510.359L687.753 513.965C686.203 514.859 684.952 516.826 684.952 518.376V538.879C684.952 540.429 686.203 540.935 687.724 540.071L696.397 535.065C697.947 534.171 699.198 534.707 699.198 536.257V544.929C699.198 546.479 700.45 546.985 702 546.121L711.061 540.906V517.601C711.061 516.051 709.809 515.545 708.259 516.409Z" fill="white"/>
<path d="M687.753 490.303C686.203 491.197 684.952 493.164 684.952 494.683V500.942C684.952 502.492 686.203 502.998 687.753 502.134L696.426 497.127C697.976 496.233 699.228 496.77 699.228 498.319V506.992C699.228 508.541 700.48 509.048 702.03 508.184L722.535 496.352C724.085 495.458 725.337 493.491 725.337 491.942V482.882L713.892 489.498C712.342 490.392 711.09 489.856 711.09 488.306V479.634C711.09 478.084 709.868 477.548 708.319 478.442L687.783 490.303H687.753Z" fill="#48CA2D"/>
<path d="M696.782 454.63C696.782 453.08 695.53 452.574 693.98 453.438L687.721 457.044C686.171 457.938 684.92 459.905 684.92 461.455V470.127C684.92 471.677 683.668 473.644 682.118 474.538L659.228 487.77C657.678 488.664 656.426 490.631 656.426 492.18V512.684V515.485L665.487 510.27C667.037 509.376 668.289 507.409 668.289 505.889V497.217C668.289 495.667 669.54 493.7 671.09 492.806L693.98 479.574C695.53 478.68 696.782 476.713 696.782 475.163V454.66V454.63Z" fill="#00C8B5"/>
</g>
</svg>
