<svg width="1024" height="655" viewBox="0 0 1024 655" fill="none" xmlns="http://www.w3.org/2000/svg">
<mask id="mask0_830_10068" style="mask-type:alpha" maskUnits="userSpaceOnUse" x="0" y="0" width="1024" height="655">
<rect width="1024" height="655" fill="#003E42"/>
</mask>
<g mask="url(#mask0_830_10068)">
<path d="M688.184 623.285L1000.49 793.694L1135.73 719.904L823.432 549.464L688.184 623.285Z" fill="#034F51"/>
<path d="M1350.34 586.484L1037.48 416.355L861.053 512.632L1173.35 683.072L1350.34 586.484Z" fill="#034F51"/>
<path d="M814.204 528.725L645.235 436.534L512 511.447L678.956 602.546L814.204 528.725Z" fill="#034F51"/>
<path d="M852.926 491.892L1029.29 395.647L856.391 301.616L682.934 399.14L852.926 491.892Z" fill="#034F51"/>
<path d="M778.17 461.64L637.511 384.887L560.995 426.647L701.654 503.4L778.17 461.64Z" fill="#02A894"/>
<path d="M701.652 503.867C701.652 503.867 701.487 503.867 701.388 503.805L560.729 427.052C560.729 427.052 560.465 426.803 560.465 426.647C560.465 426.491 560.564 426.335 560.729 426.241L637.245 384.481C637.245 384.481 637.575 384.387 637.74 384.481L778.399 461.234C778.399 461.234 778.663 461.483 778.663 461.639C778.663 461.795 778.564 461.951 778.399 462.045L701.883 503.805C701.883 503.805 701.718 503.867 701.619 503.867H701.652ZM562.015 426.647L701.652 502.869L777.178 461.67L637.542 385.448L562.015 426.647Z" fill="#02A894"/>
<path d="M637.512 391.406L766.227 461.64L701.655 496.882L572.94 426.648L637.512 391.406ZM637.512 389.223L568.948 426.648L701.622 499.065L770.186 461.64L637.512 389.223Z" fill="#003E42"/>
<path d="M701.654 569.922L560.995 493.17V426.646L701.654 503.399V569.922Z" fill="#003E42"/>
<path d="M701.652 570.391C701.652 570.391 701.487 570.391 701.388 570.329L560.729 493.576C560.729 493.576 560.465 493.327 560.465 493.171V426.616C560.465 426.46 560.564 426.304 560.729 426.211C560.894 426.117 561.059 426.117 561.223 426.211L701.883 502.964C701.883 502.964 702.147 503.213 702.147 503.369V569.923C702.147 570.079 702.048 570.235 701.883 570.329C701.817 570.36 701.718 570.391 701.619 570.391H701.652ZM561.52 492.89L701.157 569.112V503.65L561.52 427.427V492.89Z" fill="#02A894"/>
<path d="M763.775 528.164L687.259 569.924V503.401L763.775 461.641V528.164Z" fill="#003E42"/>
<path d="M687.261 570.205C687.03 570.111 686.964 570.018 686.964 569.924V503.37C686.964 503.37 687.03 503.182 687.096 503.12L763.612 461.36C763.612 461.36 763.81 461.297 763.909 461.36C764.008 461.422 764.041 461.516 764.041 461.609V528.164C764.041 528.164 763.975 528.351 763.909 528.413L687.393 570.173C687.393 570.173 687.294 570.205 687.228 570.205H687.261ZM687.558 503.557V569.456L763.48 528.008V462.108L687.558 503.525V503.557Z" fill="#02A894"/>
<path d="M741.262 313.673V304.192L751.293 298.734C753.008 297.799 754.394 298.36 754.394 299.982V306.531C754.394 308.153 753.008 310.211 751.293 311.147L744.364 314.921C742.648 315.856 741.262 315.295 741.262 313.673Z" fill="white"/>
<path d="M691.342 360.765V351.284L681.312 356.742C679.596 357.678 678.21 359.736 678.21 361.358V367.907C678.21 369.529 679.596 370.059 681.312 369.155L688.241 365.381C689.956 364.445 691.342 362.387 691.342 360.765Z" fill="#48CA2D"/>
<path d="M693.976 387.119V377.638L704.007 372.18C705.722 371.245 707.108 371.806 707.108 373.428V379.977C707.108 381.599 705.722 383.657 704.007 384.593L697.078 388.367C695.362 389.302 693.976 388.741 693.976 387.119Z" fill="#006058"/>
<path d="M675.71 312.634V303.153L685.741 297.695C687.457 296.759 688.842 297.321 688.842 298.943V305.492C688.842 307.114 687.457 309.172 685.741 310.108L678.812 313.881C677.096 314.817 675.71 314.256 675.71 312.634Z" fill="#006058"/>
<path d="M737.663 258.86V268.341L727.633 273.798C725.917 274.734 724.531 274.173 724.531 272.551V266.002C724.531 264.38 725.917 262.321 727.633 261.386L734.562 257.612C736.278 256.676 737.663 257.238 737.663 258.86Z" fill="#006058"/>
<path d="M731.099 334.6V344.081L721.069 349.539C719.353 350.474 717.967 349.913 717.967 348.291V341.742C717.967 340.12 719.353 338.062 721.069 337.126L727.998 333.352C729.713 332.417 731.099 332.978 731.099 334.6Z" fill="#006058"/>
<path d="M741.594 409.062V387.605C741.594 385.983 742.98 383.925 744.696 382.989L751.625 379.216C753.341 378.28 754.726 378.841 754.726 380.463V404.852L744.696 410.31C742.98 411.245 741.594 410.684 741.594 409.062Z" fill="#48CA2D"/>
<path d="M691.339 402.433V380.976C691.339 379.354 689.953 378.824 688.27 379.728L678.668 384.968C676.953 385.903 675.567 385.342 675.567 383.72V374.645C675.567 373.023 674.181 372.493 672.465 373.397L662.435 378.855V403.244C662.435 404.865 663.821 405.396 665.536 404.491L675.138 399.252C676.854 398.316 678.239 398.877 678.239 400.499V409.544C678.239 411.165 679.625 411.695 681.341 410.791L688.27 407.017C689.986 406.082 691.372 404.023 691.372 402.402L691.339 402.433Z" fill="white"/>
<path d="M770.163 311.801C770.163 310.179 768.777 309.649 767.062 310.553L760.133 314.327C758.417 315.263 757.031 317.321 757.031 318.943V327.987C757.031 329.609 755.645 331.667 753.93 332.603L744.328 337.842C742.612 338.778 741.226 340.836 741.226 342.458V349.008C741.226 350.629 742.612 351.16 744.328 350.255L753.93 345.016C755.645 344.08 757.031 344.641 757.031 346.263V370.215C757.031 371.837 758.417 372.367 760.133 371.463L770.163 366.005V311.832V311.801Z" fill="#00C8B5"/>
<path d="M722.851 302.227C722.851 300.605 721.465 300.075 719.749 300.979L712.82 304.753C711.104 305.688 709.718 307.747 709.718 309.369V318.444C709.718 320.066 708.333 322.124 706.617 323.06L697.015 328.299C695.3 329.235 693.914 331.293 693.914 332.915V354.372C693.914 355.994 695.3 356.524 697.015 355.62L707.046 350.162V338.186C707.046 336.564 708.432 334.506 710.147 333.601L719.716 328.393C721.432 327.457 722.818 325.399 722.818 323.777V302.289L722.851 302.227Z" fill="#00C8B5"/>
<path d="M968.314 330.902L881.14 283.31L763.842 347.307L851.016 394.899L968.314 330.902Z" fill="#02A894"/>
<path d="M851.016 395.366C851.016 395.366 850.851 395.367 850.752 395.304L763.545 347.712C763.545 347.712 763.281 347.462 763.281 347.306C763.281 347.15 763.38 346.994 763.545 346.901L880.843 282.904C880.843 282.904 881.173 282.81 881.338 282.904L968.545 330.496C968.545 330.496 968.809 330.746 968.809 330.902C968.809 331.058 968.71 331.214 968.545 331.307L851.246 395.304C851.246 395.304 851.081 395.366 850.983 395.366H851.016ZM764.832 347.306L851.016 394.337L967.324 330.87L881.14 283.84L764.832 347.306Z" fill="#02A894"/>
<path d="M865.641 289.829L940.904 330.903L835.549 388.413L760.287 347.339L865.641 289.829ZM865.641 287.646L756.295 347.307L835.516 390.534L944.863 330.872L865.641 287.646Z" fill="#003E42"/>
<path d="M851.016 476.829L763.842 429.268V347.307L851.016 394.899V476.829Z" fill="#003E42"/>
<path d="M851.016 477.328C851.016 477.328 850.851 477.328 850.752 477.266L763.545 429.673C763.545 429.673 763.281 429.424 763.281 429.268V347.338C763.281 347.182 763.38 347.026 763.545 346.932C763.71 346.839 763.875 346.839 764.04 346.932L851.247 394.525C851.247 394.525 851.511 394.774 851.511 394.93V476.891C851.511 477.047 851.412 477.203 851.247 477.297C851.181 477.328 851.082 477.359 850.983 477.359L851.016 477.328ZM764.337 428.987L850.521 476.018V395.149L764.337 348.118V428.987Z" fill="#02A894"/>
<path d="M952.814 412.832L835.515 476.829V394.899L952.814 330.902V412.832Z" fill="#003E42"/>
<path d="M835.517 477.14C835.286 477.046 835.22 476.953 835.22 476.859V394.898C835.22 394.898 835.286 394.711 835.352 394.649L952.65 330.652C952.65 330.652 952.848 330.589 952.947 330.652C953.046 330.714 953.079 330.808 953.079 330.901V412.831C953.079 412.831 953.013 413.018 952.947 413.081L835.649 477.078C835.649 477.078 835.55 477.109 835.484 477.109L835.517 477.14ZM835.814 395.085V476.392L952.518 412.706V331.4L835.814 395.085Z" fill="#02A894"/>
<path d="M855.636 306.887L862.565 303.113C864.28 302.178 865.666 300.119 865.666 298.498V289.422C865.666 287.8 867.052 285.742 868.768 284.806L878.369 279.567C880.085 278.631 881.471 276.573 881.471 274.951V268.402C881.471 266.78 880.085 266.25 878.369 267.154L868.768 272.394C867.052 273.329 865.666 272.768 865.666 271.146V262.133C865.666 260.511 864.28 259.981 862.565 260.885L852.534 266.343V305.577C852.534 307.199 853.92 307.729 855.636 306.825V306.887Z" fill="#006058"/>
<path d="M932.959 209.974V200.493L942.989 195.035C944.705 194.099 946.091 194.661 946.091 196.282V202.832C946.091 204.454 944.705 206.512 942.989 207.448L936.06 211.221C934.345 212.157 932.959 211.596 932.959 209.974Z" fill="#006058"/>
<path d="M881.435 246.994V237.513L871.405 242.971C869.689 243.906 868.303 245.965 868.303 247.586V254.136C868.303 255.757 869.689 256.288 871.405 255.383L878.334 251.61C880.05 250.674 881.435 248.615 881.435 246.994Z" fill="#48CA2D"/>
<path d="M912.906 180.05V170.569L922.936 165.111C924.652 164.175 926.038 164.737 926.038 166.359V172.908C926.038 174.53 924.652 176.588 922.936 177.524L916.007 181.297C914.291 182.233 912.906 181.672 912.906 180.05Z" fill="white"/>
<path d="M930.102 245.716V255.197L920.071 260.655C918.356 261.591 916.97 261.029 916.97 259.407V252.858C916.97 251.236 918.356 249.178 920.071 248.242L927 244.469C928.716 243.533 930.102 244.094 930.102 245.716Z" fill="#48CA2D"/>
<path d="M903.833 284.432L913.434 279.193C915.15 278.257 916.536 276.199 916.536 274.577V268.027C916.536 266.406 915.15 265.875 913.434 266.78L890.733 279.161C889.018 280.097 887.632 282.155 887.632 283.777V305.234C887.632 306.856 889.018 307.386 890.733 306.482L900.764 301.024V289.048C900.764 287.426 902.15 285.368 903.866 284.463L903.833 284.432Z" fill="#48CA2D"/>
<path d="M881.47 232.086V223.042C881.47 221.42 882.856 219.362 884.571 218.426L894.173 213.187C895.889 212.251 897.274 210.193 897.274 208.571V202.022C897.274 200.4 895.889 199.87 894.173 200.774L871.472 213.155C869.756 214.091 868.371 216.149 868.371 217.771V226.847C868.371 228.469 866.985 230.527 865.269 231.431L855.667 236.671C853.952 237.607 852.566 239.665 852.566 241.287V250.768L878.368 236.702C880.084 235.767 881.47 233.708 881.47 232.086Z" fill="#006058"/>
<path d="M930.097 229.966V223.417C930.097 221.795 928.712 221.265 926.996 222.169L917.394 227.409C915.678 228.344 914.293 227.783 914.293 226.161V202.209C914.293 200.587 912.907 200.057 911.224 200.962L901.193 206.419V218.395C901.193 220.017 899.808 222.076 898.092 223.011L888.49 228.251C886.774 229.186 885.389 231.245 885.389 232.835V239.385C885.389 241.006 886.774 241.537 888.49 240.632L898.092 235.393C899.808 234.457 901.193 235.018 901.193 236.64V245.716C901.193 247.338 902.546 247.899 904.262 246.963L926.996 234.551C928.712 233.615 930.097 231.557 930.097 229.935V229.966Z" fill="#00C8B5"/>
<g style="mix-blend-mode:multiply" opacity="0.6">
<g style="mix-blend-mode:multiply" opacity="0.6">
<path d="M815.196 393.776L819.551 396.146V403.538L815.196 401.167V393.776ZM806.584 396.458L810.939 398.828V391.437L806.584 389.067V396.458ZM797.972 391.749L802.328 394.119V386.727L797.972 384.357V391.749ZM789.36 387.039L793.716 389.41V382.018L789.36 379.648V387.039ZM780.749 382.33L785.104 384.7V377.309L780.749 374.939V382.33ZM772.137 377.621L776.492 379.991V372.599L772.137 370.229V377.621ZM763.525 372.911L767.88 375.282V367.89L763.525 365.52V372.911ZM754.913 368.202L759.269 370.572V363.181L754.913 360.811V368.202ZM815.163 407.966L819.518 410.336V417.728L815.163 415.358V407.966ZM806.551 410.648L810.906 413.019V405.627L806.551 403.257V410.648ZM797.939 405.939L802.295 408.309V400.918L797.939 398.548V405.939ZM789.327 401.23L793.683 403.6V396.209L789.327 393.838V401.23ZM780.716 396.52L785.071 398.891V391.499L780.716 389.129V396.52ZM772.104 391.811L776.459 394.181V386.79L772.104 384.42V391.811ZM763.492 387.102L767.847 389.472V382.081L763.492 379.71V387.102ZM754.88 382.392L759.236 384.763V377.371L754.88 375.001V382.392ZM815.13 422.157L819.485 424.527V431.918L815.13 429.548V422.157ZM806.518 424.839L810.873 427.209V419.818L806.518 417.447V424.839ZM797.906 420.129L802.262 422.5V415.108L797.906 412.738V420.129ZM789.294 415.42L793.65 417.79V410.399L789.294 408.029V415.42ZM780.683 410.711L785.038 413.081V405.69L780.683 403.319V410.711ZM772.071 406.001L776.426 408.372V400.98L772.071 398.61V406.001ZM763.459 401.292L767.814 403.662V396.271L763.459 393.901V401.292ZM754.847 396.583L759.203 398.953V391.562L754.847 389.191V396.583ZM815.097 436.347L819.452 438.717V446.109L815.097 443.738V436.347ZM806.485 439.029L810.84 441.399V434.008L806.485 431.638V439.029ZM797.873 434.32L802.229 436.69V429.299L797.873 426.928V434.32ZM789.261 429.61L793.617 431.981V424.589L789.261 422.219V429.61ZM780.65 424.901L785.005 427.271V419.88L780.65 417.51V424.901ZM772.038 420.192L776.393 422.562V415.171L772.038 412.8V420.192ZM763.426 415.482L767.781 417.853V410.461L763.426 408.091V415.482ZM754.814 410.773L759.17 413.143V405.752L754.814 403.382V410.773ZM823.643 405.502L827.998 407.873V400.481L823.643 398.111V405.502ZM823.643 419.786L827.998 422.157V414.765L823.643 412.395V419.786ZM823.643 434.07L827.998 436.441V429.049L823.643 426.679V434.07ZM823.643 448.354L827.998 450.724V443.333L823.643 440.963V448.354ZM815.064 450.569L819.419 452.939V460.33L815.064 457.96V450.569ZM806.452 453.251L810.807 455.621V448.229L806.452 445.859V453.251ZM797.84 448.541L802.196 450.912V443.52L797.84 441.15V448.541ZM789.228 443.832L793.584 446.202V438.811L789.228 436.441V443.832ZM780.617 439.123L784.972 441.493V434.101L780.617 431.731V439.123ZM772.005 434.413L776.36 436.784V429.392L772.005 427.022V434.413ZM763.393 429.704L767.748 432.074V424.683L763.393 422.313V429.704ZM754.781 424.995L759.137 427.365V419.973L754.781 417.603V424.995ZM823.61 462.545L827.965 464.915V457.523L823.61 455.153V462.545Z" fill="#001D23"/>
</g>
<g style="mix-blend-mode:multiply" opacity="0.6">
<path d="M877.986 423.81L882.341 421.44V428.831L877.986 431.201V423.81ZM877.986 445.454L882.341 443.084V435.692L877.986 438.063V445.454ZM877.986 402.634L882.341 400.263V392.872L877.986 395.242V402.634ZM877.986 388.35L882.341 385.979V378.588L877.986 380.958V388.35ZM869.374 393.059L873.73 390.689V383.297L869.374 385.667V393.059ZM869.374 421.596L873.73 419.225V411.834L869.374 414.204V421.596ZM869.374 407.312L873.73 404.941V397.55L869.374 399.92V407.312ZM869.374 435.848L873.73 433.478V426.087L869.374 428.457V435.848ZM895.177 436.035L899.532 433.665V426.274L895.177 428.644V436.035ZM895.177 421.752L899.532 419.381V411.99L895.177 414.36V421.752ZM886.565 383.64L890.92 381.27V373.879L886.565 376.249V383.64ZM886.565 397.924L890.92 395.554V388.162L886.565 390.533V397.924ZM886.565 426.461L890.92 424.091V416.699L886.565 419.069V426.461ZM886.565 440.745L890.92 438.375V430.983L886.565 433.353V440.745ZM886.565 412.208L890.92 409.838V402.446L886.565 404.817V412.208ZM843.572 407.125L847.927 404.754V397.363L843.572 399.733V407.125ZM895.177 407.499L899.532 405.129V397.737L895.177 400.107V407.499ZM852.151 430.983L856.506 428.613V421.221L852.151 423.592V430.983ZM852.151 445.267L856.506 442.897V435.505L852.151 437.876V445.267ZM843.572 421.408L847.927 419.038V411.647L843.572 414.017V421.408ZM869.374 450.163L873.73 447.793V440.402L869.374 442.772V450.163ZM843.572 464.229L847.927 461.859V454.467L843.572 456.838V464.229ZM843.572 449.945L847.927 447.575V440.183L843.572 442.554V449.945ZM843.572 435.661L847.927 433.291V425.899L843.572 428.27V435.661ZM852.151 459.52L856.506 457.15V449.758L852.151 452.128V459.52ZM860.762 412.021L865.118 409.651V402.259L860.762 404.63V412.021ZM860.762 397.737L865.118 395.367V387.975L860.762 390.346V397.737ZM860.762 426.274L865.118 423.903V416.512L860.762 418.882V426.274ZM860.762 454.81L865.118 452.44V445.049L860.762 447.419V454.81ZM860.762 440.526L865.118 438.156V430.765L860.762 433.135V440.526ZM852.151 402.415L856.506 400.045V392.653L852.151 395.024V402.415ZM852.151 416.699L856.506 414.329V406.937L852.151 409.308V416.699ZM877.953 416.886L882.308 414.516V407.125L877.953 409.495V416.886ZM912.367 383.827L916.723 381.457V374.066L912.367 376.436V383.827ZM912.367 398.111L916.723 395.741V388.35L912.367 390.72V398.111ZM895.144 393.246L899.499 390.876V383.484L895.144 385.855V393.246ZM912.367 369.575L916.723 367.204V359.813L912.367 362.183V369.575ZM895.144 378.962L899.499 376.592V369.2L895.144 371.571V378.962ZM903.755 374.253L908.111 371.883V364.491L903.755 366.861V374.253ZM903.755 388.537L908.111 386.166V378.775L903.755 381.145V388.537ZM903.755 402.821L908.111 400.45V393.059L903.755 395.429V402.821ZM920.979 364.896L925.334 362.526V355.135L920.979 357.505V364.896ZM920.979 393.433L925.334 391.063V383.671L920.979 386.042V393.433ZM920.979 379.149L925.334 376.779V369.388L920.979 371.758V379.149Z" fill="#001D23"/>
</g>
</g>
<path d="M1072.78 403.975L982.14 354.512L891.502 403.975L982.14 453.408L1072.78 403.975Z" fill="#02A894"/>
<path d="M982.137 453.907C982.137 453.907 981.972 453.907 981.873 453.845L891.235 404.381C891.235 404.381 890.971 404.132 890.971 403.976C890.971 403.82 891.07 403.664 891.235 403.571L981.873 354.107C981.873 354.107 982.203 354.013 982.368 354.107L1073.01 403.571C1073.01 403.571 1073.27 403.82 1073.27 403.976C1073.27 404.132 1073.17 404.288 1073.01 404.381L982.368 453.845C982.368 453.845 982.203 453.907 982.104 453.907H982.137ZM892.488 403.976L982.137 452.878L1071.79 403.976L982.137 355.074L892.488 403.976Z" fill="#02A894"/>
<path d="M982.14 564.405L891.502 514.941V403.976L982.14 453.408V564.405Z" fill="#003E42"/>
<path d="M982.137 564.873C982.137 564.873 981.972 564.873 981.873 564.81L891.235 515.347C891.235 515.347 890.971 515.097 890.971 514.941V403.976C890.971 403.82 891.07 403.664 891.235 403.57C891.4 403.477 891.565 403.477 891.73 403.57L982.368 453.034C982.368 453.034 982.632 453.283 982.632 453.439V564.405C982.632 564.561 982.533 564.717 982.368 564.81C982.302 564.841 982.203 564.873 982.104 564.873H982.137ZM891.994 514.661L981.642 563.563V453.689L891.994 404.786V514.661Z" fill="#02A894"/>
<path d="M1058.39 514.942L967.747 564.406V453.409L1058.39 403.977V514.942Z" fill="#003E42"/>
<path d="M967.749 564.686C967.518 564.593 967.452 564.499 967.452 564.406V453.44C967.452 453.44 967.518 453.253 967.584 453.191L1058.22 403.727C1058.22 403.727 1058.42 403.665 1058.52 403.727C1058.62 403.789 1058.68 403.883 1058.68 403.976V514.942C1058.68 514.942 1058.62 515.129 1058.52 515.192L967.881 564.655C967.881 564.655 967.782 564.686 967.716 564.686H967.749ZM968.046 453.596V563.907L1058.09 514.786V404.475L968.046 453.596Z" fill="#02A894"/>
<path d="M1053.71 240.398L982.144 201.32L910.578 240.398L982.144 279.445L1053.71 240.398Z" fill="#02A894"/>
<path d="M982.142 279.913C982.142 279.913 981.977 279.913 981.878 279.851L910.311 240.804C910.311 240.804 910.047 240.554 910.047 240.398C910.047 240.242 910.146 240.086 910.311 239.993L981.878 200.946C981.878 200.946 982.208 200.852 982.373 200.946L1053.94 239.993C1053.94 239.993 1054.2 240.242 1054.2 240.398C1054.2 240.554 1054.1 240.71 1053.94 240.804L982.373 279.851C982.373 279.851 982.208 279.913 982.109 279.913H982.142ZM911.565 240.398L982.142 278.915L1052.72 240.398L982.142 201.882L911.565 240.398Z" fill="#02A894"/>
<path d="M982.143 207.837L1041.77 240.366L982.143 272.895L922.52 240.366L982.143 207.837ZM982.143 205.654L918.528 240.366L982.143 275.078L1045.76 240.366L982.143 205.654Z" fill="#003E42"/>
<path d="M982.144 442.648L910.578 403.601V240.396L982.144 279.443V442.648Z" fill="#003E42"/>
<path d="M982.142 443.116C982.142 443.116 981.977 443.116 981.878 443.054L910.311 404.007C910.311 404.007 910.047 403.757 910.047 403.601V240.397C910.047 240.241 910.146 240.085 910.311 239.991C910.476 239.898 910.641 239.898 910.806 239.991L982.373 279.038C982.373 279.038 982.637 279.287 982.637 279.443V442.648C982.637 442.804 982.538 442.96 982.373 443.054C982.307 443.085 982.208 443.116 982.109 443.116H982.142ZM911.07 403.321L981.647 441.837V279.724L911.07 241.207V403.321Z" fill="#02A894"/>
<path d="M1039.32 403.604L967.751 442.651V279.446L1039.32 240.399V403.604Z" fill="#003E42"/>
<path d="M967.752 442.931C967.521 442.837 967.455 442.744 967.455 442.65V279.445C967.455 279.445 967.521 279.258 967.587 279.196L1039.15 240.149C1039.15 240.149 1039.35 240.086 1039.45 240.149C1039.55 240.211 1039.62 240.305 1039.62 240.398V403.603C1039.62 403.603 1039.55 403.79 1039.45 403.853L967.884 442.9C967.884 442.9 967.785 442.931 967.719 442.931H967.752ZM968.049 279.601V442.151L1039.02 403.416V240.866L968.049 279.601Z" fill="#02A894"/>
<g style="mix-blend-mode:multiply" opacity="0.6">
<g style="mix-blend-mode:multiply" opacity="0.6">
<path d="M974.415 292.449L980.354 289.205V428.24L974.415 431.483V292.449ZM987.415 424.404L993.355 421.16V282.126L987.415 285.369V424.404ZM1000.42 417.293L1006.35 414.049V275.015L1000.42 278.258V417.293ZM1013.42 410.182L1019.35 406.939V267.904L1013.42 271.148V410.182ZM1026.42 403.071L1032.36 399.828V260.793L1026.42 264.037V403.071ZM1039.42 256.926V395.961L1045.36 392.717V253.683L1039.42 256.926Z" fill="#001D23"/>
</g>
<g style="mix-blend-mode:multiply" opacity="0.6">
<path d="M974.321 431.483L968.382 428.239V289.205L974.321 292.448V431.483ZM961.321 285.338L955.382 282.094V421.129L961.321 424.372V285.338ZM948.32 278.227L942.381 274.983V414.018L948.32 417.261V278.227ZM935.32 271.116L929.381 267.872V406.907L935.32 410.15V271.116ZM922.32 264.005L916.381 260.762V399.796L922.32 403.04V264.005Z" fill="#001D23"/>
</g>
<g style="mix-blend-mode:multiply" opacity="0.6">
<path d="M978.572 461.954L974.085 464.418V456.808L978.572 454.344V461.954ZM987.448 449.51L982.961 451.974V459.584L987.448 457.12V449.51ZM996.324 444.676L991.837 447.14V454.75L996.324 452.286V444.676ZM1005.2 439.842L1000.71 442.306V449.916L1005.2 447.452V439.842ZM1014.08 435.008L1009.59 437.472V445.082L1014.08 442.618V435.008ZM1022.95 430.174L1018.46 432.638V440.248L1022.95 437.784V430.174ZM1031.83 425.34L1027.34 427.804V435.414L1031.83 432.95V425.34ZM1040.7 420.506L1036.22 422.97V430.579L1040.7 428.116V420.506ZM978.605 476.706L974.118 479.17V471.56L978.605 469.096V476.706ZM987.481 464.262L982.994 466.726V474.336L987.481 471.872V464.262ZM996.357 459.428L991.87 461.892V469.502L996.357 467.038V459.428ZM1005.23 454.594L1000.75 457.058V464.668L1005.23 462.204V454.594ZM1014.11 449.76L1009.62 452.224V459.833L1014.11 457.37V449.76ZM1022.98 444.926L1018.5 447.39V454.999L1022.98 452.536V444.926ZM1031.86 440.092L1027.37 442.555V450.165L1031.86 447.701V440.092ZM1040.74 435.258L1036.25 437.721V445.331L1040.74 442.867V435.258ZM978.638 491.458L974.151 493.922V486.312L978.638 483.848V491.458ZM987.514 479.014L983.027 481.478V489.087L987.514 486.624V479.014ZM996.39 474.18L991.903 476.644V484.253L996.39 481.79V474.18ZM1005.27 469.346L1000.78 471.81V479.419L1005.27 476.955V469.346ZM1014.14 464.512L1009.65 466.975V474.585L1014.14 472.121V464.512ZM1023.02 459.678L1018.53 462.141V469.751L1023.02 467.287V459.678ZM1031.89 454.843L1027.41 457.307V464.917L1031.89 462.453V454.843ZM1040.77 450.009L1036.28 452.473V460.083L1040.77 457.619V450.009ZM978.671 506.209L974.184 508.673V501.064L978.671 498.6V506.209ZM987.547 493.766L983.06 496.229V503.839L987.547 501.375V493.766ZM996.423 488.932L991.936 491.395V499.005L996.423 496.541V488.932ZM1005.3 484.097L1000.81 486.561V494.171L1005.3 491.707V484.097ZM1014.17 479.263L1009.69 481.727V489.337L1014.17 486.873V479.263ZM1023.05 474.429L1018.56 476.893V484.503L1023.05 482.039V474.429ZM1031.93 469.595L1027.44 472.059V479.669L1031.93 477.205V469.595ZM1040.8 464.761L1036.31 467.225V474.835L1040.8 472.371V464.761ZM978.704 520.961L974.217 523.425V515.815L978.704 513.351V520.961ZM987.58 508.517L983.093 510.981V518.591L987.58 516.127V508.517ZM996.456 503.683L991.969 506.147V513.757L996.456 511.293V503.683ZM1005.33 498.849L1000.84 501.313V508.923L1005.33 506.459V498.849ZM1014.21 494.015L1009.72 496.479V504.089L1014.21 501.625V494.015ZM1023.08 489.181L1018.6 491.645V499.255L1023.08 496.791V489.181ZM1031.96 484.347L1027.47 486.811V494.421L1031.96 491.957V484.347ZM1040.83 479.513L1036.35 481.977V489.586L1040.83 487.123V479.513ZM978.737 535.713L974.25 538.177V530.567L978.737 528.103V535.713ZM987.613 523.269L983.126 525.733V533.343L987.613 530.879V523.269ZM996.489 518.435L992.002 520.899V528.509L996.489 526.045V518.435ZM1005.36 513.601L1000.88 516.065V523.675L1005.36 521.211V513.601ZM1014.24 508.767L1009.75 511.231V518.84L1014.24 516.377V508.767ZM1023.12 503.933L1018.63 506.397V514.006L1023.12 511.543V503.933ZM1031.99 499.099L1027.5 501.562V509.172L1031.99 506.708V499.099ZM1040.87 494.265L1036.38 496.728V504.338L1040.87 501.874V494.265Z" fill="#001D23"/>
</g>
<g style="mix-blend-mode:multiply" opacity="0.6">
<path d="M970.76 454.345L975.247 456.809V464.419L970.76 461.955V454.345ZM961.884 457.121L966.371 459.585V451.975L961.884 449.511V457.121ZM953.008 452.287L957.495 454.751V447.141L953.008 444.677V452.287ZM944.132 447.453L948.62 449.917V442.307L944.132 439.843V447.453ZM935.257 442.619L939.744 445.083V437.473L935.257 435.009V442.619ZM926.381 437.785L930.868 440.249V432.639L926.381 430.175V437.785ZM917.505 432.951L921.992 435.414V427.805L917.505 425.341V432.951ZM908.629 428.117L913.117 430.58V422.971L908.629 420.507V428.117ZM970.727 469.128L975.214 471.592V479.202L970.727 476.738V469.128ZM961.851 471.904L966.338 474.368V466.758L961.851 464.294V471.904ZM952.975 467.07L957.462 469.534V461.924L952.975 459.46V467.07ZM944.099 462.236L948.587 464.7V457.09L944.099 454.626V462.236ZM935.224 457.402L939.711 459.866V452.256L935.224 449.792V457.402ZM926.348 452.568L930.835 455.031V447.422L926.348 444.958V452.568ZM917.472 447.734L921.959 450.197V442.588L917.472 440.124V447.734ZM908.596 442.899L913.084 445.363V437.753L908.596 435.29V442.899ZM970.694 483.911L975.181 486.375V493.985L970.694 491.521V483.911ZM961.818 486.687L966.305 489.151V481.541L961.818 479.077V486.687ZM952.942 481.853L957.429 484.317V476.707L952.942 474.243V481.853ZM944.066 477.019L948.554 479.483V471.873L944.066 469.409V477.019ZM935.191 472.185L939.678 474.648V467.039L935.191 464.575V472.185ZM926.315 467.351L930.802 469.814V462.205L926.315 459.741V467.351ZM917.439 462.516L921.926 464.98V457.37L917.439 454.907V462.516ZM908.563 457.682L913.051 460.146V452.536L908.563 450.073V457.682ZM970.661 498.694L975.148 501.158V508.768L970.661 506.304V498.694ZM961.785 501.47L966.272 503.934V496.324L961.785 493.86V501.47ZM952.909 496.636L957.396 499.1V491.49L952.909 489.026V496.636ZM944.033 491.802L948.521 494.265V486.656L944.033 484.192V491.802ZM935.158 486.968L939.645 489.431V481.822L935.158 479.358V486.968ZM926.282 482.133L930.769 484.597V476.988L926.282 474.524V482.133ZM917.406 477.299L921.893 479.763V472.153L917.406 469.69V477.299ZM908.53 472.465L913.018 474.929V467.319L908.53 464.856V472.465ZM970.628 513.477L975.115 515.941V523.551L970.628 521.087V513.477ZM961.752 516.253L966.239 518.717V511.107L961.752 508.643V516.253ZM952.876 511.419L957.363 513.883V506.273L952.876 503.809V511.419ZM944 506.585L948.488 509.048V501.439L944 498.975V506.585ZM935.125 501.751L939.612 504.214V496.605L935.125 494.141V501.751ZM926.249 496.916L930.736 499.38V491.77L926.249 489.307V496.916ZM917.373 492.082L921.86 494.546V486.936L917.373 484.473V492.082ZM908.497 487.248L912.985 489.712V482.102L908.497 479.638V487.248ZM970.595 528.26L975.082 530.724V538.334L970.595 535.87V528.26ZM961.719 531.036L966.206 533.5V525.89L961.719 523.426V531.036ZM952.843 526.202L957.33 528.665V521.056L952.843 518.592V526.202ZM943.967 521.368L948.455 523.831V516.222L943.967 513.758V521.368ZM935.092 516.533L939.579 518.997V511.387L935.092 508.924V516.533ZM926.216 511.699L930.703 514.163V506.553L926.216 504.09V511.699ZM917.34 506.865L921.827 509.329V501.719L917.34 499.256V506.865ZM908.464 502.031L912.952 504.495V496.885L908.464 494.421V502.031ZM899.622 423.657L904.109 426.121V418.511L899.622 416.047V423.657ZM899.622 438.377L904.109 440.841V433.231L899.622 430.767V438.377ZM899.622 453.098L904.109 455.562V447.952L899.622 445.488V453.098ZM899.622 467.818L904.109 470.282V462.672L899.622 460.209V467.818ZM899.622 482.539L904.109 485.003V477.393L899.622 474.929V482.539ZM899.622 497.259L904.109 499.723V492.114L899.622 489.65V497.259Z" fill="#001D23"/>
</g>
</g>
<path d="M957.936 578.221L830.772 508.828L754.256 550.588L881.42 619.981L957.936 578.221Z" fill="#02A894"/>
<path d="M881.417 620.449C881.417 620.449 881.252 620.449 881.153 620.387L753.989 550.995C753.989 550.995 753.725 550.745 753.725 550.589C753.725 550.433 753.824 550.277 753.989 550.184L830.505 508.423C830.505 508.423 830.835 508.33 831 508.423L958.164 577.816C958.164 577.816 958.428 578.065 958.428 578.221C958.428 578.377 958.329 578.533 958.164 578.627L881.648 620.387C881.648 620.387 881.483 620.449 881.384 620.449H881.417ZM755.243 550.589L881.417 619.451L956.944 578.253L830.769 509.39L755.243 550.589Z" fill="#02A894"/>
<path d="M830.772 515.347L945.992 578.221L881.42 613.463L766.2 550.589L830.772 515.347ZM830.772 513.164L762.208 550.589L881.42 615.647L949.984 578.221L830.772 513.164Z" fill="#003E42"/>
<path d="M881.42 682.634L754.256 613.242V550.586L881.42 619.978V682.634Z" fill="#003E42"/>
<path d="M881.418 683.103C881.418 683.103 881.253 683.103 881.154 683.041L753.99 613.648C753.99 613.648 753.726 613.399 753.726 613.243V550.556C753.726 550.4 753.825 550.244 753.99 550.15C754.155 550.057 754.32 550.057 754.484 550.15L881.649 619.543C881.649 619.543 881.913 619.792 881.913 619.948V682.635C881.913 682.791 881.814 682.947 881.649 683.041C881.583 683.072 881.484 683.103 881.385 683.103H881.418ZM754.748 612.962L880.923 681.824V620.229L754.748 551.367V612.962Z" fill="#02A894"/>
<path d="M943.542 640.877L867.026 682.637V619.981L943.542 578.221V640.877Z" fill="#003E42"/>
<path d="M867.028 682.917C866.797 682.824 866.731 682.73 866.731 682.637V619.95C866.731 619.95 866.797 619.762 866.863 619.7L943.379 577.94C943.379 577.94 943.577 577.877 943.676 577.94C943.775 578.002 943.808 578.096 943.808 578.189V640.876C943.808 640.876 943.742 641.064 943.676 641.126L867.16 682.886C867.16 682.886 867.061 682.917 866.995 682.917H867.028ZM867.325 620.106V682.138L943.247 640.721V578.688L867.325 620.106Z" fill="#02A894"/>
<path d="M864.286 635.138L807.897 604.355L779.949 619.606L836.372 650.388L864.286 635.138Z" fill="#02A894"/>
<path d="M836.374 650.857C836.374 650.857 836.209 650.857 836.11 650.795L779.721 620.012C779.721 620.012 779.457 619.763 779.457 619.607C779.457 619.451 779.556 619.295 779.721 619.202L807.635 603.951C807.635 603.951 807.965 603.857 808.13 603.951L864.519 634.733C864.519 634.733 864.783 634.982 864.783 635.138C864.783 635.294 864.684 635.45 864.519 635.544L836.605 650.795C836.605 650.795 836.44 650.857 836.341 650.857H836.374ZM780.974 619.607L836.374 649.859L863.298 635.17L807.899 604.918L780.974 619.607Z" fill="#02A894"/>
<path d="M836.372 688.53L779.95 657.748V619.605L836.372 650.388V688.53Z" fill="#003E42"/>
<path d="M836.374 688.999C836.374 688.999 836.209 688.999 836.11 688.937L779.721 658.154C779.721 658.154 779.457 657.905 779.457 657.749V619.606C779.457 619.451 779.556 619.295 779.721 619.201C779.886 619.107 780.051 619.107 780.216 619.201L836.605 649.983C836.605 649.983 836.869 650.233 836.869 650.389V688.531C836.869 688.687 836.77 688.843 836.605 688.937C836.539 688.968 836.44 688.999 836.341 688.999H836.374ZM780.48 657.468L835.879 687.72V650.669L780.48 620.417V657.468Z" fill="#02A894"/>
<path d="M864.291 673.28L836.377 688.531V650.388L864.291 635.138V673.28Z" fill="#003E42"/>
<path d="M836.379 688.812C836.148 688.718 836.082 688.624 836.082 688.531V650.388C836.082 650.388 836.148 650.201 836.214 650.139L864.128 634.888C864.128 634.888 864.326 634.826 864.425 634.888C864.524 634.95 864.557 635.044 864.557 635.138V673.28C864.557 673.28 864.491 673.467 864.425 673.53L836.511 688.78C836.511 688.78 836.412 688.812 836.346 688.812H836.379ZM836.676 650.575V688.063L863.996 673.155V635.668L836.676 650.575Z" fill="#02A894"/>
<path d="M1055.33 683.698L998.941 652.916L947.006 681.266L1003.4 712.048L1055.33 683.698Z" fill="#009983"/>
<path d="M1003.4 712.515C1003.4 712.515 1003.23 712.515 1003.13 712.453L946.744 681.671C946.744 681.671 946.48 681.421 946.48 681.265C946.48 681.109 946.579 680.953 946.744 680.86L998.678 652.51C998.678 652.51 999.008 652.417 999.173 652.51L1055.56 683.293C1055.56 683.293 1055.83 683.542 1055.83 683.698C1055.83 683.854 1055.73 684.01 1055.56 684.103L1003.63 712.453C1003.63 712.453 1003.46 712.515 1003.36 712.515H1003.4ZM947.998 681.265L1003.4 711.517L1054.34 683.698L998.942 653.446L947.998 681.265Z" fill="#02A894"/>
<g style="mix-blend-mode:multiply" opacity="0.6">
<g style="mix-blend-mode:multiply" opacity="0.6">
<path d="M628.442 471.184L632.797 473.554V480.946L628.442 478.576V471.184ZM619.83 473.866L624.185 476.236V468.845L619.83 466.475V473.866ZM611.218 469.157L615.574 471.527V464.136L611.218 461.765V469.157ZM602.606 464.448L606.962 466.818V459.426L602.606 457.056V464.448ZM593.995 459.738L598.35 462.108V454.717L593.995 452.347V459.738ZM585.383 455.029L589.738 457.399V450.008L585.383 447.637V455.029ZM576.771 450.32L581.126 452.69V445.298L576.771 442.928V450.32ZM568.159 445.61L572.515 447.98V440.589L568.159 438.219V445.61ZM628.409 485.374L632.764 487.745V495.136L628.409 492.766V485.374ZM619.797 488.057L624.152 490.427V483.035L619.797 480.665V488.057ZM611.185 483.347L615.541 485.718V478.326L611.185 475.956V483.347ZM602.573 478.638L606.929 481.008V473.617L602.573 471.246V478.638ZM593.962 473.929L598.317 476.299V468.907L593.962 466.537V473.929ZM585.35 469.219L589.705 471.59V464.198L585.35 461.828V469.219ZM576.738 464.51L581.093 466.88V459.489L576.738 457.118V464.51ZM568.126 459.801L572.482 462.171V454.779L568.126 452.409V459.801ZM628.376 499.565L632.731 501.935V509.327L628.376 506.956V499.565ZM619.764 502.247L624.119 504.617V497.226L619.764 494.855V502.247ZM611.152 497.538L615.508 499.908V492.516L611.152 490.146V497.538ZM602.54 492.828L606.896 495.199V487.807L602.54 485.437V492.828ZM593.929 488.119L598.284 490.489V483.098L593.929 480.728V488.119ZM585.317 483.41L589.672 485.78V478.388L585.317 476.018V483.41ZM576.705 478.7L581.06 481.071V473.679L576.705 471.309V478.7ZM568.093 473.991L572.449 476.361V468.97L568.093 466.6V473.991ZM628.343 513.755L632.698 516.125V523.517L628.343 521.147V513.755ZM619.731 516.437L624.086 518.808V511.416L619.731 509.046V516.437ZM611.119 511.728L615.475 514.098V506.707L611.119 504.337V511.728ZM602.507 507.019L606.863 509.389V501.997L602.507 499.627V507.019ZM593.896 502.309L598.251 504.68V497.288L593.896 494.918V502.309ZM585.284 497.6L589.639 499.97V492.579L585.284 490.209V497.6ZM576.672 492.891L581.027 495.261V487.869L576.672 485.499V492.891ZM568.06 488.181L572.416 490.552V483.16L568.06 480.79V488.181ZM688.526 503.713L692.882 506.083V513.475L688.526 511.104V503.713ZM679.915 506.395L684.27 508.765V501.374L679.915 499.003V506.395ZM671.303 501.686L675.658 504.056V496.664L671.303 494.294V501.686ZM662.691 496.976L667.046 499.347V491.955L662.691 489.585V496.976ZM654.079 492.267L658.435 494.637V487.246L654.079 484.875V492.267ZM645.467 487.558L649.823 489.928V482.536L645.467 480.166V487.558ZM636.856 482.848L641.211 485.219V477.827L636.856 475.457V482.848ZM688.493 517.903L692.849 520.273V527.665L688.493 525.295V517.903ZM679.882 520.585L684.237 522.956V515.564L679.882 513.194V520.585ZM671.27 515.876L675.625 518.246V510.855L671.27 508.484V515.876ZM662.658 511.167L667.013 513.537V506.145L662.658 503.775V511.167ZM654.046 506.457L658.402 508.828V501.436L654.046 499.066V506.457ZM645.434 501.748L649.79 504.118V496.727L645.434 494.356V501.748ZM636.823 497.039L641.178 499.409V492.017L636.823 489.647V497.039ZM688.46 532.094L692.816 534.464V541.855L688.46 539.485V532.094ZM679.849 534.776L684.204 537.146V529.754L679.849 527.384V534.776ZM671.237 530.066L675.592 532.437V525.045L671.237 522.675V530.066ZM662.625 525.357L666.98 527.727V520.336L662.625 517.966V525.357ZM654.013 520.648L658.369 523.018V515.626L654.013 513.256V520.648ZM645.401 515.938L649.757 518.309V510.917L645.401 508.547V515.938ZM636.79 511.229L641.145 513.599V506.208L636.79 503.838V511.229ZM688.427 546.284L692.783 548.654V556.046L688.427 553.675V546.284ZM679.816 548.966L684.171 551.336V543.945L679.816 541.575V548.966ZM671.204 544.257L675.559 546.627V539.235L671.204 536.865V544.257ZM662.592 539.547L666.947 541.918V534.526L662.592 532.156V539.547ZM653.98 534.838L658.336 537.208V529.817L653.98 527.447V534.838ZM645.368 530.129L649.724 532.499V525.107L645.368 522.737V530.129ZM636.757 525.419L641.112 527.79V520.398L636.757 518.028V525.419Z" fill="#001D23"/>
</g>
<g style="mix-blend-mode:multiply" opacity="0.6">
<path d="M820.245 592.941L824.6 595.311V602.703L820.245 600.332V592.941ZM811.633 595.623L815.989 597.993V590.602L811.633 588.232V595.623ZM803.021 590.914L807.377 593.284V585.892L803.021 583.522V590.914ZM794.41 586.204L798.765 588.575V581.183L794.41 578.813V586.204ZM785.798 581.495L790.153 583.865V576.474L785.798 574.104V581.495ZM777.186 576.786L781.541 579.156V571.765L777.186 569.394V576.786ZM768.574 572.076L772.93 574.447V567.055L768.574 564.685V572.076ZM759.963 567.367L764.318 569.737V562.346L759.963 559.976V567.367ZM768.574 586.329L772.93 588.699V581.308L768.574 578.938V586.329ZM759.963 581.62L764.318 583.99V576.599L759.963 574.228V581.62ZM768.574 600.582L772.93 602.952V595.561L768.574 593.19V600.582ZM759.963 595.873L764.318 598.243V590.851L759.963 588.481V595.873ZM768.574 614.835L772.93 617.205V609.813L768.574 607.443V614.835ZM759.963 610.125L764.318 612.496V605.104L759.963 602.734V610.125ZM871.817 628.339L876.172 630.709V623.318L871.817 620.947V628.339ZM863.205 623.63L867.56 626V618.608L863.205 616.238V623.63ZM854.593 618.92L858.949 621.29V613.899L854.593 611.529V618.92ZM845.981 614.211L850.337 616.581V609.19L845.981 606.819V614.211ZM837.37 609.502L841.725 611.872V604.48L837.37 602.11V609.502ZM828.758 604.792L833.113 607.162V599.771L828.758 597.401V604.792ZM871.784 642.56L876.139 644.931V637.539L871.784 635.169V642.56ZM871.784 656.844L876.139 659.215V651.823L871.784 649.453V656.844ZM871.784 671.128L876.139 673.499V666.107L871.784 663.737V671.128Z" fill="#001D23"/>
</g>
<g style="mix-blend-mode:multiply" opacity="0.6">
<path d="M907.743 646.021L911.9 643.744V650.792L907.743 653.069V646.021ZM907.743 625.842L911.9 623.566V616.517L907.743 618.794V625.842ZM907.743 612.245L911.9 609.968V602.919L907.743 605.196V612.245ZM899.527 616.736L903.685 614.459V607.41L899.527 609.687V616.736ZM899.527 643.931L903.685 641.654V634.606L899.527 636.883V643.931ZM899.527 630.333L903.685 628.057V621.008L899.527 623.285V630.333ZM899.527 657.529L903.685 655.252V648.204L899.527 650.481V657.529ZM924.142 644.087L928.299 641.81V634.762L924.142 637.039V644.087ZM915.926 607.753L920.083 605.477V598.428L915.926 600.705V607.753ZM915.926 621.351L920.083 619.075V612.026L915.926 614.303V621.351ZM915.926 648.547L920.083 646.27V639.222L915.926 641.499V648.547ZM915.926 634.949L920.083 632.672V625.624L915.926 627.901V634.949ZM874.946 630.115L879.103 627.838V620.79L874.946 623.067V630.115ZM924.142 630.489L928.299 628.213V621.164L924.142 623.441V630.489ZM883.128 652.882L887.286 650.605V643.557L883.128 645.834V652.882ZM883.128 666.48L887.286 664.203V657.155L883.128 659.431V666.48ZM874.946 643.744L879.103 641.467V634.419L874.946 636.696V643.744ZM874.946 670.94L879.103 668.663V661.615L874.946 663.891V670.94ZM874.946 657.342L879.103 655.065V648.017L874.946 650.293V657.342ZM891.344 634.793L895.502 632.516V625.468L891.344 627.745V634.793ZM891.344 621.195L895.502 618.919V611.87L891.344 614.147V621.195ZM891.344 648.391L895.502 646.114V639.066L891.344 641.343V648.391ZM891.344 661.989L895.502 659.712V652.664L891.344 654.94V661.989ZM883.128 625.655L887.286 623.379V616.33L883.128 618.607V625.655ZM883.128 639.253L887.286 636.976V629.928L883.128 632.205V639.253ZM907.743 639.44L911.9 637.163V630.115L907.743 632.392V639.44ZM924.142 616.891L928.299 614.615V607.566L924.142 609.843V616.891ZM924.142 603.294L928.299 601.017V593.969L924.142 596.245V603.294ZM932.357 598.803L936.515 596.526V589.478L932.357 591.754V598.803ZM932.357 639.627L936.515 637.351V630.302L932.357 632.579V639.627ZM932.357 612.432L936.515 610.155V603.107L932.357 605.383V612.432ZM932.357 626.029L936.515 623.753V616.704L932.357 618.981V626.029Z" fill="#001D23"/>
</g>
<g style="mix-blend-mode:multiply" opacity="0.6">
<path d="M814.341 657.967L810.184 655.69V662.739L814.341 665.015V657.967ZM814.341 644.369L810.184 642.092V649.141L814.341 651.417V644.369ZM822.557 648.86L818.4 646.583V653.632L822.557 655.908V648.86ZM822.557 662.458L818.4 660.181V667.23L822.557 669.506V662.458ZM806.158 639.909L802.001 637.632V644.681L806.158 646.958V639.909ZM806.158 653.507L802.001 651.23V658.279L806.158 660.555V653.507ZM830.773 666.949L826.616 664.672V671.721L830.773 673.997V666.949ZM830.773 653.351L826.616 651.074V658.123L830.773 660.399V653.351ZM797.943 649.047L793.785 646.77V653.819L797.943 656.096V649.047ZM797.943 635.449L793.785 633.173V640.221L797.943 642.498V635.449ZM789.727 630.958L785.569 628.682V635.73L789.727 638.007V630.958ZM789.727 644.556L785.569 642.279V649.328L789.727 651.605V644.556Z" fill="#001D23"/>
</g>
<g style="mix-blend-mode:multiply" opacity="0.6">
<path d="M702.705 509.327L698.349 511.697V504.306L702.705 501.936V509.327ZM711.317 497.258L706.961 499.628V507.019L711.317 504.649V497.258ZM719.928 492.548L715.573 494.919V502.31L719.928 499.94V492.548ZM728.54 487.839L724.185 490.209V497.601L728.54 495.23V487.839ZM737.152 483.13L732.797 485.5V492.891L737.152 490.521V483.13ZM745.764 478.42L741.408 480.791V488.182L745.764 485.812V478.42ZM754.376 473.711L750.02 476.081V483.473L754.376 481.102V473.711ZM702.738 523.549L698.382 525.919V518.528L702.738 516.157V523.549ZM711.35 511.479L706.994 513.849V521.241L711.35 518.871V511.479ZM719.961 506.77L715.606 509.14V516.532L719.961 514.161V506.77ZM728.573 502.06L724.218 504.431V511.822L728.573 509.452V502.06ZM737.185 497.351L732.83 499.721V507.113L737.185 504.743V497.351ZM745.797 492.642L741.441 495.012V502.404L745.797 500.033V492.642ZM754.409 487.932L750.053 490.303V497.694L754.409 495.324V487.932ZM702.771 537.77L698.415 540.141V532.749L702.771 530.379V537.77ZM711.383 525.701L707.027 528.071V535.462L711.383 533.092V525.701ZM719.994 520.991L715.639 523.362V530.753L719.994 528.383V520.991ZM728.606 516.282L724.251 518.652V526.044L728.606 523.674V516.282ZM737.218 511.573L732.863 513.943V521.334L737.218 518.964V511.573ZM745.83 506.863L741.474 509.234V516.625L745.83 514.255V506.863ZM754.442 502.154L750.086 504.524V511.916L754.442 509.546V502.154ZM702.804 551.992L698.448 554.362V546.971L702.804 544.6V551.992ZM711.416 539.922L707.06 542.293V549.684L711.416 547.314V539.922ZM720.027 535.213L715.672 537.583V544.975L720.027 542.604V535.213ZM728.639 530.504L724.284 532.874V540.265L728.639 537.895V530.504ZM737.251 525.794L732.896 528.165V535.556L737.251 533.186V525.794ZM745.863 521.085L741.507 523.455V530.847L745.863 528.476V521.085ZM754.475 516.376L750.119 518.746V526.137L754.475 523.767V516.376Z" fill="#001D23"/>
</g>
</g>
<path d="M895.558 440.504L888.629 444.277C886.913 445.213 885.528 447.271 885.528 448.893V457.969C885.528 459.59 884.142 461.649 882.426 462.584L872.824 467.824C871.109 468.76 869.723 470.818 869.723 472.44V478.989C869.723 480.611 871.109 481.141 872.824 480.237L882.426 474.997C884.142 474.062 885.528 474.623 885.528 476.245V485.258C885.528 486.88 886.913 487.41 888.629 486.505L898.66 481.048V441.814C898.66 440.192 897.274 439.662 895.558 440.566V440.504Z" fill="#006058"/>
<path d="M849.932 574.579V568.029C849.932 566.408 848.546 565.877 846.83 566.782L837.229 572.021C835.513 572.957 834.127 572.396 834.127 570.774V561.698C834.127 560.076 832.741 559.546 831.026 560.451L824.097 564.224C822.381 565.16 820.995 567.218 820.995 568.84V577.916C820.995 579.538 819.609 581.596 817.894 582.532L808.358 587.74C806.642 588.676 805.256 590.734 805.256 592.356V601.837L820.962 593.26L825.449 590.796L846.731 579.163C848.447 578.228 849.833 576.169 849.833 574.548L849.932 574.579Z" fill="#48CA2D"/>
<path d="M869.064 440.787L859.033 446.245V436.764C859.033 435.143 860.419 433.084 862.135 432.149L869.064 428.375C870.779 427.439 872.165 428.001 872.165 429.622V436.172C872.165 437.793 870.779 439.852 869.064 440.787Z" fill="white"/>
<path d="M878.443 507.338L868.413 512.796V522.277C868.413 523.899 869.798 524.429 871.514 523.525L878.443 519.751C880.159 518.815 881.545 516.757 881.545 515.135V508.586C881.545 506.964 880.159 506.434 878.443 507.338Z" fill="#48CA2D"/>
<path d="M895.562 517.443L885.532 522.901V513.42C885.532 511.798 886.918 509.739 888.633 508.804L895.562 505.03C897.278 504.094 898.664 504.656 898.664 506.278V512.827C898.664 514.449 897.278 516.507 895.562 517.443Z" fill="white"/>
<path d="M846.895 439.629L824.194 452.011C822.479 452.946 821.093 452.385 821.093 450.763V444.214C821.093 442.592 822.479 440.533 824.194 439.598L849.997 425.532V435.013C849.997 436.635 848.611 438.693 846.895 439.629Z" fill="#006058"/>
<path d="M818.455 525.552V547.009C818.455 548.631 817.069 550.689 815.353 551.625L808.424 555.399C806.709 556.334 805.323 555.773 805.323 554.151V529.762L815.353 524.304C817.069 523.369 818.455 523.93 818.455 525.552Z" fill="#006058"/>
<path d="M862.667 520.905L853.099 526.144C851.383 527.08 849.997 526.519 849.997 524.897V515.821C849.997 514.2 848.611 513.669 846.896 514.574L839.967 518.348C838.251 519.283 836.865 521.342 836.865 522.963V544.42C836.865 546.042 838.251 546.572 839.934 545.668L849.535 540.428C851.251 539.493 852.637 540.054 852.637 541.676V550.751C852.637 552.373 854.023 552.903 855.738 551.999L865.769 546.541V522.152C865.769 520.531 864.383 520 862.667 520.905Z" fill="white"/>
<path d="M839.967 493.584C838.251 494.52 836.865 496.578 836.865 498.169V504.718C836.865 506.34 838.251 506.87 839.967 505.966L849.568 500.726C851.284 499.791 852.67 500.352 852.67 501.974V511.049C852.67 512.671 854.056 513.201 855.771 512.297L878.472 499.915C880.188 498.98 881.574 496.921 881.574 495.3V485.819L868.904 492.742C867.188 493.678 865.802 493.117 865.802 491.495V482.419C865.802 480.797 864.449 480.236 862.733 481.172L840 493.584H839.967Z" fill="#48CA2D"/>
<path d="M849.964 456.253C849.964 454.631 848.578 454.101 846.862 455.005L839.933 458.779C838.217 459.715 836.832 461.773 836.832 463.395V472.47C836.832 474.092 835.446 476.151 833.73 477.086L808.39 490.934C806.674 491.869 805.288 493.928 805.288 495.549V517.006V519.938L815.319 514.48C817.034 513.545 818.42 511.486 818.42 509.896V500.82C818.42 499.198 819.806 497.14 821.522 496.204L846.862 482.357C848.578 481.421 849.964 479.363 849.964 477.741V456.284V456.253Z" fill="#00C8B5"/>
</g>
</svg>
