<svg width="28" height="34" viewBox="0 0 28 34" fill="none" xmlns="http://www.w3.org/2000/svg">
  <path d="M19.5807 31.9697H1V1.00195H19.5807V15.9697" stroke="#54747E" stroke-width="2"/>
  <path d="M6.16016 8.74401V5.1311" stroke="#54747E" stroke-width="2"/>
  <path d="M6.16016 14.9376V11.3247" stroke="#54747E" stroke-width="2"/>
  <path d="M6.16016 21.131V17.5181" stroke="#54747E" stroke-width="2"/>
  <path d="M6.16016 27.3246V23.7117" stroke="#54747E" stroke-width="2"/>
  <path d="M10.2891 8.74401V5.1311" stroke="#54747E" stroke-width="2"/>
  <path d="M10.2891 14.9376V11.3247" stroke="#54747E" stroke-width="2"/>
  <path d="M10.2891 21.131V17.5181" stroke="#54747E" stroke-width="2"/>
  <path d="M10.2891 27.3246V23.7117" stroke="#54747E" stroke-width="2"/>
  <path d="M14.418 8.74401V5.1311" stroke="#54747E" stroke-width="2"/>
  <path d="M14.418 14.9376V11.3247" stroke="#54747E" stroke-width="2"/>
  <circle cx="20.6145" cy="25.7761" r="6.22582" stroke="#54747E" stroke-width="2"/>
  <path d="M20.4717 24.4697C20.2314 24.4697 20.0212 24.3834 19.841 24.2107C19.6684 24.0305 19.582 23.8203 19.582 23.5801C19.582 23.3398 19.6684 23.1296 19.841 22.9495C20.0212 22.7693 20.2314 22.6792 20.4717 22.6792C20.7194 22.6792 20.9296 22.7693 21.1023 22.9495C21.2824 23.1296 21.3725 23.3398 21.3725 23.5801C21.3725 23.8203 21.2824 24.0305 21.1023 24.2107C20.9296 24.3834 20.7194 24.4697 20.4717 24.4697ZM19.7509 28.7113V25.1454H21.2036V28.7113H19.7509Z" fill="#54747E"/>
</svg>
