<svg width="1280" height="696" viewBox="0 0 1280 696" fill="none" xmlns="http://www.w3.org/2000/svg">
<mask id="mask0_820_15746" style="mask-type:alpha" maskUnits="userSpaceOnUse" x="0" y="0" width="1280" height="696">
<rect y="0.68457" width="1280" height="695" fill="#003E42"/>
</mask>
<g mask="url(#mask0_820_15746)">
<path d="M794.397 594.59L1068.08 743.926L1186.6 679.261L912.92 529.897L794.397 594.59Z" fill="#034F51"/>
<path d="M1547.09 670.351L1381.84 580.487L1226.68 665.159L1392.77 755.815L1547.09 670.351Z" fill="#034F51"/>
<path d="M1374.67 562.34L1100.5 413.25L945.889 497.621L1219.57 646.984L1374.67 562.34Z" fill="#034F51"/>
<path d="M904.834 511.723L756.759 430.933L640 496.582L786.31 576.415L904.834 511.723Z" fill="#034F51"/>
<path d="M938.767 479.445L1093.32 395.102L941.803 312.699L789.796 398.163L938.767 479.445Z" fill="#034F51"/>
<path d="M1347.06 649.745L1300.56 624.382L1248.51 652.779L1294.98 678.169L1347.06 649.745Z" fill="#02A894"/>
<path d="M1294.98 678.578C1294.98 678.578 1294.84 678.578 1294.75 678.524L1248.25 653.16C1248.25 653.16 1248.02 652.942 1248.02 652.805C1248.02 652.669 1248.11 652.532 1248.25 652.45L1300.3 624.053C1300.3 624.053 1300.59 623.971 1300.73 624.053L1347.23 649.416C1347.23 649.416 1347.46 649.635 1347.46 649.771C1347.46 649.908 1347.37 650.045 1347.23 650.127L1295.18 678.524C1295.18 678.524 1295.04 678.578 1294.95 678.578H1294.98ZM1249.35 652.805L1294.98 677.704L1346.16 649.771L1300.53 624.873L1249.35 652.805Z" fill="#02A894"/>
<path d="M1300.56 630.095L1336.59 649.773L1294.98 672.485L1258.95 652.807L1300.56 630.095ZM1300.56 628.182L1255.48 652.779L1295.01 674.344L1340.09 649.746L1300.56 628.182Z" fill="#003E42"/>
<path d="M1294.98 696.425L1248.51 671.034V652.777L1294.98 678.168V696.425Z" fill="#003E42"/>
<path d="M1294.98 696.835C1294.98 696.835 1294.84 696.835 1294.75 696.78L1248.25 671.417C1248.25 671.417 1248.02 671.198 1248.02 671.062V652.804C1248.02 652.668 1248.11 652.531 1248.25 652.449C1248.4 652.367 1248.54 652.367 1248.69 652.449L1295.18 677.812C1295.18 677.812 1295.41 678.031 1295.41 678.168V696.425C1295.41 696.561 1295.33 696.698 1295.18 696.78C1295.12 696.807 1295.04 696.835 1294.95 696.835H1294.98ZM1248.92 670.816L1294.55 695.714V678.414L1248.92 653.515V670.816Z" fill="#02A894"/>
<path d="M873.253 452.935L749.988 385.674L682.934 422.27L806.199 489.531L873.253 452.935Z" fill="#02A894"/>
<path d="M806.197 489.941C806.197 489.941 806.052 489.941 805.966 489.886L682.7 422.624C682.7 422.624 682.469 422.406 682.469 422.269C682.469 422.132 682.556 421.996 682.7 421.914L749.755 385.318C749.755 385.318 750.044 385.236 750.188 385.318L873.453 452.579C873.453 452.579 873.685 452.798 873.685 452.934C873.685 453.071 873.598 453.208 873.453 453.29L806.399 489.886C806.399 489.886 806.255 489.941 806.168 489.941H806.197ZM683.828 422.269L806.197 489.066L872.384 452.962L750.015 386.165L683.828 422.269Z" fill="#02A894"/>
<path d="M749.99 391.386L862.787 452.935L806.201 483.819L693.403 422.27L749.99 391.386ZM749.99 389.473L689.904 422.27L806.172 485.732L866.257 452.935L749.99 389.473Z" fill="#003E42"/>
<path d="M806.199 547.826L682.934 480.564V422.268L806.199 489.529V547.826Z" fill="#003E42"/>
<path d="M806.197 548.237C806.197 548.237 806.052 548.237 805.966 548.182L682.7 480.921C682.7 480.921 682.469 480.702 682.469 480.565V422.241C682.469 422.104 682.556 421.968 682.7 421.886C682.845 421.804 682.99 421.804 683.134 421.886L806.399 489.147C806.399 489.147 806.631 489.366 806.631 489.502V547.827C806.631 547.963 806.544 548.1 806.399 548.182C806.341 548.209 806.255 548.237 806.168 548.237H806.197ZM683.394 480.319L805.763 547.116V489.748L683.394 422.952V480.319Z" fill="#02A894"/>
<path d="M860.639 511.232L793.585 547.829V489.532L860.639 452.936V511.232Z" fill="#003E42"/>
<path d="M793.586 548.074C793.384 547.992 793.326 547.91 793.326 547.828V489.504C793.326 489.504 793.384 489.34 793.442 489.285L860.496 452.689C860.496 452.689 860.669 452.635 860.756 452.689C860.843 452.744 860.872 452.826 860.872 452.908V511.232C860.872 511.232 860.814 511.396 860.756 511.451L793.702 548.047C793.702 548.047 793.615 548.074 793.557 548.074H793.586ZM793.846 489.668V547.418L860.38 511.096V453.345L793.846 489.641V489.668Z" fill="#02A894"/>
<path d="M840.91 323.264V314.955L849.7 310.172C851.204 309.352 852.419 309.844 852.419 311.266V317.005C852.419 318.426 851.204 320.23 849.7 321.05L843.628 324.357C842.125 325.177 840.91 324.685 840.91 323.264Z" fill="white"/>
<path d="M797.164 364.532V356.224L788.373 361.007C786.87 361.826 785.655 363.63 785.655 365.052V370.791C785.655 372.212 786.87 372.677 788.373 371.884L794.445 368.577C795.949 367.757 797.164 365.953 797.164 364.532Z" fill="#48CA2D"/>
<path d="M799.472 387.627V379.318L808.262 374.536C809.766 373.716 810.98 374.208 810.98 375.629V381.368C810.98 382.79 809.766 384.593 808.262 385.413L802.19 388.72C800.686 389.54 799.472 389.048 799.472 387.627Z" fill="#006058"/>
<path d="M783.465 322.353V314.044L792.255 309.261C793.758 308.441 794.973 308.933 794.973 310.354V316.094C794.973 317.515 793.758 319.319 792.255 320.139L786.183 323.446C784.679 324.266 783.465 323.774 783.465 322.353Z" fill="#006058"/>
<path d="M837.757 275.228V283.537L828.966 288.32C827.463 289.14 826.248 288.648 826.248 287.227V281.487C826.248 280.066 827.463 278.262 828.966 277.442L835.039 274.135C836.542 273.315 837.757 273.807 837.757 275.228Z" fill="#006058"/>
<path d="M832.004 341.602V349.911L823.214 354.694C821.71 355.514 820.496 355.022 820.496 353.601V347.861C820.496 346.44 821.71 344.636 823.214 343.816L829.286 340.509C830.79 339.689 832.004 340.181 832.004 341.602Z" fill="#006058"/>
<path d="M841.201 406.856V388.053C841.201 386.631 842.416 384.828 843.919 384.008L849.992 380.701C851.495 379.881 852.71 380.373 852.71 381.794V403.167L843.919 407.95C842.416 408.769 841.201 408.278 841.201 406.856Z" fill="#48CA2D"/>
<path d="M797.16 401.047V382.243C797.16 380.822 795.946 380.357 794.471 381.15L786.057 385.741C784.553 386.561 783.339 386.069 783.339 384.648V376.695C783.339 375.274 782.125 374.809 780.621 375.602L771.831 380.384V401.757C771.831 403.178 773.045 403.643 774.549 402.85L782.963 398.259C784.467 397.439 785.681 397.931 785.681 399.352V407.278C785.681 408.699 786.896 409.164 788.399 408.371L794.471 405.064C795.975 404.244 797.189 402.441 797.189 401.019L797.16 401.047Z" fill="white"/>
<path d="M866.238 321.623C866.238 320.201 865.023 319.737 863.52 320.529L857.447 323.836C855.944 324.656 854.729 326.46 854.729 327.881V335.807C854.729 337.228 853.515 339.032 852.011 339.852L843.597 344.444C842.093 345.264 840.879 347.068 840.879 348.489V354.228C840.879 355.65 842.093 356.114 843.597 355.322L852.011 350.73C853.515 349.91 854.729 350.402 854.729 351.823V372.813C854.729 374.235 855.944 374.699 857.447 373.907L866.238 369.124V321.65V321.623Z" fill="#00C8B5"/>
<path d="M824.776 313.233C824.776 311.812 823.561 311.347 822.058 312.14L815.985 315.447C814.482 316.267 813.267 318.07 813.267 319.492V327.445C813.267 328.866 812.053 330.67 810.549 331.49L802.135 336.082C800.632 336.901 799.417 338.705 799.417 340.127V358.93C799.417 360.351 800.632 360.816 802.135 360.023L810.925 355.241V344.745C810.925 343.324 812.14 341.52 813.643 340.728L822.029 336.164C823.532 335.344 824.747 333.54 824.747 332.119V313.288L824.776 313.233Z" fill="#00C8B5"/>
<path d="M1039.88 338.364L963.491 296.657L860.697 352.74L937.091 394.447L1039.88 338.364Z" fill="#02A894"/>
<path d="M937.091 394.857C937.091 394.857 936.946 394.857 936.86 394.803L860.437 353.096C860.437 353.096 860.206 352.877 860.206 352.74C860.206 352.604 860.293 352.467 860.437 352.385L963.23 296.302C963.23 296.302 963.52 296.22 963.664 296.302L1040.09 338.009C1040.09 338.009 1040.32 338.228 1040.32 338.364C1040.32 338.501 1040.23 338.638 1040.09 338.72L937.293 394.803C937.293 394.803 937.149 394.857 937.062 394.857H937.091ZM861.565 352.74L937.091 393.956L1039.02 338.337L963.491 297.122L861.565 352.74Z" fill="#02A894"/>
<path d="M949.908 302.37L1015.86 338.365L923.538 388.763L857.582 352.768L949.908 302.37ZM949.908 300.457L854.084 352.741L923.509 390.622L1019.33 338.338L949.908 300.457Z" fill="#003E42"/>
<path d="M937.091 466.246L860.697 424.566V352.74L937.091 394.447V466.246Z" fill="#003E42"/>
<path d="M937.091 466.683C937.091 466.683 936.947 466.683 936.86 466.628L860.437 424.921C860.437 424.921 860.206 424.702 860.206 424.566V352.767C860.206 352.631 860.293 352.494 860.437 352.412C860.582 352.33 860.726 352.33 860.871 352.412L937.294 394.119C937.294 394.119 937.525 394.338 937.525 394.474V466.3C937.525 466.437 937.438 466.573 937.294 466.655C937.236 466.683 937.149 466.71 937.062 466.71L937.091 466.683ZM861.131 424.32L936.657 465.535V394.666L861.131 353.451V424.32Z" fill="#02A894"/>
<path d="M1026.3 410.163L923.508 466.246V394.447L1026.3 338.364V410.163Z" fill="#003E42"/>
<path d="M923.509 466.519C923.307 466.437 923.249 466.355 923.249 466.273V394.447C923.249 394.447 923.307 394.283 923.365 394.228L1026.16 338.145C1026.16 338.145 1026.33 338.091 1026.42 338.145C1026.51 338.2 1026.53 338.282 1026.53 338.364V410.162C1026.53 410.162 1026.48 410.326 1026.42 410.381L923.625 466.464C923.625 466.464 923.538 466.492 923.48 466.492L923.509 466.519ZM923.77 394.611V465.863L1026.04 410.053V338.801L923.77 394.611Z" fill="#02A894"/>
<path d="M941.141 317.319L947.213 314.012C948.717 313.192 949.931 311.388 949.931 309.967V302.014C949.931 300.592 951.146 298.789 952.65 297.969L961.064 293.377C962.567 292.557 963.782 290.753 963.782 289.332V283.593C963.782 282.171 962.567 281.707 961.064 282.499L952.65 287.091C951.146 287.911 949.931 287.419 949.931 285.998V278.099C949.931 276.678 948.717 276.213 947.213 277.006L938.423 281.789V316.171C938.423 317.592 939.638 318.057 941.141 317.264V317.319Z" fill="#006058"/>
<path d="M1008.9 232.39V224.081L1017.69 219.298C1019.2 218.478 1020.41 218.97 1020.41 220.392V226.131C1020.41 227.552 1019.2 229.356 1017.69 230.176L1011.62 233.483C1010.12 234.303 1008.9 233.811 1008.9 232.39Z" fill="#006058"/>
<path d="M963.751 264.832V256.523L954.96 261.306C953.457 262.126 952.242 263.93 952.242 265.351V271.091C952.242 272.512 953.457 272.977 954.96 272.184L961.033 268.877C962.536 268.057 963.751 266.253 963.751 264.832Z" fill="#48CA2D"/>
<path d="M991.329 206.166V197.858L1000.12 193.075C1001.62 192.255 1002.84 192.747 1002.84 194.168V199.907C1002.84 201.329 1001.62 203.132 1000.12 203.952L994.047 207.259C992.544 208.079 991.329 207.587 991.329 206.166Z" fill="white"/>
<path d="M1006.4 263.712V272.02L997.609 276.803C996.105 277.623 994.891 277.131 994.891 275.71V269.971C994.891 268.549 996.105 266.746 997.609 265.926L1003.68 262.619C1005.18 261.799 1006.4 262.291 1006.4 263.712Z" fill="#48CA2D"/>
<path d="M983.378 297.64L991.793 293.049C993.296 292.229 994.511 290.425 994.511 289.004V283.264C994.511 281.843 993.296 281.378 991.793 282.171L971.899 293.021C970.395 293.841 969.181 295.645 969.181 297.066V315.87C969.181 317.291 970.395 317.756 971.899 316.963L980.689 312.18V301.685C980.689 300.264 981.904 298.46 983.407 297.668L983.378 297.64Z" fill="#48CA2D"/>
<path d="M963.781 251.767V243.841C963.781 242.42 964.995 240.616 966.499 239.796L974.913 235.205C976.417 234.385 977.631 232.581 977.631 231.16V225.42C977.631 223.999 976.417 223.535 974.913 224.327L955.019 235.178C953.516 235.997 952.301 237.801 952.301 239.222V247.176C952.301 248.597 951.087 250.401 949.583 251.193L941.169 255.785C939.665 256.605 938.451 258.409 938.451 259.83V268.139L961.063 255.812C962.566 254.992 963.781 253.189 963.781 251.767Z" fill="#006058"/>
<path d="M1006.4 249.91V244.17C1006.4 242.749 1005.18 242.285 1003.68 243.077L995.263 247.669C993.759 248.489 992.545 247.997 992.545 246.576V225.585C992.545 224.164 991.33 223.7 989.856 224.492L981.065 229.275V239.77C981.065 241.191 979.851 242.995 978.347 243.815L969.933 248.407C968.43 249.227 967.215 251.031 967.215 252.424V258.164C967.215 259.585 968.43 260.05 969.933 259.257L978.347 254.666C979.851 253.846 981.065 254.338 981.065 255.759V263.712C981.065 265.133 982.251 265.625 983.755 264.805L1003.68 253.928C1005.18 253.108 1006.4 251.304 1006.4 249.883V249.91Z" fill="#00C8B5"/>
<g style="mix-blend-mode:multiply" opacity="0.6">
<g style="mix-blend-mode:multiply" opacity="0.6">
<path d="M905.702 393.462L909.518 395.539V402.017L905.702 399.939V393.462ZM898.155 395.813L901.972 397.89V391.412L898.155 389.335V395.813ZM890.608 391.686L894.425 393.763V387.285L890.608 385.208V391.686ZM883.061 387.559L886.878 389.636V383.158L883.061 381.081V387.559ZM875.514 383.432L879.331 385.509V379.031L875.514 376.954V383.432ZM867.967 379.305L871.784 381.382V374.904L867.967 372.827V379.305ZM860.421 375.178L864.237 377.255V370.777L860.421 368.7V375.178ZM852.874 371.051L856.69 373.128V366.65L852.874 364.573V371.051ZM905.673 405.898L909.489 407.975V414.452L905.673 412.375V405.898ZM898.126 408.248L901.943 410.325V403.848L898.126 401.771V408.248ZM890.579 404.121L894.396 406.198V399.721L890.579 397.644V404.121ZM883.032 399.994L886.849 402.071V395.594L883.032 393.517V399.994ZM875.485 395.867L879.302 397.944V391.467L875.485 389.39V395.867ZM867.938 391.74L871.755 393.817V387.34L867.938 385.263V391.74ZM860.392 387.613L864.208 389.69V383.213L860.392 381.136V387.613ZM852.845 383.486L856.662 385.563V379.086L852.845 377.009V383.486ZM905.644 418.333L909.461 420.41V426.888L905.644 424.811V418.333ZM898.097 420.684L901.914 422.761V416.283L898.097 414.206V420.684ZM890.55 416.557L894.367 418.634V412.156L890.55 410.079V416.557ZM883.003 412.43L886.82 414.507V408.029L883.003 405.952V412.43ZM875.456 408.303L879.273 410.38V403.902L875.456 401.825V408.303ZM867.91 404.176L871.726 406.253V399.775L867.91 397.698V404.176ZM860.363 400.049L864.179 402.126V395.649L860.363 393.571V400.049ZM852.816 395.922L856.633 397.999V391.522L852.816 389.444V395.922ZM905.615 430.769L909.432 432.846V439.323L905.615 437.246V430.769ZM898.068 433.119L901.885 435.196V428.719L898.068 426.642V433.119ZM890.521 428.992L894.338 431.069V424.592L890.521 422.515V428.992ZM882.974 424.865L886.791 426.942V420.465L882.974 418.388V424.865ZM875.427 420.738L879.244 422.815V416.338L875.427 414.261V420.738ZM867.881 416.611L871.697 418.689V412.211L867.881 410.134V416.611ZM860.334 412.484L864.151 414.562V408.084L860.334 406.007V412.484ZM852.787 408.357L856.604 410.435V403.957L852.787 401.88V408.357ZM913.104 403.738L916.921 405.816V399.338L913.104 397.261V403.738ZM913.104 416.256L916.921 418.333V411.856L913.104 409.779V416.256ZM913.104 428.774L916.921 430.851V424.373L913.104 422.296V428.774ZM913.104 441.291L916.921 443.368V436.891L913.104 434.814V441.291ZM905.586 443.232L909.403 445.309V451.786L905.586 449.709V443.232ZM898.039 445.582L901.856 447.659V441.182L898.039 439.105V445.582ZM890.492 441.455L894.309 443.532V437.055L890.492 434.978V441.455ZM882.945 437.328L886.762 439.405V432.928L882.945 430.851V437.328ZM875.399 433.201L879.215 435.278V428.801L875.399 426.724V433.201ZM867.852 429.074L871.669 431.151V424.674L867.852 422.597V429.074ZM860.305 424.947L864.122 427.024V420.547L860.305 418.47V424.947ZM852.758 420.82L856.575 422.897V416.42L852.758 414.343V420.82ZM913.075 453.727L916.892 455.804V449.326L913.075 447.249V453.727Z" fill="#001D23"/>
</g>
<g style="mix-blend-mode:multiply" opacity="0.6">
<path d="M960.727 419.781L964.544 417.704V424.182L960.727 426.259V419.781ZM960.727 438.749L964.544 436.672V430.194L960.727 432.272V438.749ZM960.727 401.224L964.544 399.146V392.669L960.727 394.746V401.224ZM960.727 388.706L964.544 386.629V380.151L960.727 382.229V388.706ZM953.18 392.833L956.997 390.756V384.278L953.18 386.356V392.833ZM953.18 417.841L956.997 415.764V409.286L953.18 411.363V417.841ZM953.18 405.323L956.997 403.246V396.769L953.18 398.846V405.323ZM953.18 430.331L956.997 428.254V421.777L953.18 423.854V430.331ZM975.792 430.495L979.609 428.418V421.941L975.792 424.018V430.495ZM975.792 417.978L979.609 415.9V409.423L975.792 411.5V417.978ZM968.245 384.579L972.062 382.502V376.025L968.245 378.102V384.579ZM968.245 397.097L972.062 395.02V388.542L968.245 390.619V397.097ZM968.245 422.105L972.062 420.027V413.55L968.245 415.627V422.105ZM968.245 434.622L972.062 432.545V426.067L968.245 428.145V434.622ZM968.245 409.614L972.062 407.537V401.06L968.245 403.137V409.614ZM930.569 405.159L934.386 403.082V396.605L930.569 398.682V405.159ZM975.792 405.487L979.609 403.41V396.933L975.792 399.01V405.487ZM938.087 426.067L941.903 423.99V417.513L938.087 419.59V426.067ZM938.087 438.585L941.903 436.508V430.03L938.087 432.108V438.585ZM930.569 417.677L934.386 415.6V409.122L930.569 411.199V417.677ZM953.18 442.876L956.997 440.799V434.321L953.18 436.399V442.876ZM930.569 455.202L934.386 453.125V446.648L930.569 448.725V455.202ZM930.569 442.685L934.386 440.608V434.13L930.569 436.207V442.685ZM930.569 430.167L934.386 428.09V421.613L930.569 423.69V430.167ZM938.087 451.075L941.903 448.998V442.521L938.087 444.598V451.075ZM945.634 409.45L949.45 407.373V400.896L945.634 402.973V409.45ZM945.634 396.933L949.45 394.856V388.378L945.634 390.455V396.933ZM945.634 421.941L949.45 419.863V413.386L945.634 415.463V421.941ZM945.634 446.948L949.45 444.871V438.394L945.634 440.471V446.948ZM945.634 434.431L949.45 432.354V425.876L945.634 427.953V434.431ZM938.087 401.032L941.903 398.955V392.478L938.087 394.555V401.032ZM938.087 413.55L941.903 411.473V404.995L938.087 407.072V413.55ZM960.698 413.714L964.515 411.637V405.159L960.698 407.236V413.714ZM990.857 384.743L994.674 382.666V376.189L990.857 378.266V384.743ZM990.857 397.261L994.674 395.184V388.706L990.857 390.783V397.261ZM975.763 392.997L979.58 390.92V384.442L975.763 386.52V392.997ZM990.857 372.253L994.674 370.176V363.698L990.857 365.775V372.253ZM975.763 380.479L979.58 378.402V371.925L975.763 374.002V380.479ZM983.31 376.352L987.127 374.275V367.798L983.31 369.875V376.352ZM983.31 388.87L987.127 386.793V380.315L983.31 382.393V388.87ZM983.31 401.388L987.127 399.31V392.833L983.31 394.91V401.388ZM998.404 368.153L1002.22 366.076V359.599L998.404 361.676V368.153ZM998.404 393.161L1002.22 391.084V384.606L998.404 386.684V393.161ZM998.404 380.643L1002.22 378.566V372.089L998.404 374.166V380.643Z" fill="#001D23"/>
</g>
</g>
<path d="M1131.43 402.398L1052 359.051L972.573 402.398L1052 445.717L1131.43 402.398Z" fill="#02A894"/>
<path d="M1052 446.155C1052 446.155 1051.86 446.155 1051.77 446.1L972.339 402.753C972.339 402.753 972.108 402.534 972.108 402.398C972.108 402.261 972.194 402.125 972.339 402.043L1051.77 358.696C1051.77 358.696 1052.06 358.614 1052.2 358.696L1131.63 402.043C1131.63 402.043 1131.86 402.261 1131.86 402.398C1131.86 402.534 1131.78 402.671 1131.63 402.753L1052.2 446.1C1052.2 446.1 1052.06 446.155 1051.97 446.155H1052ZM973.438 402.398L1052 445.253L1130.56 402.398L1052 359.543L973.438 402.398Z" fill="#02A894"/>
<path d="M1052 542.988L972.573 499.641V402.397L1052 445.717V542.988Z" fill="#003E42"/>
<path d="M1052 543.399C1052 543.399 1051.86 543.399 1051.77 543.344L972.339 499.997C972.339 499.997 972.108 499.778 972.108 499.642V402.398C972.108 402.262 972.194 402.125 972.339 402.043C972.483 401.961 972.628 401.961 972.773 402.043L1052.2 445.39C1052.2 445.39 1052.43 445.608 1052.43 445.745V542.989C1052.43 543.125 1052.35 543.262 1052.2 543.344C1052.14 543.371 1052.06 543.399 1051.97 543.399H1052ZM973.004 499.396L1051.57 542.251V445.964L973.004 403.109V499.396Z" fill="#02A894"/>
<path d="M1118.82 499.643L1039.39 542.99V445.719L1118.82 402.399V499.643Z" fill="#003E42"/>
<path d="M1039.39 543.236C1039.19 543.154 1039.13 543.072 1039.13 542.99V445.746C1039.13 445.746 1039.19 445.582 1039.25 445.527L1118.68 402.181C1118.68 402.181 1118.85 402.126 1118.94 402.181C1119.02 402.235 1119.08 402.317 1119.08 402.399V499.643C1119.08 499.643 1119.02 499.807 1118.94 499.861L1039.51 543.208C1039.51 543.208 1039.42 543.236 1039.36 543.236H1039.39ZM1039.65 445.883V542.552L1118.56 499.506V402.837L1039.65 445.883Z" fill="#02A894"/>
<path d="M1114.72 259.049L1052.01 224.804L989.289 259.049L1052.01 293.268L1114.72 259.049Z" fill="#02A894"/>
<path d="M1052 293.678C1052 293.678 1051.86 293.678 1051.77 293.623L989.055 259.405C989.055 259.405 988.824 259.186 988.824 259.05C988.824 258.913 988.911 258.776 989.055 258.694L1051.77 224.476C1051.77 224.476 1052.06 224.394 1052.21 224.476L1114.92 258.694C1114.92 258.694 1115.15 258.913 1115.15 259.05C1115.15 259.186 1115.07 259.323 1114.92 259.405L1052.21 293.623C1052.21 293.623 1052.06 293.678 1051.97 293.678H1052ZM990.154 259.05L1052 292.803L1113.85 259.05L1052 225.296L990.154 259.05Z" fill="#02A894"/>
<path d="M1052 230.516L1104.25 259.022L1052 287.528L999.754 259.022L1052 230.516ZM1052 228.603L996.256 259.022L1052 289.441L1107.75 259.022L1052 228.603Z" fill="#003E42"/>
<path d="M1052.01 436.29L989.289 402.072V259.049L1052.01 293.267V436.29Z" fill="#003E42"/>
<path d="M1052 436.7C1052 436.7 1051.86 436.7 1051.77 436.645L989.055 402.427C989.055 402.427 988.824 402.208 988.824 402.071V259.049C988.824 258.912 988.911 258.775 989.055 258.693C989.2 258.611 989.344 258.611 989.489 258.693L1052.21 292.912C1052.21 292.912 1052.44 293.13 1052.44 293.267V436.29C1052.44 436.426 1052.35 436.563 1052.21 436.645C1052.15 436.672 1052.06 436.7 1051.97 436.7H1052ZM989.72 401.826L1051.57 435.579V293.513L989.72 259.759V401.826Z" fill="#02A894"/>
<path d="M1102.11 402.074L1039.39 436.292V293.269L1102.11 259.051V402.074Z" fill="#003E42"/>
<path d="M1039.39 436.538C1039.19 436.456 1039.13 436.374 1039.13 436.292V293.269C1039.13 293.269 1039.19 293.105 1039.25 293.05L1101.97 258.832C1101.97 258.832 1102.14 258.777 1102.23 258.832C1102.31 258.887 1102.37 258.969 1102.37 259.051V402.073C1102.37 402.073 1102.31 402.237 1102.23 402.292L1039.51 436.51C1039.51 436.51 1039.42 436.538 1039.36 436.538H1039.39ZM1039.65 293.406V435.854L1101.85 401.909V259.461L1039.65 293.406Z" fill="#02A894"/>
<g style="mix-blend-mode:multiply" opacity="0.6">
<g style="mix-blend-mode:multiply" opacity="0.6">
<path d="M1045.23 304.664L1050.44 301.821V423.663L1045.23 426.505V304.664ZM1056.62 420.301L1061.83 417.459V295.617L1056.62 298.46V420.301ZM1068.02 414.07L1073.22 411.227V289.386L1068.02 292.228V414.07ZM1079.41 407.838L1084.61 404.996V283.154L1079.41 285.997V407.838ZM1090.8 401.607L1096.01 398.764V276.923L1090.8 279.765V401.607ZM1102.19 273.534V395.375L1107.4 392.533V270.691L1102.19 273.534Z" fill="#001D23"/>
</g>
<g style="mix-blend-mode:multiply" opacity="0.6">
<path d="M1045.15 426.505L1039.94 423.663V301.821L1045.15 304.664V426.505ZM1033.76 298.432L1028.55 295.59V417.431L1033.76 420.274V298.432ZM1022.36 292.201L1017.16 289.358V411.2L1022.36 414.042V292.201ZM1010.97 285.969L1005.77 283.127V404.968L1010.97 407.811V285.969ZM999.579 279.738L994.374 276.896V398.737L999.579 401.579V279.738Z" fill="#001D23"/>
</g>
<g style="mix-blend-mode:multiply" opacity="0.6">
<path d="M1048.88 453.208L1044.94 455.367V448.698L1048.88 446.539V453.208ZM1056.65 442.303L1052.72 444.462V451.13L1056.65 448.971V442.303ZM1064.43 438.066L1060.5 440.225V446.894L1064.43 444.735V438.066ZM1072.21 433.83L1068.28 435.989V442.658L1072.21 440.499V433.83ZM1079.99 429.594L1076.06 431.753V438.422L1079.99 436.262V429.594ZM1087.77 425.357L1083.83 427.517V434.185L1087.77 432.026V425.357ZM1095.54 421.121L1091.61 423.28V429.949L1095.54 427.79V421.121ZM1103.32 416.885L1099.39 419.044V425.713L1103.32 423.554V416.885ZM1048.9 466.135L1044.97 468.294V461.626L1048.9 459.466V466.135ZM1056.68 455.23L1052.75 457.389V464.058L1056.68 461.899V455.23ZM1064.46 450.994L1060.53 453.153V459.822L1064.46 457.663V450.994ZM1072.24 446.757L1068.31 448.917V455.585L1072.24 453.426V446.757ZM1080.02 442.521L1076.08 444.68V451.349L1080.02 449.19V442.521ZM1087.79 438.285L1083.86 440.444V447.113L1087.79 444.954V438.285ZM1095.57 434.049L1091.64 436.208V442.876L1095.57 440.717V434.049ZM1103.35 429.812L1099.42 431.971V438.64L1103.35 436.481V429.812ZM1048.93 479.063L1045 481.222V474.553L1048.93 472.394V479.063ZM1056.71 468.158L1052.78 470.317V476.986L1056.71 474.826V468.158ZM1064.49 463.921L1060.56 466.08V472.749L1064.49 470.59V463.921ZM1072.27 459.685L1068.33 461.844V468.513L1072.27 466.354V459.685ZM1080.05 455.449L1076.11 457.608V464.277L1080.05 462.118V455.449ZM1087.82 451.212L1083.89 453.372V460.04L1087.82 457.881V451.212ZM1095.6 446.976L1091.67 449.135V455.804L1095.6 453.645V446.976ZM1103.38 442.74L1099.45 444.899V451.568L1103.38 449.409V442.74ZM1048.96 491.99L1045.03 494.149V487.481L1048.96 485.321V491.99ZM1056.74 481.085L1052.81 483.244V489.913L1056.74 487.754V481.085ZM1064.52 476.849L1060.59 479.008V485.677L1064.52 483.518V476.849ZM1072.3 472.613L1068.36 474.772V481.44L1072.3 479.281V472.613ZM1080.07 468.376L1076.14 470.535V477.204L1080.07 475.045V468.376ZM1087.85 464.14L1083.92 466.299V472.968L1087.85 470.809V464.14ZM1095.63 459.904L1091.7 462.063V468.732L1095.63 466.572V459.904ZM1103.41 455.667L1099.48 457.827V464.495L1103.41 462.336V455.667ZM1048.99 504.918L1045.06 507.077V500.408L1048.99 498.249V504.918ZM1056.77 494.013L1052.84 496.172V502.841L1056.77 500.681V494.013ZM1064.55 489.776L1060.61 491.936V498.604L1064.55 496.445V489.776ZM1072.33 485.54L1068.39 487.699V494.368L1072.33 492.209V485.54ZM1080.1 481.304L1076.17 483.463V490.132L1080.1 487.973V481.304ZM1087.88 477.068L1083.95 479.227V485.895L1087.88 483.736V477.068ZM1095.66 472.831L1091.73 474.99V481.659L1095.66 479.5V472.831ZM1103.44 468.595L1099.51 470.754V477.423L1103.44 475.264V468.595ZM1049.02 517.845L1045.09 520.004V513.336L1049.02 511.177V517.845ZM1056.8 506.94L1052.87 509.099V515.768L1056.8 513.609V506.94ZM1064.58 502.704L1060.64 504.863V511.532L1064.58 509.373V502.704ZM1072.35 498.468L1068.42 500.627V507.296L1072.35 505.136V498.468ZM1080.13 494.231L1076.2 496.39V503.059L1080.13 500.9V494.231ZM1087.91 489.995L1083.98 492.154V498.823L1087.91 496.664V489.995ZM1095.69 485.759L1091.76 487.918V494.587L1095.69 492.428V485.759ZM1103.47 481.522L1099.53 483.682V490.35L1103.47 488.191V481.522Z" fill="#001D23"/>
</g>
<g style="mix-blend-mode:multiply" opacity="0.6">
<path d="M1042.03 446.54L1045.96 448.699V455.368L1042.03 453.209V446.54ZM1034.25 448.972L1038.18 451.132V444.463L1034.25 442.304V448.972ZM1026.47 444.736L1030.4 446.895V440.226L1026.47 438.067V444.736ZM1018.69 440.5L1022.63 442.659V435.99L1018.69 433.831V440.5ZM1010.92 436.264L1014.85 438.423V431.754L1010.92 429.595V436.264ZM1003.14 432.027L1007.07 434.186V427.518L1003.14 425.358V432.027ZM995.359 427.791L999.292 429.95V423.281L995.359 421.122V427.791ZM987.581 423.555L991.514 425.714V419.045L987.581 416.886V423.555ZM1042 459.495L1045.93 461.654V468.323L1042 466.164V459.495ZM1034.22 461.927L1038.15 464.086V457.418L1034.22 455.259V461.927ZM1026.44 457.691L1030.38 459.85V453.181L1026.44 451.022V457.691ZM1018.66 453.455L1022.6 455.614V448.945L1018.66 446.786V453.455ZM1010.89 449.218L1014.82 451.378V444.709L1010.89 442.55V449.218ZM1003.11 444.982L1007.04 447.141V440.473L1003.11 438.313V444.982ZM995.33 440.746L999.263 442.905V436.236L995.33 434.077V440.746ZM987.552 436.509L991.485 438.669V432L987.552 429.841V436.509ZM1041.97 472.45L1045.9 474.609V481.278L1041.97 479.118V472.45ZM1034.19 474.882L1038.12 477.041V470.373L1034.19 468.213V474.882ZM1026.41 470.646L1030.35 472.805V466.136L1026.41 463.977V470.646ZM1018.64 466.41L1022.57 468.569V461.9L1018.64 459.741V466.41ZM1010.86 462.173L1014.79 464.332V457.664L1010.86 455.505V462.173ZM1003.08 457.937L1007.01 460.096V453.427L1003.08 451.268V457.937ZM995.301 453.701L999.234 455.86V449.191L995.301 447.032V453.701ZM987.523 449.464L991.456 451.624V444.955L987.523 442.796V449.464ZM1041.94 485.405L1045.87 487.564V494.232L1041.94 492.073V485.405ZM1034.16 487.837L1038.1 489.996V483.327L1034.16 481.168V487.837ZM1026.39 483.601L1030.32 485.76V479.091L1026.39 476.932V483.601ZM1018.61 479.364L1022.54 481.524V474.855L1018.61 472.696V479.364ZM1010.83 475.128L1014.76 477.287V470.619L1010.83 468.459V475.128ZM1003.05 470.892L1006.98 473.051V466.382L1003.05 464.223V470.892ZM995.273 466.656L999.205 468.815V462.146L995.273 459.987V466.656ZM987.494 462.419L991.427 464.578V457.91L987.494 455.75V462.419ZM1041.91 498.359L1045.85 500.519V507.187L1041.91 505.028V498.359ZM1034.13 500.792L1038.07 502.951V496.282L1034.13 494.123V500.792ZM1026.36 496.556L1030.29 498.715V492.046L1026.36 489.887V496.556ZM1018.58 492.319L1022.51 494.478V487.81L1018.58 485.651V492.319ZM1010.8 488.083L1014.73 490.242V483.573L1010.8 481.414V488.083ZM1003.02 483.847L1006.95 486.006V479.337L1003.02 477.178V483.847ZM995.244 479.61L999.176 481.77V475.101L995.244 472.942V479.61ZM987.465 475.374L991.398 477.533V470.865L987.465 468.705V475.374ZM1041.88 511.314L1045.82 513.473V520.142L1041.88 517.983V511.314ZM1034.11 513.747L1038.04 515.906V509.237L1034.11 507.078V513.747ZM1026.33 509.51L1030.26 511.67V505.001L1026.33 502.842V509.51ZM1018.55 505.274L1022.48 507.433V500.765L1018.55 498.605V505.274ZM1010.77 501.038L1014.7 503.197V496.528L1010.77 494.369V501.038ZM1002.99 496.802L1006.93 498.961V492.292L1002.99 490.133V496.802ZM995.215 492.565L999.147 494.724V488.056L995.215 485.897V492.565ZM987.437 488.329L991.369 490.488V483.819L987.437 481.66V488.329ZM979.687 419.646L983.62 421.805V415.137L979.687 412.978V419.646ZM979.687 432.547L983.62 434.706V428.037L979.687 425.878V432.547ZM979.687 445.447L983.62 447.606V440.937L979.687 438.778V445.447ZM979.687 458.347L983.62 460.506V453.837L979.687 451.678V458.347ZM979.687 471.247L983.62 473.406V466.738L979.687 464.578V471.247ZM979.687 484.147L983.62 486.306V479.638L979.687 477.479V484.147Z" fill="#001D23"/>
</g>
</g>
<path d="M1227.8 137.672L1160.75 101.104L1093.7 137.672L1160.75 174.268L1227.8 137.672Z" fill="#02A894"/>
<path d="M1160.75 174.679C1160.75 174.679 1160.6 174.679 1160.52 174.624L1093.46 138.028C1093.46 138.028 1093.23 137.809 1093.23 137.672C1093.23 137.536 1093.32 137.399 1093.46 137.317L1160.52 100.721C1160.52 100.721 1160.81 100.639 1160.95 100.721L1228 137.317C1228 137.317 1228.24 137.536 1228.24 137.672C1228.24 137.809 1228.15 137.946 1228 138.028L1160.95 174.624C1160.95 174.624 1160.81 174.679 1160.72 174.679H1160.75ZM1094.56 137.672L1160.75 173.777L1226.93 137.672L1160.75 101.568L1094.56 137.672Z" fill="#02A894"/>
<path d="M1160.75 106.788L1217.34 137.672L1160.75 168.556L1104.17 137.672L1160.75 106.788ZM1160.75 104.875L1100.67 137.672L1160.75 170.469L1220.84 137.672L1160.75 104.875Z" fill="#003E42"/>
<path d="M1160.75 609.213L1093.7 572.617V137.672L1160.75 174.268V609.213Z" fill="#003E42"/>
<path d="M1160.75 609.623C1160.75 609.623 1160.6 609.623 1160.52 609.569L1093.46 572.973C1093.46 572.973 1093.23 572.754 1093.23 572.617V137.673C1093.23 137.536 1093.32 137.399 1093.46 137.317C1093.61 137.235 1093.75 137.235 1093.9 137.317L1160.95 173.913C1160.95 173.913 1161.18 174.132 1161.18 174.269V609.213C1161.18 609.35 1161.09 609.487 1160.95 609.569C1160.89 609.596 1160.81 609.623 1160.72 609.623H1160.75ZM1094.13 572.371L1160.31 608.476V174.515L1094.13 138.411V572.371Z" fill="#02A894"/>
<path d="M1214.22 572.618L1147.16 609.214V174.269L1214.22 137.673V572.618Z" fill="#003E42"/>
<path d="M1147.16 609.459C1146.96 609.377 1146.9 609.295 1146.9 609.213V174.269C1146.9 174.269 1146.96 174.105 1147.05 174.05L1214.1 137.454C1214.1 137.454 1214.28 137.399 1214.36 137.454C1214.45 137.509 1214.51 137.591 1214.51 137.673V572.617C1214.51 572.617 1214.45 572.781 1214.36 572.836L1147.31 609.432C1147.31 609.432 1147.22 609.459 1147.19 609.459H1147.16ZM1147.42 174.433V608.776L1213.96 572.481V138.11L1147.42 174.405V174.433Z" fill="#02A894"/>
<path d="M1030.79 555.098L919.352 494.287L852.297 530.883L963.736 591.695L1030.79 555.098Z" fill="#02A894"/>
<path d="M963.734 592.105C963.734 592.105 963.59 592.105 963.503 592.05L852.064 531.239C852.064 531.239 851.833 531.02 851.833 530.883C851.833 530.747 851.919 530.61 852.064 530.528L919.118 493.932C919.118 493.932 919.407 493.85 919.552 493.932L1030.99 554.743C1030.99 554.743 1031.22 554.962 1031.22 555.099C1031.22 555.235 1031.14 555.372 1030.99 555.454L963.936 592.05C963.936 592.05 963.792 592.105 963.705 592.105H963.734ZM853.163 530.883L963.734 591.23L1029.92 555.126L919.349 494.779L853.163 530.883Z" fill="#02A894"/>
<path d="M919.352 499.999L1020.32 555.098L963.736 585.982L862.765 530.883L919.352 499.999ZM919.352 498.086L859.266 530.883L963.736 587.895L1023.82 555.098L919.352 498.086Z" fill="#003E42"/>
<path d="M963.736 646.601L852.297 585.79V530.882L963.736 591.693V646.601Z" fill="#003E42"/>
<path d="M963.734 647.012C963.734 647.012 963.589 647.012 963.503 646.957L852.064 586.146C852.064 586.146 851.832 585.927 851.832 585.791V530.855C851.832 530.719 851.919 530.582 852.064 530.5C852.208 530.418 852.353 530.418 852.498 530.5L963.936 591.311C963.936 591.311 964.168 591.53 964.168 591.667V646.602C964.168 646.739 964.081 646.875 963.936 646.957C963.879 646.984 963.792 647.012 963.705 647.012H963.734ZM852.729 585.544L963.3 645.891V591.913L852.729 531.566V585.544Z" fill="#02A894"/>
<path d="M1018.18 610.006L951.122 646.602V591.694L1018.18 555.098V610.006Z" fill="#003E42"/>
<path d="M951.124 646.847C950.921 646.765 950.863 646.683 950.863 646.601V591.666C950.863 591.666 950.921 591.502 950.979 591.448L1018.03 554.851C1018.03 554.851 1018.21 554.797 1018.29 554.851C1018.38 554.906 1018.41 554.988 1018.41 555.07V610.005C1018.41 610.005 1018.35 610.169 1018.29 610.224L951.239 646.82C951.239 646.82 951.153 646.847 951.095 646.847H951.124ZM951.384 591.803V646.164L1017.92 609.869V555.507L951.384 591.803Z" fill="#02A894"/>
<path d="M1293.65 460.941L1247.82 435.934L1180.77 472.53L1226.6 497.538L1293.65 460.941Z" fill="#02A894"/>
<path d="M1226.6 497.948C1226.6 497.948 1226.45 497.948 1226.37 497.893L1180.51 472.885C1180.51 472.885 1180.28 472.667 1180.28 472.53C1180.28 472.393 1180.36 472.257 1180.51 472.175L1247.56 435.578C1247.56 435.578 1247.85 435.496 1248 435.578L1293.83 460.586C1293.83 460.586 1294.06 460.805 1294.06 460.942C1294.06 461.078 1293.97 461.215 1293.83 461.297L1226.77 497.893C1226.77 497.893 1226.63 497.948 1226.54 497.948H1226.6ZM1181.64 472.53L1226.6 497.073L1292.79 460.969L1247.82 436.426L1181.64 472.53Z" fill="#02A894"/>
<path d="M1247.82 441.646L1283.21 460.969L1226.63 491.853L1191.24 472.53L1247.82 441.646ZM1247.82 439.732L1187.74 472.53L1226.6 493.738L1286.68 460.941L1247.82 439.732Z" fill="#003E42"/>
<path d="M1226.6 615.88L1180.77 590.872V472.529L1226.6 497.537V615.88Z" fill="#003E42"/>
<path d="M1226.6 616.291C1226.6 616.291 1226.45 616.291 1226.37 616.236L1180.51 591.228C1180.51 591.228 1180.28 591.01 1180.28 590.873V472.53C1180.28 472.393 1180.36 472.257 1180.51 472.175C1180.65 472.093 1180.8 472.093 1180.94 472.175L1226.8 497.183C1226.8 497.183 1227.03 497.401 1227.03 497.538V615.881C1227.03 616.018 1226.95 616.154 1226.8 616.236C1226.74 616.264 1226.66 616.291 1226.57 616.291H1226.6ZM1181.17 590.627L1226.14 615.17V497.784L1181.17 473.241V590.627Z" fill="#02A894"/>
<path d="M1293.65 579.285L1226.6 615.882V497.539L1293.65 460.942V579.285Z" fill="#003E42"/>
<path d="M1226.6 616.127C1226.4 616.045 1226.34 615.963 1226.34 615.881V497.538C1226.34 497.538 1226.4 497.374 1226.48 497.32L1293.54 460.724C1293.54 460.724 1293.71 460.669 1293.8 460.724C1293.88 460.778 1293.94 460.86 1293.94 460.942V579.285C1293.94 579.285 1293.88 579.449 1293.8 579.504L1226.74 616.1C1226.74 616.1 1226.66 616.127 1226.63 616.127H1226.6ZM1226.86 497.675V615.444L1293.39 579.149V461.379L1226.86 497.675Z" fill="#02A894"/>
<path d="M1231.62 700.197L1182.21 673.222L1136.67 698.066L1186.11 725.014L1231.62 700.197Z" fill="#02A894"/>
<path d="M1186.11 725.424C1186.11 725.424 1185.97 725.424 1185.88 725.369L1136.46 698.394C1136.46 698.394 1136.23 698.175 1136.23 698.038C1136.23 697.902 1136.32 697.765 1136.46 697.683L1181.98 672.839C1181.98 672.839 1182.27 672.757 1182.41 672.839L1231.83 699.815C1231.83 699.815 1232.06 700.033 1232.06 700.17C1232.06 700.307 1231.97 700.443 1231.83 700.525L1186.31 725.369C1186.31 725.369 1186.17 725.424 1186.08 725.424H1186.11ZM1137.56 698.038L1186.11 724.549L1230.76 700.17L1182.21 673.659L1137.56 698.038Z" fill="#02A894"/>
<path d="M1182.21 678.906L1221.19 700.17L1186.11 719.301L1147.14 698.038L1182.21 678.906ZM1182.21 676.993L1143.67 698.038L1186.11 721.215L1224.66 700.17L1182.21 676.993Z" fill="#003E42"/>
<path d="M948.72 604.977L899.304 578.001L874.813 591.366L924.258 618.341L948.72 604.977Z" fill="#02A894"/>
<path d="M924.26 618.752C924.26 618.752 924.115 618.752 924.028 618.697L874.612 591.721C874.612 591.721 874.381 591.503 874.381 591.366C874.381 591.229 874.468 591.093 874.612 591.011L899.075 577.646C899.075 577.646 899.364 577.564 899.508 577.646L948.924 604.621C948.924 604.621 949.156 604.84 949.156 604.977C949.156 605.113 949.069 605.25 948.924 605.332L924.462 618.697C924.462 618.697 924.318 618.752 924.231 618.752H924.26ZM875.711 591.366L924.26 617.877L947.855 605.004L899.306 578.493L875.711 591.366Z" fill="#02A894"/>
<path d="M924.258 651.766L874.813 624.79V591.364L924.258 618.34V651.766Z" fill="#003E42"/>
<path d="M924.26 652.176C924.26 652.176 924.115 652.176 924.028 652.122L874.612 625.146C874.612 625.146 874.381 624.927 874.381 624.791V591.365C874.381 591.228 874.468 591.092 874.612 591.01C874.757 590.928 874.902 590.928 875.046 591.01L924.462 617.985C924.462 617.985 924.693 618.204 924.693 618.341V651.766C924.693 651.903 924.607 652.04 924.462 652.122C924.404 652.149 924.318 652.176 924.231 652.176H924.26ZM875.278 624.545L923.826 651.056V618.587L875.278 592.076V624.545Z" fill="#02A894"/>
<path d="M948.725 638.401L924.263 651.766V618.34L948.725 604.976V638.401Z" fill="#003E42"/>
<path d="M924.264 652.013C924.062 651.931 924.004 651.849 924.004 651.767V618.341C924.004 618.341 924.062 618.177 924.12 618.123L948.582 604.758C948.582 604.758 948.756 604.703 948.842 604.758C948.929 604.812 948.958 604.894 948.958 604.976V638.402C948.958 638.402 948.9 638.566 948.842 638.621L924.38 651.986C924.38 651.986 924.293 652.013 924.235 652.013H924.264ZM924.525 618.505V651.357L948.466 638.293V605.441L924.525 618.505Z" fill="#02A894"/>
<path d="M1116.14 647.532L1066.73 620.557L1021.21 645.4L1070.63 672.376L1116.14 647.532Z" fill="#009983"/>
<path d="M1070.63 672.785C1070.63 672.785 1070.49 672.785 1070.4 672.731L1020.98 645.755C1020.98 645.755 1020.75 645.536 1020.75 645.4C1020.75 645.263 1020.84 645.126 1020.98 645.044L1066.5 620.201C1066.5 620.201 1066.78 620.119 1066.93 620.201L1116.35 647.176C1116.35 647.176 1116.58 647.395 1116.58 647.531C1116.58 647.668 1116.49 647.805 1116.35 647.887L1070.83 672.731C1070.83 672.731 1070.69 672.785 1070.6 672.785H1070.63ZM1022.08 645.4L1070.63 671.911L1115.28 647.531L1066.73 621.02L1022.08 645.4Z" fill="#02A894"/>
<path d="M1066.72 626.269L1105.7 647.532L1070.63 666.664L1031.65 645.4L1066.72 626.269ZM1066.72 624.355L1028.18 645.4L1070.63 668.577L1109.17 647.532L1066.72 624.355Z" fill="#003E42"/>
<path d="M1070.63 705.772L1021.21 678.797V645.398L1070.63 672.374V705.772Z" fill="#003E42"/>
<path d="M1070.63 706.182C1070.63 706.182 1070.49 706.182 1070.4 706.128L1020.98 679.152C1020.98 679.152 1020.75 678.933 1020.75 678.797V645.371C1020.75 645.234 1020.84 645.098 1020.98 645.016C1021.13 644.934 1021.27 644.934 1021.42 645.016L1070.83 671.991C1070.83 671.991 1071.06 672.21 1071.06 672.347V705.772C1071.06 705.909 1070.98 706.046 1070.83 706.128C1070.77 706.155 1070.69 706.182 1070.6 706.182H1070.63ZM1021.65 678.551L1070.2 705.062V672.593L1021.65 646.082V678.551Z" fill="#02A894"/>
<path d="M1103.52 680.931L1058.01 705.774V672.376L1103.52 647.532V680.931Z" fill="#003E42"/>
<path d="M1058.01 706.02C1057.81 705.938 1057.75 705.856 1057.75 705.774V672.348C1057.75 672.348 1057.81 672.184 1057.87 672.13L1103.38 647.286C1103.38 647.286 1103.55 647.231 1103.64 647.286C1103.73 647.341 1103.79 647.423 1103.79 647.505V680.93C1103.79 680.93 1103.73 681.094 1103.64 681.149L1058.13 705.993C1058.13 705.993 1058.04 706.02 1057.98 706.02H1058.01ZM1058.27 672.512V705.364L1103.27 680.821V647.969L1058.27 672.54V672.512Z" fill="#02A894"/>
<path d="M1041.01 672.018L1005.22 652.477L983.676 664.229L1019.47 683.77L1041.01 672.018Z" fill="#02A894"/>
<path d="M1019.47 684.181C1019.47 684.181 1019.33 684.181 1019.24 684.126L983.446 664.584C983.446 664.584 983.215 664.366 983.215 664.229C983.215 664.092 983.302 663.956 983.446 663.874L1004.99 652.121C1004.99 652.121 1005.28 652.039 1005.42 652.121L1041.22 671.663C1041.22 671.663 1041.45 671.882 1041.45 672.018C1041.45 672.155 1041.36 672.292 1041.22 672.374L1019.68 684.126C1019.68 684.126 1019.53 684.181 1019.45 684.181H1019.47ZM984.545 664.229L1019.47 683.279L1040.15 671.991L1005.22 652.941L984.545 664.229Z" fill="#02A894"/>
<path d="M1019.47 701.399L983.676 681.857V664.229L1019.47 683.77V701.399Z" fill="#003E42"/>
<path d="M1019.47 701.808C1019.47 701.808 1019.33 701.808 1019.24 701.754L983.446 682.212C983.446 682.212 983.215 681.993 983.215 681.857V664.201C983.215 664.064 983.302 663.928 983.446 663.846C983.591 663.764 983.735 663.764 983.88 663.846L1019.68 683.387C1019.68 683.387 1019.91 683.606 1019.91 683.743V701.398C1019.91 701.535 1019.82 701.672 1019.68 701.754C1019.62 701.781 1019.53 701.808 1019.45 701.808H1019.47ZM984.111 681.638L1019.04 700.688V683.989L984.111 664.939V681.638Z" fill="#02A894"/>
<path d="M1041.02 689.647L1019.48 701.399V683.771L1041.02 672.019V689.647Z" fill="#003E42"/>
<path d="M1019.48 701.646C1019.28 701.564 1019.22 701.482 1019.22 701.4V683.744C1019.22 683.744 1019.28 683.58 1019.33 683.526L1040.87 671.773C1040.87 671.773 1041.05 671.719 1041.14 671.773C1041.22 671.828 1041.25 671.91 1041.25 671.992V689.62C1041.25 689.62 1041.19 689.784 1041.14 689.839L1019.59 701.591C1019.59 701.591 1019.51 701.619 1019.45 701.619L1019.48 701.646ZM1019.74 683.908V700.99L1040.76 689.511V672.429L1019.74 683.908Z" fill="#02A894"/>
<g style="mix-blend-mode:multiply" opacity="0.6">
<g style="mix-blend-mode:multiply" opacity="0.6">
<path d="M1234.96 508.581L1231.02 510.74V504.071L1234.96 501.912V508.581ZM1242.73 497.676L1238.8 499.835V506.503L1242.73 504.344V497.676ZM1250.51 493.439L1246.58 495.598V502.267L1250.51 500.108V493.439ZM1258.29 489.203L1254.36 491.362V498.031L1258.29 495.872V489.203ZM1266.07 484.967L1262.14 487.126V493.795L1266.07 491.635V484.967ZM1273.85 480.73L1269.91 482.89V489.558L1273.85 487.399V480.73ZM1281.62 476.494L1277.69 478.653V485.322L1281.62 483.163V476.494ZM1289.4 472.258L1285.47 474.417V481.086L1289.4 478.927V472.258ZM1234.98 521.508L1231.05 523.667V516.999L1234.98 514.839V521.508ZM1242.76 510.603L1238.83 512.762V519.431L1242.76 517.272V510.603ZM1250.54 506.367L1246.61 508.526V515.195L1250.54 513.036V506.367ZM1258.32 502.131L1254.39 504.29V510.958L1258.32 508.799V502.131ZM1266.1 497.894L1262.16 500.053V506.722L1266.1 504.563V497.894ZM1273.88 493.658L1269.94 495.817V502.486L1273.88 500.327V493.658ZM1281.65 489.422L1277.72 491.581V498.25L1281.65 496.09V489.422ZM1289.43 485.185L1285.5 487.345V494.013L1289.43 491.854V485.185ZM1235.01 534.436L1231.08 536.595V529.926L1235.01 527.767V534.436ZM1242.79 523.531L1238.86 525.69V532.359L1242.79 530.199V523.531ZM1250.57 519.294L1246.64 521.454V528.122L1250.57 525.963V519.294ZM1258.35 515.058L1254.42 517.217V523.886L1258.35 521.727V515.058ZM1266.13 510.822L1262.19 512.981V519.65L1266.13 517.491V510.822ZM1273.9 506.585L1269.97 508.745V515.413L1273.9 513.254V506.585ZM1281.68 502.349L1277.75 504.508V511.177L1281.68 509.018V502.349ZM1289.46 498.113L1285.53 500.272V506.941L1289.46 504.782V498.113ZM1235.04 547.363L1231.11 549.522V542.854L1235.04 540.695V547.363ZM1242.82 536.458L1238.89 538.617V545.286L1242.82 543.127V536.458ZM1250.6 532.222L1246.67 534.381V541.05L1250.6 538.891V532.222ZM1258.38 527.986L1254.44 530.145V536.814L1258.38 534.654V527.986ZM1266.15 523.749L1262.22 525.908V532.577L1266.15 530.418V523.749ZM1273.93 519.513L1270 521.672V528.341L1273.93 526.182V519.513ZM1281.71 515.277L1277.78 517.436V524.105L1281.71 521.945V515.277ZM1289.49 511.04L1285.56 513.2V519.868L1289.49 517.709V511.04ZM1235.07 560.291L1231.14 562.45V555.781L1235.07 553.622V560.291ZM1242.85 549.386L1238.92 551.545V558.214L1242.85 556.055V549.386ZM1250.63 545.149L1246.7 547.309V553.977L1250.63 551.818V545.149ZM1258.41 540.913L1254.47 543.072V549.741L1258.41 547.582V540.913ZM1266.18 536.677L1262.25 538.836V545.505L1266.18 543.346V536.677ZM1273.96 532.441L1270.03 534.6V541.268L1273.96 539.109V532.441ZM1281.74 528.204L1277.81 530.363V537.032L1281.74 534.873V528.204ZM1289.52 523.968L1285.59 526.127V532.796L1289.52 530.637V523.968ZM1235.1 573.218L1231.17 575.377V568.709L1235.1 566.55V573.218ZM1242.88 562.313L1238.95 564.472V571.141L1242.88 568.982V562.313ZM1250.66 558.077L1246.72 560.236V566.905L1250.66 564.746V558.077ZM1258.43 553.841L1254.5 556V562.669L1258.43 560.509V553.841ZM1266.21 549.604L1262.28 551.764V558.432L1266.21 556.273V549.604ZM1273.99 545.368L1270.06 547.527V554.196L1273.99 552.037V545.368ZM1281.77 541.132L1277.84 543.291V549.96L1281.77 547.801V541.132ZM1289.55 536.896L1285.61 539.055V545.723L1289.55 543.564V536.896ZM1235.13 586.146L1231.2 588.305V581.636L1235.13 579.477V586.146ZM1242.91 575.241L1238.97 577.4V584.069L1242.91 581.91V575.241ZM1250.69 571.005L1246.75 573.164V579.832L1250.69 577.673V571.005ZM1258.46 566.768L1254.53 568.927V575.596L1258.46 573.437V566.768ZM1266.24 562.532L1262.31 564.691V571.36L1266.24 569.201V562.532ZM1274.02 558.296L1270.09 560.455V567.124L1274.02 564.964V558.296ZM1281.8 554.059L1277.87 556.218V562.887L1281.8 560.728V554.059ZM1289.58 549.823L1285.64 551.982V558.651L1289.58 556.492V549.823Z" fill="#001D23"/>
</g>
<g style="mix-blend-mode:multiply" opacity="0.6">
<path d="M1218.27 501.939L1222.21 504.098V510.767L1218.27 508.608V501.939ZM1210.5 504.372L1214.43 506.531V499.862L1210.5 497.703V504.372ZM1202.72 500.135L1206.65 502.295V495.626L1202.72 493.467V500.135ZM1194.94 495.899L1198.87 498.058V491.39L1194.94 489.23V495.899ZM1187.16 491.663L1191.09 493.822V487.153L1187.16 484.994V491.663ZM1218.27 514.867L1222.21 517.026V523.695L1218.27 521.536V514.867ZM1210.5 517.299L1214.43 519.458V512.79L1210.5 510.631V517.299ZM1202.72 513.063L1206.65 515.222V508.553L1202.72 506.394V513.063ZM1194.94 508.827L1198.87 510.986V504.317L1194.94 502.158V508.827ZM1187.16 504.59L1191.09 506.75V500.081L1187.16 497.922V504.59ZM1218.27 527.794L1222.21 529.954V536.622L1218.27 534.463V527.794ZM1210.5 530.227L1214.43 532.386V525.717L1210.5 523.558V530.227ZM1202.72 525.991L1206.65 528.15V521.481L1202.72 519.322V525.991ZM1194.94 521.754L1198.87 523.913V517.245L1194.94 515.086V521.754ZM1187.16 517.518L1191.09 519.677V513.008L1187.16 510.849V517.518ZM1218.27 540.722L1222.21 542.881V549.55L1218.27 547.391V540.722ZM1210.5 543.154L1214.43 545.314V538.645L1210.5 536.486V543.154ZM1202.72 538.918L1206.65 541.077V534.409L1202.72 532.249V538.918ZM1194.94 534.682L1198.87 536.841V530.172L1194.94 528.013V534.682ZM1187.16 530.446L1191.09 532.605V525.936L1187.16 523.777V530.446ZM1218.27 553.649L1222.21 555.809V562.477L1218.27 560.318V553.649ZM1210.5 556.082L1214.43 558.241V551.572L1210.5 549.413V556.082ZM1202.72 551.846L1206.65 554.005V547.336L1202.72 545.177V551.846ZM1194.94 547.609L1198.87 549.768V543.1L1194.94 540.941V547.609ZM1187.16 543.373L1191.09 545.532V538.863L1187.16 536.704V543.373ZM1218.27 566.577L1222.21 568.736V575.405L1218.27 573.246V566.577ZM1210.5 569.009L1214.43 571.169V564.5L1210.5 562.341V569.009ZM1202.72 564.773L1206.65 566.932V560.264L1202.72 558.104V564.773ZM1194.94 560.537L1198.87 562.696V556.027L1194.94 553.868V560.537ZM1187.16 556.301L1191.09 558.46V551.791L1187.16 549.632V556.301ZM1218.27 579.505L1222.21 581.664V588.332L1218.27 586.173V579.505ZM1210.5 581.937L1214.43 584.096V577.427L1210.5 575.268V581.937ZM1202.72 577.701L1206.65 579.86V573.191L1202.72 571.032V577.701ZM1194.94 573.464L1198.87 575.624V568.955L1194.94 566.796V573.464ZM1187.16 569.228L1191.09 571.387V564.719L1187.16 562.559V569.228Z" fill="#001D23"/>
</g>
</g>
<g style="mix-blend-mode:multiply" opacity="0.6">
<g style="mix-blend-mode:multiply" opacity="0.6">
<path d="M742.042 461.298L745.859 463.375V469.853L742.042 467.775V461.298ZM734.495 463.648L738.312 465.726V459.248L734.495 457.171V463.648ZM726.948 459.521L730.765 461.599V455.121L726.948 453.044V459.521ZM719.401 455.395L723.218 457.472V450.994L719.401 448.917V455.395ZM711.855 451.268L715.671 453.345V446.867L711.855 444.79V451.268ZM704.308 447.141L708.124 449.218V442.74L704.308 440.663V447.141ZM696.761 443.014L700.578 445.091V438.613L696.761 436.536V443.014ZM689.214 438.887L693.031 440.964V434.486L689.214 432.409V438.887ZM742.013 473.734L745.83 475.811V482.288L742.013 480.211V473.734ZM734.466 476.084L738.283 478.161V471.684L734.466 469.607V476.084ZM726.919 471.957L730.736 474.034V467.557L726.919 465.48V471.957ZM719.372 467.83L723.189 469.907V463.43L719.372 461.353V467.83ZM711.826 463.703L715.642 465.78V459.303L711.826 457.226V463.703ZM704.279 459.576L708.096 461.653V455.176L704.279 453.099V459.576ZM696.732 455.449L700.549 457.526V451.049L696.732 448.972V455.449ZM689.185 451.322L693.002 453.399V446.922L689.185 444.845V451.322ZM741.984 486.169L745.801 488.246V494.724L741.984 492.647V486.169ZM734.437 488.52L738.254 490.597V484.119L734.437 482.042V488.52ZM726.89 484.393L730.707 486.47V479.992L726.89 477.915V484.393ZM719.344 480.266L723.16 482.343V475.865L719.344 473.788V480.266ZM711.797 476.139L715.614 478.216V471.738L711.797 469.661V476.139ZM704.25 472.012L708.067 474.089V467.611L704.25 465.534V472.012ZM696.703 467.885L700.52 469.962V463.484L696.703 461.407V467.885ZM689.156 463.758L692.973 465.835V459.357L689.156 457.28V463.758ZM741.955 498.605L745.772 500.682V507.159L741.955 505.082V498.605ZM734.408 500.955L738.225 503.032V496.555L734.408 494.478V500.955ZM726.861 496.828L730.678 498.905V492.428L726.861 490.351V496.828ZM719.315 492.701L723.131 494.778V488.301L719.315 486.224V492.701ZM711.768 488.574L715.585 490.651V484.174L711.768 482.097V488.574ZM704.221 484.447L708.038 486.524V480.047L704.221 477.97V484.447ZM696.674 480.32L700.491 482.397V475.92L696.674 473.843V480.32ZM689.127 476.193L692.944 478.271V471.793L689.127 469.716V476.193ZM794.696 489.804L798.513 491.881V498.359L794.696 496.282V489.804ZM787.15 492.155L790.966 494.232V487.754L787.15 485.677V492.155ZM779.603 488.028L783.419 490.105V483.627L779.603 481.55V488.028ZM772.056 483.901L775.873 485.978V479.5L772.056 477.423V483.901ZM764.509 479.774L768.326 481.851V475.373L764.509 473.296V479.774ZM756.962 475.647L760.779 477.724V471.246L756.962 469.169V475.647ZM749.415 471.52L753.232 473.597V467.12L749.415 465.042V471.52ZM794.667 502.24L798.484 504.317V510.794L794.667 508.717V502.24ZM787.121 504.59L790.937 506.667V500.19L787.121 498.113V504.59ZM779.574 500.463L783.391 502.54V496.063L779.574 493.986V500.463ZM772.027 496.336L775.844 498.413V491.936L772.027 489.859V496.336ZM764.48 492.209L768.297 494.286V487.809L764.48 485.732V492.209ZM756.933 488.082L760.75 490.159V483.682L756.933 481.605V488.082ZM749.386 483.955L753.203 486.033V479.555L749.386 477.478V483.955ZM794.639 514.675L798.455 516.752V523.23L794.639 521.153V514.675ZM787.092 517.026L790.908 519.103V512.626L787.092 510.548V517.026ZM779.545 512.899L783.362 514.976V508.499L779.545 506.421V512.899ZM771.998 508.772L775.815 510.849V504.372L771.998 502.294V508.772ZM764.451 504.645L768.268 506.722V500.245L764.451 498.167V504.645ZM756.904 500.518L760.721 502.595V496.118L756.904 494.04V500.518ZM749.357 496.391L753.174 498.468V491.991L749.357 489.914V496.391ZM794.61 527.111L798.426 529.188V535.665L794.61 533.588V527.111ZM787.063 529.461L790.88 531.539V525.061L787.063 522.984V529.461ZM779.516 525.334L783.333 527.412V520.934L779.516 518.857V525.334ZM771.969 521.207L775.786 523.285V516.807L771.969 514.73V521.207ZM764.422 517.08L768.239 519.158V512.68L764.422 510.603V517.08ZM756.875 512.953L760.692 515.031V508.553L756.875 506.476V512.953ZM749.329 508.827L753.145 510.904V504.426L749.329 502.349V508.827Z" fill="#001D23"/>
</g>
<g style="mix-blend-mode:multiply" opacity="0.6">
<path d="M1288.68 685.933L1292.49 688.01V681.532L1288.68 679.455V685.933ZM1281.13 681.806L1284.95 683.883V677.405L1281.13 675.328V681.806ZM1273.58 677.679L1277.4 679.756V673.278L1273.58 671.201V677.679ZM1266.04 673.552L1269.85 675.629V669.151L1266.04 667.074V673.552ZM1258.49 669.425L1262.31 671.502V665.024L1258.49 662.947V669.425ZM1250.94 665.298L1254.76 667.375V660.897L1250.94 658.82V665.298Z" fill="#001D23"/>
</g>
<g style="mix-blend-mode:multiply" opacity="0.6">
<path d="M910.127 567.998L913.944 570.075V576.553L910.127 574.476V567.998ZM902.58 570.349L906.397 572.426V565.948L902.58 563.871V570.349ZM895.033 566.222L898.85 568.299V561.821L895.033 559.744V566.222ZM887.486 562.095L891.303 564.172V557.694L887.486 555.617V562.095ZM879.939 557.968L883.756 560.045V553.567L879.939 551.49V557.968ZM872.392 553.841L876.209 555.918V549.44L872.392 547.363V553.841ZM864.846 549.714L868.662 551.791V545.313L864.846 543.236V549.714ZM857.299 545.587L861.116 547.664V541.187L857.299 539.109V545.587ZM864.846 562.204L868.662 564.281V557.804L864.846 555.727V562.204ZM857.299 558.077L861.116 560.154V553.677L857.299 551.6V558.077ZM864.846 574.694L868.662 576.771V570.294L864.846 568.217V574.694ZM857.299 570.567L861.116 572.644V566.167L857.299 564.09V570.567ZM864.846 587.185L868.662 589.262V582.784L864.846 580.707V587.185ZM857.299 583.058L861.116 585.135V578.657L857.299 576.58V583.058ZM955.321 599.019L959.138 601.096V594.619L955.321 592.541V599.019ZM947.774 594.892L951.591 596.969V590.492L947.774 588.414V594.892ZM940.227 590.765L944.044 592.842V586.365L940.227 584.287V590.765ZM932.68 586.638L936.497 588.715V582.238L932.68 580.16V586.638ZM925.134 582.511L928.95 584.588V578.111L925.134 576.033V582.511ZM917.587 578.384L921.404 580.461V573.984L917.587 571.907V578.384ZM955.292 611.482L959.109 613.559V607.081L955.292 605.004V611.482ZM955.292 623.999L959.109 626.076V619.599L955.292 617.522V623.999ZM955.292 636.517L959.109 638.594V632.117L955.292 630.039V636.517Z" fill="#001D23"/>
</g>
<g style="mix-blend-mode:multiply" opacity="0.6">
<path d="M986.804 614.515L990.448 612.52V618.697L986.804 620.692V614.515ZM986.804 596.832L990.448 594.837V588.66L986.804 590.655V596.832ZM986.804 584.915L990.448 582.92V576.743L986.804 578.739V584.915ZM979.605 588.851L983.248 586.856V580.679L979.605 582.674V588.851ZM979.605 612.684L983.248 610.689V604.512L979.605 606.507V612.684ZM979.605 600.767L983.248 598.772V592.595L979.605 594.591V600.767ZM979.605 624.6L983.248 622.605V616.428L979.605 618.423V624.6ZM1001.18 612.82L1004.82 610.825V604.648L1001.18 606.644V612.82ZM993.975 580.98L997.619 578.985V572.808L993.975 574.803V580.98ZM993.975 592.896L997.619 590.901V584.724L993.975 586.719V592.896ZM993.975 616.729L997.619 614.734V608.557L993.975 610.552V616.729ZM993.975 604.812L997.619 602.817V596.64L993.975 598.636V604.812ZM958.063 600.576L961.706 598.581V592.404L958.063 594.399V600.576ZM1001.18 600.904L1004.82 598.909V592.732L1001.18 594.727V600.904ZM965.234 620.528L968.877 618.533V612.356L965.234 614.351V620.528ZM965.234 632.444L968.877 630.449V624.272L965.234 626.267V632.444ZM958.063 612.52L961.706 610.525V604.348L958.063 606.343V612.52ZM958.063 636.352L961.706 634.357V628.18L958.063 630.175V636.352ZM958.063 624.436L961.706 622.441V616.264L958.063 618.259V624.436ZM972.434 604.676L976.077 602.681V596.504L972.434 598.499V604.676ZM972.434 592.759L976.077 590.764V584.588L972.434 586.583V592.759ZM972.434 616.592L976.077 614.597V608.42L972.434 610.415V616.592ZM972.434 628.508L976.077 626.513V620.336L972.434 622.332V628.508ZM965.234 596.668L968.877 594.673V588.496L965.234 590.491V596.668ZM965.234 608.584L968.877 606.589V600.412L965.234 602.407V608.584ZM986.804 608.748L990.448 606.753V600.576L986.804 602.571V608.748ZM1001.18 588.988L1004.82 586.993V580.816L1001.18 582.811V588.988ZM1001.18 577.071L1004.82 575.076V568.9L1001.18 570.895V577.071ZM1008.38 573.136L1012.02 571.141V564.964L1008.38 566.959V573.136ZM1008.38 608.912L1012.02 606.917V600.74L1008.38 602.735V608.912ZM1008.38 585.079L1012.02 583.084V576.908L1008.38 578.903V585.079ZM1008.38 596.996L1012.02 595.001V588.824L1008.38 590.819V596.996Z" fill="#001D23"/>
</g>
<g style="mix-blend-mode:multiply" opacity="0.6">
<path d="M1090.06 678.715L1093.7 676.72V670.543L1090.06 672.538V678.715ZM1090.06 666.799L1093.7 664.804V658.627L1090.06 660.622V666.799ZM1082.86 670.735L1086.5 668.739V662.563L1082.86 664.558V670.735ZM1082.86 682.651L1086.5 680.656V674.479L1082.86 676.474V682.651ZM1097.23 662.891L1100.87 660.896V654.719L1097.23 656.714V662.891ZM1097.23 674.807L1100.87 672.812V666.635L1097.23 668.63V674.807ZM1061.32 682.487L1064.96 680.492V674.315L1061.32 676.31V682.487ZM1061.32 694.403L1064.96 692.408V686.231L1061.32 688.226V694.403ZM1075.69 686.559L1079.33 684.564V678.387L1075.69 680.383V686.559ZM1075.69 674.643L1079.33 672.648V666.471L1075.69 668.466V674.643ZM1068.49 678.579L1072.13 676.584V670.407L1068.49 672.402V678.579ZM1068.49 690.495L1072.13 688.5V682.323L1068.49 684.318V690.495Z" fill="#001D23"/>
</g>
<g style="mix-blend-mode:multiply" opacity="0.6">
<path d="M904.953 624.983L901.31 622.988V629.165L904.953 631.16V624.983ZM904.953 613.067L901.31 611.072V617.248L904.953 619.244V613.067ZM912.153 617.002L908.509 615.007V621.184L912.153 623.179V617.002ZM912.153 628.919L908.509 626.924V633.1L912.153 635.096V628.919ZM897.782 609.158L894.139 607.163V613.34L897.782 615.335V609.158ZM897.782 621.075L894.139 619.08V625.256L897.782 627.252V621.075ZM919.353 632.854L915.709 630.859V637.036L919.353 639.031V632.854ZM919.353 620.938L915.709 618.943V625.12L919.353 627.115V620.938ZM890.582 617.166L886.939 615.171V621.348L890.582 623.343V617.166ZM890.582 605.25L886.939 603.255V609.432L890.582 611.427V605.25ZM883.382 601.314L879.739 599.319V605.496L883.382 607.491V601.314ZM883.382 613.231L879.739 611.236V617.412L883.382 619.408V613.231Z" fill="#001D23"/>
</g>
<g style="mix-blend-mode:multiply" opacity="0.6">
<path d="M1014.27 684.838L1010.63 682.843V689.02L1014.27 691.015V684.838ZM1007.07 680.903L1003.43 678.907V685.084L1007.07 687.079V680.903ZM999.874 676.967L996.231 674.972V681.149L999.874 683.144V676.967ZM992.674 673.031L989.031 671.036V677.213L992.674 679.208V673.031Z" fill="#001D23"/>
</g>
<g style="mix-blend-mode:multiply" opacity="0.6">
<path d="M807.122 494.725L803.305 496.802V490.324L807.122 488.247V494.725ZM814.668 484.148L810.852 486.225V492.702L814.668 490.625V484.148ZM822.215 480.021L818.398 482.098V488.575L822.215 486.498V480.021ZM829.762 475.894L825.945 477.971V484.448L829.762 482.371V475.894ZM837.309 471.767L833.492 473.844V480.321L837.309 478.244V471.767ZM844.856 467.64L841.039 469.717V476.194L844.856 474.117V467.64ZM852.403 463.513L848.586 465.59V472.067L852.403 469.99V463.513ZM807.15 507.188L803.334 509.265V502.787L807.15 500.71V507.188ZM814.697 496.61L810.881 498.688V505.165L814.697 503.088V496.61ZM822.244 492.484L818.427 494.561V501.038L822.244 498.961V492.484ZM829.791 488.357L825.974 490.434V496.911L829.791 494.834V488.357ZM837.338 484.23L833.521 486.307V492.784L837.338 490.707V484.23ZM844.885 480.103L841.068 482.18V488.657L844.885 486.58V480.103ZM852.432 475.976L848.615 478.053V484.53L852.432 482.453V475.976ZM807.179 519.65L803.363 521.728V515.25L807.179 513.173V519.65ZM814.726 509.073L810.909 511.151V517.628L814.726 515.551V509.073ZM822.273 504.946L818.456 507.024V513.501L822.273 511.424V504.946ZM829.82 500.819L826.003 502.897V509.374L829.82 507.297V500.819ZM837.367 496.692L833.55 498.77V505.247L837.367 503.17V496.692ZM844.914 492.566L841.097 494.643V501.12L844.914 499.043V492.566ZM852.46 488.439L848.644 490.516V496.993L852.46 494.916V488.439ZM807.208 532.113L803.392 534.191V527.713L807.208 525.636V532.113ZM814.755 521.536L810.938 523.613V530.091L814.755 528.014V521.536ZM822.302 517.409L818.485 519.486V525.964L822.302 523.887V517.409ZM829.849 513.282L826.032 515.359V521.837L829.849 519.76V513.282ZM837.396 509.155L833.579 511.233V517.71L837.396 515.633V509.155ZM844.943 505.028L841.126 507.106V513.583L844.943 511.506V505.028ZM852.489 500.901L848.673 502.979V509.456L852.489 507.379V500.901Z" fill="#001D23"/>
</g>
<g style="mix-blend-mode:multiply" opacity="0.6">
<path d="M1152.38 184.709L1157.18 182.085V476.849L1152.38 479.473V184.709ZM1162.87 473.761L1167.67 471.137V176.373L1162.87 178.997V473.761ZM1173.37 468.022L1178.17 465.398V170.634L1173.37 173.257V468.022ZM1183.87 462.282L1188.67 459.658V164.894L1183.87 167.518V462.282ZM1194.36 456.543L1199.16 453.919V159.182L1194.36 161.806V456.57V456.543ZM1204.86 156.039V450.803L1209.66 448.179V153.442L1204.86 156.066V156.039Z" fill="#001D23"/>
</g>
<g style="mix-blend-mode:multiply" opacity="0.6">
<path d="M1155.55 583.604L1150.75 580.98V182.113L1155.55 184.736V583.604ZM1145.05 178.997L1140.25 176.373V575.241L1145.05 577.865V178.997ZM1134.56 173.257L1129.76 170.634V569.529L1134.56 572.153V173.257ZM1124.06 167.518L1119.26 164.894V563.789L1124.06 566.413V167.518ZM1113.56 161.778L1108.76 159.155V558.05L1113.56 560.674V161.778ZM1098.27 153.415V552.31L1103.07 554.934V156.066L1098.27 153.442V153.415Z" fill="#001D23"/>
</g>
<g style="mix-blend-mode:multiply" opacity="0.6">
<path d="M1156.51 491.581L1152.58 493.74V487.071L1156.51 484.912V491.581ZM1164.29 480.676L1160.36 482.835V489.504L1164.29 487.345V480.676ZM1172.07 476.439L1168.14 478.599V485.267L1172.07 483.108V476.439ZM1156.51 504.481L1152.58 506.64V499.971L1156.51 497.812V504.481ZM1164.29 493.576L1160.36 495.735V502.404L1164.29 500.245V493.576ZM1172.07 489.34L1168.14 491.499V498.168L1172.07 496.008V489.34ZM1156.51 517.381L1152.58 519.54V512.872L1156.51 510.712V517.381ZM1164.29 506.476L1160.36 508.635V515.304L1164.29 513.145V506.476ZM1172.07 502.24L1168.14 504.399V511.068L1172.07 508.909V502.24ZM1156.51 530.281L1152.58 532.441V525.772L1156.51 523.613V530.281ZM1164.29 519.376L1160.36 521.536V528.204L1164.29 526.045V519.376ZM1172.07 515.14L1168.14 517.299V523.968L1172.07 521.809V515.14ZM1156.51 543.182L1152.58 545.341V538.672L1156.51 536.513V543.182ZM1164.29 532.277L1160.36 534.436V541.104L1164.29 538.945V532.277ZM1172.07 528.04L1168.14 530.199V536.868L1172.07 534.709V528.04ZM1156.51 556.082L1152.58 558.241V551.572L1156.51 549.413V556.082ZM1164.29 545.177L1160.36 547.336V554.005L1164.29 551.846V545.177ZM1172.07 540.94L1168.14 543.1V549.768L1172.07 547.609V540.94ZM1156.51 568.982L1152.58 571.141V564.472L1156.51 562.313V568.982ZM1164.29 558.077L1160.36 560.236V566.905L1164.29 564.746V558.077ZM1172.07 553.841L1168.14 556V562.669L1172.07 560.509V553.841ZM1156.51 581.91L1152.58 584.069V577.4L1156.51 575.241V581.91ZM1164.29 571.005L1160.36 573.164V579.832L1164.29 577.673V571.005ZM1172.07 566.768L1168.14 568.927V575.596L1172.07 573.437V566.768Z" fill="#001D23"/>
</g>
</g>
<path d="M1119.03 570.594L1125.1 567.287C1126.61 566.467 1127.82 566.959 1127.82 568.38V576.333C1127.82 577.754 1129.03 578.219 1130.54 577.426L1138.95 572.835C1140.46 572.015 1141.67 572.507 1141.67 573.928V579.667C1141.67 581.089 1140.46 582.893 1138.95 583.712L1130.54 588.304C1129.03 589.124 1127.82 590.928 1127.82 592.349V600.248C1127.82 601.669 1126.61 603.473 1125.1 604.293L1116.31 609.076V574.693C1116.31 573.272 1117.53 571.468 1119.03 570.648V570.594Z" fill="#006058"/>
<path d="M1146.85 541.431L1155.64 536.648V528.339C1155.64 526.918 1154.43 526.453 1152.93 527.246L1146.85 530.553C1145.35 531.373 1144.14 533.177 1144.14 534.598V540.338C1144.14 541.759 1145.35 542.223 1146.85 541.431Z" fill="white"/>
<path d="M1177.88 610.988L1186.67 606.206V597.897C1186.67 596.476 1185.46 596.011 1183.95 596.804L1177.88 600.111C1176.38 600.931 1175.16 602.735 1175.16 604.156V609.895C1175.16 611.316 1176.38 611.781 1177.88 610.988Z" fill="#48CA2D"/>
<path d="M1146.64 594.673L1155.43 589.89V598.198C1155.43 599.619 1154.22 601.423 1152.71 602.243L1146.64 605.55C1145.14 606.37 1143.92 605.878 1143.92 604.457V598.718C1143.92 597.296 1145.14 595.492 1146.64 594.673Z" fill="#00C8B5"/>
<path d="M1118.25 660.95L1127.04 656.167V647.859C1127.04 646.438 1125.83 645.973 1124.32 646.766L1118.25 650.073C1116.75 650.893 1115.53 652.696 1115.53 654.118V659.857C1115.53 661.278 1116.75 661.743 1118.25 660.95Z" fill="white"/>
<path d="M1132.82 606.533L1141.61 601.75V593.442C1141.61 592.021 1140.4 591.556 1138.9 592.349L1132.82 595.656C1131.32 596.476 1130.1 598.279 1130.1 599.701V605.44C1130.1 606.861 1131.32 607.326 1132.82 606.533Z" fill="#48CA2D"/>
<path d="M1146.88 600.165L1155.26 595.573C1156.77 594.753 1157.98 592.95 1157.98 591.528V583.575C1157.98 582.154 1159.2 580.35 1160.7 579.53L1166.77 576.223C1168.28 575.403 1169.49 575.895 1169.49 577.316V596.12C1169.49 597.541 1168.28 599.345 1166.8 600.165L1158.39 604.757C1156.88 605.576 1155.67 607.38 1155.67 608.774V616.728C1155.67 618.149 1154.46 619.953 1152.95 620.772L1144.16 625.555V604.183C1144.16 602.761 1145.38 600.958 1146.88 600.138V600.165Z" fill="white"/>
<path d="M1132.82 545.64L1138.9 542.332C1140.4 541.513 1141.61 542.005 1141.61 543.426V551.379C1141.61 552.8 1142.83 553.265 1144.33 552.472L1166.54 540.337C1168.04 539.517 1169.26 540.009 1169.26 541.431V549.739L1158.15 555.807C1156.65 556.627 1155.43 558.43 1155.43 559.852V567.805C1155.43 569.226 1154.22 571.03 1152.72 571.85L1146.64 575.157C1145.14 575.977 1143.93 575.485 1143.93 574.064V566.11C1143.93 564.689 1142.71 564.225 1141.21 565.017L1132.82 569.609C1131.32 570.429 1130.1 569.937 1130.1 568.543V549.712C1130.1 548.291 1131.32 546.487 1132.82 545.667V545.64Z" fill="#00C8B5"/>
<path d="M1171.81 575.322V553.949L1180.6 549.166C1182.11 548.346 1183.32 548.838 1183.32 550.26V558.213C1183.32 559.634 1184.53 560.099 1186.04 559.306L1194.45 554.715C1195.96 553.895 1197.17 554.387 1197.17 555.808V574.612C1197.17 576.033 1195.96 577.837 1194.45 578.657L1188.38 581.964C1186.88 582.783 1185.66 582.292 1185.66 580.87V572.917C1185.66 571.496 1184.45 571.031 1182.94 571.824L1174.56 576.415C1173.05 577.235 1171.84 576.743 1171.84 575.349L1171.81 575.322Z" fill="#00C8B5"/>
<path d="M1157.99 527.055C1157.99 525.633 1159.2 523.83 1160.71 523.01L1166.78 519.703C1168.28 518.883 1169.5 519.375 1169.5 520.796V528.749C1169.5 530.17 1170.71 530.635 1172.21 529.842L1194.42 517.707C1195.93 516.888 1197.14 517.379 1197.14 518.801V537.604V540.173L1188.35 544.956C1186.85 545.776 1185.63 545.284 1185.63 543.863V535.91C1185.63 534.489 1184.42 534.024 1182.91 534.817L1160.71 546.952C1159.2 547.771 1157.99 547.28 1157.99 545.858V527.055Z" fill="#006058"/>
<path d="M1160.68 520.824L1180.57 509.973C1182.07 509.153 1183.29 507.35 1183.29 505.928V500.189C1183.29 498.768 1182.07 498.303 1180.57 499.096L1157.96 511.422V519.731C1157.96 521.152 1159.17 521.616 1160.68 520.824Z" fill="#48CA2D"/>
<path d="M1130.31 644.907L1130.14 620.09C1130.14 618.232 1131.3 616.045 1132.77 615.253L1138.76 611.918C1140.23 611.099 1141.45 611.946 1141.45 613.804L1141.65 641.982L1133 646.793C1131.53 647.613 1130.31 646.765 1130.31 644.907Z" fill="#48CA2D"/>
<path d="M1240.32 210.833V202.525L1249.11 197.742C1250.61 196.922 1251.83 197.414 1251.83 198.835V204.574C1251.83 205.996 1250.61 207.799 1249.11 208.619L1243.04 211.926C1241.53 212.746 1240.32 212.254 1240.32 210.833Z" fill="white"/>
<path d="M1209.18 252.105V243.796L1200.39 248.579C1198.89 249.399 1197.67 251.203 1197.67 252.624V258.363C1197.67 259.784 1198.89 260.249 1200.39 259.457L1206.46 256.149C1207.97 255.33 1209.18 253.526 1209.18 252.105Z" fill="#48CA2D"/>
<path d="M1211.49 285.223V276.914L1220.28 272.131C1221.79 271.311 1223 271.803 1223 273.225V278.964C1223 280.385 1221.79 282.189 1220.28 283.009L1214.21 286.316C1212.71 287.136 1211.49 286.644 1211.49 285.223Z" fill="#006058"/>
<path d="M1194.26 328.52V320.211L1203.05 315.428C1204.55 314.608 1205.77 315.1 1205.77 316.521V322.261C1205.77 323.682 1204.55 325.486 1203.05 326.306L1196.98 329.613C1195.47 330.433 1194.26 329.941 1194.26 328.52Z" fill="#006058"/>
<path d="M1251.83 274.705V283.014L1243.04 287.797C1241.53 288.616 1240.32 288.124 1240.32 286.703V280.964C1240.32 279.543 1241.53 277.739 1243.04 276.919L1249.11 273.612C1250.61 272.792 1251.83 273.284 1251.83 274.705Z" fill="#48CA2D"/>
<path d="M1251.83 404.91V413.219L1243.04 418.002C1241.53 418.821 1240.32 418.33 1240.32 416.908V411.169C1240.32 409.748 1241.53 407.944 1243.04 407.124L1249.11 403.817C1250.61 402.997 1251.83 403.489 1251.83 404.91Z" fill="white"/>
<path d="M1249.78 140.429V148.737L1240.99 153.52C1239.48 154.34 1238.27 153.848 1238.27 152.427V146.687C1238.27 145.266 1239.48 143.462 1240.99 142.642L1247.06 139.335C1248.56 138.515 1249.78 139.007 1249.78 140.429Z" fill="#006058"/>
<path d="M1244.02 229.172V237.48L1235.23 242.263C1233.73 243.083 1232.51 242.591 1232.51 241.17V235.431C1232.51 234.009 1233.73 232.206 1235.23 231.386L1241.3 228.079C1242.81 227.259 1244.02 227.751 1244.02 229.172Z" fill="#006058"/>
<path d="M1254.14 190.226V171.423C1254.14 170.002 1255.35 168.198 1256.86 167.378L1262.93 164.071C1264.43 163.251 1265.65 163.743 1265.65 165.164V186.537L1256.86 191.32C1255.35 192.14 1254.14 191.648 1254.14 190.226Z" fill="#006058"/>
<path d="M1254.51 159.943L1262.93 155.351C1264.43 154.531 1265.65 152.728 1265.65 151.306V145.567C1265.65 144.146 1264.43 143.681 1262.93 144.474L1243.04 155.324C1241.53 156.144 1240.32 157.948 1240.32 159.369V178.173C1240.32 179.594 1241.53 180.059 1243.04 179.266L1251.83 174.483V163.988C1251.83 162.567 1253.04 160.763 1254.54 159.97L1254.51 159.943Z" fill="#48CA2D"/>
<path d="M1198.07 396.492L1206.49 391.9C1207.99 391.08 1209.21 389.276 1209.21 387.855V382.116C1209.21 380.694 1207.99 380.23 1206.49 381.022L1186.6 391.873C1185.09 392.693 1183.88 394.497 1183.88 395.918V414.722C1183.88 416.143 1185.09 416.607 1186.6 415.815L1195.39 411.032V400.537C1195.39 399.116 1196.6 397.312 1198.1 396.519L1198.07 396.492Z" fill="#48CA2D"/>
<path d="M1209.18 221.738V213.812C1209.18 212.391 1210.39 210.587 1211.9 209.767L1220.31 205.176C1221.82 204.356 1223.03 202.552 1223.03 201.131V195.391C1223.03 193.97 1221.82 193.505 1220.31 194.298L1200.42 205.148C1198.91 205.968 1197.7 207.772 1197.7 209.193V217.147C1197.7 218.568 1196.49 220.372 1194.98 221.164L1186.57 225.756C1185.06 226.576 1183.85 228.38 1183.85 229.801V238.109L1206.46 225.783C1207.97 224.963 1209.18 223.159 1209.18 221.738Z" fill="#006058"/>
<path d="M1209.18 278.23V259.427C1209.18 258.005 1207.97 257.541 1206.49 258.333L1198.08 262.925C1196.57 263.745 1195.36 263.253 1195.36 261.832V253.878C1195.36 252.457 1194.14 251.993 1192.64 252.785L1183.85 257.568V278.941C1183.85 280.362 1185.06 280.827 1186.57 280.034L1194.98 275.442C1196.49 274.623 1197.7 275.115 1197.7 276.536V284.462C1197.7 285.883 1198.91 286.348 1200.42 285.555L1206.49 282.248C1207.99 281.428 1209.21 279.624 1209.21 278.203L1209.18 278.23Z" fill="#006058"/>
<path d="M1265.64 209.221C1265.64 207.8 1264.43 207.335 1262.93 208.128L1256.85 211.435C1255.35 212.255 1254.14 214.059 1254.14 215.48V223.406C1254.14 224.827 1252.92 226.631 1251.42 227.451L1243 232.043C1241.5 232.862 1240.29 234.666 1240.29 236.087V241.827C1240.29 243.248 1241.5 243.713 1243 242.92L1251.42 238.329C1252.92 237.509 1254.14 238.001 1254.14 239.422V260.412C1254.14 261.833 1255.35 262.298 1256.85 261.505L1265.64 256.722V209.221Z" fill="#00C8B5"/>
<path d="M1214.18 193.178L1236.79 180.824V172.515C1236.79 171.094 1235.58 170.63 1234.08 171.422L1225.66 176.014C1224.16 176.834 1222.94 176.342 1222.94 174.921V166.967C1222.94 165.546 1221.73 165.081 1220.23 165.874L1200.33 176.724C1198.83 177.544 1197.61 179.348 1197.61 180.742V186.482C1197.61 187.903 1198.83 188.367 1200.33 187.575L1208.75 182.983C1210.25 182.163 1211.46 182.655 1211.46 184.076V192.03C1211.46 193.451 1212.65 193.943 1214.15 193.123L1214.18 193.178Z" fill="#00C8B5"/>
<path d="M1236.82 200.831C1236.82 199.409 1235.61 198.945 1234.11 199.737L1228.03 203.044C1226.53 203.864 1225.32 205.668 1225.32 207.089V215.043C1225.32 216.464 1224.1 218.268 1222.6 219.088L1214.18 223.679C1212.68 224.499 1211.47 226.303 1211.47 227.724V246.528C1211.47 247.949 1212.68 248.414 1214.18 247.621L1222.97 242.838V232.343C1222.97 230.922 1224.19 229.118 1225.69 228.325L1234.08 223.761C1235.58 222.941 1236.8 221.137 1236.8 219.716V200.885L1236.82 200.831Z" fill="#48CA2D"/>
<path d="M1233.44 348.035V340.109C1233.44 338.688 1234.65 336.884 1236.16 336.064L1244.57 331.472C1246.08 330.653 1247.29 328.849 1247.29 327.427V321.688C1247.29 320.267 1246.08 319.802 1244.57 320.595L1224.68 331.445C1223.17 332.265 1221.96 334.069 1221.96 335.49V343.443C1221.96 344.865 1220.75 346.668 1219.24 347.461L1210.83 352.053C1209.32 352.873 1208.11 354.676 1208.11 356.098V364.406L1230.72 352.08C1232.23 351.26 1233.44 349.456 1233.44 348.035Z" fill="#00C8B5"/>
<path d="M1238.44 319.474L1261.05 307.12V298.811C1261.05 297.39 1259.84 296.925 1258.33 297.718L1249.92 302.31C1248.42 303.13 1247.2 302.638 1247.2 301.216V293.263C1247.2 291.842 1245.99 291.377 1244.48 292.17L1224.59 303.02C1223.09 303.84 1221.87 305.644 1221.87 307.038V312.777C1221.87 314.199 1223.09 314.663 1224.59 313.871L1233 309.279C1234.51 308.459 1235.72 308.951 1235.72 310.372V318.326C1235.72 319.747 1236.91 320.239 1238.41 319.419L1238.44 319.474Z" fill="white"/>
<path d="M1261.06 327.126C1261.06 325.705 1259.84 325.241 1258.34 326.033L1252.27 329.34C1250.76 330.16 1249.55 331.964 1249.55 333.385V341.339C1249.55 342.76 1248.33 344.564 1246.83 345.384L1238.42 349.975C1236.91 350.795 1235.7 352.599 1235.7 354.02V372.824C1235.7 374.245 1236.91 374.71 1238.42 373.917L1247.21 369.134V358.639C1247.21 357.218 1248.42 355.414 1249.92 354.621L1258.31 350.057C1259.81 349.237 1261.03 347.433 1261.03 346.012V327.181L1261.06 327.126Z" fill="#006058"/>
<path d="M976.127 434.412L970.054 437.719C968.551 438.539 967.336 440.343 967.336 441.764V449.717C967.336 451.139 966.122 452.942 964.618 453.762L956.204 458.354C954.7 459.174 953.486 460.978 953.486 462.399V468.139C953.486 469.56 954.7 470.024 956.204 469.232L964.618 464.64C966.122 463.82 967.336 464.312 967.336 465.733V473.632C967.336 475.053 968.551 475.518 970.054 474.725L978.845 469.942V435.56C978.845 434.139 977.63 433.674 976.127 434.467V434.412Z" fill="#006058"/>
<path d="M936.143 551.907V546.168C936.143 544.747 934.928 544.282 933.425 545.075L925.01 549.666C923.507 550.486 922.292 549.994 922.292 548.573V540.62C922.292 539.198 921.078 538.734 919.574 539.526L913.502 542.833C911.998 543.653 910.784 545.457 910.784 546.878V554.832C910.784 556.253 909.57 558.057 908.066 558.877L899.71 563.441C898.206 564.261 896.992 566.065 896.992 567.486V575.795L910.755 568.279L914.688 566.119L933.338 555.925C934.841 555.105 936.056 553.301 936.056 551.88L936.143 551.907Z" fill="#48CA2D"/>
<path d="M952.908 434.66L944.118 439.443V431.135C944.118 429.713 945.332 427.91 946.836 427.09L952.908 423.783C954.412 422.963 955.626 423.455 955.626 424.876V430.615C955.626 432.037 954.412 433.84 952.908 434.66Z" fill="white"/>
<path d="M961.128 492.981L952.338 497.764V506.073C952.338 507.494 953.552 507.959 955.056 507.166L961.128 503.859C962.632 503.039 963.846 501.235 963.846 499.814V494.075C963.846 492.653 962.632 492.189 961.128 492.981Z" fill="#48CA2D"/>
<path d="M976.13 501.837L967.34 506.62V498.311C967.34 496.89 968.555 495.086 970.058 494.266L976.13 490.959C977.634 490.139 978.848 490.631 978.848 492.053V497.792C978.848 499.213 977.634 501.017 976.13 501.837Z" fill="white"/>
<path d="M933.481 433.646L913.588 444.496C912.084 445.316 910.87 444.824 910.87 443.403V437.663C910.87 436.242 912.084 434.438 913.588 433.618L936.199 421.292V429.601C936.199 431.022 934.985 432.826 933.481 433.646Z" fill="#006058"/>
<path d="M908.558 508.943V527.747C908.558 529.168 907.344 530.972 905.84 531.792L899.768 535.099C898.264 535.919 897.05 535.427 897.05 534.006V512.633L905.84 507.85C907.344 507.03 908.558 507.522 908.558 508.943Z" fill="#006058"/>
<path d="M947.303 504.87L938.918 509.462C937.414 510.282 936.2 509.79 936.2 508.369V500.416C936.2 498.994 934.985 498.53 933.482 499.322L927.41 502.629C925.906 503.449 924.692 505.253 924.692 506.674V525.478C924.692 526.899 925.906 527.364 927.381 526.571L935.795 521.98C937.299 521.16 938.513 521.652 938.513 523.073V531.026C938.513 532.447 939.727 532.912 941.231 532.119L950.021 527.336V505.964C950.021 504.542 948.807 504.078 947.303 504.87Z" fill="white"/>
<path d="M927.41 480.929C925.906 481.749 924.692 483.553 924.692 484.947V490.686C924.692 492.107 925.906 492.572 927.41 491.779L935.824 487.188C937.327 486.368 938.542 486.86 938.542 488.281V496.234C938.542 497.655 939.756 498.12 941.26 497.327L961.154 486.477C962.657 485.657 963.872 483.853 963.872 482.432V474.124L952.768 480.191C951.265 481.011 950.05 480.519 950.05 479.098V471.144C950.05 469.723 948.865 469.231 947.361 470.051L927.439 480.929H927.41Z" fill="#48CA2D"/>
<path d="M936.17 448.214C936.17 446.793 934.956 446.328 933.452 447.121L927.38 450.428C925.877 451.248 924.662 453.052 924.662 454.473V462.426C924.662 463.848 923.448 465.651 921.944 466.471L899.737 478.606C898.234 479.426 897.019 481.23 897.019 482.651V501.455V504.024L905.809 499.241C907.313 498.421 908.528 496.617 908.528 495.224V487.27C908.528 485.849 909.742 484.045 911.246 483.225L933.452 471.09C934.956 470.27 936.17 468.467 936.17 467.045V448.242V448.214Z" fill="#00C8B5"/>
</g>
</svg>
