<svg width="978" height="381" viewBox="0 0 978 381" fill="none" xmlns="http://www.w3.org/2000/svg">
<path d="M698 100.315H918C951.137 100.315 978 127.178 978 160.315V320.315C978 353.453 951.137 380.315 918 380.315H758C724.863 380.315 698 353.453 698 320.315V100.315Z" fill="#001D23"/>
<path opacity="0.08" d="M920 240.315L756 240.315" stroke="white" stroke-width="1.5"/>
<g clip-path="url(#clip0_830_8420)">
<path d="M887.637 209.482L887.04 204.815L891.706 206.093" stroke="white" stroke-width="2" stroke-miterlimit="10" stroke-linecap="square"/>
<path d="M888.206 205.369C889.873 208.611 892.559 211.19 895.833 212.697C899.108 214.203 902.784 214.549 906.274 213.68C909.765 212.811 912.869 210.776 915.092 207.901C917.315 205.026 918.528 201.475 918.539 197.815" stroke="white" stroke-width="2" stroke-miterlimit="10"/>
<path d="M916.775 186.149L917.372 190.816L912.706 189.538" stroke="white" stroke-width="2" stroke-miterlimit="10" stroke-linecap="square"/>
<path d="M916.206 190.262C914.538 187.02 911.853 184.44 908.579 182.934C905.304 181.428 901.628 181.082 898.138 181.951C894.647 182.82 891.543 184.854 889.32 187.73C887.097 190.605 885.884 194.156 885.873 197.815" stroke="white" stroke-width="2" stroke-miterlimit="10"/>
<path d="M902.849 198.777C902.658 198.904 902.435 198.972 902.206 198.972C901.899 198.972 901.605 198.85 901.388 198.633C901.171 198.416 901.049 198.122 901.049 197.815C901.049 197.586 901.117 197.363 901.244 197.173C901.371 196.982 901.552 196.834 901.763 196.747C901.975 196.659 902.207 196.636 902.432 196.681C902.656 196.725 902.862 196.836 903.024 196.997L903.856 196.165L903.024 196.997C903.186 197.159 903.296 197.365 903.341 197.59C903.385 197.814 903.362 198.047 903.275 198.258C903.187 198.469 903.039 198.65 902.849 198.777Z" stroke="#00CC8F" stroke-width="2.35305" stroke-miterlimit="10" stroke-linecap="square"/>
<path d="M909.258 197.837C909.261 197.345 909.204 196.855 909.089 196.376L911.495 194.656L909.713 191.698L906.933 192.825C906.18 192.159 905.286 191.661 904.313 191.363L903.948 188.482H900.384L900.018 191.363C899.045 191.661 898.151 192.159 897.399 192.825L894.654 191.664L892.872 194.613L895.269 196.333C895.055 197.296 895.055 198.292 895.269 199.256L892.872 200.976L894.654 203.933L897.434 202.798C898.187 203.466 899.081 203.968 900.054 204.269L900.419 207.149H903.983L904.349 204.269C905.322 203.968 906.216 203.466 906.968 202.798L909.757 203.933L911.539 200.976L909.142 199.256C909.249 198.776 909.303 198.286 909.303 197.794L909.258 197.837Z" stroke="white" stroke-width="2" stroke-miterlimit="10" stroke-linecap="square"/>
</g>
<g clip-path="url(#clip1_830_8420)">
<path d="M775.625 207.478L778.133 206.345L783.506 203.933L785.858 199.439" stroke="#00CC8F" stroke-width="2.35305" stroke-miterlimit="10"/>
<path d="M787.829 198.961C788.605 197.992 788.731 196.804 788.111 196.309C787.491 195.813 786.361 196.197 785.585 197.165C784.81 198.134 784.684 199.322 785.304 199.818C785.923 200.313 787.054 199.93 787.829 198.961Z" stroke="#00CC8F" stroke-width="2.35305" stroke-miterlimit="10" stroke-linecap="square"/>
<path d="M786.676 190.426L784.177 189.285L778.812 186.855L773.883 188.066" stroke="#00CC8F" stroke-width="2.35305" stroke-miterlimit="10"/>
<path d="M772.345 189.84C773.584 189.781 774.558 189.09 774.52 188.298C774.482 187.505 773.447 186.91 772.207 186.97C770.968 187.029 769.994 187.72 770.032 188.512C770.07 189.305 771.105 189.9 772.345 189.84Z" stroke="#00CC8F" stroke-width="2.35305" stroke-miterlimit="10" stroke-linecap="square"/>
<path d="M764.713 190.949V193.701V199.588L767.848 203.576" stroke="#00CC8F" stroke-width="2.35305" stroke-miterlimit="10"/>
<path d="M769.829 206.91C770.535 206.548 770.649 205.36 770.083 204.255C769.518 203.151 768.486 202.549 767.78 202.91C767.074 203.272 766.96 204.461 767.525 205.565C768.091 206.67 769.122 207.272 769.829 206.91Z" stroke="#00CC8F" stroke-width="2.35305" stroke-miterlimit="10" stroke-linecap="square"/>
<path d="M759.871 188.362L775.625 195.451L791.387 188.362" stroke="white" stroke-width="2" stroke-miterlimit="10"/>
<path d="M775.634 195.451V214.366" stroke="white" stroke-width="2" stroke-miterlimit="10"/>
<path d="M791.387 207.268L775.625 214.366L759.871 207.268V188.362L775.625 181.273L791.387 188.362V207.268Z" stroke="white" stroke-width="2" stroke-miterlimit="10" stroke-linecap="square"/>
</g>
<g clip-path="url(#clip2_830_8420)">
<path d="M853.568 214.394L850.002 210.829" stroke="white" stroke-width="2" stroke-miterlimit="10"/>
<path d="M829.507 196.823H834.317L836.723 192.236L839.929 201.411L842.335 196.823H847.145" stroke="#00CC8F" stroke-width="2" stroke-miterlimit="10"/>
<path d="M838.482 211.652C846.813 211.652 853.567 204.898 853.567 196.567C853.567 188.236 846.813 181.482 838.482 181.482C830.151 181.482 823.398 188.236 823.398 196.567C823.398 204.898 830.151 211.652 838.482 211.652Z" stroke="white" stroke-width="2" stroke-miterlimit="10"/>
</g>
<path d="M778.178 269.915V271.499H780.434V278.315H782.09V271.499H784.358V269.915H778.178ZM788.306 272.147C787.49 272.147 786.89 272.423 786.518 272.987V269.915H784.97V278.315H786.518V275.075C786.518 274.079 787.034 273.587 787.838 273.587C788.558 273.587 789.026 274.019 789.026 274.823V278.315H790.574V274.631C790.574 273.851 790.358 273.251 789.926 272.807C789.506 272.363 788.966 272.147 788.306 272.147ZM792.424 271.595C792.952 271.595 793.384 271.163 793.384 270.647C793.384 270.131 792.952 269.687 792.424 269.687C791.908 269.687 791.476 270.131 791.476 270.647C791.476 271.163 791.908 271.595 792.424 271.595ZM793.204 278.315V272.315H791.656V278.315H793.204ZM795.929 272.315H794.381V278.315H795.929V275.447C795.929 274.871 796.109 274.463 796.481 274.211C796.853 273.959 797.285 273.863 797.753 273.923V272.195C796.937 272.195 796.217 272.579 795.929 273.347V272.315ZM802.744 273.023C802.288 272.435 801.64 272.147 800.8 272.147C799.996 272.147 799.3 272.459 798.724 273.071C798.16 273.683 797.872 274.427 797.872 275.315C797.872 276.203 798.16 276.959 798.724 277.571C799.3 278.183 799.996 278.483 800.8 278.483C801.64 278.483 802.288 278.195 802.744 277.607V278.315H804.292V269.915H802.744V273.023ZM799.888 276.539C799.576 276.215 799.42 275.807 799.42 275.315C799.42 274.823 799.576 274.415 799.888 274.103C800.212 273.779 800.608 273.623 801.088 273.623C801.568 273.623 801.964 273.779 802.276 274.103C802.588 274.415 802.744 274.823 802.744 275.315C802.744 275.807 802.588 276.215 802.276 276.539C801.964 276.851 801.568 277.007 801.088 277.007C800.608 277.007 800.212 276.851 799.888 276.539ZM810.039 275.435V273.947H805.539V275.435H810.039ZM811.358 269.915V278.315H813.014V275.555H814.49C815.294 275.555 815.978 275.279 816.53 274.739C817.082 274.199 817.358 273.527 817.358 272.735C817.358 271.943 817.082 271.271 816.53 270.731C815.978 270.191 815.294 269.915 814.49 269.915H811.358ZM813.014 274.007V271.463H814.49C815.198 271.463 815.714 272.003 815.714 272.735C815.714 273.455 815.198 274.007 814.49 274.007H813.014ZM822.286 273.023C821.818 272.435 821.17 272.147 820.33 272.147C819.526 272.147 818.842 272.459 818.266 273.071C817.702 273.683 817.414 274.427 817.414 275.315C817.414 276.203 817.702 276.959 818.266 277.571C818.842 278.183 819.526 278.483 820.33 278.483C821.17 278.483 821.818 278.195 822.286 277.607V278.315H823.834V272.315H822.286V273.023ZM819.43 276.539C819.118 276.215 818.962 275.807 818.962 275.315C818.962 274.823 819.118 274.415 819.43 274.103C819.742 273.779 820.138 273.623 820.618 273.623C821.098 273.623 821.494 273.779 821.806 274.103C822.13 274.415 822.286 274.823 822.286 275.315C822.286 275.807 822.13 276.215 821.806 276.539C821.494 276.851 821.098 277.007 820.618 277.007C820.138 277.007 819.742 276.851 819.43 276.539ZM826.545 272.315H824.997V278.315H826.545V275.447C826.545 274.871 826.725 274.463 827.097 274.211C827.469 273.959 827.901 273.863 828.369 273.923V272.195C827.553 272.195 826.833 272.579 826.545 273.347V272.315ZM832.631 272.315H831.275V270.635L829.727 271.103V272.315H828.683V273.803H829.727V276.299C829.727 277.943 830.507 278.555 832.631 278.315V276.911C831.743 276.959 831.275 276.947 831.275 276.299V273.803H832.631V272.315ZM836.191 276.347L834.631 272.315H832.939L835.399 278.123C835.111 278.939 834.655 279.287 833.827 279.275V280.715C835.363 280.799 836.371 280.043 836.995 278.315L839.179 272.315H837.523L836.191 276.347ZM849.708 278.315L846.756 269.915H844.704L841.764 278.315H843.552L844.056 276.803H847.404L847.908 278.315H849.708ZM845.736 271.823L846.888 275.255H844.584L845.736 271.823ZM853.703 272.147C852.863 272.147 852.215 272.435 851.759 273.023V272.315H850.211V280.715H851.759V277.607C852.215 278.195 852.863 278.483 853.703 278.483C854.507 278.483 855.203 278.183 855.767 277.571C856.343 276.959 856.631 276.203 856.631 275.315C856.631 274.427 856.343 273.683 855.767 273.071C855.203 272.459 854.507 272.147 853.703 272.147ZM852.227 276.539C851.915 276.215 851.759 275.807 851.759 275.315C851.759 274.823 851.915 274.415 852.227 274.103C852.539 273.779 852.935 273.623 853.415 273.623C853.895 273.623 854.291 273.779 854.603 274.103C854.927 274.415 855.083 274.823 855.083 275.315C855.083 275.807 854.927 276.215 854.603 276.539C854.291 276.851 853.895 277.007 853.415 277.007C852.935 277.007 852.539 276.851 852.227 276.539ZM860.975 272.147C860.135 272.147 859.487 272.435 859.031 273.023V272.315H857.483V280.715H859.031V277.607C859.487 278.195 860.135 278.483 860.975 278.483C861.779 278.483 862.475 278.183 863.039 277.571C863.615 276.959 863.903 276.203 863.903 275.315C863.903 274.427 863.615 273.683 863.039 273.071C862.475 272.459 861.779 272.147 860.975 272.147ZM859.499 276.539C859.187 276.215 859.031 275.807 859.031 275.315C859.031 274.823 859.187 274.415 859.499 274.103C859.811 273.779 860.207 273.623 860.687 273.623C861.167 273.623 861.563 273.779 861.875 274.103C862.199 274.415 862.355 274.823 862.355 275.315C862.355 275.807 862.199 276.215 861.875 276.539C861.563 276.851 861.167 277.007 860.687 277.007C860.207 277.007 859.811 276.851 859.499 276.539ZM866.303 278.315V269.555H864.755V278.315H866.303ZM868.248 271.595C868.776 271.595 869.208 271.163 869.208 270.647C869.208 270.131 868.776 269.687 868.248 269.687C867.732 269.687 867.3 270.131 867.3 270.647C867.3 271.163 867.732 271.595 868.248 271.595ZM869.028 278.315V272.315H867.48V278.315H869.028ZM873.06 278.483C874.224 278.483 875.244 277.871 875.772 276.923L874.428 276.155C874.188 276.647 873.672 276.947 873.048 276.947C872.58 276.947 872.196 276.791 871.896 276.491C871.596 276.179 871.44 275.783 871.44 275.315C871.44 274.355 872.124 273.671 873.048 273.671C873.66 273.671 874.176 273.983 874.416 274.475L875.748 273.695C875.256 272.747 874.224 272.147 873.06 272.147C872.16 272.147 871.404 272.447 870.792 273.059C870.192 273.671 869.892 274.415 869.892 275.315C869.892 276.215 870.192 276.959 870.792 277.571C871.404 278.183 872.16 278.483 873.06 278.483ZM880.817 273.023C880.349 272.435 879.701 272.147 878.861 272.147C878.057 272.147 877.373 272.459 876.797 273.071C876.233 273.683 875.945 274.427 875.945 275.315C875.945 276.203 876.233 276.959 876.797 277.571C877.373 278.183 878.057 278.483 878.861 278.483C879.701 278.483 880.349 278.195 880.817 277.607V278.315H882.365V272.315H880.817V273.023ZM877.961 276.539C877.649 276.215 877.493 275.807 877.493 275.315C877.493 274.823 877.649 274.415 877.961 274.103C878.273 273.779 878.669 273.623 879.149 273.623C879.629 273.623 880.025 273.779 880.337 274.103C880.661 274.415 880.817 274.823 880.817 275.315C880.817 275.807 880.661 276.215 880.337 276.539C880.025 276.851 879.629 277.007 879.149 277.007C878.669 277.007 878.273 276.851 877.961 276.539ZM886.961 272.315H885.605V270.635L884.057 271.103V272.315H883.013V273.803H884.057V276.299C884.057 277.943 884.837 278.555 886.961 278.315V276.911C886.073 276.959 885.605 276.947 885.605 276.299V273.803H886.961V272.315ZM888.581 271.595C889.109 271.595 889.541 271.163 889.541 270.647C889.541 270.131 889.109 269.687 888.581 269.687C888.065 269.687 887.633 270.131 887.633 270.647C887.633 271.163 888.065 271.595 888.581 271.595ZM889.361 278.315V272.315H887.813V278.315H889.361ZM895.649 277.571C896.261 276.959 896.573 276.203 896.573 275.315C896.573 274.427 896.261 273.683 895.649 273.071C895.037 272.459 894.281 272.147 893.393 272.147C892.505 272.147 891.749 272.459 891.137 273.071C890.525 273.683 890.225 274.427 890.225 275.315C890.225 276.203 890.525 276.959 891.137 277.571C891.749 278.183 892.505 278.483 893.393 278.483C894.281 278.483 895.037 278.183 895.649 277.571ZM892.229 276.503C891.929 276.191 891.773 275.795 891.773 275.315C891.773 274.835 891.929 274.439 892.229 274.127C892.541 273.815 892.925 273.659 893.393 273.659C893.861 273.659 894.245 273.815 894.557 274.127C894.869 274.439 895.025 274.835 895.025 275.315C895.025 275.795 894.869 276.191 894.557 276.503C894.245 276.815 893.861 276.971 893.393 276.971C892.925 276.971 892.541 276.815 892.229 276.503ZM900.758 272.147C899.942 272.147 899.342 272.423 898.97 272.987V272.315H897.422V278.315H898.97V275.075C898.97 274.079 899.486 273.587 900.29 273.587C901.01 273.587 901.478 274.019 901.478 274.823V278.315H903.026V274.631C903.026 273.851 902.81 273.251 902.378 272.807C901.958 272.363 901.418 272.147 900.758 272.147ZM905.536 274.019C905.536 273.719 905.836 273.527 906.232 273.527C906.676 273.527 907 273.731 907.192 274.139L908.512 273.419C908.044 272.603 907.204 272.147 906.232 272.147C905.584 272.147 905.044 272.315 904.6 272.663C904.168 272.999 903.952 273.467 903.952 274.055C903.952 275.303 905.068 275.675 905.956 275.903C906.568 276.059 907.048 276.239 907.048 276.563C907.048 276.911 906.772 277.079 906.22 277.079C905.608 277.079 905.224 276.815 905.044 276.299L903.7 277.055C904.144 278.003 904.984 278.483 906.22 278.483C906.904 278.483 907.48 278.315 907.936 277.991C908.404 277.655 908.632 277.175 908.632 276.563C908.644 275.279 907.504 274.859 906.628 274.679C906.016 274.523 905.536 274.343 905.536 274.019Z" fill="#00C8B5"/>
<path d="M787.25 156.959C787.778 156.539 788.042 155.975 788.042 155.279C788.042 154.595 787.79 154.031 787.298 153.587C786.806 153.143 786.206 152.915 785.486 152.915H782.174V161.315H785.738C786.47 161.315 787.094 161.087 787.598 160.631C788.102 160.175 788.354 159.587 788.354 158.879C788.354 158.027 787.982 157.379 787.25 156.959ZM785.486 154.463C786.014 154.463 786.386 154.859 786.386 155.387C786.386 155.915 786.002 156.311 785.486 156.311H783.83V154.463H785.486ZM783.83 159.767V157.787H785.738C786.302 157.787 786.71 158.207 786.71 158.771C786.71 159.347 786.302 159.767 785.738 159.767H783.83ZM790.676 155.315H789.128V161.315H790.676V158.447C790.676 157.871 790.856 157.463 791.228 157.211C791.6 156.959 792.032 156.863 792.5 156.923V155.195C791.684 155.195 790.964 155.579 790.676 156.347V155.315ZM797.502 156.023C797.034 155.435 796.386 155.147 795.546 155.147C794.742 155.147 794.058 155.459 793.482 156.071C792.918 156.683 792.63 157.427 792.63 158.315C792.63 159.203 792.918 159.959 793.482 160.571C794.058 161.183 794.742 161.483 795.546 161.483C796.386 161.483 797.034 161.195 797.502 160.607V161.315H799.05V155.315H797.502V156.023ZM794.646 159.539C794.334 159.215 794.178 158.807 794.178 158.315C794.178 157.823 794.334 157.415 794.646 157.103C794.958 156.779 795.354 156.623 795.834 156.623C796.314 156.623 796.71 156.779 797.022 157.103C797.346 157.415 797.502 157.823 797.502 158.315C797.502 158.807 797.346 159.215 797.022 159.539C796.71 159.851 796.314 160.007 795.834 160.007C795.354 160.007 794.958 159.851 794.646 159.539ZM803.07 161.483C804.234 161.483 805.254 160.871 805.782 159.923L804.438 159.155C804.198 159.647 803.682 159.947 803.058 159.947C802.59 159.947 802.206 159.791 801.906 159.491C801.606 159.179 801.45 158.783 801.45 158.315C801.45 157.355 802.134 156.671 803.058 156.671C803.67 156.671 804.186 156.983 804.426 157.475L805.758 156.695C805.266 155.747 804.234 155.147 803.07 155.147C802.17 155.147 801.414 155.447 800.802 156.059C800.202 156.671 799.902 157.415 799.902 158.315C799.902 159.215 800.202 159.959 800.802 160.571C801.414 161.183 802.17 161.483 803.07 161.483ZM809.793 155.315H808.437V153.635L806.889 154.103V155.315H805.845V156.803H806.889V159.299C806.889 160.943 807.669 161.555 809.793 161.315V159.911C808.905 159.959 808.437 159.947 808.437 159.299V156.803H809.793V155.315ZM812.192 161.315V152.555H810.644V161.315H812.192ZM819.201 158.951C819.237 158.723 819.261 158.519 819.261 158.315C819.261 157.415 818.973 156.671 818.397 156.059C817.833 155.447 817.101 155.147 816.225 155.147C815.301 155.147 814.533 155.447 813.945 156.059C813.357 156.659 813.057 157.415 813.057 158.315C813.057 159.227 813.357 159.983 813.957 160.583C814.557 161.183 815.349 161.483 816.345 161.483C817.497 161.483 818.373 161.051 818.961 160.199L817.713 159.479C817.413 159.875 816.957 160.079 816.369 160.079C815.445 160.079 814.881 159.707 814.677 158.951H819.201ZM814.653 157.751C814.833 156.983 815.397 156.539 816.225 156.539C816.933 156.539 817.533 156.935 817.713 157.751H814.653ZM823.358 155.315H822.002V153.635L820.454 154.103V155.315H819.41V156.803H820.454V159.299C820.454 160.943 821.234 161.555 823.358 161.315V159.911C822.47 159.959 822.002 159.947 822.002 159.299V156.803H823.358V155.315ZM834.335 161.315L831.383 152.915H829.331L826.391 161.315H828.179L828.683 159.803H832.031L832.535 161.315H834.335ZM830.363 154.823L831.515 158.255H829.211L830.363 154.823ZM838.331 155.147C837.491 155.147 836.843 155.435 836.387 156.023V155.315H834.839V163.715H836.387V160.607C836.843 161.195 837.491 161.483 838.331 161.483C839.135 161.483 839.831 161.183 840.395 160.571C840.971 159.959 841.259 159.203 841.259 158.315C841.259 157.427 840.971 156.683 840.395 156.071C839.831 155.459 839.135 155.147 838.331 155.147ZM836.855 159.539C836.543 159.215 836.387 158.807 836.387 158.315C836.387 157.823 836.543 157.415 836.855 157.103C837.167 156.779 837.563 156.623 838.043 156.623C838.523 156.623 838.919 156.779 839.231 157.103C839.555 157.415 839.711 157.823 839.711 158.315C839.711 158.807 839.555 159.215 839.231 159.539C838.919 159.851 838.523 160.007 838.043 160.007C837.563 160.007 837.167 159.851 836.855 159.539ZM845.603 155.147C844.763 155.147 844.115 155.435 843.659 156.023V155.315H842.111V163.715H843.659V160.607C844.115 161.195 844.763 161.483 845.603 161.483C846.407 161.483 847.103 161.183 847.667 160.571C848.243 159.959 848.531 159.203 848.531 158.315C848.531 157.427 848.243 156.683 847.667 156.071C847.103 155.459 846.407 155.147 845.603 155.147ZM844.127 159.539C843.815 159.215 843.659 158.807 843.659 158.315C843.659 157.823 843.815 157.415 844.127 157.103C844.439 156.779 844.835 156.623 845.315 156.623C845.795 156.623 846.191 156.779 846.503 157.103C846.827 157.415 846.983 157.823 846.983 158.315C846.983 158.807 846.827 159.215 846.503 159.539C846.191 159.851 845.795 160.007 845.315 160.007C844.835 160.007 844.439 159.851 844.127 159.539ZM850.93 161.315V152.555H849.382V161.315H850.93ZM852.875 154.595C853.403 154.595 853.835 154.163 853.835 153.647C853.835 153.131 853.403 152.687 852.875 152.687C852.359 152.687 851.927 153.131 851.927 153.647C851.927 154.163 852.359 154.595 852.875 154.595ZM853.655 161.315V155.315H852.107V161.315H853.655ZM857.688 161.483C858.852 161.483 859.872 160.871 860.4 159.923L859.056 159.155C858.816 159.647 858.3 159.947 857.676 159.947C857.208 159.947 856.824 159.791 856.524 159.491C856.224 159.179 856.068 158.783 856.068 158.315C856.068 157.355 856.752 156.671 857.676 156.671C858.288 156.671 858.804 156.983 859.044 157.475L860.376 156.695C859.884 155.747 858.852 155.147 857.688 155.147C856.788 155.147 856.032 155.447 855.42 156.059C854.82 156.671 854.52 157.415 854.52 158.315C854.52 159.215 854.82 159.959 855.42 160.571C856.032 161.183 856.788 161.483 857.688 161.483ZM865.445 156.023C864.977 155.435 864.329 155.147 863.489 155.147C862.685 155.147 862.001 155.459 861.425 156.071C860.861 156.683 860.573 157.427 860.573 158.315C860.573 159.203 860.861 159.959 861.425 160.571C862.001 161.183 862.685 161.483 863.489 161.483C864.329 161.483 864.977 161.195 865.445 160.607V161.315H866.993V155.315H865.445V156.023ZM862.589 159.539C862.277 159.215 862.121 158.807 862.121 158.315C862.121 157.823 862.277 157.415 862.589 157.103C862.901 156.779 863.297 156.623 863.777 156.623C864.257 156.623 864.653 156.779 864.965 157.103C865.289 157.415 865.445 157.823 865.445 158.315C865.445 158.807 865.289 159.215 864.965 159.539C864.653 159.851 864.257 160.007 863.777 160.007C863.297 160.007 862.901 159.851 862.589 159.539ZM871.589 155.315H870.233V153.635L868.685 154.103V155.315H867.641V156.803H868.685V159.299C868.685 160.943 869.465 161.555 871.589 161.315V159.911C870.701 159.959 870.233 159.947 870.233 159.299V156.803H871.589V155.315ZM873.208 154.595C873.736 154.595 874.168 154.163 874.168 153.647C874.168 153.131 873.736 152.687 873.208 152.687C872.692 152.687 872.26 153.131 872.26 153.647C872.26 154.163 872.692 154.595 873.208 154.595ZM873.988 161.315V155.315H872.44V161.315H873.988ZM880.277 160.571C880.889 159.959 881.201 159.203 881.201 158.315C881.201 157.427 880.889 156.683 880.277 156.071C879.665 155.459 878.909 155.147 878.021 155.147C877.133 155.147 876.377 155.459 875.765 156.071C875.153 156.683 874.853 157.427 874.853 158.315C874.853 159.203 875.153 159.959 875.765 160.571C876.377 161.183 877.133 161.483 878.021 161.483C878.909 161.483 879.665 161.183 880.277 160.571ZM876.857 159.503C876.557 159.191 876.401 158.795 876.401 158.315C876.401 157.835 876.557 157.439 876.857 157.127C877.169 156.815 877.553 156.659 878.021 156.659C878.489 156.659 878.873 156.815 879.185 157.127C879.497 157.439 879.653 157.835 879.653 158.315C879.653 158.795 879.497 159.191 879.185 159.503C878.873 159.815 878.489 159.971 878.021 159.971C877.553 159.971 877.169 159.815 876.857 159.503ZM885.386 155.147C884.57 155.147 883.97 155.423 883.598 155.987V155.315H882.05V161.315H883.598V158.075C883.598 157.079 884.114 156.587 884.918 156.587C885.638 156.587 886.106 157.019 886.106 157.823V161.315H887.654V157.631C887.654 156.851 887.438 156.251 887.006 155.807C886.586 155.363 886.046 155.147 885.386 155.147ZM890.164 157.019C890.164 156.719 890.464 156.527 890.86 156.527C891.304 156.527 891.628 156.731 891.82 157.139L893.14 156.419C892.672 155.603 891.832 155.147 890.86 155.147C890.212 155.147 889.672 155.315 889.228 155.663C888.796 155.999 888.58 156.467 888.58 157.055C888.58 158.303 889.696 158.675 890.584 158.903C891.196 159.059 891.676 159.239 891.676 159.563C891.676 159.911 891.4 160.079 890.848 160.079C890.236 160.079 889.852 159.815 889.672 159.299L888.328 160.055C888.772 161.003 889.612 161.483 890.848 161.483C891.532 161.483 892.108 161.315 892.564 160.991C893.032 160.655 893.26 160.175 893.26 159.563C893.272 158.279 892.132 157.859 891.256 157.679C890.644 157.523 890.164 157.343 890.164 157.019Z" fill="#00CC8F"/>
<g clip-path="url(#clip3_830_8420)">
<path d="M908.969 313.94H898.031V321.597H908.969V313.94Z" stroke="white" stroke-width="2" stroke-miterlimit="10" stroke-linecap="square"/>
<path d="M900.219 313.94V310.659C900.219 309.789 900.564 308.954 901.18 308.339C901.795 307.724 902.63 307.378 903.5 307.378V307.378C904.37 307.378 905.205 307.724 905.82 308.339C906.436 308.954 906.781 309.789 906.781 310.659V313.94" stroke="white" stroke-width="2" stroke-miterlimit="10" stroke-linecap="square"/>
<path d="M916.625 317.222C916.625 320.703 915.242 324.041 912.781 326.502C910.319 328.964 906.981 330.347 903.5 330.347C900.019 330.347 896.681 328.964 894.219 326.502C891.758 324.041 890.375 320.703 890.375 317.222V301.909L903.5 298.628L916.625 301.909V317.222Z" stroke="white" stroke-width="2" stroke-miterlimit="10" stroke-linecap="square"/>
</g>
<path d="M838.5 309.347V311.898" stroke="white" stroke-width="2" stroke-miterlimit="10" stroke-linecap="square"/>
<path d="M844.333 308.253V305.701L838.499 302.054L832.666 305.748V308.253" stroke="white" stroke-width="2" stroke-miterlimit="10" stroke-linecap="square"/>
<path d="M832.666 305.701L838.499 309.347L844.333 305.701" stroke="white" stroke-width="2" stroke-miterlimit="10"/>
<path d="M828.291 315.727V322.289L822.458 318.644V312.129L828.291 308.435L834.125 312.081L828.291 315.727ZM828.291 315.727L822.458 312.129" stroke="white" stroke-width="2" stroke-miterlimit="10"/>
<path d="M848.708 315.727V322.289L854.542 318.644V312.081L848.708 308.435L842.875 312.129L848.708 315.727ZM848.708 315.727L854.542 312.081" stroke="white" stroke-width="2" stroke-miterlimit="10"/>
<path d="M838.5 322.107V328.669" stroke="white" stroke-width="2" stroke-miterlimit="10"/>
<path d="M844.333 318.461L838.499 314.814L832.666 318.508V325.024L838.499 328.669L844.333 325.024V318.461Z" stroke="white" stroke-width="2" stroke-miterlimit="10"/>
<path d="M832.666 318.461L838.499 322.107L844.333 318.461" stroke="white" stroke-width="2" stroke-miterlimit="10"/>
<path d="M838.5 322.107V328.669" stroke="white" stroke-width="2" stroke-miterlimit="10"/>
<path d="M786.625 314.815V306.065H780.062H765.844H760.375C758.563 306.065 757.094 304.597 757.094 302.784V325.753C757.094 328.169 759.053 330.128 761.469 330.128H786.625V321.378" stroke="white" stroke-width="2" stroke-miterlimit="10" stroke-linecap="square"/>
<path d="M789.906 321.378H782.25C780.438 321.378 778.969 319.909 778.969 318.097C778.969 316.284 780.438 314.815 782.25 314.815H789.906V321.378Z" stroke="white" stroke-width="2" stroke-miterlimit="10" stroke-linecap="square"/>
<path d="M780.062 301.69V299.503H760.375C758.563 299.503 757.094 300.972 757.094 302.784C757.094 304.597 758.563 306.065 760.375 306.065" stroke="white" stroke-width="2" stroke-miterlimit="10" stroke-linecap="square"/>
<circle cx="838" cy="110.315" r="30" fill="#00CC8F"/>
<path d="M851.852 116.991L844.842 112.944V107.688L851.852 103.641L852.769 105.231L846.678 108.748V111.884L852.769 115.401L851.852 116.991Z" fill="white"/>
<path d="M824.917 116.991L824 115.401L830.091 111.884V108.748L824 105.231L824.917 103.641L831.927 107.688V112.944L824.917 116.991Z" fill="white"/>
<path d="M843.948 106.038L839.397 103.409V95.3154H841.233V102.349L843.948 103.915L850.04 100.398L850.957 101.988L843.948 106.038Z" fill="white"/>
<path d="M837.518 125.315H835.682V118.281L832.962 116.713L826.875 120.23L825.962 118.64L832.972 114.593L837.518 117.225V125.315Z" fill="white"/>
<path d="M832.962 106.038L825.962 101.99L826.88 100.4L832.962 103.915L835.682 102.349V95.3154H837.518V103.409L832.962 106.038Z" fill="white"/>
<path d="M841.233 125.315H839.397V117.225L843.948 114.593L850.958 118.64L850.041 120.23L843.948 116.713L841.233 118.281V125.315Z" fill="white"/>
<path d="M349 100.315H569C602.137 100.315 629 127.178 629 160.315V320.315C629 353.453 602.137 380.315 569 380.315H409C375.863 380.315 349 353.453 349 320.315V100.315Z" fill="#006058"/>
<path d="M401 92.3154C401 85.688 406.373 80.3154 413 80.3154H565C571.627 80.3154 577 85.688 577 92.3154V140.315H413C406.373 140.315 401 134.943 401 128.315V92.3154Z" fill="#003E42"/>
<g clip-path="url(#clip4_830_8420)">
<path d="M477 99.6489V120.982C477 123.249 482.333 124.982 489 124.982C495.667 124.982 501 123.249 501 120.982V99.6489" stroke="#00C8B5" stroke-width="2" stroke-miterlimit="10" stroke-linecap="round" stroke-linejoin="round"/>
<path d="M489 103.649C495.627 103.649 501 101.858 501 99.6489C501 97.4398 495.627 95.6489 489 95.6489C482.373 95.6489 477 97.4398 477 99.6489C477 101.858 482.373 103.649 489 103.649Z" stroke="#00C8B5" stroke-width="2" stroke-miterlimit="10" stroke-linecap="round" stroke-linejoin="round"/>
<path d="M501 110.315C501 112.582 495.667 114.315 489 114.315C482.333 114.315 477 112.582 477 110.315" stroke="#00C8B5" stroke-width="2" stroke-miterlimit="10" stroke-linecap="round" stroke-linejoin="round"/>
</g>
<path d="M545.455 107.132C545.053 107.135 544.653 107.176 544.259 107.253C543.678 105.523 542.568 104.019 541.086 102.954C539.604 101.889 537.825 101.315 536 101.315C534.175 101.315 532.396 101.889 530.914 102.954C529.432 104.019 528.322 105.523 527.741 107.253C527.347 107.176 526.947 107.135 526.545 107.132C524.809 107.132 523.145 107.822 521.917 109.049C520.69 110.277 520 111.942 520 113.678C520 115.414 520.69 117.078 521.917 118.306C523.145 119.533 524.809 120.223 526.545 120.223H545.455C547.191 120.223 548.855 119.533 550.083 118.306C551.31 117.078 552 115.414 552 113.678C552 111.942 551.31 110.277 550.083 109.049C548.855 107.822 547.191 107.132 545.455 107.132V107.132Z" stroke="#00C8B5" stroke-width="2" stroke-miterlimit="10" stroke-linecap="round" stroke-linejoin="round"/>
<g clip-path="url(#clip5_830_8420)">
<path d="M453.5 95.3154H431V125.315H453.5V95.3154Z" stroke="#00C8B5" stroke-width="2" stroke-miterlimit="10" stroke-linecap="round" stroke-linejoin="round"/>
<path d="M436 100.315H438.5" stroke="#00C8B5" stroke-width="2" stroke-miterlimit="10" stroke-linecap="square"/>
<path d="M446 100.315H448.5" stroke="#00C8B5" stroke-width="2" stroke-miterlimit="10" stroke-linecap="square"/>
<path d="M436 105.315H438.5" stroke="#00C8B5" stroke-width="2" stroke-miterlimit="10" stroke-linecap="square"/>
<path d="M446 105.315H448.5" stroke="#00C8B5" stroke-width="2" stroke-miterlimit="10" stroke-linecap="square"/>
<path d="M436 110.315H438.5" stroke="#00C8B5" stroke-width="2" stroke-miterlimit="10" stroke-linecap="square"/>
<path d="M446 110.315H448.5" stroke="#00C8B5" stroke-width="2" stroke-miterlimit="10" stroke-linecap="square"/>
<path d="M436 115.315H438.5" stroke="#00C8B5" stroke-width="2" stroke-miterlimit="10" stroke-linecap="square"/>
<path d="M446 115.315H448.5" stroke="#00C8B5" stroke-width="2" stroke-miterlimit="10" stroke-linecap="square"/>
<path d="M442.25 125.315V120.315" stroke="#00C8B5" stroke-width="2" stroke-miterlimit="10" stroke-linecap="square"/>
</g>
<circle cx="488.709" cy="240.607" r="70.2916" fill="#48CA2D" fill-opacity="0.14"/>
<circle cx="488.708" cy="240.607" r="58.1984" fill="#48CA2D"/>
<path d="M483.16 210.515L481.708 206.315H480.004L482.284 212.315H484.048L486.328 206.315H484.624L483.16 210.515ZM487.842 205.595C488.37 205.595 488.802 205.163 488.802 204.647C488.802 204.131 488.37 203.687 487.842 203.687C487.326 203.687 486.894 204.131 486.894 204.647C486.894 205.163 487.326 205.595 487.842 205.595ZM488.622 212.315V206.315H487.074V212.315H488.622ZM494.599 207.023C494.131 206.435 493.483 206.147 492.643 206.147C491.839 206.147 491.155 206.459 490.579 207.071C490.015 207.683 489.727 208.427 489.727 209.315C489.727 210.203 490.015 210.959 490.579 211.571C491.155 212.183 491.839 212.483 492.643 212.483C493.483 212.483 494.131 212.195 494.599 211.607V212.315H496.147V206.315H494.599V207.023ZM491.743 210.539C491.431 210.215 491.275 209.807 491.275 209.315C491.275 208.823 491.431 208.415 491.743 208.103C492.055 207.779 492.451 207.623 492.931 207.623C493.411 207.623 493.807 207.779 494.119 208.103C494.443 208.415 494.599 208.823 494.599 209.315C494.599 209.807 494.443 210.215 494.119 210.539C493.807 210.851 493.411 211.007 492.931 211.007C492.451 211.007 492.055 210.851 491.743 210.539ZM485.475 242.315L478.095 221.315H472.965L465.615 242.315H470.085L471.345 238.535H479.715L480.975 242.315H485.475ZM475.545 226.085L478.425 234.665H472.665L475.545 226.085ZM487.514 221.315V242.315H491.654V235.415H495.344C497.354 235.415 499.064 234.725 500.444 233.375C501.824 232.025 502.514 230.345 502.514 228.365C502.514 226.385 501.824 224.705 500.444 223.355C499.064 222.005 497.354 221.315 495.344 221.315H487.514ZM491.654 231.545V225.185H495.344C497.114 225.185 498.404 226.535 498.404 228.365C498.404 230.165 497.114 231.545 495.344 231.545H491.654ZM505.209 242.315H509.349V221.315H505.209V242.315Z" fill="white"/>
<path d="M488.456 268.925V254.716" stroke="white" stroke-width="2.35305" stroke-miterlimit="10" stroke-linecap="square"/>
<path d="M472.86 265.577L478.984 259.452V254.716" stroke="white" stroke-width="2.35305" stroke-miterlimit="10" stroke-linecap="square"/>
<path d="M504.055 265.577L497.93 259.452V254.716" stroke="white" stroke-width="2.35305" stroke-miterlimit="10" stroke-linecap="square"/>
<path d="M469.511 273.662C472.127 273.662 474.247 271.541 474.247 268.925C474.247 266.31 472.127 264.189 469.511 264.189C466.895 264.189 464.774 266.31 464.774 268.925C464.774 271.541 466.895 273.662 469.511 273.662Z" stroke="white" stroke-width="2.35305" stroke-miterlimit="10" stroke-linecap="square"/>
<path d="M507.402 273.662C510.018 273.662 512.139 271.541 512.139 268.925C512.139 266.31 510.018 264.189 507.402 264.189C504.786 264.189 502.666 266.31 502.666 268.925C502.666 271.541 504.786 273.662 507.402 273.662Z" stroke="white" stroke-width="2.35305" stroke-miterlimit="10" stroke-linecap="square"/>
<path d="M488.456 278.398C491.072 278.398 493.192 276.277 493.192 273.661C493.192 271.045 491.072 268.925 488.456 268.925C485.84 268.925 483.719 271.045 483.719 273.661C483.719 276.277 485.84 278.398 488.456 278.398Z" stroke="white" stroke-width="2.35305" stroke-miterlimit="10" stroke-linecap="square"/>
<path d="M0 100.315H220C253.137 100.315 280 127.178 280 160.315V320.315C280 353.453 253.137 380.315 220 380.315H60C26.8629 380.315 0 353.453 0 320.315V100.315Z" fill="#00C8B5"/>
<path fill-rule="evenodd" clip-rule="evenodd" d="M67.2168 95.4298L140.332 123.794L213.447 95.5575L140.14 67.3154L67.2168 95.4298Z" fill="#88CCCA"/>
<path fill-rule="evenodd" clip-rule="evenodd" d="M67.2168 318.327L140.332 346.692L213.447 318.455L140.14 290.213L67.2168 318.327Z" fill="#88CCCA"/>
<path d="M196.965 198.554L213.445 192.174L213.445 204.943C208.632 203.074 196.965 198.554 196.965 198.554Z" fill="#D5F2F1"/>
<path d="M149.223 92.6033L162.2 87.4658V320.385L149.223 325.628L149.223 92.6033Z" fill="#00C8B5"/>
<path d="M149.224 91.9381V325.524L136.913 320.614L136.913 87.6938L149.224 91.9381Z" fill="#006058"/>
<path d="M136.913 87.7516L149.863 82.6211L162.201 87.4728L149.224 92.6032L136.913 87.7516Z" fill="#429A97"/>
<path d="M130.59 99.9236L143.567 94.7861V327.525L130.59 332.767V99.9236Z" fill="#00C8B5"/>
<path d="M130.591 99.867L130.591 332.597L118.28 327.687L118.28 95.1582L130.591 99.867Z" fill="#006058"/>
<path d="M118.28 95.0719L131.23 89.9414L143.568 94.7931L130.591 99.9235L118.28 95.0719Z" fill="#429A97"/>
<path fill-rule="evenodd" clip-rule="evenodd" d="M67.2129 205.573L140.328 233.938L213.443 205.701L140.136 177.459L67.2129 205.573Z" fill="#88CCCA"/>
<path fill-rule="evenodd" clip-rule="evenodd" d="M67 262.903L140.115 291.267L213.16 263.094L139.923 234.789L67 262.903Z" fill="#88CCCA"/>
<path fill-rule="evenodd" clip-rule="evenodd" d="M67.2129 204.754L140.328 233.119L213.443 204.882L140.136 176.64L67.2129 204.754Z" fill="#88CCCA"/>
<path fill-rule="evenodd" clip-rule="evenodd" d="M67 262.084L140.115 290.448L213.16 262.285L139.923 233.97L67 262.084Z" fill="#88CCCA"/>
<path fill-rule="evenodd" clip-rule="evenodd" d="M67 318.175L140.115 346.539L213.16 318.376L139.923 290.061L67 318.175Z" fill="#006058"/>
<path d="M100.438 247.148L83.1795 252.811V268.431L100.438 261.736V247.148Z" fill="#006058"/>
<path d="M115 252.542L97.7418 258.205V273.825L115 267.129V252.542Z" fill="#006058"/>
<path d="M169.205 252.002L125.249 268.721V284.341L169.205 266.59V252.002Z" fill="#006058"/>
<path d="M133.339 250.689L116.08 256.352L116.35 272.263L133.339 265.277V250.689Z" fill="#006058"/>
<path d="M109.069 251.229L116.619 253.656L116.35 272.306L109.069 269.609V251.229Z" fill="#4FA5A2"/>
<path d="M148.976 208.056L147.358 207.273L147.627 223.183L148.976 222.644V208.056Z" fill="#02B5A6"/>
<path d="M146.281 204.263L147.899 204.576L147.629 223.183L146.281 222.601L146.281 204.263Z" fill="#012C28"/>
<path d="M122.011 199.427L120.393 198.644L120.663 214.554L122.011 214.015V199.427Z" fill="#02B5A6"/>
<path d="M119.315 195.634L120.933 195.947L120.663 214.554L119.315 213.971L119.315 195.634Z" fill="#012C28"/>
<path d="M98.8196 191.38L97.2016 190.597L97.4712 206.507L98.8196 205.968V191.38Z" fill="#02B5A6"/>
<path d="M96.123 187.587L97.741 187.9L97.4714 206.507L96.1231 205.924L96.123 187.587Z" fill="#012C28"/>
<path d="M170.015 248.488L186.195 254.195L185.925 272.845L170.015 266.869V248.488Z" fill="#4FA5A2"/>
<path d="M187.272 241.52L203.452 247.226L203.182 265.877L187.272 259.901V241.52Z" fill="#006058"/>
<path d="M164.078 202.166L162.46 201.383L162.73 217.293L164.078 216.754V202.166Z" fill="#02B5A6"/>
<path d="M161.384 198.373L163.002 198.686L162.732 217.293L161.384 216.71L161.384 198.373Z" fill="#012C28"/>
<path d="M137.111 251.246L135.493 250.463L135.763 266.373L137.111 265.834V251.246Z" fill="#02B5A6"/>
<path d="M134.414 247.453L136.032 247.766L135.763 266.373L134.414 265.79L134.414 247.453Z" fill="#012C28"/>
<path d="M113.922 242.078L112.304 241.294L112.574 257.205L113.922 256.665V242.078Z" fill="#02B5A6"/>
<path d="M111.226 238.285L112.844 238.598L112.574 257.205L111.226 256.622L111.226 238.285Z" fill="#012C28"/>
<path d="M175.945 197.312L174.327 196.529L174.597 212.439L175.945 211.9V197.312Z" fill="#02B5A6"/>
<path d="M173.248 193.519L174.866 193.832L174.597 212.439L173.248 211.856L173.248 193.519Z" fill="#012C28"/>
<path d="M148.976 244.774L147.358 243.991L147.627 259.901L148.976 259.362V244.774Z" fill="#02B5A6"/>
<path d="M146.281 240.981L147.899 241.294L147.629 259.901L146.281 259.319L146.281 240.981Z" fill="#012C28"/>
<path d="M125.789 235.605L124.171 234.822L124.44 250.733L125.789 250.193V235.605Z" fill="#02B5A6"/>
<path d="M123.092 231.812L124.71 232.125L124.44 250.732L123.092 250.15L123.092 231.812Z" fill="#012C28"/>
<path d="M134.954 214.571L133.336 213.788L133.606 229.698L134.954 229.159V214.571Z" fill="#02B5A6"/>
<path d="M132.258 210.778L133.876 211.091L133.606 229.698L132.258 229.116L132.258 210.778Z" fill="#012C28"/>
<path d="M107.988 204.862L106.37 204.079L106.64 219.99L107.988 219.45V204.862Z" fill="#02B5A6"/>
<path d="M105.292 201.069L106.909 201.382L106.64 219.989L105.292 219.407L105.292 201.069Z" fill="#012C28"/>
<path d="M86.9529 196.234L85.3349 195.451L85.6045 211.362L86.9529 210.822V196.234Z" fill="#02B5A6"/>
<path d="M84.2563 192.441L85.8743 192.754L85.6047 211.361L84.2564 210.779L84.2563 192.441Z" fill="#012C28"/>
<path d="M86.9529 196.773L85.3349 195.99L85.6045 211.9L86.9529 211.361V196.773Z" fill="#02B5A6"/>
<path d="M84.2563 192.98L85.8743 193.293L85.6047 211.9L84.2564 211.317L84.2563 192.98Z" fill="#012C28"/>
<path d="M174.329 233.448L172.711 232.665L172.98 248.575L174.329 248.036V233.448Z" fill="#02B5A6"/>
<path d="M171.632 229.655L173.25 229.968L172.98 248.575L171.632 247.993L171.632 229.655Z" fill="#012C28"/>
<path d="M191.585 191.38L189.967 190.597L190.237 206.508L191.585 205.968V191.38Z" fill="#02B5A6"/>
<path d="M188.888 187.587L190.506 187.9L190.237 206.507L188.888 205.925L188.888 187.587Z" fill="#012C28"/>
<path d="M164.621 238.841L163.003 238.058L163.273 253.969L164.621 253.429V238.841Z" fill="#02B5A6"/>
<path d="M161.924 235.048L163.542 235.361L163.273 253.968L161.924 253.386L161.924 235.048Z" fill="#012C28"/>
<path d="M213.421 204.893V205.712L140.333 233.965V232.736L213.421 204.893Z" fill="#10867C"/>
<path d="M213.16 262.285V263.094L140.118 291.294V290.066L213.16 262.285Z" fill="#10867C"/>
<path d="M140.124 291.289V290.067L67 262.015V263.244L140.124 291.289Z" fill="#006058"/>
<path d="M140.358 278.075V276.853L67.2334 248.801V250.029L140.358 278.075Z" fill="#006058"/>
<path d="M213.159 249.071V249.88L140.349 278.075V276.847L213.159 249.071Z" fill="#10867C"/>
<path fill-rule="evenodd" clip-rule="evenodd" d="M67.2148 192.062L140.33 220.426L213.445 192.189L140.138 163.947L67.2148 192.062Z" fill="#88CCCA"/>
<path opacity="0.5" fill-rule="evenodd" clip-rule="evenodd" d="M67.2146 191.243L140.33 219.607L213.445 191.37L140.138 163.128L67.2146 191.243Z" fill="#88CCCA"/>
<path d="M67.2129 192.061L67.2129 191.244L68.9726 191.756L68.7832 192.654L67.2129 192.061Z" fill="#88CCCA"/>
<path d="M68.2761 205.154L68.8818 205.917V206.205L67.2185 205.578V204.75L68.2761 205.154Z" fill="#88CCCA"/>
<path d="M149.227 154.834L162.204 153.852V193.831L149.227 198.91V154.834Z" fill="#02B5A6"/>
<path d="M149.224 154.707V198.846L136.913 194.153V153.896L149.224 154.707Z" fill="#006058"/>
<path d="M130.59 153.666L143.567 152.624V201.072L130.59 206.25L130.59 153.666Z" fill="#02B5A6"/>
<path d="M130.591 156.223V206.25L118.28 201.197V155.323L130.591 156.223Z" fill="#67AFAD"/>
<path fill-rule="evenodd" clip-rule="evenodd" d="M161.384 100.985L213.564 94.8218V191.468L161.384 172.462V100.985Z" fill="#D5F2F1"/>
<path fill-rule="evenodd" clip-rule="evenodd" d="M213.16 263.093L140.134 291.284L140.302 346.723L213.16 318.645V263.093Z" fill="#EEFFFE"/>
<path fill-rule="evenodd" clip-rule="evenodd" d="M209.322 213.218L144.508 238.338V245.821L209.322 220.762V213.218Z" fill="#D5F2F1"/>
<path fill-rule="evenodd" clip-rule="evenodd" d="M209.322 273.091L144.508 298.211V305.694L209.322 280.635V273.091Z" fill="#D5F2F1"/>
<path fill-rule="evenodd" clip-rule="evenodd" d="M209.322 303.033L144.508 328.153V335.636L209.322 310.577V303.033Z" fill="#D5F2F1"/>
<path fill-rule="evenodd" clip-rule="evenodd" d="M209.322 228.189L144.508 253.31V260.792L209.322 235.733V228.189Z" fill="#D5F2F1"/>
<path fill-rule="evenodd" clip-rule="evenodd" d="M209.322 288.062L144.508 313.183V320.665L209.322 295.606V288.062Z" fill="#D5F2F1"/>
<path fill-rule="evenodd" clip-rule="evenodd" d="M180.879 98.5396L205.137 107.819V115.301L180.879 106.083V98.5396Z" fill="#B9E0DF"/>
<path fill-rule="evenodd" clip-rule="evenodd" d="M161.183 150.583L205.135 167.692V175.174L161.183 158.127V150.583Z" fill="#B9E0DF"/>
<path fill-rule="evenodd" clip-rule="evenodd" d="M160.677 119.947L205.134 137.755V145.237L160.677 127.491V119.947Z" fill="#B9E0DF"/>
<path fill-rule="evenodd" clip-rule="evenodd" d="M161.353 106.482L205.137 122.79V130.273L161.353 114.026V106.482Z" fill="#B9E0DF"/>
<path fill-rule="evenodd" clip-rule="evenodd" d="M160.922 164.908L205.137 182.662V190.145L160.922 172.452V164.908Z" fill="#B9E0DF"/>
<path fill-rule="evenodd" clip-rule="evenodd" d="M160.51 134.76L205.136 152.726V160.208L160.51 142.304V134.76Z" fill="#B9E0DF"/>
<path d="M185.659 92.9771L184.041 93.7861L182.693 196.033L184.041 195.494L185.659 92.9771Z" fill="#00C8B5"/>
<path d="M182.692 92.6641L184.31 92.9771C183.678 133.223 183.324 155.787 182.692 196.033L181.344 195.451L182.692 92.6641Z" fill="#006058"/>
<path d="M174.33 97.605L172.712 98.414L171.363 200.661L172.712 200.122L174.33 97.605Z" fill="#00C8B5"/>
<path d="M171.363 97.2921L172.981 97.605C172.349 137.851 171.995 160.415 171.363 200.661L170.014 200.079L171.363 97.2921Z" fill="#006058"/>
<path d="M158.69 103.538L157.072 104.347L155.723 206.594L157.072 206.055L158.69 103.538Z" fill="#00C8B5"/>
<path d="M155.723 103.225L157.341 103.538C156.709 143.784 156.355 166.348 155.723 206.594L154.375 206.011L155.723 103.225Z" fill="#006058"/>
<path d="M146.825 108.392L145.207 109.201L143.859 211.448L145.207 210.909L146.825 108.392Z" fill="#00C8B5"/>
<path d="M143.858 108.079L145.476 108.392C144.844 148.638 144.49 171.202 143.858 211.448L142.51 210.865L143.858 108.079Z" fill="#006058"/>
<path d="M131.726 114.324L130.108 115.133L128.759 217.38L130.108 216.841L131.726 114.324Z" fill="#02B5A6"/>
<path d="M128.759 114.011L130.377 114.324C129.745 154.57 129.391 177.134 128.759 217.38L127.411 216.797L128.759 114.011Z" fill="#012C28"/>
<path d="M204.531 98.5972L202.913 99.4062L201.565 201.653L202.913 201.114L204.531 98.5972Z" fill="#00C8B5"/>
<path d="M201.564 98.2842L203.182 98.5972C202.551 138.843 202.196 161.407 201.564 201.653L200.216 201.071L201.564 98.2842Z" fill="#006058"/>
<path d="M193.202 103.224L191.584 104.033L190.235 206.28L191.584 205.741L193.202 103.224Z" fill="#00C8B5"/>
<path d="M190.237 102.911L191.855 103.224C191.223 143.47 190.869 166.034 190.237 206.28L188.888 205.698L190.237 102.911Z" fill="#006058"/>
<path d="M177.565 109.157L175.947 109.966L174.599 212.214L175.947 211.674L177.565 109.157Z" fill="#00C8B5"/>
<path d="M174.598 108.844L176.216 109.157C175.584 149.403 175.23 171.968 174.598 212.214L173.25 211.631L174.598 108.844Z" fill="#006058"/>
<path d="M165.699 114.011L164.081 114.82L162.733 217.067L164.081 216.528L165.699 114.011Z" fill="#00C8B5"/>
<path d="M162.732 113.698L164.35 114.011C163.718 154.257 163.364 176.822 162.732 217.068L161.384 216.485L162.732 113.698Z" fill="#006058"/>
<path d="M150.596 119.944L148.978 120.753L147.63 223L148.978 222.461L150.596 119.944Z" fill="#00C8B5"/>
<path d="M147.629 119.631L149.247 119.944C148.615 160.19 148.261 182.754 147.629 223L146.281 222.418L147.629 119.631Z" fill="#006058"/>
<path d="M136.573 120.709L134.955 121.518L133.606 229.472L134.955 228.933L136.573 120.709Z" fill="#02B5A6"/>
<path d="M133.606 120.709L135.224 121.022C134.592 161.268 134.238 189.226 133.606 229.472L132.258 228.89L133.606 120.709Z" fill="#012C28"/>
<path d="M213.421 191.381V192.2L140.008 220.601V219.337L213.421 191.381Z" fill="#10867C"/>
<path d="M213.422 176.801V177.62L140.082 206.651V205.386L213.422 176.801Z" fill="#10867C"/>
<path d="M213.422 162.778V163.597L140.082 192.628V191.363L213.422 162.778Z" fill="#10867C"/>
<path d="M213.422 147.138V147.957L140.082 176.987V175.723L213.422 147.138Z" fill="#10867C"/>
<path d="M213.422 131.497V132.316L140.082 161.346V160.082L213.422 131.497Z" fill="#10867C"/>
<path d="M213.151 116.396V117.214L139.812 146.245V144.98L213.151 116.396Z" fill="#10867C"/>
<path fill-rule="evenodd" clip-rule="evenodd" d="M213.433 205.655L140.361 233.97V276.847L213.163 249.071L213.433 205.655Z" fill="#EEFFFE"/>
<path fill-rule="evenodd" clip-rule="evenodd" d="M209.329 213.219L144.515 238.339V245.821L209.329 220.763V213.219Z" fill="#D5F2F1"/>
<path fill-rule="evenodd" clip-rule="evenodd" d="M209.329 273.092L144.515 298.212V305.695L209.329 280.636V273.092Z" fill="#D5F2F1"/>
<path fill-rule="evenodd" clip-rule="evenodd" d="M209.329 228.19L144.515 253.31V260.793L209.329 235.734V228.19Z" fill="#D5F2F1"/>
<path fill-rule="evenodd" clip-rule="evenodd" d="M209.329 288.063L144.515 313.183V320.666L209.329 295.607V288.063Z" fill="#D5F2F1"/>
<path fill-rule="evenodd" clip-rule="evenodd" d="M67 204.902L140.35 232.621V276.846L67 248.858V204.902Z" fill="#D5F2F1"/>
<path fill-rule="evenodd" clip-rule="evenodd" d="M70.1594 213.218L134.975 238.338V245.821L70.1594 220.762V213.218Z" fill="#B9E0DF"/>
<path fill-rule="evenodd" clip-rule="evenodd" d="M70.1594 273.091L134.975 298.211V305.694L70.1594 280.635V273.091Z" fill="#B9E0DF"/>
<path fill-rule="evenodd" clip-rule="evenodd" d="M70.1594 303.033L134.975 328.153V335.636L70.1594 310.577V303.033Z" fill="#B9E0DF"/>
<path fill-rule="evenodd" clip-rule="evenodd" d="M70.1594 228.19L134.975 253.31V260.793L70.1594 235.734V228.19Z" fill="#B9E0DF"/>
<path fill-rule="evenodd" clip-rule="evenodd" d="M70.1594 288.062L134.975 313.182V320.665L70.1594 295.606V288.062Z" fill="#B9E0DF"/>
<path fill-rule="evenodd" clip-rule="evenodd" d="M67 262.824L140.153 291.284L140.316 346.723L67 318.375V262.824Z" fill="#D5F2F1"/>
<path fill-rule="evenodd" clip-rule="evenodd" d="M70.1594 213.219L134.975 238.339V245.821L70.1594 220.763V213.219Z" fill="#B9E0DF"/>
<path fill-rule="evenodd" clip-rule="evenodd" d="M70.1594 273.091L134.975 298.211V305.694L70.1594 280.635V273.091Z" fill="#B9E0DF"/>
<path fill-rule="evenodd" clip-rule="evenodd" d="M70.1594 303.034L134.975 328.154V335.636L70.1594 310.578V303.034Z" fill="#B9E0DF"/>
<path fill-rule="evenodd" clip-rule="evenodd" d="M70.1594 228.19L134.975 253.31V260.793L70.1594 235.734V228.19Z" fill="#B9E0DF"/>
<path fill-rule="evenodd" clip-rule="evenodd" d="M70.1594 288.062L134.975 313.183V320.665L70.1594 295.606V288.062Z" fill="#B9E0DF"/>
<path opacity="0.5" fill-rule="evenodd" clip-rule="evenodd" d="M67 176.869L140.115 205.233L213.43 176.8L139.923 148.755L67 176.869Z" fill="#88CCCA"/>
<path opacity="0.5" fill-rule="evenodd" clip-rule="evenodd" d="M67 162.846L140.115 191.211L213.23 162.974L139.923 134.732L67 162.846Z" fill="#88CCCA"/>
<path opacity="0.5" fill-rule="evenodd" clip-rule="evenodd" d="M67 147.206L140.115 175.57L213.43 147.137L139.923 119.091L67 147.206Z" fill="#88CCCA"/>
<path opacity="0.5" fill-rule="evenodd" clip-rule="evenodd" d="M67 131.565L140.115 159.929L213.43 131.496L168.125 113.159L140.115 123.945L112.304 113.159L67 131.565Z" fill="#88CCCA"/>
<path opacity="0.5" fill-rule="evenodd" clip-rule="evenodd" d="M67 116.464L140.115 144.828L213.16 116.395L185.654 105.608L140.115 123.946L93.6971 105.608L67 116.464Z" fill="#88CCCA"/>
<path fill-rule="evenodd" clip-rule="evenodd" d="M67.2175 95.4292L140.221 123.789L140.349 233.97L67.0386 205.444L67.2175 95.4292Z" fill="#D5F2F1"/>
<path fill-rule="evenodd" clip-rule="evenodd" d="M70.157 106.278L134.972 131.398V138.881L70.157 113.822V106.278Z" fill="#B9E0DF"/>
<path fill-rule="evenodd" clip-rule="evenodd" d="M70.157 166.151L134.972 191.271V198.754L70.157 173.695V166.151Z" fill="#B9E0DF"/>
<path fill-rule="evenodd" clip-rule="evenodd" d="M70.157 136.214L134.972 161.334V168.817L70.157 143.758V136.214Z" fill="#B9E0DF"/>
<path fill-rule="evenodd" clip-rule="evenodd" d="M70.157 196.092L134.972 221.212V228.695L70.157 203.636V196.092Z" fill="#B9E0DF"/>
<path fill-rule="evenodd" clip-rule="evenodd" d="M70.157 121.249L134.972 146.369V153.852L70.157 128.793V121.249Z" fill="#B9E0DF"/>
<path fill-rule="evenodd" clip-rule="evenodd" d="M70.157 181.122L134.972 206.242V213.724L70.157 188.665V181.122Z" fill="#B9E0DF"/>
<path fill-rule="evenodd" clip-rule="evenodd" d="M70.157 151.185L134.972 176.305V183.788L70.157 158.729V151.185Z" fill="#B9E0DF"/>
<path fill-rule="evenodd" clip-rule="evenodd" d="M67.2168 95.4293L140.332 123.794L149.791 120.17L76.9807 91.585L67.2168 95.4293Z" fill="#88CCCA"/>
<path fill-rule="evenodd" clip-rule="evenodd" d="M121.059 116.312L140.253 123.785L213.401 95.5533L194.555 88.0791L121.059 116.312Z" fill="#88CCCA"/>
<g clip-path="url(#clip6_830_8420)">
<path d="M111.986 84.438L111.209 84.1474L111.037 75.9316L111.814 76.2258L111.986 84.438Z" fill="#006058"/>
<path d="M114.672 84.9966L113.409 82.325L110.802 75.4416L109.982 72.7607L129.157 65.409L133.851 77.6413L114.672 84.9966Z" fill="#009A8D"/>
<path d="M128.828 66.1798L110.738 73.1182L114.998 84.2256L133.088 77.2873L128.828 66.1798Z" fill="#001D23"/>
<path d="M131.418 72.9238C131.221 72.4068 130.637 72.1478 130.121 72.3443L126.318 73.8018C125.801 73.9983 125.542 74.5854 125.739 75.0988L127.053 78.5224C127.249 79.0394 127.411 79.4607 127.411 79.4607C127.411 79.4607 127.833 79.2984 128.35 79.1019L132.152 77.6444C132.669 77.4479 132.928 76.8643 132.731 76.3474L131.418 72.9238Z" fill="#00C8B5"/>
<path d="M118.667 75.5363C118.863 76.0532 119.45 76.3121 119.964 76.1158L124.287 74.4581C124.804 74.2617 125.063 73.6745 124.866 73.1611L123.401 69.341C123.205 68.824 122.621 68.565 122.104 68.7615L117.781 70.4191C117.264 70.6156 117.005 71.1992 117.202 71.7161L118.667 75.5398L118.667 75.5363Z" fill="#00C8B5"/>
<path d="M120.006 76.2283L124.331 74.5698C124.847 74.3717 125.431 74.6292 125.63 75.149L126.943 78.5705C127.141 79.0869 126.883 79.671 126.364 79.8703L122.039 81.5289C121.523 81.7269 120.942 81.4682 120.744 80.9518L119.432 77.5302C119.234 77.0138 119.492 76.4331 120.009 76.235L120.006 76.2283Z" fill="#00C8B5"/>
<path d="M113.905 78.5667L118.02 76.9887C118.536 76.7906 119.12 77.0481 119.319 77.5678L120.632 80.9894C120.83 81.5058 120.572 82.0899 120.053 82.2892L115.938 83.8673C115.422 84.0653 114.841 83.8065 114.643 83.2901L113.331 79.8686C113.133 79.3522 113.39 78.7681 113.91 78.5688L113.905 78.5667Z" fill="#00C8B5"/>
<path d="M124.979 73.1162C125.176 73.6332 125.76 73.8922 126.276 73.6957L130.079 72.2382C130.596 72.0418 130.855 71.4546 130.658 70.9412L129.193 67.121C128.997 66.6041 128.41 66.3452 127.896 66.5416L124.094 67.9991C123.577 68.1955 123.318 68.7791 123.514 69.2961L124.979 73.1162Z" fill="#00C8B5"/>
<path d="M117.978 76.8786C118.495 76.6821 118.754 76.0985 118.557 75.5816L117.092 71.7614C116.896 71.2445 116.312 70.9855 115.795 71.1819L111.681 72.7566C111.164 72.9531 110.905 73.5367 111.101 74.0537L112.567 77.8774C112.767 78.3942 113.347 78.6533 113.864 78.4569L117.978 76.8786Z" fill="#00C8B5"/>
<path d="M109.98 72.7611L109.557 72.9233L114.249 85.1569L114.672 84.9946L109.98 72.7611Z" fill="#006058"/>
</g>
<g clip-path="url(#clip7_830_8420)">
<path d="M90.5783 92.6719L89.8013 92.3813L89.6287 84.1655L90.4057 84.4597L90.5783 92.6719Z" fill="#006058"/>
<path d="M93.2637 93.2305L92.0012 90.5589L89.394 83.6755L88.5739 80.9946L107.749 73.6429L112.442 85.8751L93.2637 93.2305Z" fill="#009A8D"/>
<path d="M107.42 74.4137L89.3296 81.3521L93.5897 92.4595L111.68 85.5212L107.42 74.4137Z" fill="#001D23"/>
<path d="M110.009 81.1577C109.813 80.6407 109.229 80.3817 108.712 80.5782L104.91 82.0357C104.393 82.2321 104.134 82.8193 104.33 83.3327L105.644 86.7563C105.841 87.2733 106.003 87.6946 106.003 87.6946C106.003 87.6946 106.424 87.5322 106.941 87.3358L110.744 85.8783C111.261 85.6818 111.52 85.0982 111.323 84.5813L110.009 81.1577Z" fill="#00C8B5"/>
<path d="M97.2586 83.7702C97.4551 84.2871 98.0422 84.546 98.5556 84.3496L102.879 82.692C103.395 82.4956 103.654 81.9084 103.458 81.395L101.993 77.5749C101.797 77.0579 101.213 76.7989 100.696 76.9954L96.3731 78.653C95.8561 78.8494 95.5971 79.4331 95.7936 79.95L97.2587 83.7737L97.2586 83.7702Z" fill="#00C8B5"/>
<path d="M98.598 84.4622L102.922 82.8037C103.439 82.6056 104.023 82.8631 104.222 83.3828L105.535 86.8044C105.733 87.3208 105.475 87.9049 104.955 88.1042L100.631 89.7628C100.115 89.9608 99.5338 89.702 99.3358 89.1856L98.0235 85.7641C97.8254 85.2477 98.0842 84.667 98.6006 84.4689L98.598 84.4622Z" fill="#00C8B5"/>
<path d="M92.497 86.8006L96.6115 85.2226C97.1278 85.0245 97.712 85.282 97.9113 85.8017L99.2236 89.2233C99.4216 89.7396 99.1641 90.3238 98.6444 90.5231L94.5299 92.1011C94.0135 92.2992 93.4327 92.0404 93.2347 91.524L91.9224 88.1025C91.7243 87.5861 91.9818 87.002 92.5016 86.8027L92.497 86.8006Z" fill="#00C8B5"/>
<path d="M103.571 81.3501C103.768 81.8671 104.351 82.1261 104.868 81.9296L108.671 80.4721C109.188 80.2756 109.447 79.6885 109.25 79.1751L107.785 75.3549C107.589 74.838 107.002 74.5791 106.488 74.7754L102.686 76.233C102.169 76.4294 101.91 77.013 102.106 77.53L103.571 81.3501Z" fill="#00C8B5"/>
<path d="M96.5694 85.1125C97.0864 84.916 97.3453 84.3324 97.1489 83.8155L95.6839 79.9953C95.4874 79.4784 94.9038 79.2194 94.3869 79.4158L90.2728 80.9905C89.7558 81.187 89.4968 81.7706 89.6933 82.2875L91.1584 86.1113C91.3584 86.6281 91.9385 86.8872 92.4554 86.6907L96.5694 85.1125Z" fill="#00C8B5"/>
</g>
<path d="M90.2971 129.823C90.2971 136.957 95.1195 144.532 101.066 146.711C107.013 148.913 111.836 144.906 111.836 137.772C111.408 124.715 109.203 115.569 108.007 111.144C106.81 106.72 107.289 99.3471 118.297 101.805" stroke="#429A97" stroke-width="1.5"/>
<path d="M105.218 113.412L90.6366 108.154L85.2976 109.937L99.8794 115.195L105.218 113.412Z" fill="#429A97"/>
<path d="M99.8794 115.174L85.2976 109.916V135.609L99.8794 140.867V115.174Z" fill="#006058"/>
<path d="M105.219 113.412L99.8796 115.174V140.888L105.219 138.771V113.412Z" fill="#00C8B5"/>
<path d="M94.0116 123.365L89.7266 121.819V121.617L94.0116 123.163V121.909C94.0116 121.101 93.3737 120.217 92.5833 119.931L89.7266 118.9V121.819V126.193L94.0116 127.739V123.365Z" fill="white"/>
<path d="M94.2129 123.455V127.801C94.9063 127.954 95.4402 127.536 95.4402 126.798V125.343C95.4402 124.604 94.9063 123.803 94.2129 123.455Z" fill="white"/>
<path d="M89.059 128.296V128.421C89.059 128.665 88.9758 128.839 88.8164 128.937C88.6569 129.034 88.4419 129.034 88.1854 128.937C87.908 128.839 87.6861 128.665 87.4989 128.421C87.3187 128.177 87.2285 127.927 87.2285 127.662C87.2285 127.397 87.3187 127.216 87.4989 127.098C87.6792 126.979 87.9011 126.972 88.1646 127.07C88.4974 127.188 88.7886 127.46 88.9412 127.773L88.6915 127.829C88.5945 127.62 88.4003 127.439 88.1646 127.356C87.9774 127.286 87.8248 127.293 87.7 127.369C87.5752 127.446 87.5197 127.578 87.5197 127.766C87.5197 127.955 87.5821 128.129 87.7 128.289C87.8248 128.456 87.9843 128.574 88.1784 128.644C88.4974 128.755 88.6985 128.672 88.7539 128.442L88.1576 128.226V127.961L89.0521 128.282L89.059 128.296Z" fill="white"/>
<path d="M90.3219 128.4L90.5993 128.497V129.779L90.3219 129.681V129.5C90.2179 129.612 90.0723 129.626 89.8781 129.556C89.7048 129.493 89.5523 129.375 89.4274 129.201C89.3026 129.027 89.2402 128.839 89.2402 128.658C89.2402 128.476 89.3026 128.33 89.4274 128.247C89.5523 128.163 89.6979 128.149 89.8781 128.212C90.0723 128.281 90.2179 128.407 90.3219 128.588V128.407V128.4ZM89.9197 129.305C90.0376 129.347 90.1347 129.34 90.211 129.291C90.2872 129.243 90.3288 129.159 90.3288 129.041C90.3288 128.922 90.2872 128.811 90.211 128.706C90.1347 128.602 90.0376 128.525 89.9197 128.483C89.8019 128.442 89.7048 128.449 89.6285 128.497C89.5523 128.546 89.5107 128.63 89.5107 128.748C89.5107 128.866 89.5523 128.978 89.6285 129.082C89.7048 129.187 89.8019 129.263 89.9197 129.305Z" fill="white"/>
<path d="M91.6318 129.138L91.3128 129.027V129.64C91.3128 129.807 91.4168 129.842 91.6318 129.905V130.155C91.2088 130.058 91.0424 129.877 91.0424 129.542V128.929L90.8066 128.846V128.581L91.0424 128.665V128.386L91.3197 128.407V128.762L91.6387 128.874V129.138H91.6318Z" fill="white"/>
<path d="M92.0471 129.779C92.0887 129.988 92.2412 130.155 92.4562 130.232C92.6018 130.288 92.7127 130.274 92.7821 130.19L93.0109 130.406C92.8861 130.545 92.6989 130.573 92.4492 130.483C92.2412 130.406 92.0748 130.281 91.95 130.114C91.8252 129.939 91.7559 129.758 91.7559 129.563C91.7559 129.368 91.8183 129.236 91.9431 129.152C92.0679 129.069 92.2343 129.062 92.4284 129.131C92.6156 129.201 92.7682 129.32 92.8861 129.494C93.0039 129.668 93.0663 129.849 93.0663 130.037C93.0663 130.065 93.0663 130.1 93.0594 130.148L92.0471 129.779ZM92.7959 129.821C92.7543 129.598 92.6156 129.438 92.4284 129.375C92.2274 129.299 92.0817 129.375 92.0401 129.549L92.789 129.821H92.7959Z" fill="white"/>
<path d="M94.7304 129.995L95.0216 130.1L94.6195 131.235L94.3491 131.137L94.0856 130.176L93.8152 130.942L93.5447 130.845L93.1426 129.417L93.4338 129.521L93.6834 130.497L93.9538 129.71L94.2173 129.807L94.4808 130.789L94.7304 129.995Z" fill="white"/>
<path d="M96.1871 130.518L96.4645 130.615V131.897L96.1871 131.799V131.618C96.0831 131.729 95.9375 131.743 95.7434 131.674C95.57 131.611 95.4175 131.493 95.2927 131.318C95.1679 131.144 95.1055 130.956 95.1055 130.775C95.1055 130.594 95.1679 130.448 95.2927 130.364C95.4175 130.281 95.5631 130.267 95.7434 130.329C95.9375 130.399 96.0831 130.524 96.1871 130.706V130.524V130.518ZM95.785 131.423C95.9029 131.465 95.9999 131.458 96.0762 131.409C96.1525 131.36 96.1941 131.277 96.1941 131.158C96.1941 131.04 96.1525 130.928 96.0762 130.824C95.9999 130.72 95.9029 130.643 95.785 130.601C95.6671 130.559 95.57 130.566 95.4938 130.615C95.4175 130.664 95.3759 130.747 95.3759 130.866C95.3759 130.984 95.4175 131.096 95.4938 131.2C95.57 131.305 95.6671 131.381 95.785 131.423Z" fill="white"/>
<path d="M97.6432 131.047L97.9344 131.151L97.4421 132.294C97.3173 132.579 97.1162 132.663 96.8181 132.537V132.28C96.9914 132.349 97.0885 132.301 97.1578 132.154L97.1717 132.133L96.6309 130.678L96.929 130.789L97.3104 131.855L97.6363 131.04L97.6432 131.047Z" fill="white"/>
<g clip-path="url(#clip8_830_8420)">
<path d="M175 305.583L182.357 302.958L185.05 303.847L177.693 306.472L175 305.583Z" fill="#429A97"/>
<path d="M177.693 306.461L185.05 303.836V316.658L177.693 319.282V306.461Z" fill="#00C8B5"/>
<path d="M175 305.583L177.693 306.461V319.293L175 318.237V305.583Z" fill="#006058"/>
<path d="M184.987 308.396L183.256 307.737C182.828 307.596 182.331 307.596 181.803 307.789C180.224 308.359 178.943 310.341 178.943 312.207C178.943 313.504 179.56 314.409 180.464 314.649L182.085 315.272L182.551 314.168C183.764 313.337 184.658 311.706 184.658 310.142C184.658 309.865 184.626 309.609 184.574 309.368L184.987 308.39V308.396Z" fill="#006058"/>
<path d="M185.645 312.917C186.575 311.07 186.296 309.053 185.022 308.411C183.748 307.77 181.961 308.747 181.031 310.593C180.101 312.44 180.38 314.457 181.654 315.099C182.928 315.74 184.715 314.764 185.645 312.917Z" fill="#006058"/>
<path d="M183.34 314.801C184.778 314.284 185.944 312.485 185.944 310.791C185.944 309.097 184.778 308.145 183.34 308.668C181.902 309.191 180.736 310.984 180.736 312.678C180.736 314.373 181.902 315.324 183.34 314.801Z" fill="#00C8B5"/>
<path d="M183.005 311.465L182.085 310.712L183.005 311.465Z" fill="#001D23"/>
<path d="M183.005 311.465L182.085 310.712" stroke="#001D23" stroke-width="0.5" stroke-miterlimit="10" stroke-linecap="square"/>
<path d="M183.34 312.291C183.602 312.197 183.816 311.873 183.816 311.564C183.816 311.256 183.602 311.083 183.34 311.178C183.079 311.272 182.864 311.596 182.864 311.904C182.864 312.213 183.079 312.385 183.34 312.291Z" fill="#001D23"/>
<path d="M183.34 309.504V309.923V309.504Z" fill="#001D23"/>
<path d="M183.34 309.504V309.923" stroke="#001D23" stroke-width="0.5" stroke-miterlimit="10" stroke-linecap="square"/>
<path d="M184.679 309.672L184.428 310.059L184.679 309.672Z" fill="#001D23"/>
<path d="M184.679 309.672L184.428 310.059" stroke="#001D23" stroke-width="0.5" stroke-miterlimit="10" stroke-linecap="square"/>
<path d="M185.233 311.052L184.877 311.183L185.233 311.052Z" fill="#001D23"/>
<path d="M185.233 311.052L184.877 311.183" stroke="#001D23" stroke-width="0.5" stroke-miterlimit="10" stroke-linecap="square"/>
<path d="M181.797 312.292L181.442 312.422L181.797 312.292Z" fill="#001D23"/>
<path d="M181.797 312.292L181.442 312.422" stroke="#001D23" stroke-width="0.5" stroke-miterlimit="10" stroke-linecap="square"/>
</g>
<path d="M184.829 306.666C187.658 305.646 189.954 302.106 189.954 298.776C189.954 295.445 187.658 293.568 184.829 294.598C182.001 295.628 179.705 299.157 179.705 302.488C179.705 305.819 182.001 307.696 184.829 306.666Z" fill="#006058"/>
<path d="M185.875 307.189C188.704 306.169 190.999 302.629 190.999 299.299C190.999 295.968 188.704 294.091 185.875 295.121C183.046 296.151 180.751 299.68 180.751 303.011C180.751 306.342 183.046 308.219 185.875 307.189Z" fill="#429A97"/>
<path d="M183.365 303.727L184.358 301.551L185.152 302.396L186.638 298.947L187.829 300.68L189.117 298.499" stroke="#D5F2F1" stroke-miterlimit="10" stroke-linecap="square"/>
<g clip-path="url(#clip9_830_8420)">
<path d="M112.655 322.315L114 321.415V296.132L89.3448 286.315L88 287.215L112.655 322.315Z" fill="#006058"/>
<path d="M88 312.499L112.655 322.315V297.032L88 287.215V312.499Z" fill="#00C8B5"/>
<path d="M111.31 320.471L89.3447 311.644V306.713L111.31 315.546V320.471Z" fill="#00A999"/>
<path d="M100.327 295.508C104.842 297.321 108.851 301.166 111.31 305.582V297.887L89.3447 289.061V296.749C91.8038 294.319 95.8127 293.696 100.327 295.508Z" fill="#00A999"/>
<path d="M100.327 296.055C95.7551 294.216 91.7206 294.943 89.3447 297.54V306.173L111.31 315V306.373C108.941 301.86 104.9 297.893 100.327 296.055Z" fill="#00A999"/>
<path d="M100.327 296.055C104.9 297.893 108.941 301.866 111.31 306.373V305.582C108.851 301.172 104.842 297.328 100.327 295.508C95.8127 293.689 91.8038 294.313 89.3447 296.749V297.54C91.7142 294.936 95.7551 294.216 100.327 296.055Z" fill="white"/>
<path d="M91.5093 301.564C91.4645 301.635 91.4261 301.706 91.4005 301.776C90.5167 301.686 89.9275 301.217 89.8891 301.185C89.7995 301.114 89.697 301.114 89.665 301.185C89.6266 301.256 89.665 301.378 89.7546 301.448C89.7995 301.487 90.4078 301.982 91.3236 302.13C91.3236 302.143 91.3236 302.156 91.3236 302.162C91.3236 302.419 91.4325 302.638 91.5734 302.786C91.9704 303.203 92.8413 303.332 94.1093 302.548C94.0261 302.747 93.9556 302.978 93.9044 303.223C93.9044 303.236 93.9044 303.242 93.9044 303.255C93.9044 303.326 93.9492 303.409 94.0133 303.467C94.1477 303.576 94.231 303.493 94.295 303.422L94.4679 303.229C94.6216 303.062 94.961 302.683 95.1916 302.503C95.166 302.638 95.1339 302.798 95.1339 302.953C95.1339 303.165 95.1852 303.383 95.3581 303.557C95.5054 303.698 95.7359 303.821 96.2418 303.724C96.2867 303.859 96.3699 303.949 96.4211 303.988C96.7413 304.264 97.3497 304.187 97.9837 303.833C97.9005 303.994 97.8364 304.123 97.8172 304.187C97.8172 304.206 97.8172 304.219 97.8172 304.238C97.8172 304.322 97.8684 304.399 97.9197 304.444C98.0605 304.56 98.1438 304.476 98.2142 304.406L98.4064 304.206C98.5665 304.033 98.9379 303.634 99.1556 303.493C99.2197 303.679 99.3349 303.923 99.5399 304.123C99.4822 304.232 99.4502 304.341 99.4502 304.438C99.4502 304.56 99.495 304.669 99.5847 304.766C99.7448 304.939 99.9945 304.978 100.251 304.946C99.431 305.434 99.0532 306.096 99.0404 306.456V306.476C99.0404 306.675 99.1364 306.797 99.2005 306.855C99.3221 306.971 99.4758 306.99 99.6551 306.919C100.276 306.675 100.725 305.685 100.955 305.061C101.263 304.933 101.628 304.83 102.037 304.772C101.903 304.958 101.826 305.151 101.826 305.331C101.826 305.396 101.839 305.46 101.858 305.524C101.903 305.672 102.005 305.794 102.14 305.858C102.428 306.006 102.819 305.858 103.286 305.473C103.248 305.569 103.209 305.666 103.164 305.762C101.871 306.263 101.288 307.125 101.218 307.691C101.211 307.736 101.205 307.781 101.205 307.819C101.205 308.057 101.301 308.205 101.384 308.288C101.48 308.385 101.647 308.481 101.897 308.391C102.172 308.288 102.825 307.53 103.453 306.09C104.292 305.781 105.438 305.621 106.968 305.813C107.045 305.82 107.097 305.775 107.097 305.698C107.097 305.685 107.097 305.666 107.097 305.653C107.071 305.55 106.975 305.46 106.879 305.447C105.54 305.28 104.484 305.376 103.658 305.608C103.754 305.357 103.856 305.081 103.952 304.798C103.952 304.785 103.959 304.766 103.959 304.753C103.959 304.688 103.92 304.605 103.856 304.553C103.779 304.489 103.683 304.476 103.638 304.534C102.774 305.543 102.287 305.595 102.178 305.55C102.178 305.537 102.165 305.518 102.165 305.492C102.165 305.338 102.3 305.003 102.723 304.721C102.755 304.701 102.767 304.663 102.767 304.618C102.767 304.586 102.755 304.547 102.735 304.508C102.691 304.425 102.601 304.361 102.524 304.361C101.98 304.373 101.512 304.457 101.102 304.586C101.102 304.573 101.109 304.56 101.109 304.553C101.109 304.541 101.109 304.528 101.109 304.515C101.109 304.451 101.07 304.373 101.013 304.322H101.006C101.128 304.271 101.25 304.213 101.378 304.148C101.512 304.078 101.551 303.975 101.551 303.891C101.551 303.853 101.544 303.821 101.538 303.795C101.499 303.653 101.384 303.531 101.231 303.448C100.846 303.248 100.244 303.332 99.7 303.917C99.5142 303.743 99.4438 303.473 99.4118 303.345L99.399 303.293C99.3734 303.21 99.3093 303.139 99.2325 303.107C99.1172 303.062 98.9891 303.094 98.7906 303.242C98.7906 303.242 98.7906 303.236 98.797 303.229C98.8098 303.21 98.8098 303.184 98.8098 303.158C98.8098 303.101 98.7778 303.03 98.7266 302.978C98.6497 302.901 98.5537 302.882 98.496 302.933C97.529 303.853 96.6837 303.872 96.5556 303.756C96.5556 303.756 96.5556 303.743 96.5556 303.718C96.5556 303.705 96.5556 303.686 96.562 303.66C96.7798 303.589 97.0295 303.493 97.3369 303.351C97.6187 303.223 97.6827 303.049 97.6827 302.921C97.6827 302.863 97.6699 302.811 97.6571 302.779C97.5995 302.625 97.465 302.49 97.2921 302.438C96.9335 302.323 96.4852 302.567 96.261 303.332C95.7039 303.493 95.5502 303.371 95.531 303.351C95.4541 303.274 95.4605 303.036 95.5502 302.644C95.5886 302.471 95.6078 302.387 95.563 302.291C95.5182 302.194 95.4477 302.117 95.3645 302.085C95.1852 302.001 94.9738 302.111 94.5512 302.548C94.7241 302.213 94.8842 302.001 94.8906 301.995C94.9098 301.976 94.9162 301.943 94.9162 301.918C94.9162 301.866 94.8906 301.802 94.8458 301.744C94.7753 301.661 94.6729 301.635 94.6088 301.68C93.0847 302.933 92.0537 302.908 91.7527 302.593C91.6886 302.528 91.6566 302.432 91.6566 302.323C91.6566 302.278 91.663 302.233 91.6758 302.181C92.2458 302.207 92.9054 302.078 93.6034 301.641C94.0133 301.384 94.2374 301.076 94.2374 300.773C94.2374 300.703 94.2246 300.638 94.2054 300.574C94.1413 300.394 94.0005 300.24 93.8211 300.156C93.2768 299.912 92.3482 300.253 91.5093 301.577V301.564ZM93.8083 300.484C93.8724 300.516 93.8852 300.542 93.8852 300.555C93.8852 300.574 93.8916 300.593 93.8916 300.619C93.8916 300.773 93.7571 301.031 93.3537 301.281C92.8157 301.622 92.3034 301.757 91.8487 301.783C92.6492 300.555 93.4689 300.33 93.8019 300.478L93.8083 300.484ZM97.2216 302.766C97.2793 302.76 97.3177 302.766 97.3433 302.779C97.3369 302.818 97.2921 302.901 97.1192 302.978C96.9911 303.036 96.8758 303.088 96.7734 303.133C96.9527 302.831 97.1512 302.773 97.2216 302.766ZM101.064 303.711C101.128 303.724 101.173 303.737 101.198 303.756C101.192 303.763 101.179 303.776 101.16 303.782C100.763 303.994 100.411 304.091 100.135 304.065C100.571 303.673 100.949 303.692 101.064 303.711ZM100.539 304.431C100.206 304.592 99.8985 304.611 99.7896 304.566C99.7896 304.534 99.8024 304.463 99.8729 304.348C100.071 304.438 100.289 304.463 100.539 304.431ZM100.404 305.338C100.167 305.852 99.8344 306.398 99.431 306.559C99.4118 306.566 99.3926 306.572 99.3798 306.578C99.399 306.334 99.7064 305.781 100.404 305.338ZM101.544 307.954C101.544 307.877 101.564 307.755 101.628 307.594C101.788 307.202 102.185 306.713 102.889 306.334C102.358 307.401 101.864 307.954 101.679 308.025C101.621 308.044 101.576 308.051 101.557 308.044C101.551 308.025 101.544 307.999 101.544 307.954Z" fill="white"/>
<path d="M106.507 301.712C106.398 301.667 106.302 301.693 106.264 301.783C106.264 301.783 105.316 303.846 105.207 304.084C104.906 303.981 102.306 303.075 102.306 303.075C102.165 303.03 102.063 303.101 102.063 303.236V303.249C102.069 303.396 102.191 303.551 102.338 303.602L105.406 304.669C105.508 304.708 105.598 304.676 105.636 304.599C105.636 304.599 106.219 303.332 106.514 302.689C106.808 303.57 107.391 305.293 107.391 305.293C107.429 305.402 107.519 305.505 107.615 305.55C107.615 305.55 109.197 306.276 110.01 306.649C109.389 306.919 108.166 307.446 108.166 307.446C108.102 307.472 108.07 307.53 108.07 307.607C108.07 307.626 108.07 307.652 108.076 307.678C108.076 307.678 108.467 309.375 108.672 310.249C107.993 309.536 106.661 308.141 106.661 308.141C106.578 308.051 106.469 308.006 106.379 308.025C106.379 308.025 105.034 308.346 104.343 308.507C104.554 307.826 104.938 306.598 104.938 306.598C104.938 306.579 104.945 306.553 104.945 306.534C104.945 306.418 104.868 306.283 104.753 306.206C104.618 306.109 104.471 306.135 104.432 306.257L103.664 308.751C103.638 308.841 103.67 308.97 103.76 309.066C103.843 309.163 103.965 309.214 104.055 309.195C104.055 309.195 106.27 308.668 106.52 308.61C106.77 308.874 108.947 311.156 108.947 311.156C109.037 311.252 109.152 311.291 109.242 311.265C109.312 311.239 109.351 311.181 109.351 311.098C109.351 311.079 109.351 311.053 109.344 311.027C109.344 311.027 108.697 308.237 108.627 307.922C108.851 307.826 110.856 306.958 110.856 306.958C110.913 306.932 110.952 306.874 110.952 306.797C110.952 306.771 110.952 306.739 110.939 306.714C110.907 306.598 110.817 306.489 110.708 306.444C110.708 306.444 108.121 305.254 107.827 305.119C107.718 304.798 106.77 301.976 106.77 301.976C106.731 301.86 106.635 301.757 106.527 301.712H106.507Z" fill="white"/>
<path d="M90.2925 310.937V308.179L91.7078 308.751V309.06L90.6447 308.629V309.516L91.6309 309.915V310.217L90.6447 309.818V310.776L91.7334 311.213V311.516L90.2925 310.937Z" fill="white"/>
<path d="M94.0517 309.697V312.448L93.5714 312.262L92.4891 309.433L92.4827 309.427V311.818L92.1689 311.696V308.938L92.662 309.137L93.7315 311.927H93.7379V309.568L94.0517 309.697Z" fill="white"/>
<path d="M94.5383 312.647V309.889L95.9536 310.455V310.763L94.8905 310.333V311.22L95.8768 311.618V311.927L94.8905 311.528V312.48L95.9792 312.917V313.226L94.5383 312.647Z" fill="white"/>
<path d="M96.7477 311.085L97.2793 311.297C97.5482 311.406 97.6507 311.663 97.6507 311.863C97.6507 312.107 97.529 312.274 97.2793 312.171L96.7541 311.959V311.078L96.7477 311.085ZM97.1576 312.435C97.2728 312.48 97.5482 312.608 97.5738 312.955C97.6059 313.335 97.5802 313.682 97.6827 313.913L98.0477 314.061C97.9965 313.868 97.9581 313.418 97.9517 313.303C97.9325 312.743 97.8172 312.589 97.5034 312.409C97.8236 312.473 98.0029 312.3 98.0029 311.972C98.0029 311.631 97.83 311.213 97.3433 311.02L96.3955 310.641V313.399L96.7477 313.54V312.274L97.1576 312.441V312.435Z" fill="white"/>
<path d="M99.6998 312.699C99.6998 312.371 99.5653 312.146 99.2131 312.004C99.1042 311.959 98.7072 311.818 98.7072 312.396V313.329C98.7072 313.933 98.8801 314.158 99.2131 314.286C99.4629 314.389 99.6294 314.383 99.7062 314.364V313.541L99.2003 313.335V313.026L100.058 313.374V314.717C99.8343 314.749 99.5717 314.73 99.2195 314.582C98.6368 314.351 98.355 313.933 98.355 313.168V312.261C98.355 311.709 98.6368 311.471 99.2195 311.709C99.8023 311.946 100.097 312.281 100.071 312.846L99.7062 312.699H99.6998Z" fill="white"/>
<path d="M101.73 312.782L102.082 312.923L101.333 314.325V315.379L100.981 315.238V314.183L100.244 312.184L100.635 312.338L101.173 313.888L101.73 312.782Z" fill="white"/>
<path d="M103.267 315.334V315.412C103.267 315.784 103.504 315.997 103.728 316.093C104.003 316.202 104.221 316.17 104.221 315.842C104.221 315.232 102.991 314.807 102.991 313.978C102.991 313.489 103.337 313.367 103.798 313.554C104.298 313.753 104.58 314.113 104.56 314.666L104.195 314.518C104.195 314.216 104.106 313.978 103.773 313.849C103.561 313.766 103.35 313.785 103.35 314.087C103.35 314.692 104.586 315.103 104.586 315.977C104.586 316.556 104.189 316.582 103.734 316.402C102.921 316.08 102.921 315.463 102.934 315.199L103.28 315.341L103.267 315.334Z" fill="white"/>
<path d="M106.527 314.711V315.013L105.803 314.724V317.173L105.457 317.032V314.582L104.733 314.293V313.984L106.527 314.711Z" fill="white"/>
<path d="M107.762 316.999L106.885 316.646L107.314 315.347H107.321L107.762 316.999ZM106.238 317.346L106.591 317.488L106.795 316.916L107.859 317.34L108.057 318.079L108.448 318.233L107.551 315.116L107.103 314.936L106.232 317.34L106.238 317.346Z" fill="white"/>
<path d="M109.069 316.035L109.6 316.247C109.869 316.356 109.972 316.613 109.972 316.813C109.972 317.057 109.85 317.224 109.6 317.121L109.075 316.909V316.028L109.069 316.035ZM109.479 317.385C109.594 317.43 109.869 317.558 109.895 317.906C109.927 318.285 109.901 318.632 110.004 318.863L110.369 319.011C110.318 318.818 110.279 318.368 110.273 318.253C110.253 317.693 110.138 317.539 109.824 317.359C110.145 317.423 110.324 317.25 110.324 316.922C110.324 316.581 110.151 316.163 109.664 315.971L108.717 315.591V318.349L109.069 318.491V317.224L109.479 317.391V317.385Z" fill="white"/>
</g>
<path d="M279 240.315H382" stroke="#00C8B5" stroke-width="1.5"/>
<path d="M379 238.63C379 237.904 379.59 237.315 380.319 237.315L383.681 237.315C384.41 237.315 385 237.904 385 238.63L385 242C385 242.727 384.41 243.315 383.681 243.315L379 243.315L379 238.63Z" fill="#00C8B5"/>
<path d="M732 240.315L629 240.315" stroke="#006058" stroke-width="1.5"/>
<path d="M735 242C735 242.727 734.41 243.315 733.681 243.315L730.319 243.315C729.59 243.315 729 242.727 729 242L729 238.63C729 237.904 729.59 237.315 730.319 237.315L735 237.315L735 242Z" fill="#006058"/>
<path d="M798.334 3.51543L798.334 13.3154L796.416 13.3154L796.416 6.95943L793.658 11.5094L793.434 11.5094L790.676 6.97343L790.676 13.3154L788.744 13.3154L788.744 3.51543L790.732 3.51543L793.546 8.14943L796.346 3.51543L798.334 3.51543ZM807.02 13.3154L806.432 11.5514L802.526 11.5514L801.938 13.3154L799.852 13.3154L803.282 3.51543L805.676 3.51543L809.12 13.3154L807.02 13.3154ZM803.142 9.74543L805.83 9.74543L804.486 5.74143L803.142 9.74543ZM816.007 13.3154L814.033 9.91343L812.563 9.91343L812.563 13.3154L810.631 13.3154L810.631 3.51543L814.551 3.51543C815.457 3.51543 816.227 3.83276 816.861 4.46743C817.496 5.1021 817.813 5.86743 817.813 6.76343C817.813 7.3701 817.641 7.93476 817.295 8.45743C816.95 8.97076 816.493 9.3581 815.923 9.61943L818.093 13.3154L816.007 13.3154ZM812.563 5.32143L812.563 8.21943L814.551 8.21943C814.915 8.21943 815.228 8.07943 815.489 7.79943C815.751 7.5101 815.881 7.16476 815.881 6.76343C815.881 6.3621 815.751 6.02143 815.489 5.74143C815.228 5.46143 814.915 5.32143 814.551 5.32143L812.563 5.32143ZM827.449 13.3154L825.223 13.3154L821.723 8.72343L821.723 13.3154L819.791 13.3154L819.791 3.51543L821.723 3.51543L821.723 7.84143L825.083 3.51543L827.309 3.51543L823.683 8.27543L827.449 13.3154ZM830.896 11.4674L835.026 11.4674L835.026 13.3154L828.964 13.3154L828.964 3.51543L834.956 3.51543L834.956 5.36343L830.896 5.36343L830.896 7.44943L834.606 7.44943L834.606 9.26943L830.896 9.26943L830.896 11.4674ZM843.43 3.51543L843.43 5.36343L840.784 5.36343L840.784 13.3154L838.852 13.3154L838.852 5.36343L836.22 5.36343L836.22 3.51543L843.43 3.51543ZM848.723 3.51543C849.665 3.51543 850.459 3.83277 851.103 4.46743C851.747 5.1021 852.069 5.88143 852.069 6.80543C852.069 7.72943 851.747 8.50877 851.103 9.14343C850.459 9.7781 849.665 10.0954 848.723 10.0954L847.001 10.0954L847.001 13.3154L845.069 13.3154L845.069 3.51543L848.723 3.51543ZM848.723 8.28943C849.133 8.28943 849.474 8.14943 849.745 7.86943C850.015 7.5801 850.151 7.22543 850.151 6.80543C850.151 6.3761 850.015 6.02143 849.745 5.74143C849.474 5.46143 849.133 5.32143 848.723 5.32143L847.001 5.32143L847.001 8.28943L848.723 8.28943ZM855.818 11.4674L859.556 11.4674L859.556 13.3154L853.886 13.3154L853.886 3.51543L855.818 3.51543L855.818 11.4674ZM867.787 13.3154L867.199 11.5514L863.293 11.5514L862.705 13.3154L860.619 13.3154L864.049 3.51543L866.443 3.51543L869.887 13.3154L867.787 13.3154ZM863.909 9.74543L866.597 9.74543L865.253 5.74143L863.909 9.74543ZM875.692 13.5114C874.217 13.5114 872.999 13.0214 872.038 12.0414C871.076 11.0614 870.596 9.85277 870.596 8.41543C870.596 6.96877 871.076 5.7601 872.038 4.78943C872.999 3.80943 874.217 3.31943 875.692 3.31943C876.578 3.31943 877.395 3.52943 878.142 3.94943C878.898 4.3601 879.486 4.9201 879.906 5.62943L878.24 6.59543C877.997 6.15677 877.652 5.8161 877.204 5.57343C876.756 5.32143 876.252 5.19543 875.692 5.19543C874.74 5.19543 873.97 5.4941 873.382 6.09143C872.803 6.68877 872.514 7.46343 872.514 8.41543C872.514 9.3581 872.803 10.1281 873.382 10.7254C873.97 11.3228 874.74 11.6214 875.692 11.6214C876.252 11.6214 876.756 11.5001 877.204 11.2574C877.661 11.0054 878.006 10.6648 878.24 10.2354L879.906 11.2014C879.486 11.9108 878.902 12.4754 878.156 12.8954C877.409 13.3061 876.588 13.5114 875.692 13.5114ZM883.584 11.4674L887.714 11.4674L887.714 13.3154L881.652 13.3154L881.652 3.51543L887.644 3.51543L887.644 5.36343L883.584 5.36343L883.584 7.44943L887.294 7.44943L887.294 9.26943L883.584 9.26943L883.584 11.4674Z" fill="#54747E"/>
<path d="M422.061 12.5114C423.111 12.5114 423.965 12.2454 424.623 11.7134C425.281 11.1814 425.617 10.4674 425.617 9.55743C425.617 8.99743 425.463 8.50743 425.253 8.17143C425.071 7.83543 424.623 7.48543 424.329 7.30343C424.189 7.20543 423.979 7.10743 423.713 7.00943C423.447 6.89743 423.237 6.81343 423.083 6.77143L422.411 6.54743C421.683 6.32343 421.193 6.11343 420.927 5.93143C420.675 5.73543 420.549 5.48343 420.549 5.17543C420.549 4.60143 421.039 4.19543 421.837 4.19543C422.691 4.19543 423.321 4.61543 423.713 5.45543L425.337 4.51743C424.665 3.13143 423.419 2.31943 421.837 2.31943C420.955 2.31943 420.185 2.58543 419.555 3.11743C418.925 3.63543 418.617 4.34943 418.617 5.23143C418.617 6.12743 418.939 6.79943 419.541 7.24743C420.157 7.68143 420.689 7.89143 421.571 8.15743C422.369 8.38143 422.915 8.59143 423.223 8.78743C423.531 8.96943 423.685 9.23543 423.685 9.58543C423.685 10.1874 423.195 10.6214 422.117 10.6214C420.997 10.6214 420.241 10.1174 419.863 9.12343L418.211 10.0894C418.757 11.5874 420.115 12.5114 422.061 12.5114ZM432.571 2.51543L430.443 6.60343L428.315 2.51543L426.131 2.51543L429.477 8.49343L429.477 12.3154L431.395 12.3154L431.395 8.49343L434.755 2.51543L432.571 2.51543ZM439.04 12.5114C440.09 12.5114 440.944 12.2454 441.602 11.7134C442.26 11.1814 442.596 10.4674 442.596 9.55743C442.596 8.99743 442.442 8.50743 442.232 8.17143C442.05 7.83543 441.602 7.48543 441.308 7.30343C441.168 7.20543 440.958 7.10743 440.692 7.00943C440.426 6.89743 440.216 6.81343 440.062 6.77143L439.39 6.54743C438.662 6.32343 438.172 6.11343 437.906 5.93143C437.654 5.73543 437.528 5.48343 437.528 5.17543C437.528 4.60143 438.018 4.19543 438.816 4.19543C439.67 4.19543 440.3 4.61543 440.692 5.45543L442.316 4.51743C441.644 3.13143 440.398 2.31943 438.816 2.31943C437.934 2.31943 437.164 2.58543 436.534 3.11743C435.904 3.63543 435.596 4.34943 435.596 5.23143C435.596 6.12743 435.918 6.79943 436.52 7.24743C437.136 7.68143 437.668 7.89143 438.55 8.15743C439.348 8.38143 439.894 8.59143 440.202 8.78743C440.51 8.96943 440.664 9.23543 440.664 9.58543C440.664 10.1874 440.174 10.6214 439.096 10.6214C437.976 10.6214 437.22 10.1174 436.842 9.12343L435.19 10.0894C435.736 11.5874 437.094 12.5114 439.04 12.5114ZM443.333 2.51543L443.333 4.36343L445.965 4.36343L445.965 12.3154L447.897 12.3154L447.897 4.36343L450.543 4.36343L450.543 2.51543L443.333 2.51543ZM454.113 8.26943L457.823 8.26943L457.823 6.44943L454.113 6.44943L454.113 4.36343L458.173 4.36343L458.173 2.51543L452.181 2.51543L452.181 12.3154L458.243 12.3154L458.243 10.4674L454.113 10.4674L454.113 8.26943ZM467.767 2.51543L464.967 7.14943L462.153 2.51543L460.165 2.51543L460.165 12.3154L462.097 12.3154L462.097 5.97343L464.855 10.5094L465.079 10.5094L467.837 5.95943L467.837 12.3154L469.755 12.3154L469.755 2.51543L467.767 2.51543ZM484.447 11.0414C485.441 10.0474 485.931 8.84343 485.931 7.41543C485.931 5.98743 485.441 4.78343 484.447 3.80343C483.453 2.80943 482.249 2.31943 480.835 2.31943C479.421 2.31943 478.217 2.80943 477.223 3.80343C476.243 4.78343 475.753 5.98743 475.753 7.41543C475.753 8.84343 476.243 10.0474 477.223 11.0414C478.217 12.0214 479.421 12.5114 480.835 12.5114C482.249 12.5114 483.453 12.0214 484.447 11.0414ZM478.581 9.72543C477.979 9.12343 477.671 8.35343 477.671 7.41543C477.671 6.47743 477.979 5.70743 478.581 5.10543C479.183 4.50343 479.939 4.19543 480.835 4.19543C481.731 4.19543 482.487 4.50343 483.089 5.10543C483.691 5.70743 483.999 6.47743 483.999 7.41543C483.999 8.35343 483.691 9.12343 483.089 9.72543C482.487 10.3274 481.731 10.6214 480.835 10.6214C479.939 10.6214 479.183 10.3274 478.581 9.72543ZM493.701 2.51543L487.849 2.51543L487.849 12.3154L489.781 12.3154L489.781 8.53543L493.589 8.53543L493.589 6.68743L489.781 6.68743L489.781 4.36343L493.701 4.36343L493.701 2.51543ZM507.191 12.3154L505.021 8.61943C506.155 8.10143 506.911 6.98143 506.911 5.76343C506.911 4.86743 506.589 4.09743 505.959 3.46743C505.329 2.83743 504.559 2.51543 503.649 2.51543L499.729 2.51543L499.729 12.3154L501.661 12.3154L501.661 8.91343L503.131 8.91343L505.105 12.3154L507.191 12.3154ZM503.649 4.32143C504.377 4.32143 504.979 4.96543 504.979 5.76343C504.979 6.56143 504.377 7.21943 503.649 7.21943L501.661 7.21943L501.661 4.32143L503.649 4.32143ZM510.821 8.26943L514.531 8.26943L514.531 6.44943L510.821 6.44943L510.821 4.36343L514.881 4.36343L514.881 2.51543L508.889 2.51543L508.889 12.3154L514.951 12.3154L514.951 10.4674L510.821 10.4674L510.821 8.26943ZM521.452 12.5114C523.244 12.5114 524.826 11.6154 525.666 10.2014L524 9.23543C523.538 10.0894 522.572 10.6214 521.452 10.6214C520.5 10.6214 519.73 10.3274 519.142 9.72543C518.568 9.12343 518.274 8.35343 518.274 7.41543C518.274 6.46343 518.568 5.69343 519.142 5.09143C519.73 4.48943 520.5 4.19543 521.452 4.19543C522.572 4.19543 523.51 4.71343 524 5.59543L525.666 4.62943C524.826 3.21543 523.23 2.31943 521.452 2.31943C519.982 2.31943 518.764 2.80943 517.798 3.78943C516.832 4.75543 516.356 5.97343 516.356 7.41543C516.356 8.85743 516.832 10.0614 517.798 11.0414C518.764 12.0214 519.982 12.5114 521.452 12.5114ZM535.563 11.0414C536.557 10.0474 537.047 8.84343 537.047 7.41543C537.047 5.98743 536.557 4.78343 535.563 3.80343C534.569 2.80943 533.365 2.31943 531.951 2.31943C530.537 2.31943 529.333 2.80943 528.339 3.80343C527.359 4.78343 526.869 5.98743 526.869 7.41543C526.869 8.84343 527.359 10.0474 528.339 11.0414C529.333 12.0214 530.537 12.5114 531.951 12.5114C533.365 12.5114 534.569 12.0214 535.563 11.0414ZM529.697 9.72543C529.095 9.12343 528.787 8.35343 528.787 7.41543C528.787 6.47743 529.095 5.70743 529.697 5.10543C530.299 4.50343 531.055 4.19543 531.951 4.19543C532.847 4.19543 533.603 4.50343 534.205 5.10543C534.807 5.70743 535.115 6.47743 535.115 7.41543C535.115 8.35343 534.807 9.12343 534.205 9.72543C533.603 10.3274 532.847 10.6214 531.951 10.6214C531.055 10.6214 530.299 10.3274 529.697 9.72543ZM546.427 12.3154L544.257 8.61943C545.391 8.10143 546.147 6.98143 546.147 5.76343C546.147 4.86743 545.825 4.09743 545.195 3.46743C544.565 2.83743 543.795 2.51543 542.885 2.51543L538.965 2.51543L538.965 12.3154L540.897 12.3154L540.897 8.91343L542.367 8.91343L544.341 12.3154L546.427 12.3154ZM542.885 4.32143C543.613 4.32143 544.215 4.96543 544.215 5.76343C544.215 6.56143 543.613 7.21943 542.885 7.21943L540.897 7.21943L540.897 4.32143L542.885 4.32143ZM548.125 2.51543L548.125 12.3154L552.017 12.3154C553.361 12.3154 554.481 11.8394 555.377 10.9014C556.287 9.96343 556.735 8.80143 556.735 7.41543C556.735 6.02943 556.287 4.86743 555.377 3.92943C554.481 2.99143 553.361 2.51543 552.017 2.51543L548.125 2.51543ZM550.057 10.4674L550.057 4.36343L552.017 4.36343C552.871 4.36343 553.557 4.64343 554.089 5.21743C554.621 5.77743 554.887 6.50543 554.887 7.41543C554.887 8.32543 554.621 9.05343 554.089 9.62743C553.557 10.1874 552.871 10.4674 552.017 10.4674L550.057 10.4674Z" fill="#54747E"/>
<path d="M93.3851 7.23343C94.0011 6.74343 94.3091 6.08543 94.3091 5.27343C94.3091 4.47543 94.0151 3.81743 93.4411 3.29943C92.8671 2.78143 92.1671 2.51543 91.3271 2.51543L87.4631 2.51543L87.4631 12.3154L91.6211 12.3154C92.4751 12.3154 93.2031 12.0494 93.7911 11.5174C94.3791 10.9854 94.6731 10.2994 94.6731 9.47343C94.6731 8.47943 94.2391 7.72343 93.3851 7.23343ZM91.3271 4.32143C91.9431 4.32143 92.3771 4.78343 92.3771 5.39943C92.3771 6.01543 91.9291 6.47743 91.3271 6.47743L89.3951 6.47743L89.3951 4.32143L91.3271 4.32143ZM89.3951 10.5094L89.3951 8.19943L91.6211 8.19943C92.2791 8.19943 92.7551 8.68943 92.7551 9.34743C92.7551 10.0194 92.2791 10.5094 91.6211 10.5094L89.3951 10.5094ZM100.085 12.5114C101.191 12.5114 102.087 12.2034 102.787 11.5874C103.487 10.9714 103.837 10.1454 103.837 9.10943L103.837 2.51543L101.905 2.51543L101.905 8.95543C101.905 9.97743 101.331 10.6214 100.085 10.6214C98.8393 10.6214 98.2653 9.97743 98.2653 8.95543L98.2653 2.51543L96.3473 2.51543L96.3473 9.10943C96.3473 10.1454 96.6973 10.9714 97.3973 11.5874C98.0973 12.2034 98.9933 12.5114 100.085 12.5114ZM106.138 12.3154L108.07 12.3154L108.07 2.51543L106.138 2.51543L106.138 12.3154ZM112.376 2.51543L110.444 2.51543L110.444 12.3154L116.114 12.3154L116.114 10.4674L112.376 10.4674L112.376 2.51543ZM117.771 2.51543L117.771 12.3154L121.663 12.3154C123.007 12.3154 124.127 11.8394 125.023 10.9014C125.933 9.96343 126.381 8.80143 126.381 7.41543C126.381 6.02943 125.933 4.86743 125.023 3.92943C124.127 2.99143 123.007 2.51543 121.663 2.51543L117.771 2.51543ZM119.703 10.4674L119.703 4.36343L121.663 4.36343C122.517 4.36343 123.203 4.64343 123.735 5.21743C124.267 5.77743 124.533 6.50543 124.533 7.41543C124.533 8.32543 124.267 9.05343 123.735 9.62743C123.203 10.1874 122.517 10.4674 121.663 10.4674L119.703 10.4674ZM128.312 12.3154L130.244 12.3154L130.244 2.51543L128.312 2.51543L128.312 12.3154ZM138.288 8.49343L134.088 2.51543L132.618 2.51543L132.618 12.3154L134.55 12.3154L134.55 6.32343L138.75 12.3154L140.22 12.3154L140.22 2.51543L138.288 2.51543L138.288 8.49343ZM147.302 7.05143L147.302 8.75943L150.27 8.75943C149.92 9.92143 148.912 10.6214 147.414 10.6214C146.406 10.6214 145.594 10.3274 144.978 9.72543C144.376 9.12343 144.068 8.35343 144.068 7.42943C144.068 6.49143 144.362 5.72143 144.964 5.11943C145.566 4.50343 146.336 4.19543 147.274 4.19543C148.436 4.19543 149.444 4.75543 149.906 5.55343L151.558 4.60143C150.718 3.21543 149.122 2.31943 147.288 2.31943C145.832 2.31943 144.614 2.80943 143.62 3.80343C142.64 4.79743 142.15 6.00143 142.15 7.42943C142.15 8.84343 142.64 10.0474 143.634 11.0414C144.628 12.0214 145.888 12.5114 147.4 12.5114C148.814 12.5114 149.976 12.0774 150.872 11.2094C151.768 10.3414 152.216 9.20743 152.216 7.80743L152.216 7.05143L147.302 7.05143ZM158.21 2.51543L158.21 12.3154L162.102 12.3154C163.446 12.3154 164.566 11.8394 165.462 10.9014C166.372 9.96343 166.82 8.80143 166.82 7.41543C166.82 6.02943 166.372 4.86743 165.462 3.92943C164.566 2.99143 163.446 2.51543 162.102 2.51543L158.21 2.51543ZM160.142 10.4674L160.142 4.36343L162.102 4.36343C162.956 4.36343 163.642 4.64343 164.174 5.21743C164.706 5.77743 164.972 6.50543 164.972 7.41543C164.972 8.32543 164.706 9.05343 164.174 9.62743C163.642 10.1874 162.956 10.4674 162.102 10.4674L160.142 10.4674ZM176.795 12.3154L173.351 2.51543L170.957 2.51543L167.527 12.3154L169.613 12.3154L170.201 10.5514L174.107 10.5514L174.695 12.3154L176.795 12.3154ZM172.161 4.74143L173.505 8.74543L170.817 8.74543L172.161 4.74143ZM176.868 2.51543L176.868 4.36343L179.5 4.36343L179.5 12.3154L181.432 12.3154L181.432 4.36343L184.078 4.36343L184.078 2.51543L176.868 2.51543ZM193.405 12.3154L189.961 2.51543L187.567 2.51543L184.137 12.3154L186.223 12.3154L186.811 10.5514L190.717 10.5514L191.305 12.3154L193.405 12.3154ZM188.771 4.74143L190.115 8.74543L187.427 8.74543L188.771 4.74143Z" fill="#54747E"/>
<defs>
<clipPath id="clip0_830_8420">
<rect width="34.9738" height="35" fill="white" transform="translate(884.706 180.315)"/>
</clipPath>
<clipPath id="clip1_830_8420">
<rect width="33.2583" height="35" fill="white" transform="translate(759 180.315)"/>
</clipPath>
<clipPath id="clip2_830_8420">
<rect width="32.4483" height="35" fill="white" transform="translate(822.258 180.315)"/>
</clipPath>
<clipPath id="clip3_830_8420">
<rect width="35" height="35" fill="white" transform="translate(886 297.315)"/>
</clipPath>
<clipPath id="clip4_830_8420">
<rect width="32" height="32" fill="white" transform="translate(473 94.3154)"/>
</clipPath>
<clipPath id="clip5_830_8420">
<rect width="32" height="32" fill="white" transform="translate(426 94.3154)"/>
</clipPath>
<clipPath id="clip6_830_8420">
<rect width="24.1888" height="19.4324" fill="white" transform="translate(109.408 65.8237) rotate(-1.20361)"/>
</clipPath>
<clipPath id="clip7_830_8420">
<rect width="24.1888" height="19.4324" fill="white" transform="translate(88 74.0576) rotate(-1.20361)"/>
</clipPath>
<clipPath id="clip8_830_8420">
<rect width="11.1949" height="16.3348" fill="white" transform="translate(175 302.958)"/>
</clipPath>
<clipPath id="clip9_830_8420">
<rect width="26" height="36" fill="white" transform="translate(88 286.315)"/>
</clipPath>
</defs>
</svg>
