<svg width="330" height="944" viewBox="0 0 330 944" fill="none" xmlns="http://www.w3.org/2000/svg">
<path d="M90.0001 704H269.61C302.748 704 329.61 730.863 329.61 764V883.61C329.61 916.747 302.748 943.61 269.61 943.61H150C116.863 943.61 90.0001 916.747 90.0001 883.61V704Z" fill="#001D23"/>
<path opacity="0.08" d="M279.977 824.223L139.633 824.223" stroke="white" stroke-width="1.5"/>
<g clip-path="url(#clip0_832_16221)">
<path d="M252.284 797.837L251.772 793.844L255.766 794.937" stroke="white" stroke-width="2" stroke-miterlimit="10" stroke-linecap="square"/>
<path d="M252.77 794.317C254.197 797.091 256.495 799.299 259.298 800.588C262.1 801.877 265.245 802.173 268.232 801.43C271.219 800.686 273.876 798.945 275.778 796.484C277.68 794.024 278.719 790.985 278.728 787.854" stroke="white" stroke-width="2" stroke-miterlimit="10"/>
<path d="M277.218 777.87L277.73 781.864L273.736 780.771" stroke="white" stroke-width="2" stroke-miterlimit="10" stroke-linecap="square"/>
<path d="M276.731 781.39C275.304 778.616 273.007 776.408 270.204 775.119C267.402 773.83 264.256 773.534 261.269 774.278C258.283 775.021 255.626 776.762 253.724 779.223C251.822 781.683 250.783 784.722 250.774 787.854" stroke="white" stroke-width="2" stroke-miterlimit="10"/>
<path d="M265.207 788.536C265.072 788.626 264.913 788.674 264.751 788.674C264.534 788.674 264.325 788.587 264.171 788.434C264.017 788.28 263.931 788.071 263.931 787.854C263.931 787.691 263.979 787.533 264.069 787.398C264.159 787.263 264.287 787.158 264.437 787.096C264.587 787.034 264.752 787.018 264.911 787.049C265.07 787.081 265.216 787.159 265.331 787.274C265.446 787.388 265.524 787.535 265.556 787.694C265.587 787.853 265.571 788.018 265.509 788.168C265.447 788.317 265.342 788.446 265.207 788.536Z" stroke="#00CC8F" stroke-width="2.35305" stroke-miterlimit="10" stroke-linecap="square"/>
<path d="M270.786 787.872C270.788 787.451 270.739 787.031 270.641 786.621L272.7 785.15L271.175 782.619L268.796 783.582C268.152 783.013 267.387 782.586 266.554 782.332L266.241 779.867H263.191L262.879 782.332C262.046 782.586 261.281 783.013 260.637 783.582L258.289 782.589L256.764 785.113L258.815 786.584C258.632 787.409 258.632 788.262 258.815 789.086L256.764 790.558L258.289 793.089L260.668 792.118C261.311 792.689 262.076 793.118 262.909 793.376L263.222 795.841H266.272L266.584 793.376C267.417 793.118 268.182 792.689 268.826 792.118L271.213 793.089L272.738 790.558L270.687 789.086C270.778 788.675 270.824 788.256 270.824 787.835L270.786 787.872Z" stroke="white" stroke-width="2" stroke-miterlimit="10" stroke-linecap="square"/>
</g>
<g clip-path="url(#clip1_832_16221)">
<path d="M156.426 796.122L158.573 795.153L163.171 793.089L165.183 789.244" stroke="#00CC8F" stroke-width="2.35305" stroke-miterlimit="10"/>
<path d="M166.87 788.834C167.534 788.005 167.641 786.988 167.111 786.564C166.581 786.14 165.613 786.468 164.95 787.297C164.287 788.127 164.179 789.143 164.709 789.567C165.239 789.991 166.207 789.663 166.87 788.834Z" stroke="#00CC8F" stroke-width="2.35305" stroke-miterlimit="10" stroke-linecap="square"/>
<path d="M165.883 781.531L163.744 780.554L159.154 778.475L154.936 779.511" stroke="#00CC8F" stroke-width="2.35305" stroke-miterlimit="10"/>
<path d="M153.619 781.029C154.68 780.978 155.513 780.387 155.481 779.709C155.448 779.031 154.562 778.522 153.502 778.573C152.441 778.623 151.607 779.214 151.64 779.893C151.672 780.571 152.558 781.08 153.619 781.029Z" stroke="#00CC8F" stroke-width="2.35305" stroke-miterlimit="10" stroke-linecap="square"/>
<path d="M147.089 781.978V784.333V789.371L149.772 792.784" stroke="#00CC8F" stroke-width="2.35305" stroke-miterlimit="10"/>
<path d="M151.466 795.637C152.07 795.327 152.168 794.31 151.684 793.365C151.2 792.42 150.317 791.904 149.713 792.214C149.108 792.523 149.011 793.541 149.495 794.486C149.979 795.431 150.861 795.946 151.466 795.637Z" stroke="#00CC8F" stroke-width="2.35305" stroke-miterlimit="10" stroke-linecap="square"/>
<path d="M142.944 779.765L156.426 785.831L169.915 779.765" stroke="white" stroke-width="2" stroke-miterlimit="10"/>
<path d="M156.434 785.831V802.018" stroke="white" stroke-width="2" stroke-miterlimit="10"/>
<path d="M169.915 795.943L156.426 802.017L142.944 795.943V779.764L156.426 773.698L169.915 779.764V795.943Z" stroke="white" stroke-width="2" stroke-miterlimit="10" stroke-linecap="square"/>
</g>
<g clip-path="url(#clip2_832_16221)">
<path d="M223.126 802.041L220.074 798.99" stroke="white" stroke-width="2" stroke-miterlimit="10"/>
<path d="M202.536 787.004H206.652L208.711 783.079L211.455 790.93L213.513 787.004H217.629" stroke="#00CC8F" stroke-width="2" stroke-miterlimit="10"/>
<path d="M210.216 799.694C217.346 799.694 223.125 793.914 223.125 786.785C223.125 779.655 217.346 773.876 210.216 773.876C203.087 773.876 197.308 779.655 197.308 786.785C197.308 793.914 203.087 799.694 210.216 799.694Z" stroke="white" stroke-width="2" stroke-miterlimit="10"/>
</g>
<path d="M148.977 849.979V851.563H151.233V858.379H152.889V851.563H155.157V849.979H148.977ZM159.106 852.211C158.29 852.211 157.69 852.487 157.318 853.051V849.979H155.77V858.379H157.318V855.139C157.318 854.143 157.834 853.651 158.638 853.651C159.358 853.651 159.826 854.083 159.826 854.887V858.379H161.374V854.695C161.374 853.915 161.158 853.315 160.726 852.871C160.306 852.427 159.766 852.211 159.106 852.211ZM163.223 851.659C163.751 851.659 164.183 851.227 164.183 850.711C164.183 850.195 163.751 849.751 163.223 849.751C162.707 849.751 162.275 850.195 162.275 850.711C162.275 851.227 162.707 851.659 163.223 851.659ZM164.003 858.379V852.379H162.455V858.379H164.003ZM166.728 852.379H165.18V858.379H166.728V855.511C166.728 854.935 166.908 854.527 167.28 854.275C167.652 854.023 168.084 853.927 168.552 853.987V852.259C167.736 852.259 167.016 852.643 166.728 853.411V852.379ZM173.543 853.087C173.087 852.499 172.439 852.211 171.599 852.211C170.795 852.211 170.099 852.523 169.523 853.135C168.959 853.747 168.671 854.491 168.671 855.379C168.671 856.267 168.959 857.023 169.523 857.635C170.099 858.247 170.795 858.547 171.599 858.547C172.439 858.547 173.087 858.259 173.543 857.671V858.379H175.091V849.979H173.543V853.087ZM170.687 856.603C170.375 856.279 170.219 855.871 170.219 855.379C170.219 854.887 170.375 854.479 170.687 854.167C171.011 853.843 171.407 853.687 171.887 853.687C172.367 853.687 172.763 853.843 173.075 854.167C173.387 854.479 173.543 854.887 173.543 855.379C173.543 855.871 173.387 856.279 173.075 856.603C172.763 856.915 172.367 857.071 171.887 857.071C171.407 857.071 171.011 856.915 170.687 856.603ZM180.839 855.499V854.011H176.339V855.499H180.839ZM182.157 849.979V858.379H183.813V855.619H185.289C186.093 855.619 186.777 855.343 187.329 854.803C187.881 854.263 188.157 853.591 188.157 852.799C188.157 852.007 187.881 851.335 187.329 850.795C186.777 850.255 186.093 849.979 185.289 849.979H182.157ZM183.813 854.071V851.527H185.289C185.997 851.527 186.513 852.067 186.513 852.799C186.513 853.519 185.997 854.071 185.289 854.071H183.813ZM193.085 853.087C192.617 852.499 191.969 852.211 191.129 852.211C190.325 852.211 189.641 852.523 189.065 853.135C188.501 853.747 188.213 854.491 188.213 855.379C188.213 856.267 188.501 857.023 189.065 857.635C189.641 858.247 190.325 858.547 191.129 858.547C191.969 858.547 192.617 858.259 193.085 857.671V858.379H194.633V852.379H193.085V853.087ZM190.229 856.603C189.917 856.279 189.761 855.871 189.761 855.379C189.761 854.887 189.917 854.479 190.229 854.167C190.541 853.843 190.937 853.687 191.417 853.687C191.897 853.687 192.293 853.843 192.605 854.167C192.929 854.479 193.085 854.887 193.085 855.379C193.085 855.871 192.929 856.279 192.605 856.603C192.293 856.915 191.897 857.071 191.417 857.071C190.937 857.071 190.541 856.915 190.229 856.603ZM197.345 852.379H195.797V858.379H197.345V855.511C197.345 854.935 197.525 854.527 197.897 854.275C198.269 854.023 198.701 853.927 199.169 853.987V852.259C198.353 852.259 197.633 852.643 197.345 853.411V852.379ZM203.43 852.379H202.074V850.699L200.526 851.167V852.379H199.482V853.867H200.526V856.363C200.526 858.007 201.306 858.619 203.43 858.379V856.975C202.542 857.023 202.074 857.011 202.074 856.363V853.867H203.43V852.379ZM206.99 856.411L205.43 852.379H203.738L206.198 858.187C205.91 859.003 205.454 859.351 204.626 859.339V860.779C206.162 860.863 207.17 860.107 207.794 858.379L209.978 852.379H208.322L206.99 856.411ZM220.507 858.379L217.555 849.979H215.503L212.563 858.379H214.351L214.855 856.867H218.203L218.707 858.379H220.507ZM216.535 851.887L217.687 855.319H215.383L216.535 851.887ZM224.503 852.211C223.663 852.211 223.015 852.499 222.559 853.087V852.379H221.011V860.779H222.559V857.671C223.015 858.259 223.663 858.547 224.503 858.547C225.307 858.547 226.003 858.247 226.567 857.635C227.143 857.023 227.431 856.267 227.431 855.379C227.431 854.491 227.143 853.747 226.567 853.135C226.003 852.523 225.307 852.211 224.503 852.211ZM223.027 856.603C222.715 856.279 222.559 855.871 222.559 855.379C222.559 854.887 222.715 854.479 223.027 854.167C223.339 853.843 223.735 853.687 224.215 853.687C224.695 853.687 225.091 853.843 225.403 854.167C225.727 854.479 225.883 854.887 225.883 855.379C225.883 855.871 225.727 856.279 225.403 856.603C225.091 856.915 224.695 857.071 224.215 857.071C223.735 857.071 223.339 856.915 223.027 856.603ZM231.775 852.211C230.935 852.211 230.287 852.499 229.831 853.087V852.379H228.283V860.779H229.831V857.671C230.287 858.259 230.935 858.547 231.775 858.547C232.579 858.547 233.275 858.247 233.839 857.635C234.415 857.023 234.703 856.267 234.703 855.379C234.703 854.491 234.415 853.747 233.839 853.135C233.275 852.523 232.579 852.211 231.775 852.211ZM230.299 856.603C229.987 856.279 229.831 855.871 229.831 855.379C229.831 854.887 229.987 854.479 230.299 854.167C230.611 853.843 231.007 853.687 231.487 853.687C231.967 853.687 232.363 853.843 232.675 854.167C232.999 854.479 233.155 854.887 233.155 855.379C233.155 855.871 232.999 856.279 232.675 856.603C232.363 856.915 231.967 857.071 231.487 857.071C231.007 857.071 230.611 856.915 230.299 856.603ZM237.102 858.379V849.619H235.554V858.379H237.102ZM239.047 851.659C239.575 851.659 240.007 851.227 240.007 850.711C240.007 850.195 239.575 849.751 239.047 849.751C238.531 849.751 238.099 850.195 238.099 850.711C238.099 851.227 238.531 851.659 239.047 851.659ZM239.827 858.379V852.379H238.279V858.379H239.827ZM243.86 858.547C245.024 858.547 246.044 857.935 246.572 856.987L245.228 856.219C244.988 856.711 244.472 857.011 243.848 857.011C243.38 857.011 242.996 856.855 242.696 856.555C242.396 856.243 242.24 855.847 242.24 855.379C242.24 854.419 242.924 853.735 243.848 853.735C244.46 853.735 244.976 854.047 245.216 854.539L246.548 853.759C246.056 852.811 245.024 852.211 243.86 852.211C242.96 852.211 242.204 852.511 241.592 853.123C240.992 853.735 240.692 854.479 240.692 855.379C240.692 856.279 240.992 857.023 241.592 857.635C242.204 858.247 242.96 858.547 243.86 858.547ZM251.617 853.087C251.149 852.499 250.501 852.211 249.661 852.211C248.857 852.211 248.173 852.523 247.597 853.135C247.033 853.747 246.745 854.491 246.745 855.379C246.745 856.267 247.033 857.023 247.597 857.635C248.173 858.247 248.857 858.547 249.661 858.547C250.501 858.547 251.149 858.259 251.617 857.671V858.379H253.165V852.379H251.617V853.087ZM248.761 856.603C248.449 856.279 248.293 855.871 248.293 855.379C248.293 854.887 248.449 854.479 248.761 854.167C249.073 853.843 249.469 853.687 249.949 853.687C250.429 853.687 250.825 853.843 251.137 854.167C251.461 854.479 251.617 854.887 251.617 855.379C251.617 855.871 251.461 856.279 251.137 856.603C250.825 856.915 250.429 857.071 249.949 857.071C249.469 857.071 249.073 856.915 248.761 856.603ZM257.761 852.379H256.405V850.699L254.857 851.167V852.379H253.813V853.867H254.857V856.363C254.857 858.007 255.637 858.619 257.761 858.379V856.975C256.873 857.023 256.405 857.011 256.405 856.363V853.867H257.761V852.379ZM259.38 851.659C259.908 851.659 260.34 851.227 260.34 850.711C260.34 850.195 259.908 849.751 259.38 849.751C258.864 849.751 258.432 850.195 258.432 850.711C258.432 851.227 258.864 851.659 259.38 851.659ZM260.16 858.379V852.379H258.612V858.379H260.16ZM266.449 857.635C267.061 857.023 267.373 856.267 267.373 855.379C267.373 854.491 267.061 853.747 266.449 853.135C265.837 852.523 265.081 852.211 264.193 852.211C263.305 852.211 262.549 852.523 261.937 853.135C261.325 853.747 261.025 854.491 261.025 855.379C261.025 856.267 261.325 857.023 261.937 857.635C262.549 858.247 263.305 858.547 264.193 858.547C265.081 858.547 265.837 858.247 266.449 857.635ZM263.029 856.567C262.729 856.255 262.573 855.859 262.573 855.379C262.573 854.899 262.729 854.503 263.029 854.191C263.341 853.879 263.725 853.723 264.193 853.723C264.661 853.723 265.045 853.879 265.357 854.191C265.669 854.503 265.825 854.899 265.825 855.379C265.825 855.859 265.669 856.255 265.357 856.567C265.045 856.879 264.661 857.035 264.193 857.035C263.725 857.035 263.341 856.879 263.029 856.567ZM271.558 852.211C270.742 852.211 270.142 852.487 269.77 853.051V852.379H268.222V858.379H269.77V855.139C269.77 854.143 270.286 853.651 271.09 853.651C271.81 853.651 272.278 854.083 272.278 854.887V858.379H273.826V854.695C273.826 853.915 273.61 853.315 273.178 852.871C272.758 852.427 272.218 852.211 271.558 852.211ZM276.336 854.083C276.336 853.783 276.636 853.591 277.032 853.591C277.476 853.591 277.8 853.795 277.992 854.203L279.312 853.483C278.844 852.667 278.004 852.211 277.032 852.211C276.384 852.211 275.844 852.379 275.4 852.727C274.968 853.063 274.752 853.531 274.752 854.119C274.752 855.367 275.868 855.739 276.756 855.967C277.368 856.123 277.848 856.303 277.848 856.627C277.848 856.975 277.572 857.143 277.02 857.143C276.408 857.143 276.024 856.879 275.844 856.363L274.5 857.119C274.944 858.067 275.784 858.547 277.02 858.547C277.704 858.547 278.28 858.379 278.736 858.055C279.204 857.719 279.432 857.239 279.432 856.627C279.444 855.343 278.304 854.923 277.428 854.743C276.816 854.587 276.336 854.407 276.336 854.083Z" fill="#00C8B5"/>
<path d="M159.354 753.842C159.882 753.422 160.146 752.858 160.146 752.162C160.146 751.478 159.894 750.914 159.402 750.47C158.91 750.026 158.31 749.798 157.59 749.798H154.278V758.198H157.842C158.574 758.198 159.198 757.97 159.702 757.514C160.206 757.058 160.458 756.47 160.458 755.762C160.458 754.91 160.086 754.262 159.354 753.842ZM157.59 751.346C158.118 751.346 158.49 751.742 158.49 752.27C158.49 752.798 158.106 753.194 157.59 753.194H155.934V751.346H157.59ZM155.934 756.65V754.67H157.842C158.406 754.67 158.814 755.09 158.814 755.654C158.814 756.23 158.406 756.65 157.842 756.65H155.934ZM162.779 752.198H161.231V758.198H162.779V755.33C162.779 754.754 162.959 754.346 163.331 754.094C163.703 753.842 164.135 753.746 164.603 753.806V752.078C163.787 752.078 163.067 752.462 162.779 753.23V752.198ZM169.606 752.906C169.138 752.318 168.49 752.03 167.65 752.03C166.846 752.03 166.162 752.342 165.586 752.954C165.022 753.566 164.734 754.31 164.734 755.198C164.734 756.086 165.022 756.842 165.586 757.454C166.162 758.066 166.846 758.366 167.65 758.366C168.49 758.366 169.138 758.078 169.606 757.49V758.198H171.154V752.198H169.606V752.906ZM166.75 756.422C166.438 756.098 166.282 755.69 166.282 755.198C166.282 754.706 166.438 754.298 166.75 753.986C167.062 753.662 167.458 753.506 167.938 753.506C168.418 753.506 168.814 753.662 169.126 753.986C169.45 754.298 169.606 754.706 169.606 755.198C169.606 755.69 169.45 756.098 169.126 756.422C168.814 756.734 168.418 756.89 167.938 756.89C167.458 756.89 167.062 756.734 166.75 756.422ZM175.174 758.366C176.338 758.366 177.358 757.754 177.886 756.806L176.542 756.038C176.302 756.53 175.786 756.83 175.162 756.83C174.694 756.83 174.31 756.674 174.01 756.374C173.71 756.062 173.554 755.666 173.554 755.198C173.554 754.238 174.238 753.554 175.162 753.554C175.774 753.554 176.29 753.866 176.53 754.358L177.862 753.578C177.37 752.63 176.338 752.03 175.174 752.03C174.274 752.03 173.518 752.33 172.906 752.942C172.306 753.554 172.006 754.298 172.006 755.198C172.006 756.098 172.306 756.842 172.906 757.454C173.518 758.066 174.274 758.366 175.174 758.366ZM181.896 752.198H180.54V750.518L178.992 750.986V752.198H177.948V753.686H178.992V756.182C178.992 757.826 179.772 758.438 181.896 758.198V756.794C181.008 756.842 180.54 756.83 180.54 756.182V753.686H181.896V752.198ZM184.296 758.198V749.438H182.748V758.198H184.296ZM191.305 755.834C191.341 755.606 191.365 755.402 191.365 755.198C191.365 754.298 191.077 753.554 190.501 752.942C189.937 752.33 189.205 752.03 188.329 752.03C187.405 752.03 186.637 752.33 186.049 752.942C185.461 753.542 185.161 754.298 185.161 755.198C185.161 756.11 185.461 756.866 186.061 757.466C186.661 758.066 187.453 758.366 188.449 758.366C189.601 758.366 190.477 757.934 191.065 757.082L189.817 756.362C189.517 756.758 189.061 756.962 188.473 756.962C187.549 756.962 186.985 756.59 186.781 755.834H191.305ZM186.757 754.634C186.937 753.866 187.501 753.422 188.329 753.422C189.037 753.422 189.637 753.818 189.817 754.634H186.757ZM195.462 752.198H194.106V750.518L192.558 750.986V752.198H191.514V753.686H192.558V756.182C192.558 757.826 193.338 758.438 195.462 758.198V756.794C194.574 756.842 194.106 756.83 194.106 756.182V753.686H195.462V752.198ZM206.439 758.198L203.487 749.798H201.435L198.495 758.198H200.283L200.787 756.686H204.135L204.639 758.198H206.439ZM202.467 751.706L203.619 755.138H201.315L202.467 751.706ZM210.434 752.03C209.594 752.03 208.946 752.318 208.49 752.906V752.198H206.942V760.598H208.49V757.49C208.946 758.078 209.594 758.366 210.434 758.366C211.238 758.366 211.934 758.066 212.498 757.454C213.074 756.842 213.362 756.086 213.362 755.198C213.362 754.31 213.074 753.566 212.498 752.954C211.934 752.342 211.238 752.03 210.434 752.03ZM208.958 756.422C208.646 756.098 208.49 755.69 208.49 755.198C208.49 754.706 208.646 754.298 208.958 753.986C209.27 753.662 209.666 753.506 210.146 753.506C210.626 753.506 211.022 753.662 211.334 753.986C211.658 754.298 211.814 754.706 211.814 755.198C211.814 755.69 211.658 756.098 211.334 756.422C211.022 756.734 210.626 756.89 210.146 756.89C209.666 756.89 209.27 756.734 208.958 756.422ZM217.706 752.03C216.866 752.03 216.218 752.318 215.762 752.906V752.198H214.214V760.598H215.762V757.49C216.218 758.078 216.866 758.366 217.706 758.366C218.51 758.366 219.206 758.066 219.77 757.454C220.346 756.842 220.634 756.086 220.634 755.198C220.634 754.31 220.346 753.566 219.77 752.954C219.206 752.342 218.51 752.03 217.706 752.03ZM216.23 756.422C215.918 756.098 215.762 755.69 215.762 755.198C215.762 754.706 215.918 754.298 216.23 753.986C216.542 753.662 216.938 753.506 217.418 753.506C217.898 753.506 218.294 753.662 218.606 753.986C218.93 754.298 219.086 754.706 219.086 755.198C219.086 755.69 218.93 756.098 218.606 756.422C218.294 756.734 217.898 756.89 217.418 756.89C216.938 756.89 216.542 756.734 216.23 756.422ZM223.034 758.198V749.438H221.486V758.198H223.034ZM224.979 751.478C225.507 751.478 225.939 751.046 225.939 750.53C225.939 750.014 225.507 749.57 224.979 749.57C224.463 749.57 224.031 750.014 224.031 750.53C224.031 751.046 224.463 751.478 224.979 751.478ZM225.759 758.198V752.198H224.211V758.198H225.759ZM229.791 758.366C230.955 758.366 231.975 757.754 232.503 756.806L231.159 756.038C230.919 756.53 230.403 756.83 229.779 756.83C229.311 756.83 228.927 756.674 228.627 756.374C228.327 756.062 228.171 755.666 228.171 755.198C228.171 754.238 228.855 753.554 229.779 753.554C230.391 753.554 230.907 753.866 231.147 754.358L232.479 753.578C231.987 752.63 230.955 752.03 229.791 752.03C228.891 752.03 228.135 752.33 227.523 752.942C226.923 753.554 226.623 754.298 226.623 755.198C226.623 756.098 226.923 756.842 227.523 757.454C228.135 758.066 228.891 758.366 229.791 758.366ZM237.548 752.906C237.08 752.318 236.432 752.03 235.592 752.03C234.788 752.03 234.104 752.342 233.528 752.954C232.964 753.566 232.676 754.31 232.676 755.198C232.676 756.086 232.964 756.842 233.528 757.454C234.104 758.066 234.788 758.366 235.592 758.366C236.432 758.366 237.08 758.078 237.548 757.49V758.198H239.096V752.198H237.548V752.906ZM234.692 756.422C234.38 756.098 234.224 755.69 234.224 755.198C234.224 754.706 234.38 754.298 234.692 753.986C235.004 753.662 235.4 753.506 235.88 753.506C236.36 753.506 236.756 753.662 237.068 753.986C237.392 754.298 237.548 754.706 237.548 755.198C237.548 755.69 237.392 756.098 237.068 756.422C236.756 756.734 236.36 756.89 235.88 756.89C235.4 756.89 235.004 756.734 234.692 756.422ZM243.692 752.198H242.336V750.518L240.788 750.986V752.198H239.744V753.686H240.788V756.182C240.788 757.826 241.568 758.438 243.692 758.198V756.794C242.804 756.842 242.336 756.83 242.336 756.182V753.686H243.692V752.198ZM245.312 751.478C245.84 751.478 246.272 751.046 246.272 750.53C246.272 750.014 245.84 749.57 245.312 749.57C244.796 749.57 244.364 750.014 244.364 750.53C244.364 751.046 244.796 751.478 245.312 751.478ZM246.092 758.198V752.198H244.544V758.198H246.092ZM252.38 757.454C252.992 756.842 253.304 756.086 253.304 755.198C253.304 754.31 252.992 753.566 252.38 752.954C251.768 752.342 251.012 752.03 250.124 752.03C249.236 752.03 248.48 752.342 247.868 752.954C247.256 753.566 246.956 754.31 246.956 755.198C246.956 756.086 247.256 756.842 247.868 757.454C248.48 758.066 249.236 758.366 250.124 758.366C251.012 758.366 251.768 758.066 252.38 757.454ZM248.96 756.386C248.66 756.074 248.504 755.678 248.504 755.198C248.504 754.718 248.66 754.322 248.96 754.01C249.272 753.698 249.656 753.542 250.124 753.542C250.592 753.542 250.976 753.698 251.288 754.01C251.6 754.322 251.756 754.718 251.756 755.198C251.756 755.678 251.6 756.074 251.288 756.386C250.976 756.698 250.592 756.854 250.124 756.854C249.656 756.854 249.272 756.698 248.96 756.386ZM257.489 752.03C256.673 752.03 256.073 752.306 255.701 752.87V752.198H254.153V758.198H255.701V754.958C255.701 753.962 256.217 753.47 257.021 753.47C257.741 753.47 258.209 753.902 258.209 754.706V758.198H259.757V754.514C259.757 753.734 259.541 753.134 259.109 752.69C258.689 752.246 258.149 752.03 257.489 752.03ZM262.267 753.902C262.267 753.602 262.567 753.41 262.963 753.41C263.407 753.41 263.731 753.614 263.923 754.022L265.243 753.302C264.775 752.486 263.935 752.03 262.963 752.03C262.315 752.03 261.775 752.198 261.331 752.546C260.899 752.882 260.683 753.35 260.683 753.938C260.683 755.186 261.799 755.558 262.687 755.786C263.299 755.942 263.779 756.122 263.779 756.446C263.779 756.794 263.503 756.962 262.951 756.962C262.339 756.962 261.955 756.698 261.775 756.182L260.431 756.938C260.875 757.886 261.715 758.366 262.951 758.366C263.635 758.366 264.211 758.198 264.667 757.874C265.135 757.538 265.363 757.058 265.363 756.446C265.375 755.162 264.235 754.742 263.359 754.562C262.747 754.406 262.267 754.226 262.267 753.902Z" fill="#00CC8F"/>
<g clip-path="url(#clip3_832_16221)">
<path d="M270.535 887.228H261.176V893.78H270.535V887.228Z" stroke="white" stroke-width="2" stroke-miterlimit="10" stroke-linecap="square"/>
<path d="M263.048 887.228V884.42C263.048 883.676 263.343 882.961 263.87 882.435C264.397 881.908 265.111 881.612 265.856 881.612V881.612C266.6 881.612 267.314 881.908 267.841 882.435C268.368 882.961 268.663 883.676 268.663 884.42V887.228" stroke="white" stroke-width="2" stroke-miterlimit="10" stroke-linecap="square"/>
<path d="M277.087 890.036C277.087 893.015 275.904 895.872 273.798 897.978C271.691 900.085 268.834 901.268 265.856 901.268C262.877 901.268 260.02 900.085 257.913 897.978C255.807 895.872 254.624 893.015 254.624 890.036V876.932L265.856 874.125L277.087 876.932V890.036Z" stroke="white" stroke-width="2" stroke-miterlimit="10" stroke-linecap="square"/>
</g>
<g clip-path="url(#clip4_832_16221)">
<path d="M210.233 883.297V885.481" stroke="white" stroke-width="2" stroke-miterlimit="10" stroke-linecap="square"/>
<path d="M215.224 882.361V880.177L210.232 877.057L205.24 880.218V882.361" stroke="white" stroke-width="2" stroke-miterlimit="10" stroke-linecap="square"/>
<path d="M205.24 880.177L210.232 883.297L215.224 880.177" stroke="white" stroke-width="2" stroke-miterlimit="10"/>
<path d="M201.497 888.757V894.373L196.505 891.253V885.678L201.497 882.517L206.489 885.637L201.497 888.757ZM201.497 888.757L196.505 885.678" stroke="white" stroke-width="2" stroke-miterlimit="10"/>
<path d="M218.969 888.757V894.373L223.961 891.253V885.637L218.969 882.517L213.977 885.678L218.969 888.757ZM218.969 888.757L223.961 885.637" stroke="white" stroke-width="2" stroke-miterlimit="10"/>
<path d="M210.233 894.217V899.833" stroke="white" stroke-width="2" stroke-miterlimit="10"/>
<path d="M215.224 891.097L210.232 887.976L205.24 891.137V896.712L210.232 899.832L215.224 896.712V891.097Z" stroke="white" stroke-width="2" stroke-miterlimit="10"/>
<path d="M205.24 891.097L210.232 894.217L215.224 891.097" stroke="white" stroke-width="2" stroke-miterlimit="10"/>
<path d="M210.233 894.217V899.833" stroke="white" stroke-width="2" stroke-miterlimit="10"/>
</g>
<g clip-path="url(#clip5_832_16221)">
<path d="M165.84 887.977V880.49H160.224H148.056H143.376C141.825 880.49 140.568 879.233 140.568 877.682V897.337C140.568 899.405 142.245 901.081 144.312 901.081H165.84V893.593" stroke="white" stroke-width="2" stroke-miterlimit="10" stroke-linecap="square"/>
<path d="M168.648 893.593H162.096C160.545 893.593 159.288 892.336 159.288 890.785C159.288 889.234 160.545 887.977 162.096 887.977H168.648V893.593Z" stroke="white" stroke-width="2" stroke-miterlimit="10" stroke-linecap="square"/>
<path d="M160.224 876.745V874.874H143.376C141.825 874.874 140.568 876.131 140.568 877.681C140.568 879.232 141.825 880.489 143.376 880.489" stroke="white" stroke-width="2" stroke-miterlimit="10" stroke-linecap="square"/>
</g>
<circle cx="209.804" cy="712.976" r="25.6725" fill="#00CC8F"/>
<path d="M221.656 718.689L215.657 715.225V710.727L221.656 707.264L222.441 708.625L217.229 711.635V714.318L222.441 717.328L221.656 718.689Z" fill="white"/>
<path d="M198.607 718.689L197.823 717.328L203.035 714.318V711.635L197.823 708.625L198.607 707.264L204.606 710.727V715.225L198.607 718.689Z" fill="white"/>
<path d="M214.894 709.315L210.999 707.066V700.14H212.57V706.159L214.894 707.499L220.107 704.489L220.892 705.85L214.894 709.315Z" fill="white"/>
<path d="M209.39 725.812H207.819V719.793L205.492 718.451L200.283 721.461L199.501 720.1L205.5 716.637L209.39 718.889V725.812Z" fill="white"/>
<path d="M205.492 709.315L199.501 705.852L200.287 704.491L205.492 707.499L207.819 706.159V700.14H209.39V707.066L205.492 709.315Z" fill="white"/>
<path d="M212.57 725.812H210.999V718.889L214.894 716.637L220.893 720.1L220.108 721.461L214.894 718.451L212.57 719.793V725.812Z" fill="white"/>
<path d="M90.0001 367H269.611C302.748 367 329.611 393.863 329.611 427V546.61C329.611 579.747 302.748 606.61 269.611 606.61H150C116.863 606.61 90.0001 579.747 90.0001 546.61V367Z" fill="#006058"/>
<path d="M134.499 362.303C134.499 355.676 139.871 350.303 146.499 350.303H273.111C279.738 350.303 285.111 355.676 285.111 362.303V401.648H146.499C139.871 401.648 134.499 396.276 134.499 389.648V362.303Z" fill="#003E42"/>
<g clip-path="url(#clip6_832_16221)">
<path d="M199.536 366.848V385.104C199.536 387.043 204.1 388.527 209.805 388.527C215.51 388.527 220.074 387.043 220.074 385.104V366.848" stroke="#00C8B5" stroke-width="2" stroke-miterlimit="10" stroke-linecap="round" stroke-linejoin="round"/>
<path d="M209.805 370.271C215.477 370.271 220.074 368.738 220.074 366.848C220.074 364.957 215.477 363.425 209.805 363.425C204.134 363.425 199.536 364.957 199.536 366.848C199.536 368.738 204.134 370.271 209.805 370.271Z" stroke="#00C8B5" stroke-width="2" stroke-miterlimit="10" stroke-linecap="round" stroke-linejoin="round"/>
<path d="M220.074 375.976C220.074 377.915 215.51 379.399 209.805 379.399C204.1 379.399 199.536 377.915 199.536 375.976" stroke="#00C8B5" stroke-width="2" stroke-miterlimit="10" stroke-linecap="round" stroke-linejoin="round"/>
</g>
<path d="M258.115 373.252C257.772 373.254 257.429 373.289 257.092 373.355C256.595 371.874 255.645 370.588 254.377 369.676C253.109 368.764 251.586 368.274 250.025 368.274C248.463 368.274 246.94 368.764 245.672 369.676C244.404 370.588 243.454 371.874 242.957 373.355C242.62 373.289 242.277 373.254 241.934 373.252C240.448 373.252 239.024 373.842 237.973 374.892C236.923 375.943 236.333 377.367 236.333 378.853C236.333 380.338 236.923 381.763 237.973 382.814C239.024 383.864 240.448 384.454 241.934 384.454H258.115C259.601 384.454 261.026 383.864 262.076 382.814C263.126 381.763 263.717 380.338 263.717 378.853C263.717 377.367 263.126 375.943 262.076 374.892C261.026 373.842 259.601 373.252 258.115 373.252V373.252Z" stroke="#00C8B5" stroke-width="2" stroke-miterlimit="10" stroke-linecap="round" stroke-linejoin="round"/>
<g clip-path="url(#clip7_832_16221)">
<path d="M179.426 363.14H160.171V388.812H179.426V363.14Z" stroke="#00C8B5" stroke-width="2" stroke-miterlimit="10" stroke-linecap="round" stroke-linejoin="round"/>
<path d="M164.45 367.418H166.589" stroke="#00C8B5" stroke-width="2" stroke-miterlimit="10" stroke-linecap="square"/>
<path d="M173.007 367.418H175.147" stroke="#00C8B5" stroke-width="2" stroke-miterlimit="10" stroke-linecap="square"/>
<path d="M164.45 371.697H166.589" stroke="#00C8B5" stroke-width="2" stroke-miterlimit="10" stroke-linecap="square"/>
<path d="M173.007 371.697H175.147" stroke="#00C8B5" stroke-width="2" stroke-miterlimit="10" stroke-linecap="square"/>
<path d="M164.45 375.976H166.589" stroke="#00C8B5" stroke-width="2" stroke-miterlimit="10" stroke-linecap="square"/>
<path d="M173.007 375.976H175.147" stroke="#00C8B5" stroke-width="2" stroke-miterlimit="10" stroke-linecap="square"/>
<path d="M164.45 380.255H166.589" stroke="#00C8B5" stroke-width="2" stroke-miterlimit="10" stroke-linecap="square"/>
<path d="M173.007 380.255H175.147" stroke="#00C8B5" stroke-width="2" stroke-miterlimit="10" stroke-linecap="square"/>
<path d="M169.798 388.812V384.533" stroke="#00C8B5" stroke-width="2" stroke-miterlimit="10" stroke-linecap="square"/>
</g>
<circle cx="209.556" cy="487.473" r="60.1521" fill="#48CA2D" fill-opacity="0.14"/>
<circle cx="209.556" cy="487.473" r="49.8034" fill="#48CA2D"/>
<path d="M204.255 459.2L202.803 455H201.099L203.379 461H205.143L207.423 455H205.719L204.255 459.2ZM208.937 454.28C209.465 454.28 209.897 453.848 209.897 453.332C209.897 452.816 209.465 452.372 208.937 452.372C208.421 452.372 207.989 452.816 207.989 453.332C207.989 453.848 208.421 454.28 208.937 454.28ZM209.717 461V455H208.169V461H209.717ZM215.694 455.708C215.226 455.12 214.578 454.832 213.738 454.832C212.934 454.832 212.25 455.144 211.674 455.756C211.11 456.368 210.822 457.112 210.822 458C210.822 458.888 211.11 459.644 211.674 460.256C212.25 460.868 212.934 461.168 213.738 461.168C214.578 461.168 215.226 460.88 215.694 460.292V461H217.242V455H215.694V455.708ZM212.838 459.224C212.526 458.9 212.37 458.492 212.37 458C212.37 457.508 212.526 457.1 212.838 456.788C213.15 456.464 213.546 456.308 214.026 456.308C214.506 456.308 214.902 456.464 215.214 456.788C215.538 457.1 215.694 457.508 215.694 458C215.694 458.492 215.538 458.9 215.214 459.224C214.902 459.536 214.506 459.692 214.026 459.692C213.546 459.692 213.15 459.536 212.838 459.224ZM206.57 491L199.19 470H194.06L186.71 491H191.18L192.44 487.22H200.81L202.07 491H206.57ZM196.64 474.77L199.52 483.35H193.76L196.64 474.77ZM208.609 470V491H212.749V484.1H216.439C218.449 484.1 220.159 483.41 221.539 482.06C222.919 480.71 223.609 479.03 223.609 477.05C223.609 475.07 222.919 473.39 221.539 472.04C220.159 470.69 218.449 470 216.439 470H208.609ZM212.749 480.23V473.87H216.439C218.209 473.87 219.499 475.22 219.499 477.05C219.499 478.85 218.209 480.23 216.439 480.23H212.749ZM226.304 491H230.444V470H226.304V491Z" fill="white"/>
<path d="M209.34 512.706V500.546" stroke="white" stroke-width="2.35305" stroke-miterlimit="10" stroke-linecap="square"/>
<path d="M195.994 509.841L201.235 504.6V500.546" stroke="white" stroke-width="2.35305" stroke-miterlimit="10" stroke-linecap="square"/>
<path d="M222.689 509.841L217.448 504.6V500.546" stroke="white" stroke-width="2.35305" stroke-miterlimit="10" stroke-linecap="square"/>
<path d="M193.128 516.76C195.367 516.76 197.181 514.945 197.181 512.707C197.181 510.468 195.367 508.653 193.128 508.653C190.889 508.653 189.075 510.468 189.075 512.707C189.075 514.945 190.889 516.76 193.128 516.76Z" stroke="white" stroke-width="2.35305" stroke-miterlimit="10" stroke-linecap="square"/>
<path d="M225.554 516.76C227.792 516.76 229.607 514.945 229.607 512.707C229.607 510.468 227.792 508.653 225.554 508.653C223.315 508.653 221.5 510.468 221.5 512.707C221.5 514.945 223.315 516.76 225.554 516.76Z" stroke="white" stroke-width="2.35305" stroke-miterlimit="10" stroke-linecap="square"/>
<path d="M209.341 520.812C211.579 520.812 213.394 518.997 213.394 516.759C213.394 514.52 211.579 512.706 209.341 512.706C207.102 512.706 205.287 514.52 205.287 516.759C205.287 518.997 207.102 520.812 209.341 520.812Z" stroke="white" stroke-width="2.35305" stroke-miterlimit="10" stroke-linecap="square"/>
<path d="M90.0001 30H269.659C302.796 30 329.659 56.8629 329.659 90V209.659C329.659 242.796 302.796 269.659 269.659 269.659H150C116.863 269.659 90.0001 242.796 90.0001 209.659V30Z" fill="#00C8B5"/>
<path fill-rule="evenodd" clip-rule="evenodd" d="M147.533 25.7757L210.114 50.0534L272.695 25.885L209.949 1.71191L147.533 25.7757Z" fill="#88CCCA"/>
<path fill-rule="evenodd" clip-rule="evenodd" d="M147.533 216.559L210.114 240.837L272.695 216.669L209.949 192.496L147.533 216.559Z" fill="#88CCCA"/>
<path d="M258.588 114.042L272.693 108.581L272.693 119.511C268.574 117.911 258.588 114.042 258.588 114.042Z" fill="#D5F2F1"/>
<path d="M217.725 23.3562L228.832 18.959V218.321L217.725 222.808L217.725 23.3562Z" fill="#00C8B5"/>
<path d="M217.726 22.7871V222.719L207.188 218.517L207.188 19.1543L217.726 22.7871Z" fill="#006058"/>
<path d="M207.188 19.2038L218.273 14.8125L228.833 18.9652L217.726 23.3565L207.188 19.2038Z" fill="#429A97"/>
<path d="M201.776 29.6219L212.883 25.2246V224.432L201.776 228.918V29.6219Z" fill="#00C8B5"/>
<path d="M201.776 29.5733L201.776 228.773L191.238 224.571L191.238 25.543L201.776 29.5733Z" fill="#006058"/>
<path d="M191.238 25.4695L202.323 21.0781L212.883 25.2308L201.776 29.6221L191.238 25.4695Z" fill="#429A97"/>
<path fill-rule="evenodd" clip-rule="evenodd" d="M147.53 120.051L210.111 144.328L272.692 120.16L209.947 95.9868L147.53 120.051Z" fill="#88CCCA"/>
<path fill-rule="evenodd" clip-rule="evenodd" d="M147.348 169.12L209.929 193.398L272.45 169.283L209.764 145.056L147.348 169.12Z" fill="#88CCCA"/>
<path fill-rule="evenodd" clip-rule="evenodd" d="M147.53 119.349L210.111 143.627L272.692 119.459L209.947 95.2856L147.53 119.349Z" fill="#88CCCA"/>
<path fill-rule="evenodd" clip-rule="evenodd" d="M147.348 168.419L209.929 192.697L272.45 168.591L209.764 144.355L147.348 168.419Z" fill="#88CCCA"/>
<path fill-rule="evenodd" clip-rule="evenodd" d="M147.348 216.429L209.929 240.707L272.45 216.601L209.764 192.365L147.348 216.429Z" fill="#006058"/>
<path d="M175.969 155.635L161.196 160.482V173.852L175.969 168.121V155.635Z" fill="#006058"/>
<path d="M188.433 160.251L173.66 165.099V178.468L188.433 172.738V160.251Z" fill="#006058"/>
<path d="M234.827 159.79L197.204 174.1V187.47L234.827 172.276V159.79Z" fill="#006058"/>
<path d="M204.129 158.667L189.357 163.514L189.588 177.132L204.129 171.153V158.667Z" fill="#006058"/>
<path d="M183.355 159.128L189.818 161.205L189.587 177.169L183.355 174.86V159.128Z" fill="#4FA5A2"/>
<path d="M217.512 122.176L216.127 121.505L216.358 135.123L217.512 134.662V122.176Z" fill="#02B5A6"/>
<path d="M215.207 118.929L216.591 119.197L216.361 135.123L215.207 134.625L215.207 118.929Z" fill="#012C28"/>
<path d="M194.433 114.789L193.048 114.119L193.279 127.737L194.433 127.276V114.789Z" fill="#02B5A6"/>
<path d="M192.125 111.542L193.51 111.81L193.28 127.737L192.126 127.238L192.125 111.542Z" fill="#012C28"/>
<path d="M174.583 107.902L173.198 107.231L173.429 120.85L174.583 120.388V107.902Z" fill="#02B5A6"/>
<path d="M172.275 104.655L173.66 104.923L173.429 120.849L172.275 120.351L172.275 104.655Z" fill="#012C28"/>
<path d="M235.52 156.782L249.369 161.666L249.138 177.63L235.52 172.515V156.782Z" fill="#4FA5A2"/>
<path d="M250.291 150.818L264.14 155.702L263.909 171.665L250.291 166.55V150.818Z" fill="#006058"/>
<path d="M230.439 117.134L229.054 116.464L229.285 130.082L230.439 129.62V117.134Z" fill="#02B5A6"/>
<path d="M228.133 113.888L229.518 114.156L229.287 130.082L228.133 129.583L228.133 113.888Z" fill="#012C28"/>
<path d="M207.357 159.142L205.972 158.472L206.203 172.09L207.357 171.629V159.142Z" fill="#02B5A6"/>
<path d="M205.049 155.896L206.434 156.164L206.203 172.091L205.049 171.592L205.049 155.896Z" fill="#012C28"/>
<path d="M187.509 151.296L186.124 150.625L186.354 164.244L187.509 163.782V151.296Z" fill="#02B5A6"/>
<path d="M185.201 148.049L186.586 148.317L186.355 164.243L185.201 163.745L185.201 148.049Z" fill="#012C28"/>
<path d="M240.596 112.979L239.212 112.309L239.442 125.927L240.596 125.466V112.979Z" fill="#02B5A6"/>
<path d="M238.289 109.733L239.674 110.001L239.443 125.927L238.289 125.428L238.289 109.733Z" fill="#012C28"/>
<path d="M217.512 153.603L216.127 152.933L216.358 166.551L217.512 166.09V153.603Z" fill="#02B5A6"/>
<path d="M215.207 150.357L216.591 150.625L216.361 166.551L215.207 166.052L215.207 150.357Z" fill="#012C28"/>
<path d="M197.666 145.756L196.281 145.085L196.512 158.704L197.666 158.242V145.756Z" fill="#02B5A6"/>
<path d="M195.358 142.509L196.743 142.777L196.512 158.703L195.358 158.205L195.358 142.509Z" fill="#012C28"/>
<path d="M205.511 127.751L204.127 127.081L204.357 140.699L205.511 140.238V127.751Z" fill="#02B5A6"/>
<path d="M203.204 124.505L204.589 124.773L204.358 140.699L203.204 140.201L203.204 124.505Z" fill="#012C28"/>
<path d="M182.431 119.442L181.047 118.771L181.277 132.39L182.431 131.928V119.442Z" fill="#02B5A6"/>
<path d="M180.124 116.195L181.509 116.463L181.278 132.389L180.124 131.891L180.124 116.195Z" fill="#012C28"/>
<path d="M164.425 112.057L163.04 111.387L163.271 125.005L164.425 124.543V112.057Z" fill="#02B5A6"/>
<path d="M162.118 108.811L163.503 109.078L163.272 125.005L162.118 124.506L162.118 108.811Z" fill="#012C28"/>
<path d="M164.425 112.518L163.04 111.848L163.271 125.466L164.425 125.004V112.518Z" fill="#02B5A6"/>
<path d="M162.118 109.272L163.503 109.54L163.272 125.466L162.118 124.967L162.118 109.272Z" fill="#012C28"/>
<path d="M239.213 143.909L237.828 143.239L238.059 156.857L239.213 156.395V143.909Z" fill="#02B5A6"/>
<path d="M236.905 140.663L238.29 140.93L238.059 156.857L236.905 156.358L236.905 140.663Z" fill="#012C28"/>
<path d="M253.982 107.902L252.598 107.232L252.828 120.85L253.982 120.388V107.902Z" fill="#02B5A6"/>
<path d="M251.675 104.656L253.06 104.924L252.829 120.85L251.675 120.351L251.675 104.656Z" fill="#012C28"/>
<path d="M230.902 148.525L229.517 147.855L229.748 161.473L230.902 161.011V148.525Z" fill="#02B5A6"/>
<path d="M228.595 145.279L229.98 145.547L229.749 161.473L228.595 160.974L228.595 145.279Z" fill="#012C28"/>
<path d="M272.672 119.468V120.169L210.114 144.351V143.3L272.672 119.468Z" fill="#10867C"/>
<path d="M272.449 168.591V169.284L209.931 193.421V192.369L272.449 168.591Z" fill="#10867C"/>
<path d="M209.937 193.417V192.371L147.348 168.36V169.412L209.937 193.417Z" fill="#006058"/>
<path d="M210.136 182.106V181.061L147.547 157.05V158.102L210.136 182.106Z" fill="#006058"/>
<path d="M272.449 157.281V157.974L210.128 182.107V181.055L272.449 157.281Z" fill="#10867C"/>
<path fill-rule="evenodd" clip-rule="evenodd" d="M147.531 108.485L210.112 132.763L272.693 108.594L209.948 84.4214L147.531 108.485Z" fill="#88CCCA"/>
<path opacity="0.5" fill-rule="evenodd" clip-rule="evenodd" d="M147.531 107.784L210.112 132.062L272.693 107.894L209.948 83.7207L147.531 107.784Z" fill="#88CCCA"/>
<path d="M147.53 108.485L147.53 107.786L149.036 108.224L148.874 108.992L147.53 108.485Z" fill="#88CCCA"/>
<path d="M148.44 119.692L148.958 120.344V120.591L147.535 120.055V119.346L148.44 119.692Z" fill="#88CCCA"/>
<path d="M217.727 76.6219L228.834 75.7812V110.001L217.727 114.348V76.6219Z" fill="#02B5A6"/>
<path d="M217.724 76.5129V114.293L207.186 110.276V75.8184L217.724 76.5129Z" fill="#006058"/>
<path d="M201.776 75.6214L212.883 74.73V116.198L201.776 120.63L201.776 75.6214Z" fill="#02B5A6"/>
<path d="M201.776 77.8106V120.63L191.238 116.305V77.04L201.776 77.8106Z" fill="#67AFAD"/>
<path fill-rule="evenodd" clip-rule="evenodd" d="M228.133 30.5303L272.795 25.2554V107.978L228.133 91.7097V30.5303Z" fill="#D5F2F1"/>
<path fill-rule="evenodd" clip-rule="evenodd" d="M272.449 169.284L209.945 193.413L210.089 240.864L272.449 216.832V169.284Z" fill="#EEFFFE"/>
<path fill-rule="evenodd" clip-rule="evenodd" d="M269.165 126.594L213.688 148.095V154.5L269.165 133.051V126.594Z" fill="#D5F2F1"/>
<path fill-rule="evenodd" clip-rule="evenodd" d="M269.165 177.841L213.688 199.342V205.747L269.165 184.298V177.841Z" fill="#D5F2F1"/>
<path fill-rule="evenodd" clip-rule="evenodd" d="M269.165 203.469L213.688 224.97V231.374L269.165 209.926V203.469Z" fill="#D5F2F1"/>
<path fill-rule="evenodd" clip-rule="evenodd" d="M269.165 139.408L213.688 160.909V167.314L269.165 145.865V139.408Z" fill="#D5F2F1"/>
<path fill-rule="evenodd" clip-rule="evenodd" d="M269.165 190.655L213.688 212.156V218.561L269.165 197.112V190.655Z" fill="#D5F2F1"/>
<path fill-rule="evenodd" clip-rule="evenodd" d="M244.819 28.4375L265.582 36.3796V42.7842L244.819 34.8945V28.4375Z" fill="#B9E0DF"/>
<path fill-rule="evenodd" clip-rule="evenodd" d="M227.96 72.9829L265.579 87.6267V94.0313L227.96 79.4399V72.9829Z" fill="#B9E0DF"/>
<path fill-rule="evenodd" clip-rule="evenodd" d="M227.528 46.7607L265.579 62.0025V68.407L227.528 53.2177V46.7607Z" fill="#B9E0DF"/>
<path fill-rule="evenodd" clip-rule="evenodd" d="M228.106 35.2358L265.582 49.1944V55.599L228.106 41.6928V35.2358Z" fill="#B9E0DF"/>
<path fill-rule="evenodd" clip-rule="evenodd" d="M227.736 85.2437L265.582 100.44V106.845L227.736 91.7006V85.2437Z" fill="#B9E0DF"/>
<path fill-rule="evenodd" clip-rule="evenodd" d="M227.385 59.4395L265.581 74.8164V81.221L227.385 65.8964V59.4395Z" fill="#B9E0DF"/>
<path d="M248.913 23.6768L247.528 24.3692L246.374 111.885L247.528 111.424L248.913 23.6768Z" fill="#00C8B5"/>
<path d="M246.373 23.4087L247.758 23.6766C247.217 58.1242 246.914 77.4375 246.373 111.885L245.219 111.386L246.373 23.4087Z" fill="#006058"/>
<path d="M239.215 27.6377L237.83 28.3301L236.676 115.846L237.83 115.385L239.215 27.6377Z" fill="#00C8B5"/>
<path d="M236.675 27.3697L238.06 27.6375C237.519 62.0851 237.216 81.3985 236.675 115.846L235.521 115.347L236.675 27.3697Z" fill="#006058"/>
<path d="M225.829 32.7158L224.444 33.4083L223.29 120.924L224.444 120.463L225.829 32.7158Z" fill="#00C8B5"/>
<path d="M223.289 32.4478L224.674 32.7156C224.133 67.1632 223.83 86.4766 223.289 120.924L222.135 120.426L223.289 32.4478Z" fill="#006058"/>
<path d="M215.674 36.8706L214.289 37.5631L213.135 125.079L214.289 124.618L215.674 36.8706Z" fill="#00C8B5"/>
<path d="M213.134 36.6026L214.519 36.8704C213.978 71.318 213.675 90.6314 213.134 125.079L211.98 124.58L213.134 36.6026Z" fill="#006058"/>
<path d="M202.75 41.9478L201.365 42.6402L200.211 130.156L201.365 129.695L202.75 41.9478Z" fill="#02B5A6"/>
<path d="M200.21 41.6797L201.595 41.9476C201.054 76.3952 200.751 95.7085 200.21 130.156L199.056 129.657L200.21 41.6797Z" fill="#012C28"/>
<path d="M265.064 28.4868L263.68 29.1793L262.525 116.695L263.68 116.234L265.064 28.4868Z" fill="#00C8B5"/>
<path d="M262.525 28.2188L263.91 28.4866C263.369 62.9342 263.065 82.2476 262.525 116.695L261.371 116.197L262.525 28.2188Z" fill="#006058"/>
<path d="M255.366 32.4473L253.982 33.1397L252.827 120.656L253.982 120.194L255.366 32.4473Z" fill="#00C8B5"/>
<path d="M252.829 32.1797L254.214 32.4476C253.673 66.8952 253.369 86.2085 252.829 120.656L251.675 120.157L252.829 32.1797Z" fill="#006058"/>
<path d="M241.983 37.5254L240.599 38.2178L239.444 125.734L240.599 125.272L241.983 37.5254Z" fill="#00C8B5"/>
<path d="M239.444 37.2574L240.828 37.5252C240.288 71.9728 239.984 91.2862 239.444 125.734L238.29 125.235L239.444 37.2574Z" fill="#006058"/>
<path d="M231.827 41.6797L230.442 42.3721L229.288 129.888L230.442 129.427L231.827 41.6797Z" fill="#00C8B5"/>
<path d="M229.287 41.4122L230.672 41.68C230.131 76.1276 229.828 95.441 229.287 129.889L228.133 129.39L229.287 41.4122Z" fill="#006058"/>
<path d="M218.9 46.7583L217.515 47.4507L216.361 134.967L217.515 134.505L218.9 46.7583Z" fill="#00C8B5"/>
<path d="M216.36 46.4903L217.745 46.7581C217.204 81.2057 216.901 100.519 216.36 134.967L215.206 134.468L216.36 46.4903Z" fill="#006058"/>
<path d="M206.897 47.4136L205.513 48.106L204.358 140.506L205.513 140.045L206.897 47.4136Z" fill="#02B5A6"/>
<path d="M204.358 47.4136L205.743 47.6814C205.202 82.129 204.899 106.059 204.358 140.506L203.204 140.008L204.358 47.4136Z" fill="#012C28"/>
<path d="M272.673 107.903V108.604L209.837 132.914V131.831L272.673 107.903Z" fill="#10867C"/>
<path d="M272.673 95.4233V96.1243L209.9 120.972V119.89L272.673 95.4233Z" fill="#10867C"/>
<path d="M272.673 83.4214V84.1223L209.9 108.97V107.888L272.673 83.4214Z" fill="#10867C"/>
<path d="M272.673 70.0342V70.7351L209.9 95.583V94.5006L272.673 70.0342Z" fill="#10867C"/>
<path d="M272.673 56.6465V57.3474L209.9 82.1953V81.1129L272.673 56.6465Z" fill="#10867C"/>
<path d="M272.442 43.7207V44.4216L209.668 69.2695V68.1872L272.442 43.7207Z" fill="#10867C"/>
<path fill-rule="evenodd" clip-rule="evenodd" d="M272.684 120.12L210.14 144.356V181.055L272.453 157.281L272.684 120.12Z" fill="#EEFFFE"/>
<path fill-rule="evenodd" clip-rule="evenodd" d="M269.171 126.594L213.695 148.095V154.5L269.171 133.051V126.594Z" fill="#D5F2F1"/>
<path fill-rule="evenodd" clip-rule="evenodd" d="M269.171 177.841L213.695 199.342V205.746L269.171 184.298V177.841Z" fill="#D5F2F1"/>
<path fill-rule="evenodd" clip-rule="evenodd" d="M269.171 139.408L213.695 160.909V167.314L269.171 145.865V139.408Z" fill="#D5F2F1"/>
<path fill-rule="evenodd" clip-rule="evenodd" d="M269.171 190.655L213.695 212.156V218.561L269.171 197.112V190.655Z" fill="#D5F2F1"/>
<path fill-rule="evenodd" clip-rule="evenodd" d="M147.347 119.477L210.129 143.201V181.055L147.347 157.1V119.477Z" fill="#D5F2F1"/>
<path fill-rule="evenodd" clip-rule="evenodd" d="M150.052 126.594L205.529 148.095V154.5L150.052 133.051V126.594Z" fill="#B9E0DF"/>
<path fill-rule="evenodd" clip-rule="evenodd" d="M150.052 177.841L205.529 199.342V205.746L150.052 184.298V177.841Z" fill="#B9E0DF"/>
<path fill-rule="evenodd" clip-rule="evenodd" d="M150.052 203.469L205.529 224.97V231.375L150.052 209.926V203.469Z" fill="#B9E0DF"/>
<path fill-rule="evenodd" clip-rule="evenodd" d="M150.052 139.409L205.529 160.91V167.314L150.052 145.866V139.409Z" fill="#B9E0DF"/>
<path fill-rule="evenodd" clip-rule="evenodd" d="M150.052 190.655L205.529 212.156V218.561L150.052 197.112V190.655Z" fill="#B9E0DF"/>
<path fill-rule="evenodd" clip-rule="evenodd" d="M147.348 169.053L209.961 193.412L210.1 240.864L147.348 216.601V169.053Z" fill="#D5F2F1"/>
<path fill-rule="evenodd" clip-rule="evenodd" d="M150.052 126.595L205.529 148.096V154.5L150.052 133.052V126.595Z" fill="#B9E0DF"/>
<path fill-rule="evenodd" clip-rule="evenodd" d="M150.052 177.841L205.529 199.342V205.747L150.052 184.298V177.841Z" fill="#B9E0DF"/>
<path fill-rule="evenodd" clip-rule="evenodd" d="M150.052 203.469L205.529 224.97V231.375L150.052 209.926V203.469Z" fill="#B9E0DF"/>
<path fill-rule="evenodd" clip-rule="evenodd" d="M150.052 139.409L205.529 160.91V167.314L150.052 145.866V139.409Z" fill="#B9E0DF"/>
<path fill-rule="evenodd" clip-rule="evenodd" d="M150.052 190.655L205.529 212.156V218.561L150.052 197.112V190.655Z" fill="#B9E0DF"/>
<path opacity="0.5" fill-rule="evenodd" clip-rule="evenodd" d="M147.347 95.4822L209.928 119.76L272.68 95.4233L209.764 71.4185L147.347 95.4822Z" fill="#88CCCA"/>
<path opacity="0.5" fill-rule="evenodd" clip-rule="evenodd" d="M147.347 83.4793L209.928 107.757L272.509 83.5886L209.764 59.4155L147.347 83.4793Z" fill="#88CCCA"/>
<path opacity="0.5" fill-rule="evenodd" clip-rule="evenodd" d="M147.347 70.0926L209.928 94.3703L272.68 70.0336L209.764 46.0288L147.347 70.0926Z" fill="#88CCCA"/>
<path opacity="0.5" fill-rule="evenodd" clip-rule="evenodd" d="M147.347 56.7046L209.928 80.9823L272.68 56.6457L233.903 40.9502L209.928 50.1828L186.124 40.9502L147.347 56.7046Z" fill="#88CCCA"/>
<path opacity="0.5" fill-rule="evenodd" clip-rule="evenodd" d="M147.347 43.7799L209.928 68.0576L272.449 43.7209L248.906 34.4883L209.928 50.1837L170.198 34.4883L147.347 43.7799Z" fill="#88CCCA"/>
<path fill-rule="evenodd" clip-rule="evenodd" d="M147.534 25.7759L210.02 50.0496L210.129 144.357L147.381 119.94L147.534 25.7759Z" fill="#D5F2F1"/>
<path fill-rule="evenodd" clip-rule="evenodd" d="M150.049 35.0615L205.526 56.5625V62.967L150.049 41.5185V35.0615Z" fill="#B9E0DF"/>
<path fill-rule="evenodd" clip-rule="evenodd" d="M150.049 86.3086L205.526 107.81V114.214L150.049 92.7655V86.3086Z" fill="#B9E0DF"/>
<path fill-rule="evenodd" clip-rule="evenodd" d="M150.049 60.6846L205.526 82.1855V88.5901L150.049 67.1415V60.6846Z" fill="#B9E0DF"/>
<path fill-rule="evenodd" clip-rule="evenodd" d="M150.049 111.936L205.526 133.437V139.841L150.049 118.392V111.936Z" fill="#B9E0DF"/>
<path fill-rule="evenodd" clip-rule="evenodd" d="M150.049 47.8755L205.526 69.3764V75.781L150.049 54.3324V47.8755Z" fill="#B9E0DF"/>
<path fill-rule="evenodd" clip-rule="evenodd" d="M150.049 99.1221L205.526 120.623V127.028L150.049 105.579V99.1221Z" fill="#B9E0DF"/>
<path fill-rule="evenodd" clip-rule="evenodd" d="M150.049 73.499L205.526 95V101.405L150.049 79.956V73.499Z" fill="#B9E0DF"/>
<path fill-rule="evenodd" clip-rule="evenodd" d="M147.533 25.7753L210.114 50.053L218.21 46.9513L155.89 22.4849L147.533 25.7753Z" fill="#88CCCA"/>
<path fill-rule="evenodd" clip-rule="evenodd" d="M193.618 43.6488L210.047 50.0451L272.656 25.8812L256.525 19.4839L193.618 43.6488Z" fill="#88CCCA"/>
<g clip-path="url(#clip8_832_16221)">
<path d="M185.852 16.3668L185.187 16.118L185.04 9.08594L185.705 9.33773L185.852 16.3668Z" fill="#006058"/>
<path d="M188.151 16.8448L187.07 14.5581L184.839 8.66649L184.137 6.37181L200.549 0.0793042L204.566 10.5492L188.151 16.8448Z" fill="#009A8D"/>
<path d="M200.268 0.73904L184.783 6.67773L188.43 16.1849L203.914 10.2462L200.268 0.73904Z" fill="#001D23"/>
<path d="M202.484 6.5115C202.315 6.06903 201.816 5.84736 201.373 6.01551L198.119 7.26304C197.676 7.43118 197.455 7.93377 197.623 8.37318L198.747 11.3035C198.916 11.746 199.055 12.1066 199.055 12.1066C199.055 12.1066 199.415 11.9677 199.858 11.7995L203.112 10.552C203.555 10.3838 203.776 9.88432 203.608 9.44185L202.484 6.5115Z" fill="#00C8B5"/>
<path d="M191.57 8.74815C191.738 9.19061 192.241 9.41222 192.68 9.24414L196.38 7.82534C196.823 7.6572 197.044 7.15461 196.876 6.7152L195.622 3.44542C195.454 3.00296 194.955 2.78129 194.512 2.94943L190.812 4.36823C190.37 4.53637 190.148 5.03591 190.316 5.47837L191.57 8.7512L191.57 8.74815Z" fill="#00C8B5"/>
<path d="M192.717 9.34014L196.418 7.92054C196.86 7.75102 197.36 7.97142 197.53 8.41626L198.654 11.3448C198.823 11.7868 198.603 12.2868 198.158 12.4574L194.457 13.877C194.015 14.0465 193.518 13.825 193.348 13.383L192.225 10.4545C192.055 10.0125 192.277 9.51536 192.719 9.34584L192.717 9.34014Z" fill="#00C8B5"/>
<path d="M187.494 11.3416L191.016 9.9909C191.458 9.82138 191.958 10.0418 192.129 10.4866L193.252 13.4152C193.421 13.8572 193.201 14.3571 192.756 14.5278L189.234 15.8785C188.792 16.048 188.295 15.8265 188.126 15.3845L187.003 12.4559C186.833 12.0139 187.054 11.514 187.498 11.3434L187.494 11.3416Z" fill="#00C8B5"/>
<path d="M196.973 6.67616C197.141 7.11862 197.641 7.34029 198.083 7.17215L201.338 5.92462C201.78 5.75647 202.002 5.25389 201.834 4.81447L200.58 1.5447C200.412 1.10223 199.909 0.880627 199.47 1.04871L196.215 2.29624C195.773 2.46438 195.551 2.96392 195.719 3.40638L196.973 6.67616Z" fill="#00C8B5"/>
<path d="M190.98 9.89651C191.423 9.72837 191.644 9.22883 191.476 8.78637L190.222 5.51659C190.054 5.07413 189.555 4.85246 189.112 5.0206L185.591 6.36843C185.148 6.53658 184.927 7.03611 185.095 7.47858L186.349 10.7514C186.52 11.1938 187.016 11.4155 187.459 11.2474L190.98 9.89651Z" fill="#00C8B5"/>
<path d="M184.135 6.37233L183.773 6.51123L187.789 16.9822L188.151 16.8433L184.135 6.37233Z" fill="#006058"/>
</g>
<g clip-path="url(#clip9_832_16221)">
<path d="M167.528 23.4151L166.863 23.1664L166.716 16.1343L167.381 16.3861L167.528 23.4151Z" fill="#006058"/>
<path d="M169.827 23.8932L168.746 21.6065L166.515 15.7148L165.813 13.4202L182.225 7.12764L186.243 17.5975L169.827 23.8932Z" fill="#009A8D"/>
<path d="M181.944 7.78738L166.459 13.7261L170.106 23.2332L185.59 17.2945L181.944 7.78738Z" fill="#001D23"/>
<path d="M184.16 13.5598C183.991 13.1174 183.492 12.8957 183.049 13.0638L179.795 14.3114C179.352 14.4795 179.131 14.9821 179.299 15.4215L180.423 18.3519C180.592 18.7943 180.731 19.1549 180.731 19.1549C180.731 19.1549 181.091 19.016 181.534 18.8479L184.788 17.6003C185.231 17.4322 185.452 16.9327 185.284 16.4902L184.16 13.5598Z" fill="#00C8B5"/>
<path d="M173.246 15.7965C173.414 16.239 173.917 16.4606 174.356 16.2925L178.056 14.8737C178.499 14.7055 178.72 14.203 178.552 13.7635L177.298 10.4938C177.13 10.0513 176.631 9.82963 176.188 9.99777L172.488 11.4166C172.046 11.5847 171.824 12.0842 171.992 12.5267L173.246 15.7995L173.246 15.7965Z" fill="#00C8B5"/>
<path d="M174.393 16.3885L178.094 14.9689C178.536 14.7994 179.036 15.0198 179.207 15.4646L180.33 18.3932C180.499 18.8352 180.279 19.3351 179.834 19.5057L176.133 20.9253C175.691 21.0949 175.194 20.8734 175.024 20.4314L173.901 17.5028C173.731 17.0608 173.953 16.5637 174.395 16.3942L174.393 16.3885Z" fill="#00C8B5"/>
<path d="M169.17 18.3899L172.692 17.0392C173.134 16.8697 173.634 17.0901 173.805 17.535L174.928 20.4635C175.097 20.9055 174.877 21.4055 174.432 21.5761L170.91 22.9268C170.468 23.0963 169.971 22.8748 169.802 22.4328L168.679 19.5043C168.509 19.0623 168.73 18.5623 169.174 18.3917L169.17 18.3899Z" fill="#00C8B5"/>
<path d="M178.649 13.7245C178.817 14.167 179.317 14.3886 179.759 14.2205L183.014 12.973C183.456 12.8048 183.678 12.3022 183.51 11.8628L182.256 8.59304C182.088 8.15057 181.585 7.92897 181.146 8.09705L177.891 9.34458C177.449 9.51272 177.227 10.0123 177.395 10.4547L178.649 13.7245Z" fill="#00C8B5"/>
<path d="M172.656 16.9449C173.099 16.7767 173.32 16.2772 173.152 15.8347L171.898 12.5649C171.73 12.1225 171.231 11.9008 170.788 12.0689L167.267 13.4168C166.824 13.5849 166.603 14.0845 166.771 14.5269L168.025 17.7997C168.196 18.2421 168.692 18.4639 169.135 18.2957L172.656 16.9449Z" fill="#00C8B5"/>
</g>
<path d="M167.288 55.2137C167.288 61.3198 171.416 67.8028 176.506 69.6686C181.596 71.5532 185.724 68.1232 185.724 62.0171C185.358 50.8409 183.471 43.0126 182.446 39.2259C181.422 35.4393 181.832 29.1282 191.254 31.232" stroke="#429A97" stroke-width="1.5"/>
<path d="M180.059 41.1668L167.578 36.666L163.008 38.1921L175.489 42.6929L180.059 41.1668Z" fill="#429A97"/>
<path d="M175.489 42.6746L163.008 38.1738V60.1652L175.489 64.666V42.6746Z" fill="#006058"/>
<path d="M180.059 41.167L175.489 42.6752V64.6845L180.059 62.8723V41.167Z" fill="#00C8B5"/>
<path d="M170.467 49.686L166.799 48.3625V48.1897L170.467 49.5131V48.44C170.467 47.7485 169.921 46.9914 169.244 46.747L166.799 45.8647V48.3625V52.1063L170.467 53.4297V49.686Z" fill="white"/>
<path d="M170.639 49.7632V53.4823C171.232 53.6134 171.689 53.2558 171.689 52.624V51.3784C171.689 50.7466 171.232 50.0612 170.639 49.7632Z" fill="white"/>
<path d="M166.227 53.9056V54.0129C166.227 54.2215 166.156 54.3705 166.02 54.454C165.883 54.5374 165.699 54.5374 165.48 54.454C165.242 54.3705 165.053 54.2215 164.892 54.0129C164.738 53.8043 164.661 53.5897 164.661 53.3633C164.661 53.1368 164.738 52.9818 164.892 52.8805C165.047 52.7792 165.236 52.7732 165.462 52.8566C165.747 52.958 165.996 53.1904 166.126 53.4586L165.913 53.5063C165.83 53.3275 165.664 53.1725 165.462 53.101C165.302 53.0414 165.171 53.0474 165.064 53.1129C164.958 53.1785 164.91 53.2917 164.91 53.4527C164.91 53.6136 164.964 53.7626 165.064 53.8997C165.171 54.0427 165.308 54.144 165.474 54.2036C165.747 54.299 165.919 54.2275 165.966 54.0308L165.456 53.846V53.6195L166.221 53.8937L166.227 53.9056Z" fill="white"/>
<path d="M167.308 53.995L167.546 54.0785V55.1751L167.308 55.0917V54.9367C167.219 55.0321 167.095 55.044 166.928 54.9844C166.78 54.9308 166.65 54.8295 166.543 54.6805C166.436 54.5315 166.383 54.3705 166.383 54.2156C166.383 54.0606 166.436 53.9354 166.543 53.8639C166.65 53.7924 166.774 53.7805 166.928 53.8341C167.095 53.8937 167.219 54.001 167.308 54.156V54.001V53.995ZM166.964 54.7699C167.065 54.8056 167.148 54.7997 167.213 54.7579C167.279 54.7162 167.314 54.6447 167.314 54.5434C167.314 54.4421 167.279 54.3467 167.213 54.2573C167.148 54.1679 167.065 54.1023 166.964 54.0666C166.863 54.0308 166.78 54.0368 166.715 54.0785C166.65 54.1202 166.614 54.1917 166.614 54.293C166.614 54.3944 166.65 54.4897 166.715 54.5791C166.78 54.6685 166.863 54.7341 166.964 54.7699Z" fill="white"/>
<path d="M168.43 54.6271L168.157 54.5317V55.0562C168.157 55.1993 168.246 55.2291 168.43 55.2827V55.4973C168.068 55.4138 167.926 55.2589 167.926 54.9728V54.4483L167.724 54.3768V54.1503L167.926 54.2218V53.9834L168.163 54.0013V54.3052L168.436 54.4006V54.6271H168.43Z" fill="white"/>
<path d="M168.786 55.1755C168.821 55.3543 168.952 55.4973 169.136 55.5629C169.26 55.6106 169.355 55.5987 169.415 55.5271L169.61 55.7119C169.504 55.8311 169.343 55.855 169.13 55.7775C168.952 55.7119 168.809 55.6046 168.703 55.4616C168.596 55.3126 168.536 55.1576 168.536 54.9907C168.536 54.8238 168.59 54.7106 168.697 54.6391C168.803 54.5676 168.946 54.5616 169.112 54.6212C169.272 54.6808 169.403 54.7821 169.504 54.9311C169.604 55.0801 169.658 55.2351 169.658 55.396C169.658 55.4199 169.658 55.4497 169.652 55.4914L168.786 55.1755ZM169.426 55.2113C169.391 55.0205 169.272 54.8834 169.112 54.8298C168.94 54.7642 168.815 54.8298 168.78 54.9788L169.42 55.2113H169.426Z" fill="white"/>
<path d="M171.081 55.3599L171.331 55.4493L170.987 56.4208L170.755 56.3374L170.53 55.5149L170.298 56.1705L170.067 56.0871L169.723 54.8652L169.972 54.9546L170.185 55.7891L170.417 55.1156L170.642 55.199L170.868 56.0394L171.081 55.3599Z" fill="white"/>
<path d="M172.328 55.8075L172.566 55.891V56.9876L172.328 56.9042V56.7492C172.239 56.8446 172.115 56.8565 171.948 56.7969C171.8 56.7433 171.67 56.642 171.563 56.493C171.456 56.344 171.403 56.183 171.403 56.0281C171.403 55.8731 171.456 55.7479 171.563 55.6764C171.67 55.6049 171.794 55.593 171.948 55.6466C172.115 55.7062 172.239 55.8135 172.328 55.9685V55.8135V55.8075ZM171.984 56.5824C172.085 56.6181 172.168 56.6122 172.233 56.5704C172.299 56.5287 172.334 56.4572 172.334 56.3559C172.334 56.2545 172.299 56.1592 172.233 56.0698C172.168 55.9804 172.085 55.9148 171.984 55.8791C171.883 55.8433 171.8 55.8493 171.735 55.891C171.67 55.9327 171.634 56.0042 171.634 56.1055C171.634 56.2069 171.67 56.3022 171.735 56.3916C171.8 56.481 171.883 56.5466 171.984 56.5824Z" fill="white"/>
<path d="M173.575 56.2602L173.824 56.3496L173.402 57.3271C173.296 57.5715 173.124 57.643 172.868 57.5357V57.3152C173.017 57.3748 173.1 57.333 173.159 57.2079L173.171 57.19L172.708 55.9443L172.963 56.0397L173.29 56.9516L173.569 56.2543L173.575 56.2602Z" fill="white"/>
<g clip-path="url(#clip10_832_16221)">
<path d="M239.787 205.65L246.084 203.403L248.389 204.164L242.092 206.411L239.787 205.65Z" fill="#429A97"/>
<path d="M242.092 206.402L248.389 204.155V215.129L242.092 217.376V206.402Z" fill="#00C8B5"/>
<path d="M239.787 205.65L242.092 206.402V217.385L239.787 216.481V205.65Z" fill="#006058"/>
<path d="M248.335 208.058L246.854 207.494C246.487 207.373 246.061 207.373 245.609 207.539C244.258 208.026 243.161 209.723 243.161 211.32C243.161 212.43 243.689 213.205 244.464 213.41L245.851 213.943L246.249 212.999C247.288 212.287 248.053 210.891 248.053 209.553C248.053 209.315 248.026 209.096 247.981 208.89L248.335 208.053V208.058Z" fill="#006058"/>
<path d="M248.898 211.928C249.694 210.347 249.455 208.62 248.365 208.071C247.274 207.522 245.745 208.358 244.949 209.939C244.153 211.519 244.391 213.246 245.482 213.795C246.573 214.344 248.102 213.508 248.898 211.928Z" fill="#006058"/>
<path d="M246.925 213.54C248.156 213.097 249.154 211.558 249.154 210.108C249.154 208.658 248.156 207.843 246.925 208.291C245.695 208.738 244.697 210.273 244.697 211.723C244.697 213.173 245.695 213.988 246.925 213.54Z" fill="#00C8B5"/>
<path d="M246.639 210.685L245.851 210.041L246.639 210.685Z" fill="#001D23"/>
<path d="M246.639 210.685L245.851 210.041" stroke="#001D23" stroke-width="0.5" stroke-miterlimit="10" stroke-linecap="square"/>
<path d="M246.925 211.392C247.149 211.312 247.332 211.034 247.332 210.77C247.332 210.506 247.149 210.358 246.925 210.439C246.702 210.52 246.518 210.797 246.518 211.061C246.518 211.325 246.702 211.473 246.925 211.392Z" fill="#001D23"/>
<path d="M246.925 209.007V209.365V209.007Z" fill="#001D23"/>
<path d="M246.925 209.007V209.365" stroke="#001D23" stroke-width="0.5" stroke-miterlimit="10" stroke-linecap="square"/>
<path d="M248.071 209.15L247.856 209.481L248.071 209.15Z" fill="#001D23"/>
<path d="M248.071 209.15L247.856 209.481" stroke="#001D23" stroke-width="0.5" stroke-miterlimit="10" stroke-linecap="square"/>
<path d="M248.545 210.332L248.241 210.443L248.545 210.332Z" fill="#001D23"/>
<path d="M248.545 210.332L248.241 210.443" stroke="#001D23" stroke-width="0.5" stroke-miterlimit="10" stroke-linecap="square"/>
<path d="M245.605 211.392L245.301 211.504L245.605 211.392Z" fill="#001D23"/>
<path d="M245.605 211.392L245.301 211.504" stroke="#001D23" stroke-width="0.5" stroke-miterlimit="10" stroke-linecap="square"/>
</g>
<path d="M248.201 206.577C250.622 205.705 252.587 202.675 252.587 199.824C252.587 196.973 250.622 195.366 248.201 196.248C245.78 197.13 243.815 200.151 243.815 203.002C243.815 205.852 245.78 207.459 248.201 206.577Z" fill="#006058"/>
<path d="M249.096 207.025C251.517 206.153 253.482 203.123 253.482 200.272C253.482 197.421 251.517 195.814 249.096 196.696C246.675 197.577 244.71 200.598 244.71 203.449C244.71 206.3 246.675 207.907 249.096 207.025Z" fill="#429A97"/>
<path d="M246.948 204.062L247.797 202.2L248.477 202.923L249.749 199.971L250.769 201.454L251.871 199.587" stroke="#D5F2F1" stroke-miterlimit="10" stroke-linecap="square"/>
<g clip-path="url(#clip11_832_16221)">
<path d="M186.425 219.973L187.576 219.202V197.561L166.473 189.159L165.322 189.93L186.425 219.973Z" fill="#006058"/>
<path d="M165.322 211.57L186.425 219.972V198.331L165.322 189.929V211.57Z" fill="#00C8B5"/>
<path d="M185.274 218.393L166.473 210.838V206.618L185.274 214.178V218.393Z" fill="#00A999"/>
<path d="M175.873 197.028C179.737 198.579 183.169 201.87 185.274 205.65V199.064L166.473 191.509V198.09C168.577 196.01 172.009 195.476 175.873 197.028Z" fill="#00A999"/>
<path d="M175.873 197.495C171.959 195.922 168.506 196.543 166.473 198.766V206.156L185.274 213.711V206.327C183.245 202.464 179.787 199.069 175.873 197.495Z" fill="#00A999"/>
<path d="M175.873 197.495C179.787 199.069 183.245 202.47 185.274 206.327V205.65C183.169 201.875 179.737 198.585 175.873 197.028C172.009 195.471 168.577 196.004 166.473 198.09V198.767C168.501 196.538 171.959 195.922 175.873 197.495Z" fill="white"/>
<path d="M168.325 202.211C168.287 202.272 168.254 202.332 168.232 202.393C167.476 202.316 166.972 201.914 166.939 201.886C166.862 201.826 166.774 201.826 166.747 201.886C166.714 201.947 166.747 202.051 166.824 202.112C166.862 202.145 167.383 202.569 168.166 202.695C168.166 202.706 168.166 202.717 168.166 202.723C168.166 202.943 168.26 203.13 168.38 203.257C168.72 203.614 169.466 203.724 170.551 203.053C170.48 203.223 170.419 203.422 170.375 203.631C170.375 203.642 170.375 203.647 170.375 203.658C170.375 203.719 170.414 203.79 170.469 203.84C170.584 203.933 170.655 203.862 170.71 203.801L170.858 203.636C170.989 203.493 171.28 203.168 171.477 203.014C171.455 203.13 171.428 203.268 171.428 203.4C171.428 203.581 171.472 203.768 171.62 203.917C171.746 204.038 171.943 204.142 172.376 204.06C172.414 204.175 172.486 204.252 172.53 204.285C172.804 204.522 173.324 204.456 173.867 204.153C173.796 204.291 173.741 204.401 173.725 204.456C173.725 204.473 173.725 204.484 173.725 204.5C173.725 204.572 173.768 204.638 173.812 204.676C173.933 204.775 174.004 204.704 174.064 204.643L174.229 204.473C174.366 204.324 174.684 203.983 174.87 203.862C174.925 204.021 175.024 204.23 175.199 204.401C175.15 204.495 175.122 204.588 175.122 204.671C175.122 204.775 175.161 204.869 175.237 204.951C175.374 205.1 175.588 205.133 175.807 205.105C175.106 205.523 174.782 206.09 174.771 206.398V206.415C174.771 206.585 174.854 206.69 174.908 206.74C175.013 206.839 175.144 206.855 175.298 206.795C175.829 206.585 176.213 205.738 176.41 205.204C176.673 205.094 176.986 205.006 177.337 204.957C177.222 205.116 177.156 205.281 177.156 205.435C177.156 205.49 177.167 205.545 177.183 205.601C177.222 205.727 177.309 205.832 177.424 205.887C177.671 206.013 178.005 205.887 178.406 205.556C178.373 205.639 178.34 205.722 178.301 205.804C177.194 206.233 176.695 206.971 176.635 207.455C176.63 207.493 176.624 207.532 176.624 207.565C176.624 207.768 176.706 207.895 176.778 207.967C176.86 208.049 177.002 208.132 177.216 208.055C177.452 207.967 178.011 207.317 178.548 206.085C179.266 205.821 180.247 205.683 181.557 205.848C181.623 205.854 181.667 205.815 181.667 205.749C181.667 205.738 181.667 205.722 181.667 205.711C181.645 205.623 181.563 205.545 181.481 205.534C180.335 205.391 179.431 205.474 178.723 205.672C178.806 205.457 178.893 205.221 178.976 204.979C178.976 204.968 178.981 204.951 178.981 204.94C178.981 204.885 178.948 204.814 178.893 204.77C178.828 204.715 178.745 204.704 178.707 204.753C177.967 205.617 177.55 205.661 177.457 205.623C177.457 205.612 177.446 205.595 177.446 205.573C177.446 205.441 177.561 205.155 177.923 204.913C177.951 204.896 177.962 204.863 177.962 204.825C177.962 204.797 177.951 204.764 177.934 204.731C177.896 204.66 177.819 204.605 177.753 204.605C177.287 204.616 176.887 204.687 176.536 204.797C176.536 204.786 176.542 204.775 176.542 204.77C176.542 204.759 176.542 204.748 176.542 204.737C176.542 204.682 176.509 204.616 176.46 204.572H176.454C176.558 204.528 176.662 204.478 176.772 204.423C176.887 204.362 176.92 204.274 176.92 204.203C176.92 204.17 176.915 204.142 176.909 204.12C176.876 203.999 176.778 203.895 176.646 203.823C176.317 203.653 175.802 203.724 175.336 204.225C175.177 204.076 175.117 203.845 175.089 203.735L175.078 203.691C175.056 203.62 175.002 203.559 174.936 203.532C174.837 203.493 174.728 203.521 174.558 203.647C174.558 203.647 174.558 203.642 174.563 203.636C174.574 203.62 174.574 203.598 174.574 203.576C174.574 203.526 174.547 203.466 174.503 203.422C174.437 203.356 174.355 203.339 174.306 203.383C173.478 204.17 172.754 204.186 172.645 204.087C172.645 204.087 172.645 204.076 172.645 204.054C172.645 204.043 172.645 204.027 172.65 204.005C172.837 203.944 173.05 203.862 173.313 203.741C173.555 203.631 173.609 203.482 173.609 203.372C173.609 203.323 173.598 203.279 173.587 203.251C173.538 203.119 173.423 203.003 173.275 202.959C172.968 202.86 172.584 203.069 172.393 203.724C171.916 203.862 171.784 203.757 171.768 203.741C171.702 203.675 171.707 203.471 171.784 203.135C171.817 202.987 171.833 202.915 171.795 202.833C171.757 202.75 171.696 202.684 171.625 202.657C171.472 202.585 171.291 202.679 170.929 203.053C171.077 202.767 171.214 202.585 171.22 202.58C171.236 202.563 171.241 202.536 171.241 202.514C171.241 202.47 171.22 202.415 171.181 202.365C171.121 202.294 171.033 202.272 170.978 202.31C169.674 203.383 168.791 203.361 168.534 203.091C168.479 203.036 168.452 202.954 168.452 202.86C168.452 202.822 168.457 202.783 168.468 202.739C168.956 202.761 169.52 202.651 170.118 202.277C170.469 202.057 170.66 201.793 170.66 201.534C170.66 201.474 170.65 201.419 170.633 201.364C170.578 201.21 170.458 201.078 170.304 201.006C169.838 200.797 169.043 201.089 168.325 202.222V202.211ZM170.293 201.287C170.348 201.314 170.359 201.336 170.359 201.347C170.359 201.364 170.364 201.38 170.364 201.402C170.364 201.534 170.249 201.754 169.904 201.969C169.444 202.261 169.005 202.376 168.616 202.398C169.301 201.347 170.003 201.155 170.288 201.281L170.293 201.287ZM173.215 203.24C173.264 203.234 173.297 203.24 173.319 203.251C173.313 203.284 173.275 203.356 173.127 203.422C173.017 203.471 172.919 203.515 172.831 203.554C172.985 203.295 173.154 203.245 173.215 203.24ZM176.504 204.049C176.558 204.06 176.597 204.071 176.619 204.087C176.613 204.093 176.602 204.104 176.586 204.109C176.246 204.291 175.944 204.373 175.709 204.351C176.081 204.016 176.405 204.032 176.504 204.049ZM176.054 204.665C175.769 204.803 175.506 204.819 175.413 204.781C175.413 204.753 175.424 204.693 175.484 204.594C175.654 204.671 175.84 204.693 176.054 204.665ZM175.939 205.441C175.736 205.881 175.451 206.349 175.106 206.486C175.089 206.492 175.073 206.497 175.062 206.503C175.078 206.294 175.342 205.821 175.939 205.441ZM176.915 207.68C176.915 207.614 176.931 207.51 176.986 207.372C177.123 207.037 177.463 206.618 178.066 206.294C177.611 207.207 177.189 207.68 177.03 207.741C176.98 207.757 176.942 207.763 176.926 207.757C176.92 207.741 176.915 207.719 176.915 207.68Z" fill="white"/>
<path d="M181.163 202.337C181.069 202.299 180.987 202.321 180.954 202.398C180.954 202.398 180.143 204.164 180.05 204.368C179.792 204.28 177.567 203.504 177.567 203.504C177.446 203.465 177.359 203.526 177.359 203.641V203.652C177.364 203.779 177.468 203.911 177.594 203.955L180.22 204.869C180.308 204.902 180.384 204.874 180.417 204.808C180.417 204.808 180.916 203.724 181.168 203.174C181.42 203.928 181.919 205.402 181.919 205.402C181.952 205.496 182.029 205.584 182.111 205.622C182.111 205.622 183.465 206.244 184.161 206.563C183.629 206.794 182.582 207.246 182.582 207.246C182.528 207.268 182.5 207.317 182.5 207.383C182.5 207.4 182.5 207.422 182.506 207.444C182.506 207.444 182.84 208.896 183.015 209.645C182.434 209.034 181.294 207.84 181.294 207.84C181.223 207.763 181.13 207.724 181.053 207.741C181.053 207.741 179.902 208.016 179.31 208.153C179.491 207.57 179.82 206.519 179.82 206.519C179.82 206.503 179.825 206.481 179.825 206.464C179.825 206.365 179.759 206.25 179.661 206.184C179.546 206.101 179.42 206.123 179.387 206.228L178.729 208.363C178.707 208.44 178.734 208.55 178.811 208.632C178.882 208.715 178.987 208.759 179.063 208.742C179.063 208.742 180.96 208.291 181.174 208.241C181.387 208.467 183.251 210.42 183.251 210.42C183.328 210.503 183.426 210.536 183.503 210.514C183.563 210.492 183.596 210.442 183.596 210.371C183.596 210.354 183.596 210.332 183.591 210.31C183.591 210.31 183.037 207.922 182.977 207.653C183.169 207.57 184.884 206.827 184.884 206.827C184.934 206.805 184.967 206.756 184.967 206.69C184.967 206.668 184.967 206.64 184.956 206.618C184.928 206.519 184.852 206.426 184.758 206.387C184.758 206.387 182.544 205.369 182.292 205.254C182.199 204.979 181.387 202.563 181.387 202.563C181.355 202.464 181.272 202.376 181.179 202.337H181.163Z" fill="white"/>
<path d="M167.284 210.233V207.873L168.495 208.363V208.627L167.585 208.258V209.017L168.429 209.358V209.617L167.585 209.276V210.096L168.517 210.47V210.728L167.284 210.233Z" fill="white"/>
<path d="M170.501 209.172V211.526L170.09 211.367L169.164 208.946L169.158 208.941V210.987L168.89 210.883V208.522L169.312 208.693L170.227 211.081H170.233V209.062L170.501 209.172Z" fill="white"/>
<path d="M170.918 211.697V209.337L172.129 209.821V210.085L171.219 209.717V210.476L172.063 210.817V211.081L171.219 210.74V211.554L172.151 211.928V212.192L170.918 211.697Z" fill="white"/>
<path d="M172.809 210.36L173.264 210.542C173.494 210.635 173.582 210.855 173.582 211.026C173.582 211.235 173.478 211.378 173.264 211.29L172.814 211.108V210.355L172.809 210.36ZM173.16 211.515C173.258 211.554 173.494 211.664 173.516 211.961C173.543 212.285 173.521 212.583 173.609 212.781L173.921 212.907C173.878 212.742 173.845 212.357 173.839 212.258C173.823 211.779 173.724 211.647 173.456 211.493C173.73 211.548 173.883 211.4 173.883 211.119C173.883 210.828 173.735 210.47 173.319 210.305L172.508 209.98V212.341L172.809 212.462V211.378L173.16 211.521V211.515Z" fill="white"/>
<path d="M175.336 211.741C175.336 211.461 175.221 211.268 174.919 211.147C174.826 211.109 174.486 210.988 174.486 211.483V212.28C174.486 212.797 174.634 212.99 174.919 213.1C175.133 213.188 175.275 213.183 175.341 213.166V212.462L174.908 212.286V212.022L175.643 212.319V213.469C175.451 213.496 175.226 213.48 174.925 213.353C174.426 213.155 174.185 212.797 174.185 212.143V211.367C174.185 210.894 174.426 210.691 174.925 210.894C175.423 211.098 175.675 211.384 175.654 211.868L175.341 211.741H175.336Z" fill="white"/>
<path d="M177.073 211.813L177.375 211.934L176.733 213.133V214.035L176.432 213.914V213.012L175.802 211.301L176.136 211.433L176.596 212.759L177.073 211.813Z" fill="white"/>
<path d="M178.389 213.997V214.063C178.389 214.382 178.592 214.563 178.784 214.646C179.019 214.739 179.206 214.712 179.206 214.431C179.206 213.909 178.153 213.546 178.153 212.836C178.153 212.418 178.449 212.313 178.844 212.473C179.271 212.643 179.513 212.951 179.496 213.425L179.184 213.298C179.184 213.039 179.107 212.836 178.822 212.726C178.641 212.654 178.46 212.671 178.46 212.929C178.46 213.447 179.518 213.799 179.518 214.547C179.518 215.042 179.178 215.064 178.789 214.91C178.093 214.635 178.093 214.107 178.104 213.881L178.4 214.002L178.389 213.997Z" fill="white"/>
<path d="M181.179 213.463V213.722L180.559 213.474V215.57L180.264 215.449V213.353L179.644 213.106V212.842L181.179 213.463Z" fill="white"/>
<path d="M182.237 215.422L181.486 215.12L181.853 214.008H181.859L182.237 215.422ZM180.932 215.719L181.234 215.84L181.409 215.351L182.319 215.714L182.489 216.346L182.823 216.478L182.056 213.81L181.672 213.656L180.927 215.714L180.932 215.719Z" fill="white"/>
<path d="M183.355 214.597L183.81 214.778C184.04 214.872 184.128 215.092 184.128 215.263C184.128 215.472 184.024 215.615 183.81 215.527L183.361 215.345V214.591L183.355 214.597ZM183.706 215.752C183.804 215.791 184.04 215.901 184.062 216.198C184.089 216.522 184.068 216.819 184.155 217.017L184.468 217.144C184.424 216.979 184.391 216.594 184.385 216.495C184.369 216.016 184.27 215.884 184.002 215.73C184.276 215.785 184.429 215.637 184.429 215.356C184.429 215.064 184.281 214.707 183.865 214.542L183.054 214.217V216.577L183.355 216.698V215.615L183.706 215.758V215.752Z" fill="white"/>
</g>
<path d="M8.192 203.274C7.632 202.57 6.88 202.218 5.952 202.218C5.04 202.218 4.288 202.554 3.696 203.21C3.104 203.866 2.8 204.666 2.8 205.626L2.8 210.042L14 210.042L14 205.29C14 204.314 13.696 203.482 13.088 202.81C12.48 202.138 11.696 201.802 10.752 201.802C9.616 201.802 8.752 202.298 8.192 203.274ZM4.864 205.626C4.864 204.922 5.392 204.426 6.096 204.426C6.8 204.426 7.328 204.938 7.328 205.626L7.328 207.834L4.864 207.834L4.864 205.626ZM11.936 207.834L9.296 207.834L9.296 205.29C9.296 204.538 9.856 203.994 10.608 203.994C11.376 203.994 11.936 204.538 11.936 205.29L11.936 207.834ZM14.224 195.617C14.224 194.353 13.872 193.329 13.168 192.529C12.464 191.729 11.52 191.329 10.336 191.329L2.8 191.329L2.8 193.537L10.16 193.537C11.328 193.537 12.064 194.193 12.064 195.617C12.064 197.041 11.328 197.697 10.16 197.697L2.8 197.697L2.8 199.889L10.336 199.889C11.52 199.889 12.464 199.489 13.168 198.689C13.872 197.889 14.224 196.865 14.224 195.617ZM14 188.7L14 186.492L2.8 186.492L2.8 188.7L14 188.7ZM2.8 181.57L2.8 183.778L14 183.778L14 177.298L11.888 177.298L11.888 181.57L2.8 181.57ZM2.8 175.404L14 175.404L14 170.956C14 169.42 13.456 168.14 12.384 167.116C11.312 166.076 9.984 165.564 8.4 165.564C6.816 165.564 5.488 166.076 4.416 167.116C3.344 168.14 2.8 169.42 2.8 170.956L2.8 175.404ZM11.888 173.196L4.912 173.196L4.912 170.956C4.912 169.98 5.232 169.196 5.888 168.588C6.528 167.98 7.36 167.676 8.4 167.676C9.44 167.676 10.272 167.98 10.928 168.588C11.568 169.196 11.888 169.98 11.888 170.956L11.888 173.196ZM14 163.358L14 161.15L2.8 161.15L2.8 163.358L14 163.358ZM9.632 151.957L2.8 156.757L2.8 158.437L14 158.437L14 156.229L7.152 156.229L14 151.429L14 149.749L2.8 149.749L2.8 151.957L9.632 151.957ZM7.984 141.655L9.936 141.655L9.936 138.263C11.264 138.663 12.064 139.815 12.064 141.527C12.064 142.679 11.728 143.607 11.04 144.311C10.352 144.999 9.472 145.351 8.416 145.351C7.344 145.351 6.464 145.015 5.776 144.327C5.072 143.639 4.72 142.759 4.72 141.687C4.72 140.359 5.36 139.207 6.272 138.679L5.184 136.791C3.6 137.751 2.576 139.575 2.576 141.671C2.576 143.335 3.136 144.727 4.272 145.863C5.408 146.983 6.784 147.543 8.416 147.543C10.032 147.543 11.408 146.983 12.544 145.847C13.664 144.711 14.224 143.271 14.224 141.543C14.224 139.927 13.728 138.599 12.736 137.575C11.744 136.551 10.448 136.039 8.848 136.039L7.984 136.039L7.984 141.655ZM2.8 129.188L14 129.188L14 124.74C14 123.204 13.456 121.924 12.384 120.9C11.312 119.86 9.984 119.348 8.4 119.348C6.816 119.348 5.488 119.86 4.41599 120.9C3.344 121.924 2.79999 123.204 2.79999 124.74L2.8 129.188ZM11.888 126.98L4.912 126.98L4.912 124.74C4.912 123.764 5.232 122.98 5.888 122.372C6.528 121.764 7.36 121.46 8.4 121.46C9.44 121.46 10.272 121.764 10.928 122.372C11.568 122.98 11.888 123.764 11.888 124.74L11.888 126.98ZM14 107.948L2.79999 111.884L2.79999 114.62L14 118.54L14 116.156L11.984 115.484L11.984 111.02L14 110.348L14 107.948ZM5.344 113.244L9.91999 111.708L9.91999 114.78L5.344 113.244ZM2.79999 107.865L4.91199 107.865L4.91199 104.857L14 104.857L14 102.649L4.91199 102.649L4.91199 99.6254L2.79999 99.6254L2.79999 107.865ZM14 88.9653L2.79999 92.9013L2.79999 95.6373L14 99.5573L14 97.1733L11.984 96.5013L11.984 92.0373L14 91.3653L14 88.9653ZM5.34399 94.2613L9.91999 92.7253L9.91999 95.7973L5.34399 94.2613Z" fill="#54747E"/>
<path d="M210 687L210 605" stroke="#006058" stroke-width="1.5"/>
<path d="M208.315 690C207.589 690 207 689.41 207 688.681L207 685.319C207 684.59 207.589 684 208.315 684L211.685 684C212.411 684 213 684.59 213 685.319L213 690L208.315 690Z" fill="#006058"/>
<path d="M209 269L209 347" stroke="#00C8B5" stroke-width="1.5"/>
<path d="M210.685 347C211.411 347 212 347.59 212 348.319L212 351.681C212 352.41 211.411 353 210.685 353L207.315 353C206.589 353 206 352.41 206 351.681L206 347L210.685 347Z" fill="#00C8B5"/>
<path d="M26.224 561.788C26.224 560.588 25.92 559.612 25.312 558.86C24.704 558.108 23.888 557.724 22.848 557.724C22.208 557.724 21.648 557.9 21.264 558.14C20.88 558.348 20.48 558.86 20.272 559.196C20.16 559.356 20.048 559.596 19.936 559.9C19.808 560.204 19.712 560.444 19.664 560.62L19.408 561.388C19.152 562.22 18.912 562.78 18.704 563.084C18.48 563.372 18.192 563.516 17.84 563.516C17.184 563.516 16.72 562.956 16.72 562.044C16.72 561.068 17.2 560.348 18.16 559.9L17.088 558.044C15.504 558.812 14.576 560.236 14.576 562.044C14.576 563.052 14.88 563.932 15.488 564.652C16.08 565.372 16.896 565.724 17.904 565.724C18.928 565.724 19.696 565.356 20.208 564.668C20.704 563.964 20.944 563.356 21.248 562.348C21.504 561.436 21.744 560.812 21.968 560.46C22.176 560.108 22.48 559.932 22.88 559.932C23.568 559.932 24.064 560.492 24.064 561.724C24.064 563.004 23.488 563.868 22.352 564.3L23.456 566.188C25.168 565.564 26.224 564.012 26.224 561.788ZM14.8 549.775L19.472 552.207L14.8 554.639L14.8 557.135L21.632 553.311L26 553.311L26 551.119L21.632 551.119L14.8 547.279L14.8 549.775ZM26.224 542.383C26.224 541.183 25.92 540.207 25.312 539.455C24.704 538.703 23.888 538.319 22.848 538.319C22.208 538.319 21.648 538.495 21.264 538.735C20.88 538.943 20.48 539.455 20.272 539.791C20.16 539.951 20.048 540.191 19.936 540.495C19.808 540.799 19.712 541.039 19.664 541.215L19.408 541.983C19.152 542.815 18.912 543.375 18.704 543.679C18.48 543.967 18.192 544.111 17.84 544.111C17.184 544.111 16.72 543.551 16.72 542.639C16.72 541.663 17.2 540.943 18.16 540.495L17.088 538.639C15.504 539.407 14.576 540.831 14.576 542.639C14.576 543.647 14.88 544.527 15.488 545.247C16.08 545.967 16.896 546.319 17.904 546.319C18.928 546.319 19.696 545.951 20.208 545.263C20.704 544.559 20.944 543.951 21.248 542.943C21.504 542.031 21.744 541.407 21.968 541.055C22.176 540.703 22.48 540.527 22.88 540.527C23.568 540.527 24.064 541.087 24.064 542.319C24.064 543.599 23.488 544.463 22.352 544.895L23.456 546.783C25.168 546.159 26.224 544.607 26.224 542.383ZM14.8 537.477L16.912 537.477L16.912 534.469L26 534.469L26 532.261L16.912 532.261L16.912 529.237L14.8 529.237L14.8 537.477ZM21.376 525.156L21.376 520.916L19.296 520.916L19.296 525.156L16.912 525.156L16.912 520.516L14.8 520.516L14.8 527.364L26 527.364L26 520.436L23.888 520.436L23.888 525.156L21.376 525.156ZM14.8 509.552L20.096 512.752L14.8 515.968L14.8 518.24L26 518.24L26 516.032L18.752 516.032L23.936 512.88L23.936 512.624L18.736 509.472L26 509.472L26 507.28L14.8 507.28L14.8 509.552ZM24.544 490.489C23.408 489.353 22.032 488.793 20.4 488.793C18.768 488.793 17.392 489.353 16.272 490.489C15.136 491.625 14.576 493.001 14.576 494.617C14.576 496.233 15.136 497.609 16.272 498.745C17.392 499.865 18.768 500.425 20.4 500.425C22.032 500.425 23.408 499.865 24.544 498.745C25.664 497.609 26.224 496.233 26.224 494.617C26.224 493.001 25.664 491.625 24.544 490.489ZM23.04 497.193C22.352 497.881 21.472 498.233 20.4 498.233C19.328 498.233 18.448 497.881 17.76 497.193C17.072 496.505 16.72 495.641 16.72 494.617C16.72 493.593 17.072 492.729 17.76 492.041C18.448 491.353 19.328 491.001 20.4 491.001C21.472 491.001 22.352 491.353 23.04 492.041C23.728 492.729 24.064 493.593 24.064 494.617C24.064 495.641 23.728 496.505 23.04 497.193ZM14.8 479.913L14.8 486.601L26 486.601L26 484.393L21.68 484.393L21.68 480.041L19.568 480.041L19.568 484.393L16.912 484.393L16.912 479.913L14.8 479.913ZM26 464.496L21.776 466.976C21.184 465.68 19.904 464.816 18.512 464.816C17.488 464.816 16.608 465.184 15.888 465.904C15.168 466.624 14.8 467.504 14.8 468.544L14.8 473.024L26 473.024L26 470.816L22.112 470.816L22.112 469.136L26 466.88L26 464.496ZM16.864 468.544C16.864 467.712 17.6 467.024 18.512 467.024C19.424 467.024 20.176 467.712 20.176 468.544L20.176 470.816L16.864 470.816L16.864 468.544ZM21.376 460.348L21.376 456.108L19.296 456.108L19.296 460.348L16.912 460.348L16.912 455.708L14.8 455.708L14.8 462.556L26 462.556L26 455.628L23.888 455.628L23.888 460.348L21.376 460.348ZM26.224 448.198C26.224 446.15 25.2 444.342 23.584 443.382L22.48 445.286C23.456 445.814 24.064 446.918 24.064 448.198C24.064 449.286 23.728 450.166 23.04 450.838C22.352 451.494 21.472 451.83 20.4 451.83C19.312 451.83 18.432 451.494 17.744 450.838C17.056 450.166 16.72 449.286 16.72 448.198C16.72 446.918 17.312 445.846 18.32 445.286L17.216 443.382C15.6 444.342 14.576 446.166 14.576 448.198C14.576 449.878 15.136 451.27 16.256 452.374C17.36 453.478 18.752 454.022 20.4 454.022C22.048 454.022 23.424 453.478 24.544 452.374C25.664 451.27 26.224 449.878 26.224 448.198ZM24.544 432.071C23.408 430.935 22.032 430.375 20.4 430.375C18.768 430.375 17.392 430.935 16.272 432.071C15.136 433.207 14.576 434.583 14.576 436.199C14.576 437.815 15.136 439.191 16.272 440.327C17.392 441.447 18.768 442.007 20.4 442.007C22.032 442.007 23.408 441.447 24.544 440.327C25.664 439.191 26.224 437.815 26.224 436.199C26.224 434.583 25.664 433.207 24.544 432.071ZM23.04 438.775C22.352 439.463 21.472 439.815 20.4 439.815C19.328 439.815 18.448 439.463 17.76 438.775C17.072 438.087 16.72 437.223 16.72 436.199C16.72 435.175 17.072 434.311 17.76 433.623C18.448 432.935 19.328 432.583 20.4 432.583C21.472 432.583 22.352 432.935 23.04 433.623C23.728 434.311 24.064 435.175 24.064 436.199C24.064 437.223 23.728 438.087 23.04 438.775ZM26 419.655L21.776 422.135C21.184 420.839 19.904 419.975 18.512 419.975C17.488 419.975 16.608 420.343 15.888 421.063C15.168 421.783 14.8 422.663 14.8 423.703L14.8 428.183L26 428.183L26 425.975L22.112 425.975L22.112 424.295L26 422.039L26 419.655ZM16.864 423.703C16.864 422.871 17.6 422.183 18.512 422.183C19.424 422.183 20.176 422.871 20.176 423.703L20.176 425.975L16.864 425.975L16.864 423.703ZM14.8 417.715L26 417.715L26 413.267C26 411.731 25.456 410.451 24.384 409.427C23.312 408.387 21.984 407.875 20.4 407.875C18.816 407.875 17.488 408.387 16.416 409.427C15.344 410.451 14.8 411.731 14.8 413.267L14.8 417.715ZM23.888 415.507L16.912 415.507L16.912 413.267C16.912 412.291 17.232 411.507 17.888 410.899C18.528 410.291 19.36 409.987 20.4 409.987C21.44 409.987 22.272 410.291 22.928 410.899C23.568 411.507 23.888 412.291 23.888 413.267L23.888 415.507Z" fill="#54747E"/>
<path d="M8.8 869.333L20 869.333L20 871.525L12.736 871.525L17.936 874.677L17.936 874.933L12.752 878.085L20 878.085L20 880.293L8.8 880.293L8.8 878.021L14.096 874.805L8.8 871.605L8.8 869.333ZM20 859.406L17.984 860.078L17.984 864.542L20 865.214L20 867.598L8.8 863.678L8.8 860.942L20 857.006L20 859.406ZM15.92 863.838L15.92 860.766L11.344 862.302L15.92 863.838ZM20 849.134L16.112 851.39L16.112 853.07L20 853.07L20 855.278L8.8 855.278L8.8 850.798C8.8 849.764 9.16266 848.884 9.888 848.158C10.6133 847.433 11.488 847.07 12.512 847.07C13.2053 847.07 13.8507 847.268 14.448 847.662C15.0347 848.057 15.4773 848.58 15.776 849.23L20 846.75L20 849.134ZM10.864 853.07L14.176 853.07L14.176 850.798C14.176 850.382 14.016 850.025 13.696 849.726C13.3653 849.428 12.9707 849.278 12.512 849.278C12.0533 849.278 11.664 849.428 11.344 849.726C11.024 850.025 10.864 850.382 10.864 850.798L10.864 853.07ZM20 836.058L20 838.602L14.752 842.602L20 842.602L20 844.81L8.8 844.81L8.8 842.602L13.744 842.602L8.8 838.762L8.8 836.218L14.24 840.362L20 836.058ZM17.888 832.119L17.888 827.399L20 827.399L20 834.327L8.8 834.327L8.8 827.479L10.912 827.479L10.912 832.119L13.296 832.119L13.296 827.879L15.376 827.879L15.376 832.119L17.888 832.119ZM8.8 817.794L10.912 817.794L10.912 820.818L20 820.818L20 823.026L10.912 823.026L10.912 826.034L8.8 826.034L8.8 817.794ZM8.8 811.746C8.79999 810.668 9.16266 809.762 9.888 809.026C10.6133 808.29 11.504 807.922 12.56 807.922C13.616 807.922 14.5067 808.29 15.232 809.026C15.9573 809.762 16.32 810.668 16.32 811.746L16.32 813.714L20 813.714L20 815.922L8.8 815.922L8.8 811.746ZM14.256 811.746C14.256 811.276 14.096 810.887 13.776 810.578C13.4453 810.268 13.04 810.114 12.56 810.114C12.0693 810.114 11.664 810.268 11.344 810.578C11.024 810.887 10.864 811.276 10.864 811.746L10.864 813.714L14.256 813.714L14.256 811.746ZM17.888 803.636L17.888 799.364L20 799.364L20 805.844L8.79999 805.844L8.79999 803.636L17.888 803.636ZM20 789.957L17.984 790.629L17.984 795.093L20 795.765L20 798.149L8.79999 794.229L8.79999 791.493L20 787.557L20 789.957ZM15.92 794.389L15.92 791.317L11.344 792.853L15.92 794.389ZM20.224 780.924C20.224 782.609 19.664 784.001 18.544 785.1C17.424 786.199 16.0427 786.748 14.4 786.748C12.7467 786.748 11.3653 786.199 10.256 785.1C9.13599 784.001 8.57599 782.609 8.57599 780.924C8.57599 779.911 8.81599 778.977 9.29599 778.124C9.76533 777.26 10.4053 776.588 11.216 776.108L12.32 778.012C11.8187 778.289 11.4293 778.684 11.152 779.196C10.864 779.708 10.72 780.284 10.72 780.924C10.72 782.012 11.0613 782.892 11.744 783.564C12.4267 784.225 13.312 784.556 14.4 784.556C15.4773 784.556 16.3573 784.225 17.04 783.564C17.7227 782.892 18.064 782.012 18.064 780.924C18.064 780.284 17.9253 779.708 17.648 779.196C17.36 778.673 16.9707 778.279 16.48 778.012L17.584 776.108C18.3947 776.588 19.04 777.255 19.52 778.108C19.9893 778.961 20.224 779.9 20.224 780.924ZM17.888 771.904L17.888 767.184L20 767.184L20 774.112L8.79999 774.112L8.79999 767.264L10.912 767.264L10.912 771.904L13.296 771.904L13.296 767.664L15.376 767.664L15.376 771.904L17.888 771.904Z" fill="#54747E"/>
<defs>
<clipPath id="clip0_832_16221">
<rect width="29.9288" height="29.9513" fill="white" transform="translate(249.775 772.878)"/>
</clipPath>
<clipPath id="clip1_832_16221">
<rect width="28.4608" height="29.9513" fill="white" transform="translate(142.199 772.878)"/>
</clipPath>
<clipPath id="clip2_832_16221">
<rect width="27.7677" height="29.9513" fill="white" transform="translate(196.332 772.878)"/>
</clipPath>
<clipPath id="clip3_832_16221">
<rect width="29.9513" height="29.9513" fill="white" transform="translate(250.88 873.001)"/>
</clipPath>
<clipPath id="clip4_832_16221">
<rect width="29.9513" height="29.9513" fill="white" transform="translate(195.257 873.001)"/>
</clipPath>
<clipPath id="clip5_832_16221">
<rect width="29.9513" height="29.9513" fill="white" transform="translate(139.632 873.001)"/>
</clipPath>
<clipPath id="clip6_832_16221">
<rect width="27.384" height="27.384" fill="white" transform="translate(196.113 362.284)"/>
</clipPath>
<clipPath id="clip7_832_16221">
<rect width="27.384" height="27.384" fill="white" transform="translate(155.892 362.284)"/>
</clipPath>
<clipPath id="clip8_832_16221">
<rect width="20.7039" height="16.6327" fill="white" transform="translate(183.646 0.43457) rotate(-1.20361)"/>
</clipPath>
<clipPath id="clip9_832_16221">
<rect width="20.7039" height="16.6327" fill="white" transform="translate(165.322 7.48291) rotate(-1.20361)"/>
</clipPath>
<clipPath id="clip10_832_16221">
<rect width="9.58202" height="13.9814" fill="white" transform="translate(239.787 203.403)"/>
</clipPath>
<clipPath id="clip11_832_16221">
<rect width="22.2541" height="30.8133" fill="white" transform="translate(165.322 189.159)"/>
</clipPath>
</defs>
</svg>
