<svg width="1292" height="503" viewBox="0 0 1292 503" fill="none" xmlns="http://www.w3.org/2000/svg">
<path d="M922.26 132.526H1212.75C1256.51 132.526 1291.98 167.997 1291.98 211.752V423.019C1291.98 466.774 1256.51 502.245 1212.75 502.245H1001.49C957.731 502.245 922.26 466.774 922.26 423.019V132.526Z" fill="#001D23"/>
<path opacity="0.08" d="M1215.39 317.385L998.845 317.385" stroke="white" stroke-width="1.98063"/>
<g clip-path="url(#clip0_844_4300)">
<path d="M1172.66 276.673L1171.87 270.511L1178.03 272.197" stroke="white" stroke-width="2.64085" stroke-miterlimit="10" stroke-linecap="square"/>
<path d="M1173.41 271.241C1175.61 275.521 1179.16 278.928 1183.48 280.917C1187.81 282.906 1192.66 283.363 1197.27 282.215C1201.88 281.067 1205.98 278.381 1208.91 274.584C1211.85 270.788 1213.45 266.099 1213.46 261.267" stroke="white" stroke-width="2.64085" stroke-miterlimit="10"/>
<path d="M1211.14 245.862L1211.92 252.024L1205.76 250.338" stroke="white" stroke-width="2.64085" stroke-miterlimit="10" stroke-linecap="square"/>
<path d="M1210.38 251.293C1208.18 247.013 1204.64 243.607 1200.31 241.618C1195.99 239.629 1191.14 239.171 1186.53 240.319C1181.92 241.467 1177.82 244.153 1174.88 247.95C1171.95 251.746 1170.35 256.435 1170.33 261.267" stroke="white" stroke-width="2.64085" stroke-miterlimit="10"/>
<path d="M1192.75 262.537C1192.5 262.705 1192.2 262.794 1191.9 262.794C1191.49 262.794 1191.1 262.634 1190.82 262.347C1190.53 262.061 1190.37 261.672 1190.37 261.267C1190.37 260.965 1190.46 260.67 1190.63 260.418C1190.8 260.167 1191.03 259.971 1191.31 259.856C1191.59 259.74 1191.9 259.71 1192.2 259.769C1192.49 259.828 1192.77 259.973 1192.98 260.187L1194.08 259.088L1192.98 260.187C1193.19 260.401 1193.34 260.673 1193.4 260.969C1193.46 261.265 1193.43 261.572 1193.31 261.852L1194.58 262.377L1193.31 261.852C1193.19 262.131 1193 262.369 1192.75 262.537Z" stroke="#00CC8F" stroke-width="3.10702" stroke-miterlimit="10" stroke-linecap="square"/>
<path d="M1201.21 261.296C1201.21 260.647 1201.14 259.999 1200.99 259.366L1204.16 257.095L1201.81 253.19L1198.14 254.677C1197.15 253.799 1195.97 253.14 1194.68 252.747L1194.2 248.944H1189.49L1189.01 252.747C1187.73 253.14 1186.54 253.799 1185.55 254.677L1181.93 253.145L1179.57 257.039L1182.74 259.309C1182.46 260.582 1182.46 261.897 1182.74 263.169L1179.57 265.44L1181.93 269.346L1185.6 267.847C1186.59 268.729 1187.77 269.391 1189.06 269.788L1189.54 273.592H1194.25L1194.73 269.788C1196.01 269.391 1197.19 268.729 1198.19 267.847L1201.87 269.346L1204.22 265.44L1201.06 263.169C1201.2 262.535 1201.27 261.888 1201.27 261.239L1201.21 261.296Z" stroke="white" stroke-width="2.64085" stroke-miterlimit="10" stroke-linecap="square"/>
</g>
<g clip-path="url(#clip1_844_4300)">
<path d="M1024.76 274.026L1028.07 272.531L1035.16 269.346L1038.27 263.412" stroke="#00CC8F" stroke-width="3.10702" stroke-miterlimit="10"/>
<path d="M1040.87 262.78C1041.9 261.5 1042.06 259.932 1041.24 259.278C1040.43 258.623 1038.93 259.13 1037.91 260.409C1036.89 261.688 1036.72 263.256 1037.54 263.911C1038.36 264.565 1039.85 264.059 1040.87 262.78Z" stroke="#00CC8F" stroke-width="3.10702" stroke-miterlimit="10" stroke-linecap="square"/>
<path d="M1039.35 251.51L1036.05 250.004L1028.97 246.795L1022.46 248.394" stroke="#00CC8F" stroke-width="3.10702" stroke-miterlimit="10"/>
<path d="M1020.43 250.736C1022.06 250.658 1023.35 249.746 1023.3 248.699C1023.25 247.653 1021.88 246.868 1020.25 246.946C1018.61 247.024 1017.32 247.936 1017.37 248.983C1017.42 250.03 1018.79 250.815 1020.43 250.736Z" stroke="#00CC8F" stroke-width="3.10702" stroke-miterlimit="10" stroke-linecap="square"/>
<path d="M1010.35 252.201V255.834V263.608L1014.49 268.874" stroke="#00CC8F" stroke-width="3.10702" stroke-miterlimit="10"/>
<path d="M1017.1 273.277C1018.04 272.799 1018.19 271.229 1017.44 269.771C1016.69 268.313 1015.33 267.518 1014.4 267.995C1013.47 268.473 1013.32 270.043 1014.06 271.501C1014.81 272.959 1016.17 273.754 1017.1 273.277Z" stroke="#00CC8F" stroke-width="3.10702" stroke-miterlimit="10" stroke-linecap="square"/>
<path d="M1003.96 248.785L1024.76 258.145L1045.57 248.785" stroke="white" stroke-width="2.64085" stroke-miterlimit="10"/>
<path d="M1024.77 258.146V283.122" stroke="white" stroke-width="2.64085" stroke-miterlimit="10"/>
<path d="M1045.57 273.749L1024.76 283.121L1003.96 273.749V248.785L1024.76 239.424L1045.57 248.785V273.749Z" stroke="white" stroke-width="2.64085" stroke-miterlimit="10" stroke-linecap="square"/>
</g>
<g clip-path="url(#clip2_844_4300)">
<path d="M1127.68 283.159L1122.97 278.451" stroke="white" stroke-width="2.64085" stroke-miterlimit="10"/>
<path d="M1095.91 259.957H1102.26L1105.43 253.9L1109.67 266.015L1112.84 259.957H1119.19" stroke="#00CC8F" stroke-width="2.64085" stroke-miterlimit="10"/>
<path d="M1107.76 279.537C1118.76 279.537 1127.67 270.619 1127.67 259.618C1127.67 248.618 1118.76 239.7 1107.76 239.7C1096.76 239.7 1087.84 248.618 1087.84 259.618C1087.84 270.619 1096.76 279.537 1107.76 279.537Z" stroke="white" stroke-width="2.64085" stroke-miterlimit="10"/>
</g>
<path d="M1036.3 356.945V359.037H1033.31V368.037H1031.12V359.037H1028.14V356.945H1036.3ZM1041.51 359.892C1042.38 359.892 1043.09 360.183 1043.65 360.764C1044.22 361.345 1044.51 362.148 1044.51 363.172V368.037H1042.47V363.426C1042.47 362.898 1042.32 362.496 1042.04 362.221C1041.75 361.936 1041.37 361.794 1040.9 361.794C1040.37 361.794 1039.95 361.957 1039.63 362.285C1039.31 362.612 1039.15 363.104 1039.15 363.758V368.037H1037.11V356.945H1039.15V361.001C1039.65 360.262 1040.44 359.892 1041.51 359.892ZM1046.95 359.163C1046.61 359.163 1046.32 359.042 1046.06 358.799C1045.82 358.545 1045.7 358.25 1045.7 357.912C1045.7 357.574 1045.82 357.278 1046.06 357.024C1046.32 356.771 1046.61 356.644 1046.95 356.644C1047.3 356.644 1047.6 356.771 1047.84 357.024C1048.09 357.278 1048.22 357.574 1048.22 357.912C1048.22 358.25 1048.09 358.545 1047.84 358.799C1047.6 359.042 1047.3 359.163 1046.95 359.163ZM1045.94 368.037V360.114H1047.98V368.037H1045.94ZM1051.58 361.477C1051.77 360.97 1052.08 360.589 1052.51 360.336C1052.96 360.082 1053.45 359.956 1053.99 359.956V362.237C1053.37 362.163 1052.81 362.29 1052.31 362.618C1051.82 362.945 1051.58 363.489 1051.58 364.25V368.037H1049.54V360.114H1051.58V361.477ZM1060.58 356.945H1062.62V368.037H1060.58V367.102C1059.98 367.873 1059.12 368.258 1058.01 368.258C1056.94 368.258 1056.03 367.857 1055.27 367.054C1054.52 366.241 1054.15 365.248 1054.15 364.075C1054.15 362.903 1054.52 361.915 1055.27 361.112C1056.03 360.299 1056.94 359.892 1058.01 359.892C1059.12 359.892 1059.98 360.278 1060.58 361.049V356.945ZM1056.81 365.692C1057.23 366.104 1057.76 366.31 1058.39 366.31C1059.03 366.31 1059.55 366.104 1059.96 365.692C1060.37 365.269 1060.58 364.73 1060.58 364.075C1060.58 363.42 1060.37 362.887 1059.96 362.475C1059.55 362.052 1059.03 361.841 1058.39 361.841C1057.76 361.841 1057.23 362.052 1056.81 362.475C1056.4 362.887 1056.19 363.42 1056.19 364.075C1056.19 364.73 1056.4 365.269 1056.81 365.692ZM1064.27 364.234V362.269H1070.21V364.234H1064.27ZM1076.09 356.945C1077.16 356.945 1078.05 357.304 1078.78 358.023C1079.51 358.741 1079.88 359.623 1079.88 360.669C1079.88 361.714 1079.51 362.596 1078.78 363.315C1078.05 364.033 1077.16 364.392 1076.09 364.392H1074.14V368.037H1071.95V356.945H1076.09ZM1076.09 362.348C1076.55 362.348 1076.94 362.19 1077.25 361.873C1077.55 361.545 1077.7 361.144 1077.7 360.669C1077.7 360.183 1077.55 359.781 1077.25 359.464C1076.94 359.148 1076.55 358.989 1076.09 358.989H1074.14V362.348H1076.09ZM1086.38 360.114H1088.43V368.037H1086.38V367.102C1085.77 367.873 1084.91 368.258 1083.8 368.258C1082.74 368.258 1081.83 367.857 1081.07 367.054C1080.32 366.241 1079.95 365.248 1079.95 364.075C1079.95 362.903 1080.32 361.915 1081.07 361.112C1081.83 360.299 1082.74 359.892 1083.8 359.892C1084.91 359.892 1085.77 360.278 1086.38 361.049V360.114ZM1082.61 365.692C1083.02 366.104 1083.55 366.31 1084.18 366.31C1084.81 366.31 1085.34 366.104 1085.75 365.692C1086.17 365.269 1086.38 364.73 1086.38 364.075C1086.38 363.42 1086.17 362.887 1085.75 362.475C1085.34 362.052 1084.81 361.841 1084.18 361.841C1083.55 361.841 1083.02 362.052 1082.61 362.475C1082.2 362.887 1081.99 363.42 1081.99 364.075C1081.99 364.73 1082.2 365.269 1082.61 365.692ZM1092.01 361.477C1092.2 360.97 1092.51 360.589 1092.94 360.336C1093.39 360.082 1093.88 359.956 1094.42 359.956V362.237C1093.79 362.163 1093.23 362.29 1092.74 362.618C1092.25 362.945 1092.01 363.489 1092.01 364.25V368.037H1089.96V360.114H1092.01V361.477ZM1100.04 362.079H1098.25V365.375C1098.25 365.649 1098.32 365.85 1098.46 365.977C1098.59 366.104 1098.8 366.177 1099.06 366.199C1099.32 366.209 1099.65 366.204 1100.04 366.183V368.037C1098.64 368.195 1097.64 368.063 1097.06 367.64C1096.49 367.218 1096.21 366.463 1096.21 365.375V362.079H1094.83V360.114H1096.21V358.514L1098.25 357.896V360.114H1100.04V362.079ZM1106.5 360.114H1108.69L1105.8 368.037C1105.39 369.177 1104.84 370.001 1104.16 370.508C1103.48 371.026 1102.64 371.258 1101.62 371.206V369.304C1102.17 369.315 1102.6 369.199 1102.92 368.956C1103.25 368.713 1103.51 368.322 1103.7 367.783L1100.45 360.114H1102.68L1104.74 365.438L1106.5 360.114ZM1120.21 368.037L1119.55 366.04H1115.13L1114.46 368.037H1112.1L1115.98 356.945H1118.69L1122.59 368.037H1120.21ZM1115.82 363.996H1118.87L1117.35 359.464L1115.82 363.996ZM1127.87 359.892C1128.93 359.892 1129.84 360.299 1130.59 361.112C1131.35 361.915 1131.73 362.903 1131.73 364.075C1131.73 365.248 1131.35 366.241 1130.59 367.054C1129.84 367.857 1128.93 368.258 1127.87 368.258C1126.76 368.258 1125.9 367.873 1125.3 367.102V371.206H1123.26V360.114H1125.3V361.049C1125.9 360.278 1126.76 359.892 1127.87 359.892ZM1125.92 365.692C1126.33 366.104 1126.85 366.31 1127.49 366.31C1128.12 366.31 1128.64 366.104 1129.06 365.692C1129.48 365.269 1129.69 364.73 1129.69 364.075C1129.69 363.42 1129.48 362.887 1129.06 362.475C1128.64 362.052 1128.12 361.841 1127.49 361.841C1126.85 361.841 1126.33 362.052 1125.92 362.475C1125.51 362.887 1125.3 363.42 1125.3 364.075C1125.3 364.73 1125.51 365.269 1125.92 365.692ZM1137.47 359.892C1138.54 359.892 1139.44 360.299 1140.19 361.112C1140.95 361.915 1141.33 362.903 1141.33 364.075C1141.33 365.248 1140.95 366.241 1140.19 367.054C1139.44 367.857 1138.54 368.258 1137.47 368.258C1136.36 368.258 1135.5 367.873 1134.9 367.102V371.206H1132.86V360.114H1134.9V361.049C1135.5 360.278 1136.36 359.892 1137.47 359.892ZM1135.52 365.692C1135.93 366.104 1136.45 366.31 1137.09 366.31C1137.72 366.31 1138.24 366.104 1138.66 365.692C1139.08 365.269 1139.29 364.73 1139.29 364.075C1139.29 363.42 1139.08 362.887 1138.66 362.475C1138.24 362.052 1137.72 361.841 1137.09 361.841C1136.45 361.841 1135.93 362.052 1135.52 362.475C1135.11 362.887 1134.9 363.42 1134.9 364.075C1134.9 364.73 1135.11 365.269 1135.52 365.692ZM1142.46 368.037V356.47H1144.5V368.037H1142.46ZM1147.07 359.163C1146.73 359.163 1146.44 359.042 1146.18 358.799C1145.94 358.545 1145.82 358.25 1145.82 357.912C1145.82 357.574 1145.94 357.278 1146.18 357.024C1146.44 356.771 1146.73 356.644 1147.07 356.644C1147.42 356.644 1147.72 356.771 1147.96 357.024C1148.21 357.278 1148.34 357.574 1148.34 357.912C1148.34 358.25 1148.21 358.545 1147.96 358.799C1147.72 359.042 1147.42 359.163 1147.07 359.163ZM1146.06 368.037V360.114H1148.1V368.037H1146.06ZM1153.43 368.258C1152.23 368.258 1151.23 367.857 1150.43 367.054C1149.64 366.251 1149.24 365.258 1149.24 364.075C1149.24 362.892 1149.64 361.899 1150.43 361.096C1151.23 360.294 1152.23 359.892 1153.43 359.892C1154.2 359.892 1154.9 360.077 1155.53 360.447C1156.17 360.817 1156.65 361.313 1156.98 361.936L1155.22 362.966C1155.06 362.639 1154.82 362.38 1154.49 362.19C1154.17 362 1153.81 361.905 1153.41 361.905C1152.8 361.905 1152.29 362.111 1151.89 362.523C1151.49 362.924 1151.29 363.442 1151.29 364.075C1151.29 364.699 1151.49 365.216 1151.89 365.628C1152.29 366.03 1152.8 366.23 1153.41 366.23C1153.82 366.23 1154.19 366.14 1154.5 365.961C1154.83 365.771 1155.07 365.512 1155.23 365.185L1157.01 366.199C1156.66 366.822 1156.17 367.324 1155.53 367.704C1154.9 368.074 1154.2 368.258 1153.43 368.258ZM1163.67 360.114H1165.71V368.037H1163.67V367.102C1163.06 367.873 1162.2 368.258 1161.09 368.258C1160.03 368.258 1159.12 367.857 1158.36 367.054C1157.61 366.241 1157.24 365.248 1157.24 364.075C1157.24 362.903 1157.61 361.915 1158.36 361.112C1159.12 360.299 1160.03 359.892 1161.09 359.892C1162.2 359.892 1163.06 360.278 1163.67 361.049V360.114ZM1159.9 365.692C1160.31 366.104 1160.83 366.31 1161.47 366.31C1162.1 366.31 1162.62 366.104 1163.03 365.692C1163.46 365.269 1163.67 364.73 1163.67 364.075C1163.67 363.42 1163.46 362.887 1163.03 362.475C1162.62 362.052 1162.1 361.841 1161.47 361.841C1160.83 361.841 1160.31 362.052 1159.9 362.475C1159.49 362.887 1159.28 363.42 1159.28 364.075C1159.28 364.73 1159.49 365.269 1159.9 365.692ZM1171.78 362.079H1169.99V365.375C1169.99 365.649 1170.06 365.85 1170.2 365.977C1170.33 366.104 1170.53 366.177 1170.8 366.199C1171.06 366.209 1171.39 366.204 1171.78 366.183V368.037C1170.38 368.195 1169.38 368.063 1168.8 367.64C1168.23 367.218 1167.95 366.463 1167.95 365.375V362.079H1166.57V360.114H1167.95V358.514L1169.99 357.896V360.114H1171.78V362.079ZM1173.92 359.163C1173.58 359.163 1173.29 359.042 1173.03 358.799C1172.79 358.545 1172.67 358.25 1172.67 357.912C1172.67 357.574 1172.79 357.278 1173.03 357.024C1173.29 356.771 1173.58 356.644 1173.92 356.644C1174.27 356.644 1174.56 356.771 1174.81 357.024C1175.06 357.278 1175.19 357.574 1175.19 357.912C1175.19 358.25 1175.06 358.545 1174.81 358.799C1174.56 359.042 1174.27 359.163 1173.92 359.163ZM1172.91 368.037V360.114H1174.95V368.037H1172.91ZM1183.25 367.054C1182.44 367.857 1181.45 368.258 1180.27 368.258C1179.1 368.258 1178.11 367.857 1177.3 367.054C1176.49 366.241 1176.09 365.248 1176.09 364.075C1176.09 362.903 1176.49 361.915 1177.3 361.112C1178.11 360.299 1179.1 359.892 1180.27 359.892C1181.45 359.892 1182.44 360.299 1183.25 361.112C1184.07 361.915 1184.47 362.903 1184.47 364.075C1184.47 365.248 1184.07 366.241 1183.25 367.054ZM1178.74 365.644C1179.15 366.056 1179.66 366.262 1180.27 366.262C1180.89 366.262 1181.4 366.056 1181.81 365.644C1182.22 365.232 1182.43 364.709 1182.43 364.075C1182.43 363.442 1182.22 362.919 1181.81 362.507C1181.4 362.095 1180.89 361.889 1180.27 361.889C1179.66 361.889 1179.15 362.095 1178.74 362.507C1178.34 362.919 1178.14 363.442 1178.14 364.075C1178.14 364.709 1178.34 365.232 1178.74 365.644ZM1190 359.892C1190.87 359.892 1191.58 360.183 1192.14 360.764C1192.71 361.345 1192.99 362.148 1192.99 363.172V368.037H1190.95V363.426C1190.95 362.898 1190.81 362.496 1190.52 362.221C1190.24 361.936 1189.86 361.794 1189.38 361.794C1188.85 361.794 1188.43 361.957 1188.11 362.285C1187.8 362.612 1187.64 363.104 1187.64 363.758V368.037H1185.59V360.114H1187.64V361.001C1188.13 360.262 1188.92 359.892 1190 359.892ZM1196.31 362.364C1196.31 362.575 1196.45 362.75 1196.72 362.887C1197.01 363.014 1197.35 363.13 1197.75 363.236C1198.15 363.331 1198.55 363.457 1198.95 363.616C1199.36 363.764 1199.69 364.017 1199.97 364.376C1200.25 364.736 1200.4 365.185 1200.4 365.723C1200.4 366.537 1200.09 367.165 1199.48 367.609C1198.87 368.042 1198.12 368.258 1197.21 368.258C1195.58 368.258 1194.48 367.63 1193.88 366.373L1195.66 365.375C1195.89 366.061 1196.41 366.405 1197.21 366.405C1197.94 366.405 1198.3 366.177 1198.3 365.723C1198.3 365.512 1198.16 365.343 1197.88 365.216C1197.6 365.079 1197.26 364.957 1196.86 364.852C1196.46 364.746 1196.06 364.614 1195.66 364.456C1195.26 364.297 1194.91 364.049 1194.63 363.711C1194.35 363.362 1194.22 362.929 1194.22 362.412C1194.22 361.63 1194.5 361.017 1195.07 360.574C1195.65 360.119 1196.37 359.892 1197.23 359.892C1197.87 359.892 1198.46 360.04 1198.99 360.336C1199.51 360.621 1199.93 361.033 1200.24 361.572L1198.49 362.523C1198.24 361.984 1197.82 361.714 1197.23 361.714C1196.96 361.714 1196.74 361.773 1196.56 361.889C1196.39 362.005 1196.31 362.163 1196.31 362.364Z" fill="#00C8B5"/>
<path d="M1040 207.796C1040.98 208.355 1041.46 209.201 1041.46 210.331C1041.46 211.271 1041.13 212.042 1040.46 212.644C1039.8 213.246 1038.98 213.547 1038.01 213.547H1033.3V202.456H1037.68C1038.63 202.456 1039.42 202.752 1040.07 203.343C1040.72 203.924 1041.05 204.669 1041.05 205.577C1041.05 206.496 1040.7 207.236 1040 207.796ZM1037.68 204.5H1035.49V206.94H1037.68C1038.01 206.94 1038.29 206.824 1038.51 206.591C1038.75 206.359 1038.86 206.068 1038.86 205.72C1038.86 205.371 1038.75 205.081 1038.53 204.848C1038.31 204.616 1038.02 204.5 1037.68 204.5ZM1038.01 211.503C1038.38 211.503 1038.68 211.382 1038.93 211.139C1039.17 210.885 1039.29 210.568 1039.29 210.188C1039.29 209.818 1039.17 209.512 1038.93 209.269C1038.68 209.016 1038.38 208.889 1038.01 208.889H1035.49V211.503H1038.01ZM1044.53 206.988C1044.72 206.48 1045.03 206.1 1045.46 205.847C1045.91 205.593 1046.4 205.466 1046.94 205.466V207.748C1046.31 207.674 1045.75 207.801 1045.26 208.128C1044.77 208.456 1044.53 209 1044.53 209.76V213.547H1042.48V205.625H1044.53V206.988ZM1053.54 205.625H1055.59V213.547H1053.54V212.613C1052.93 213.384 1052.07 213.769 1050.96 213.769C1049.9 213.769 1048.99 213.368 1048.23 212.565C1047.48 211.752 1047.11 210.759 1047.11 209.586C1047.11 208.414 1047.48 207.426 1048.23 206.623C1048.99 205.81 1049.9 205.403 1050.96 205.403C1052.07 205.403 1052.93 205.789 1053.54 206.56V205.625ZM1049.77 211.202C1050.18 211.614 1050.71 211.82 1051.34 211.82C1051.97 211.82 1052.5 211.614 1052.91 211.202C1053.33 210.78 1053.54 210.241 1053.54 209.586C1053.54 208.931 1053.33 208.398 1052.91 207.986C1052.5 207.563 1051.97 207.352 1051.34 207.352C1050.71 207.352 1050.18 207.563 1049.77 207.986C1049.36 208.398 1049.15 208.931 1049.15 209.586C1049.15 210.241 1049.36 210.78 1049.77 211.202ZM1060.89 213.769C1059.7 213.769 1058.7 213.368 1057.9 212.565C1057.11 211.762 1056.71 210.769 1056.71 209.586C1056.71 208.403 1057.11 207.41 1057.9 206.607C1058.7 205.804 1059.7 205.403 1060.89 205.403C1061.66 205.403 1062.37 205.588 1063 205.958C1063.63 206.327 1064.12 206.824 1064.44 207.447L1062.68 208.477C1062.53 208.149 1062.28 207.891 1061.96 207.701C1061.64 207.51 1061.28 207.415 1060.88 207.415C1060.27 207.415 1059.76 207.621 1059.36 208.033C1058.96 208.435 1058.75 208.952 1058.75 209.586C1058.75 210.209 1058.96 210.727 1059.36 211.139C1059.76 211.54 1060.27 211.741 1060.88 211.741C1061.29 211.741 1061.65 211.651 1061.97 211.472C1062.3 211.282 1062.54 211.023 1062.7 210.695L1064.47 211.709C1064.13 212.333 1063.63 212.834 1063 213.215C1062.37 213.584 1061.66 213.769 1060.89 213.769ZM1069.77 207.59H1067.98V210.885C1067.98 211.16 1068.05 211.361 1068.19 211.488C1068.32 211.614 1068.52 211.688 1068.79 211.709C1069.05 211.72 1069.38 211.715 1069.77 211.693V213.547C1068.37 213.706 1067.37 213.574 1066.79 213.151C1066.22 212.729 1065.94 211.973 1065.94 210.885V207.59H1064.56V205.625H1065.94V204.024L1067.98 203.407V205.625H1069.77V207.59ZM1070.89 213.547V201.98H1072.94V213.547H1070.89ZM1076.22 210.426C1076.49 211.419 1077.24 211.915 1078.45 211.915C1079.24 211.915 1079.83 211.651 1080.23 211.123L1081.88 212.074C1081.09 213.204 1079.94 213.769 1078.42 213.769C1077.11 213.769 1076.06 213.373 1075.27 212.581C1074.48 211.789 1074.08 210.79 1074.08 209.586C1074.08 208.392 1074.47 207.399 1075.25 206.607C1076.03 205.804 1077.04 205.403 1078.26 205.403C1079.43 205.403 1080.38 205.804 1081.13 206.607C1081.89 207.41 1082.27 208.403 1082.27 209.586C1082.27 209.85 1082.25 210.13 1082.19 210.426H1076.22ZM1076.19 208.841H1080.23C1080.11 208.303 1079.87 207.901 1079.5 207.637C1079.14 207.373 1078.73 207.241 1078.26 207.241C1077.71 207.241 1077.26 207.384 1076.9 207.669C1076.54 207.943 1076.3 208.334 1076.19 208.841ZM1087.68 207.59H1085.89V210.885C1085.89 211.16 1085.96 211.361 1086.1 211.488C1086.23 211.614 1086.44 211.688 1086.7 211.709C1086.96 211.72 1087.29 211.715 1087.68 211.693V213.547C1086.28 213.706 1085.28 213.574 1084.7 213.151C1084.13 212.729 1083.85 211.973 1083.85 210.885V207.59H1082.47V205.625H1083.85V204.024L1085.89 203.407V205.625H1087.68V207.59ZM1099.8 213.547L1099.13 211.551H1094.71L1094.05 213.547H1091.69L1095.57 202.456H1098.28L1102.18 213.547H1099.8ZM1095.41 209.507H1098.45L1096.93 204.975L1095.41 209.507ZM1107.45 205.403C1108.52 205.403 1109.43 205.81 1110.18 206.623C1110.94 207.426 1111.32 208.414 1111.32 209.586C1111.32 210.759 1110.94 211.752 1110.18 212.565C1109.43 213.368 1108.52 213.769 1107.45 213.769C1106.34 213.769 1105.49 213.384 1104.89 212.613V216.716H1102.84V205.625H1104.89V206.56C1105.49 205.789 1106.34 205.403 1107.45 205.403ZM1105.5 211.202C1105.92 211.614 1106.44 211.82 1107.07 211.82C1107.71 211.82 1108.23 211.614 1108.64 211.202C1109.06 210.78 1109.27 210.241 1109.27 209.586C1109.27 208.931 1109.06 208.398 1108.64 207.986C1108.23 207.563 1107.71 207.352 1107.07 207.352C1106.44 207.352 1105.92 207.563 1105.5 207.986C1105.09 208.398 1104.89 208.931 1104.89 209.586C1104.89 210.241 1105.09 210.78 1105.5 211.202ZM1117.05 205.403C1118.12 205.403 1119.03 205.81 1119.78 206.623C1120.54 207.426 1120.92 208.414 1120.92 209.586C1120.92 210.759 1120.54 211.752 1119.78 212.565C1119.03 213.368 1118.12 213.769 1117.05 213.769C1115.95 213.769 1115.09 213.384 1114.49 212.613V216.716H1112.44V205.625H1114.49V206.56C1115.09 205.789 1115.95 205.403 1117.05 205.403ZM1115.11 211.202C1115.52 211.614 1116.04 211.82 1116.67 211.82C1117.31 211.82 1117.83 211.614 1118.24 211.202C1118.67 210.78 1118.88 210.241 1118.88 209.586C1118.88 208.931 1118.67 208.398 1118.24 207.986C1117.83 207.563 1117.31 207.352 1116.67 207.352C1116.04 207.352 1115.52 207.563 1115.11 207.986C1114.69 208.398 1114.49 208.931 1114.49 209.586C1114.49 210.241 1114.69 210.78 1115.11 211.202ZM1122.05 213.547V201.98H1124.09V213.547H1122.05ZM1126.66 204.674C1126.32 204.674 1126.02 204.553 1125.77 204.31C1125.53 204.056 1125.41 203.76 1125.41 203.422C1125.41 203.084 1125.53 202.789 1125.77 202.535C1126.02 202.282 1126.32 202.155 1126.66 202.155C1127.01 202.155 1127.3 202.282 1127.54 202.535C1127.8 202.789 1127.92 203.084 1127.92 203.422C1127.92 203.76 1127.8 204.056 1127.54 204.31C1127.3 204.553 1127.01 204.674 1126.66 204.674ZM1125.64 213.547V205.625H1127.69V213.547H1125.64ZM1133.01 213.769C1131.82 213.769 1130.82 213.368 1130.02 212.565C1129.23 211.762 1128.83 210.769 1128.83 209.586C1128.83 208.403 1129.23 207.41 1130.02 206.607C1130.82 205.804 1131.82 205.403 1133.01 205.403C1133.78 205.403 1134.49 205.588 1135.12 205.958C1135.75 206.327 1136.23 206.824 1136.56 207.447L1134.8 208.477C1134.64 208.149 1134.4 207.891 1134.07 207.701C1133.76 207.51 1133.4 207.415 1133 207.415C1132.38 207.415 1131.88 207.621 1131.48 208.033C1131.07 208.435 1130.87 208.952 1130.87 209.586C1130.87 210.209 1131.07 210.727 1131.48 211.139C1131.88 211.54 1132.38 211.741 1133 211.741C1133.41 211.741 1133.77 211.651 1134.09 211.472C1134.42 211.282 1134.66 211.023 1134.82 210.695L1136.59 211.709C1136.24 212.333 1135.75 212.834 1135.12 213.215C1134.49 213.584 1133.78 213.769 1133.01 213.769ZM1143.25 205.625H1145.3V213.547H1143.25V212.613C1142.64 213.384 1141.78 213.769 1140.67 213.769C1139.62 213.769 1138.71 213.368 1137.95 212.565C1137.2 211.752 1136.82 210.759 1136.82 209.586C1136.82 208.414 1137.2 207.426 1137.95 206.623C1138.71 205.81 1139.62 205.403 1140.67 205.403C1141.78 205.403 1142.64 205.789 1143.25 206.56V205.625ZM1139.48 211.202C1139.9 211.614 1140.42 211.82 1141.05 211.82C1141.69 211.82 1142.21 211.614 1142.62 211.202C1143.04 210.78 1143.25 210.241 1143.25 209.586C1143.25 208.931 1143.04 208.398 1142.62 207.986C1142.21 207.563 1141.69 207.352 1141.05 207.352C1140.42 207.352 1139.9 207.563 1139.48 207.986C1139.07 208.398 1138.87 208.931 1138.87 209.586C1138.87 210.241 1139.07 210.78 1139.48 211.202ZM1151.37 207.59H1149.58V210.885C1149.58 211.16 1149.65 211.361 1149.78 211.488C1149.92 211.614 1150.12 211.688 1150.38 211.709C1150.65 211.72 1150.98 211.715 1151.37 211.693V213.547C1149.96 213.706 1148.97 213.574 1148.39 213.151C1147.82 212.729 1147.53 211.973 1147.53 210.885V207.59H1146.15V205.625H1147.53V204.024L1149.58 203.407V205.625H1151.37V207.59ZM1153.51 204.674C1153.17 204.674 1152.87 204.553 1152.62 204.31C1152.37 204.056 1152.25 203.76 1152.25 203.422C1152.25 203.084 1152.37 202.789 1152.62 202.535C1152.87 202.282 1153.17 202.155 1153.51 202.155C1153.85 202.155 1154.15 202.282 1154.39 202.535C1154.65 202.789 1154.77 203.084 1154.77 203.422C1154.77 203.76 1154.65 204.056 1154.39 204.31C1154.15 204.553 1153.85 204.674 1153.51 204.674ZM1152.49 213.547V205.625H1154.54V213.547H1152.49ZM1162.84 212.565C1162.03 213.368 1161.03 213.769 1159.86 213.769C1158.69 213.769 1157.69 213.368 1156.88 212.565C1156.08 211.752 1155.68 210.759 1155.68 209.586C1155.68 208.414 1156.08 207.426 1156.88 206.623C1157.69 205.81 1158.69 205.403 1159.86 205.403C1161.03 205.403 1162.03 205.81 1162.84 206.623C1163.65 207.426 1164.06 208.414 1164.06 209.586C1164.06 210.759 1163.65 211.752 1162.84 212.565ZM1158.32 211.155C1158.74 211.567 1159.25 211.773 1159.86 211.773C1160.47 211.773 1160.99 211.567 1161.4 211.155C1161.81 210.743 1162.02 210.22 1162.02 209.586C1162.02 208.952 1161.81 208.429 1161.4 208.017C1160.99 207.605 1160.47 207.399 1159.86 207.399C1159.25 207.399 1158.74 207.605 1158.32 208.017C1157.92 208.429 1157.72 208.952 1157.72 209.586C1157.72 210.22 1157.92 210.743 1158.32 211.155ZM1169.59 205.403C1170.45 205.403 1171.16 205.693 1171.72 206.274C1172.29 206.855 1172.58 207.658 1172.58 208.683V213.547H1170.54V208.936C1170.54 208.408 1170.39 208.007 1170.11 207.732C1169.82 207.447 1169.44 207.304 1168.97 207.304C1168.44 207.304 1168.02 207.468 1167.7 207.796C1167.38 208.123 1167.22 208.614 1167.22 209.269V213.547H1165.18V205.625H1167.22V206.512C1167.72 205.773 1168.51 205.403 1169.59 205.403ZM1175.89 207.875C1175.89 208.086 1176.03 208.26 1176.31 208.398C1176.59 208.524 1176.93 208.641 1177.34 208.746C1177.74 208.841 1178.14 208.968 1178.54 209.127C1178.94 209.274 1179.28 209.528 1179.55 209.887C1179.84 210.246 1179.98 210.695 1179.98 211.234C1179.98 212.047 1179.68 212.676 1179.06 213.12C1178.46 213.553 1177.71 213.769 1176.8 213.769C1175.17 213.769 1174.06 213.141 1173.47 211.884L1175.24 210.885C1175.48 211.572 1175.99 211.915 1176.8 211.915C1177.53 211.915 1177.89 211.688 1177.89 211.234C1177.89 211.023 1177.75 210.854 1177.46 210.727C1177.19 210.59 1176.85 210.468 1176.45 210.363C1176.05 210.257 1175.65 210.125 1175.24 209.966C1174.84 209.808 1174.5 209.56 1174.21 209.222C1173.94 208.873 1173.8 208.44 1173.8 207.922C1173.8 207.141 1174.09 206.528 1174.66 206.084C1175.24 205.63 1175.96 205.403 1176.81 205.403C1177.46 205.403 1178.04 205.551 1178.57 205.847C1179.1 206.132 1179.52 206.544 1179.82 207.083L1178.08 208.033C1177.83 207.495 1177.4 207.225 1176.81 207.225C1176.55 207.225 1176.33 207.283 1176.15 207.399C1175.98 207.516 1175.89 207.674 1175.89 207.875Z" fill="#00CC8F"/>
<path d="M1200.83 414.602H1186.39V424.711H1200.83V414.602Z" stroke="white" stroke-width="2.64085" stroke-miterlimit="10" stroke-linecap="square"/>
<path d="M1189.27 414.601V410.269C1189.27 409.12 1189.73 408.018 1190.54 407.205C1191.36 406.393 1192.46 405.936 1193.61 405.936V405.936C1194.76 405.936 1195.86 406.393 1196.67 407.205C1197.48 408.018 1197.94 409.12 1197.94 410.269V414.601" stroke="white" stroke-width="2.64085" stroke-miterlimit="10" stroke-linecap="square"/>
<path d="M1210.94 418.934C1210.94 423.53 1209.11 427.938 1205.86 431.188C1202.61 434.439 1198.2 436.264 1193.61 436.264C1189.01 436.264 1184.6 434.439 1181.35 431.188C1178.1 427.938 1176.28 423.53 1176.28 418.934V398.715L1193.61 394.382L1210.94 398.715V418.934Z" stroke="white" stroke-width="2.64085" stroke-miterlimit="10" stroke-linecap="square"/>
<g clip-path="url(#clip3_844_4300)">
<path d="M1107.78 408.536V411.905" stroke="white" stroke-width="2.64085" stroke-miterlimit="10" stroke-linecap="square"/>
<path d="M1115.48 407.091V403.721L1107.78 398.906L1100.08 403.784V407.091" stroke="white" stroke-width="2.64085" stroke-miterlimit="10" stroke-linecap="square"/>
<path d="M1100.08 403.722L1107.78 408.536L1115.48 403.722" stroke="white" stroke-width="2.64085" stroke-miterlimit="10"/>
<path d="M1094.3 416.961V425.626L1086.6 420.812V412.209L1094.3 407.332L1102 412.147L1094.3 416.961ZM1094.3 416.961L1086.6 412.209" stroke="white" stroke-width="2.64085" stroke-miterlimit="10"/>
<path d="M1121.26 416.961V425.626L1128.96 420.812V412.147L1121.26 407.332L1113.56 412.209L1121.26 416.961ZM1121.26 416.961L1128.96 412.147" stroke="white" stroke-width="2.64085" stroke-miterlimit="10"/>
<path d="M1107.78 425.385V434.05" stroke="white" stroke-width="2.64085" stroke-miterlimit="10"/>
<path d="M1115.48 420.571L1107.78 415.756L1100.08 420.633V429.236L1107.78 434.05L1115.48 429.236V420.571Z" stroke="white" stroke-width="2.64085" stroke-miterlimit="10"/>
<path d="M1100.08 420.57L1107.78 425.384L1115.48 420.57" stroke="white" stroke-width="2.64085" stroke-miterlimit="10"/>
<path d="M1107.78 425.385V434.05" stroke="white" stroke-width="2.64085" stroke-miterlimit="10"/>
</g>
<g clip-path="url(#clip4_844_4300)">
<path d="M1039.28 415.757V404.203H1030.62H1011.84H1004.62C1002.23 404.203 1000.29 402.264 1000.29 399.871V430.199C1000.29 433.389 1002.88 435.976 1006.07 435.976H1039.28V424.422" stroke="white" stroke-width="2.64085" stroke-miterlimit="10" stroke-linecap="square"/>
<path d="M1043.62 424.422H1033.51C1031.11 424.422 1029.17 422.483 1029.17 420.089C1029.17 417.696 1031.11 415.757 1033.51 415.757H1043.62V424.422Z" stroke="white" stroke-width="2.64085" stroke-miterlimit="10" stroke-linecap="square"/>
<path d="M1030.62 398.427V395.538H1004.62C1002.23 395.538 1000.29 397.478 1000.29 399.871C1000.29 402.264 1002.23 404.203 1004.62 404.203" stroke="white" stroke-width="2.64085" stroke-miterlimit="10" stroke-linecap="square"/>
</g>
<circle cx="1107.12" cy="145.731" r="39.6127" fill="#00CC8F"/>
<path d="M1125.41 154.545L1116.15 149.201V142.261L1125.41 136.917L1126.62 139.017L1118.58 143.661V147.802L1126.62 152.446L1125.41 154.545Z" fill="white"/>
<path d="M1089.84 154.545L1088.63 152.446L1096.68 147.802V143.661L1088.63 139.017L1089.84 136.917L1099.1 142.261V149.201L1089.84 154.545Z" fill="white"/>
<path d="M1114.97 140.082L1108.96 136.612V125.924H1111.39V135.212L1114.97 137.28L1123.02 132.636L1124.23 134.736L1114.97 140.082Z" fill="white"/>
<path d="M1106.48 165.537H1104.06V156.249L1100.47 154.179L1092.43 158.823L1091.22 156.723L1100.48 151.379L1106.48 154.855V165.537Z" fill="white"/>
<path d="M1100.47 140.082L1091.22 134.738L1092.44 132.639L1100.47 137.28L1104.06 135.212V125.924H1106.48V136.612L1100.47 140.082Z" fill="white"/>
<path d="M1111.39 165.537H1108.96V154.855L1114.97 151.379L1124.23 156.723L1123.02 158.823L1114.97 154.179L1111.39 156.249V165.537Z" fill="white"/>
<path d="M461.433 132.526H751.926C795.681 132.526 831.151 167.997 831.151 211.752V423.019C831.151 466.774 795.681 502.245 751.926 502.245H540.658C496.903 502.245 461.433 466.774 461.433 423.019V132.526Z" fill="#006058"/>
<path d="M530.095 121.963C530.095 113.212 537.189 106.118 545.94 106.118H746.645C755.396 106.118 762.49 113.212 762.49 121.963V185.344H545.94C537.189 185.344 530.095 178.249 530.095 169.498V121.963Z" fill="#003E42"/>
<g clip-path="url(#clip5_844_4300)">
<path d="M630.447 131.646V159.815C630.447 162.808 637.49 165.097 646.292 165.097C655.095 165.097 662.137 162.808 662.137 159.815V131.646" stroke="#00C8B5" stroke-width="2.64085" stroke-miterlimit="10" stroke-linecap="round" stroke-linejoin="round"/>
<path d="M646.292 136.928C655.043 136.928 662.137 134.563 662.137 131.646C662.137 128.729 655.043 126.365 646.292 126.365C637.541 126.365 630.447 128.729 630.447 131.646C630.447 134.563 637.541 136.928 646.292 136.928Z" stroke="#00C8B5" stroke-width="2.64085" stroke-miterlimit="10" stroke-linecap="round" stroke-linejoin="round"/>
<path d="M662.137 145.73C662.137 148.723 655.095 151.012 646.292 151.012C637.49 151.012 630.447 148.723 630.447 145.73" stroke="#00C8B5" stroke-width="2.64085" stroke-miterlimit="10" stroke-linecap="round" stroke-linejoin="round"/>
</g>
<path d="M720.836 141.527C720.306 141.531 719.778 141.584 719.257 141.686C718.49 139.402 717.024 137.416 715.068 136.01C713.111 134.603 710.762 133.846 708.352 133.846C705.942 133.846 703.593 134.603 701.637 136.01C699.68 137.416 698.214 139.402 697.447 141.686C696.927 141.584 696.398 141.531 695.868 141.527C693.576 141.527 691.378 142.437 689.757 144.058C688.136 145.679 687.225 147.877 687.225 150.17C687.225 152.462 688.136 154.66 689.757 156.281C691.378 157.902 693.576 158.812 695.868 158.812H720.836C723.128 158.812 725.327 157.902 726.947 156.281C728.568 154.66 729.479 152.462 729.479 150.17C729.479 147.877 728.568 145.679 726.947 144.058C725.327 142.437 723.128 141.527 720.836 141.527V141.527Z" stroke="#00C8B5" stroke-width="2.64085" stroke-miterlimit="10" stroke-linecap="round" stroke-linejoin="round"/>
<g clip-path="url(#clip6_844_4300)">
<path d="M599.418 125.924H569.708V165.537H599.418V125.924Z" stroke="#00C8B5" stroke-width="2.64085" stroke-miterlimit="10" stroke-linecap="round" stroke-linejoin="round"/>
<path d="M576.31 132.526H579.611" stroke="#00C8B5" stroke-width="2.64085" stroke-miterlimit="10" stroke-linecap="square"/>
<path d="M589.514 132.526H592.815" stroke="#00C8B5" stroke-width="2.64085" stroke-miterlimit="10" stroke-linecap="square"/>
<path d="M576.31 139.128H579.611" stroke="#00C8B5" stroke-width="2.64085" stroke-miterlimit="10" stroke-linecap="square"/>
<path d="M589.514 139.128H592.815" stroke="#00C8B5" stroke-width="2.64085" stroke-miterlimit="10" stroke-linecap="square"/>
<path d="M576.31 145.73H579.611" stroke="#00C8B5" stroke-width="2.64085" stroke-miterlimit="10" stroke-linecap="square"/>
<path d="M589.514 145.73H592.815" stroke="#00C8B5" stroke-width="2.64085" stroke-miterlimit="10" stroke-linecap="square"/>
<path d="M576.31 152.333H579.611" stroke="#00C8B5" stroke-width="2.64085" stroke-miterlimit="10" stroke-linecap="square"/>
<path d="M589.514 152.333H592.815" stroke="#00C8B5" stroke-width="2.64085" stroke-miterlimit="10" stroke-linecap="square"/>
<path d="M584.563 165.537V158.935" stroke="#00C8B5" stroke-width="2.64085" stroke-miterlimit="10" stroke-linecap="square"/>
</g>
<circle cx="645.907" cy="317.77" r="92.8146" fill="#48CA2D" fill-opacity="0.14"/>
<circle cx="645.908" cy="317.771" r="76.8465" fill="#48CA2D"/>
<path d="M640.514 273.685H642.764L639.753 281.607H637.424L634.414 273.685H636.664L638.581 279.231L640.514 273.685ZM644.764 272.734C644.426 272.734 644.13 272.613 643.876 272.37C643.633 272.116 643.512 271.82 643.512 271.482C643.512 271.144 643.633 270.849 643.876 270.595C644.13 270.342 644.426 270.215 644.764 270.215C645.112 270.215 645.408 270.342 645.651 270.595C645.904 270.849 646.031 271.144 646.031 271.482C646.031 271.82 645.904 272.116 645.651 272.37C645.408 272.613 645.112 272.734 644.764 272.734ZM643.749 281.607V273.685H645.794V281.607H643.749ZM653.685 273.685H655.729V281.607H653.685V280.673C653.073 281.444 652.212 281.829 651.103 281.829C650.046 281.829 649.138 281.428 648.377 280.625C647.627 279.812 647.252 278.819 647.252 277.646C647.252 276.474 647.627 275.486 648.377 274.683C649.138 273.87 650.046 273.463 651.103 273.463C652.212 273.463 653.073 273.849 653.685 274.62V273.685ZM649.914 279.262C650.326 279.674 650.849 279.88 651.483 279.88C652.117 279.88 652.64 279.674 653.052 279.262C653.474 278.84 653.685 278.301 653.685 277.646C653.685 276.991 653.474 276.458 653.052 276.046C652.64 275.623 652.117 275.412 651.483 275.412C650.849 275.412 650.326 275.623 649.914 276.046C649.502 276.458 649.296 276.991 649.296 277.646C649.296 278.301 649.502 278.84 649.914 279.262ZM635.695 321.607L634.031 316.616H622.98L621.316 321.607H615.413L625.119 293.879H631.892L641.637 321.607H635.695ZM624.722 311.506H632.328L628.525 300.177L624.722 311.506ZM654.668 293.879C657.336 293.879 659.58 294.776 661.403 296.572C663.225 298.368 664.136 300.573 664.136 303.188C664.136 305.802 663.225 308.007 661.403 309.803C659.58 311.599 657.336 312.497 654.668 312.497H649.796V321.607H644.33V293.879H654.668ZM654.668 307.386C655.83 307.386 656.794 306.99 657.56 306.198C658.326 305.379 658.709 304.376 658.709 303.188C658.709 301.973 658.326 300.969 657.56 300.177C656.794 299.385 655.83 298.989 654.668 298.989H649.796V307.386H654.668ZM667.695 293.879H673.161V321.607H667.695V293.879Z" fill="white"/>
<path d="M645.574 355.163V336.4" stroke="white" stroke-width="3.10702" stroke-miterlimit="10" stroke-linecap="square"/>
<path d="M624.98 350.741L633.067 342.655V336.4" stroke="white" stroke-width="3.10702" stroke-miterlimit="10" stroke-linecap="square"/>
<path d="M666.171 350.741L658.084 342.655V336.4" stroke="white" stroke-width="3.10702" stroke-miterlimit="10" stroke-linecap="square"/>
<path d="M620.558 361.417C624.012 361.417 626.813 358.617 626.813 355.163C626.813 351.709 624.012 348.909 620.558 348.909C617.104 348.909 614.304 351.709 614.304 355.163C614.304 358.617 617.104 361.417 620.558 361.417Z" stroke="white" stroke-width="3.10702" stroke-miterlimit="10" stroke-linecap="square"/>
<path d="M670.591 361.417C674.045 361.417 676.846 358.617 676.846 355.163C676.846 351.709 674.045 348.909 670.591 348.909C667.137 348.909 664.337 351.709 664.337 355.163C664.337 358.617 667.137 361.417 670.591 361.417Z" stroke="white" stroke-width="3.10702" stroke-miterlimit="10" stroke-linecap="square"/>
<path d="M645.574 367.67C649.028 367.67 651.828 364.87 651.828 361.416C651.828 357.962 649.028 355.162 645.574 355.162C642.12 355.162 639.32 357.962 639.32 361.416C639.32 364.87 642.12 367.67 645.574 367.67Z" stroke="white" stroke-width="3.10702" stroke-miterlimit="10" stroke-linecap="square"/>
<path d="M0.60498 132.526H291.098C334.853 132.526 370.323 167.996 370.323 211.751V423.019C370.323 466.774 334.853 502.244 291.098 502.244H79.8303C36.0753 502.244 0.60498 466.774 0.60498 423.019V132.526Z" fill="#00C8B5"/>
<path fill-rule="evenodd" clip-rule="evenodd" d="M89.3599 126.075L185.902 163.528L282.445 126.244L185.649 88.9521L89.3599 126.075Z" fill="#88CCCA"/>
<path fill-rule="evenodd" clip-rule="evenodd" d="M89.3599 420.394L185.902 457.847L282.445 420.562L185.649 383.271L89.3599 420.394Z" fill="#88CCCA"/>
<path d="M260.683 262.243L282.443 253.819L282.443 270.68C276.088 268.212 260.683 262.243 260.683 262.243Z" fill="#D5F2F1"/>
<path d="M197.644 122.343L214.778 115.56V423.112L197.644 430.034L197.644 122.343Z" fill="#00C8B5"/>
<path d="M197.644 121.465V429.897L181.388 423.414L181.388 115.86L197.644 121.465Z" fill="#006058"/>
<path d="M181.388 115.937L198.488 109.162L214.779 115.568L197.644 122.343L181.388 115.937Z" fill="#429A97"/>
<path d="M173.04 132.009L190.174 125.225V432.538L173.04 439.46V132.009Z" fill="#00C8B5"/>
<path d="M173.041 131.934L173.04 439.236L156.784 432.753L156.784 125.717L173.041 131.934Z" fill="#006058"/>
<path d="M156.784 125.603L173.884 118.828L190.175 125.234L173.04 132.009L156.784 125.603Z" fill="#429A97"/>
<path fill-rule="evenodd" clip-rule="evenodd" d="M89.3545 271.511L185.897 308.964L282.44 271.68L185.644 234.388L89.3545 271.511Z" fill="#88CCCA"/>
<path fill-rule="evenodd" clip-rule="evenodd" d="M89.0732 347.211L185.616 384.664L282.066 347.463L185.363 310.088L89.0732 347.211Z" fill="#88CCCA"/>
<path fill-rule="evenodd" clip-rule="evenodd" d="M89.3545 270.43L185.897 307.883L282.44 270.599L185.644 233.307L89.3545 270.43Z" fill="#88CCCA"/>
<path fill-rule="evenodd" clip-rule="evenodd" d="M89.0732 346.129L185.616 383.582L282.066 346.394L185.363 309.006L89.0732 346.129Z" fill="#88CCCA"/>
<path fill-rule="evenodd" clip-rule="evenodd" d="M89.0732 420.193L185.616 457.646L282.066 420.458L185.363 383.07L89.0732 420.193Z" fill="#006058"/>
<path d="M133.226 326.407L110.437 333.885V354.51L133.226 345.67V326.407Z" fill="#006058"/>
<path d="M152.454 333.529L129.665 341.006V361.631L152.454 352.791V333.529Z" fill="#006058"/>
<path d="M224.027 332.816L165.987 354.893V375.518L224.027 352.079V332.816Z" fill="#006058"/>
<path d="M176.669 331.084L153.88 338.562L154.236 359.57L176.669 350.346V331.084Z" fill="#006058"/>
<path d="M144.621 331.795L154.591 335L154.235 359.626L144.621 356.066V331.795Z" fill="#4FA5A2"/>
<path d="M197.315 274.789L195.179 273.755L195.535 294.764L197.315 294.052V274.789Z" fill="#02B5A6"/>
<path d="M193.758 269.781L195.894 270.194L195.538 294.764L193.758 293.994L193.758 269.781Z" fill="#012C28"/>
<path d="M161.712 263.395L159.575 262.361L159.932 283.37L161.712 282.658V263.395Z" fill="#02B5A6"/>
<path d="M158.151 258.387L160.288 258.8L159.932 283.37L158.151 282.6L158.151 258.387Z" fill="#012C28"/>
<path d="M131.088 252.769L128.952 251.735L129.308 272.744L131.088 272.032V252.769Z" fill="#02B5A6"/>
<path d="M127.528 247.761L129.665 248.174L129.309 272.744L127.528 271.974L127.528 247.761Z" fill="#012C28"/>
<path d="M225.097 328.177L246.461 335.712L246.105 360.338L225.097 352.448V328.177Z" fill="#4FA5A2"/>
<path d="M247.882 318.976L269.247 326.51L268.891 351.137L247.882 343.246V318.976Z" fill="#006058"/>
<path d="M217.258 267.012L215.122 265.978L215.478 286.986L217.258 286.274V267.012Z" fill="#02B5A6"/>
<path d="M213.7 262.004L215.837 262.417L215.481 286.986L213.7 286.217L213.7 262.004Z" fill="#012C28"/>
<path d="M181.65 331.819L179.513 330.785L179.87 351.793L181.65 351.081V331.819Z" fill="#02B5A6"/>
<path d="M178.089 326.811L180.226 327.224L179.87 351.793L178.089 351.024L178.089 326.811Z" fill="#012C28"/>
<path d="M151.031 319.712L148.894 318.678L149.25 339.687L151.031 338.975V319.712Z" fill="#02B5A6"/>
<path d="M147.47 314.704L149.606 315.117L149.25 339.686L147.47 338.917L147.47 314.704Z" fill="#012C28"/>
<path d="M232.926 260.602L230.79 259.568L231.146 280.577L232.926 279.865V260.602Z" fill="#02B5A6"/>
<path d="M229.366 255.594L231.502 256.007L231.146 280.577L229.366 279.807L229.366 255.594Z" fill="#012C28"/>
<path d="M197.315 323.272L195.179 322.238L195.535 343.247L197.315 342.535V323.272Z" fill="#02B5A6"/>
<path d="M193.758 318.265L195.894 318.678L195.538 343.247L193.758 342.478L193.758 318.265Z" fill="#012C28"/>
<path d="M166.699 311.166L164.563 310.132L164.919 331.141L166.699 330.429V311.166Z" fill="#02B5A6"/>
<path d="M163.139 306.158L165.275 306.571L164.919 331.141L163.139 330.371L163.139 306.158Z" fill="#012C28"/>
<path d="M178.801 283.392L176.665 282.358L177.021 303.367L178.801 302.655V283.392Z" fill="#02B5A6"/>
<path d="M175.241 278.384L177.378 278.797L177.022 303.367L175.241 302.597L175.241 278.384Z" fill="#012C28"/>
<path d="M143.195 270.572L141.059 269.538L141.415 290.547L143.195 289.834V270.572Z" fill="#02B5A6"/>
<path d="M139.635 265.564L141.771 265.977L141.415 290.546L139.635 289.777L139.635 265.564Z" fill="#012C28"/>
<path d="M115.42 259.18L113.283 258.146L113.64 279.154L115.42 278.442V259.18Z" fill="#02B5A6"/>
<path d="M111.859 254.172L113.995 254.585L113.639 279.154L111.859 278.385L111.859 254.172Z" fill="#012C28"/>
<path d="M115.42 259.891L113.283 258.857L113.64 279.865L115.42 279.153V259.891Z" fill="#02B5A6"/>
<path d="M111.859 254.883L113.995 255.296L113.639 279.865L111.859 279.096L111.859 254.883Z" fill="#012C28"/>
<path d="M230.792 308.318L228.656 307.284L229.012 328.292L230.792 327.58V308.318Z" fill="#02B5A6"/>
<path d="M227.232 303.31L229.368 303.723L229.012 328.292L227.232 327.523L227.232 303.31Z" fill="#012C28"/>
<path d="M253.578 252.77L251.442 251.736L251.798 272.745L253.578 272.033V252.77Z" fill="#02B5A6"/>
<path d="M250.018 247.762L252.154 248.175L251.798 272.744L250.018 271.975L250.018 247.762Z" fill="#012C28"/>
<path d="M217.975 315.439L215.838 314.405L216.194 335.413L217.975 334.701V315.439Z" fill="#02B5A6"/>
<path d="M214.414 310.431L216.55 310.844L216.194 335.413L214.414 334.644L214.414 310.431Z" fill="#012C28"/>
<path d="M282.41 270.613V271.694L185.903 308.999V307.377L282.41 270.613Z" fill="#10867C"/>
<path d="M282.066 346.395V347.463L185.62 384.699V383.077L282.066 346.395Z" fill="#10867C"/>
<path d="M185.628 384.692V383.078L89.0732 346.038V347.66L185.628 384.692Z" fill="#006058"/>
<path d="M185.936 367.244V365.63L89.3813 328.59V330.212L185.936 367.244Z" fill="#006058"/>
<path d="M282.066 328.947V330.015L185.925 367.245V365.623L282.066 328.947Z" fill="#10867C"/>
<path fill-rule="evenodd" clip-rule="evenodd" d="M89.3569 253.67L185.9 291.123L282.442 253.839L185.646 216.547L89.3569 253.67Z" fill="#88CCCA"/>
<path opacity="0.5" fill-rule="evenodd" clip-rule="evenodd" d="M89.3574 252.589L185.9 290.041L282.443 252.757L185.647 215.466L89.3574 252.589Z" fill="#88CCCA"/>
<path d="M89.3545 253.669L89.3545 252.59L91.678 253.267L91.4279 254.452L89.3545 253.669Z" fill="#88CCCA"/>
<path d="M90.7587 270.958L91.5585 271.965V272.345L89.3623 271.518V270.424L90.7587 270.958Z" fill="#88CCCA"/>
<path d="M197.648 204.514L214.783 203.217V256.007L197.648 262.713V204.514Z" fill="#02B5A6"/>
<path d="M197.645 204.346V262.629L181.389 256.432V203.275L197.645 204.346Z" fill="#006058"/>
<path d="M173.04 202.971L190.175 201.596V265.568L173.04 272.405L173.04 202.971Z" fill="#02B5A6"/>
<path d="M173.041 206.348V272.405L156.785 265.733V205.16L173.041 206.348Z" fill="#67AFAD"/>
<path fill-rule="evenodd" clip-rule="evenodd" d="M213.701 133.41L282.6 125.272V252.886L213.701 227.79V133.41Z" fill="#D5F2F1"/>
<path fill-rule="evenodd" clip-rule="evenodd" d="M282.066 347.462L185.641 384.685L185.863 457.888L282.066 420.813V347.462Z" fill="#EEFFFE"/>
<path fill-rule="evenodd" clip-rule="evenodd" d="M276.999 281.605L191.417 314.775V324.655L276.999 291.566V281.605Z" fill="#D5F2F1"/>
<path fill-rule="evenodd" clip-rule="evenodd" d="M276.999 360.664L191.417 393.833V403.713L276.999 370.625V360.664Z" fill="#D5F2F1"/>
<path fill-rule="evenodd" clip-rule="evenodd" d="M276.999 400.2L191.417 433.369V443.249L276.999 410.161V400.2Z" fill="#D5F2F1"/>
<path fill-rule="evenodd" clip-rule="evenodd" d="M276.999 301.374L191.417 334.543V344.423L276.999 311.335V301.374Z" fill="#D5F2F1"/>
<path fill-rule="evenodd" clip-rule="evenodd" d="M276.999 380.432L191.417 413.601V423.481L276.999 390.393V380.432Z" fill="#D5F2F1"/>
<path fill-rule="evenodd" clip-rule="evenodd" d="M239.441 130.182L271.472 142.434V152.314L239.441 140.143V130.182Z" fill="#B9E0DF"/>
<path fill-rule="evenodd" clip-rule="evenodd" d="M213.434 198.9L271.469 221.491V231.371L213.434 208.861V198.9Z" fill="#B9E0DF"/>
<path fill-rule="evenodd" clip-rule="evenodd" d="M212.767 158.448L271.468 181.961V191.842L212.767 168.409V158.448Z" fill="#B9E0DF"/>
<path fill-rule="evenodd" clip-rule="evenodd" d="M213.659 140.668L271.472 162.202V172.082L213.659 150.629V140.668Z" fill="#B9E0DF"/>
<path fill-rule="evenodd" clip-rule="evenodd" d="M213.089 217.815L271.472 241.259V251.139L213.089 227.776V217.815Z" fill="#B9E0DF"/>
<path fill-rule="evenodd" clip-rule="evenodd" d="M212.546 178.008L271.47 201.73V211.61L212.546 187.969V178.008Z" fill="#B9E0DF"/>
<path d="M245.754 122.836L243.617 123.905L241.837 258.914L243.617 258.202L245.754 122.836Z" fill="#00C8B5"/>
<path d="M241.836 122.423L243.972 122.837C243.138 175.978 242.67 205.773 241.836 258.914L240.056 258.145L241.836 122.423Z" fill="#006058"/>
<path d="M230.794 128.948L228.658 130.016L226.878 265.026L228.658 264.314L230.794 128.948Z" fill="#00C8B5"/>
<path d="M226.877 128.534L229.013 128.947C228.179 182.089 227.711 211.884 226.877 265.025L225.097 264.256L226.877 128.534Z" fill="#006058"/>
<path d="M210.143 136.781L208.007 137.849L206.226 272.859L208.007 272.147L210.143 136.781Z" fill="#00C8B5"/>
<path d="M206.225 136.368L208.362 136.781C207.527 189.923 207.059 219.717 206.225 272.859L204.445 272.09L206.225 136.368Z" fill="#006058"/>
<path d="M194.477 143.19L192.34 144.259L190.56 279.268L192.34 278.556L194.477 143.19Z" fill="#00C8B5"/>
<path d="M190.559 142.777L192.695 143.19C191.861 196.332 191.393 226.126 190.559 279.268L188.778 278.499L190.559 142.777Z" fill="#006058"/>
<path d="M174.539 151.023L172.403 152.091L170.622 287.101L172.403 286.389L174.539 151.023Z" fill="#02B5A6"/>
<path d="M170.621 150.61L172.758 151.023C171.923 204.165 171.455 233.959 170.621 287.101L168.841 286.332L170.621 150.61Z" fill="#012C28"/>
<path d="M270.674 130.257L268.537 131.326L266.757 266.335L268.537 265.623L270.674 130.257Z" fill="#00C8B5"/>
<path d="M266.756 129.844L268.892 130.258C268.058 183.399 267.59 213.194 266.756 266.335L264.976 265.566L266.756 129.844Z" fill="#006058"/>
<path d="M255.713 136.367L253.576 137.435L251.796 272.445L253.576 271.733L255.713 136.367Z" fill="#00C8B5"/>
<path d="M251.798 135.954L253.935 136.367C253.101 189.509 252.633 219.303 251.798 272.445L250.018 271.675L251.798 135.954Z" fill="#006058"/>
<path d="M235.066 144.201L232.93 145.269L231.15 280.279L232.93 279.567L235.066 144.201Z" fill="#00C8B5"/>
<path d="M231.149 143.788L233.285 144.201C232.451 197.343 231.983 227.138 231.149 280.279L229.368 279.51L231.149 143.788Z" fill="#006058"/>
<path d="M219.398 150.61L217.262 151.678L215.482 286.688L217.262 285.976L219.398 150.61Z" fill="#00C8B5"/>
<path d="M215.481 150.197L217.617 150.611C216.783 203.752 216.315 233.547 215.481 286.688L213.7 285.919L215.481 150.197Z" fill="#006058"/>
<path d="M199.456 158.444L197.319 159.513L195.539 294.522L197.319 293.81L199.456 158.444Z" fill="#00C8B5"/>
<path d="M195.538 158.031L197.675 158.444C196.84 211.586 196.372 241.38 195.538 294.522L193.758 293.753L195.538 158.031Z" fill="#006058"/>
<path d="M180.939 159.455L178.803 160.523L177.022 303.068L178.803 302.356L180.939 159.455Z" fill="#02B5A6"/>
<path d="M177.022 159.455L179.158 159.868C178.324 213.01 177.856 249.926 177.022 303.068L175.241 302.298L177.022 159.455Z" fill="#012C28"/>
<path d="M282.411 252.772V253.853L185.475 291.355V289.685L282.411 252.772Z" fill="#10867C"/>
<path d="M282.412 233.52V234.601L185.573 272.934V271.264L282.412 233.52Z" fill="#10867C"/>
<path d="M282.412 215.004V216.085L185.573 254.418V252.748L282.412 215.004Z" fill="#10867C"/>
<path d="M282.412 194.352V195.433L185.573 233.766V232.096L282.412 194.352Z" fill="#10867C"/>
<path d="M282.412 173.699V174.781L185.573 213.113V211.443L282.412 173.699Z" fill="#10867C"/>
<path d="M282.055 153.759V154.84L185.215 193.172V191.503L282.055 153.759Z" fill="#10867C"/>
<path fill-rule="evenodd" clip-rule="evenodd" d="M282.426 271.619L185.94 309.007V365.623L282.07 328.947L282.426 271.619Z" fill="#EEFFFE"/>
<path fill-rule="evenodd" clip-rule="evenodd" d="M277.008 281.606L191.426 314.775V324.655L277.008 291.567V281.606Z" fill="#D5F2F1"/>
<path fill-rule="evenodd" clip-rule="evenodd" d="M277.008 360.664L191.426 393.833V403.713L277.008 370.625V360.664Z" fill="#D5F2F1"/>
<path fill-rule="evenodd" clip-rule="evenodd" d="M277.008 301.375L191.426 334.544V344.424L277.008 311.336V301.375Z" fill="#D5F2F1"/>
<path fill-rule="evenodd" clip-rule="evenodd" d="M277.008 380.432L191.426 413.601V423.482L277.008 390.393V380.432Z" fill="#D5F2F1"/>
<path fill-rule="evenodd" clip-rule="evenodd" d="M89.0732 270.625L185.926 307.225V365.621L89.0732 328.665V270.625Z" fill="#D5F2F1"/>
<path fill-rule="evenodd" clip-rule="evenodd" d="M93.2456 281.605L178.829 314.775V324.655L93.2456 291.566V281.605Z" fill="#B9E0DF"/>
<path fill-rule="evenodd" clip-rule="evenodd" d="M93.2456 360.664L178.829 393.833V403.713L93.2456 370.625V360.664Z" fill="#B9E0DF"/>
<path fill-rule="evenodd" clip-rule="evenodd" d="M93.2456 400.2L178.829 433.369V443.249L93.2456 410.161V400.2Z" fill="#B9E0DF"/>
<path fill-rule="evenodd" clip-rule="evenodd" d="M93.2456 301.375L178.829 334.544V344.424L93.2456 311.336V301.375Z" fill="#B9E0DF"/>
<path fill-rule="evenodd" clip-rule="evenodd" d="M93.2456 380.431L178.829 413.6V423.481L93.2456 390.392V380.431Z" fill="#B9E0DF"/>
<path fill-rule="evenodd" clip-rule="evenodd" d="M89.0732 347.105L185.665 384.685L185.881 457.888L89.0732 420.457V347.105Z" fill="#D5F2F1"/>
<path fill-rule="evenodd" clip-rule="evenodd" d="M93.2456 281.606L178.829 314.775V324.655L93.2456 291.567V281.606Z" fill="#B9E0DF"/>
<path fill-rule="evenodd" clip-rule="evenodd" d="M93.2456 360.664L178.829 393.833V403.713L93.2456 370.625V360.664Z" fill="#B9E0DF"/>
<path fill-rule="evenodd" clip-rule="evenodd" d="M93.2456 400.2L178.829 433.369V443.249L93.2456 410.161V400.2Z" fill="#B9E0DF"/>
<path fill-rule="evenodd" clip-rule="evenodd" d="M93.2456 301.375L178.829 334.544V344.424L93.2456 311.336V301.375Z" fill="#B9E0DF"/>
<path fill-rule="evenodd" clip-rule="evenodd" d="M93.2456 380.432L178.829 413.601V423.481L93.2456 390.393V380.432Z" fill="#B9E0DF"/>
<path opacity="0.5" fill-rule="evenodd" clip-rule="evenodd" d="M89.0732 233.61L185.616 271.063L282.422 233.519L185.363 196.487L89.0732 233.61Z" fill="#88CCCA"/>
<path opacity="0.5" fill-rule="evenodd" clip-rule="evenodd" d="M89.0732 215.093L185.616 252.546L282.159 215.262L185.363 177.971L89.0732 215.093Z" fill="#88CCCA"/>
<path opacity="0.5" fill-rule="evenodd" clip-rule="evenodd" d="M89.0732 194.441L185.616 231.894L282.422 194.35L185.363 157.318L89.0732 194.441Z" fill="#88CCCA"/>
<path opacity="0.5" fill-rule="evenodd" clip-rule="evenodd" d="M89.0732 173.788L185.616 211.241L282.422 173.698L222.602 149.484L185.616 163.727L148.894 149.484L89.0732 173.788Z" fill="#88CCCA"/>
<path opacity="0.5" fill-rule="evenodd" clip-rule="evenodd" d="M89.0732 153.849L185.616 191.302L282.066 153.758L245.746 139.515L185.616 163.728L124.325 139.515L89.0732 153.849Z" fill="#88CCCA"/>
<path fill-rule="evenodd" clip-rule="evenodd" d="M89.3612 126.074L185.757 163.521L185.926 309.007L89.125 271.34L89.3612 126.074Z" fill="#D5F2F1"/>
<path fill-rule="evenodd" clip-rule="evenodd" d="M93.2422 140.399L178.826 173.569V183.449L93.2422 150.36V140.399Z" fill="#B9E0DF"/>
<path fill-rule="evenodd" clip-rule="evenodd" d="M93.2422 219.457L178.826 252.626V262.506L93.2422 229.418V219.457Z" fill="#B9E0DF"/>
<path fill-rule="evenodd" clip-rule="evenodd" d="M93.2422 179.928L178.826 213.097V222.977L93.2422 189.889V179.928Z" fill="#B9E0DF"/>
<path fill-rule="evenodd" clip-rule="evenodd" d="M93.2422 258.992L178.826 292.161V302.042L93.2422 268.953V258.992Z" fill="#B9E0DF"/>
<path fill-rule="evenodd" clip-rule="evenodd" d="M93.2422 160.168L178.826 193.337V203.217L93.2422 170.129V160.168Z" fill="#B9E0DF"/>
<path fill-rule="evenodd" clip-rule="evenodd" d="M93.2422 239.225L178.826 272.394V282.274L93.2422 249.186V239.225Z" fill="#B9E0DF"/>
<path fill-rule="evenodd" clip-rule="evenodd" d="M93.2422 199.696L178.826 232.865V242.745L93.2422 209.657V199.696Z" fill="#B9E0DF"/>
<path fill-rule="evenodd" clip-rule="evenodd" d="M89.3599 126.075L185.903 163.527L198.393 158.743L102.252 120.999L89.3599 126.075Z" fill="#88CCCA"/>
<path fill-rule="evenodd" clip-rule="evenodd" d="M160.454 153.648L185.799 163.515L282.384 126.238L257.499 116.369L160.454 153.648Z" fill="#88CCCA"/>
<g clip-path="url(#clip7_844_4300)">
<path d="M148.475 111.562L147.449 111.178L147.221 100.33L148.247 100.718L148.475 111.562Z" fill="#006058"/>
<path d="M152.021 112.299L150.354 108.771L146.911 99.6825L145.828 96.1425L171.148 86.4352L177.345 102.587L152.021 112.299Z" fill="#009A8D"/>
<path d="M170.713 87.4527L146.826 96.6143L152.451 111.281L176.338 102.119L170.713 87.4527Z" fill="#001D23"/>
<path d="M174.132 96.3577C173.872 95.6751 173.102 95.3331 172.419 95.5925L167.398 97.517C166.716 97.7764 166.374 98.5518 166.633 99.2296L168.368 103.75C168.627 104.433 168.842 104.989 168.842 104.989C168.842 104.989 169.398 104.775 170.081 104.515L175.101 102.591C175.784 102.331 176.126 101.561 175.867 100.878L174.132 96.3577Z" fill="#00C8B5"/>
<path d="M157.295 99.8072C157.555 100.49 158.33 100.832 159.008 100.572L164.716 98.3836C165.399 98.1242 165.74 97.3489 165.481 96.671L163.547 91.6268C163.287 90.9442 162.517 90.6022 161.834 90.8616L156.126 93.0504C155.443 93.3098 155.102 94.0804 155.361 94.763L157.295 99.8119L157.295 99.8072Z" fill="#00C8B5"/>
<path d="M159.064 100.721L164.774 98.5312C165.456 98.2697 166.227 98.6097 166.491 99.296L168.223 103.814C168.485 104.496 168.145 105.267 167.459 105.53L161.749 107.72C161.067 107.982 160.3 107.64 160.038 106.958L158.306 102.44C158.044 101.758 158.386 100.992 159.068 100.73L159.064 100.721Z" fill="#00C8B5"/>
<path d="M151.007 103.809L156.44 101.725C157.122 101.463 157.893 101.803 158.156 102.49L159.889 107.008C160.151 107.689 159.811 108.461 159.124 108.724L153.691 110.808C153.01 111.069 152.243 110.727 151.981 110.046L150.248 105.528C149.987 104.846 150.327 104.075 151.013 103.811L151.007 103.809Z" fill="#00C8B5"/>
<path d="M165.63 96.6122C165.89 97.2948 166.66 97.6368 167.343 97.3774L172.364 95.4529C173.047 95.1935 173.388 94.4181 173.129 93.7403L171.195 88.696C170.935 88.0134 170.16 87.6716 169.482 87.9309L164.461 89.8554C163.779 90.1148 163.437 90.8854 163.696 91.568L165.63 96.6122Z" fill="#00C8B5"/>
<path d="M156.385 101.58C157.068 101.32 157.41 100.55 157.151 99.8673L155.216 94.8231C154.957 94.1405 154.186 93.7985 153.503 94.0579L148.071 96.1372C147.389 96.3966 147.047 97.1672 147.306 97.8498L149.241 102.899C149.505 103.581 150.271 103.923 150.953 103.664L156.385 101.58Z" fill="#00C8B5"/>
<path d="M145.826 96.1427L145.267 96.3569L151.463 112.51L152.021 112.296L145.826 96.1427Z" fill="#006058"/>
</g>
<g clip-path="url(#clip8_844_4300)">
<path d="M120.207 122.434L119.181 122.05L118.953 111.202L119.979 111.59L120.207 122.434Z" fill="#006058"/>
<path d="M123.753 123.171L122.086 119.643L118.643 110.555L117.56 107.015L142.88 97.3073L149.077 113.459L123.753 123.171Z" fill="#009A8D"/>
<path d="M142.445 98.3253L118.558 107.487L124.183 122.153L148.07 112.992L142.445 98.3253Z" fill="#001D23"/>
<path d="M145.864 107.23C145.605 106.547 144.834 106.205 144.151 106.465L139.131 108.389C138.448 108.649 138.106 109.424 138.365 110.102L140.1 114.622C140.36 115.305 140.574 115.861 140.574 115.861C140.574 115.861 141.13 115.647 141.813 115.387L146.834 113.463C147.516 113.204 147.858 112.433 147.599 111.75L145.864 107.23Z" fill="#00C8B5"/>
<path d="M129.028 110.68C129.288 111.362 130.063 111.704 130.741 111.445L136.449 109.256C137.132 108.997 137.473 108.221 137.214 107.544L135.28 102.499C135.02 101.817 134.25 101.475 133.567 101.734L127.859 103.923C127.176 104.182 126.834 104.953 127.094 105.636L129.028 110.684L129.028 110.68Z" fill="#00C8B5"/>
<path d="M130.797 111.593L136.507 109.403C137.189 109.142 137.96 109.482 138.223 110.168L139.956 114.686C140.217 115.368 139.877 116.139 139.191 116.402L133.481 118.592C132.799 118.854 132.032 118.512 131.771 117.83L130.038 113.312C129.777 112.63 130.118 111.864 130.8 111.602L130.797 111.593Z" fill="#00C8B5"/>
<path d="M122.74 114.681L128.173 112.597C128.855 112.335 129.626 112.675 129.889 113.362L131.622 117.88C131.884 118.561 131.544 119.333 130.857 119.596L125.424 121.68C124.743 121.941 123.976 121.599 123.714 120.918L121.981 116.4C121.72 115.718 122.06 114.947 122.746 114.683L122.74 114.681Z" fill="#00C8B5"/>
<path d="M137.363 107.484C137.623 108.166 138.393 108.508 139.076 108.249L144.097 106.324C144.779 106.065 145.121 105.29 144.862 104.612L142.928 99.5676C142.668 98.885 141.893 98.5432 141.215 98.8025L136.194 100.727C135.511 100.986 135.17 101.757 135.429 102.44L137.363 107.484Z" fill="#00C8B5"/>
<path d="M128.118 112.452C128.8 112.193 129.142 111.422 128.883 110.739L126.949 105.695C126.689 105.013 125.918 104.671 125.236 104.93L119.804 107.009C119.121 107.269 118.779 108.039 119.038 108.722L120.973 113.771C121.237 114.453 122.003 114.795 122.686 114.536L128.118 112.452Z" fill="#00C8B5"/>
</g>
<path d="M119.836 171.49C119.836 180.91 126.203 190.911 134.056 193.789C141.908 196.696 148.276 191.405 148.276 181.985C147.711 164.744 144.8 152.667 143.22 146.826C141.64 140.984 142.272 131.248 156.808 134.494" stroke="#429A97" stroke-width="1.98063"/>
<path d="M139.538 149.82L120.284 142.876L113.234 145.231L132.488 152.174L139.538 149.82Z" fill="#429A97"/>
<path d="M132.488 152.146L113.234 145.203V179.129L132.488 186.072V152.146Z" fill="#006058"/>
<path d="M139.539 149.82L132.489 152.147V186.1L139.539 183.305V149.82Z" fill="#00C8B5"/>
<path d="M124.74 162.961L119.082 160.92V160.653L124.74 162.695V161.039C124.74 159.972 123.898 158.805 122.854 158.427L119.082 157.066V160.92V166.695L124.74 168.737V162.961Z" fill="white"/>
<path d="M125.006 163.081V168.82C125.921 169.022 126.626 168.47 126.626 167.495V165.573C126.626 164.598 125.921 163.541 125.006 163.081Z" fill="white"/>
<path d="M118.201 169.472V169.638C118.201 169.96 118.091 170.19 117.88 170.319C117.67 170.447 117.386 170.447 117.047 170.319C116.681 170.19 116.388 169.96 116.141 169.638C115.903 169.316 115.784 168.985 115.784 168.636C115.784 168.286 115.903 168.047 116.141 167.891C116.379 167.734 116.672 167.725 117.02 167.854C117.459 168.01 117.844 168.369 118.045 168.783L117.716 168.856C117.587 168.58 117.331 168.341 117.02 168.231C116.772 168.139 116.571 168.148 116.406 168.249C116.241 168.35 116.168 168.525 116.168 168.774C116.168 169.022 116.251 169.252 116.406 169.463C116.571 169.684 116.782 169.84 117.038 169.932C117.459 170.079 117.725 169.969 117.798 169.666L117.011 169.38V169.031L118.192 169.454L118.201 169.472Z" fill="white"/>
<path d="M119.868 169.61L120.234 169.739V171.431L119.868 171.302V171.063C119.731 171.21 119.539 171.229 119.282 171.137C119.053 171.054 118.852 170.898 118.687 170.668C118.522 170.438 118.44 170.19 118.44 169.951C118.44 169.711 118.522 169.518 118.687 169.408C118.852 169.298 119.044 169.279 119.282 169.362C119.539 169.454 119.731 169.619 119.868 169.859V169.619V169.61ZM119.337 170.806C119.493 170.861 119.621 170.852 119.722 170.787C119.822 170.723 119.877 170.613 119.877 170.456C119.877 170.3 119.822 170.153 119.722 170.015C119.621 169.877 119.493 169.776 119.337 169.721C119.182 169.665 119.053 169.675 118.953 169.739C118.852 169.803 118.797 169.914 118.797 170.07C118.797 170.226 118.852 170.374 118.953 170.512C119.053 170.649 119.182 170.751 119.337 170.806Z" fill="white"/>
<path d="M121.598 170.586L121.177 170.438V171.248C121.177 171.468 121.314 171.514 121.598 171.597V171.928C121.039 171.799 120.82 171.56 120.82 171.119V170.31L120.508 170.199V169.85L120.82 169.96V169.592L121.186 169.62V170.089L121.607 170.236V170.586H121.598Z" fill="white"/>
<path d="M122.146 171.431C122.201 171.707 122.403 171.928 122.686 172.029C122.879 172.103 123.025 172.084 123.117 171.974L123.419 172.259C123.254 172.443 123.007 172.48 122.677 172.36C122.403 172.259 122.183 172.093 122.018 171.873C121.853 171.643 121.762 171.404 121.762 171.146C121.762 170.889 121.844 170.714 122.009 170.603C122.174 170.493 122.393 170.484 122.65 170.576C122.897 170.668 123.098 170.824 123.254 171.054C123.41 171.284 123.492 171.523 123.492 171.771C123.492 171.808 123.492 171.854 123.483 171.919L122.146 171.431ZM123.135 171.486C123.08 171.192 122.897 170.981 122.65 170.898C122.384 170.797 122.192 170.898 122.137 171.128L123.126 171.486H123.135Z" fill="white"/>
<path d="M125.689 171.716L126.073 171.854L125.542 173.353L125.185 173.225L124.837 171.956L124.48 172.967L124.123 172.838L123.592 170.953L123.977 171.091L124.306 172.379L124.663 171.339L125.011 171.468L125.359 172.765L125.689 171.716Z" fill="white"/>
<path d="M127.612 172.406L127.979 172.535V174.227L127.612 174.098V173.859C127.475 174.006 127.283 174.025 127.026 173.933C126.798 173.85 126.596 173.694 126.431 173.464C126.266 173.234 126.184 172.986 126.184 172.746C126.184 172.507 126.266 172.314 126.431 172.204C126.596 172.094 126.788 172.075 127.026 172.158C127.283 172.25 127.475 172.415 127.612 172.654V172.415V172.406ZM127.081 173.602C127.237 173.657 127.365 173.648 127.466 173.583C127.567 173.519 127.621 173.409 127.621 173.252C127.621 173.096 127.567 172.949 127.466 172.811C127.365 172.673 127.237 172.572 127.081 172.517C126.926 172.461 126.798 172.471 126.697 172.535C126.596 172.599 126.541 172.71 126.541 172.866C126.541 173.022 126.596 173.169 126.697 173.307C126.798 173.445 126.926 173.547 127.081 173.602Z" fill="white"/>
<path d="M129.535 173.106L129.92 173.244L129.27 174.752C129.105 175.129 128.84 175.239 128.446 175.074V174.733C128.675 174.825 128.803 174.761 128.895 174.568L128.913 174.54L128.199 172.618L128.592 172.765L129.096 174.172L129.526 173.096L129.535 173.106Z" fill="white"/>
<g clip-path="url(#clip9_844_4300)">
<path d="M231.679 403.566L241.393 400.1L244.949 401.274L235.235 404.74L231.679 403.566Z" fill="#429A97"/>
<path d="M235.234 404.726L244.949 401.26V418.189L235.234 421.655V404.726Z" fill="#00C8B5"/>
<path d="M231.679 403.566L235.235 404.726V421.669L231.679 420.275V403.566Z" fill="#006058"/>
<path d="M244.866 407.28L242.58 406.41C242.014 406.224 241.358 406.224 240.661 406.479C238.576 407.232 236.884 409.848 236.884 412.313C236.884 414.025 237.699 415.22 238.893 415.537L241.034 416.359L241.648 414.902C243.25 413.804 244.431 411.65 244.431 409.586C244.431 409.22 244.389 408.882 244.32 408.564L244.866 407.273V407.28Z" fill="#006058"/>
<path d="M245.734 413.25C246.962 410.812 246.594 408.148 244.912 407.301C243.229 406.454 240.87 407.744 239.642 410.182C238.414 412.62 238.782 415.284 240.465 416.131C242.147 416.979 244.506 415.689 245.734 413.25Z" fill="#006058"/>
<path d="M242.691 415.738C244.59 415.055 246.13 412.68 246.13 410.443C246.13 408.206 244.59 406.949 242.691 407.64C240.793 408.33 239.253 410.698 239.253 412.935C239.253 415.172 240.793 416.429 242.691 415.738Z" fill="#00C8B5"/>
<path d="M242.249 411.334L241.034 410.339L242.249 411.334Z" fill="#001D23"/>
<path d="M242.249 411.334L241.034 410.339" stroke="#001D23" stroke-width="0.660211" stroke-miterlimit="10" stroke-linecap="square"/>
<path d="M242.691 412.424C243.036 412.3 243.319 411.872 243.319 411.464C243.319 411.057 243.036 410.829 242.691 410.953C242.346 411.078 242.062 411.506 242.062 411.913C242.062 412.32 242.346 412.548 242.691 412.424Z" fill="#001D23"/>
<path d="M242.691 408.744V409.297V408.744Z" fill="#001D23"/>
<path d="M242.691 408.744V409.297" stroke="#001D23" stroke-width="0.660211" stroke-miterlimit="10" stroke-linecap="square"/>
<path d="M244.458 408.965L244.127 409.476L244.458 408.965Z" fill="#001D23"/>
<path d="M244.458 408.965L244.127 409.476" stroke="#001D23" stroke-width="0.660211" stroke-miterlimit="10" stroke-linecap="square"/>
<path d="M245.19 410.788L244.721 410.96L245.19 410.788Z" fill="#001D23"/>
<path d="M245.19 410.788L244.721 410.96" stroke="#001D23" stroke-width="0.660211" stroke-miterlimit="10" stroke-linecap="square"/>
<path d="M240.655 412.424L240.185 412.597L240.655 412.424Z" fill="#001D23"/>
<path d="M240.655 412.424L240.185 412.597" stroke="#001D23" stroke-width="0.660211" stroke-miterlimit="10" stroke-linecap="square"/>
</g>
<path d="M244.658 404.996C248.393 403.65 251.424 398.975 251.424 394.577C251.424 390.179 248.393 387.701 244.658 389.061C240.923 390.421 237.892 395.081 237.892 399.479C237.892 403.877 240.923 406.356 244.658 404.996Z" fill="#006058"/>
<path d="M246.039 405.687C249.774 404.34 252.805 399.666 252.805 395.268C252.805 390.87 249.774 388.392 246.039 389.752C242.304 391.112 239.273 395.772 239.273 400.17C239.273 404.568 242.304 407.047 246.039 405.687Z" fill="#429A97"/>
<path d="M242.725 401.116L244.035 398.243L245.084 399.359L247.046 394.805L248.619 397.092L250.319 394.212" stroke="#D5F2F1" stroke-width="1.32042" stroke-miterlimit="10" stroke-linecap="square"/>
<g clip-path="url(#clip10_844_4300)">
<path d="M149.357 425.66L151.133 424.471V391.086L118.578 378.125L116.802 379.313L149.357 425.66Z" fill="#006058"/>
<path d="M116.802 412.698L149.357 425.66V392.275L116.802 379.313V412.698Z" fill="#00C8B5"/>
<path d="M147.581 423.224L118.578 411.57V405.059L147.581 416.722V423.224Z" fill="#00A999"/>
<path d="M133.08 390.263C139.041 392.657 144.334 397.733 147.581 403.565V393.404L118.578 381.75V391.902C121.825 388.693 127.118 387.87 133.08 390.263Z" fill="#00A999"/>
<path d="M133.08 390.985C127.042 388.557 121.715 389.517 118.578 392.946V404.346L147.581 416V404.609C144.453 398.65 139.117 393.413 133.08 390.985Z" fill="#00A999"/>
<path d="M133.08 390.985C139.117 393.413 144.453 398.659 147.581 404.609V403.565C144.334 397.742 139.041 392.666 133.08 390.264C127.118 387.861 121.825 388.685 118.578 391.902V392.946C121.706 389.508 127.042 388.557 133.08 390.985Z" fill="white"/>
<path d="M121.436 398.259C121.377 398.353 121.326 398.446 121.292 398.539C120.125 398.421 119.347 397.801 119.297 397.759C119.178 397.665 119.043 397.665 119.001 397.759C118.95 397.852 119.001 398.013 119.119 398.107C119.178 398.157 119.981 398.811 121.191 399.006C121.191 399.023 121.191 399.04 121.191 399.049C121.191 399.388 121.334 399.677 121.52 399.872C122.045 400.424 123.195 400.594 124.869 399.558C124.759 399.821 124.666 400.127 124.598 400.449C124.598 400.466 124.598 400.475 124.598 400.492C124.598 400.585 124.658 400.696 124.742 400.772C124.92 400.916 125.03 400.806 125.114 400.713L125.342 400.458C125.545 400.237 125.994 399.736 126.298 399.499C126.264 399.677 126.222 399.889 126.222 400.093C126.222 400.373 126.29 400.662 126.518 400.891C126.712 401.078 127.017 401.239 127.685 401.111C127.744 401.29 127.854 401.409 127.922 401.459C128.344 401.824 129.148 401.723 129.985 401.256C129.875 401.468 129.79 401.638 129.765 401.723C129.765 401.748 129.765 401.765 129.765 401.791C129.765 401.901 129.833 402.003 129.9 402.062C130.086 402.215 130.196 402.105 130.289 402.011L130.543 401.748C130.754 401.519 131.245 400.993 131.532 400.806C131.617 401.052 131.769 401.375 132.04 401.638C131.963 401.782 131.921 401.926 131.921 402.054C131.921 402.215 131.98 402.359 132.099 402.487C132.31 402.716 132.64 402.767 132.978 402.724C131.896 403.369 131.397 404.244 131.38 404.719V404.745C131.38 405.008 131.507 405.169 131.591 405.245C131.752 405.398 131.955 405.424 132.192 405.33C133.012 405.008 133.604 403.7 133.908 402.877C134.314 402.707 134.796 402.571 135.337 402.495C135.16 402.741 135.058 402.996 135.058 403.234C135.058 403.318 135.075 403.403 135.101 403.488C135.16 403.683 135.295 403.845 135.473 403.93C135.853 404.125 136.369 403.93 136.986 403.42C136.936 403.548 136.885 403.675 136.826 403.802C135.118 404.464 134.348 405.602 134.255 406.349C134.247 406.408 134.238 406.468 134.238 406.519C134.238 406.833 134.365 407.028 134.475 407.138C134.602 407.266 134.822 407.393 135.151 407.274C135.515 407.138 136.377 406.137 137.206 404.235C138.314 403.828 139.827 403.616 141.848 403.87C141.95 403.879 142.018 403.819 142.018 403.717C142.018 403.7 142.018 403.675 142.018 403.658C141.984 403.522 141.857 403.403 141.73 403.386C139.963 403.166 138.568 403.293 137.477 403.599C137.604 403.268 137.739 402.903 137.866 402.529C137.866 402.512 137.874 402.487 137.874 402.47C137.874 402.385 137.823 402.274 137.739 402.206C137.637 402.122 137.511 402.105 137.451 402.181C136.31 403.514 135.667 403.582 135.523 403.522C135.523 403.505 135.506 403.48 135.506 403.446C135.506 403.242 135.684 402.801 136.242 402.427C136.284 402.402 136.301 402.351 136.301 402.291C136.301 402.249 136.284 402.198 136.259 402.147C136.2 402.037 136.081 401.952 135.98 401.952C135.261 401.969 134.644 402.079 134.103 402.249C134.103 402.232 134.111 402.215 134.111 402.206C134.111 402.19 134.111 402.173 134.111 402.156C134.111 402.071 134.061 401.969 133.984 401.901H133.976C134.137 401.833 134.297 401.757 134.466 401.672C134.644 401.578 134.695 401.443 134.695 401.332C134.695 401.281 134.686 401.239 134.678 401.205C134.627 401.018 134.475 400.857 134.272 400.746C133.765 400.483 132.97 400.594 132.251 401.366C132.006 401.137 131.913 400.78 131.87 400.611L131.854 400.543C131.82 400.432 131.735 400.339 131.634 400.297C131.481 400.237 131.312 400.28 131.05 400.475C131.05 400.475 131.05 400.466 131.059 400.458C131.076 400.432 131.076 400.398 131.076 400.364C131.076 400.288 131.033 400.195 130.966 400.127C130.864 400.025 130.737 399.999 130.661 400.067C129.384 401.281 128.268 401.307 128.099 401.154C128.099 401.154 128.099 401.137 128.099 401.103C128.099 401.086 128.099 401.061 128.108 401.027C128.395 400.933 128.725 400.806 129.131 400.619C129.503 400.449 129.587 400.22 129.587 400.05C129.587 399.974 129.57 399.906 129.554 399.864C129.477 399.66 129.3 399.482 129.072 399.414C128.598 399.261 128.006 399.584 127.71 400.594C126.974 400.806 126.772 400.645 126.746 400.619C126.645 400.517 126.653 400.203 126.772 399.685C126.822 399.456 126.848 399.346 126.788 399.219C126.729 399.091 126.636 398.989 126.526 398.947C126.29 398.837 126.01 398.981 125.452 399.558C125.681 399.117 125.892 398.837 125.901 398.828C125.926 398.803 125.934 398.76 125.934 398.726C125.934 398.658 125.901 398.573 125.841 398.497C125.748 398.387 125.613 398.353 125.529 398.412C123.516 400.067 122.155 400.033 121.757 399.618C121.673 399.533 121.63 399.405 121.63 399.261C121.63 399.202 121.639 399.142 121.656 399.074C122.408 399.108 123.279 398.938 124.201 398.361C124.742 398.022 125.038 397.614 125.038 397.215C125.038 397.122 125.021 397.037 124.996 396.952C124.911 396.714 124.725 396.511 124.488 396.4C123.77 396.078 122.544 396.528 121.436 398.276V398.259ZM124.472 396.833C124.556 396.876 124.573 396.91 124.573 396.927C124.573 396.952 124.581 396.978 124.581 397.012C124.581 397.215 124.404 397.555 123.871 397.886C123.161 398.336 122.484 398.514 121.884 398.548C122.941 396.927 124.023 396.63 124.463 396.825L124.472 396.833ZM128.979 399.847C129.055 399.838 129.105 399.847 129.139 399.864C129.131 399.915 129.072 400.025 128.843 400.127C128.674 400.203 128.522 400.271 128.387 400.331C128.623 399.932 128.886 399.855 128.979 399.847ZM134.052 401.094C134.137 401.111 134.196 401.128 134.23 401.154C134.221 401.162 134.204 401.179 134.179 401.188C133.655 401.468 133.19 401.595 132.826 401.561C133.401 401.044 133.9 401.069 134.052 401.094ZM133.359 402.045C132.919 402.257 132.513 402.283 132.369 402.223C132.369 402.181 132.386 402.088 132.479 401.935C132.741 402.054 133.029 402.088 133.359 402.045ZM133.181 403.242C132.868 403.921 132.429 404.643 131.896 404.855C131.87 404.863 131.845 404.872 131.828 404.88C131.854 404.558 132.259 403.828 133.181 403.242ZM134.686 406.697C134.686 406.595 134.712 406.434 134.796 406.222C135.008 405.704 135.532 405.059 136.462 404.558C135.76 405.967 135.109 406.697 134.864 406.79C134.788 406.816 134.729 406.824 134.703 406.816C134.695 406.79 134.686 406.756 134.686 406.697Z" fill="white"/>
<path d="M141.24 398.455C141.096 398.395 140.969 398.429 140.919 398.548C140.919 398.548 139.667 401.273 139.523 401.587C139.126 401.451 135.693 400.254 135.693 400.254C135.507 400.195 135.372 400.288 135.372 400.467V400.484C135.38 400.679 135.541 400.883 135.735 400.951L139.786 402.36C139.921 402.411 140.039 402.368 140.09 402.266C140.09 402.266 140.859 400.594 141.248 399.745C141.637 400.908 142.407 403.183 142.407 403.183C142.458 403.327 142.576 403.463 142.703 403.523C142.703 403.523 144.791 404.482 145.865 404.974C145.045 405.331 143.43 406.027 143.43 406.027C143.346 406.061 143.303 406.137 143.303 406.239C143.303 406.264 143.303 406.298 143.312 406.332C143.312 406.332 143.827 408.573 144.098 409.728C143.202 408.785 141.443 406.943 141.443 406.943C141.333 406.825 141.189 406.765 141.071 406.791C141.071 406.791 139.295 407.215 138.382 407.427C138.661 406.527 139.168 404.906 139.168 404.906C139.168 404.881 139.177 404.847 139.177 404.821C139.177 404.668 139.075 404.49 138.923 404.388C138.745 404.261 138.551 404.295 138.5 404.456L137.486 407.75C137.452 407.869 137.494 408.038 137.612 408.166C137.722 408.293 137.883 408.361 138.001 408.335C138.001 408.335 140.927 407.639 141.257 407.563C141.587 407.911 144.462 410.924 144.462 410.924C144.58 411.052 144.732 411.103 144.851 411.069C144.944 411.035 144.994 410.958 144.994 410.848C144.994 410.823 144.994 410.789 144.986 410.755C144.986 410.755 144.132 407.071 144.039 406.655C144.335 406.527 146.982 405.381 146.982 405.381C147.058 405.348 147.108 405.271 147.108 405.169C147.108 405.135 147.108 405.093 147.091 405.059C147.049 404.906 146.931 404.762 146.787 404.702C146.787 404.702 143.371 403.132 142.982 402.954C142.838 402.529 141.587 398.803 141.587 398.803C141.536 398.65 141.409 398.514 141.265 398.455H141.24Z" fill="white"/>
<path d="M119.83 410.636V406.994L121.698 407.75V408.157L120.295 407.588V408.76L121.597 409.286V409.685L120.295 409.159V410.423L121.732 411.001V411.4L119.83 410.636Z" fill="white"/>
<path d="M124.793 408.998V412.631L124.159 412.385L122.73 408.65L122.721 408.641V411.799L122.307 411.638V407.996L122.958 408.259L124.37 411.943H124.379V408.828L124.793 408.998Z" fill="white"/>
<path d="M125.435 412.893V409.252L127.304 409.999V410.406L125.9 409.838V411.009L127.202 411.535V411.943L125.9 411.417V412.673L127.338 413.25V413.657L125.435 412.893Z" fill="white"/>
<path d="M128.353 410.831L129.055 411.111C129.41 411.255 129.546 411.595 129.546 411.858C129.546 412.18 129.385 412.401 129.055 412.265L128.362 411.985V410.822L128.353 410.831ZM128.894 412.613C129.047 412.673 129.41 412.843 129.444 413.301C129.486 413.802 129.453 414.26 129.588 414.566L130.07 414.761C130.002 414.506 129.951 413.912 129.943 413.759C129.918 413.021 129.765 412.817 129.351 412.579C129.774 412.664 130.011 412.435 130.011 412.002C130.011 411.552 129.782 411.001 129.14 410.746L127.888 410.245V413.887L128.353 414.073V412.401L128.894 412.622V412.613Z" fill="white"/>
<path d="M132.251 412.962C132.251 412.529 132.073 412.232 131.608 412.045C131.464 411.986 130.94 411.799 130.94 412.563V413.794C130.94 414.592 131.168 414.889 131.608 415.058C131.938 415.194 132.158 415.186 132.259 415.16V414.074L131.591 413.802V413.395L132.724 413.853V415.627C132.428 415.67 132.082 415.644 131.617 415.449C130.847 415.143 130.475 414.592 130.475 413.581V412.385C130.475 411.655 130.847 411.34 131.617 411.655C132.386 411.969 132.775 412.41 132.741 413.157L132.259 412.962H132.251Z" fill="white"/>
<path d="M134.931 413.072L135.397 413.259L134.407 415.109V416.501L133.942 416.315V414.923L132.97 412.283L133.486 412.486L134.196 414.532L134.931 413.072Z" fill="white"/>
<path d="M136.961 416.442V416.544C136.961 417.036 137.274 417.317 137.57 417.444C137.934 417.588 138.221 417.546 138.221 417.113C138.221 416.306 136.598 415.746 136.598 414.651C136.598 414.006 137.054 413.845 137.663 414.091C138.323 414.354 138.695 414.829 138.669 415.559L138.187 415.364C138.187 414.965 138.069 414.651 137.629 414.481C137.35 414.371 137.071 414.397 137.071 414.796C137.071 415.593 138.703 416.137 138.703 417.291C138.703 418.055 138.179 418.089 137.579 417.851C136.505 417.427 136.505 416.612 136.522 416.264L136.978 416.451L136.961 416.442Z" fill="white"/>
<path d="M141.265 415.619V416.018L140.31 415.636V418.87L139.853 418.683V415.449L138.897 415.067V414.66L141.265 415.619Z" fill="white"/>
<path d="M142.897 418.64L141.739 418.173L142.306 416.459H142.314L142.897 418.64ZM140.885 419.099L141.35 419.285L141.621 418.53L143.024 419.09L143.286 420.066L143.802 420.27L142.618 416.153L142.026 415.916L140.876 419.09L140.885 419.099Z" fill="white"/>
<path d="M144.622 417.367L145.324 417.648C145.679 417.792 145.815 418.131 145.815 418.395C145.815 418.717 145.654 418.938 145.324 418.802L144.631 418.522V417.359L144.622 417.367ZM145.163 419.15C145.316 419.209 145.679 419.379 145.713 419.838C145.755 420.338 145.722 420.797 145.857 421.102L146.339 421.298C146.271 421.043 146.22 420.449 146.212 420.296C146.187 419.557 146.034 419.354 145.62 419.116C146.043 419.201 146.28 418.972 146.28 418.539C146.28 418.089 146.051 417.537 145.409 417.283L144.157 416.782V420.423L144.622 420.61V418.938L145.163 419.158V419.15Z" fill="white"/>
</g>
<path d="M369.003 317.385H505.007" stroke="#00C8B5" stroke-width="1.98063"/>
<path d="M501.046 315.161C501.046 314.202 501.825 313.424 502.787 313.424L507.227 313.424C508.189 313.424 508.968 314.202 508.968 315.161L508.968 319.611C508.968 320.569 508.189 321.347 507.227 321.347L501.046 321.347L501.046 315.161Z" fill="#00C8B5"/>
<path d="M967.155 317.386L831.151 317.386" stroke="#006058" stroke-width="1.98063"/>
<path d="M971.116 319.611C971.116 320.57 970.337 321.347 969.375 321.347L964.935 321.347C963.973 321.347 963.194 320.57 963.194 319.611L963.194 315.161C963.194 314.202 963.973 313.425 964.935 313.425L971.116 313.425L971.116 319.611Z" fill="#006058"/>
<path d="M1054.74 4.54423L1054.74 17.4844L1052.21 17.4844L1052.21 9.09177L1048.57 15.0997L1048.27 15.0997L1044.63 9.11026L1044.63 17.4844L1042.08 17.4844L1042.08 4.54423L1044.71 4.54423L1048.42 10.6631L1052.12 4.54423L1054.74 4.54423ZM1066.21 17.4844L1065.44 15.1552L1060.28 15.1552L1059.5 17.4844L1056.75 17.4844L1061.28 4.54423L1064.44 4.54423L1068.99 17.4844L1066.21 17.4844ZM1061.09 12.7705L1064.64 12.7705L1062.87 7.4835L1061.09 12.7705ZM1078.08 17.4844L1075.47 12.9923L1073.53 12.9923L1073.53 17.4844L1070.98 17.4844L1070.98 4.54423L1076.16 4.54423C1077.35 4.54423 1078.37 4.96325 1079.21 5.80128C1080.05 6.63931 1080.46 7.64987 1080.46 8.83297C1080.46 9.63402 1080.24 10.3796 1079.78 11.0698C1079.32 11.7476 1078.72 12.259 1077.97 12.6041L1080.83 17.4844L1078.08 17.4844ZM1073.53 6.92892L1073.53 10.7555L1076.16 10.7555C1076.64 10.7555 1077.05 10.5706 1077.4 10.2009C1077.74 9.81888 1077.91 9.3629 1077.91 8.83297C1077.91 8.30304 1077.74 7.85321 1077.4 7.4835C1077.05 7.11378 1076.64 6.92892 1076.16 6.92892L1073.53 6.92892ZM1093.19 17.4844L1090.25 17.4844L1085.63 11.421L1085.63 17.4844L1083.08 17.4844L1083.08 4.54424L1085.63 4.54424L1085.63 10.2564L1090.06 4.54424L1093 4.54424L1088.22 10.8294L1093.19 17.4844ZM1097.74 15.0442L1103.19 15.0442L1103.19 17.4844L1095.19 17.4844L1095.19 4.54424L1103.1 4.54424L1103.1 6.98438L1097.74 6.98438L1097.74 9.73878L1102.64 9.73878L1102.64 12.1419L1097.74 12.1419L1097.74 15.0442ZM1114.29 4.54424L1114.29 6.98438L1110.8 6.98438L1110.8 17.4844L1108.24 17.4844L1108.24 6.98438L1104.77 6.98438L1104.77 4.54424L1114.29 4.54424ZM1121.28 4.54424C1122.52 4.54424 1123.57 4.96325 1124.42 5.80128C1125.27 6.63931 1125.7 7.66836 1125.7 8.88843C1125.7 10.1085 1125.27 11.1375 1124.42 11.9756C1123.57 12.8136 1122.52 13.2326 1121.28 13.2326L1119 13.2326L1119 17.4844L1116.45 17.4844L1116.45 4.54424L1121.28 4.54424ZM1121.28 10.8479C1121.82 10.8479 1122.27 10.6631 1122.63 10.2934C1122.98 9.91131 1123.16 9.443 1123.16 8.88843C1123.16 8.32153 1122.98 7.85322 1122.63 7.4835C1122.27 7.11378 1121.82 6.92892 1121.28 6.92892L1119 6.92892L1119 10.8479L1121.28 10.8479ZM1130.65 15.0442L1135.58 15.0442L1135.58 17.4844L1128.1 17.4844L1128.1 4.54424L1130.65 4.54424L1130.65 15.0442ZM1146.45 17.4844L1145.68 15.1552L1140.52 15.1552L1139.74 17.4844L1136.99 17.4844L1141.52 4.54424L1144.68 4.54424L1149.22 17.4844L1146.45 17.4844ZM1141.33 12.7705L1144.88 12.7705L1143.11 7.4835L1141.33 12.7705ZM1156.89 17.7432C1154.94 17.7432 1153.33 17.0962 1152.06 15.8022C1150.79 14.5081 1150.16 12.9122 1150.16 11.0143C1150.16 9.1041 1150.79 7.50815 1152.06 6.22646C1153.33 4.93244 1154.94 4.28543 1156.89 4.28544C1158.06 4.28544 1159.14 4.56272 1160.12 5.1173C1161.12 5.65956 1161.9 6.39899 1162.45 7.33561L1160.25 8.61114C1159.93 8.03191 1159.48 7.58209 1158.88 7.26167C1158.29 6.92892 1157.63 6.76255 1156.89 6.76255C1155.63 6.76255 1154.61 7.15691 1153.84 7.94565C1153.07 8.73438 1152.69 9.75727 1152.69 11.0143C1152.69 12.259 1153.07 13.2758 1153.84 14.0645C1154.61 14.8532 1155.63 15.2476 1156.89 15.2476C1157.63 15.2476 1158.29 15.0874 1158.88 14.767C1159.49 14.4342 1159.94 13.9844 1160.25 13.4175L1162.45 14.693C1161.9 15.6296 1161.13 16.3752 1160.14 16.9298C1159.16 17.4721 1158.07 17.7432 1156.89 17.7432ZM1167.31 15.0442L1172.76 15.0442L1172.76 17.4844L1164.76 17.4844L1164.76 4.54424L1172.67 4.54424L1172.67 6.98438L1167.31 6.98438L1167.31 9.73878L1172.21 9.73878L1172.21 12.142L1167.31 12.142L1167.31 15.0442Z" fill="#54747E"/>
<path d="M557.904 17.7432C556.622 17.7432 555.544 17.4597 554.669 16.8928C553.794 16.3136 553.178 15.531 552.82 14.5451L555.002 13.2696C555.507 14.5882 556.499 15.2476 557.978 15.2476C558.693 15.2476 559.217 15.1182 559.549 14.8594C559.882 14.6006 560.048 14.274 560.048 13.8796C560.048 13.4236 559.845 13.0724 559.438 12.8259C559.032 12.5671 558.305 12.2898 557.257 11.9941C556.678 11.8215 556.185 11.649 555.778 11.4765C555.384 11.3039 554.983 11.0759 554.577 10.7925C554.182 10.4967 553.88 10.127 553.671 9.68332C553.461 9.23966 553.356 8.72205 553.356 8.1305C553.356 6.95973 553.769 6.02927 554.595 5.33913C555.433 4.63666 556.437 4.28543 557.608 4.28543C558.656 4.28543 559.574 4.54423 560.363 5.06184C561.164 5.56712 561.786 6.27575 562.23 7.18772L560.085 8.42628C559.568 7.31712 558.742 6.76254 557.608 6.76254C557.078 6.76254 556.659 6.88578 556.351 7.13226C556.055 7.36642 555.908 7.67452 555.908 8.05656C555.908 8.46325 556.074 8.79599 556.407 9.0548C556.752 9.30128 557.405 9.5724 558.366 9.86818C558.761 9.99142 559.056 10.09 559.254 10.164C559.463 10.2256 559.74 10.3303 560.085 10.4782C560.443 10.6138 560.714 10.7432 560.899 10.8664C561.096 10.9897 561.318 11.156 561.564 11.3655C561.811 11.575 561.996 11.7907 562.119 12.0125C562.254 12.2344 562.365 12.5055 562.452 12.8259C562.55 13.134 562.599 13.4729 562.599 13.8426C562.599 15.0381 562.162 15.987 561.287 16.6895C560.424 17.3919 559.297 17.7432 557.904 17.7432ZM574.666 4.54423L570.23 12.4377L570.23 17.4844L567.697 17.4844L567.697 12.4377L563.279 4.54423L566.163 4.54423L568.973 9.94212L571.782 4.54423L574.666 4.54423ZM580.324 17.7432C579.042 17.7432 577.964 17.4597 577.089 16.8928C576.214 16.3136 575.598 15.531 575.24 14.5451L577.422 13.2696C577.927 14.5882 578.919 15.2476 580.398 15.2476C581.113 15.2476 581.636 15.1182 581.969 14.8594C582.302 14.6006 582.468 14.274 582.468 13.8796C582.468 13.4236 582.265 13.0724 581.858 12.8259C581.452 12.5671 580.725 12.2898 579.677 11.9941C579.098 11.8215 578.605 11.649 578.198 11.4765C577.804 11.3039 577.403 11.0759 576.997 10.7925C576.602 10.4967 576.3 10.127 576.091 9.68332C575.881 9.23966 575.776 8.72205 575.776 8.1305C575.776 6.95973 576.189 6.02927 577.015 5.33913C577.853 4.63666 578.857 4.28543 580.028 4.28543C581.076 4.28543 581.994 4.54423 582.783 5.06184C583.584 5.56712 584.206 6.27575 584.65 7.18772L582.505 8.42628C581.988 7.31712 581.162 6.76254 580.028 6.76254C579.498 6.76254 579.079 6.88578 578.771 7.13226C578.475 7.36642 578.328 7.67452 578.328 8.05656C578.328 8.46325 578.494 8.79599 578.827 9.0548C579.172 9.30128 579.825 9.5724 580.786 9.86818C581.18 9.99142 581.476 10.09 581.673 10.164C581.883 10.2256 582.16 10.3303 582.505 10.4782C582.863 10.6138 583.134 10.7432 583.319 10.8664C583.516 10.9897 583.738 11.156 583.984 11.3655C584.231 11.575 584.416 11.7907 584.539 12.0125C584.674 12.2344 584.785 12.5055 584.872 12.8259C584.97 13.134 585.019 13.4729 585.019 13.8427C585.019 15.0381 584.582 15.987 583.707 16.6895C582.844 17.3919 581.717 17.7432 580.324 17.7432ZM595.512 4.54423L595.512 6.98438L592.018 6.98438L592.018 17.4844L589.467 17.4844L589.467 6.98438L585.992 6.98438L585.992 4.54423L595.512 4.54423ZM600.227 15.0442L605.68 15.0442L605.68 17.4844L597.676 17.4844L597.676 4.54423L605.588 4.54423L605.588 6.98438L600.227 6.98438L600.227 9.73878L605.126 9.73878L605.126 12.1419L600.227 12.1419L600.227 15.0442ZM620.881 4.54424L620.881 17.4844L618.348 17.4844L618.348 9.09177L614.706 15.0997L614.411 15.0997L610.769 9.11026L610.769 17.4844L608.218 17.4844L608.218 4.54423L610.843 4.54424L614.559 10.6631L618.256 4.54424L620.881 4.54424ZM640.28 15.8022C638.974 17.0962 637.384 17.7432 635.511 17.7432C633.638 17.7432 632.048 17.0962 630.742 15.8022C629.448 14.4958 628.801 12.8999 628.801 11.0143C628.801 9.12874 629.448 7.53895 630.742 6.24494C632.048 4.9386 633.638 4.28543 635.511 4.28543C637.384 4.28543 638.974 4.9386 640.28 6.24494C641.587 7.53895 642.24 9.12874 642.24 11.0143C642.24 12.8999 641.587 14.4958 640.28 15.8022ZM632.535 14.0645C633.336 14.8532 634.328 15.2476 635.511 15.2476C636.694 15.2476 637.686 14.8532 638.487 14.0645C639.288 13.2634 639.689 12.2467 639.689 11.0143C639.689 9.78191 639.288 8.76519 638.487 7.96413C637.686 7.16307 636.694 6.76255 635.511 6.76255C634.328 6.76255 633.336 7.16307 632.535 7.96413C631.734 8.76519 631.333 9.78191 631.333 11.0143C631.333 12.2467 631.734 13.2634 632.535 14.0645ZM652.499 6.98438L647.323 6.98438L647.323 10.053L652.352 10.053L652.352 12.4932L647.323 12.4932L647.323 17.4844L644.772 17.4844L644.772 4.54424L652.499 4.54424L652.499 6.98438ZM667.557 17.4844L664.951 12.9923L663.01 12.9923L663.01 17.4844L660.459 17.4844L660.459 4.54424L665.635 4.54424C666.83 4.54424 667.847 4.96325 668.685 5.80128C669.523 6.63931 669.942 7.64987 669.942 8.83297C669.942 9.63403 669.714 10.3796 669.258 11.0698C668.802 11.7476 668.198 12.259 667.446 12.6041L670.312 17.4844L667.557 17.4844ZM663.01 6.92892L663.01 10.7555L665.635 10.7555C666.115 10.7555 666.528 10.5706 666.873 10.2009C667.218 9.81889 667.391 9.3629 667.391 8.83297C667.391 8.30304 667.218 7.85322 666.873 7.4835C666.528 7.11378 666.115 6.92892 665.635 6.92892L663.01 6.92892ZM675.104 15.0442L680.558 15.0442L680.558 17.4844L672.553 17.4844L672.553 4.54424L680.465 4.54424L680.465 6.98438L675.104 6.98438L675.104 9.73878L680.003 9.73878L680.003 12.1419L675.104 12.1419L675.104 15.0442ZM689.142 17.7432C687.195 17.7432 685.587 17.0962 684.318 15.8022C683.048 14.5081 682.413 12.9122 682.413 11.0143C682.413 9.1041 683.048 7.50815 684.318 6.22646C685.587 4.93244 687.195 4.28544 689.142 4.28544C690.313 4.28544 691.391 4.56272 692.377 5.1173C693.376 5.65956 694.152 6.39899 694.707 7.33561L692.507 8.61114C692.186 8.03191 691.73 7.58209 691.139 7.26167C690.547 6.92892 689.882 6.76255 689.142 6.76255C687.885 6.76255 686.869 7.15691 686.092 7.94565C685.328 8.73438 684.946 9.75727 684.946 11.0143C684.946 12.259 685.328 13.2758 686.092 14.0645C686.869 14.8532 687.885 15.2476 689.142 15.2476C689.882 15.2476 690.547 15.0874 691.139 14.767C691.743 14.4342 692.199 13.9844 692.507 13.4175L694.707 14.693C694.152 15.6296 693.382 16.3752 692.396 16.9298C691.41 17.4721 690.325 17.7432 689.142 17.7432ZM707.775 15.8022C706.469 17.0962 704.879 17.7432 703.006 17.7432C701.132 17.7432 699.543 17.0962 698.236 15.8022C696.942 14.4958 696.295 12.8999 696.295 11.0143C696.295 9.12875 696.942 7.53896 698.236 6.24494C699.543 4.9386 701.132 4.28544 703.006 4.28544C704.879 4.28544 706.469 4.9386 707.775 6.24494C709.081 7.53896 709.734 9.12875 709.734 11.0143C709.734 12.8999 709.081 14.4958 707.775 15.8022ZM700.029 14.0645C700.83 14.8532 701.823 15.2476 703.006 15.2476C704.189 15.2476 705.181 14.8532 705.982 14.0645C706.783 13.2634 707.183 12.2467 707.183 11.0143C707.183 9.78192 706.783 8.76519 705.982 7.96413C705.181 7.16308 704.189 6.76255 703.006 6.76255C701.823 6.76255 700.83 7.16308 700.029 7.96413C699.228 8.76519 698.828 9.78192 698.828 11.0143C698.828 12.2467 699.228 13.2634 700.029 14.0645ZM719.366 17.4844L716.759 12.9923L714.818 12.9923L714.818 17.4844L712.267 17.4844L712.267 4.54424L717.443 4.54424C718.638 4.54424 719.655 4.96325 720.493 5.80128C721.331 6.63931 721.75 7.64987 721.75 8.83297C721.75 9.63403 721.522 10.3796 721.066 11.0698C720.61 11.7476 720.006 12.259 719.255 12.6041L722.12 17.4844L719.366 17.4844ZM714.818 6.92892L714.818 10.7555L717.443 10.7555C717.924 10.7555 718.336 10.5706 718.682 10.2009C719.027 9.81889 719.199 9.3629 719.199 8.83297C719.199 8.30304 719.027 7.85322 718.682 7.4835C718.336 7.11378 717.924 6.92892 717.443 6.92892L714.818 6.92892ZM729.501 4.54424C731.275 4.54424 732.754 5.1666 733.937 6.41132C735.133 7.65604 735.73 9.19037 735.73 11.0143C735.73 12.8383 735.133 14.3726 733.937 15.6173C732.754 16.862 731.275 17.4844 729.501 17.4844L724.361 17.4844L724.361 4.54424L729.501 4.54424ZM729.501 15.0442C730.622 15.0442 731.534 14.6745 732.236 13.9351C732.939 13.1833 733.29 12.2097 733.29 11.0143C733.29 9.81889 732.939 8.85146 732.236 8.11202C731.534 7.36026 730.622 6.98438 729.501 6.98438L726.913 6.98438L726.913 15.0442L729.501 15.0442Z" fill="#54747E"/>
<path d="M123.913 10.774C125.047 11.4272 125.614 12.4131 125.614 13.7317C125.614 14.8286 125.226 15.7282 124.449 16.4307C123.673 17.1331 122.718 17.4844 121.584 17.4844L116.094 17.4844L116.094 4.54423L121.196 4.54423C122.305 4.54423 123.235 4.8893 123.987 5.57944C124.751 6.25726 125.133 7.1261 125.133 8.18596C125.133 9.25814 124.727 10.1208 123.913 10.774ZM121.196 6.92892L118.645 6.92892L118.645 9.77575L121.196 9.77575C121.59 9.77575 121.917 9.64019 122.176 9.36906C122.447 9.09793 122.582 8.75902 122.582 8.35233C122.582 7.94564 122.453 7.60673 122.194 7.33561C121.935 7.06448 121.603 6.92892 121.196 6.92892ZM121.584 15.0997C122.015 15.0997 122.373 14.958 122.656 14.6745C122.94 14.3787 123.081 14.009 123.081 13.5654C123.081 13.134 122.94 12.7766 122.656 12.4932C122.373 12.1974 122.015 12.0495 121.584 12.0495L118.645 12.0495L118.645 15.0997L121.584 15.0997ZM132.76 17.7432C131.318 17.7432 130.135 17.3365 129.211 16.5231C128.287 15.7097 127.825 14.6191 127.825 13.2511L127.825 4.54423L130.357 4.54423L130.357 13.0478C130.357 13.7256 130.548 14.2617 130.93 14.656C131.325 15.0504 131.935 15.2476 132.76 15.2476C133.586 15.2476 134.19 15.0504 134.572 14.656C134.966 14.2617 135.164 13.7256 135.164 13.0478L135.164 4.54423L137.715 4.54423L137.715 13.2511C137.715 14.6191 137.252 15.7097 136.328 16.5231C135.404 17.3365 134.215 17.7432 132.76 17.7432ZM140.752 4.54423L143.303 4.54423L143.303 17.4844L140.752 17.4844L140.752 4.54423ZM148.989 15.0442L153.925 15.0442L153.925 17.4844L146.438 17.4844L146.438 4.54423L148.989 4.54423L148.989 15.0442ZM161.253 4.54424C163.027 4.54424 164.506 5.16659 165.689 6.41131C166.885 7.65603 167.482 9.19036 167.482 11.0143C167.482 12.8383 166.885 14.3726 165.689 15.6173C164.506 16.862 163.027 17.4844 161.253 17.4844L156.114 17.4844L156.114 4.54423L161.253 4.54424ZM161.253 15.0442C162.374 15.0442 163.286 14.6745 163.989 13.9351C164.691 13.1833 165.042 12.2097 165.042 11.0143C165.042 9.81888 164.691 8.85145 163.989 8.11202C163.286 7.36026 162.374 6.98438 161.253 6.98438L158.665 6.98438L158.665 15.0442L161.253 15.0442ZM170.031 4.54424L172.583 4.54424L172.583 17.4844L170.031 17.4844L170.031 4.54424ZM183.204 4.54424L185.755 4.54424L185.755 17.4844L183.814 17.4844L178.268 9.57241L178.268 17.4844L175.717 17.4844L175.717 4.54424L177.658 4.54424L183.204 12.4377L183.204 4.54424ZM201.595 10.5337L201.595 11.5319C201.595 13.3805 201.003 14.8779 199.82 16.024C198.637 17.1701 197.109 17.7432 195.236 17.7432C193.239 17.7432 191.582 17.0962 190.263 15.8022C188.957 14.4958 188.303 12.906 188.303 11.0328C188.303 9.14723 188.951 7.55128 190.245 6.24494C191.551 4.9386 193.165 4.28543 195.088 4.28543C196.296 4.28543 197.399 4.56272 198.397 5.1173C199.395 5.65955 200.171 6.38667 200.726 7.29864L198.545 8.55568C198.237 8.02575 197.768 7.59441 197.14 7.26167C196.524 6.92892 195.833 6.76255 195.069 6.76255C193.837 6.76255 192.82 7.16924 192.019 7.98262C191.23 8.78367 190.836 9.8004 190.836 11.0328C190.836 12.2529 191.237 13.2634 192.038 14.0645C192.851 14.8532 193.923 15.2476 195.254 15.2476C196.24 15.2476 197.053 15.0319 197.694 14.6006C198.348 14.1569 198.791 13.553 199.025 12.789L195.106 12.789L195.106 10.5337L201.595 10.5337ZM214.649 4.54424C216.423 4.54424 217.902 5.1666 219.085 6.41131C220.281 7.65603 220.879 9.19036 220.879 11.0143C220.879 12.8383 220.281 14.3726 219.085 15.6173C217.902 16.862 216.423 17.4844 214.649 17.4844L209.51 17.4844L209.51 4.54424L214.649 4.54424ZM214.649 15.0442C215.77 15.0442 216.682 14.6745 217.385 13.9351C218.087 13.1833 218.438 12.2097 218.438 11.0143C218.438 9.81889 218.087 8.85146 217.385 8.11202C216.682 7.36026 215.77 6.98438 214.649 6.98438L212.061 6.98438L212.061 15.0442L214.649 15.0442ZM231.277 17.4844L230.5 15.1552L225.343 15.1552L224.567 17.4844L221.812 17.4844L226.341 4.54424L229.502 4.54424L234.05 17.4844L231.277 17.4844ZM226.156 12.7705L229.706 12.7705L227.931 7.4835L226.156 12.7705ZM243.666 4.54424L243.666 6.98438L240.172 6.98438L240.172 17.4844L237.621 17.4844L237.621 6.98438L234.146 6.98438L234.146 4.54424L243.666 4.54424ZM253.209 17.4844L252.433 15.1552L247.275 15.1552L246.499 17.4844L243.745 17.4844L248.274 4.54424L251.435 4.54424L255.982 17.4844L253.209 17.4844ZM248.089 12.7705L251.638 12.7705L249.863 7.4835L248.089 12.7705Z" fill="#54747E"/>
<defs>
<clipPath id="clip0_844_4300">
<rect width="46.1801" height="46.2148" fill="white" transform="translate(1168.79 238.16)"/>
</clipPath>
<clipPath id="clip1_844_4300">
<rect width="43.915" height="46.2148" fill="white" transform="translate(1002.81 238.16)"/>
</clipPath>
<clipPath id="clip2_844_4300">
<rect width="42.8455" height="46.2148" fill="white" transform="translate(1086.33 238.16)"/>
</clipPath>
<clipPath id="clip3_844_4300">
<rect width="46.2148" height="46.2148" fill="white" transform="translate(1084.67 392.649)"/>
</clipPath>
<clipPath id="clip4_844_4300">
<rect width="46.2148" height="46.2148" fill="white" transform="translate(998.845 392.649)"/>
</clipPath>
<clipPath id="clip5_844_4300">
<rect width="42.2535" height="42.2535" fill="white" transform="translate(625.166 124.604)"/>
</clipPath>
<clipPath id="clip6_844_4300">
<rect width="42.2535" height="42.2535" fill="white" transform="translate(563.106 124.604)"/>
</clipPath>
<clipPath id="clip7_844_4300">
<rect width="31.9395" height="25.659" fill="white" transform="translate(145.07 86.9824) rotate(-1.20361)"/>
</clipPath>
<clipPath id="clip8_844_4300">
<rect width="31.9395" height="25.659" fill="white" transform="translate(116.802 97.855) rotate(-1.20361)"/>
</clipPath>
<clipPath id="clip9_844_4300">
<rect width="14.782" height="21.5689" fill="white" transform="translate(231.679 400.1)"/>
</clipPath>
<clipPath id="clip10_844_4300">
<rect width="34.331" height="47.5352" fill="white" transform="translate(116.802 378.125)"/>
</clipPath>
</defs>
</svg>
