<svg width="32" height="33" viewBox="0 0 32 33" fill="none" xmlns="http://www.w3.org/2000/svg">
<path d="M2.67773 11.7997L12.4435 10.3802L16.8107 1.5332L21.1779 10.3802L30.9436 11.7997L23.8778 18.687L25.545 28.4132L16.8107 23.8231L8.07626 28.4132L9.74347 18.687" stroke="#001D23" stroke-width="2" stroke-miterlimit="10" stroke-linecap="round" stroke-linejoin="round"/>
<path d="M4.94511 23.2049C3.33756 23.387 1.97389 23.1022 1.47344 22.2355C0.149519 19.9424 5.37091 14.4493 13.1346 9.96717C20.8982 5.48499 28.2656 3.70861 29.5902 6.00287C29.8241 6.69147 29.7905 7.44286 29.4959 8.1078" stroke="#001D23" stroke-width="2" stroke-miterlimit="10" stroke-linecap="round"/>
<circle cx="22.4005" cy="23.9332" r="7.53333" fill="white" stroke="#001D23" stroke-width="2"/>
<path d="M18.456 21.6386H20.9975L19.0425 26.4666H20.2835L22.298 21.5111V20.5166H18.456V21.6386ZM23.7658 22.6841L23.8423 21.6131H26.1288V20.5166H22.7543L22.5163 23.8231H24.3183C24.8878 23.8231 25.2363 24.1461 25.2363 24.6306C25.2363 25.1321 24.8878 25.4381 24.2843 25.4381C23.7148 25.4381 23.3578 25.2001 23.2133 24.7241L22.2103 25.3106C22.5418 26.1521 23.3238 26.5856 24.2843 26.5856C24.8793 26.5856 25.3808 26.4156 25.7888 26.0671C26.2053 25.7186 26.4093 25.2426 26.4093 24.6306C26.4093 24.0186 26.2138 23.5426 25.8228 23.2026C25.4318 22.8541 24.9473 22.6841 24.3778 22.6841H23.7658Z" fill="black"/>
</svg>
