<svg width="36" height="35" viewBox="0 0 36 35" fill="none" xmlns="http://www.w3.org/2000/svg">
<path d="M1.58872 29.7403L18.0573 20.2313C16.5826 18.4939 14.5446 17.3296 12.2991 16.9415C10.0535 16.5533 7.74297 16.966 5.7706 18.1074C3.81561 19.2425 2.32492 21.0322 1.56205 23.1602C0.799191 25.2881 0.813299 27.6173 1.60188 29.7359L1.58872 29.7403Z" stroke="#54747E" stroke-width="2" stroke-miterlimit="10" stroke-linejoin="round"/>
<path d="M34.5252 29.7425L18.0501 20.2334C17.2834 22.3801 17.295 24.7279 18.083 26.8669C18.871 29.0059 20.3852 30.8002 22.3614 31.9365C24.3216 33.0656 26.6182 33.4647 28.8444 33.0631C31.0706 32.6615 33.083 31.4852 34.5252 29.7425Z" stroke="#54747E" stroke-width="2" stroke-miterlimit="10" stroke-linejoin="round"/>
<path d="M18.0576 1.21533V20.2334C20.3003 19.8252 22.3283 18.6421 23.7876 16.8909C25.2469 15.1397 26.0447 12.9315 26.0418 10.652C26.0393 8.3896 25.2363 6.20109 23.775 4.47395C22.3137 2.74682 20.2883 1.59248 18.0576 1.21533Z" stroke="#54747E" stroke-width="2" stroke-miterlimit="10" stroke-linejoin="round"/>
</svg>
