<svg width="32" height="32" viewBox="0 0 32 32" fill="none" xmlns="http://www.w3.org/2000/svg">
<path d="M10 19.9998H22V25.0767C22 26.6476 21.3679 28.1541 20.2426 29.2649C19.1174 30.3757 17.5913 30.9998 16 30.9998V30.9998C14.4087 30.9998 12.8826 30.3757 11.7574 29.2649C10.6321 28.1541 10 26.6476 10 25.0767V19.9998Z" stroke="#54747E" stroke-width="2" stroke-miterlimit="10" stroke-linecap="square"/>
<path d="M12 18.9998V15.9998" stroke="#54747E" stroke-width="2" stroke-miterlimit="10" stroke-linecap="square"/>
<path d="M20 18.9998V15.9998" stroke="#54747E" stroke-width="2" stroke-miterlimit="10" stroke-linecap="square"/>
<path d="M17 5.99976L14 9.49976H18L15 12.9998" stroke="#54747E" stroke-width="2" stroke-miterlimit="10" stroke-linecap="square"/>
<path d="M4.00001 24.9998C2.3286 22.7712 1.31079 20.1213 1.06062 17.3468C0.810448 14.5724 1.33781 11.7831 2.5836 9.29155C3.82939 6.79996 5.7444 4.70451 8.11404 3.23999C10.4837 1.77548 13.2143 0.999756 16 0.999756C18.7857 0.999756 21.5163 1.77548 23.886 3.23999C26.2556 4.70451 28.1706 6.79996 29.4164 9.29155C30.6622 11.7831 31.1896 14.5724 30.9394 17.3468C30.6892 20.1213 29.6714 22.7712 28 24.9998" stroke="#54747E" stroke-width="2" stroke-miterlimit="10" stroke-linecap="square"/>
</svg>
