<svg width="290" height="277" viewBox="0 0 290 277" fill="none" xmlns="http://www.w3.org/2000/svg">
  <g opacity="0.03">
    <path d="M27.4452 205.067L27.4452 123.341L27.4465 123.341C27.4524 112.586 36.2265 103.849 47.073 103.849L129.253 103.849C142.29 103.849 152.879 93.3366 152.879 80.3452L152.879 4.0073L152.879 2.0073L150.879 2.0073L-51.329 2.00733C-64.3668 2.00733 -74.9556 12.5195 -74.9556 25.511L-74.9555 205.067C-74.9555 218.058 -64.3668 228.57 -51.329 228.57L3.81864 228.57C16.8565 228.57 27.4452 218.058 27.4452 205.067Z" stroke="#006058" stroke-width="4"/>
    <path d="M126.943 361L126.941 361L-26.2511 361C-39.3177 361 -49.8933 350.358 -49.8933 337.25L-49.8933 281.789C-49.8933 268.682 -39.3176 258.04 -26.2511 258.04L39.3055 258.04C50.137 258.032 58.9319 249.202 58.9319 238.291L58.9319 155.643C58.932 147.448 63.0663 140.22 69.3504 135.953C73.1249 133.391 77.6781 131.894 82.5741 131.894L238.237 131.894C251.304 131.894 261.879 142.536 261.879 155.643L261.879 211.104C261.879 224.211 251.304 234.853 238.237 234.853L181.035 234.853C170.201 234.859 161.404 243.69 161.404 254.603L161.404 337.25C161.404 350.358 150.828 361 137.762 361L127.037 361L127.035 361L126.943 361Z" stroke="#006058" stroke-width="4"/>
    <path d="M285.492 103.928L287.492 103.928L287.492 101.928L287.492 25.4862C287.492 12.4877 276.808 1.99999 263.69 2L208.095 2C194.977 2 184.292 12.4877 184.292 25.4862L184.292 80.4415C184.292 93.44 194.977 103.928 208.095 103.928L285.492 103.928Z" stroke="#006058" stroke-width="4"/>
  </g>
</svg>
