<svg width="32" height="32" viewBox="0 0 32 32" fill="none" xmlns="http://www.w3.org/2000/svg">
<path d="M16.7521 0C16.7511 0.0133157 16.7511 0.0266925 16.7521 0.0400082H15.2461C15.2469 0.0266879 15.2469 0.0133203 15.2461 0H16.7521Z" fill="#54747E"/>
<path d="M22.9513 15.29C22.8713 15.308 22.8173 15.276 22.7893 15.168C22.632 14.564 22.47 13.964 22.3033 13.368C22.2633 13.226 22.3453 13.192 22.4433 13.15L24.5193 12.228L30.3613 9.62797C30.4052 9.61166 30.448 9.59229 30.4892 9.56998C30.5932 9.50398 30.6413 9.54999 30.6893 9.64799C30.8153 9.97598 30.9552 10.298 31.0732 10.628C31.4848 11.7751 31.7639 12.9655 31.9052 14.176C31.9252 14.344 31.9273 14.35 31.7433 14.376C31.3633 14.422 30.9832 14.4599 30.6012 14.4999L28.1093 14.764L26.1293 14.9639L24.0793 15.1819L22.9513 15.29Z" fill="#54747E"/>
<path d="M8.53561 18.4338C8.6336 18.4338 8.64159 18.5259 8.67159 18.5839C8.95825 19.1385 9.24292 19.6945 9.52559 20.2518C9.55759 20.3138 9.5916 20.3758 9.6216 20.4398C9.69759 20.5958 9.69958 20.5978 9.55559 20.7018L7.98159 21.8458L3.27762 25.2618C3.06362 25.4178 3.06364 25.4178 2.91364 25.2078C2.03878 23.9678 1.34515 22.6095 0.85366 21.1738C0.777661 20.9518 0.777664 20.9518 1.01366 20.8738L7.2276 18.8578L8.40759 18.4758L8.53561 18.4338Z" fill="#54747E"/>
<path d="M15.1644 24.0039C15.0904 24.6919 15.0163 25.3899 14.9423 26.0899C14.8743 26.7419 14.8064 27.3938 14.7424 28.0458C14.6544 28.8845 14.5657 29.7225 14.4764 30.5598C14.4364 30.9478 14.3983 31.3358 14.3603 31.7238C14.3423 31.9018 14.3424 31.9078 14.1604 31.8898C13.1513 31.7806 12.1557 31.5709 11.1884 31.2638C10.6744 31.1038 10.1704 30.9118 9.67441 30.7018C9.48841 30.6238 9.48839 30.6198 9.56839 30.4378L11.0044 27.2078L12.7204 23.3579C12.7404 23.3159 12.7604 23.2739 12.7764 23.2299C12.8084 23.1479 12.8584 23.1359 12.9424 23.1579C13.6424 23.3579 14.3424 23.5399 15.0463 23.7179C15.2343 23.7659 15.1524 23.8899 15.1644 24.0039Z" fill="#54747E"/>
<path d="M20.9484 0.801758C21.4069 0.945982 21.8576 1.11421 22.2984 1.30575C23.3395 1.7513 24.3298 2.30716 25.2524 2.96376C25.4044 3.07176 25.4043 3.07375 25.2923 3.22975L21.2304 8.81768C21.1104 8.98168 21.1284 8.95771 20.9724 8.87771L18.8664 7.8057C18.6904 7.7157 18.6904 7.71372 18.7524 7.51972C19.4631 5.33174 20.1744 3.14441 20.8864 0.957762C20.9024 0.915763 20.9204 0.873757 20.9484 0.801758Z" fill="#54747E"/>
<path d="M14.1656 7.35819C14.1876 7.48619 14.1176 7.51218 14.0516 7.53818L13.2516 7.84817C12.7716 8.03217 12.2896 8.21217 11.8096 8.39617C11.6676 8.45017 11.6436 8.45818 11.5536 8.30218C11.1636 7.61819 10.7656 6.9382 10.3716 6.25621L9.25761 4.33221C8.87495 3.66555 8.49296 3.00356 8.11163 2.34623C8.00963 2.16824 8.01763 2.14622 8.21163 2.04622C9.48592 1.33202 10.8538 0.79953 12.2756 0.46423L12.5256 0.404233C12.6656 0.374233 12.6936 0.386247 12.7256 0.518246C12.8076 0.890243 12.8856 1.26425 12.9656 1.63625C13.1469 2.49624 13.3283 3.35622 13.5096 4.21621C13.7283 5.25087 13.9483 6.28553 14.1696 7.32019C14.1616 7.34619 14.1676 7.37019 14.1656 7.35819Z" fill="#54747E"/>
<path d="M16.0022 28.3357V25.0097C16.0022 24.9557 16.0022 24.8997 16.0022 24.8457C16.0022 24.7597 16.0402 24.7257 16.1262 24.7137C16.5102 24.6557 16.8942 24.5917 17.2762 24.5297L18.3802 24.3537L18.4721 24.3417C18.6921 24.3217 18.6962 24.3237 18.7662 24.5417C19.1301 25.6524 19.4934 26.763 19.8561 27.8737C20.1921 28.903 20.5254 29.933 20.8561 30.9636L20.8761 31.0316C20.9341 31.2216 20.9361 31.2317 20.7321 31.2857C20.3961 31.3837 20.0581 31.4856 19.7181 31.5596C19.0752 31.7138 18.4233 31.8274 17.7662 31.8997C17.2558 31.9603 16.7421 31.9896 16.2281 31.9876C15.9961 31.9876 15.9941 31.9876 15.9941 31.7576C15.9981 30.611 16.0009 29.4703 16.0022 28.3357Z" fill="#54747E"/>
<path d="M24.8474 19.9519L25.0474 20.0319L28.7473 21.6799L30.4373 22.4319C30.6173 22.5139 30.6213 22.5179 30.5453 22.6819C29.8946 24.0956 29.041 25.4068 28.0113 26.5739C27.8893 26.7119 27.8833 26.7119 27.7393 26.5739L24.6574 23.7999C24.2054 23.3999 23.7534 22.9839 23.2974 22.5799C23.2074 22.4999 23.1854 22.4399 23.2594 22.3299C23.7574 21.5739 24.2494 20.8139 24.7434 20.0539C24.7654 20.0179 24.7874 19.9719 24.8474 19.9519Z" fill="#54747E"/>
<path d="M7.95421 29.8254C7.92621 29.8114 7.89222 29.7955 7.86022 29.7755C7.12857 29.3409 6.43179 28.8501 5.77622 28.3075C5.23988 27.8535 4.7291 27.3701 4.24623 26.8595C4.11424 26.7235 4.11224 26.7155 4.24623 26.5855C4.67423 26.1975 5.10625 25.8135 5.53425 25.4275L6.57623 24.4875L8.37621 22.8755C8.48621 22.7755 8.59223 22.6755 8.69823 22.5675C8.71343 22.5498 8.73229 22.5355 8.75352 22.5258C8.77475 22.516 8.79784 22.511 8.82121 22.511C8.84458 22.511 8.86767 22.516 8.8889 22.5258C8.91013 22.5355 8.92902 22.5498 8.94423 22.5675C9.44555 22.9768 9.94821 23.3848 10.4522 23.7915C10.6522 23.9595 10.8522 24.1315 11.0722 24.2895C11.1662 24.3595 11.1602 24.4175 11.1102 24.5035C10.6382 25.3115 10.1669 26.1201 9.6962 26.9295C9.25821 27.6855 8.82423 28.4435 8.38823 29.2015C8.28223 29.3835 8.17621 29.5655 8.07021 29.7475C8.05924 29.7694 8.04281 29.7881 8.02248 29.8018C8.00215 29.8154 7.97863 29.8235 7.95421 29.8254Z" fill="#54747E"/>
<path d="M0.00911459 15.9518C-0.0268851 15.5518 0.055102 15.0778 0.059102 14.6098C0.0642855 14.5634 0.0723177 14.5173 0.0831191 14.4718C0.095119 14.3758 0.151106 14.3398 0.245105 14.3518C0.577102 14.3878 0.9131 14.4098 1.2451 14.4618C1.4451 14.4938 1.6631 14.4998 1.8711 14.5278C2.44909 14.6058 3.03108 14.6598 3.61108 14.7178C3.99107 14.7558 4.37108 14.7798 4.75108 14.8238C5.20708 14.8758 5.66307 14.9298 6.12106 14.9658C6.17506 14.9658 6.22707 14.9938 6.28107 14.9998C6.29655 14.9995 6.31193 15.0024 6.32626 15.0083C6.3406 15.0141 6.35359 15.0229 6.36444 15.0339C6.37529 15.0449 6.38376 15.058 6.38937 15.0725C6.39498 15.0869 6.39761 15.1023 6.39706 15.1178C6.41139 15.1838 6.42206 15.2506 6.42905 15.3178C6.41705 15.7938 6.46907 16.2678 6.49307 16.7438C6.51107 17.1258 6.51305 17.5078 6.55105 17.8878C6.56105 17.9918 6.53305 18.0278 6.43906 18.0478L3.99507 18.5638L1.4831 19.0978L0.547105 19.2978C0.377106 19.3338 0.371121 19.3278 0.325122 19.1598C0.247235 18.8427 0.191105 18.5206 0.157124 18.1958C0.051401 17.4526 0.00191723 16.7025 0.00911459 15.9518Z" fill="#54747E"/>
<path d="M6.57206 3.09814C6.65406 3.11814 6.67805 3.18216 6.71205 3.23016C7.04404 3.68483 7.37737 4.13947 7.71204 4.59413L9.62804 7.23013C9.65388 7.26903 9.68191 7.30642 9.71202 7.34213C9.78602 7.42413 9.76803 7.48413 9.69203 7.55813C9.40003 7.84213 9.11602 8.13211 8.82803 8.41811L7.56806 9.67811C7.44606 9.79811 7.44404 9.8001 7.30204 9.6981L3.20408 6.72214C3.06008 6.61814 3.04808 6.63212 3.16608 6.47412C4.0972 5.2248 5.20473 4.11727 6.45405 3.18616L6.57206 3.09814Z" fill="#54747E"/>
<path d="M26.6894 27.8859C26.4447 28.1415 26.1769 28.3739 25.8894 28.58C24.9048 29.3509 23.8352 30.0065 22.7014 30.5339C22.6725 30.546 22.6444 30.5601 22.6174 30.5759C22.5234 30.6359 22.4814 30.5879 22.4434 30.5019C21.9808 29.4526 21.5141 28.404 21.0434 27.356C20.8247 26.864 20.6041 26.3726 20.3814 25.882C20.2934 25.682 20.2894 25.682 20.4674 25.568C21.2914 25.032 22.1174 24.498 22.9414 23.968C23.0374 23.906 23.0954 23.9 23.1754 23.988C23.5274 24.388 23.8874 24.776 24.2434 25.1699C24.4434 25.3899 24.6434 25.6139 24.8434 25.8339L26.3054 27.4459C26.4334 27.5839 26.5574 27.7319 26.6894 27.8859Z" fill="#54747E"/>
<path d="M29.7538 15.996H31.7218C31.9998 15.996 32.0058 15.996 31.9998 16.264C31.9838 16.824 31.9398 17.3819 31.8758 17.9399C31.7845 18.7047 31.6388 19.462 31.4398 20.206C31.3918 20.386 31.3418 20.5659 31.2858 20.7459C31.2298 20.9259 31.2078 20.9459 30.9998 20.8859C30.8358 20.8359 30.6718 20.7859 30.5098 20.7339L27.2038 19.644C26.9698 19.568 26.9578 19.5579 27.0038 19.3119C27.1038 18.6739 27.2038 18.038 27.3138 17.402C27.3698 17.056 27.4178 16.7099 27.4698 16.3639C27.4698 16.3179 27.4818 16.2719 27.4918 16.226C27.5418 15.992 27.5438 15.99 27.7778 15.99L29.7538 15.996Z" fill="#54747E"/>
<path d="M15.2516 0.0400391H16.7576C17.5525 0.0753973 18.3434 0.171704 19.1236 0.328062C19.3236 0.368061 19.3236 0.368043 19.2856 0.584041C19.0656 1.62003 18.8436 2.65604 18.6276 3.69403C18.5996 3.82603 18.5376 3.85202 18.4276 3.84402C17.9996 3.81802 17.5696 3.80202 17.1416 3.77802L15.7416 3.70203C15.4456 3.68603 15.1416 3.66602 14.8536 3.65802C14.7496 3.65802 14.7017 3.62601 14.6917 3.51401C14.6557 3.12601 14.6076 2.73803 14.5656 2.35203C14.4936 1.66204 14.4236 0.972036 14.3516 0.282041C14.3336 0.108043 14.3316 0.108055 14.5136 0.0940547L15.2516 0.0400391Z" fill="#54747E"/>
<path d="M2.14737 8.02002C2.58537 8.27002 3.94736 8.87796 4.35936 9.11596C4.55936 9.22796 4.55937 9.25799 4.47337 9.47399L3.06137 13.166C3.04737 13.202 3.03136 13.2379 3.01736 13.2739C2.97736 13.3879 2.91337 13.4219 2.78537 13.3919C2.36937 13.2939 0.9994 12.8379 0.585403 12.7479C0.385405 12.7059 0.351384 12.66 0.401383 12.458C0.625267 11.493 0.936572 10.5504 1.3314 9.64195C1.57259 9.08634 1.845 8.54486 2.14737 8.02002Z" fill="#54747E"/>
<path d="M26.7285 4.17598C26.781 4.19217 26.8271 4.22434 26.8604 4.26799C27.3424 4.73599 27.8124 5.21399 28.2444 5.72999C28.6776 6.25093 29.0783 6.79795 29.4444 7.36797C29.5644 7.54997 29.6724 7.73996 29.7884 7.92595C29.8364 8.00395 29.8164 8.04797 29.7384 8.09197C29.3384 8.31797 28.1504 9.38396 27.7504 9.61396C27.5964 9.70196 27.5924 9.70194 27.4704 9.55595C27.1678 9.18928 26.8671 8.82063 26.5684 8.44997L25.4345 7.04998C25.2345 6.80799 25.0444 6.56198 24.8444 6.32398C24.7804 6.24798 24.7764 6.19797 24.8444 6.12397C24.9504 6.01997 25.0445 5.90798 25.1425 5.79398C25.3425 5.55598 26.3525 4.49801 26.5645 4.27001C26.6185 4.22801 26.6545 4.17198 26.7285 4.17598Z" fill="#54747E"/>
</svg>
