<svg width="516" height="1345" viewBox="0 0 516 1345" fill="none" xmlns="http://www.w3.org/2000/svg">
<mask id="mask0_844_5908" style="mask-type:alpha" maskUnits="userSpaceOnUse" x="0" y="0" width="516" height="1345">
<rect width="516" height="1345" fill="#003E42"/>
</mask>
<g mask="url(#mask0_844_5908)">
<g opacity="0.5">
<path d="M-52.8889 503.484V503.489L-52.8884 860.807C-52.8884 890.917 -28.3638 915.293 1.84738 915.293L131.209 915.293C161.421 915.293 185.945 890.917 185.945 860.807L185.945 707.896C185.965 682.265 206.858 661.459 232.67 661.459L425.444 661.459C444.333 661.459 460.991 651.931 470.825 637.447C476.73 628.749 480.18 618.257 480.18 606.973L480.18 243.891C480.18 213.781 455.655 189.405 425.444 189.405L296.082 189.405C265.871 189.405 241.346 213.781 241.346 243.891L241.346 377.315C241.332 402.951 220.437 423.763 194.622 423.763L1.84729 423.763C-28.3638 423.763 -52.8885 448.139 -52.8885 478.249L-52.8885 503.264V503.269L-52.8889 503.484Z" stroke="#00373A" stroke-width="8.01132"/>
<path d="M262.892 988.449L258.886 988.449L258.886 984.443L258.886 806.145C258.886 776.199 283.503 752.023 313.745 752.023L443.42 752.023C473.663 752.023 498.279 776.199 498.279 806.145L498.279 934.327C498.279 964.273 473.663 988.449 443.42 988.449L262.892 988.449Z" stroke="#00373A" stroke-width="8.01132"/>
<path d="M-68.0965 94.5687L-68.0965 90.563L-64.0908 90.563L114.208 90.563C144.154 90.563 168.33 115.179 168.33 145.422L168.33 275.097C168.33 305.339 144.154 329.956 114.208 329.956L-13.9746 329.956C-43.9202 329.956 -68.0965 305.339 -68.0965 275.097L-68.0965 94.5687Z" stroke="#00373A" stroke-width="8.01132"/>
</g>
</g>
</svg>
