<svg width="335" height="546" viewBox="0 0 335 546" fill="none" xmlns="http://www.w3.org/2000/svg">
<path fill-rule="evenodd" clip-rule="evenodd" d="M28.5176 53.8776L164.658 106.692L300.797 54.1155L164.3 1.52881L28.5176 53.8776Z" fill="#88CCCA"/>
<path fill-rule="evenodd" clip-rule="evenodd" d="M0 480.933L167.281 545.828L334.561 481.225L166.842 416.61L0 480.933Z" fill="#EFEFEF"/>
<path fill-rule="evenodd" clip-rule="evenodd" d="M28.5156 468.911L164.656 521.726L300.795 469.149L164.298 416.562L28.5156 468.911Z" fill="#88CCCA"/>
<path d="M181.223 48.6155L205.385 39.0496V472.745L181.223 482.507L181.223 48.6155Z" fill="#D5F2F1"/>
<path d="M181.221 47.3765V482.313L158.298 473.171L158.298 39.4736L181.221 47.3765Z" fill="#67AFAD"/>
<path d="M158.298 39.5816L182.411 30.0286L205.384 39.0624L181.221 48.6153L158.298 39.5816Z" fill="white"/>
<path d="M146.526 62.2458L170.689 52.6799V486.039L146.526 495.8V62.2458Z" fill="#D5F2F1"/>
<path d="M146.527 62.1407L146.526 495.484L123.603 486.342L123.603 53.373L146.527 62.1407Z" fill="#67AFAD"/>
<path d="M123.603 53.2119L147.716 43.6589L170.689 52.6928L146.526 62.2456L123.603 53.2119Z" fill="white"/>
<path fill-rule="evenodd" clip-rule="evenodd" d="M28.5156 233.806L164.656 286.621L300.795 234.044L164.298 181.458L28.5156 233.806Z" fill="#88CCCA"/>
<path fill-rule="evenodd" clip-rule="evenodd" d="M28.5156 232.281L164.656 285.096L300.795 232.519L164.298 179.933L28.5156 232.281Z" fill="#88CCCA"/>
<path d="M300.751 232.539V234.064L164.661 286.67V284.383L300.751 232.539Z" fill="#4C516A"/>
<path d="M68.5117 233.805L68.5118 232.283L71.7883 233.237L71.4356 234.908L68.5117 233.805Z" fill="#88CCCA"/>
<path d="M70.4936 258.185L71.6214 259.605V260.141L68.5244 258.974V257.432L70.4936 258.185Z" fill="#88CCCA"/>
<path d="M181.222 164.489L205.384 162.66V237.102L181.222 246.559V164.489Z" fill="#D5F2F1"/>
<path d="M181.221 164.253V246.44L158.298 237.701V162.742L181.221 164.253Z" fill="#67AFAD"/>
<path d="M146.526 162.313L170.689 160.374V250.584L146.526 260.225L146.526 162.313Z" fill="#D5F2F1"/>
<path d="M146.527 167.075V260.226L123.603 250.816V165.399L146.527 167.075Z" fill="#67AFAD"/>
<path fill-rule="evenodd" clip-rule="evenodd" d="M203.638 64.0155L300.797 52.5403V232.995L203.638 197.106V64.0155Z" fill="white"/>
<path fill-rule="evenodd" clip-rule="evenodd" d="M300.797 259.129L164.517 311.866L164.177 521.923L300.782 469.347L300.797 259.129Z" fill="#EEFFFE"/>
<path fill-rule="evenodd" clip-rule="evenodd" d="M293.128 273.202L172.444 319.975V333.908L293.128 287.248V273.202Z" fill="#D5F2F1"/>
<path fill-rule="evenodd" clip-rule="evenodd" d="M293.128 384.685L172.444 431.459V445.392L293.128 398.732V384.685Z" fill="#D5F2F1"/>
<path fill-rule="evenodd" clip-rule="evenodd" d="M293.128 328.943L172.444 375.717V389.65L293.128 342.99V328.943Z" fill="#D5F2F1"/>
<path fill-rule="evenodd" clip-rule="evenodd" d="M293.128 440.436L172.444 487.209V501.142L293.128 454.482V440.436Z" fill="#D5F2F1"/>
<path fill-rule="evenodd" clip-rule="evenodd" d="M293.128 301.078L172.444 347.852V361.785L293.128 315.125V301.078Z" fill="#D5F2F1"/>
<path fill-rule="evenodd" clip-rule="evenodd" d="M293.128 412.56L172.444 459.334V473.267L293.128 426.607V412.56Z" fill="#D5F2F1"/>
<path fill-rule="evenodd" clip-rule="evenodd" d="M293.128 356.819L172.444 403.592V417.525L293.128 370.865V356.819Z" fill="#D5F2F1"/>
<path fill-rule="evenodd" clip-rule="evenodd" d="M28.1914 258.831L164.811 311.891V522.254L28.1914 469.678V258.831Z" fill="#D5F2F1"/>
<path fill-rule="evenodd" clip-rule="evenodd" d="M33.999 273.201L154.685 319.975V333.908L33.999 287.248V273.201Z" fill="#B9E0DF"/>
<path fill-rule="evenodd" clip-rule="evenodd" d="M33.999 384.685L154.685 431.459V445.391L33.999 398.732V384.685Z" fill="#B9E0DF"/>
<path fill-rule="evenodd" clip-rule="evenodd" d="M33.999 328.943L154.685 375.717V389.649L33.999 342.99V328.943Z" fill="#B9E0DF"/>
<path fill-rule="evenodd" clip-rule="evenodd" d="M33.998 440.436L154.684 487.209V501.142L33.998 454.482V440.436Z" fill="#B9E0DF"/>
<path fill-rule="evenodd" clip-rule="evenodd" d="M33.999 301.078L154.685 347.852V361.784L33.999 315.125V301.078Z" fill="#B9E0DF"/>
<path fill-rule="evenodd" clip-rule="evenodd" d="M33.999 412.56L154.685 459.334V473.267L33.999 426.607V412.56Z" fill="#B9E0DF"/>
<path fill-rule="evenodd" clip-rule="evenodd" d="M33.999 356.818L154.685 403.592V417.524L33.999 370.865V356.818Z" fill="#B9E0DF"/>
<path d="M270.59 245.88C268.457 244.814 289.4 237.734 300.139 234.328V257.656C291.178 254.175 272.723 246.947 270.59 245.88Z" fill="white"/>
<path fill-rule="evenodd" clip-rule="evenodd" d="M28.5245 53.8767L164.458 106.682L164.822 311.901L28.1914 258.723L28.5245 53.8767Z" fill="#D5F2F1"/>
<path fill-rule="evenodd" clip-rule="evenodd" d="M240.154 59.6685L285.322 76.9459V90.8785L240.154 73.715V59.6685Z" fill="#B9E0DF"/>
<path fill-rule="evenodd" clip-rule="evenodd" d="M203.484 156.573L285.322 188.43V202.363L203.484 170.62V156.573Z" fill="#B9E0DF"/>
<path fill-rule="evenodd" clip-rule="evenodd" d="M202.544 99.5305L285.322 132.688V146.62L202.544 113.577V99.5305Z" fill="#B9E0DF"/>
<path fill-rule="evenodd" clip-rule="evenodd" d="M203.798 74.457L285.323 104.823V118.755L203.798 88.5036V74.457Z" fill="#B9E0DF"/>
<path fill-rule="evenodd" clip-rule="evenodd" d="M202.993 183.246L285.323 216.305V230.238L202.993 197.293V183.246Z" fill="#B9E0DF"/>
<path fill-rule="evenodd" clip-rule="evenodd" d="M202.23 127.112L285.322 160.563V174.496L202.23 141.158V127.112Z" fill="#B9E0DF"/>
<path fill-rule="evenodd" clip-rule="evenodd" d="M300.796 53.8767L164.517 106.691L164.697 311.829L300.796 259.903V53.8767Z" fill="#EEFFFE"/>
<path fill-rule="evenodd" clip-rule="evenodd" d="M293.128 74.0781L172.444 120.852V134.784L293.128 88.1247V74.0781Z" fill="#D5F2F1"/>
<path fill-rule="evenodd" clip-rule="evenodd" d="M293.128 185.562L172.444 232.335V246.268L293.128 199.608V185.562Z" fill="#D5F2F1"/>
<path fill-rule="evenodd" clip-rule="evenodd" d="M293.128 129.82L172.444 176.593V190.526L293.128 143.866V129.82Z" fill="#D5F2F1"/>
<path fill-rule="evenodd" clip-rule="evenodd" d="M293.128 101.955L172.444 148.728V162.661L293.128 116.001V101.955Z" fill="#D5F2F1"/>
<path fill-rule="evenodd" clip-rule="evenodd" d="M293.128 213.437L172.444 260.21V274.143L293.128 227.483V213.437Z" fill="#D5F2F1"/>
<path fill-rule="evenodd" clip-rule="evenodd" d="M293.128 241.312L172.444 288.086V302.018L293.128 255.359V241.312Z" fill="#D5F2F1"/>
<path fill-rule="evenodd" clip-rule="evenodd" d="M293.128 157.695L172.444 204.469V218.401L293.128 171.742V157.695Z" fill="#D5F2F1"/>
<path fill-rule="evenodd" clip-rule="evenodd" d="M33.999 74.0776L154.685 120.851V134.784L33.999 88.1242V74.0776Z" fill="#B9E0DF"/>
<path fill-rule="evenodd" clip-rule="evenodd" d="M33.999 185.561L154.685 232.335V246.268L33.999 199.608V185.561Z" fill="#B9E0DF"/>
<path fill-rule="evenodd" clip-rule="evenodd" d="M33.999 129.819L154.685 176.593V190.526L33.999 143.866V129.819Z" fill="#B9E0DF"/>
<path fill-rule="evenodd" clip-rule="evenodd" d="M33.999 241.312L154.685 288.086V302.018L33.999 255.359V241.312Z" fill="#B9E0DF"/>
<path fill-rule="evenodd" clip-rule="evenodd" d="M33.999 101.954L154.685 148.728V162.661L33.999 116.001V101.954Z" fill="#B9E0DF"/>
<path fill-rule="evenodd" clip-rule="evenodd" d="M33.999 213.437L154.685 260.21V274.143L33.999 227.483V213.437Z" fill="#B9E0DF"/>
<path fill-rule="evenodd" clip-rule="evenodd" d="M33.999 157.695L154.685 204.468V218.401L33.999 171.741V157.695Z" fill="#B9E0DF"/>
<path fill-rule="evenodd" clip-rule="evenodd" d="M28.5 54.0288L164.5 107.029L183 99.5288L47.5 46.5288L28.5 54.0288Z" fill="#88CCCA"/>
<path fill-rule="evenodd" clip-rule="evenodd" d="M128.229 92.3755L164.5 107.029L300.5 54.0288L264.5 40.0288L128.229 92.3755Z" fill="#88CCCA"/>
<path d="M161.722 2.46414L31.3664 52.2525C29.4297 52.9922 28.1504 54.8503 28.1504 56.9234V467.385C28.1504 469.443 29.4118 471.291 31.3286 472.041L161.684 523.044C162.846 523.498 164.135 523.502 165.299 523.055L298.174 472.029C300.107 471.287 301.382 469.431 301.382 467.361V56.9463C301.382 54.8618 300.089 52.9961 298.137 52.2644L165.261 2.45319C164.119 2.02524 162.861 2.02914 161.722 2.46414Z" stroke="#006058" stroke-width="4"/>
<path d="M65 121C65 135.513 75.0753 150.922 87.5 155.356C99.9247 159.835 110 151.683 110 137.17C109.106 110.606 104.5 92.0002 102 83C99.5 73.9999 100.5 58.9998 123.5 64" stroke="#429A97" stroke-width="1.5"/>
<path d="M96.1062 87.7628L66.2607 77L55.333 80.6494L85.1785 91.4121L96.1062 87.7628Z" fill="#429A97"/>
<path d="M85.1785 91.3695L55.333 80.6067V133.195L85.1785 143.957V91.3695Z" fill="#006058"/>
<path d="M96.1064 87.7627L85.1787 91.3693V144L96.1064 139.666V87.7627Z" fill="#00C8B5"/>
<path d="M73.1729 108.134L64.4023 104.969V104.555L73.1729 107.72V105.154C73.1729 103.501 71.8673 101.69 70.2494 101.106L64.4023 98.9958V104.969V113.921L73.1729 117.086V108.134Z" fill="white"/>
<path d="M73.584 108.319V117.214C75.0032 117.528 76.0959 116.672 76.0959 115.161V112.182C76.0959 110.671 75.0032 109.032 73.584 108.319Z" fill="white"/>
<path d="M63.0396 118.226V118.483C63.0396 118.982 62.8693 119.338 62.5429 119.538C62.2165 119.737 61.7765 119.737 61.2514 119.538C60.6838 119.338 60.2296 118.982 59.8465 118.483C59.4775 117.984 59.293 117.471 59.293 116.929C59.293 116.387 59.4775 116.017 59.8465 115.774C60.2154 115.532 60.6696 115.518 61.2089 115.717C61.8901 115.96 62.4861 116.516 62.7984 117.157L62.2874 117.271C62.0888 116.844 61.6914 116.473 61.2089 116.302C60.8257 116.159 60.5135 116.174 60.258 116.33C60.0026 116.487 59.889 116.758 59.889 117.143C59.889 117.528 60.0168 117.884 60.258 118.212C60.5135 118.554 60.8399 118.797 61.2373 118.939C61.8901 119.167 62.3016 118.996 62.4152 118.526L61.1947 118.084V117.542L63.0254 118.198L63.0396 118.226Z" fill="white"/>
<path d="M65.6221 118.44L66.1898 118.64V121.263L65.6221 121.063V120.693C65.4093 120.921 65.1112 120.949 64.7139 120.807C64.3591 120.678 64.0468 120.436 63.7914 120.08C63.5359 119.723 63.4082 119.338 63.4082 118.968C63.4082 118.597 63.5359 118.298 63.7914 118.127C64.0468 117.956 64.3449 117.927 64.7139 118.055C65.1112 118.198 65.4093 118.454 65.6221 118.825V118.454V118.44ZM64.799 120.293C65.0403 120.379 65.239 120.365 65.3951 120.265C65.5512 120.165 65.6363 119.994 65.6363 119.752C65.6363 119.509 65.5512 119.281 65.3951 119.067C65.239 118.854 65.0403 118.697 64.799 118.611C64.5577 118.526 64.3591 118.54 64.2029 118.64C64.0468 118.74 63.9617 118.911 63.9617 119.153C63.9617 119.395 64.0468 119.623 64.2029 119.837C64.3591 120.051 64.5577 120.208 64.799 120.293Z" fill="white"/>
<path d="M68.305 119.951L67.6522 119.723V120.978C67.6522 121.32 67.8651 121.391 68.305 121.519V122.032C67.4393 121.833 67.0987 121.462 67.0987 120.778V119.524L66.6162 119.352V118.811L67.0987 118.982V118.412L67.6664 118.454V119.181L68.3192 119.409V119.951H68.305Z" fill="white"/>
<path d="M69.1566 121.263C69.2418 121.69 69.554 122.033 69.9939 122.189C70.292 122.303 70.519 122.275 70.6609 122.104L71.1293 122.546C70.8738 122.831 70.4906 122.888 69.9797 122.703C69.554 122.546 69.2134 122.289 68.9579 121.947C68.7025 121.591 68.5605 121.22 68.5605 120.821C68.5605 120.422 68.6883 120.151 68.9437 119.98C69.1992 119.809 69.5398 119.794 69.9372 119.937C70.3203 120.08 70.6326 120.322 70.8738 120.678C71.1151 121.035 71.2428 121.405 71.2428 121.79C71.2428 121.847 71.2428 121.919 71.2286 122.018L69.1566 121.263ZM70.6893 121.348C70.6042 120.892 70.3203 120.564 69.9372 120.436C69.5256 120.279 69.2276 120.436 69.1424 120.792L70.6751 121.348H70.6893Z" fill="white"/>
<path d="M74.6484 121.705L75.2444 121.919L74.4213 124.242L73.8678 124.043L73.3285 122.075L72.775 123.643L72.2216 123.444L71.3984 120.521L71.9945 120.735L72.5054 122.731L73.0589 121.12L73.5982 121.32L74.1375 123.33L74.6484 121.705Z" fill="white"/>
<path d="M77.629 122.774L78.1966 122.973V125.596L77.629 125.397V125.026C77.4161 125.254 77.1181 125.283 76.7207 125.14C76.3659 125.012 76.0537 124.769 75.7982 124.413C75.5428 124.057 75.415 123.672 75.415 123.301C75.415 122.931 75.5428 122.631 75.7982 122.46C76.0537 122.289 76.3517 122.261 76.7207 122.389C77.1181 122.531 77.4161 122.788 77.629 123.159V122.788V122.774ZM76.8058 124.627C77.0471 124.712 77.2458 124.698 77.4019 124.598C77.558 124.499 77.6432 124.328 77.6432 124.085C77.6432 123.843 77.558 123.615 77.4019 123.401C77.2458 123.187 77.0471 123.03 76.8058 122.945C76.5646 122.859 76.3659 122.873 76.2098 122.973C76.0537 123.073 75.9685 123.244 75.9685 123.486C75.9685 123.729 76.0537 123.957 76.2098 124.171C76.3659 124.385 76.5646 124.541 76.8058 124.627Z" fill="white"/>
<path d="M80.6091 123.857L81.2052 124.071L80.1976 126.409C79.9421 126.993 79.5305 127.164 78.9203 126.908V126.38C79.2751 126.523 79.4738 126.423 79.6157 126.124L79.6441 126.081L78.5371 123.102L79.1474 123.33L79.9279 125.511L80.5949 123.843L80.6091 123.857Z" fill="white"/>
<g clip-path="url(#clip0_1015_6317)">
<path d="M207 466.549L221.07 461.529L226.22 463.229L212.15 468.249L207 466.549Z" fill="#429A97"/>
<path d="M212.15 468.229L226.22 463.209V487.729L212.15 492.749V468.229Z" fill="#00C8B5"/>
<path d="M207 466.549L212.15 468.229V492.769L207 490.749V466.549Z" fill="#006058"/>
<path d="M226.1 471.929L222.79 470.669C221.97 470.399 221.02 470.399 220.01 470.769C216.99 471.859 214.54 475.649 214.54 479.219C214.54 481.699 215.72 483.429 217.45 483.889L220.55 485.079L221.44 482.969C223.76 481.379 225.47 478.259 225.47 475.269C225.47 474.739 225.41 474.249 225.31 473.789L226.1 471.919V471.929Z" fill="#006058"/>
<path d="M227.358 480.575C229.137 477.043 228.603 473.186 226.167 471.958C223.73 470.731 220.313 472.599 218.534 476.131C216.755 479.663 217.289 483.521 219.726 484.748C222.162 485.975 225.58 484.107 227.358 480.575Z" fill="#006058"/>
<path d="M222.95 484.179C225.7 483.189 227.93 479.749 227.93 476.509C227.93 473.269 225.7 471.449 222.95 472.449C220.2 473.449 217.97 476.879 217.97 480.119C217.97 483.359 220.2 485.179 222.95 484.179Z" fill="#00C8B5"/>
<path d="M222.31 477.799L220.55 476.359L222.31 477.799Z" fill="#001D23"/>
<path d="M222.31 477.799L220.55 476.359" stroke="#001D23" stroke-width="0.5" stroke-miterlimit="10" stroke-linecap="square"/>
<path d="M222.95 479.379C223.45 479.199 223.86 478.579 223.86 477.989C223.86 477.399 223.45 477.069 222.95 477.249C222.45 477.429 222.04 478.049 222.04 478.639C222.04 479.229 222.45 479.559 222.95 479.379Z" fill="#001D23"/>
<path d="M222.95 474.049V474.849V474.049Z" fill="#001D23"/>
<path d="M222.95 474.049V474.849" stroke="#001D23" stroke-width="0.5" stroke-miterlimit="10" stroke-linecap="square"/>
<path d="M225.51 474.369L225.03 475.109L225.51 474.369Z" fill="#001D23"/>
<path d="M225.51 474.369L225.03 475.109" stroke="#001D23" stroke-width="0.5" stroke-miterlimit="10" stroke-linecap="square"/>
<path d="M226.57 477.009L225.89 477.259L226.57 477.009Z" fill="#001D23"/>
<path d="M226.57 477.009L225.89 477.259" stroke="#001D23" stroke-width="0.5" stroke-miterlimit="10" stroke-linecap="square"/>
<path d="M220 479.379L219.32 479.629L220 479.379Z" fill="#001D23"/>
<path d="M220 479.379L219.32 479.629" stroke="#001D23" stroke-width="0.5" stroke-miterlimit="10" stroke-linecap="square"/>
</g>
<path d="M225.8 468.62C231.21 466.67 235.6 459.9 235.6 453.53C235.6 447.16 231.21 443.57 225.8 445.54C220.39 447.51 216 454.26 216 460.63C216 467 220.39 470.59 225.8 468.62Z" fill="#006058"/>
<path d="M227.8 469.62C233.21 467.67 237.6 460.9 237.6 454.53C237.6 448.16 233.21 444.57 227.8 446.54C222.39 448.51 218 455.26 218 461.63C218 468 222.39 471.59 227.8 469.62Z" fill="#429A97"/>
<path d="M223 463L224.898 458.838L226.417 460.455L229.259 453.859L231.537 457.172L234 453" stroke="#D5F2F1" stroke-width="1.5" stroke-miterlimit="10" stroke-linecap="square"/>
<path d="M221.43 469.764C221.43 469.037 222.02 468.449 222.748 468.449L226.111 468.449C226.839 468.449 227.43 469.037 227.43 469.764L227.43 473.134C227.43 473.86 226.839 474.449 226.111 474.449L221.43 474.449L221.43 469.764Z" fill="#BECFD2"/>
<path d="M225.511 471.449L324.5 471.449" stroke="#BECFD2" stroke-width="1.5"/>
<path d="M91.5352 128.238H325.5" stroke="#BECFD2" stroke-width="1.5"/>
<path d="M87.6426 126.553C87.6426 125.826 88.233 125.238 88.9613 125.238L92.3239 125.238C93.0522 125.238 93.6426 125.826 93.6426 126.553L93.6426 129.923C93.6426 130.649 93.0522 131.238 92.3239 131.238L87.6426 131.238L87.6426 126.553Z" fill="#BECFD2"/>
<defs>
<clipPath id="clip0_1015_6317">
<rect width="21.41" height="31.24" fill="white" transform="translate(207 461.529)"/>
</clipPath>
</defs>
</svg>
