<svg width="32" height="32" viewBox="0 0 32 32" fill="none" xmlns="http://www.w3.org/2000/svg">
<path d="M5 16H6C7.16396 16.0022 8.31156 16.2742 9.35263 16.7947C10.3937 17.3153 11.2999 18.0701 12 19H16C17.0378 19.0702 18.0149 19.5142 18.7504 20.2496C19.4858 20.9851 19.9298 21.9622 20 23H11" stroke="#54747E" stroke-width="2" stroke-miterlimit="10"/>
<path d="M19.4 21H26C29.6 21 30 23 30 23L15.7 28.8C15.1426 29.0313 14.5425 29.1419 13.9393 29.1247C13.3361 29.1074 12.7433 28.9627 12.2 28.7L5 25" stroke="#54747E" stroke-width="2" stroke-miterlimit="10"/>
<path d="M5 14H1V27H5V14Z" stroke="#54747E" stroke-width="2" stroke-miterlimit="10"/>
<path d="M11 8C11.5523 8 12 7.55228 12 7C12 6.44772 11.5523 6 11 6C10.4477 6 10 6.44772 10 7C10 7.55228 10.4477 8 11 8Z" fill="#54747E"/>
<path d="M16.5787 5.00001C16.1192 3.9472 15.3112 3.08472 14.2906 2.55758C13.27 2.03043 12.099 1.87078 10.9745 2.10548C9.85007 2.34017 8.84071 2.95488 8.11616 3.84626C7.39162 4.73763 6.99609 5.85131 6.99609 7.00001C6.99609 8.14871 7.39162 9.26238 8.11616 10.1538C8.84071 11.0451 9.85007 11.6598 10.9745 11.8945C12.099 12.1292 13.27 11.9696 14.2906 11.4424C15.3112 10.9153 16.1192 10.0528 16.5787 9.00001H20.0007L21.5007 10L23.0007 9.00001H26.0007L27.0007 5.00001H16.5787Z" stroke="#54747E" stroke-width="2" stroke-miterlimit="10" stroke-linecap="square"/>
</svg>
