<svg width="335" height="662" viewBox="0 0 335 662" fill="none" xmlns="http://www.w3.org/2000/svg">
<path fill-rule="evenodd" clip-rule="evenodd" d="M28.5176 152.349L164.658 205.163L300.797 152.587L164.3 100L28.5176 152.349Z" fill="#88CCCA"/>
<path fill-rule="evenodd" clip-rule="evenodd" d="M0 579.404L167.281 644.299L334.561 579.697L166.842 515.081L0 579.404Z" fill="#EFEFEF"/>
<path fill-rule="evenodd" clip-rule="evenodd" d="M28.5156 567.383L164.656 620.197L300.795 567.62L164.298 515.034L28.5156 567.383Z" fill="#88CCCA"/>
<path d="M181.223 147.087L205.385 137.521V571.217L181.223 580.978L181.223 147.087Z" fill="#D5F2F1"/>
<path d="M181.221 145.848V580.784L158.298 571.642L158.298 137.945L181.221 145.848Z" fill="#67AFAD"/>
<path d="M158.298 138.053L182.411 128.5L205.384 137.534L181.221 147.086L158.298 138.053Z" fill="white"/>
<path d="M146.526 160.717L170.689 151.151V584.51L146.526 594.271V160.717Z" fill="#D5F2F1"/>
<path d="M146.527 160.612L146.526 593.955L123.603 584.813L123.603 151.844L146.527 160.612Z" fill="#67AFAD"/>
<path d="M123.603 151.683L147.716 142.13L170.689 151.164L146.526 160.717L123.603 151.683Z" fill="white"/>
<path fill-rule="evenodd" clip-rule="evenodd" d="M28.5156 332.278L164.656 385.092L300.795 332.515L164.298 279.929L28.5156 332.278Z" fill="#88CCCA"/>
<path fill-rule="evenodd" clip-rule="evenodd" d="M28.5156 330.753L164.656 383.567L300.795 330.99L164.298 278.404L28.5156 330.753Z" fill="#88CCCA"/>
<path d="M300.751 331.01V332.535L164.661 385.141V382.854L300.751 331.01Z" fill="#4C516A"/>
<path d="M68.5117 332.276L68.5118 330.754L71.7883 331.709L71.4356 333.38L68.5117 332.276Z" fill="#88CCCA"/>
<path d="M70.4936 356.656L71.6214 358.076V358.612L68.5244 357.445V355.903L70.4936 356.656Z" fill="#88CCCA"/>
<path d="M181.222 262.96L205.384 261.132V335.573L181.222 345.03V262.96Z" fill="#D5F2F1"/>
<path d="M181.221 262.724V344.911L158.298 336.172V261.213L181.221 262.724Z" fill="#67AFAD"/>
<path d="M146.526 260.785L170.689 258.845V349.055L146.526 358.697L146.526 260.785Z" fill="#D5F2F1"/>
<path d="M146.527 265.547V358.697L123.603 349.288V263.87L146.527 265.547Z" fill="#67AFAD"/>
<path fill-rule="evenodd" clip-rule="evenodd" d="M203.638 162.487L300.797 151.011V331.466L203.638 295.577V162.487Z" fill="white"/>
<path fill-rule="evenodd" clip-rule="evenodd" d="M300.797 357.6L164.517 410.337L164.177 620.394L300.782 567.818L300.797 357.6Z" fill="#EEFFFE"/>
<path fill-rule="evenodd" clip-rule="evenodd" d="M293.128 371.673L172.444 418.446V432.379L293.128 385.719V371.673Z" fill="#D5F2F1"/>
<path fill-rule="evenodd" clip-rule="evenodd" d="M293.128 483.156L172.444 529.93V543.863L293.128 497.203V483.156Z" fill="#D5F2F1"/>
<path fill-rule="evenodd" clip-rule="evenodd" d="M293.128 427.415L172.444 474.188V488.121L293.128 441.461V427.415Z" fill="#D5F2F1"/>
<path fill-rule="evenodd" clip-rule="evenodd" d="M293.128 538.907L172.444 585.681V599.613L293.128 552.954V538.907Z" fill="#D5F2F1"/>
<path fill-rule="evenodd" clip-rule="evenodd" d="M293.128 399.55L172.444 446.323V460.256L293.128 413.596V399.55Z" fill="#D5F2F1"/>
<path fill-rule="evenodd" clip-rule="evenodd" d="M293.128 511.031L172.444 557.805V571.738L293.128 525.078V511.031Z" fill="#D5F2F1"/>
<path fill-rule="evenodd" clip-rule="evenodd" d="M293.128 455.29L172.444 502.063V515.996L293.128 469.336V455.29Z" fill="#D5F2F1"/>
<path fill-rule="evenodd" clip-rule="evenodd" d="M28.1914 357.302L164.811 410.362V620.725L28.1914 568.149V357.302Z" fill="#D5F2F1"/>
<path fill-rule="evenodd" clip-rule="evenodd" d="M33.999 371.673L154.685 418.446V432.379L33.999 385.719V371.673Z" fill="#B9E0DF"/>
<path fill-rule="evenodd" clip-rule="evenodd" d="M33.999 483.156L154.685 529.93V543.862L33.999 497.203V483.156Z" fill="#B9E0DF"/>
<path fill-rule="evenodd" clip-rule="evenodd" d="M33.999 427.414L154.685 474.188V488.121L33.999 441.461V427.414Z" fill="#B9E0DF"/>
<path fill-rule="evenodd" clip-rule="evenodd" d="M33.998 538.907L154.684 585.68V599.613L33.998 552.953V538.907Z" fill="#B9E0DF"/>
<path fill-rule="evenodd" clip-rule="evenodd" d="M33.999 399.549L154.685 446.323V460.256L33.999 413.596V399.549Z" fill="#B9E0DF"/>
<path fill-rule="evenodd" clip-rule="evenodd" d="M33.999 511.031L154.685 557.805V571.738L33.999 525.078V511.031Z" fill="#B9E0DF"/>
<path fill-rule="evenodd" clip-rule="evenodd" d="M33.999 455.289L154.685 502.063V515.996L33.999 469.336V455.289Z" fill="#B9E0DF"/>
<path d="M270.59 344.352C268.457 343.285 289.4 336.205 300.139 332.799V356.127C291.178 352.646 272.723 345.418 270.59 344.352Z" fill="white"/>
<path fill-rule="evenodd" clip-rule="evenodd" d="M28.5245 152.348L164.458 205.153L164.822 410.373L28.1914 357.194L28.5245 152.348Z" fill="#D5F2F1"/>
<path fill-rule="evenodd" clip-rule="evenodd" d="M240.154 158.14L285.322 175.417V189.35L240.154 172.186V158.14Z" fill="#B9E0DF"/>
<path fill-rule="evenodd" clip-rule="evenodd" d="M203.484 255.045L285.322 286.901V300.834L203.484 269.091V255.045Z" fill="#B9E0DF"/>
<path fill-rule="evenodd" clip-rule="evenodd" d="M202.544 198.002L285.322 231.159V245.091L202.544 212.048V198.002Z" fill="#B9E0DF"/>
<path fill-rule="evenodd" clip-rule="evenodd" d="M203.798 172.928L285.323 203.294V217.227L203.798 186.975V172.928Z" fill="#B9E0DF"/>
<path fill-rule="evenodd" clip-rule="evenodd" d="M202.993 281.718L285.323 314.776V328.709L202.993 295.764V281.718Z" fill="#B9E0DF"/>
<path fill-rule="evenodd" clip-rule="evenodd" d="M202.23 225.583L285.322 259.034V272.967L202.23 239.63V225.583Z" fill="#B9E0DF"/>
<path fill-rule="evenodd" clip-rule="evenodd" d="M300.796 152.348L164.517 205.162L164.697 410.3L300.796 358.374V152.348Z" fill="#EEFFFE"/>
<path fill-rule="evenodd" clip-rule="evenodd" d="M164.679 336.466V359.139L300.823 307.319L268.25 296.282L164.679 336.466Z" fill="#88CCCA"/>
<path d="M270.268 295.584L300.823 283.755L300.823 307.431C291.9 303.965 270.268 295.584 270.268 295.584Z" fill="white"/>
<path d="M300.779 307.338V308.857L164.68 361.36V359.082L300.779 307.338Z" fill="#10867C"/>
<path opacity="0.3" d="M271.793 303.065C275.003 304.275 280.063 304.325 283.103 303.185C286.143 302.045 286.013 300.145 282.813 298.945C279.613 297.745 274.553 297.685 271.503 298.825C268.453 299.965 268.583 301.865 271.783 303.065H271.793Z" fill="white"/>
<path opacity="0.2" d="M270.622 299.225L286.032 291.325L287.482 293.265L285.272 301.485C285.092 302.115 284.392 302.715 283.132 303.185C280.092 304.325 275.022 304.275 271.822 303.065C268.972 301.995 268.562 300.375 270.652 299.225H270.622Z" fill="#FFC700"/>
<path d="M290.158 288.25L291.6 290.169L287.474 293.268L286.032 291.349L290.158 288.25Z" fill="#006058"/>
<path opacity="0.3" d="M199.103 345.065C195.893 346.275 190.833 346.325 187.793 345.185C184.753 344.045 184.883 342.145 188.083 340.945C191.283 339.745 196.343 339.685 199.393 340.825C202.443 341.965 202.313 343.865 199.113 345.065H199.103Z" fill="white"/>
<path opacity="0.2" d="M200.274 341.225L184.864 333.325L183.414 335.265L185.624 343.485C185.804 344.115 186.504 344.715 187.764 345.185C190.804 346.325 195.874 346.275 199.074 345.065C201.924 343.995 202.334 342.375 200.244 341.225H200.274Z" fill="#FFC700"/>
<path d="M180.738 330.25L179.297 332.169L183.423 335.268L184.864 333.349L180.738 330.25Z" fill="#006058"/>
<path opacity="0.3" d="M230.103 333.065C226.893 334.275 221.833 334.325 218.793 333.185C215.753 332.045 215.883 330.145 219.083 328.945C222.283 327.745 227.343 327.685 230.393 328.825C233.443 329.965 233.313 331.865 230.113 333.065H230.103Z" fill="white"/>
<path opacity="0.2" d="M231.274 329.225L215.864 321.325L214.414 323.265L216.624 331.485C216.804 332.115 217.504 332.715 218.764 333.185C221.804 334.325 226.874 334.275 230.074 333.065C232.924 331.995 233.334 330.375 231.244 329.225H231.274Z" fill="#FFC700"/>
<path d="M211.738 318.25L210.297 320.169L214.423 323.268L215.864 321.349L211.738 318.25Z" fill="#006058"/>
<path opacity="0.3" d="M261.103 321.065C257.893 322.275 252.833 322.325 249.793 321.185C246.753 320.045 246.883 318.145 250.083 316.945C253.283 315.745 258.343 315.685 261.393 316.825C264.443 317.965 264.313 319.865 261.113 321.065H261.103Z" fill="white"/>
<path opacity="0.2" d="M262.274 317.225L246.864 309.325L245.414 311.265L247.624 319.485C247.804 320.115 248.504 320.715 249.764 321.185C252.804 322.325 257.874 322.275 261.074 321.065C263.924 319.995 264.334 318.375 262.244 317.225H262.274Z" fill="#FFC700"/>
<path d="M242.738 306.25L241.297 308.169L245.423 311.268L246.864 309.349L242.738 306.25Z" fill="#006058"/>
<path opacity="0.3" d="M290.103 310.065C286.893 311.275 281.833 311.325 278.793 310.185C275.753 309.045 275.883 307.145 279.083 305.945C282.283 304.745 287.343 304.685 290.393 305.825C293.443 306.965 293.313 308.865 290.113 310.065H290.103Z" fill="white"/>
<path opacity="0.2" d="M291.274 306.225L275.864 298.325L274.414 300.265L276.624 308.485C276.804 309.115 277.504 309.715 278.764 310.185C281.804 311.325 286.874 311.275 290.074 310.065C292.924 308.995 293.334 307.375 291.244 306.225H291.274Z" fill="#FFC700"/>
<path d="M271.738 295.25L270.297 297.169L274.423 300.268L275.864 298.349L271.738 295.25Z" fill="#006058"/>
<path opacity="0.3" d="M212.103 340.065C208.893 341.275 203.833 341.325 200.793 340.185C197.753 339.045 197.883 337.145 201.083 335.945C204.283 334.745 209.343 334.685 212.393 335.825C215.443 336.965 215.313 338.865 212.113 340.065H212.103Z" fill="white"/>
<path opacity="0.2" d="M213.274 336.225L197.864 328.325L196.414 330.265L198.624 338.485C198.804 339.115 199.504 339.715 200.764 340.185C203.804 341.325 208.874 341.275 212.074 340.065C214.924 338.995 215.334 337.375 213.244 336.225H213.274Z" fill="#FFC700"/>
<path d="M193.738 325.25L192.297 327.169L196.423 330.268L197.864 328.349L193.738 325.25Z" fill="#006058"/>
<path opacity="0.3" d="M243.103 328.065C239.893 329.275 234.833 329.325 231.793 328.185C228.753 327.045 228.883 325.145 232.083 323.945C235.283 322.745 240.343 322.685 243.393 323.825C246.443 324.965 246.313 326.865 243.113 328.065H243.103Z" fill="white"/>
<path opacity="0.2" d="M244.274 324.225L228.864 316.325L227.414 318.265L229.624 326.485C229.804 327.115 230.504 327.715 231.764 328.185C234.804 329.325 239.874 329.275 243.074 328.065C245.924 326.995 246.334 325.375 244.244 324.225H244.274Z" fill="#FFC700"/>
<path d="M224.738 313.25L223.297 315.169L227.423 318.268L228.864 316.349L224.738 313.25Z" fill="#006058"/>
<path opacity="0.3" d="M274.103 316.065C270.893 317.275 265.833 317.325 262.793 316.185C259.753 315.045 259.883 313.145 263.083 311.945C266.283 310.745 271.343 310.685 274.393 311.825C277.443 312.965 277.313 314.865 274.113 316.065H274.103Z" fill="white"/>
<path opacity="0.2" d="M275.274 312.225L259.864 304.325L258.414 306.265L260.624 314.485C260.804 315.115 261.504 315.715 262.764 316.185C265.804 317.325 270.874 317.275 274.074 316.065C276.924 314.995 277.334 313.375 275.244 312.225H275.274Z" fill="#FFC700"/>
<path d="M255.738 301.25L254.297 303.169L258.423 306.268L259.864 304.349L255.738 301.25Z" fill="#006058"/>
<path d="M174.297 335.25V332.25" stroke="#003E42"/>
<path d="M204.297 323.75V320.25" stroke="#003E42" stroke-linecap="round"/>
<path d="M233.297 312.25V309.25" stroke="#003E42" stroke-linecap="round"/>
<path d="M263.297 300.75V297.25" stroke="#003E42" stroke-linecap="round"/>
<path d="M293.297 289.25V286.25" stroke="#003E42" stroke-linecap="round"/>
<path d="M172.297 336.25L296.297 288.25" stroke="#003E42"/>
<path d="M300.778 282.284V283.803L164.661 336.462V334.118L300.778 282.284Z" fill="#10867C"/>
<path fill-rule="evenodd" clip-rule="evenodd" d="M293.128 172.549L172.444 219.323V233.256L293.128 186.596V172.549Z" fill="#D5F2F1"/>
<path fill-rule="evenodd" clip-rule="evenodd" d="M293.128 228.291L172.444 275.064V288.997L293.128 242.337V228.291Z" fill="#D5F2F1"/>
<path fill-rule="evenodd" clip-rule="evenodd" d="M293.128 200.426L172.444 247.2V261.132L293.128 214.473V200.426Z" fill="#D5F2F1"/>
<path fill-rule="evenodd" clip-rule="evenodd" d="M293.128 339.783L172.444 386.557V400.49L293.128 353.83V339.783Z" fill="#D5F2F1"/>
<path fill-rule="evenodd" clip-rule="evenodd" d="M293.128 256.166L172.444 302.94V316.873L293.128 270.213V256.166Z" fill="#D5F2F1"/>
<path fill-rule="evenodd" clip-rule="evenodd" d="M33.999 172.549L154.685 219.322V233.255L33.999 186.595V172.549Z" fill="#B9E0DF"/>
<path fill-rule="evenodd" clip-rule="evenodd" d="M33.999 284.032L154.685 330.806V344.739L33.999 298.079V284.032Z" fill="#B9E0DF"/>
<path fill-rule="evenodd" clip-rule="evenodd" d="M33.999 228.291L154.685 275.064V288.997L33.999 242.337V228.291Z" fill="#B9E0DF"/>
<path fill-rule="evenodd" clip-rule="evenodd" d="M33.999 339.783L154.685 386.557V400.489L33.999 353.83V339.783Z" fill="#B9E0DF"/>
<path fill-rule="evenodd" clip-rule="evenodd" d="M33.999 200.426L154.685 247.199V261.132L33.999 214.472V200.426Z" fill="#B9E0DF"/>
<path fill-rule="evenodd" clip-rule="evenodd" d="M33.999 311.908L154.685 358.681V372.614L33.999 325.954V311.908Z" fill="#B9E0DF"/>
<path fill-rule="evenodd" clip-rule="evenodd" d="M33.999 256.166L154.685 302.939V316.872L33.999 270.212V256.166Z" fill="#B9E0DF"/>
<path fill-rule="evenodd" clip-rule="evenodd" d="M28.5 152.5L164.5 205.5L183 198L47.5 145L28.5 152.5Z" fill="#88CCCA"/>
<path fill-rule="evenodd" clip-rule="evenodd" d="M128.229 190.847L164.5 205.5L300.5 152.5L264.5 138.5L128.229 190.847Z" fill="#88CCCA"/>
<g clip-path="url(#clip0_1498_7649)">
<path d="M243.206 469.918L231.104 475.876C228.182 474.985 223.994 472.838 223.994 468.167V458.381C224 453.709 227.852 448.447 232.604 446.63L243.206 442.578C247.958 440.761 251.228 443.504 253.358 447.02L251.816 458.168C251.816 462.84 247.964 468.102 243.212 469.918H243.206Z" fill="#006058"/>
<path d="M245.648 471.464L235.352 475.398C230.738 477.162 227 474.915 227 470.378V460.262C227 455.726 230.738 450.618 235.352 448.854L245.648 444.92C250.262 443.156 254 445.403 254 449.94V460.056C254 464.592 250.262 469.7 245.648 471.464Z" fill="#00C8B5"/>
<path d="M235.82 458.711L240.164 457.053V458.157L237.89 464.533L236.486 465.07L238.694 458.864L235.82 459.962V458.717V458.711Z" fill="white"/>
<path d="M240.567 463.507V462.533L242.865 459.33C243.375 458.605 243.633 458.062 243.633 457.714C243.633 457.195 243.267 456.995 242.757 457.189C242.247 457.384 241.875 457.785 241.635 458.393L240.519 458.174C240.939 457.107 241.785 456.293 242.739 455.927C243.345 455.697 243.873 455.685 244.305 455.897C244.737 456.098 244.959 456.523 244.959 457.16C244.959 457.85 244.593 458.687 243.855 459.696L242.541 461.489L245.067 460.522V461.778L240.573 463.495L240.567 463.507Z" fill="white"/>
<path d="M242.57 469.689L238.4 471.281C237.434 471.653 236.648 471.181 236.648 470.225C236.648 469.276 237.434 468.202 238.4 467.83L242.57 466.238C243.536 465.866 244.322 466.338 244.322 467.294C244.322 468.243 243.536 469.317 242.57 469.689Z" fill="#006058"/>
<path d="M241.453 452.08C242.091 451.318 242.182 450.354 241.655 449.928C241.128 449.501 240.184 449.772 239.545 450.534C238.906 451.295 238.816 452.259 239.342 452.686C239.869 453.113 240.814 452.841 241.453 452.08Z" fill="#006058"/>
<path d="M246.855 450.02C247.494 449.259 247.584 448.295 247.058 447.868C246.531 447.442 245.586 447.713 244.947 448.475C244.309 449.236 244.218 450.2 244.745 450.627C245.271 451.054 246.216 450.782 246.855 450.02Z" fill="#006058"/>
<path d="M236.05 454.145C236.689 453.383 236.78 452.42 236.253 451.993C235.726 451.566 234.781 451.837 234.143 452.599C233.504 453.361 233.413 454.324 233.94 454.751C234.467 455.178 235.412 454.906 236.05 454.145Z" fill="#006058"/>
</g>
<path d="M191.274 124.741V114.467L202.119 110.091V120.65L191.274 124.741Z" fill="#00C8B5"/>
<path d="M191.274 114.467L181 110.566V120.65L191.274 124.741V114.467Z" fill="#006058"/>
<path d="M191.274 114.467L181 110.566L191.94 106L202.119 110.091L191.274 114.467Z" fill="#429A97"/>
<path d="M182.293 113.757L189.404 116.343" stroke="#001D23" stroke-linecap="round"/>
<path d="M200.394 113.757L193.283 116.343" stroke="#006058" stroke-linecap="round"/>
<path d="M200.394 116.343L193.283 118.929" stroke="#006058" stroke-linecap="round"/>
<path d="M200.394 118.929L193.283 121.514" stroke="#006058" stroke-linecap="round"/>
<path d="M182.293 116.343L189.404 118.929" stroke="#001D23" stroke-linecap="round"/>
<path d="M182.293 118.929L189.404 121.514" stroke="#001D23" stroke-linecap="round"/>
<path d="M206.789 131.205V120.931L217.634 116.555V127.115L206.789 131.205Z" fill="#00C8B5"/>
<path d="M206.789 120.931L196.515 117.031V127.115L206.789 131.205V120.931Z" fill="#006058"/>
<path d="M206.789 120.931L196.515 117.031L207.455 112.464L217.634 116.555L206.789 120.931Z" fill="#429A97"/>
<path d="M197.808 120.222L204.918 122.807" stroke="#001D23" stroke-linecap="round"/>
<path d="M215.908 120.222L208.797 122.807" stroke="#006058" stroke-linecap="round"/>
<path d="M215.908 122.807L208.797 125.393" stroke="#006058" stroke-linecap="round"/>
<path d="M215.908 125.393L208.797 127.979" stroke="#006058" stroke-linecap="round"/>
<path d="M197.808 122.807L204.918 125.393" stroke="#001D23" stroke-linecap="round"/>
<path d="M197.808 125.393L204.918 127.979" stroke="#001D23" stroke-linecap="round"/>
<path d="M222.304 137.67V127.396L233.149 123.02V133.579L222.304 137.67Z" fill="#00C8B5"/>
<path d="M222.304 127.396L212.029 123.495V133.579L222.304 137.67V127.396Z" fill="#006058"/>
<path d="M222.304 127.395L212.029 123.495L222.97 118.929L233.149 123.019L222.304 127.395Z" fill="#429A97"/>
<path d="M213.322 126.686L220.433 129.272" stroke="#001D23" stroke-linecap="round"/>
<path d="M231.423 126.686L224.312 129.272" stroke="#006058" stroke-linecap="round"/>
<path d="M231.423 129.272L224.312 131.857" stroke="#006058" stroke-linecap="round"/>
<path d="M231.423 131.857L224.312 134.443" stroke="#006058" stroke-linecap="round"/>
<path d="M213.322 129.272L220.433 131.857" stroke="#001D23" stroke-linecap="round"/>
<path d="M213.322 131.857L220.433 134.443" stroke="#001D23" stroke-linecap="round"/>
<path d="M238.818 144.134V133.86L249.663 129.484V140.044L238.818 144.134Z" fill="#00C8B5"/>
<path d="M238.818 133.86L228.544 129.96V140.044L238.818 144.134V133.86Z" fill="#006058"/>
<path d="M238.818 133.86L228.544 129.96L239.484 125.393L249.663 129.484L238.818 133.86Z" fill="#429A97"/>
<path d="M229.837 133.151L236.948 135.736" stroke="#001D23" stroke-linecap="round"/>
<path d="M247.938 133.151L240.827 135.736" stroke="#006058" stroke-linecap="round"/>
<path d="M247.938 135.736L240.827 138.322" stroke="#006058" stroke-linecap="round"/>
<path d="M247.938 138.322L240.827 140.908" stroke="#006058" stroke-linecap="round"/>
<path d="M229.837 135.736L236.948 138.322" stroke="#001D23" stroke-linecap="round"/>
<path d="M229.837 138.322L236.948 140.908" stroke="#001D23" stroke-linecap="round"/>
<g clip-path="url(#clip1_1498_7649)">
<path d="M204.697 182.835L203.281 182.306L202.967 167.339L204.382 167.875L204.697 182.835Z" fill="#006058"/>
<path d="M209.59 183.853L207.29 178.986L202.54 166.446L201.046 161.562L235.978 148.17L244.528 170.453L209.59 183.853Z" fill="#009A8D"/>
<path d="M235.377 149.574L202.422 162.213L210.183 182.448L243.138 169.808L235.377 149.574Z" fill="#001D23"/>
<path d="M240.094 161.86C239.736 160.919 238.673 160.447 237.731 160.805L230.804 163.46C229.862 163.818 229.391 164.887 229.749 165.823L232.142 172.059C232.5 173.001 232.796 173.769 232.796 173.769C232.796 173.769 233.563 173.473 234.505 173.115L241.432 170.46C242.374 170.102 242.845 169.039 242.488 168.097L240.094 161.86Z" fill="#00C8B5"/>
<path d="M216.866 166.62C217.224 167.561 218.294 168.033 219.229 167.675L227.104 164.656C228.046 164.298 228.517 163.228 228.16 162.293L225.491 155.334C225.133 154.392 224.07 153.92 223.128 154.278L215.253 157.298C214.311 157.656 213.839 158.719 214.197 159.66L216.866 166.626L216.866 166.62Z" fill="#00C8B5"/>
<path d="M219.306 167.88L227.184 164.859C228.125 164.498 229.189 164.967 229.552 165.914L231.942 172.147C232.303 173.088 231.834 174.152 230.887 174.515L223.009 177.536C222.069 177.897 221.011 177.426 220.65 176.485L218.259 170.252C217.899 169.311 218.37 168.253 219.311 167.892L219.306 167.88Z" fill="#00C8B5"/>
<path d="M208.192 172.14L215.687 169.265C216.628 168.905 217.692 169.374 218.055 170.32L220.446 176.553C220.807 177.494 220.337 178.558 219.391 178.921L211.895 181.796C210.954 182.157 209.896 181.686 209.536 180.745L207.145 174.512C206.784 173.571 207.253 172.507 208.2 172.144L208.192 172.14Z" fill="#00C8B5"/>
<path d="M228.367 162.211C228.725 163.152 229.788 163.624 230.729 163.266L237.656 160.611C238.598 160.253 239.07 159.183 238.712 158.248L236.043 151.289C235.685 150.347 234.616 149.876 233.68 150.233L226.753 152.889C225.812 153.246 225.34 154.31 225.698 155.251L228.367 162.211Z" fill="#00C8B5"/>
<path d="M215.611 169.065C216.553 168.707 217.025 167.644 216.667 166.702L213.998 159.743C213.64 158.801 212.577 158.329 211.635 158.687L204.14 161.556C203.199 161.914 202.727 162.977 203.085 163.919L205.754 170.884C206.118 171.826 207.175 172.298 208.117 171.94L215.611 169.065Z" fill="#00C8B5"/>
<path d="M201.042 161.563L200.271 161.859L208.819 184.145L209.59 183.849L201.042 161.563Z" fill="#006058"/>
</g>
<g clip-path="url(#clip2_1498_7649)">
<path d="M165.697 197.835L164.281 197.306L163.967 182.339L165.382 182.875L165.697 197.835Z" fill="#006058"/>
<path d="M170.59 198.853L168.29 193.986L163.54 181.446L162.046 176.562L196.978 163.17L205.528 185.453L170.59 198.853Z" fill="#009A8D"/>
<path d="M196.377 164.574L163.422 177.213L171.183 197.448L204.138 184.808L196.377 164.574Z" fill="#001D23"/>
<path d="M201.094 176.86C200.736 175.919 199.673 175.447 198.731 175.805L191.804 178.46C190.862 178.818 190.391 179.887 190.749 180.823L193.142 187.059C193.5 188.001 193.796 188.769 193.796 188.769C193.796 188.769 194.563 188.473 195.505 188.115L202.432 185.46C203.374 185.102 203.845 184.039 203.488 183.097L201.094 176.86Z" fill="#00C8B5"/>
<path d="M177.866 181.62C178.224 182.561 179.294 183.033 180.229 182.675L188.104 179.656C189.046 179.298 189.517 178.228 189.16 177.293L186.491 170.334C186.133 169.392 185.07 168.92 184.128 169.278L176.253 172.298C175.311 172.656 174.839 173.719 175.197 174.66L177.866 181.626L177.866 181.62Z" fill="#00C8B5"/>
<path d="M180.306 182.88L188.184 179.859C189.125 179.498 190.189 179.967 190.552 180.914L192.942 187.147C193.303 188.088 192.834 189.152 191.887 189.515L184.009 192.536C183.069 192.897 182.011 192.426 181.65 191.485L179.259 185.252C178.899 184.311 179.37 183.253 180.311 182.892L180.306 182.88Z" fill="#00C8B5"/>
<path d="M169.192 187.14L176.687 184.265C177.628 183.905 178.692 184.374 179.055 185.32L181.446 191.553C181.807 192.494 181.337 193.558 180.391 193.921L172.895 196.796C171.954 197.157 170.896 196.686 170.536 195.745L168.145 189.512C167.784 188.571 168.253 187.507 169.2 187.144L169.192 187.14Z" fill="#00C8B5"/>
<path d="M189.367 177.211C189.725 178.152 190.788 178.624 191.729 178.266L198.656 175.611C199.598 175.253 200.07 174.183 199.712 173.248L197.043 166.289C196.685 165.347 195.616 164.876 194.68 165.233L187.753 167.889C186.812 168.246 186.34 169.31 186.698 170.251L189.367 177.211Z" fill="#00C8B5"/>
<path d="M176.611 184.065C177.553 183.707 178.025 182.644 177.667 181.702L174.998 174.743C174.64 173.801 173.577 173.329 172.635 173.687L165.14 176.556C164.199 176.914 163.727 177.977 164.085 178.919L166.754 185.884C167.118 186.826 168.175 187.298 169.117 186.94L176.611 184.065Z" fill="#00C8B5"/>
</g>
<path d="M249.782 560.15L270.532 552.157L259.993 548L238.878 555.993L249.782 560.15Z" fill="#429A97"/>
<path d="M238.858 591.804L249.75 596.28L250.069 560.15L238.859 555.993L238.858 591.804Z" fill="#006058"/>
<path d="M249.784 596.175L270.534 588.201V552.157L249.784 560.15V596.175Z" fill="#00C8B5"/>
<path d="M262.357 568.825L258.469 573.945H263.653L259.765 579.065" stroke="#006058" stroke-width="2" stroke-miterlimit="10" stroke-linecap="square"/>
<path d="M267.978 557.912L251.991 563.667" stroke="#006058" stroke-width="2" stroke-miterlimit="10" stroke-linecap="round"/>
<path d="M267.978 584.77L251.991 590.525" stroke="#006058" stroke-width="2" stroke-miterlimit="10" stroke-linecap="round"/>
<path d="M222.924 570.382L243.674 562.388L233.134 558.232L212.02 566.225L222.924 570.382Z" fill="#429A97"/>
<path d="M212 602.036L222.891 606.512L223.211 570.382L212 566.225L212 602.036Z" fill="#006058"/>
<path d="M222.926 606.407L243.676 598.433V562.388L222.926 570.382V606.407Z" fill="#00C8B5"/>
<path d="M235.499 579.057L231.61 584.177H236.795L232.906 589.297" stroke="#006058" stroke-width="2" stroke-miterlimit="10" stroke-linecap="square"/>
<path d="M241.119 568.144L225.132 573.899" stroke="#006058" stroke-width="2" stroke-miterlimit="10" stroke-linecap="round"/>
<path d="M241.119 595.001L225.132 600.757" stroke="#006058" stroke-width="2" stroke-miterlimit="10" stroke-linecap="round"/>
<g clip-path="url(#clip3_1498_7649)">
<path d="M99 558.552L77.9706 551L70.2732 553.558L91.3027 561.11L99 558.552Z" fill="#429A97"/>
<path d="M91.3027 561.08L70.2733 553.528V590.417L91.3027 597.97V561.08Z" fill="#006058"/>
<path d="M99 558.552L91.3027 561.08V598L99 594.961V558.552Z" fill="#00C8B5"/>
<path d="M79 581V590.336C79 592.268 77.8867 594.027 76.1404 594.855L60 602.5" stroke="#429A97" stroke-width="2" stroke-miterlimit="10" stroke-linecap="round"/>
<path d="M76 577.193L78.577 576.157C79.2154 575.935 79.955 575.935 80.7413 576.24C83.0926 577.135 85 580.25 85 583.184C85 585.222 84.0813 586.644 82.7344 587.022L80.3209 588L79.628 586.266C77.8218 584.959 76.4905 582.395 76.4905 579.938C76.4905 579.502 76.5372 579.1 76.6151 578.721L76 577.185V577.193Z" fill="#429A97"/>
<path d="M78.7521 587.048L78.7544 587.049C79.7875 587.421 80.6289 587.247 81.2103 586.777C81.807 586.294 82.25 585.401 82.25 584.117C82.25 582.832 81.8009 581.479 81.0545 580.34C80.306 579.197 79.2996 578.331 78.2456 577.951C77.2125 577.579 76.3711 577.753 75.7897 578.223C75.193 578.706 74.75 579.599 74.75 580.883C74.75 582.168 75.1993 583.523 75.9457 584.664C76.6943 585.807 77.7001 586.672 78.7521 587.048Z" fill="#006058" stroke="#00C8B5" stroke-width="1.5"/>
<path d="M81 565L78 568.5H82L79 572" stroke="#00C8B5" stroke-width="2" stroke-miterlimit="10" stroke-linecap="square"/>
</g>
<g clip-path="url(#clip4_1498_7649)">
<path d="M88.51 603.7V603.82C88.51 603.82 88.51 604.13 88.67 604.32C89.06 604.94 89.95 605.68 90.3 605.56C90.61 605.48 90.81 605.09 90.92 604.67C90.96 604.48 91 604.24 91.04 604.01C91.12 603.31 90.81 601.76 89.64 601.45C89.37 601.37 89.13 601.45 88.94 601.61C88.78 601.73 88.63 601.92 88.59 602.08C88.36 602.58 88.51 603.63 88.51 603.67V603.71V603.7Z" fill="#429A97"/>
<path d="M22.0598 613.12L31.8898 608.43L27.5798 606.57L21.0098 609.67L22.0598 613.12Z" fill="#001D23"/>
<path d="M58.3201 628.97L67.8401 623.81L63.2201 621.83L53.6201 626.91L58.3201 628.96V628.97Z" fill="#001D23"/>
<path d="M25.5998 611.41L24.5898 609.39L27.4298 607.61C28.3198 607.03 29.4498 606.95 30.6898 607.49C33.2898 608.61 35.3098 612.1 35.1598 615.32C35.0798 617.03 34.4198 618.34 33.4098 619.04H33.3698L30.4198 621.06L29.2898 618.85C27.0398 617.42 25.4798 614.31 25.5598 611.45L25.5998 611.41Z" fill="#001D23"/>
<path d="M22.6405 613.12C22.4105 615.95 23.8405 619.05 25.9405 620.64C26.2905 620.91 26.6405 621.11 26.9905 621.26C29.7105 622.46 32.0405 620.68 32.2005 617.31C32.3205 614.83 31.1905 612.19 29.5205 610.56C28.9805 610.02 28.3905 609.63 27.7705 609.36C25.1705 608.24 22.8705 609.9 22.6405 613.12Z" fill="#003E42"/>
<path d="M27.6605 611.3C25.9905 610.56 24.5105 611.73 24.3605 613.9C24.2005 616.07 25.4505 618.47 27.1605 619.25C28.8705 619.99 30.3505 618.78 30.4605 616.58C30.5805 614.37 29.3305 612.04 27.6605 611.35V611.31V611.3Z" fill="#429A97"/>
<path d="M62.1702 627.54L61.1602 625.49L64.4202 623.75C65.4302 623.21 66.7102 623.17 68.0302 623.75C70.8702 624.95 72.8902 628.6 72.5802 631.89C72.4202 633.63 71.6102 634.95 70.4402 635.61H70.4002L67.0202 637.55L65.8902 635.26C63.4802 633.75 61.8902 630.53 62.1602 627.58V627.54H62.1702Z" fill="#001D23"/>
<path d="M58.7896 629.17C58.3996 632.04 59.7996 635.26 62.0496 636.92C62.3996 637.19 62.7896 637.42 63.1796 637.58C66.1296 638.9 68.8096 637.11 69.1996 633.74C69.4696 631.22 68.3796 628.51 66.5996 626.8C66.0196 626.26 65.3996 625.79 64.6996 625.52C61.8596 624.32 59.2196 625.91 58.7496 629.16H58.7896V629.17Z" fill="#003E42"/>
<path d="M64.46 627.46C62.63 626.68 60.96 627.81 60.65 629.98C60.34 632.15 61.58 634.67 63.45 635.48C65.32 636.29 67.03 635.13 67.3 632.88C67.57 630.63 66.29 628.23 64.46 627.45V627.46Z" fill="#429A97"/>
<path d="M103.9 616.92C103.86 616.61 103.78 616.3 103.71 615.99C103.36 614.67 102.78 613.43 101.92 612.35C101.76 612.12 101.57 611.92 101.38 611.69C100.53 610.76 99.5101 609.98 98.3102 609.36L89.7202 604.82L81.1702 598C77.9102 595.98 72.0402 593.12 66.3602 590.98C62.4402 589.51 57.7802 588.81 53.2702 589.04C51.8702 589.12 50.4702 589.27 49.1102 589.54C48.9502 589.54 48.8002 589.62 48.6402 589.62C47.0902 589.93 45.7302 590.59 44.5202 591.13C43.2802 591.71 24.2302 600.4 24.2302 600.4C24.0702 600.48 23.7602 600.63 23.4102 600.79L28.0802 599.85C28.0802 599.85 30.9902 598.62 33.8402 598.19C36.6902 597.76 41.1402 600.2 44.8702 601.75C49.4402 603.65 55.7702 606.32 59.7402 608.77C63.7102 611.22 63.1902 618.1 63.9802 618.35C64.7702 618.6 64.5402 617.96 67.2702 619.87C70.0002 621.78 72.2002 622.42 75.8702 625.12C69.2502 627.65 71.3802 630.89 70.5302 631.95C70.5902 632.36 70.6302 632.78 70.6602 633.19C70.6602 633.93 71.1702 634.55 71.9402 634.82C78.6202 637.18 86.8202 636.22 93.6202 632.22L97.5102 629.93C101.51 627.57 103.96 623.77 104 619.93V618.46C104 617.92 104 617.41 103.88 616.91L103.9 616.92Z" fill="#00C8B5"/>
<path d="M75.8802 625.12C72.2102 622.42 70.0102 621.78 67.2802 619.87C64.5502 617.96 64.7802 618.6 63.9902 618.35C63.2002 618.1 63.7302 611.23 59.7502 608.77C55.7802 606.32 49.4502 603.64 44.8802 601.75C41.1502 600.2 36.7002 597.76 33.8502 598.19C31.0002 598.62 28.0902 599.85 28.0902 599.85L23.4202 600.79C23.0702 600.98 22.7202 601.18 22.5302 601.37C21.6802 602.03 20.9402 602.77 20.2802 603.5C19.3502 604.62 18.6902 605.86 18.3402 607.07V607.15L18.1802 607.69C17.6002 609.74 18.4902 611.61 20.5102 612.46L22.0302 613.12C22.9202 609.63 25.2902 607.34 29.3002 609.24C32.1802 610.48 34.0402 613.93 33.6902 617.26C33.6902 617.53 33.6102 617.84 33.5302 618.11L58.2802 628.93C58.2802 628.66 58.3602 628.43 58.4402 628.19C59.2602 624.89 62.1702 623.38 65.2802 624.7C65.4702 624.78 65.6702 624.89 65.8602 624.97C67.3002 625.75 68.5002 627.02 69.3602 628.54C69.9402 629.55 70.3302 630.67 70.5302 631.8C70.5302 631.85 70.5402 631.9 70.5502 631.95C71.4002 630.88 69.2702 627.65 75.8902 625.12H75.8802Z" fill="#429A97"/>
<path d="M18.3304 607.15L18.1704 607.69C17.5904 609.74 18.4804 611.61 20.5004 612.46L22.0204 613.12C22.9104 609.63 25.2804 607.34 29.2904 609.24C30.3004 609.67 31.1604 610.36 31.8504 611.22L34.0704 611.3C31.9704 608.16 28.2804 606.49 25.2904 607.31C22.2604 608.12 21.6804 610.68 21.6804 610.68C21.6804 610.68 20.0904 610.33 19.1504 609.32C18.2204 608.31 18.7604 605.48 20.2804 603.54C19.3504 604.66 18.6904 605.9 18.3404 607.11V607.15H18.3304Z" fill="#429A97"/>
<path d="M70.5195 631.88C70.5995 632.35 70.6395 632.81 70.6795 633.28C70.6795 634.02 71.1895 634.64 71.9595 634.91C78.6395 637.27 86.8395 636.31 93.6395 632.31L97.5295 630.02C101.53 627.66 103.98 623.86 104.02 620.02V619.63C103.79 620.83 103.09 622.23 102.62 622.81C101.3 624.55 97.1795 629.67 87.1895 632.62C78.5995 635.14 73.8195 633.16 70.5195 631.84V631.88Z" fill="#429A97"/>
<path d="M90.0704 605.87C90.0704 605.87 95.9004 609.4 97.4104 610.95C98.9604 612.46 103.36 615.14 94.0704 620.25C87.1104 624.09 82.2904 624.55 77.5904 623.51C72.8904 622.46 66.4404 619.28 66.4404 619.28C66.4404 619.28 70.4404 622.11 72.2704 623.35C74.1004 624.59 81.3204 629.86 88.9404 627.73C96.4404 625.6 103.71 621.29 102.81 616.37C101.92 611.56 96.9404 609.16 90.0604 605.94V605.86L90.0704 605.87Z" fill="#429A97"/>
<path d="M73.6702 628.86C75.3002 630.76 77.4802 631.85 83.2302 630.84C89.2502 629.79 93.4102 627.31 96.9102 625.22C99.8202 623.48 100.76 622.39 102.12 620.68C103.44 619.01 103.91 616.92 103.91 616.92C103.87 616.61 103.79 616.3 103.72 615.99C103.37 614.67 102.79 613.43 101.93 612.35C101.77 612.12 101.58 611.92 101.39 611.69C101.55 612.43 101.55 612.93 101.51 613.82C101.51 615.06 101.04 617.04 101.16 618.36C101.28 619.72 100.19 621.35 95.8702 623.86C90.6602 626.88 88.7202 626.65 86.7802 626.3C85.7302 626.11 84.5302 626.07 83.4002 626.11C81.9602 626.11 80.6002 626.19 79.6302 626.07C77.5302 625.8 76.5202 624.64 74.8502 624.95C72.4002 625.42 72.7102 627.78 73.6802 628.9V628.86H73.6702Z" fill="#006058"/>
<path d="M59.7598 608.78L63.9998 618.36C64.9298 619.91 77.2898 613.98 84.4798 609.48C87.8598 607.35 90.1498 605.53 89.6898 604.87C87.1998 602.35 84.3298 600.06 81.1398 598.05C80.7898 598.36 80.3998 598.63 80.0098 598.94C79.1198 599.64 78.1398 600.3 77.0998 600.92C72.5098 603.79 66.6498 606.39 59.7698 608.79L59.7598 608.78Z" fill="#006058"/>
<path d="M32.3202 606.64C33.0202 606.95 36.0502 608.23 39.7402 609.82C40.2102 610.01 40.7102 610.25 41.2202 610.44C43.1602 611.25 45.2202 612.15 47.2002 613C47.7102 613.19 48.1702 613.43 48.6402 613.62C52.6002 615.33 55.9502 616.76 56.6102 617.03C58.4402 617.81 59.6802 618.35 59.4502 617.26C59.3302 616.64 58.7502 613.73 58.3202 611.52C58.0902 610.28 57.3502 609.19 56.3002 608.42C56.3002 608.42 55.9502 608.19 55.7902 608.07L55.0902 607.72C53.4602 607.02 51.2802 606.13 49.1102 605.2L48.9502 605.12C48.4402 604.93 47.9402 604.69 47.4302 604.5C46.3002 604.03 45.1802 603.57 44.1302 603.14C43.7402 602.99 43.3902 602.83 43.0402 602.67C41.4502 602.01 40.2002 601.47 39.6202 601.24C39.1102 601.05 38.6502 600.89 38.1802 600.81C36.3502 600.5 34.8002 601.24 32.8902 602.13C31.5302 602.75 31.0202 606.08 32.3102 606.63L32.3202 606.64Z" fill="#006058"/>
<path d="M74.9901 625.37C76.6201 625.29 77.5201 626.88 80.7001 626.8C84.2401 626.72 85.6701 626.64 86.6101 627.27C87.8501 628.08 87.0801 628.86 85.4101 629.56C83.7001 630.3 79.1101 631.3 76.3901 630.1C73.6701 628.94 72.2301 625.49 74.9901 625.37Z" fill="#003E42"/>
<path d="M102.62 618.62C102.89 618.46 103.63 617.15 103.75 616.02C103.4 614.7 102.82 613.46 101.96 612.38C102.23 613.31 101.92 615.13 101.77 616.41C101.61 617.73 102.39 618.77 102.66 618.62H102.62Z" fill="#003E42"/>
<path d="M56.3799 618.16C56.5399 619.75 58.6299 619.9 60.2699 619.75C61.1199 619.67 61.8599 619.48 62.0599 619.36C62.7199 619.01 62.5299 618.43 62.2199 618.08C61.7499 617.54 59.3799 616.53 57.8299 616.61C56.8999 616.65 56.2399 617.08 56.3499 618.16H56.3899H56.3799Z" fill="#00C8B5"/>
<path d="M30.7697 599.39C33.7997 598.81 34.4597 598.42 36.0897 597.68C37.7197 596.94 48.3697 592.02 51.0497 590.78C53.6897 589.58 53.9297 589.38 52.7197 589.42C52.0197 589.42 51.1697 589.54 50.3497 589.65C48.9897 589.84 47.6297 590.23 46.3497 590.81C42.8097 592.44 37.7597 594.73 33.0597 596.9C25.1297 600.54 27.7397 600 30.8097 599.42L30.7697 599.38V599.39Z" fill="#006058"/>
<path d="M18.4104 606.91C19.0704 607.41 20.0004 605.98 20.3904 604.93C20.7404 603.88 20.7004 603.69 20.3104 603.53C19.8804 603.37 19.0704 604.46 18.7204 605.04C18.5304 605.35 18.4104 605.62 18.3304 605.85C18.1704 606.35 18.2104 606.7 18.4504 606.9H18.4104V606.91Z" fill="#00C8B5"/>
<path d="M74.2102 627.11C74.4002 627.73 75.1002 628.47 75.6502 628.93C76.8502 629.9 78.9502 630.6 80.5102 629.74C81.4802 629.2 81.6802 628.46 81.2502 627.96C81.2502 627.92 81.1702 627.88 81.1302 627.84C80.7402 627.49 79.9302 627.37 79.2302 627.26C78.1402 627.07 77.2902 626.72 76.6302 626.45C76.0902 626.22 75.6602 626.02 75.2302 625.98C74.3002 625.86 73.9902 626.45 74.2202 627.14V627.1L74.2102 627.11Z" fill="#00C8B5"/>
<path d="M83.2703 629.4C84.0903 629.44 85.5203 629.24 85.9903 628.59C86.2203 628.28 86.0303 627.93 85.6403 627.7C85.3303 627.54 84.9403 627.43 84.4403 627.47C83.8603 627.47 83.3503 627.59 82.9203 627.86C82.7303 627.98 82.5703 628.09 82.4103 628.25C81.6703 628.95 82.4103 629.37 83.3003 629.41H83.2603L83.2703 629.4Z" fill="#00C8B5"/>
<path d="M102.12 616.3C102.12 616.49 102.2 616.73 102.28 616.88C102.44 617.19 102.71 617.31 103.21 616.72C103.95 615.83 103.44 614.2 102.74 614.36C102.66 614.36 102.58 614.44 102.51 614.52C102.16 614.91 102.08 615.84 102.12 616.26V616.3Z" fill="#00C8B5"/>
<path d="M43.59 611.95C43.59 611.95 42.77 612.26 42.54 613.93C42.31 615.64 42.07 619.82 42.07 619.82C42.07 619.82 41.72 615.28 41.8 613.89C41.84 612.49 42.97 611.56 42.97 611.56L43.59 611.95Z" fill="#429A97"/>
<path d="M40.9502 610.4L47.2102 613.04C46.9802 612.92 45.0702 611.88 44.7602 611.02C44.4102 610.09 45.1902 607.76 45.7702 605.75C46.1202 604.51 46.7002 604.39 47.4802 604.59C46.3502 604.12 45.2302 603.66 44.1802 603.23C45.1502 603.81 44.8802 604.55 44.6102 605.32C44.3002 606.33 43.7902 608.42 43.3302 609.7C42.9402 610.71 41.7802 610.59 41.2302 610.48C41.2302 610.48 41.0002 610.4 40.9602 610.4H40.9502Z" fill="#429A97"/>
<path d="M44 621.315C44 620.589 44.5904 620 45.3187 620L48.6813 620C49.4096 620 50 620.589 50 621.315L50 624.685C50 625.411 49.4096 626 48.6813 626L44 626L44 621.315Z" fill="#BECFD2"/>
</g>
<path d="M239 129.272L239 6.01806C239 3.25664 241.239 1.01807 244 1.01807L294.5 1.0181L322.5 1.01811" stroke="#BECFD2" stroke-width="1.5"/>
<path d="M193.303 340.783L256.159 340.783L314.024 340.783L322 340.783" stroke="#BECFD2" stroke-width="1.5"/>
<path d="M322 566L269 566" stroke="#BECFD2" stroke-width="1.5"/>
<path d="M322.5 459L256 459" stroke="#BECFD2" stroke-width="1.5"/>
<path d="M184 182L184 221.723C184 224.484 186.239 226.723 189 226.723L322.5 226.723" stroke="#BECFD2" stroke-width="1.5"/>
<path d="M47 620L47 656C47 658.761 49.2386 661 52 661L322 661" stroke="#BECFD2" stroke-width="1.5"/>
<path d="M236 126.315C236 125.589 236.59 125 237.319 125L240.681 125C241.41 125 242 125.589 242 126.315L242 129.685C242 130.411 241.41 131 240.681 131L236 131L236 126.315Z" fill="#BECFD2"/>
<path d="M189.08 338.098C189.08 337.372 189.67 336.783 190.399 336.783L193.761 336.783C194.49 336.783 195.08 337.372 195.08 338.098L195.08 341.468C195.08 342.195 194.49 342.783 193.761 342.783L189.08 342.783L189.08 338.098Z" fill="#BECFD2"/>
<path d="M162.042 176.563L161.271 176.859L169.819 199.145L170.59 198.849L162.042 176.563Z" fill="#006058"/>
<path d="M181 179.315C181 178.589 181.59 178 182.319 178L185.681 178C186.41 178 187 178.589 187 179.315L187 182.685C187 183.411 186.41 184 185.681 184L181 184L181 179.315Z" fill="#BECFD2"/>
<path d="M266 564.315C266 563.589 266.59 563 267.319 563L270.681 563C271.41 563 272 563.589 272 564.315L272 567.685C272 568.411 271.41 569 270.681 569L266 569L266 564.315Z" fill="#BECFD2"/>
<path d="M251 457.315C251 456.589 251.59 456 252.319 456L255.681 456C256.41 456 257 456.589 257 457.315L257 460.685C257 461.411 256.41 462 255.681 462L251 462L251 457.315Z" fill="#BECFD2"/>
<defs>
<clipPath id="clip0_1498_7649">
<rect width="30" height="34" fill="white" transform="translate(224 442)"/>
</clipPath>
<clipPath id="clip1_1498_7649">
<rect width="44.0652" height="35.4003" fill="white" transform="translate(200 148.926) rotate(-1.20361)"/>
</clipPath>
<clipPath id="clip2_1498_7649">
<rect width="44.0652" height="35.4003" fill="white" transform="translate(161 163.926) rotate(-1.20361)"/>
</clipPath>
<clipPath id="clip3_1498_7649">
<rect width="32" height="47" fill="white" transform="matrix(-1 0 0 1 99 551)"/>
</clipPath>
<clipPath id="clip4_1498_7649">
<rect width="86.02" height="49.01" fill="white" transform="translate(18 589)"/>
</clipPath>
</defs>
</svg>
