<svg width="353" height="547" viewBox="0 0 353 547" fill="none" xmlns="http://www.w3.org/2000/svg">
<path fill-rule="evenodd" clip-rule="evenodd" d="M28.5176 54.3488L164.658 107.163L300.797 54.5867L164.3 2L28.5176 54.3488Z" fill="#88CCCA"/>
<path fill-rule="evenodd" clip-rule="evenodd" d="M0 481.404L167.281 546.299L334.561 481.697L166.842 417.081L0 481.404Z" fill="#EFEFEF"/>
<path fill-rule="evenodd" clip-rule="evenodd" d="M28.5156 469.383L164.656 522.197L300.795 469.62L164.298 417.034L28.5156 469.383Z" fill="#88CCCA"/>
<path d="M181.223 49.0866L205.385 39.5208V473.217L181.223 482.978L181.223 49.0866Z" fill="#D5F2F1"/>
<path d="M181.221 47.8477V482.784L158.298 473.642L158.298 39.9448L181.221 47.8477Z" fill="#67AFAD"/>
<path d="M158.298 40.0528L182.411 30.4998L205.384 39.5336L181.221 49.0865L158.298 40.0528Z" fill="white"/>
<path d="M146.526 62.717L170.689 53.1511V486.51L146.526 496.271V62.717Z" fill="#D5F2F1"/>
<path d="M146.527 62.6119L146.526 495.955L123.603 486.813L123.603 53.8442L146.527 62.6119Z" fill="#67AFAD"/>
<path d="M123.603 53.6831L147.716 44.1301L170.689 53.164L146.526 62.7168L123.603 53.6831Z" fill="white"/>
<path fill-rule="evenodd" clip-rule="evenodd" d="M28.5156 234.278L164.656 287.092L300.795 234.515L164.298 181.929L28.5156 234.278Z" fill="#88CCCA"/>
<path fill-rule="evenodd" clip-rule="evenodd" d="M28.5156 232.753L164.656 285.567L300.795 232.99L164.298 180.404L28.5156 232.753Z" fill="#88CCCA"/>
<path d="M300.751 233.01V234.535L164.661 287.141V284.854L300.751 233.01Z" fill="#4C516A"/>
<path d="M68.5117 234.276L68.5118 232.754L71.7883 233.709L71.4356 235.38L68.5117 234.276Z" fill="#88CCCA"/>
<path d="M70.4936 258.656L71.6214 260.076V260.612L68.5244 259.445V257.903L70.4936 258.656Z" fill="#88CCCA"/>
<path d="M181.222 164.96L205.384 163.132V237.573L181.222 247.03V164.96Z" fill="#D5F2F1"/>
<path d="M181.221 164.724V246.911L158.298 238.172V163.213L181.221 164.724Z" fill="#67AFAD"/>
<path d="M146.526 162.785L170.689 160.845V251.055L146.526 260.697L146.526 162.785Z" fill="#D5F2F1"/>
<path d="M146.527 167.547V260.697L123.603 251.288V165.87L146.527 167.547Z" fill="#67AFAD"/>
<path fill-rule="evenodd" clip-rule="evenodd" d="M203.638 64.4867L300.797 53.0115V233.466L203.638 197.577V64.4867Z" fill="white"/>
<path fill-rule="evenodd" clip-rule="evenodd" d="M300.797 259.6L164.517 312.337L164.177 522.394L300.782 469.818L300.797 259.6Z" fill="#EEFFFE"/>
<path fill-rule="evenodd" clip-rule="evenodd" d="M293.128 273.673L172.444 320.446V334.379L293.128 287.719V273.673Z" fill="#D5F2F1"/>
<path fill-rule="evenodd" clip-rule="evenodd" d="M293.128 385.156L172.444 431.93V445.863L293.128 399.203V385.156Z" fill="#D5F2F1"/>
<path fill-rule="evenodd" clip-rule="evenodd" d="M293.128 329.415L172.444 376.188V390.121L293.128 343.461V329.415Z" fill="#D5F2F1"/>
<path fill-rule="evenodd" clip-rule="evenodd" d="M293.128 440.907L172.444 487.681V501.613L293.128 454.954V440.907Z" fill="#D5F2F1"/>
<path fill-rule="evenodd" clip-rule="evenodd" d="M293.128 301.55L172.444 348.323V362.256L293.128 315.596V301.55Z" fill="#D5F2F1"/>
<path fill-rule="evenodd" clip-rule="evenodd" d="M293.128 413.031L172.444 459.805V473.738L293.128 427.078V413.031Z" fill="#D5F2F1"/>
<path fill-rule="evenodd" clip-rule="evenodd" d="M293.128 357.29L172.444 404.063V417.996L293.128 371.336V357.29Z" fill="#D5F2F1"/>
<path fill-rule="evenodd" clip-rule="evenodd" d="M28.1914 259.302L164.811 312.362V522.725L28.1914 470.149V259.302Z" fill="#D5F2F1"/>
<path fill-rule="evenodd" clip-rule="evenodd" d="M33.999 273.673L154.685 320.446V334.379L33.999 287.719V273.673Z" fill="#B9E0DF"/>
<path fill-rule="evenodd" clip-rule="evenodd" d="M33.999 385.156L154.685 431.93V445.862L33.999 399.203V385.156Z" fill="#B9E0DF"/>
<path fill-rule="evenodd" clip-rule="evenodd" d="M33.999 329.414L154.685 376.188V390.121L33.999 343.461V329.414Z" fill="#B9E0DF"/>
<path fill-rule="evenodd" clip-rule="evenodd" d="M33.998 440.907L154.684 487.68V501.613L33.998 454.953V440.907Z" fill="#B9E0DF"/>
<path fill-rule="evenodd" clip-rule="evenodd" d="M33.999 301.549L154.685 348.323V362.256L33.999 315.596V301.549Z" fill="#B9E0DF"/>
<path fill-rule="evenodd" clip-rule="evenodd" d="M33.999 413.031L154.685 459.805V473.738L33.999 427.078V413.031Z" fill="#B9E0DF"/>
<path fill-rule="evenodd" clip-rule="evenodd" d="M33.999 357.289L154.685 404.063V417.996L33.999 371.336V357.289Z" fill="#B9E0DF"/>
<path d="M270.59 246.352C268.457 245.285 289.4 238.205 300.139 234.799V258.127C291.178 254.646 272.723 247.418 270.59 246.352Z" fill="white"/>
<path fill-rule="evenodd" clip-rule="evenodd" d="M28.5245 54.3479L164.458 107.153L164.822 312.373L28.1914 259.194L28.5245 54.3479Z" fill="#D5F2F1"/>
<path fill-rule="evenodd" clip-rule="evenodd" d="M240.154 60.1397L285.322 77.4171V91.3497L240.154 74.1862V60.1397Z" fill="#B9E0DF"/>
<path fill-rule="evenodd" clip-rule="evenodd" d="M203.484 157.045L285.322 188.901V202.834L203.484 171.091V157.045Z" fill="#B9E0DF"/>
<path fill-rule="evenodd" clip-rule="evenodd" d="M202.544 100.002L285.322 133.159V147.091L202.544 114.048V100.002Z" fill="#B9E0DF"/>
<path fill-rule="evenodd" clip-rule="evenodd" d="M203.798 74.9282L285.323 105.294V119.227L203.798 88.9748V74.9282Z" fill="#B9E0DF"/>
<path fill-rule="evenodd" clip-rule="evenodd" d="M202.993 183.718L285.323 216.776V230.709L202.993 197.764V183.718Z" fill="#B9E0DF"/>
<path fill-rule="evenodd" clip-rule="evenodd" d="M202.23 127.583L285.322 161.034V174.967L202.23 141.63V127.583Z" fill="#B9E0DF"/>
<path fill-rule="evenodd" clip-rule="evenodd" d="M300.796 54.3479L164.517 107.162L164.697 312.3L300.796 260.374V54.3479Z" fill="#EEFFFE"/>
<path fill-rule="evenodd" clip-rule="evenodd" d="M293.128 74.5493L172.444 121.323V135.256L293.128 88.5959V74.5493Z" fill="#D5F2F1"/>
<path fill-rule="evenodd" clip-rule="evenodd" d="M293.128 186.033L172.444 232.806V246.739L293.128 200.079V186.033Z" fill="#D5F2F1"/>
<path fill-rule="evenodd" clip-rule="evenodd" d="M293.128 130.291L172.444 177.064V190.997L293.128 144.337V130.291Z" fill="#D5F2F1"/>
<path fill-rule="evenodd" clip-rule="evenodd" d="M293.128 102.426L172.444 149.2V163.132L293.128 116.473V102.426Z" fill="#D5F2F1"/>
<path fill-rule="evenodd" clip-rule="evenodd" d="M293.128 213.908L172.444 260.682V274.614L293.128 227.955V213.908Z" fill="#D5F2F1"/>
<path fill-rule="evenodd" clip-rule="evenodd" d="M293.128 241.783L172.444 288.557V302.49L293.128 255.83V241.783Z" fill="#D5F2F1"/>
<path fill-rule="evenodd" clip-rule="evenodd" d="M293.128 158.166L172.444 204.94V218.873L293.128 172.213V158.166Z" fill="#D5F2F1"/>
<path fill-rule="evenodd" clip-rule="evenodd" d="M33.999 74.5488L154.685 121.322V135.255L33.999 88.5954V74.5488Z" fill="#B9E0DF"/>
<path fill-rule="evenodd" clip-rule="evenodd" d="M33.999 186.032L154.685 232.806V246.739L33.999 200.079V186.032Z" fill="#B9E0DF"/>
<path fill-rule="evenodd" clip-rule="evenodd" d="M33.999 130.291L154.685 177.064V190.997L33.999 144.337V130.291Z" fill="#B9E0DF"/>
<path fill-rule="evenodd" clip-rule="evenodd" d="M33.999 241.783L154.685 288.557V302.489L33.999 255.83V241.783Z" fill="#B9E0DF"/>
<path fill-rule="evenodd" clip-rule="evenodd" d="M33.999 102.426L154.685 149.199V163.132L33.999 116.472V102.426Z" fill="#B9E0DF"/>
<path fill-rule="evenodd" clip-rule="evenodd" d="M33.999 213.908L154.685 260.681V274.614L33.999 227.954V213.908Z" fill="#B9E0DF"/>
<path fill-rule="evenodd" clip-rule="evenodd" d="M33.999 158.166L154.685 204.939V218.872L33.999 172.212V158.166Z" fill="#B9E0DF"/>
<path fill-rule="evenodd" clip-rule="evenodd" d="M28.5 54.5L164.5 107.5L183 100L47.5 47L28.5 54.5Z" fill="#88CCCA"/>
<path fill-rule="evenodd" clip-rule="evenodd" d="M128.229 92.8467L164.5 107.5L300.5 54.5L264.5 40.5L128.229 92.8467Z" fill="#88CCCA"/>
<path d="M161.722 2.93533L31.3664 52.7237C29.4297 53.4634 28.1504 55.3215 28.1504 57.3946V467.856C28.1504 469.914 29.4118 471.762 31.3286 472.512L161.684 523.515C162.846 523.969 164.135 523.973 165.299 523.526L298.174 472.5C300.107 471.758 301.382 469.902 301.382 467.833V57.4175C301.382 55.333 300.089 53.4673 298.137 52.7356L165.261 2.92438C164.119 2.49644 162.861 2.50033 161.722 2.93533Z" stroke="#006058" stroke-width="4"/>
<path d="M234.308 480.221C244.126 476.251 252.083 464.875 252.083 454.814C252.083 444.753 244.126 439.82 234.308 443.79C224.49 447.762 216.533 459.135 216.533 469.196C216.533 479.257 224.49 484.193 234.308 480.221Z" fill="#006058"/>
<path d="M235.758 481.672C245.576 477.702 253.533 466.326 253.533 456.265C253.533 446.204 245.576 441.271 235.758 445.241C225.94 449.213 217.983 460.586 217.983 470.647C217.983 480.709 225.94 485.644 235.758 481.672Z" fill="#00C8B5"/>
<path d="M235.913 479.077C244.448 475.624 251.369 465.734 251.369 456.987C251.369 448.241 244.448 443.945 235.913 447.398C227.377 450.851 220.456 460.741 220.456 469.488C220.456 478.234 227.377 482.527 235.913 479.077Z" fill="#00A999"/>
<path opacity="0.3" d="M246.257 459.487C246.09 459.176 245.91 459.17 245.521 459.468C245.271 459.661 244.971 459.984 244.779 459.791C244.572 459.579 244.915 459.252 245.076 458.986C245.255 458.688 245.453 458.4 245.635 458.106C245.985 457.567 246.17 456.975 246.158 456.449C246.148 456.1 246.003 455.98 245.638 456.126C245.196 456.303 245.1 456.237 245.144 455.749C245.187 455.476 245.172 455.223 245.094 455.007C245.017 454.792 244.881 454.624 244.702 454.52C244.575 454.437 244.414 454.409 244.238 454.44C244.062 454.472 243.876 454.564 243.706 454.703C243.542 454.833 243.403 455.007 243.311 455.197C243.218 455.388 243.175 455.584 243.19 455.758C243.187 455.958 243.172 456.16 243.147 456.363C243.138 456.452 243.159 456.563 243.042 456.636C242.943 456.699 242.878 456.636 242.819 456.594C242.658 456.468 242.522 456.325 242.222 456.474C241.858 456.658 241.688 456.88 241.657 457.263C241.617 457.808 241.827 458.201 241.938 458.654C242.012 458.85 242.049 459.069 242.049 459.306C242.037 459.449 242.099 459.617 241.935 459.734C241.79 459.838 241.685 459.724 241.595 459.652C241.453 459.541 241.332 459.398 241.19 459.29C240.81 459.005 240.55 459.157 240.331 459.797C240.142 460.348 240.244 460.792 240.303 461.248C240.38 461.882 240.575 462.452 240.59 463.12C240.59 463.26 240.658 463.453 240.464 463.577C240.303 463.678 240.207 463.539 240.117 463.447C240.015 463.339 239.923 463.215 239.811 463.117C239.728 463.038 239.607 463.013 239.471 463.044C239.335 463.076 239.196 463.162 239.082 463.282C238.807 463.526 238.85 463.77 238.912 463.969C239.02 464.331 239.159 464.673 239.292 465.018C239.601 465.712 239.604 466.618 239.301 467.562C239.27 467.625 239.255 467.692 239.258 467.749C239.261 467.806 239.283 467.853 239.323 467.885C240.392 466.371 241.311 464.771 242.043 463.13C242.763 461.492 243.351 459.838 243.796 458.191C243.827 458.628 243.753 459.103 243.586 459.588C242.325 463.957 240.195 467.999 236.726 471.528C236.303 471.959 236.269 471.952 236.262 471.461C236.259 471.278 236.262 471.094 236.269 470.907C236.293 470.229 236.482 469.605 237.128 469.01C237.675 468.49 238.167 467.898 238.581 467.258C238.745 467.023 238.878 466.773 238.974 466.52C239.026 466.399 239.06 466.276 239.066 466.162C239.072 466.044 239.057 465.94 239.017 465.851C238.977 465.762 238.915 465.693 238.831 465.648C238.751 465.604 238.655 465.585 238.55 465.591C238.538 465.591 238.525 465.591 238.516 465.591C238.08 465.626 237.703 465.579 237.635 465.072C237.564 464.536 237.919 464.112 238.309 463.662C238.782 463.149 239.171 462.553 239.446 461.932C239.722 461.311 239.873 460.681 239.885 460.092C239.904 459.392 239.586 459.262 238.912 459.648C238.723 459.756 238.538 459.895 238.349 460.003C237.848 460.288 237.681 460.152 237.873 459.598C238.009 459.202 238.176 458.806 238.343 458.413C238.689 457.611 238.915 456.797 239.008 456.015C239.048 455.695 238.992 455.413 238.844 455.204C238.816 455.131 238.766 455.074 238.701 455.036C238.637 455.001 238.559 454.985 238.476 454.995C238.392 455.004 238.303 455.036 238.216 455.09C238.13 455.144 238.049 455.216 237.981 455.299C237.737 455.543 237.518 455.818 237.276 456.062C237.026 456.313 236.871 456.284 236.819 456.008C236.791 455.663 236.819 455.296 236.905 454.915C236.97 454.367 236.924 453.851 236.779 453.404C236.763 453.176 236.661 452.999 236.494 452.907C236.327 452.815 236.108 452.815 235.876 452.907C235.644 452.999 235.428 453.176 235.258 453.404C235.091 453.632 234.989 453.892 234.973 454.133C234.825 454.7 234.782 455.248 234.847 455.745C234.93 456.056 234.961 456.401 234.933 456.769C234.881 457.086 234.726 457.241 234.476 457.193C234.231 457.146 234.015 457.047 233.771 457C233.703 456.971 233.622 456.962 233.536 456.981C233.449 457 233.36 457.038 233.276 457.095C233.193 457.155 233.112 457.231 233.051 457.317C232.986 457.405 232.939 457.501 232.908 457.599C232.763 457.925 232.704 458.254 232.748 458.54C232.84 459.249 233.066 459.88 233.412 460.399C233.579 460.656 233.746 460.919 233.882 461.204C234.074 461.6 233.907 461.875 233.406 461.996C233.218 462.04 233.032 462.053 232.843 462.097C232.17 462.259 231.851 462.642 231.87 463.329C231.885 463.906 232.037 464.416 232.309 464.815C232.584 465.214 232.973 465.49 233.446 465.623C233.836 465.759 234.191 465.895 234.12 466.488C234.052 467.045 233.675 467.4 233.239 467.717C233.227 467.727 233.214 467.736 233.205 467.746C233.1 467.822 233.004 467.92 232.924 468.031C232.843 468.142 232.779 468.262 232.738 468.382C232.698 468.503 232.68 468.623 232.689 468.734C232.695 468.845 232.729 468.94 232.782 469.019C232.877 469.196 233.01 469.339 233.174 469.44C233.588 469.744 234.08 469.941 234.627 470.017C235.273 470.09 235.462 470.562 235.487 471.218C235.493 471.398 235.496 471.582 235.49 471.769C235.48 472.266 235.449 472.301 235.026 472.209C231.557 471.487 229.428 469.168 228.166 465.819C227.999 465.474 227.925 465.053 227.956 464.593C228.401 465.88 228.989 467.058 229.709 468.116C230.442 469.162 231.36 470.023 232.429 470.669C232.466 470.609 232.488 470.543 232.494 470.483C232.5 470.422 232.482 470.369 232.451 470.331C232.145 469.634 232.148 468.724 232.46 467.78C232.59 467.327 232.729 466.874 232.837 466.424C232.899 466.174 232.939 465.899 232.667 465.873C232.553 465.845 232.414 465.873 232.278 465.949C232.142 466.029 232.021 466.152 231.938 466.298C231.826 466.485 231.734 466.684 231.632 466.874C231.542 467.039 231.446 467.258 231.285 467.286C231.091 467.321 231.156 467.074 231.159 466.931C231.174 466.25 231.369 465.525 231.446 464.828C231.502 464.324 231.607 463.798 231.418 463.399C231.199 462.94 230.942 462.994 230.562 463.589C230.417 463.814 230.299 464.052 230.157 464.28C230.067 464.422 229.962 464.622 229.817 464.638C229.653 464.654 229.715 464.435 229.703 464.302C229.703 464.064 229.743 463.814 229.814 463.561C229.925 463.019 230.135 462.455 230.095 461.945C230.067 461.584 229.894 461.502 229.53 461.612C229.23 461.701 229.094 461.961 228.933 462.214C228.874 462.306 228.812 462.417 228.71 462.436C228.596 462.455 228.615 462.328 228.605 462.249C228.581 462.062 228.568 461.872 228.562 461.676C228.577 461.492 228.534 461.327 228.441 461.213C228.349 461.099 228.21 461.039 228.046 461.042C227.879 461.042 227.693 461.099 227.514 461.21C227.338 461.321 227.174 461.479 227.05 461.663C226.868 461.917 226.735 462.192 226.658 462.468C226.58 462.743 226.562 463.013 226.608 463.247C226.652 463.703 226.556 463.849 226.114 464.026C225.752 464.172 225.607 464.413 225.597 464.768C225.585 465.306 225.771 465.747 226.12 466.003C226.302 466.152 226.5 466.279 226.679 466.431C226.84 466.567 227.186 466.611 226.976 466.995C226.788 467.343 226.485 467.261 226.234 467.27C225.848 467.286 225.665 467.438 225.499 467.885C225.295 468.436 225.409 468.826 225.839 469.051C226.284 469.231 226.778 469.317 227.31 469.301C227.523 469.314 227.82 469.329 227.746 469.596C227.675 469.862 227.366 469.849 227.165 469.893C227.041 469.909 226.908 469.966 226.785 470.055C226.661 470.144 226.55 470.261 226.466 470.397C226.38 470.53 226.324 470.676 226.302 470.815C226.281 470.955 226.296 471.081 226.346 471.186C226.441 471.42 226.599 471.607 226.803 471.724C227.471 472.155 228.318 472.31 229.245 472.171C230.225 471.994 231.18 471.927 232.095 471.968C233.486 472.086 234.794 472.355 235.65 473.391C235.669 473.429 235.7 473.457 235.74 473.467C235.78 473.479 235.827 473.473 235.876 473.454C235.926 473.435 235.972 473.4 236.012 473.356C236.052 473.312 236.083 473.261 236.102 473.207C236.958 471.477 238.266 470.153 239.657 468.908C240.575 468.122 241.53 467.419 242.507 466.805C243.434 466.193 244.281 465.354 244.949 464.381C245.153 464.096 245.311 463.786 245.407 463.472C245.456 463.329 245.471 463.19 245.45 463.067C245.428 462.943 245.373 462.845 245.286 462.778C245.199 462.712 245.091 462.683 244.968 462.696C244.844 462.709 244.711 462.759 244.587 462.845C244.386 462.965 244.08 463.228 244.006 463.016C243.932 462.804 244.229 462.553 244.442 462.37C244.974 461.955 245.471 461.467 245.914 460.928C246.346 460.355 246.461 459.87 246.257 459.487Z" fill="white"/>
<path d="M235.879 475.307C233.545 476.251 231.264 476.463 229.326 475.922C227.384 475.377 225.873 474.1 224.979 472.253C224.086 470.406 223.854 468.068 224.309 465.54C224.763 463.012 225.888 460.402 227.536 458.045C229.187 455.688 231.289 453.686 233.576 452.292C235.864 450.902 238.238 450.179 240.393 450.224C242.547 450.268 244.39 451.073 245.688 452.536C246.983 454 247.676 456.059 247.676 458.447C247.673 461.653 246.427 465.23 244.217 468.392C242.006 471.553 239.005 474.04 235.879 475.31V475.307ZM235.879 451.453C233.61 452.371 231.391 453.959 229.502 456.015C227.613 458.071 226.142 460.503 225.273 463.003C224.404 465.502 224.176 467.961 224.621 470.064C225.063 472.168 226.157 473.821 227.762 474.816C229.366 475.811 231.412 476.105 233.638 475.659C235.864 475.212 238.173 474.046 240.272 472.307C242.371 470.568 244.161 468.335 245.425 465.892C246.687 463.446 247.36 460.899 247.36 458.574C247.357 455.457 246.146 452.958 243.994 451.621C241.842 450.287 238.924 450.227 235.882 451.453H235.879Z" fill="white"/>
<path d="M225.306 475.517L225.056 475.269L225.226 475.073L225.606 475.45L224.713 476.486L224.583 476.359L225.309 475.52L225.306 475.517Z" fill="white"/>
<path d="M224.577 474.693L224.339 474.376L224.518 474.195L224.868 474.661L223.912 475.624L223.569 475.165L223.749 474.984L223.98 475.295L224.185 475.089L223.971 474.804L224.147 474.626L224.361 474.911L224.574 474.696L224.577 474.693Z" fill="white"/>
<path d="M223.912 473.137L223.757 473.346L223.937 473.689L224.147 473.584L224.243 473.768L223.071 474.338L222.963 474.129L223.819 472.96L223.915 473.144L223.912 473.137ZM223.72 473.793L223.597 473.559L223.244 474.031L223.72 473.793Z" fill="white"/>
<path d="M222.416 472.805C222.395 472.745 222.389 472.675 222.395 472.599C222.401 472.523 222.426 472.444 222.46 472.368C222.534 472.209 222.655 472.067 222.794 471.965C222.933 471.864 223.084 471.816 223.214 471.829C223.279 471.835 223.335 471.858 223.378 471.896C223.424 471.934 223.455 471.984 223.474 472.048L223.6 472.428L222.537 473.182L222.41 472.802L222.416 472.805ZM223.279 472.193C223.267 472.155 223.248 472.121 223.22 472.098C223.192 472.073 223.158 472.06 223.121 472.054C223.038 472.048 222.942 472.079 222.855 472.146C222.812 472.174 222.769 472.212 222.735 472.254C222.698 472.295 222.667 472.342 222.645 472.393C222.624 472.441 222.608 472.488 222.605 472.536C222.602 472.583 222.605 472.624 222.621 472.662L222.682 472.856L223.344 472.387L223.282 472.193H223.279Z" fill="white"/>
<path d="M222.935 470.882L222.855 470.442L223.062 470.321L223.179 470.968L222.088 471.604L221.971 470.968L222.178 470.847L222.258 471.278L222.49 471.142L222.419 470.746L222.623 470.629L222.694 471.025L222.938 470.882H222.935Z" fill="white"/>
<path d="M222.942 469.057L222.571 469.459L222.58 469.624L222.964 469.444L222.979 469.662L221.872 470.182L221.845 469.738C221.841 469.691 221.848 469.637 221.863 469.586C221.879 469.532 221.903 469.479 221.934 469.431C221.965 469.38 222.005 469.336 222.049 469.295C222.092 469.254 222.138 469.222 222.188 469.2C222.256 469.168 222.324 469.159 222.382 469.168C222.441 469.178 222.491 469.212 222.522 469.26L222.923 468.82L222.939 469.054L222.942 469.057ZM222.064 469.868L222.392 469.716L222.376 469.491C222.37 469.45 222.348 469.421 222.317 469.409C222.287 469.396 222.243 469.399 222.203 469.418C222.163 469.437 222.123 469.472 222.095 469.513C222.067 469.555 222.052 469.602 222.049 469.646L222.064 469.871V469.868Z" fill="white"/>
<path d="M222.676 468.313L222.577 468.158C222.63 468.12 222.679 468.069 222.71 468.009C222.744 467.948 222.76 467.885 222.76 467.831C222.766 467.705 222.72 467.663 222.652 467.689C222.633 467.695 222.614 467.705 222.599 467.72C222.584 467.736 222.568 467.755 222.559 467.774C222.525 467.847 222.497 467.92 222.478 467.993C222.454 468.085 222.417 468.18 222.364 468.268C222.336 468.313 222.299 468.354 222.259 468.389C222.219 468.42 222.176 468.446 222.132 468.458C222.086 468.477 222.043 468.484 222.002 468.477C221.962 468.474 221.925 468.455 221.9 468.43C221.845 468.376 221.817 468.291 221.823 468.192C221.823 468.107 221.851 468.012 221.9 467.923C221.947 467.834 222.015 467.752 222.092 467.689L222.188 467.844C222.145 467.876 222.104 467.92 222.077 467.967C222.049 468.015 222.033 468.069 222.033 468.116C222.027 468.211 222.074 468.253 222.138 468.23C222.154 468.224 222.172 468.215 222.188 468.202C222.203 468.189 222.216 468.173 222.228 468.154C222.262 468.088 222.287 468.021 222.305 467.955L222.333 467.866C222.342 467.838 222.352 467.809 222.364 467.781C222.392 467.698 222.441 467.619 222.503 467.552C222.553 467.508 222.608 467.473 222.661 467.454C222.707 467.435 222.754 467.429 222.794 467.435C222.834 467.442 222.871 467.457 222.899 467.486C222.958 467.549 222.985 467.647 222.976 467.755C222.979 467.85 222.951 467.955 222.899 468.053C222.846 468.154 222.769 468.243 222.679 468.31L222.676 468.313Z" fill="white"/>
<path d="M222.048 466.225L222.086 465.99L223.18 465.734L223.143 465.968L222.688 466.073L222.62 466.516L223.075 466.412L223.038 466.649L221.943 466.906L221.98 466.668L222.416 466.567L222.484 466.124L222.048 466.225Z" fill="white"/>
<path d="M222.279 465.072L222.335 464.831L223.405 464.695L223.349 464.936L222.276 465.075L222.279 465.072Z" fill="white"/>
<path d="M222.725 463.459C222.741 463.406 222.769 463.349 222.8 463.298C222.834 463.247 222.874 463.2 222.92 463.158C223.01 463.079 223.112 463.035 223.205 463.035C223.297 463.035 223.371 463.073 223.415 463.149C223.436 463.187 223.446 463.231 223.449 463.282C223.449 463.333 223.443 463.387 223.424 463.44L223.356 463.656L223.696 463.649L223.619 463.89L222.58 463.916L222.725 463.459ZM223.232 463.447C223.245 463.399 223.242 463.355 223.223 463.323C223.205 463.292 223.171 463.276 223.13 463.276C223.09 463.276 223.047 463.295 223.007 463.33C222.966 463.361 222.936 463.406 222.917 463.453L222.849 463.668L223.164 463.662L223.232 463.447Z" fill="white"/>
<path d="M223.641 461.077L223.749 460.84L224.71 461.017L224.602 461.255L223.641 461.077Z" fill="white"/>
<path d="M224.565 459.237L224.692 459.002L225.595 459.3L225.499 459.477L224.671 459.804L225.221 459.984L225.094 460.219L224.191 459.921L224.287 459.743L225.116 459.417L224.565 459.237Z" fill="white"/>
<path d="M226.704 457.263L227.041 456.794L227.186 456.889L226.691 457.577L225.925 457.067L226.416 456.389L226.562 456.484L226.231 456.943L226.395 457.051L226.698 456.629L226.84 456.724L226.537 457.146L226.707 457.26L226.704 457.263Z" fill="white"/>
<path d="M227.545 454.989L227.722 454.783L228.389 455.419L228.256 455.575L227.468 455.632L227.876 456.021L227.7 456.227L227.032 455.591L227.165 455.435L227.95 455.378L227.542 454.989H227.545Z" fill="white"/>
<path d="M229.078 454.425L229.48 454.016L229.588 454.155L228.997 454.754L228.432 454.006L229.013 453.414L229.121 453.557L228.725 453.956L228.846 454.114L229.208 453.747L229.313 453.886L228.951 454.254L229.078 454.421V454.425Z" fill="white"/>
<path d="M230.741 453.11L230.38 452.992L230.228 453.126L230.386 453.42L230.188 453.594L229.73 452.745L230.135 452.394C230.21 452.327 230.296 452.283 230.377 452.27C230.457 452.258 230.528 452.277 230.581 452.324C230.63 452.372 230.658 452.444 230.655 452.533C230.652 452.619 230.621 452.714 230.565 452.799L230.961 452.923L230.748 453.11H230.741ZM230.012 452.726L230.148 452.977L230.352 452.799C230.389 452.764 230.414 452.72 230.426 452.673C230.438 452.628 230.435 452.584 230.42 452.552C230.401 452.52 230.373 452.501 230.333 452.501C230.296 452.501 230.253 452.517 230.213 452.546L230.009 452.723L230.012 452.726Z" fill="white"/>
<path d="M232.417 451.184L232.442 451.257C232.466 451.317 232.476 451.387 232.469 451.46C232.463 451.536 232.445 451.615 232.411 451.691C232.377 451.77 232.327 451.846 232.272 451.913C232.216 451.982 232.148 452.039 232.08 452.087C232.006 452.144 231.925 452.185 231.848 452.21C231.771 452.236 231.694 452.245 231.622 452.236C231.554 452.226 231.496 452.204 231.446 452.163C231.397 452.122 231.363 452.068 231.341 452.001C231.304 451.894 231.307 451.76 231.35 451.624C231.394 451.488 231.471 451.352 231.573 451.238C231.675 451.124 231.799 451.041 231.922 450.994C232.046 450.949 232.166 450.946 232.262 450.988L232.117 451.209C232.071 451.19 232.018 451.184 231.959 451.2C231.901 451.212 231.842 451.241 231.786 451.285C231.74 451.317 231.697 451.358 231.66 451.406C231.622 451.453 231.592 451.504 231.57 451.558C231.53 451.662 231.52 451.77 231.551 451.852C231.579 451.935 231.641 451.989 231.724 452.004C231.771 452.008 231.82 452.004 231.87 451.985C231.919 451.966 231.972 451.941 232.018 451.903C232.086 451.862 232.148 451.798 232.194 451.726C232.241 451.653 232.265 451.574 232.265 451.501L231.944 451.732L231.888 451.564L232.42 451.181L232.417 451.184Z" fill="white"/>
<path d="M233.842 449.777L233.589 450.633L233.666 451.038L233.453 451.165L233.375 450.759L232.881 450.348L233.125 450.205L233.443 450.5L233.598 449.926L233.842 449.784V449.777Z" fill="white"/>
<path d="M236.525 449.628L236.349 449.799L236.25 449.727C236.164 449.825 236.059 449.901 235.95 449.942C235.848 449.986 235.752 449.993 235.672 449.961C235.638 449.945 235.61 449.917 235.592 449.882C235.573 449.847 235.564 449.803 235.567 449.755C235.567 449.689 235.586 449.616 235.62 449.546C235.654 449.476 235.7 449.41 235.759 449.356C235.725 449.312 235.706 449.255 235.706 449.188C235.706 449.144 235.715 449.096 235.731 449.049C235.749 449.001 235.774 448.954 235.805 448.912C235.873 448.824 235.963 448.754 236.055 448.722C236.133 448.691 236.207 448.684 236.269 448.703C236.331 448.722 236.38 448.767 236.405 448.83L236.216 449.014C236.21 448.979 236.188 448.95 236.161 448.938C236.133 448.925 236.096 448.925 236.055 448.938C236.04 448.944 236.021 448.95 236.006 448.963C235.99 448.976 235.975 448.988 235.963 449.004C235.95 449.02 235.941 449.039 235.932 449.055C235.926 449.074 235.919 449.09 235.919 449.109C235.919 449.169 235.944 449.201 236.009 449.245L236.244 449.419C236.272 449.35 236.29 449.277 236.3 449.21L236.482 449.245C236.463 449.337 236.429 449.432 236.383 449.524L236.522 449.628H236.525ZM236.114 449.628L235.879 449.454C235.879 449.454 235.879 449.454 235.879 449.451C235.851 449.476 235.83 449.508 235.814 449.543C235.799 449.578 235.79 449.613 235.793 449.644C235.793 449.736 235.854 449.774 235.972 449.727C236.025 449.708 236.077 449.673 236.12 449.628H236.114Z" fill="white"/>
<path d="M238.364 448.973L238.822 448.881L238.781 449.109L238.107 449.242L238.324 448.038L238.988 447.905L238.948 448.133L238.497 448.222L238.451 448.479L238.862 448.396L238.822 448.621L238.41 448.704L238.361 448.973H238.364Z" fill="white"/>
<path d="M240.389 447.747L240.596 447.731L240.256 448.95L240.098 448.963L239.854 448.25L239.647 448.995L239.437 449.011L239.777 447.791L239.934 447.778L240.178 448.488L240.386 447.743L240.389 447.747Z" fill="white"/>
<path d="M241.187 448.963L241.313 447.721L241.53 447.737L241.418 448.691L242.018 447.769L242.234 447.785L241.431 448.982L241.187 448.966V448.963Z" fill="white"/>
<path d="M242.888 447.892L243.076 447.93L242.517 449.14L242.328 449.102L242.888 447.892Z" fill="white"/>
<path d="M243.632 449.448L243.676 448.976L243.54 448.931L243.314 449.343L243.138 449.283L243.787 448.098L244.145 448.219C244.186 448.231 244.22 448.253 244.244 448.285C244.269 448.317 244.288 448.358 244.294 448.402C244.303 448.447 244.3 448.497 244.288 448.551C244.275 448.605 244.257 448.659 244.229 448.71C244.189 448.782 244.133 448.849 244.068 448.9C244.003 448.95 243.935 448.985 243.867 448.998L243.821 449.511L243.629 449.448H243.632ZM243.846 448.377L243.654 448.729L243.836 448.789C243.87 448.795 243.914 448.789 243.954 448.76C243.994 448.735 244.031 448.697 244.053 448.653C244.077 448.608 244.087 448.561 244.084 448.523C244.077 448.481 244.059 448.453 244.028 448.437L243.846 448.377Z" fill="white"/>
<path d="M244.686 449.961C244.631 449.933 244.584 449.885 244.554 449.828C244.523 449.771 244.504 449.701 244.501 449.625C244.501 449.549 244.51 449.467 244.538 449.381C244.566 449.299 244.606 449.213 244.659 449.137C244.724 449.039 244.804 448.954 244.894 448.887C244.983 448.821 245.079 448.773 245.172 448.751C245.265 448.729 245.354 448.732 245.428 448.76C245.503 448.789 245.564 448.843 245.601 448.916C245.642 448.988 245.657 449.077 245.651 449.179C245.645 449.277 245.617 449.384 245.564 449.486C245.512 449.587 245.447 449.685 245.363 449.768C245.283 449.85 245.19 449.914 245.095 449.955C245.017 449.99 244.943 450.005 244.872 450.009C244.801 450.009 244.736 449.993 244.68 449.961H244.686ZM244.832 449.742C244.866 449.761 244.906 449.774 244.949 449.774C244.992 449.774 245.039 449.765 245.088 449.742C245.184 449.695 245.277 449.616 245.342 449.514C245.407 449.416 245.444 449.305 245.444 449.204C245.438 449.109 245.397 449.033 245.326 448.995C245.255 448.957 245.166 448.957 245.07 448.995C244.974 449.042 244.881 449.122 244.816 449.223C244.751 449.321 244.714 449.432 244.714 449.533C244.714 449.581 244.727 449.622 244.748 449.66C244.77 449.695 244.798 449.723 244.832 449.739V449.742Z" fill="white"/>
<path d="M247.125 450.012L246.265 451.076L246.129 450.959L246.689 450.268L246.092 450.594L246.077 450.582L246.278 449.92L245.721 450.607L245.582 450.49L246.441 449.426L246.584 449.546L246.376 450.221L246.982 449.888L247.125 450.008V450.012Z" fill="white"/>
<path d="M246.973 451.482L247.224 451.786L247.047 451.973L246.683 451.526L247.622 450.541L247.984 450.984L247.808 451.171L247.564 450.87L247.363 451.079L247.585 451.352L247.409 451.535L247.187 451.26L246.976 451.482H246.973Z" fill="white"/>
<path d="M248.652 452.03L248.745 452.194L247.743 453.091L247.672 452.967L248.077 452.064L247.465 452.613L247.369 452.448L248.371 451.551L248.442 451.675L248.037 452.578L248.646 452.033L248.652 452.03Z" fill="white"/>
<path d="M249.308 453.496L249.11 453.645L249.014 453.395L248.164 454.038L248.093 453.854L248.943 453.211L248.847 452.961L249.045 452.812L249.311 453.496H249.308Z" fill="white"/>
<path d="M248.572 455.435L248.751 455.252L248.652 454.846L248.442 454.909L248.39 454.694L249.558 454.358L249.617 454.605L248.621 455.647L248.569 455.432L248.572 455.435ZM248.869 454.786L248.937 455.061L249.345 454.643L248.869 454.786Z" fill="white"/>
<path d="M248.947 456.36L248.993 456.772L248.786 456.88L248.715 456.256L249.818 455.682L249.843 455.894L248.95 456.36H248.947Z" fill="white"/>
<path d="M249.899 458.584C249.896 458.657 249.877 458.736 249.843 458.815C249.809 458.895 249.766 458.967 249.71 459.037C249.596 459.176 249.451 459.281 249.305 459.329C249.16 459.376 249.024 459.363 248.922 459.297C248.872 459.262 248.838 459.215 248.814 459.154C248.792 459.094 248.783 459.024 248.789 458.948L248.823 458.486L249.93 458.122L249.896 458.584H249.899ZM249.002 458.879C248.996 458.926 249.002 458.967 249.015 459.005C249.027 459.043 249.052 459.072 249.08 459.094C249.141 459.138 249.231 459.142 249.324 459.107C249.37 459.094 249.413 459.072 249.457 459.04C249.5 459.009 249.54 458.971 249.577 458.929C249.611 458.888 249.639 458.841 249.658 458.793C249.676 458.746 249.689 458.698 249.689 458.651L249.704 458.416L249.015 458.641L248.999 458.872L249.002 458.879Z" fill="white"/>
<path d="M248.816 460.434L248.726 460.941L248.522 460.985L248.652 460.244L249.74 460.016L249.614 460.751L249.41 460.795L249.496 460.298L249.264 460.345L249.187 460.798L248.986 460.84L249.063 460.387L248.819 460.437L248.816 460.434Z" fill="white"/>
<path d="M248.615 461.641L248.665 461.838C248.609 461.863 248.557 461.904 248.513 461.958C248.47 462.012 248.439 462.072 248.427 462.132C248.39 462.265 248.421 462.325 248.486 462.316C248.504 462.316 248.523 462.31 248.538 462.297C248.557 462.284 248.572 462.268 248.584 462.249C248.634 462.183 248.674 462.11 248.708 462.037C248.751 461.945 248.807 461.857 248.875 461.777C248.909 461.736 248.952 461.704 248.996 461.682C249.039 461.66 249.082 461.647 249.122 461.644C249.166 461.638 249.206 461.644 249.243 461.66C249.277 461.676 249.305 461.704 249.32 461.739C249.357 461.812 249.36 461.91 249.329 462.015C249.308 462.107 249.261 462.199 249.2 462.278C249.138 462.36 249.061 462.427 248.977 462.471L248.931 462.278C248.977 462.256 249.02 462.221 249.054 462.176C249.091 462.132 249.116 462.081 249.129 462.031C249.153 461.933 249.129 461.872 249.067 461.879C249.051 461.879 249.036 461.885 249.017 461.895C249.002 461.904 248.986 461.917 248.971 461.933C248.928 461.993 248.887 462.056 248.857 462.123L248.81 462.208C248.795 462.237 248.779 462.262 248.764 462.287C248.748 462.316 248.73 462.341 248.711 462.367C248.677 462.414 248.634 462.455 248.588 462.49C248.535 462.525 248.479 462.544 248.427 462.547C248.38 462.553 248.34 462.547 248.306 462.528C248.272 462.509 248.244 462.481 248.229 462.443C248.192 462.357 248.192 462.246 248.229 462.132C248.248 462.031 248.297 461.929 248.368 461.838C248.439 461.746 248.526 461.676 248.618 461.632L248.615 461.641Z" fill="white"/>
<path d="M248.918 463.333L248.835 463.573L247.809 463.558L247.892 463.317L248.918 463.336V463.333Z" fill="white"/>
<path d="M247.519 465.633L247.444 465.62C247.379 465.614 247.324 465.591 247.277 465.553C247.231 465.515 247.197 465.465 247.179 465.401C247.16 465.338 247.157 465.265 247.166 465.189C247.175 465.113 247.2 465.031 247.237 464.955C247.271 464.869 247.321 464.784 247.383 464.708C247.441 464.631 247.512 464.565 247.587 464.511C247.658 464.457 247.735 464.419 247.812 464.397C247.886 464.375 247.961 464.369 248.029 464.381C248.137 464.397 248.227 464.457 248.276 464.552C248.329 464.647 248.344 464.771 248.316 464.907C248.291 465.043 248.227 465.183 248.134 465.303C248.041 465.427 247.924 465.525 247.8 465.588L247.794 465.37C247.852 465.341 247.908 465.297 247.958 465.243C248.007 465.189 248.047 465.126 248.072 465.062C248.097 465.008 248.112 464.958 248.118 464.904C248.125 464.853 248.118 464.806 248.106 464.765C248.075 464.682 248.01 464.631 247.924 464.619C247.837 464.606 247.738 464.635 247.645 464.698C247.599 464.733 247.553 464.777 247.516 464.828C247.478 464.879 247.448 464.932 247.426 464.986C247.386 465.062 247.367 465.142 247.373 465.211C247.379 465.281 247.407 465.335 247.457 465.37L247.618 465.002L247.788 465.027L247.522 465.636L247.519 465.633Z" fill="white"/>
<path d="M247.149 467.27L247.023 467.505L246.123 467.204L246.219 467.026L247.047 466.703L246.497 466.52L246.624 466.285L247.523 466.586L247.428 466.764L246.599 467.087L247.149 467.27Z" fill="white"/>
<path d="M228.095 463.548L226.948 464.011V470.03L230.312 468.671V467.536L228.095 468.433V463.548Z" fill="white"/>
<path d="M232.108 465.458L234.309 464.568V463.45L232.108 464.34V463.06L234.516 462.085V460.95L230.961 462.389V468.408L234.556 466.954V465.82L232.105 466.811V465.462L232.108 465.458Z" fill="white"/>
<path d="M236.513 463.678L238.714 462.788V461.67L236.513 462.56V461.28L238.921 460.304V459.17L235.366 460.608V466.627L238.961 465.173V464.039L236.51 465.031V463.681L236.513 463.678Z" fill="white"/>
<path d="M239.771 458.825V464.844L242.08 463.909C242.877 463.586 243.542 463.025 244.074 462.233C244.615 461.438 244.88 460.618 244.88 459.766C244.88 458.913 244.615 458.308 244.074 457.95C243.542 457.589 242.877 457.567 242.08 457.887L239.771 458.822V458.825ZM240.917 463.244V459.496L242.08 459.028C242.587 458.822 242.995 458.831 243.31 459.056C243.625 459.271 243.783 459.655 243.783 460.216C243.783 460.776 243.625 461.286 243.31 461.765C242.995 462.237 242.587 462.572 242.08 462.778L240.917 463.247V463.244Z" fill="white"/>
<path d="M261.842 468.457L260.136 467.319V435.359L291.421 422.951L293.128 424.089L261.842 468.457Z" fill="#006058"/>
<path d="M293.127 456.049L261.842 468.457V436.497L293.127 424.089V456.049Z" fill="#00C8B5"/>
<path d="M291.421 455.098L263.549 466.182V459.908L291.421 448.824V455.098Z" fill="#00A999"/>
<path d="M277.485 434.498C283.214 432.215 288.301 433.043 291.421 436.148V426.364L263.549 437.448V447.232C266.669 441.641 271.756 436.781 277.485 434.498Z" fill="#00A999"/>
<path d="M277.485 435.189C271.683 437.497 266.555 442.519 263.549 448.239V459.218L291.421 448.134V437.155C288.415 433.824 283.287 432.881 277.485 435.189Z" fill="#00A999"/>
<path d="M277.485 435.189C283.287 432.881 288.415 433.832 291.421 437.155V436.148C288.301 433.035 283.214 432.215 277.485 434.498C271.756 436.781 266.669 441.641 263.549 447.232V448.239C266.555 442.518 271.683 437.497 277.485 435.189Z" fill="white"/>
<path d="M266.296 451.165C266.239 451.303 266.19 451.433 266.158 451.547C265.036 452.327 264.289 452.327 264.24 452.327C264.126 452.327 263.996 452.424 263.955 452.554C263.907 452.685 263.955 452.798 264.069 452.798C264.126 452.798 264.898 452.815 266.06 452.067C266.06 452.083 266.06 452.099 266.06 452.116C266.06 452.441 266.198 452.611 266.377 452.66C266.881 452.79 267.986 452.067 269.595 449.775C269.489 450.117 269.4 450.482 269.335 450.84C269.335 450.856 269.335 450.872 269.335 450.881C269.335 450.97 269.392 451.035 269.473 451.035C269.644 451.035 269.749 450.856 269.831 450.685L270.05 450.263C270.245 449.897 270.676 449.06 270.968 448.605C270.936 448.808 270.895 449.036 270.895 449.239C270.895 449.515 270.96 449.735 271.179 449.775C271.366 449.808 271.659 449.727 272.301 449.093C272.358 449.223 272.463 449.247 272.52 449.255C272.927 449.28 273.699 448.565 274.503 447.476C274.397 447.76 274.308 448.004 274.292 448.093C274.292 448.118 274.292 448.142 274.292 448.166C274.292 448.272 274.357 448.321 274.422 448.321C274.601 448.321 274.706 448.126 274.796 447.963L275.039 447.516C275.243 447.143 275.714 446.249 275.99 445.85C276.071 446.021 276.218 446.216 276.478 446.257C276.405 446.46 276.364 446.622 276.364 446.752C276.364 446.907 276.421 447.004 276.535 447.029C276.738 447.086 277.055 446.882 277.38 446.574C276.34 448.028 275.86 449.255 275.844 449.727V449.751C275.844 450.011 275.966 450.06 276.047 450.068C276.201 450.084 276.396 449.962 276.624 449.694C277.412 448.751 277.981 447.037 278.274 446.013C278.664 445.534 279.127 445.038 279.647 444.542C279.476 444.908 279.379 445.233 279.379 445.469C279.379 445.55 279.387 445.623 279.419 445.68C279.484 445.818 279.606 445.867 279.777 445.818C280.143 445.712 280.638 445.135 281.231 444.16C281.183 444.331 281.134 444.485 281.085 444.648C279.444 446.598 278.704 448.288 278.615 449.077C278.615 449.142 278.607 449.198 278.607 449.255C278.607 449.556 278.729 449.645 278.834 449.67C278.956 449.694 279.176 449.645 279.484 449.28C279.834 448.873 280.663 447.24 281.459 444.77C282.524 443.526 283.986 442.153 285.92 440.845C286.018 440.78 286.083 440.666 286.083 440.568C286.083 440.552 286.083 440.528 286.083 440.512C286.05 440.406 285.928 440.39 285.806 440.463C284.116 441.609 282.767 442.803 281.719 443.933C281.841 443.51 281.971 443.063 282.085 442.6C282.085 442.576 282.085 442.559 282.085 442.535C282.085 442.446 282.036 442.389 281.955 442.381C281.857 442.381 281.735 442.462 281.678 442.576C280.581 444.737 279.964 445.298 279.826 445.347C279.826 445.339 279.809 445.314 279.809 445.282C279.809 445.087 279.98 444.526 280.516 443.73C280.557 443.673 280.573 443.608 280.573 443.551C280.573 443.51 280.557 443.47 280.533 443.445C280.476 443.38 280.362 443.396 280.264 443.47C279.574 444.038 278.981 444.623 278.46 445.2V445.152C278.46 445.152 278.477 445.111 278.477 445.095C278.477 445.013 278.428 444.957 278.355 444.948H278.347C278.501 444.77 278.655 444.575 278.818 444.355C278.989 444.128 279.037 443.965 279.037 443.851C279.037 443.803 279.037 443.77 279.021 443.738C278.972 443.6 278.826 443.551 278.631 443.608C278.144 443.746 277.38 444.461 276.689 445.761C276.453 445.729 276.364 445.452 276.323 445.33L276.307 445.282C276.283 445.2 276.193 445.176 276.096 445.217C275.949 445.282 275.787 445.444 275.535 445.842C275.535 445.842 275.535 445.826 275.543 445.818C275.559 445.785 275.559 445.745 275.559 445.712C275.559 445.639 275.519 445.582 275.454 445.566C275.356 445.55 275.234 445.623 275.161 445.737C273.934 447.882 272.862 448.768 272.699 448.751C272.699 448.751 272.699 448.735 272.699 448.711C272.699 448.695 272.699 448.662 272.699 448.63C272.975 448.321 273.292 447.939 273.682 447.451C274.04 446.996 274.121 446.72 274.121 446.549C274.121 446.476 274.105 446.427 274.089 446.395C274.015 446.257 273.845 446.224 273.625 446.33C273.17 446.549 272.602 447.313 272.317 448.516C271.61 449.288 271.415 449.288 271.391 449.28C271.293 449.263 271.301 448.955 271.415 448.361C271.464 448.101 271.488 447.979 271.431 447.898C271.374 447.817 271.285 447.801 271.179 447.833C270.952 447.914 270.684 448.264 270.147 449.247C270.359 448.646 270.57 448.207 270.578 448.199C270.603 448.15 270.611 448.11 270.611 448.069C270.611 447.996 270.578 447.947 270.521 447.923C270.432 447.89 270.302 447.963 270.229 448.085C268.295 451.23 266.986 452.246 266.613 452.148C266.531 452.124 266.491 452.043 266.491 451.904C266.491 451.848 266.499 451.783 266.515 451.709C267.238 451.165 268.075 450.336 268.961 449.068C269.481 448.321 269.766 447.703 269.766 447.321C269.766 447.232 269.749 447.159 269.725 447.102C269.652 446.931 269.465 446.882 269.237 446.964C268.547 447.208 267.368 448.589 266.304 451.124L266.296 451.165ZM269.213 447.468C269.294 447.443 269.31 447.468 269.31 447.476C269.31 447.492 269.319 447.516 269.319 447.549C269.319 447.744 269.148 448.207 268.636 448.938C267.953 449.914 267.303 450.612 266.726 451.108C267.742 448.735 268.782 447.614 269.205 447.468H269.213ZM273.544 446.907C273.617 446.842 273.666 446.809 273.699 446.801C273.69 446.858 273.634 447.004 273.414 447.281C273.252 447.484 273.105 447.663 272.975 447.833C273.195 447.273 273.455 446.996 273.544 446.907ZM278.42 444.209C278.501 444.16 278.558 444.136 278.59 444.128C278.582 444.144 278.566 444.168 278.542 444.201C278.038 444.875 277.591 445.347 277.242 445.607C277.794 444.672 278.274 444.306 278.42 444.209ZM277.753 445.655C277.331 446.208 276.941 446.533 276.803 446.59C276.803 446.549 276.819 446.444 276.908 446.232C277.16 446.143 277.437 445.956 277.753 445.664V445.655ZM277.583 446.947C277.282 447.841 276.86 448.873 276.348 449.491C276.323 449.523 276.299 449.548 276.283 449.564C276.307 449.231 276.697 448.223 277.583 446.947ZM279.029 449.117C279.029 449.02 279.054 448.841 279.135 448.573C279.338 447.914 279.842 446.891 280.736 445.688C280.061 447.581 279.436 448.792 279.2 449.068C279.127 449.158 279.07 449.198 279.046 449.223C279.046 449.207 279.029 449.174 279.029 449.117Z" fill="white"/>
<path d="M285.326 436.115C285.188 436.172 285.066 436.302 285.017 436.448C285.017 436.448 283.815 440.04 283.676 440.454C283.295 440.625 279.995 442.112 279.995 442.112C279.817 442.193 279.687 442.388 279.687 442.567V442.583C279.695 442.762 279.849 442.844 280.036 442.762L283.928 441.007C284.058 440.95 284.172 440.82 284.221 440.682C284.221 440.682 284.96 438.488 285.334 437.358C285.708 438.179 286.447 439.788 286.447 439.788C286.496 439.886 286.61 439.926 286.732 439.886C286.732 439.886 288.739 439.203 289.771 438.854C288.983 439.829 287.431 441.747 287.431 441.747C287.358 441.844 287.309 441.95 287.309 442.047C287.309 442.072 287.309 442.104 287.317 442.128C287.317 442.128 287.813 443.892 288.073 444.794C287.211 444.574 285.521 444.152 285.521 444.152C285.415 444.127 285.277 444.176 285.164 444.29C285.164 444.29 283.465 446.061 282.579 446.972C282.848 445.891 283.335 443.941 283.335 443.941C283.335 443.908 283.343 443.876 283.343 443.851C283.343 443.705 283.246 443.607 283.099 443.632C282.929 443.648 282.742 443.827 282.693 444.022L281.718 447.971C281.686 448.117 281.726 448.239 281.84 448.28C281.946 448.321 282.1 448.264 282.214 448.142C282.214 448.142 285.025 445.224 285.342 444.891C285.659 444.973 288.422 445.663 288.422 445.663C288.536 445.688 288.682 445.631 288.796 445.509C288.885 445.411 288.934 445.289 288.934 445.184C288.934 445.159 288.934 445.127 288.926 445.103C288.926 445.103 288.105 442.21 288.016 441.885C288.3 441.527 290.844 438.399 290.844 438.399C290.917 438.301 290.966 438.195 290.966 438.098C290.966 438.065 290.966 438.033 290.949 438C290.909 437.887 290.795 437.846 290.657 437.887C290.657 437.887 287.374 439 287 439.13C286.862 438.829 285.659 436.204 285.659 436.204C285.61 436.099 285.489 436.058 285.35 436.115H285.326Z" fill="white"/>
<path d="M264.751 464.321V460.81L266.547 460.095V460.485L265.198 461.022V462.151L266.449 461.655V462.045L265.198 462.541V463.752L266.579 463.199V463.589L264.751 464.313V464.321Z" fill="white"/>
<path d="M269.522 458.917V462.428L268.912 462.671L267.539 460.177H267.531V463.224L267.133 463.378V459.868L267.759 459.616L269.116 462.078V459.071L269.514 458.909L269.522 458.917Z" fill="white"/>
<path d="M270.139 462.184V458.673L271.935 457.958V458.348L270.586 458.885V460.014L271.845 459.518V459.909L270.586 460.404V461.615L271.967 461.062V461.452L270.139 462.184Z" fill="white"/>
<path d="M272.942 457.95L273.617 457.682C273.958 457.544 274.088 457.779 274.088 458.031C274.088 458.34 273.933 458.673 273.617 458.803L272.95 459.072V457.958L272.942 457.95ZM273.462 459.25C273.608 459.193 273.958 459.072 273.99 459.486C274.031 459.941 273.998 460.404 274.128 460.599L274.592 460.412C274.519 460.225 274.478 459.689 274.47 459.543C274.445 458.844 274.299 458.771 273.901 458.868C274.315 458.625 274.535 458.218 274.535 457.804C274.535 457.365 274.315 457.016 273.698 457.259L272.495 457.739V461.249L272.942 461.071V459.453L273.462 459.25Z" fill="white"/>
<path d="M276.688 457.008C276.688 456.593 276.517 456.439 276.07 456.618C275.932 456.674 275.428 456.894 275.428 457.633V458.82C275.428 459.584 275.648 459.697 276.07 459.527C276.387 459.397 276.599 459.226 276.696 459.12V458.072L276.054 458.332V457.942L277.143 457.511V459.218C276.859 459.486 276.525 459.73 276.078 459.909C275.339 460.201 274.981 459.957 274.981 458.99V457.836C274.981 457.138 275.339 456.544 276.078 456.252C276.818 455.959 277.192 456.089 277.159 456.829L276.696 457.016L276.688 457.008Z" fill="white"/>
<path d="M279.264 455.041L279.711 454.862L278.76 457.414V458.754L278.313 458.933V457.592L277.379 455.797L277.875 455.602L278.557 457.024L279.264 455.049V455.041Z" fill="white"/>
<path d="M281.207 456.731V456.829C281.207 457.308 281.507 457.341 281.792 457.227C282.149 457.089 282.417 456.829 282.417 456.406C282.417 455.626 280.857 456.341 280.857 455.285C280.857 454.659 281.296 454.155 281.881 453.928C282.515 453.676 282.872 453.838 282.848 454.57L282.385 454.757C282.385 454.375 282.271 454.163 281.849 454.334C281.58 454.44 281.312 454.683 281.312 455.065C281.312 455.837 282.872 455.106 282.872 456.219C282.872 456.959 282.369 457.398 281.792 457.625C280.76 458.04 280.76 457.251 280.776 456.91L281.215 456.731H281.207Z" fill="white"/>
<path d="M285.351 452.619V453.009L284.433 453.375V456.496L283.986 456.674V453.554L283.067 453.92V453.53L285.343 452.619H285.351Z" fill="white"/>
<path d="M286.919 454.285L285.806 454.732L286.351 452.644H286.359L286.919 454.285ZM284.985 456.276L285.432 456.097L285.692 455.155L287.041 454.618L287.293 455.35L287.789 455.155L286.659 452.099L286.099 452.327L284.993 456.276H284.985Z" fill="white"/>
<path d="M288.577 451.734L289.251 451.465C289.593 451.327 289.723 451.563 289.723 451.815C289.723 452.124 289.568 452.457 289.251 452.587L288.585 452.855V451.742L288.577 451.734ZM289.097 453.034C289.243 452.977 289.593 452.855 289.625 453.269C289.666 453.724 289.633 454.188 289.763 454.383L290.226 454.196C290.161 454.009 290.113 453.473 290.105 453.326C290.08 452.627 289.934 452.554 289.536 452.652C289.942 452.408 290.17 452.002 290.17 451.587C290.17 451.148 289.95 450.799 289.333 451.043L288.13 451.522V455.033L288.577 454.854V453.237L289.097 453.034Z" fill="white"/>
<path d="M180.725 501.613L179.019 500.475V468.515L210.304 456.107L212.011 457.245L180.725 501.613Z" fill="#006058"/>
<path d="M212.01 489.205L180.725 501.613V469.653L212.01 457.245V489.205Z" fill="#00C8B5"/>
<path d="M182.432 470.604V499.338L210.304 488.254V459.52L182.432 470.604Z" fill="#00A999"/>
<path d="M197.822 471.652L199.033 467.492C199.902 467.435 200.715 467.532 201.438 467.776C201.146 468.288 199.732 470.75 199.13 471.807L197.814 471.652H197.822ZM193.011 473.375C192.036 472.424 191.468 471.863 191.297 471.701C190.566 472.514 189.924 473.399 189.387 474.326C190.427 474.675 191.752 475.106 191.752 475.106L193.011 473.367V473.375ZM195.392 472.473C195.392 472.473 194.945 470.571 194.58 468.995C193.678 469.531 192.833 470.189 192.061 470.929L194.019 473.529L195.392 472.473ZM197.765 469.613C197.765 469.613 197.977 468.548 198.163 467.605C197.586 467.711 196.985 467.874 196.368 468.117C196.067 468.231 195.758 468.369 195.466 468.515L195.669 470.328L197.765 469.621V469.613ZM189.68 475.415C189.68 475.415 189.444 475.374 188.892 475.268C188.445 476.203 188.111 477.17 187.925 478.137C188.038 478.121 188.29 478.072 188.818 477.982L189.68 475.415ZM191.183 478.112L187.778 479.071C187.746 479.38 187.729 479.681 187.729 479.981C187.729 480.591 187.795 481.16 187.916 481.688C189.615 480.672 191.264 479.689 191.264 479.689L191.183 478.112ZM192.361 479.486C192.361 479.486 189.013 481.85 188.152 482.468C188.436 483.216 188.851 483.858 189.379 484.37C189.85 483.849 192.369 481.062 192.955 480.412L192.353 479.486H192.361ZM203.047 470.246C203.047 470.246 203.202 470.1 203.835 469.491C203.38 468.889 202.803 468.41 202.137 468.077C202.04 468.223 201.828 468.54 201.528 468.979L203.047 470.246ZM200.049 474.846C201.219 474.269 204.372 472.725 204.949 472.44C204.851 471.571 204.616 470.791 204.25 470.124L199.748 473.846L200.049 474.838V474.846ZM202.275 476.268C202.275 476.268 203.624 476.178 204.575 476.122C204.843 475.187 204.997 474.244 204.997 473.318L202.584 474.253L202.283 476.268H202.275ZM200.236 478.6C200.236 478.6 201.666 479.323 202.771 479.876C203.372 478.982 203.868 478.031 204.242 477.064C203.974 477.048 203.015 476.999 201.121 476.894L200.236 478.592V478.6ZM198.683 480.916C198.683 480.916 199.122 481.729 199.87 483.094C200.699 482.403 201.463 481.615 202.129 480.762C201.885 480.583 200.959 479.925 200.179 479.372L198.683 480.916ZM196.359 481.314V485.19C197.294 484.833 198.188 484.337 199.025 483.744L197.814 480.526L196.359 481.314ZM194.645 481.119C194.645 481.119 193.467 484.183 192.849 485.808C193.662 485.848 194.539 485.751 195.457 485.491C195.514 484.914 195.823 481.891 195.921 480.965L194.653 481.119H194.645ZM192.483 481.599C192.483 481.599 191.638 482.671 189.948 484.841C190.549 485.272 191.256 485.564 192.044 485.71C192.272 485.231 193.312 483.053 193.751 482.119L192.483 481.59V481.599ZM190.167 491.033C189.899 491.057 189.631 491.122 189.355 491.228C188.867 491.415 188.485 491.716 188.193 492.122C187.908 492.528 187.762 492.967 187.762 493.43C187.762 493.893 187.9 494.202 188.168 494.357C188.436 494.511 188.802 494.503 189.249 494.332C189.412 494.267 189.582 494.194 189.745 494.096C189.915 494.007 190.07 493.901 190.216 493.788V492.422L189.932 492.536V493.723C189.729 493.869 189.509 493.983 189.29 494.064C188.916 494.21 188.615 494.21 188.396 494.064C188.176 493.926 188.063 493.65 188.063 493.251C188.063 492.853 188.185 492.463 188.428 492.146C188.672 491.829 188.965 491.602 189.314 491.464C189.582 491.358 189.85 491.309 190.119 491.309L190.159 491.025L190.167 491.033ZM194.027 492.439L193.085 491.699L192.816 491.504C193.117 491.39 193.361 491.22 193.556 490.992C193.751 490.773 193.84 490.521 193.84 490.253C193.84 489.985 193.751 489.838 193.58 489.79C193.402 489.741 193.166 489.773 192.865 489.895C192.76 489.936 192.654 489.985 192.548 490.025C192.443 490.066 192.321 490.115 192.191 490.163V493.154L192.475 493.04L192.491 491.626L193.653 492.585L194.035 492.439H194.027ZM193.353 490.058C193.475 490.09 193.54 490.212 193.54 490.415C193.54 490.594 193.475 490.757 193.337 490.919C193.198 491.082 193.011 491.204 192.768 491.301L192.475 491.407V490.285L192.784 490.155C193.036 490.058 193.231 490.025 193.353 490.066V490.058ZM197.481 491.106V490.87L196.278 491.334V490.139L197.424 489.7V489.473L196.278 489.912V488.806L197.481 488.343V488.116L195.994 488.693V491.683L197.481 491.106ZM200.886 489.578C201.081 489.343 201.178 489.091 201.178 488.823C201.178 488.554 201.056 488.4 200.804 488.351C200.577 488.343 200.341 488.327 200.097 488.303C199.854 488.286 199.74 488.173 199.74 487.986C199.74 487.815 199.797 487.661 199.927 487.514C200.049 487.368 200.227 487.254 200.455 487.165C200.642 487.092 200.821 487.051 200.999 487.035L201.016 486.759C200.902 486.783 200.813 486.799 200.739 486.824C200.666 486.848 200.577 486.872 200.479 486.913C200.162 487.035 199.911 487.206 199.732 487.433C199.553 487.652 199.464 487.88 199.464 488.124C199.464 488.384 199.585 488.546 199.837 488.595C200.065 488.611 200.301 488.619 200.528 488.636C200.78 488.66 200.902 488.774 200.902 488.977C200.902 489.18 200.837 489.359 200.691 489.513C200.552 489.66 200.366 489.782 200.146 489.871C200.041 489.912 199.935 489.944 199.837 489.96C199.732 489.977 199.634 489.993 199.529 489.993L199.512 490.285C199.683 490.269 199.886 490.212 200.122 490.123C200.455 489.993 200.715 489.814 200.91 489.578H200.886ZM204.721 488.026C204.884 487.774 204.965 487.539 204.965 487.327C204.965 487.149 204.908 487.019 204.802 486.929C204.697 486.84 204.526 486.824 204.307 486.88C204.486 486.759 204.632 486.612 204.737 486.442C204.843 486.271 204.9 486.1 204.9 485.93C204.9 485.71 204.819 485.572 204.664 485.507C204.51 485.442 204.266 485.475 203.949 485.597L203.153 485.913V488.904L203.844 488.644C204.274 488.481 204.567 488.27 204.729 488.018L204.721 488.026ZM204.445 485.767C204.551 485.816 204.599 485.93 204.599 486.092C204.599 486.279 204.526 486.458 204.372 486.612C204.225 486.775 204.006 486.905 203.73 487.019L203.429 487.132V486.019L203.892 485.84C204.16 485.735 204.339 485.71 204.445 485.759V485.767ZM204.421 487.1C204.591 487.124 204.672 487.238 204.672 487.449C204.672 487.644 204.607 487.823 204.469 487.994C204.331 488.164 204.136 488.303 203.86 488.408C203.762 488.449 203.681 488.473 203.608 488.498C203.535 488.522 203.478 488.538 203.429 488.546V487.352L203.73 487.238C204.022 487.124 204.25 487.084 204.421 487.1Z" fill="white"/>
<path d="M295.562 441.214L343.563 441.214" stroke="#BECFD2" stroke-width="1.5"/>
<path d="M294.562 439.032C294.562 438.306 295.153 437.717 295.881 437.717L299.244 437.717C299.972 437.717 300.562 438.306 300.562 439.032L300.562 442.402C300.562 443.128 299.972 443.717 299.244 443.717L294.563 443.717L294.562 439.032Z" fill="#BECFD2"/>
<path d="M194.467 465.97L194.467 262.819C194.467 261.238 195.748 259.957 197.329 259.957H352.467" stroke="#BECFD2" stroke-width="1.5"/>
<path d="M191.467 461.285C191.467 460.559 192.057 459.97 192.785 459.97L196.148 459.97C196.876 459.97 197.467 460.559 197.467 461.285L197.467 464.655C197.467 465.381 196.876 465.97 196.148 465.97L191.467 465.97L191.467 461.285Z" fill="#BECFD2"/>
<path d="M236.591 445.704L236.592 358.95C236.592 357.369 237.873 356.088 239.454 356.088L349.413 356.088" stroke="#BECFD2" stroke-width="1.5"/>
<path d="M233.591 441.019C233.591 440.293 234.181 439.704 234.91 439.704L238.272 439.704C239 439.704 239.591 440.293 239.591 441.019L239.591 444.389C239.591 445.115 239 445.704 238.272 445.704L233.591 445.704L233.591 441.019Z" fill="#BECFD2"/>
</svg>
