<svg width="360" height="545" viewBox="0 0 360 545" fill="none" xmlns="http://www.w3.org/2000/svg">
<path fill-rule="evenodd" clip-rule="evenodd" d="M28.5176 52.3488L164.658 105.163L300.797 52.5867L164.3 0L28.5176 52.3488Z" fill="#88CCCA"/>
<path fill-rule="evenodd" clip-rule="evenodd" d="M0 479.404L167.281 544.299L334.561 479.697L166.842 415.081L0 479.404Z" fill="#EFEFEF"/>
<path fill-rule="evenodd" clip-rule="evenodd" d="M28.5156 467.383L164.656 520.197L300.795 467.62L164.298 415.034L28.5156 467.383Z" fill="#88CCCA"/>
<path d="M181.223 47.0866L205.385 37.5208V471.217L181.223 480.978L181.223 47.0866Z" fill="#D5F2F1"/>
<path d="M181.221 45.8477V480.784L158.298 471.642L158.298 37.9448L181.221 45.8477Z" fill="#67AFAD"/>
<path d="M158.298 38.0528L182.411 28.4998L205.384 37.5336L181.221 47.0865L158.298 38.0528Z" fill="white"/>
<path d="M146.526 60.717L170.689 51.1511V484.51L146.526 494.271V60.717Z" fill="#D5F2F1"/>
<path d="M146.527 60.6119L146.526 493.955L123.603 484.813L123.603 51.8442L146.527 60.6119Z" fill="#67AFAD"/>
<path d="M123.603 51.6831L147.716 42.1301L170.689 51.164L146.526 60.7168L123.603 51.6831Z" fill="white"/>
<path fill-rule="evenodd" clip-rule="evenodd" d="M28.5156 232.278L164.656 285.092L300.795 232.515L164.298 179.929L28.5156 232.278Z" fill="#88CCCA"/>
<path fill-rule="evenodd" clip-rule="evenodd" d="M28.5156 230.753L164.656 283.567L300.795 230.99L164.298 178.404L28.5156 230.753Z" fill="#88CCCA"/>
<path d="M300.751 231.01V232.535L164.661 285.141V282.854L300.751 231.01Z" fill="#4C516A"/>
<path d="M28.5117 232.276L28.5118 230.754L31.7883 231.709L31.4356 233.38L28.5117 232.276Z" fill="#88CCCA"/>
<path d="M30.4936 256.656L31.6214 258.076V258.612L28.5244 257.445V255.903L30.4936 256.656Z" fill="#88CCCA"/>
<path d="M181.222 162.96L205.384 161.132V235.573L181.222 245.03V162.96Z" fill="#D5F2F1"/>
<path d="M181.221 162.724V244.911L158.298 236.172V161.213L181.221 162.724Z" fill="#67AFAD"/>
<path d="M146.526 160.785L170.689 158.845V249.055L146.526 258.697L146.526 160.785Z" fill="#D5F2F1"/>
<path d="M146.527 165.547V258.697L123.603 249.288V163.87L146.527 165.547Z" fill="#67AFAD"/>
<path fill-rule="evenodd" clip-rule="evenodd" d="M203.638 62.4867L300.797 51.0115V231.466L203.638 195.577V62.4867Z" fill="white"/>
<path fill-rule="evenodd" clip-rule="evenodd" d="M300.797 257.6L164.517 310.337L164.177 520.394L300.782 467.818L300.797 257.6Z" fill="#EEFFFE"/>
<path fill-rule="evenodd" clip-rule="evenodd" d="M293.128 271.673L172.444 318.446V332.379L293.128 285.719V271.673Z" fill="#D5F2F1"/>
<path fill-rule="evenodd" clip-rule="evenodd" d="M293.128 383.156L172.444 429.93V443.863L293.128 397.203V383.156Z" fill="#D5F2F1"/>
<path fill-rule="evenodd" clip-rule="evenodd" d="M293.128 327.415L172.444 374.188V388.121L293.128 341.461V327.415Z" fill="#D5F2F1"/>
<path fill-rule="evenodd" clip-rule="evenodd" d="M293.128 438.907L172.444 485.681V499.613L293.128 452.954V438.907Z" fill="#D5F2F1"/>
<path fill-rule="evenodd" clip-rule="evenodd" d="M293.128 299.55L172.444 346.323V360.256L293.128 313.596V299.55Z" fill="#D5F2F1"/>
<path fill-rule="evenodd" clip-rule="evenodd" d="M293.128 411.031L172.444 457.805V471.738L293.128 425.078V411.031Z" fill="#D5F2F1"/>
<path fill-rule="evenodd" clip-rule="evenodd" d="M293.128 355.29L172.444 402.063V415.996L293.128 369.336V355.29Z" fill="#D5F2F1"/>
<path fill-rule="evenodd" clip-rule="evenodd" d="M28.1914 257.302L164.811 310.362V520.725L28.1914 468.149V257.302Z" fill="#D5F2F1"/>
<path fill-rule="evenodd" clip-rule="evenodd" d="M33.999 271.673L154.685 318.446V332.379L33.999 285.719V271.673Z" fill="#B9E0DF"/>
<path fill-rule="evenodd" clip-rule="evenodd" d="M33.999 383.156L154.685 429.93V443.862L33.999 397.203V383.156Z" fill="#B9E0DF"/>
<path fill-rule="evenodd" clip-rule="evenodd" d="M33.999 327.414L154.685 374.188V388.121L33.999 341.461V327.414Z" fill="#B9E0DF"/>
<path fill-rule="evenodd" clip-rule="evenodd" d="M33.998 438.907L154.684 485.68V499.613L33.998 452.953V438.907Z" fill="#B9E0DF"/>
<path fill-rule="evenodd" clip-rule="evenodd" d="M33.999 299.549L154.685 346.323V360.256L33.999 313.596V299.549Z" fill="#B9E0DF"/>
<path fill-rule="evenodd" clip-rule="evenodd" d="M33.999 411.031L154.685 457.805V471.738L33.999 425.078V411.031Z" fill="#B9E0DF"/>
<path fill-rule="evenodd" clip-rule="evenodd" d="M33.999 355.289L154.685 402.063V415.996L33.999 369.336V355.289Z" fill="#B9E0DF"/>
<path d="M270.59 244.352C268.457 243.285 289.4 236.205 300.139 232.799V256.127C291.178 252.646 272.723 245.418 270.59 244.352Z" fill="white"/>
<path fill-rule="evenodd" clip-rule="evenodd" d="M28.5245 52.3479L164.458 105.153L164.822 310.373L28.1914 257.194L28.5245 52.3479Z" fill="#D5F2F1"/>
<path fill-rule="evenodd" clip-rule="evenodd" d="M240.154 58.1397L285.322 75.4171V89.3497L240.154 72.1862V58.1397Z" fill="#B9E0DF"/>
<path fill-rule="evenodd" clip-rule="evenodd" d="M203.484 155.045L285.322 186.901V200.834L203.484 169.091V155.045Z" fill="#B9E0DF"/>
<path fill-rule="evenodd" clip-rule="evenodd" d="M202.544 98.0017L285.322 131.159V145.091L202.544 112.048V98.0017Z" fill="#B9E0DF"/>
<path fill-rule="evenodd" clip-rule="evenodd" d="M203.798 72.9282L285.323 103.294V117.227L203.798 86.9748V72.9282Z" fill="#B9E0DF"/>
<path fill-rule="evenodd" clip-rule="evenodd" d="M202.993 181.718L285.323 214.776V228.709L202.993 195.764V181.718Z" fill="#B9E0DF"/>
<path fill-rule="evenodd" clip-rule="evenodd" d="M202.23 125.583L285.322 159.034V172.967L202.23 139.63V125.583Z" fill="#B9E0DF"/>
<path fill-rule="evenodd" clip-rule="evenodd" d="M300.796 52.3479L164.517 105.162L164.697 310.3L300.796 258.374V52.3479Z" fill="#EEFFFE"/>
<path fill-rule="evenodd" clip-rule="evenodd" d="M293.128 72.5493L172.444 119.323V133.256L293.128 86.5959V72.5493Z" fill="#D5F2F1"/>
<path fill-rule="evenodd" clip-rule="evenodd" d="M293.128 184.033L172.444 230.806V244.739L293.128 198.079V184.033Z" fill="#D5F2F1"/>
<path fill-rule="evenodd" clip-rule="evenodd" d="M293.128 128.291L172.444 175.064V188.997L293.128 142.337V128.291Z" fill="#D5F2F1"/>
<path fill-rule="evenodd" clip-rule="evenodd" d="M293.128 100.426L172.444 147.2V161.132L293.128 114.473V100.426Z" fill="#D5F2F1"/>
<path fill-rule="evenodd" clip-rule="evenodd" d="M293.128 211.908L172.444 258.682V272.614L293.128 225.955V211.908Z" fill="#D5F2F1"/>
<path fill-rule="evenodd" clip-rule="evenodd" d="M293.128 239.783L172.444 286.557V300.49L293.128 253.83V239.783Z" fill="#D5F2F1"/>
<path fill-rule="evenodd" clip-rule="evenodd" d="M293.128 156.166L172.444 202.94V216.873L293.128 170.213V156.166Z" fill="#D5F2F1"/>
<path fill-rule="evenodd" clip-rule="evenodd" d="M33.999 72.5488L154.685 119.322V133.255L33.999 86.5954V72.5488Z" fill="#B9E0DF"/>
<path fill-rule="evenodd" clip-rule="evenodd" d="M33.999 184.032L154.685 230.806V244.739L33.999 198.079V184.032Z" fill="#B9E0DF"/>
<path fill-rule="evenodd" clip-rule="evenodd" d="M33.999 128.291L154.685 175.064V188.997L33.999 142.337V128.291Z" fill="#B9E0DF"/>
<path fill-rule="evenodd" clip-rule="evenodd" d="M33.999 239.783L154.685 286.557V300.489L33.999 253.83V239.783Z" fill="#B9E0DF"/>
<path fill-rule="evenodd" clip-rule="evenodd" d="M33.999 100.426L154.685 147.199V161.132L33.999 114.472V100.426Z" fill="#B9E0DF"/>
<path fill-rule="evenodd" clip-rule="evenodd" d="M33.999 211.908L154.685 258.681V272.614L33.999 225.954V211.908Z" fill="#B9E0DF"/>
<path fill-rule="evenodd" clip-rule="evenodd" d="M33.999 156.166L154.685 202.939V216.872L33.999 170.212V156.166Z" fill="#B9E0DF"/>
<path fill-rule="evenodd" clip-rule="evenodd" d="M28.5 52.5L164.5 105.5L183 98L47.5 45L28.5 52.5Z" fill="#88CCCA"/>
<path fill-rule="evenodd" clip-rule="evenodd" d="M128.229 90.8467L164.5 105.5L300.5 52.5L264.5 38.5L128.229 90.8467Z" fill="#88CCCA"/>
<g clip-path="url(#clip0_1015_6314)">
<path d="M243 451.02L257.07 446L262.22 447.7L248.15 452.72L243 451.02Z" fill="#429A97"/>
<path d="M248.15 452.7L262.22 447.68V472.2L248.15 477.22V452.7Z" fill="#00C8B5"/>
<path d="M243 451.02L248.15 452.7V477.24L243 475.22V451.02Z" fill="#006058"/>
<path d="M262.1 456.4L258.79 455.14C257.97 454.87 257.02 454.87 256.01 455.24C252.99 456.33 250.54 460.12 250.54 463.69C250.54 466.17 251.72 467.9 253.45 468.36L256.55 469.55L257.44 467.44C259.76 465.85 261.47 462.73 261.47 459.74C261.47 459.21 261.41 458.72 261.31 458.26L262.1 456.39V456.4Z" fill="#006058"/>
<path d="M258.95 469.31V468.88L257.1 469.41" fill="#009A8D"/>
<path d="M263.358 465.046C265.137 461.515 264.603 457.657 262.167 456.43C259.73 455.202 256.313 457.071 254.534 460.602C252.755 464.134 253.289 467.992 255.726 469.219C258.162 470.446 261.58 468.578 263.358 465.046Z" fill="#006058"/>
<path d="M258.95 468.65C261.7 467.66 263.93 464.22 263.93 460.98C263.93 457.74 261.7 455.92 258.95 456.92C256.2 457.92 253.97 461.35 253.97 464.59C253.97 467.83 256.2 469.65 258.95 468.65Z" fill="#00C8B5"/>
<path d="M258.31 462.27L256.55 460.83L258.31 462.27Z" fill="#001D23"/>
<path d="M258.31 462.27L256.55 460.83" stroke="#001D23" stroke-width="0.5" stroke-miterlimit="10" stroke-linecap="square"/>
<path d="M258.95 463.85C259.45 463.67 259.86 463.05 259.86 462.46C259.86 461.87 259.45 461.54 258.95 461.72C258.45 461.9 258.04 462.52 258.04 463.11C258.04 463.7 258.45 464.03 258.95 463.85Z" fill="#001D23"/>
<path d="M258.95 458.52V459.32V458.52Z" fill="#001D23"/>
<path d="M258.95 458.52V459.32" stroke="#001D23" stroke-width="0.5" stroke-miterlimit="10" stroke-linecap="square"/>
<path d="M261.51 458.84L261.03 459.58L261.51 458.84Z" fill="#001D23"/>
<path d="M261.51 458.84L261.03 459.58" stroke="#001D23" stroke-width="0.5" stroke-miterlimit="10" stroke-linecap="square"/>
<path d="M262.57 461.48L261.89 461.73L262.57 461.48Z" fill="#001D23"/>
<path d="M262.57 461.48L261.89 461.73" stroke="#001D23" stroke-width="0.5" stroke-miterlimit="10" stroke-linecap="square"/>
<path d="M256 463.85L255.32 464.1L256 463.85Z" fill="#001D23"/>
<path d="M256 463.85L255.32 464.1" stroke="#001D23" stroke-width="0.5" stroke-miterlimit="10" stroke-linecap="square"/>
</g>
<g clip-path="url(#clip1_1015_6314)">
<path d="M225 458.02L239.07 453L244.22 454.7L230.15 459.72L225 458.02Z" fill="#429A97"/>
<path d="M230.15 459.7L244.22 454.68V479.2L230.15 484.22V459.7Z" fill="#00C8B5"/>
<path d="M225 458.02L230.15 459.7V484.24L225 482.22V458.02Z" fill="#006058"/>
<path d="M244.1 463.4L240.79 462.14C239.97 461.87 239.02 461.87 238.01 462.24C234.99 463.33 232.54 467.12 232.54 470.69C232.54 473.17 233.72 474.9 235.45 475.36L238.55 476.55L239.44 474.44C241.76 472.85 243.47 469.73 243.47 466.74C243.47 466.21 243.41 465.72 243.31 465.26L244.1 463.39V463.4Z" fill="#006058"/>
<path d="M240.95 476.31V475.88L239.1 476.41" fill="#009A8D"/>
<path d="M245.358 472.046C247.137 468.515 246.603 464.657 244.167 463.43C241.73 462.202 238.313 464.071 236.534 467.602C234.755 471.134 235.289 474.992 237.726 476.219C240.162 477.446 243.58 475.578 245.358 472.046Z" fill="#006058"/>
<path d="M240.95 475.65C243.7 474.66 245.93 471.22 245.93 467.98C245.93 464.74 243.7 462.92 240.95 463.92C238.2 464.92 235.97 468.35 235.97 471.59C235.97 474.83 238.2 476.65 240.95 475.65Z" fill="#00C8B5"/>
<path d="M240.31 469.27L238.55 467.83L240.31 469.27Z" fill="#001D23"/>
<path d="M240.31 469.27L238.55 467.83" stroke="#001D23" stroke-width="0.5" stroke-miterlimit="10" stroke-linecap="square"/>
<path d="M240.95 470.85C241.45 470.67 241.86 470.05 241.86 469.46C241.86 468.87 241.45 468.54 240.95 468.72C240.45 468.9 240.04 469.52 240.04 470.11C240.04 470.7 240.45 471.03 240.95 470.85Z" fill="#001D23"/>
<path d="M240.95 465.52V466.32V465.52Z" fill="#001D23"/>
<path d="M240.95 465.52V466.32" stroke="#001D23" stroke-width="0.5" stroke-miterlimit="10" stroke-linecap="square"/>
<path d="M243.51 465.84L243.03 466.58L243.51 465.84Z" fill="#001D23"/>
<path d="M243.51 465.84L243.03 466.58" stroke="#001D23" stroke-width="0.5" stroke-miterlimit="10" stroke-linecap="square"/>
<path d="M244.57 468.48L243.89 468.73L244.57 468.48Z" fill="#001D23"/>
<path d="M244.57 468.48L243.89 468.73" stroke="#001D23" stroke-width="0.5" stroke-miterlimit="10" stroke-linecap="square"/>
<path d="M238 470.85L237.32 471.1L238 470.85Z" fill="#001D23"/>
<path d="M238 470.85L237.32 471.1" stroke="#001D23" stroke-width="0.5" stroke-miterlimit="10" stroke-linecap="square"/>
</g>
<g clip-path="url(#clip2_1015_6314)">
<path d="M207 465.02L221.07 460L226.22 461.7L212.15 466.72L207 465.02Z" fill="#429A97"/>
<path d="M212.15 466.7L226.22 461.68V486.2L212.15 491.22V466.7Z" fill="#00C8B5"/>
<path d="M207 465.02L212.15 466.7V491.24L207 489.22V465.02Z" fill="#006058"/>
<path d="M226.1 470.4L222.79 469.14C221.97 468.87 221.02 468.87 220.01 469.24C216.99 470.33 214.54 474.12 214.54 477.69C214.54 480.17 215.72 481.9 217.45 482.36L220.55 483.55L221.44 481.44C223.76 479.85 225.47 476.73 225.47 473.74C225.47 473.21 225.41 472.72 225.31 472.26L226.1 470.39V470.4Z" fill="#006058"/>
<path d="M227.358 479.046C229.137 475.515 228.603 471.657 226.167 470.43C223.73 469.202 220.313 471.071 218.534 474.602C216.755 478.134 217.289 481.992 219.726 483.219C222.162 484.446 225.58 482.578 227.358 479.046Z" fill="#006058"/>
<path d="M222.95 482.65C225.7 481.66 227.93 478.22 227.93 474.98C227.93 471.74 225.7 469.92 222.95 470.92C220.2 471.92 217.97 475.35 217.97 478.59C217.97 481.83 220.2 483.65 222.95 482.65Z" fill="#00C8B5"/>
<path d="M222.31 476.27L220.55 474.83L222.31 476.27Z" fill="#001D23"/>
<path d="M222.31 476.27L220.55 474.83" stroke="#001D23" stroke-width="0.5" stroke-miterlimit="10" stroke-linecap="square"/>
<path d="M222.95 477.85C223.45 477.67 223.86 477.05 223.86 476.46C223.86 475.87 223.45 475.54 222.95 475.72C222.45 475.9 222.04 476.52 222.04 477.11C222.04 477.7 222.45 478.03 222.95 477.85Z" fill="#001D23"/>
<path d="M222.95 472.52V473.32V472.52Z" fill="#001D23"/>
<path d="M222.95 472.52V473.32" stroke="#001D23" stroke-width="0.5" stroke-miterlimit="10" stroke-linecap="square"/>
<path d="M225.51 472.84L225.03 473.58L225.51 472.84Z" fill="#001D23"/>
<path d="M225.51 472.84L225.03 473.58" stroke="#001D23" stroke-width="0.5" stroke-miterlimit="10" stroke-linecap="square"/>
<path d="M226.57 475.48L225.89 475.73L226.57 475.48Z" fill="#001D23"/>
<path d="M226.57 475.48L225.89 475.73" stroke="#001D23" stroke-width="0.5" stroke-miterlimit="10" stroke-linecap="square"/>
<path d="M220 477.85L219.32 478.1L220 477.85Z" fill="#001D23"/>
<path d="M220 477.85L219.32 478.1" stroke="#001D23" stroke-width="0.5" stroke-miterlimit="10" stroke-linecap="square"/>
</g>
<path d="M259 463L312.248 442.596C313.355 442.172 314.086 441.109 314.086 439.924V66.8621C314.086 65.2815 315.367 64.0002 316.948 64.0002H360" stroke="#BECFD2" stroke-width="1.5"/>
<path d="M256 461.315C256 460.589 256.59 460 257.319 460L260.681 460C261.41 460 262 460.589 262 461.315L262 464.685C262 465.411 261.41 466 260.681 466L256 466L256 461.315Z" fill="#DCEBEE"/>
<defs>
<clipPath id="clip0_1015_6314">
<rect width="21.41" height="31.24" fill="white" transform="translate(243 446)"/>
</clipPath>
<clipPath id="clip1_1015_6314">
<rect width="21.41" height="31.24" fill="white" transform="translate(225 453)"/>
</clipPath>
<clipPath id="clip2_1015_6314">
<rect width="21.41" height="31.24" fill="white" transform="translate(207 460)"/>
</clipPath>
</defs>
</svg>
